M48
; DRILL file {KiCad (5.1.5)-3} date 2/27/2021 9:42:29 AM
; FORMAT={-:-/ absolute / inch / decimal}
; #@! TF.CreationDate,2021-02-27T09:42:29-05:00
; #@! TF.GenerationSoftware,Kicad,Pcbnew,(5.1.5)-3
; #@! TF.FileFunction,Plated,1,2,PTH
FMAT,2
INCH
T1C0.0197
T2C0.0315
T3C0.0394
T4C0.0748
T5C0.0787
T6C0.1024
T7C0.1260
%
G90
G05
T1
X8.8894Y-5.9832
X8.8894Y-6.0344
X8.8894Y-6.0856
X8.8894Y-6.1368
X8.8894Y-6.188
X8.8894Y-6.3769
X8.8894Y-6.4281
X8.8894Y-6.4793
X8.8894Y-6.5305
X8.8894Y-6.5817
X8.9681Y-5.938
X8.9681Y-6.2332
X8.9681Y-6.3317
X8.9681Y-6.6269
X9.0469Y-5.9832
X9.0469Y-6.0344
X9.0469Y-6.0856
X9.0469Y-6.1368
X9.0469Y-6.188
X9.0469Y-6.3769
X9.0469Y-6.4281
X9.0469Y-6.4793
X9.0469Y-6.5305
X9.0469Y-6.5817
X8.2693Y-2.9025
X8.2693Y-2.9537
X8.2693Y-3.0049
X8.2693Y-3.0561
X8.2693Y-3.1073
X8.2693Y-3.2962
X8.2693Y-3.3474
X8.2693Y-3.3986
X8.2693Y-3.4498
X8.2693Y-3.501
X8.348Y-2.8573
X8.348Y-3.1525
X8.348Y-3.251
X8.348Y-3.5462
X8.4268Y-2.9025
X8.4268Y-2.9537
X8.4268Y-3.0049
X8.4268Y-3.0561
X8.4268Y-3.1073
X8.4268Y-3.2962
X8.4268Y-3.3474
X8.4268Y-3.3986
X8.4268Y-3.4498
X8.4268Y-3.501
T2
X8.1256Y-6.2073
X8.1256Y-6.2825
X8.1256Y-6.3577
X9.1906Y-3.1266
X9.1906Y-3.2017
X9.1906Y-3.2769
T3
X7.4783Y-5.8333
X7.549Y-5.7626
X7.549Y-5.904
X7.6197Y-5.6919
X7.6197Y-5.8333
X7.6904Y-5.7626
X9.6768Y-5.7313
X9.6768Y-5.8313
X9.6768Y-5.9313
X9.7768Y-5.7313
X9.7768Y-5.8313
X9.7768Y-5.9313
X8.175Y-6.8142
X8.6081Y-6.8142
X9.6257Y-3.6822
X9.6965Y-3.6115
X9.6965Y-3.7529
X9.7672Y-3.5408
X9.7672Y-3.6822
X9.8379Y-3.6115
X7.4666Y-3.6133
X7.5373Y-3.5426
X7.5373Y-3.684
X7.608Y-3.6133
X7.608Y-3.7547
X7.6787Y-3.684
X8.715Y-2.6505
X9.1481Y-2.6505
T4
X8.2931Y-6.6173
X8.49Y-6.6173
X8.8331Y-2.8473
X9.03Y-2.8473
T6
X10.1166Y-3.7188
X10.2583Y-3.9643
X7.6446Y-3.2639
X7.8901Y-3.1222
X7.048Y-5.4904
X7.1897Y-5.7359
X9.4162Y-3.1222
X9.6617Y-3.2639
X9.4162Y-6.3325
X9.6617Y-6.1908
X7.6446Y-6.1907
X7.8901Y-6.3325
X10.4248Y-4.5856
X10.4248Y-4.8691
X6.8815Y-4.5856
X6.8815Y-4.869
X10.1166Y-5.7359
X10.2583Y-5.4904
X7.048Y-3.9642
X7.1897Y-3.7187
T7
X10.1886Y-3.1919
X7.1177Y-3.1919
X10.1886Y-6.2628
X7.1177Y-6.2628
T5
G00X8.9681Y-6.0069
M15
G01X8.9681Y-6.1643
M16
G05
G00X8.9681Y-6.4006
M15
G01X8.9681Y-6.558
M16
G05
G00X8.348Y-3.0836
M15
G01X8.348Y-2.9262
M16
G05
G00X8.348Y-3.4773
M15
G01X8.348Y-3.3199
M16
G05
T0
M30
