M48
; DRILL file {KiCad (5.1.5)-3} date 2/27/2021 9:42:29 AM
; FORMAT={-:-/ absolute / inch / decimal}
; #@! TF.CreationDate,2021-02-27T09:42:29-05:00
; #@! TF.GenerationSoftware,Kicad,Pcbnew,(5.1.5)-3
; #@! TF.FileFunction,NonPlated,1,2,NPTH
FMAT,2
INCH
T1C0.0236
%
G90
G05
T1
G00X6.7985Y-3.9634
M15
G01X6.7644Y-3.9437
M16
G05
G00X6.7984Y-5.4913
M15
G01X6.7643Y-5.5109
M16
G05
G00X7.0642Y-5.9515
M15
G01X7.0301Y-5.9712
M16
G05
G00X9.4171Y-2.8726
M15
G01X9.4368Y-2.8385
M16
G05
G00X9.8774Y-3.1384
M15
G01X9.8971Y-3.1043
M16
G05
G00X9.4171Y-6.582
M15
G01X9.4368Y-6.6161
M16
G05
G00X9.8774Y-6.3163
M15
G01X9.8971Y-6.3504
M16
G05
G00X7.4289Y-6.3163
M15
G01X7.4092Y-6.3504
M16
G05
G00X7.8892Y-6.582
M15
G01X7.8695Y-6.6161
M16
G05
G00X10.6413Y-4.4616
M15
G01X10.6807Y-4.4616
M16
G05
G00X10.6413Y-4.9931
M15
G01X10.6807Y-4.9931
M16
G05
G00X6.665Y-4.4616
M15
G01X6.6256Y-4.4616
M16
G05
G00X6.665Y-4.9931
M15
G01X6.6256Y-4.9931
M16
G05
G00X10.2421Y-5.9516
M15
G01X10.2762Y-5.9713
M16
G05
G00X10.5078Y-5.4913
M15
G01X10.5419Y-5.511
M16
G05
G00X7.0642Y-3.5031
M15
G01X7.0301Y-3.4834
M16
G05
G00X10.2421Y-3.5031
M15
G01X10.2762Y-3.4834
M16
G05
G00X10.5079Y-3.9634
M15
G01X10.5419Y-3.9437
M16
G05
G00X7.4289Y-3.1384
M15
G01X7.4092Y-3.1043
M16
G05
G00X7.8892Y-2.8726
M15
G01X7.8695Y-2.8385
M16
G05
T0
M30
