M48
; DRILL file {KiCad 8.0.6} date 2024-11-27T15:34:58-0500
; FORMAT={-:-/ absolute / inch / decimal}
; #@! TF.CreationDate,2024-11-27T15:34:58-05:00
; #@! TF.GenerationSoftware,Kicad,Pcbnew,8.0.6
; #@! TF.FileFunction,Plated,1,2,PTH
FMAT,2
INCH
; #@! TA.AperFunction,Plated,PTH,ViaDrill
T1C0.0118
; #@! TA.AperFunction,Plated,PTH,ComponentDrill
T2C0.0394
%
G90
G05
T1
X7.2722Y-3.6699
X7.3001Y-3.6977
X7.314Y-3.6559
X7.3279Y-3.6142
X7.3279Y-3.7255
X7.3418Y-3.6838
X7.3557Y-3.642
X7.3557Y-3.7534
X7.3697Y-3.6003
X7.3697Y-3.7116
X7.3836Y-3.6699
X7.3975Y-3.6281
X7.3975Y-3.7395
X7.4114Y-3.6977
X7.4253Y-3.6559
X7.4393Y-3.7255
X7.4532Y-3.6838
T2
X7.1439Y-3.3749
X7.2135Y-3.3053
X7.7546Y-3.5531
X7.7546Y-3.6516
M30
