%TF.GenerationSoftware,KiCad,Pcbnew,8.0.6*%
%TF.CreationDate,2024-11-27T15:34:58-05:00*%
%TF.ProjectId,lightboard,6c696768-7462-46f6-9172-642e6b696361,rev?*%
%TF.SameCoordinates,Original*%
%TF.FileFunction,Legend,Bot*%
%TF.FilePolarity,Positive*%
%FSLAX46Y46*%
G04 Gerber Fmt 4.6, Leading zero omitted, Abs format (unit mm)*
G04 Created by KiCad (PCBNEW 8.0.6) date 2024-11-27 15:34:58*
%MOMM*%
%LPD*%
G01*
G04 APERTURE LIST*
G04 Aperture macros list*
%AMRoundRect*
0 Rectangle with rounded corners*
0 $1 Rounding radius*
0 $2 $3 $4 $5 $6 $7 $8 $9 X,Y pos of 4 corners*
0 Add a 4 corners polygon primitive as box body*
4,1,4,$2,$3,$4,$5,$6,$7,$8,$9,$2,$3,0*
0 Add four circle primitives for the rounded corners*
1,1,$1+$1,$2,$3*
1,1,$1+$1,$4,$5*
1,1,$1+$1,$6,$7*
1,1,$1+$1,$8,$9*
0 Add four rect primitives between the rounded corners*
20,1,$1+$1,$2,$3,$4,$5,0*
20,1,$1+$1,$4,$5,$6,$7,0*
20,1,$1+$1,$6,$7,$8,$9,0*
20,1,$1+$1,$8,$9,$2,$3,0*%
%AMHorizOval*
0 Thick line with rounded ends*
0 $1 width*
0 $2 $3 position (X,Y) of the first rounded end (center of the circle)*
0 $4 $5 position (X,Y) of the second rounded end (center of the circle)*
0 Add line between two ends*
20,1,$1,$2,$3,$4,$5,0*
0 Add two circle primitives to create the rounded ends*
1,1,$1,$2,$3*
1,1,$1,$4,$5*%
G04 Aperture macros list end*
%ADD10C,0.300000*%
%ADD11C,0.187500*%
%ADD12C,0.250000*%
%ADD13RoundRect,0.250000X0.106066X-0.954594X0.954594X-0.106066X-0.106066X0.954594X-0.954594X0.106066X0*%
%ADD14HorizOval,1.700000X-0.106066X0.106066X0.106066X-0.106066X0*%
%ADD15C,3.200000*%
%ADD16RoundRect,0.250000X-0.750000X0.600000X-0.750000X-0.600000X0.750000X-0.600000X0.750000X0.600000X0*%
%ADD17O,2.000000X1.700000*%
G04 APERTURE END LIST*
D10*
G36*
X195650828Y-100315882D02*
G01*
X195598294Y-100473484D01*
X195497688Y-100574089D01*
X195391328Y-100627270D01*
X195139507Y-100690225D01*
X194962149Y-100690225D01*
X194710327Y-100627269D01*
X194603968Y-100574090D01*
X194503361Y-100473483D01*
X194450828Y-100315884D01*
X194450828Y-100133082D01*
X195650828Y-100133082D01*
X195650828Y-100315882D01*
G37*
G36*
X196117495Y-102156669D02*
G01*
X193912955Y-102156669D01*
X193912955Y-101546348D01*
X194079622Y-101546348D01*
X194080788Y-101554511D01*
X194079622Y-101562674D01*
X194084894Y-101583253D01*
X194087899Y-101604286D01*
X194092100Y-101611381D01*
X194094147Y-101619370D01*
X194109400Y-101644511D01*
X194323685Y-101930225D01*
X194343549Y-101951907D01*
X194393910Y-101981726D01*
X194451848Y-101990002D01*
X194508544Y-101975478D01*
X194555367Y-101940361D01*
X194585186Y-101889999D01*
X194593462Y-101832062D01*
X194578938Y-101775365D01*
X194563685Y-101750225D01*
X194416899Y-101554511D01*
X194563685Y-101358797D01*
X194578938Y-101333657D01*
X194593462Y-101276960D01*
X194585186Y-101219023D01*
X194555367Y-101168661D01*
X194508544Y-101133544D01*
X194451848Y-101119020D01*
X194393910Y-101127296D01*
X194343549Y-101157115D01*
X194323685Y-101178797D01*
X194109400Y-101464511D01*
X194094147Y-101489652D01*
X194092100Y-101497640D01*
X194087899Y-101504736D01*
X194084894Y-101525768D01*
X194079622Y-101546348D01*
X193912955Y-101546348D01*
X193912955Y-99983082D01*
X194150828Y-99983082D01*
X194150828Y-100340225D01*
X194152286Y-100355036D01*
X194152006Y-100358986D01*
X194153187Y-100364180D01*
X194153710Y-100369489D01*
X194155227Y-100373151D01*
X194158526Y-100387659D01*
X194229954Y-100601945D01*
X194241943Y-100628796D01*
X194245473Y-100632866D01*
X194247536Y-100637846D01*
X194266191Y-100660577D01*
X194409048Y-100803434D01*
X194420550Y-100812874D01*
X194423146Y-100815867D01*
X194427655Y-100818705D01*
X194431778Y-100822089D01*
X194435440Y-100823605D01*
X194448032Y-100831532D01*
X194590888Y-100902961D01*
X194593030Y-100903780D01*
X194593900Y-100904425D01*
X194606171Y-100908809D01*
X194618352Y-100913470D01*
X194619432Y-100913546D01*
X194621591Y-100914318D01*
X194907305Y-100985746D01*
X194912376Y-100986495D01*
X194914421Y-100987343D01*
X194925443Y-100988428D01*
X194936394Y-100990048D01*
X194938581Y-100989722D01*
X194943685Y-100990225D01*
X195157971Y-100990225D01*
X195163074Y-100989722D01*
X195165262Y-100990048D01*
X195176212Y-100988428D01*
X195187235Y-100987343D01*
X195189279Y-100986495D01*
X195194351Y-100985746D01*
X195480065Y-100914318D01*
X195482223Y-100913546D01*
X195483304Y-100913470D01*
X195495478Y-100908811D01*
X195507756Y-100904425D01*
X195508626Y-100903780D01*
X195510767Y-100902961D01*
X195653624Y-100831532D01*
X195666217Y-100823604D01*
X195669877Y-100822089D01*
X195673996Y-100818707D01*
X195678510Y-100815867D01*
X195681106Y-100812873D01*
X195692608Y-100803434D01*
X195835466Y-100660577D01*
X195854121Y-100637847D01*
X195856183Y-100632867D01*
X195859715Y-100628796D01*
X195871703Y-100601945D01*
X195943131Y-100387659D01*
X195946430Y-100373146D01*
X195947946Y-100369489D01*
X195948468Y-100364186D01*
X195949651Y-100358985D01*
X195949369Y-100355030D01*
X195950828Y-100340225D01*
X195950828Y-99983082D01*
X195947946Y-99953818D01*
X195925548Y-99899746D01*
X195884164Y-99858362D01*
X195830092Y-99835964D01*
X195800828Y-99833082D01*
X194300828Y-99833082D01*
X194271564Y-99835964D01*
X194217492Y-99858362D01*
X194176108Y-99899746D01*
X194153710Y-99953818D01*
X194150828Y-99983082D01*
X193912955Y-99983082D01*
X193912955Y-98625939D01*
X194150828Y-98625939D01*
X194150828Y-99340225D01*
X194153710Y-99369489D01*
X194176108Y-99423561D01*
X194217492Y-99464945D01*
X194271564Y-99487343D01*
X194330092Y-99487343D01*
X194384164Y-99464945D01*
X194425548Y-99423561D01*
X194447946Y-99369489D01*
X194450828Y-99340225D01*
X194450828Y-98775939D01*
X194865114Y-98775939D01*
X194865114Y-99125939D01*
X194867996Y-99155203D01*
X194890394Y-99209275D01*
X194931778Y-99250659D01*
X194985850Y-99273057D01*
X195044378Y-99273057D01*
X195098450Y-99250659D01*
X195139834Y-99209275D01*
X195162232Y-99155203D01*
X195165114Y-99125939D01*
X195165114Y-98775939D01*
X195650828Y-98775939D01*
X195650828Y-99340225D01*
X195653710Y-99369489D01*
X195676108Y-99423561D01*
X195717492Y-99464945D01*
X195771564Y-99487343D01*
X195830092Y-99487343D01*
X195884164Y-99464945D01*
X195925548Y-99423561D01*
X195947946Y-99369489D01*
X195950828Y-99340225D01*
X195950828Y-98625939D01*
X195947946Y-98596675D01*
X195925548Y-98542603D01*
X195884164Y-98501219D01*
X195830092Y-98478821D01*
X195800828Y-98475939D01*
X194300828Y-98475939D01*
X194271564Y-98478821D01*
X194217492Y-98501219D01*
X194176108Y-98542603D01*
X194153710Y-98596675D01*
X194150828Y-98625939D01*
X193912955Y-98625939D01*
X193912955Y-97382389D01*
X194153710Y-97382389D01*
X194153710Y-97440917D01*
X194176108Y-97494989D01*
X194217492Y-97536373D01*
X194271564Y-97558771D01*
X194300828Y-97561653D01*
X195650828Y-97561653D01*
X195650828Y-98125939D01*
X195653710Y-98155203D01*
X195676108Y-98209275D01*
X195717492Y-98250659D01*
X195771564Y-98273057D01*
X195830092Y-98273057D01*
X195884164Y-98250659D01*
X195925548Y-98209275D01*
X195947946Y-98155203D01*
X195950828Y-98125939D01*
X195950828Y-97411653D01*
X195947946Y-97382389D01*
X195925548Y-97328317D01*
X195884164Y-97286933D01*
X195830092Y-97264535D01*
X195800828Y-97261653D01*
X194300828Y-97261653D01*
X194271564Y-97264535D01*
X194217492Y-97286933D01*
X194176108Y-97328317D01*
X194153710Y-97382389D01*
X193912955Y-97382389D01*
X193912955Y-96617776D01*
X194079622Y-96617776D01*
X194080788Y-96625939D01*
X194079622Y-96634102D01*
X194084894Y-96654681D01*
X194087899Y-96675714D01*
X194092100Y-96682809D01*
X194094147Y-96690798D01*
X194109400Y-96715939D01*
X194323685Y-97001653D01*
X194343549Y-97023335D01*
X194393910Y-97053154D01*
X194451848Y-97061430D01*
X194508544Y-97046906D01*
X194555367Y-97011789D01*
X194585186Y-96961427D01*
X194593462Y-96903490D01*
X194578938Y-96846793D01*
X194563685Y-96821653D01*
X194416899Y-96625939D01*
X194563685Y-96430225D01*
X194578938Y-96405085D01*
X194593462Y-96348388D01*
X194585186Y-96290451D01*
X194555367Y-96240089D01*
X194508544Y-96204972D01*
X194451848Y-96190448D01*
X194393910Y-96198724D01*
X194343549Y-96228543D01*
X194323685Y-96250225D01*
X194109400Y-96535939D01*
X194094147Y-96561080D01*
X194092100Y-96569068D01*
X194087899Y-96576164D01*
X194084894Y-96597196D01*
X194079622Y-96617776D01*
X193912955Y-96617776D01*
X193912955Y-96023781D01*
X196117495Y-96023781D01*
X196117495Y-102156669D01*
G37*
D11*
X196901202Y-97290021D02*
X197567869Y-97290021D01*
X196520250Y-97051926D02*
X197234535Y-96813831D01*
X197234535Y-96813831D02*
X197234535Y-97432878D01*
X196567869Y-98290021D02*
X196567869Y-97813831D01*
X196567869Y-97813831D02*
X197044059Y-97766212D01*
X197044059Y-97766212D02*
X196996440Y-97813831D01*
X196996440Y-97813831D02*
X196948821Y-97909069D01*
X196948821Y-97909069D02*
X196948821Y-98147164D01*
X196948821Y-98147164D02*
X196996440Y-98242402D01*
X196996440Y-98242402D02*
X197044059Y-98290021D01*
X197044059Y-98290021D02*
X197139297Y-98337640D01*
X197139297Y-98337640D02*
X197377392Y-98337640D01*
X197377392Y-98337640D02*
X197472630Y-98290021D01*
X197472630Y-98290021D02*
X197520250Y-98242402D01*
X197520250Y-98242402D02*
X197567869Y-98147164D01*
X197567869Y-98147164D02*
X197567869Y-97909069D01*
X197567869Y-97909069D02*
X197520250Y-97813831D01*
X197520250Y-97813831D02*
X197472630Y-97766212D01*
X196567869Y-98956688D02*
X196567869Y-99051926D01*
X196567869Y-99051926D02*
X196615488Y-99147164D01*
X196615488Y-99147164D02*
X196663107Y-99194783D01*
X196663107Y-99194783D02*
X196758345Y-99242402D01*
X196758345Y-99242402D02*
X196948821Y-99290021D01*
X196948821Y-99290021D02*
X197186916Y-99290021D01*
X197186916Y-99290021D02*
X197377392Y-99242402D01*
X197377392Y-99242402D02*
X197472630Y-99194783D01*
X197472630Y-99194783D02*
X197520250Y-99147164D01*
X197520250Y-99147164D02*
X197567869Y-99051926D01*
X197567869Y-99051926D02*
X197567869Y-98956688D01*
X197567869Y-98956688D02*
X197520250Y-98861450D01*
X197520250Y-98861450D02*
X197472630Y-98813831D01*
X197472630Y-98813831D02*
X197377392Y-98766212D01*
X197377392Y-98766212D02*
X197186916Y-98718593D01*
X197186916Y-98718593D02*
X196948821Y-98718593D01*
X196948821Y-98718593D02*
X196758345Y-98766212D01*
X196758345Y-98766212D02*
X196663107Y-98813831D01*
X196663107Y-98813831D02*
X196615488Y-98861450D01*
X196615488Y-98861450D02*
X196567869Y-98956688D01*
X197567869Y-99718593D02*
X196901202Y-99718593D01*
X196996440Y-99718593D02*
X196948821Y-99766212D01*
X196948821Y-99766212D02*
X196901202Y-99861450D01*
X196901202Y-99861450D02*
X196901202Y-100004307D01*
X196901202Y-100004307D02*
X196948821Y-100099545D01*
X196948821Y-100099545D02*
X197044059Y-100147164D01*
X197044059Y-100147164D02*
X197567869Y-100147164D01*
X197044059Y-100147164D02*
X196948821Y-100194783D01*
X196948821Y-100194783D02*
X196901202Y-100290021D01*
X196901202Y-100290021D02*
X196901202Y-100432878D01*
X196901202Y-100432878D02*
X196948821Y-100528117D01*
X196948821Y-100528117D02*
X197044059Y-100575736D01*
X197044059Y-100575736D02*
X197567869Y-100575736D01*
X197282154Y-101004307D02*
X197282154Y-101480497D01*
X197567869Y-100909069D02*
X196567869Y-101242402D01*
X196567869Y-101242402D02*
X197567869Y-101575735D01*
X197667869Y-81709978D02*
X197667869Y-81138550D01*
X197667869Y-81424264D02*
X196667869Y-81424264D01*
X196667869Y-81424264D02*
X196810726Y-81329026D01*
X196810726Y-81329026D02*
X196905964Y-81233788D01*
X196905964Y-81233788D02*
X196953583Y-81138550D01*
X197572630Y-82138550D02*
X197620250Y-82186169D01*
X197620250Y-82186169D02*
X197667869Y-82138550D01*
X197667869Y-82138550D02*
X197620250Y-82090931D01*
X197620250Y-82090931D02*
X197572630Y-82138550D01*
X197572630Y-82138550D02*
X197667869Y-82138550D01*
X196667869Y-82805216D02*
X196667869Y-82900454D01*
X196667869Y-82900454D02*
X196715488Y-82995692D01*
X196715488Y-82995692D02*
X196763107Y-83043311D01*
X196763107Y-83043311D02*
X196858345Y-83090930D01*
X196858345Y-83090930D02*
X197048821Y-83138549D01*
X197048821Y-83138549D02*
X197286916Y-83138549D01*
X197286916Y-83138549D02*
X197477392Y-83090930D01*
X197477392Y-83090930D02*
X197572630Y-83043311D01*
X197572630Y-83043311D02*
X197620250Y-82995692D01*
X197620250Y-82995692D02*
X197667869Y-82900454D01*
X197667869Y-82900454D02*
X197667869Y-82805216D01*
X197667869Y-82805216D02*
X197620250Y-82709978D01*
X197620250Y-82709978D02*
X197572630Y-82662359D01*
X197572630Y-82662359D02*
X197477392Y-82614740D01*
X197477392Y-82614740D02*
X197286916Y-82567121D01*
X197286916Y-82567121D02*
X197048821Y-82567121D01*
X197048821Y-82567121D02*
X196858345Y-82614740D01*
X196858345Y-82614740D02*
X196763107Y-82662359D01*
X196763107Y-82662359D02*
X196715488Y-82709978D01*
X196715488Y-82709978D02*
X196667869Y-82805216D01*
X197001202Y-84329026D02*
X197858345Y-84329026D01*
X197858345Y-84329026D02*
X197953583Y-84281407D01*
X197953583Y-84281407D02*
X198001202Y-84186169D01*
X198001202Y-84186169D02*
X198001202Y-84138550D01*
X196667869Y-84329026D02*
X196715488Y-84281407D01*
X196715488Y-84281407D02*
X196763107Y-84329026D01*
X196763107Y-84329026D02*
X196715488Y-84376645D01*
X196715488Y-84376645D02*
X196667869Y-84329026D01*
X196667869Y-84329026D02*
X196763107Y-84329026D01*
X197667869Y-84805216D02*
X196667869Y-84805216D01*
X197286916Y-84900454D02*
X197667869Y-85186168D01*
X197001202Y-85186168D02*
X197382154Y-84805216D01*
X195163107Y-81114740D02*
X195115488Y-81162359D01*
X195115488Y-81162359D02*
X195067869Y-81257597D01*
X195067869Y-81257597D02*
X195067869Y-81495692D01*
X195067869Y-81495692D02*
X195115488Y-81590930D01*
X195115488Y-81590930D02*
X195163107Y-81638549D01*
X195163107Y-81638549D02*
X195258345Y-81686168D01*
X195258345Y-81686168D02*
X195353583Y-81686168D01*
X195353583Y-81686168D02*
X195496440Y-81638549D01*
X195496440Y-81638549D02*
X196067869Y-81067121D01*
X196067869Y-81067121D02*
X196067869Y-81686168D01*
X195067869Y-82305216D02*
X195067869Y-82400454D01*
X195067869Y-82400454D02*
X195115488Y-82495692D01*
X195115488Y-82495692D02*
X195163107Y-82543311D01*
X195163107Y-82543311D02*
X195258345Y-82590930D01*
X195258345Y-82590930D02*
X195448821Y-82638549D01*
X195448821Y-82638549D02*
X195686916Y-82638549D01*
X195686916Y-82638549D02*
X195877392Y-82590930D01*
X195877392Y-82590930D02*
X195972630Y-82543311D01*
X195972630Y-82543311D02*
X196020250Y-82495692D01*
X196020250Y-82495692D02*
X196067869Y-82400454D01*
X196067869Y-82400454D02*
X196067869Y-82305216D01*
X196067869Y-82305216D02*
X196020250Y-82209978D01*
X196020250Y-82209978D02*
X195972630Y-82162359D01*
X195972630Y-82162359D02*
X195877392Y-82114740D01*
X195877392Y-82114740D02*
X195686916Y-82067121D01*
X195686916Y-82067121D02*
X195448821Y-82067121D01*
X195448821Y-82067121D02*
X195258345Y-82114740D01*
X195258345Y-82114740D02*
X195163107Y-82162359D01*
X195163107Y-82162359D02*
X195115488Y-82209978D01*
X195115488Y-82209978D02*
X195067869Y-82305216D01*
X195163107Y-83019502D02*
X195115488Y-83067121D01*
X195115488Y-83067121D02*
X195067869Y-83162359D01*
X195067869Y-83162359D02*
X195067869Y-83400454D01*
X195067869Y-83400454D02*
X195115488Y-83495692D01*
X195115488Y-83495692D02*
X195163107Y-83543311D01*
X195163107Y-83543311D02*
X195258345Y-83590930D01*
X195258345Y-83590930D02*
X195353583Y-83590930D01*
X195353583Y-83590930D02*
X195496440Y-83543311D01*
X195496440Y-83543311D02*
X196067869Y-82971883D01*
X196067869Y-82971883D02*
X196067869Y-83590930D01*
X195401202Y-84448073D02*
X196067869Y-84448073D01*
X195020250Y-84209978D02*
X195734535Y-83971883D01*
X195734535Y-83971883D02*
X195734535Y-84590930D01*
X195686916Y-84971883D02*
X195686916Y-85733788D01*
X196067869Y-86733787D02*
X196067869Y-86162359D01*
X196067869Y-86448073D02*
X195067869Y-86448073D01*
X195067869Y-86448073D02*
X195210726Y-86352835D01*
X195210726Y-86352835D02*
X195305964Y-86257597D01*
X195305964Y-86257597D02*
X195353583Y-86162359D01*
X196067869Y-87686168D02*
X196067869Y-87114740D01*
X196067869Y-87400454D02*
X195067869Y-87400454D01*
X195067869Y-87400454D02*
X195210726Y-87305216D01*
X195210726Y-87305216D02*
X195305964Y-87209978D01*
X195305964Y-87209978D02*
X195353583Y-87114740D01*
D12*
X181464450Y-90815476D02*
X181464450Y-91410714D01*
X181821593Y-90696428D02*
X180571593Y-91113095D01*
X180571593Y-91113095D02*
X181821593Y-91529761D01*
X181166831Y-91946429D02*
X181166831Y-92363095D01*
X181821593Y-92541667D02*
X181821593Y-91946429D01*
X181821593Y-91946429D02*
X180571593Y-91946429D01*
X180571593Y-91946429D02*
X180571593Y-92541667D01*
X181821593Y-93791666D02*
X181226355Y-93375000D01*
X181821593Y-93077381D02*
X180571593Y-93077381D01*
X180571593Y-93077381D02*
X180571593Y-93553571D01*
X180571593Y-93553571D02*
X180631117Y-93672619D01*
X180631117Y-93672619D02*
X180690641Y-93732142D01*
X180690641Y-93732142D02*
X180809689Y-93791666D01*
X180809689Y-93791666D02*
X180988260Y-93791666D01*
X180988260Y-93791666D02*
X181107308Y-93732142D01*
X181107308Y-93732142D02*
X181166831Y-93672619D01*
X181166831Y-93672619D02*
X181226355Y-93553571D01*
X181226355Y-93553571D02*
X181226355Y-93077381D01*
X181821593Y-94327381D02*
X180571593Y-94327381D01*
X180571593Y-94327381D02*
X180571593Y-94803571D01*
X180571593Y-94803571D02*
X180631117Y-94922619D01*
X180631117Y-94922619D02*
X180690641Y-94982142D01*
X180690641Y-94982142D02*
X180809689Y-95041666D01*
X180809689Y-95041666D02*
X180988260Y-95041666D01*
X180988260Y-95041666D02*
X181107308Y-94982142D01*
X181107308Y-94982142D02*
X181166831Y-94922619D01*
X181166831Y-94922619D02*
X181226355Y-94803571D01*
X181226355Y-94803571D02*
X181226355Y-94327381D01*
X181464450Y-95517857D02*
X181464450Y-96113095D01*
X181821593Y-95398809D02*
X180571593Y-95815476D01*
X180571593Y-95815476D02*
X181821593Y-96232142D01*
X180571593Y-96529762D02*
X181821593Y-96827381D01*
X181821593Y-96827381D02*
X180928736Y-97065476D01*
X180928736Y-97065476D02*
X181821593Y-97303571D01*
X181821593Y-97303571D02*
X180571593Y-97601191D01*
X181762070Y-98970238D02*
X181821593Y-99148809D01*
X181821593Y-99148809D02*
X181821593Y-99446428D01*
X181821593Y-99446428D02*
X181762070Y-99565476D01*
X181762070Y-99565476D02*
X181702546Y-99625000D01*
X181702546Y-99625000D02*
X181583498Y-99684523D01*
X181583498Y-99684523D02*
X181464450Y-99684523D01*
X181464450Y-99684523D02*
X181345403Y-99625000D01*
X181345403Y-99625000D02*
X181285879Y-99565476D01*
X181285879Y-99565476D02*
X181226355Y-99446428D01*
X181226355Y-99446428D02*
X181166831Y-99208333D01*
X181166831Y-99208333D02*
X181107308Y-99089285D01*
X181107308Y-99089285D02*
X181047784Y-99029762D01*
X181047784Y-99029762D02*
X180928736Y-98970238D01*
X180928736Y-98970238D02*
X180809689Y-98970238D01*
X180809689Y-98970238D02*
X180690641Y-99029762D01*
X180690641Y-99029762D02*
X180631117Y-99089285D01*
X180631117Y-99089285D02*
X180571593Y-99208333D01*
X180571593Y-99208333D02*
X180571593Y-99505952D01*
X180571593Y-99505952D02*
X180631117Y-99684523D01*
X181464450Y-100160714D02*
X181464450Y-100755952D01*
X181821593Y-100041666D02*
X180571593Y-100458333D01*
X180571593Y-100458333D02*
X181821593Y-100874999D01*
X181821593Y-101291667D02*
X180571593Y-101291667D01*
X180571593Y-101291667D02*
X181464450Y-101708333D01*
X181464450Y-101708333D02*
X180571593Y-102125000D01*
X180571593Y-102125000D02*
X181821593Y-102125000D01*
X183834023Y-92511904D02*
X183834023Y-91916666D01*
X183834023Y-91916666D02*
X182584023Y-91916666D01*
X183179261Y-92928571D02*
X183179261Y-93345237D01*
X183834023Y-93523809D02*
X183834023Y-92928571D01*
X183834023Y-92928571D02*
X182584023Y-92928571D01*
X182584023Y-92928571D02*
X182584023Y-93523809D01*
X183834023Y-94059523D02*
X182584023Y-94059523D01*
X182584023Y-94059523D02*
X182584023Y-94357142D01*
X182584023Y-94357142D02*
X182643547Y-94535713D01*
X182643547Y-94535713D02*
X182762595Y-94654761D01*
X182762595Y-94654761D02*
X182881642Y-94714284D01*
X182881642Y-94714284D02*
X183119738Y-94773808D01*
X183119738Y-94773808D02*
X183298309Y-94773808D01*
X183298309Y-94773808D02*
X183536404Y-94714284D01*
X183536404Y-94714284D02*
X183655452Y-94654761D01*
X183655452Y-94654761D02*
X183774500Y-94535713D01*
X183774500Y-94535713D02*
X183834023Y-94357142D01*
X183834023Y-94357142D02*
X183834023Y-94059523D01*
X183834023Y-96261904D02*
X182584023Y-96261904D01*
X182584023Y-96261904D02*
X182584023Y-96559523D01*
X182584023Y-96559523D02*
X182643547Y-96738094D01*
X182643547Y-96738094D02*
X182762595Y-96857142D01*
X182762595Y-96857142D02*
X182881642Y-96916665D01*
X182881642Y-96916665D02*
X183119738Y-96976189D01*
X183119738Y-96976189D02*
X183298309Y-96976189D01*
X183298309Y-96976189D02*
X183536404Y-96916665D01*
X183536404Y-96916665D02*
X183655452Y-96857142D01*
X183655452Y-96857142D02*
X183774500Y-96738094D01*
X183774500Y-96738094D02*
X183834023Y-96559523D01*
X183834023Y-96559523D02*
X183834023Y-96261904D01*
X183834023Y-97511904D02*
X183000690Y-97511904D01*
X183238785Y-97511904D02*
X183119738Y-97571427D01*
X183119738Y-97571427D02*
X183060214Y-97630951D01*
X183060214Y-97630951D02*
X183000690Y-97749999D01*
X183000690Y-97749999D02*
X183000690Y-97869046D01*
X183834023Y-98285714D02*
X183000690Y-98285714D01*
X182584023Y-98285714D02*
X182643547Y-98226190D01*
X182643547Y-98226190D02*
X182703071Y-98285714D01*
X182703071Y-98285714D02*
X182643547Y-98345237D01*
X182643547Y-98345237D02*
X182584023Y-98285714D01*
X182584023Y-98285714D02*
X182703071Y-98285714D01*
X183000690Y-98761904D02*
X183834023Y-99059523D01*
X183834023Y-99059523D02*
X183000690Y-99357142D01*
X183774500Y-100309523D02*
X183834023Y-100190475D01*
X183834023Y-100190475D02*
X183834023Y-99952380D01*
X183834023Y-99952380D02*
X183774500Y-99833333D01*
X183774500Y-99833333D02*
X183655452Y-99773809D01*
X183655452Y-99773809D02*
X183179261Y-99773809D01*
X183179261Y-99773809D02*
X183060214Y-99833333D01*
X183060214Y-99833333D02*
X183000690Y-99952380D01*
X183000690Y-99952380D02*
X183000690Y-100190475D01*
X183000690Y-100190475D02*
X183060214Y-100309523D01*
X183060214Y-100309523D02*
X183179261Y-100369047D01*
X183179261Y-100369047D02*
X183298309Y-100369047D01*
X183298309Y-100369047D02*
X183417357Y-99773809D01*
X183834023Y-100904762D02*
X183000690Y-100904762D01*
X183238785Y-100904762D02*
X183119738Y-100964285D01*
X183119738Y-100964285D02*
X183060214Y-101023809D01*
X183060214Y-101023809D02*
X183000690Y-101142857D01*
X183000690Y-101142857D02*
X183000690Y-101261904D01*
D10*
G36*
X184594551Y-86405553D02*
G01*
X184383791Y-86616312D01*
X184173033Y-86194794D01*
X184594551Y-86405553D01*
G37*
G36*
X185948842Y-85657354D02*
G01*
X185675885Y-85930310D01*
X185581050Y-85961923D01*
X185528718Y-85961923D01*
X185433879Y-85930310D01*
X185332433Y-85828864D01*
X185300821Y-85734028D01*
X185300821Y-85692765D01*
X185375114Y-85544178D01*
X185605390Y-85313902D01*
X185948842Y-85657354D01*
G37*
G36*
X185393258Y-85101770D02*
G01*
X185170810Y-85324218D01*
X185075971Y-85355831D01*
X185023642Y-85355831D01*
X184928802Y-85324218D01*
X184877865Y-85273281D01*
X184846253Y-85178442D01*
X184846253Y-85126112D01*
X184877865Y-85031273D01*
X185100313Y-84808825D01*
X185393258Y-85101770D01*
G37*
G36*
X187366266Y-84899897D02*
G01*
X182322552Y-89943611D01*
X180923393Y-88544452D01*
X181212972Y-88544452D01*
X181227498Y-88601149D01*
X181262614Y-88647969D01*
X181312975Y-88677789D01*
X181370914Y-88686066D01*
X181427611Y-88671540D01*
X181474431Y-88636424D01*
X181504251Y-88586063D01*
X181511242Y-88557501D01*
X181545839Y-88315317D01*
X181788025Y-88280719D01*
X181816587Y-88273728D01*
X181866948Y-88243908D01*
X181902064Y-88197087D01*
X181916589Y-88140391D01*
X181908312Y-88082451D01*
X181878492Y-88032090D01*
X181831672Y-87996975D01*
X181774976Y-87982449D01*
X181745598Y-87983735D01*
X181392044Y-88034243D01*
X181363481Y-88041234D01*
X181356383Y-88045436D01*
X181348396Y-88047483D01*
X181331402Y-88060228D01*
X181313120Y-88071054D01*
X181308171Y-88077652D01*
X181301576Y-88082599D01*
X181290752Y-88100877D01*
X181278005Y-88117875D01*
X181275958Y-88125862D01*
X181271756Y-88132960D01*
X181264764Y-88161522D01*
X181214258Y-88515075D01*
X181212972Y-88544452D01*
X180923393Y-88544452D01*
X180763706Y-88384765D01*
X181348552Y-87799919D01*
X181720708Y-87799919D01*
X181720708Y-87858445D01*
X181743105Y-87912517D01*
X181784491Y-87953903D01*
X181838563Y-87976300D01*
X181897089Y-87976300D01*
X181951161Y-87953903D01*
X181973892Y-87935248D01*
X182170872Y-87738268D01*
X183125466Y-88692862D01*
X183148197Y-88711517D01*
X183202269Y-88733914D01*
X183260795Y-88733914D01*
X183314868Y-88711517D01*
X183356253Y-88670132D01*
X183378650Y-88616059D01*
X183378650Y-88557533D01*
X183356253Y-88503461D01*
X183337598Y-88480730D01*
X182383004Y-87526136D01*
X182579984Y-87329156D01*
X182598639Y-87306425D01*
X182621036Y-87252353D01*
X182621036Y-87193827D01*
X182602900Y-87150042D01*
X182646685Y-87168178D01*
X182705211Y-87168178D01*
X182759283Y-87145781D01*
X182782014Y-87127126D01*
X182978993Y-86930145D01*
X183933588Y-87884740D01*
X183956319Y-87903395D01*
X184010391Y-87925792D01*
X184068917Y-87925792D01*
X184122990Y-87903395D01*
X184164375Y-87862010D01*
X184186772Y-87807937D01*
X184186772Y-87749411D01*
X184164375Y-87695339D01*
X184145720Y-87672608D01*
X183191125Y-86718013D01*
X183388105Y-86521034D01*
X183406760Y-86498303D01*
X183429157Y-86444231D01*
X183429157Y-86385705D01*
X183406760Y-86331632D01*
X183365374Y-86290247D01*
X183311302Y-86267850D01*
X183252776Y-86267850D01*
X183198704Y-86290247D01*
X183175973Y-86308902D01*
X182569882Y-86914994D01*
X182551227Y-86937725D01*
X182528830Y-86991797D01*
X182528830Y-87050323D01*
X182546965Y-87094107D01*
X182503181Y-87075972D01*
X182444655Y-87075972D01*
X182390583Y-87098369D01*
X182367852Y-87117024D01*
X181761760Y-87723116D01*
X181743105Y-87745847D01*
X181720708Y-87799919D01*
X181348552Y-87799919D01*
X183307847Y-85840624D01*
X183688801Y-85840624D01*
X183690134Y-85859385D01*
X183688801Y-85878147D01*
X183692189Y-85888311D01*
X183692949Y-85899004D01*
X183703459Y-85926467D01*
X184410566Y-87340680D01*
X184426231Y-87365565D01*
X184470446Y-87403912D01*
X184525968Y-87422420D01*
X184584349Y-87418271D01*
X184636698Y-87392097D01*
X184675044Y-87347882D01*
X184693552Y-87292359D01*
X184689403Y-87233979D01*
X184678894Y-87206516D01*
X184525213Y-86899154D01*
X184877394Y-86546974D01*
X185184755Y-86700655D01*
X185212219Y-86711165D01*
X185270599Y-86715313D01*
X185326121Y-86696805D01*
X185370336Y-86658459D01*
X185396511Y-86606110D01*
X185400659Y-86547729D01*
X185382152Y-86492207D01*
X185343805Y-86447992D01*
X185318919Y-86432327D01*
X183904705Y-85725221D01*
X183877242Y-85714711D01*
X183866548Y-85713951D01*
X183856384Y-85710563D01*
X183837622Y-85711896D01*
X183818861Y-85710563D01*
X183808696Y-85713951D01*
X183798004Y-85714711D01*
X183781176Y-85723125D01*
X183763339Y-85729071D01*
X183755244Y-85736091D01*
X183745655Y-85740886D01*
X183733332Y-85755094D01*
X183719124Y-85767417D01*
X183714329Y-85777006D01*
X183707309Y-85785101D01*
X183701363Y-85802937D01*
X183692949Y-85819766D01*
X183692189Y-85830459D01*
X183688801Y-85840624D01*
X183307847Y-85840624D01*
X184046701Y-85101770D01*
X184546253Y-85101770D01*
X184546253Y-85202785D01*
X184547711Y-85217590D01*
X184547430Y-85221545D01*
X184548612Y-85226746D01*
X184549135Y-85232049D01*
X184550650Y-85235706D01*
X184553950Y-85250219D01*
X184604457Y-85401742D01*
X184616445Y-85428592D01*
X184619976Y-85432663D01*
X184622039Y-85437643D01*
X184640694Y-85460374D01*
X184741710Y-85561390D01*
X184764440Y-85580045D01*
X184769419Y-85582107D01*
X184773491Y-85585639D01*
X184800342Y-85597627D01*
X184951865Y-85648134D01*
X184966377Y-85651433D01*
X184970035Y-85652949D01*
X184975337Y-85653471D01*
X184980539Y-85654654D01*
X184984493Y-85654372D01*
X184999299Y-85655831D01*
X185000971Y-85655831D01*
X185000821Y-85657354D01*
X185000821Y-85758369D01*
X185002279Y-85773180D01*
X185001999Y-85777130D01*
X185003180Y-85782324D01*
X185003703Y-85787633D01*
X185005220Y-85791295D01*
X185008519Y-85805803D01*
X185059026Y-85957326D01*
X185071015Y-85984177D01*
X185074545Y-85988247D01*
X185076608Y-85993227D01*
X185095263Y-86015958D01*
X185246786Y-86167481D01*
X185269517Y-86186136D01*
X185274496Y-86188198D01*
X185278567Y-86191729D01*
X185305418Y-86203717D01*
X185456940Y-86254225D01*
X185471449Y-86257524D01*
X185475111Y-86259041D01*
X185480419Y-86259563D01*
X185485614Y-86260745D01*
X185489563Y-86260464D01*
X185504375Y-86261923D01*
X185605390Y-86261923D01*
X185620201Y-86260464D01*
X185624151Y-86260745D01*
X185629345Y-86259563D01*
X185634654Y-86259041D01*
X185638316Y-86257523D01*
X185652824Y-86254225D01*
X185804347Y-86203718D01*
X185831198Y-86191729D01*
X185835268Y-86188198D01*
X185840248Y-86186136D01*
X185862979Y-86167481D01*
X186267040Y-85763420D01*
X186285690Y-85740694D01*
X186285695Y-85740690D01*
X186308092Y-85686617D01*
X186308092Y-85628091D01*
X186306534Y-85624330D01*
X186285695Y-85574018D01*
X186285690Y-85574013D01*
X186267040Y-85551288D01*
X185206380Y-84490628D01*
X185183649Y-84471973D01*
X185129577Y-84449576D01*
X185071051Y-84449576D01*
X185016979Y-84471973D01*
X184994248Y-84490628D01*
X184640694Y-84844181D01*
X184622039Y-84866911D01*
X184619975Y-84871891D01*
X184616445Y-84875963D01*
X184604457Y-84902813D01*
X184553950Y-85054336D01*
X184550650Y-85068848D01*
X184549135Y-85072506D01*
X184548612Y-85077808D01*
X184547430Y-85083010D01*
X184547711Y-85086964D01*
X184546253Y-85101770D01*
X184046701Y-85101770D01*
X184796150Y-84352321D01*
X185405105Y-84352321D01*
X185419631Y-84409017D01*
X185454747Y-84455837D01*
X185505108Y-84485657D01*
X185563048Y-84493934D01*
X185619744Y-84479408D01*
X185666564Y-84444292D01*
X185696384Y-84393931D01*
X185703375Y-84365369D01*
X185737972Y-84123184D01*
X185980157Y-84088588D01*
X186008719Y-84081596D01*
X186059080Y-84051776D01*
X186094195Y-84004956D01*
X186108722Y-83948260D01*
X186100445Y-83890320D01*
X186070625Y-83839959D01*
X186023804Y-83804843D01*
X185967108Y-83790317D01*
X185937731Y-83791603D01*
X185584177Y-83842110D01*
X185555615Y-83849101D01*
X185548515Y-83853304D01*
X185540529Y-83855351D01*
X185523535Y-83868095D01*
X185505254Y-83878921D01*
X185500305Y-83885518D01*
X185493709Y-83890466D01*
X185482886Y-83908743D01*
X185470138Y-83925741D01*
X185468091Y-83933730D01*
X185463889Y-83940827D01*
X185456897Y-83969389D01*
X185406391Y-84322943D01*
X185405105Y-84352321D01*
X184796150Y-84352321D01*
X185807420Y-83341051D01*
X187366266Y-84899897D01*
G37*
D11*
X187280596Y-86832542D02*
X187684657Y-86428481D01*
X187482626Y-86630511D02*
X186775519Y-85923405D01*
X186775519Y-85923405D02*
X186943878Y-85957076D01*
X186943878Y-85957076D02*
X187078565Y-85957076D01*
X187078565Y-85957076D02*
X187179580Y-85923405D01*
X186371458Y-86462153D02*
X186304115Y-86462153D01*
X186304115Y-86462153D02*
X186203100Y-86495825D01*
X186203100Y-86495825D02*
X186034741Y-86664183D01*
X186034741Y-86664183D02*
X186001069Y-86765199D01*
X186001069Y-86765199D02*
X186001069Y-86832542D01*
X186001069Y-86832542D02*
X186034741Y-86933557D01*
X186034741Y-86933557D02*
X186102084Y-87000901D01*
X186102084Y-87000901D02*
X186236771Y-87068244D01*
X186236771Y-87068244D02*
X187044893Y-87068244D01*
X187044893Y-87068244D02*
X186607161Y-87505977D01*
X186034741Y-87539649D02*
X185495993Y-88078397D01*
X184654199Y-88516129D02*
X185125604Y-88987534D01*
X184553184Y-88078397D02*
X185226619Y-88415114D01*
X185226619Y-88415114D02*
X184788886Y-88852847D01*
X183913421Y-88785504D02*
X183846077Y-88852847D01*
X183846077Y-88852847D02*
X183812405Y-88953862D01*
X183812405Y-88953862D02*
X183812405Y-89021206D01*
X183812405Y-89021206D02*
X183846077Y-89122221D01*
X183846077Y-89122221D02*
X183947092Y-89290580D01*
X183947092Y-89290580D02*
X184115451Y-89458939D01*
X184115451Y-89458939D02*
X184283810Y-89559954D01*
X184283810Y-89559954D02*
X184384825Y-89593626D01*
X184384825Y-89593626D02*
X184452169Y-89593626D01*
X184452169Y-89593626D02*
X184553184Y-89559954D01*
X184553184Y-89559954D02*
X184620527Y-89492610D01*
X184620527Y-89492610D02*
X184654199Y-89391595D01*
X184654199Y-89391595D02*
X184654199Y-89324252D01*
X184654199Y-89324252D02*
X184620527Y-89223236D01*
X184620527Y-89223236D02*
X184519512Y-89054878D01*
X184519512Y-89054878D02*
X184351153Y-88886519D01*
X184351153Y-88886519D02*
X184182795Y-88785504D01*
X184182795Y-88785504D02*
X184081779Y-88751832D01*
X184081779Y-88751832D02*
X184014436Y-88751832D01*
X184014436Y-88751832D02*
X183913421Y-88785504D01*
X183475688Y-89223236D02*
X183947092Y-90166045D01*
X183947092Y-90166045D02*
X183004283Y-89694641D01*
%LPC*%
D13*
%TO.C,J2*%
X181454594Y-85722361D03*
D14*
X183222361Y-83954594D03*
%TD*%
D15*
%TO.C,H3*%
X191590000Y-83610000D03*
%TD*%
%TO.C,H2*%
X177380000Y-91820000D03*
%TD*%
%TO.C,H1*%
X191570000Y-100010000D03*
%TD*%
D16*
%TO.C,J1*%
X196967500Y-90250000D03*
D17*
X196967500Y-92750000D03*
%TD*%
%LPD*%
M02*
