%TF.GenerationSoftware,KiCad,Pcbnew,8.0.6*%
%TF.CreationDate,2024-11-27T15:34:58-05:00*%
%TF.ProjectId,lightboard,6c696768-7462-46f6-9172-642e6b696361,rev?*%
%TF.SameCoordinates,Original*%
%TF.FileFunction,Legend,Top*%
%TF.FilePolarity,Positive*%
%FSLAX46Y46*%
G04 Gerber Fmt 4.6, Leading zero omitted, Abs format (unit mm)*
G04 Created by KiCad (PCBNEW 8.0.6) date 2024-11-27 15:34:58*
%MOMM*%
%LPD*%
G01*
G04 APERTURE LIST*
G04 Aperture macros list*
%AMRoundRect*
0 Rectangle with rounded corners*
0 $1 Rounding radius*
0 $2 $3 $4 $5 $6 $7 $8 $9 X,Y pos of 4 corners*
0 Add a 4 corners polygon primitive as box body*
4,1,4,$2,$3,$4,$5,$6,$7,$8,$9,$2,$3,0*
0 Add four circle primitives for the rounded corners*
1,1,$1+$1,$2,$3*
1,1,$1+$1,$4,$5*
1,1,$1+$1,$6,$7*
1,1,$1+$1,$8,$9*
0 Add four rect primitives between the rounded corners*
20,1,$1+$1,$2,$3,$4,$5,0*
20,1,$1+$1,$4,$5,$6,$7,0*
20,1,$1+$1,$6,$7,$8,$9,0*
20,1,$1+$1,$8,$9,$2,$3,0*%
%AMHorizOval*
0 Thick line with rounded ends*
0 $1 width*
0 $2 $3 position (X,Y) of the first rounded end (center of the circle)*
0 $4 $5 position (X,Y) of the second rounded end (center of the circle)*
0 Add line between two ends*
20,1,$1,$2,$3,$4,$5,0*
0 Add two circle primitives to create the rounded ends*
1,1,$1,$2,$3*
1,1,$1,$4,$5*%
%AMRotRect*
0 Rectangle, with rotation*
0 The origin of the aperture is its center*
0 $1 length*
0 $2 width*
0 $3 Rotation angle, in degrees counterclockwise*
0 Add horizontal line*
21,1,$1,$2,0,0,$3*%
G04 Aperture macros list end*
%ADD10C,0.187500*%
%ADD11C,0.150000*%
%ADD12C,0.120000*%
%ADD13RoundRect,0.250000X-0.662913X-0.220971X-0.220971X-0.662913X0.662913X0.220971X0.220971X0.662913X0*%
%ADD14RoundRect,0.250000X0.106066X-0.954594X0.954594X-0.106066X-0.106066X0.954594X-0.954594X0.106066X0*%
%ADD15HorizOval,1.700000X-0.106066X0.106066X0.106066X-0.106066X0*%
%ADD16RoundRect,0.250000X0.220971X-0.662913X0.662913X-0.220971X-0.220971X0.662913X-0.662913X0.220971X0*%
%ADD17RoundRect,0.250000X0.689429X0.229810X0.229810X0.689429X-0.689429X-0.229810X-0.229810X-0.689429X0*%
%ADD18C,3.200000*%
%ADD19RoundRect,0.250000X-0.220971X0.662913X-0.662913X0.220971X0.220971X-0.662913X0.662913X-0.220971X0*%
%ADD20RotRect,1.500000X1.500000X225.000000*%
%ADD21RotRect,1.500000X1.500000X135.000000*%
%ADD22RoundRect,0.097500X-0.311127X-0.449013X0.449013X0.311127X0.311127X0.449013X-0.449013X-0.311127X0*%
%ADD23RoundRect,0.787500X1.113693X0.000000X0.000000X1.113693X-1.113693X0.000000X0.000000X-1.113693X0*%
%ADD24RoundRect,0.250000X-0.750000X0.600000X-0.750000X-0.600000X0.750000X-0.600000X0.750000X0.600000X0*%
%ADD25O,2.000000X1.700000*%
G04 APERTURE END LIST*
D10*
X193277466Y-95894893D02*
X193041763Y-96130596D01*
X193412153Y-96500985D02*
X192705046Y-95793878D01*
X192705046Y-95793878D02*
X193041763Y-95457161D01*
X193782542Y-95726535D02*
X194119260Y-95389817D01*
X193917229Y-95995909D02*
X193445825Y-95053099D01*
X193445825Y-95053099D02*
X194388634Y-95524504D01*
X193917229Y-94581695D02*
X194489649Y-95154115D01*
X194489649Y-95154115D02*
X194590664Y-95187786D01*
X194590664Y-95187786D02*
X194658008Y-95187786D01*
X194658008Y-95187786D02*
X194759023Y-95154115D01*
X194759023Y-95154115D02*
X194893710Y-95019428D01*
X194893710Y-95019428D02*
X194927382Y-94918412D01*
X194927382Y-94918412D02*
X194927382Y-94851069D01*
X194927382Y-94851069D02*
X194893710Y-94750054D01*
X194893710Y-94750054D02*
X194321290Y-94177634D01*
X195701832Y-94211306D02*
X195365114Y-94548023D01*
X195365114Y-94548023D02*
X194658008Y-93840916D01*
X195129412Y-93369512D02*
X195533473Y-92965451D01*
X196038550Y-93874588D02*
X195331443Y-93167481D01*
X194489733Y-96259191D02*
X194557076Y-96191848D01*
X194557076Y-96191848D02*
X194658092Y-96158176D01*
X194658092Y-96158176D02*
X194725435Y-96158176D01*
X194725435Y-96158176D02*
X194826450Y-96191848D01*
X194826450Y-96191848D02*
X194994809Y-96292863D01*
X194994809Y-96292863D02*
X195163168Y-96461222D01*
X195163168Y-96461222D02*
X195264183Y-96629580D01*
X195264183Y-96629580D02*
X195297855Y-96730596D01*
X195297855Y-96730596D02*
X195297855Y-96797939D01*
X195297855Y-96797939D02*
X195264183Y-96898954D01*
X195264183Y-96898954D02*
X195196840Y-96966298D01*
X195196840Y-96966298D02*
X195095824Y-96999970D01*
X195095824Y-96999970D02*
X195028481Y-96999970D01*
X195028481Y-96999970D02*
X194927466Y-96966298D01*
X194927466Y-96966298D02*
X194759107Y-96865283D01*
X194759107Y-96865283D02*
X194590748Y-96696924D01*
X194590748Y-96696924D02*
X194489733Y-96528565D01*
X194489733Y-96528565D02*
X194456061Y-96427550D01*
X194456061Y-96427550D02*
X194456061Y-96360206D01*
X194456061Y-96360206D02*
X194489733Y-96259191D01*
X195196840Y-96023489D02*
X195836603Y-96326535D01*
X195836603Y-96326535D02*
X195533557Y-95686771D01*
D11*
X183127887Y-88636411D02*
X183060543Y-88636411D01*
X183060543Y-88636411D02*
X182925856Y-88569067D01*
X182925856Y-88569067D02*
X182858513Y-88501724D01*
X182858513Y-88501724D02*
X182791169Y-88367037D01*
X182791169Y-88367037D02*
X182791169Y-88232350D01*
X182791169Y-88232350D02*
X182824841Y-88131335D01*
X182824841Y-88131335D02*
X182925856Y-87962976D01*
X182925856Y-87962976D02*
X183026871Y-87861961D01*
X183026871Y-87861961D02*
X183195230Y-87760945D01*
X183195230Y-87760945D02*
X183296245Y-87727274D01*
X183296245Y-87727274D02*
X183430932Y-87727274D01*
X183430932Y-87727274D02*
X183565619Y-87794617D01*
X183565619Y-87794617D02*
X183632963Y-87861961D01*
X183632963Y-87861961D02*
X183700306Y-87996648D01*
X183700306Y-87996648D02*
X183700306Y-88063991D01*
X183733978Y-89377189D02*
X183329917Y-88973128D01*
X183531948Y-89175159D02*
X184239054Y-88468052D01*
X184239054Y-88468052D02*
X184070696Y-88501724D01*
X184070696Y-88501724D02*
X183936009Y-88501724D01*
X183936009Y-88501724D02*
X183834993Y-88468052D01*
X194647477Y-88216820D02*
X194748492Y-87644401D01*
X194243416Y-87812759D02*
X194950523Y-87105653D01*
X194950523Y-87105653D02*
X195219897Y-87375027D01*
X195219897Y-87375027D02*
X195253569Y-87476042D01*
X195253569Y-87476042D02*
X195253569Y-87543385D01*
X195253569Y-87543385D02*
X195219897Y-87644401D01*
X195219897Y-87644401D02*
X195118882Y-87745416D01*
X195118882Y-87745416D02*
X195017866Y-87779088D01*
X195017866Y-87779088D02*
X194950523Y-87779088D01*
X194950523Y-87779088D02*
X194849508Y-87745416D01*
X194849508Y-87745416D02*
X194580134Y-87476042D01*
X195590286Y-87745416D02*
X196061691Y-88216820D01*
X196061691Y-88216820D02*
X195051538Y-88620881D01*
X182703754Y-90939456D02*
X182131335Y-90838441D01*
X182299693Y-91343517D02*
X181592587Y-90636410D01*
X181592587Y-90636410D02*
X181861961Y-90367036D01*
X181861961Y-90367036D02*
X181962976Y-90333364D01*
X181962976Y-90333364D02*
X182030319Y-90333364D01*
X182030319Y-90333364D02*
X182131335Y-90367036D01*
X182131335Y-90367036D02*
X182232350Y-90468051D01*
X182232350Y-90468051D02*
X182266022Y-90569067D01*
X182266022Y-90569067D02*
X182266022Y-90636410D01*
X182266022Y-90636410D02*
X182232350Y-90737425D01*
X182232350Y-90737425D02*
X181962976Y-91006799D01*
X182333365Y-90030319D02*
X182333365Y-89962975D01*
X182333365Y-89962975D02*
X182367037Y-89861960D01*
X182367037Y-89861960D02*
X182535396Y-89693601D01*
X182535396Y-89693601D02*
X182636411Y-89659929D01*
X182636411Y-89659929D02*
X182703754Y-89659929D01*
X182703754Y-89659929D02*
X182804770Y-89693601D01*
X182804770Y-89693601D02*
X182872113Y-89760945D01*
X182872113Y-89760945D02*
X182939457Y-89895632D01*
X182939457Y-89895632D02*
X182939457Y-90703754D01*
X182939457Y-90703754D02*
X183377189Y-90266021D01*
X187224955Y-89858708D02*
X187393314Y-90027067D01*
X187157612Y-90128082D02*
X187393314Y-90027067D01*
X187393314Y-90027067D02*
X187494329Y-89791364D01*
X187426986Y-90262769D02*
X187393314Y-90027067D01*
X187393314Y-90027067D02*
X187629016Y-90060738D01*
D12*
%TO.C,R3*%
X187877955Y-88008035D02*
X188906179Y-89036259D01*
X189164889Y-86721101D02*
X190193113Y-87749325D01*
%TO.C,R6*%
X182642421Y-99170645D02*
X183670645Y-98142421D01*
X183929355Y-100457579D02*
X184957579Y-99429355D01*
%TO.C,C1*%
X185359464Y-89146398D02*
X184353602Y-88140536D01*
X186646398Y-87859464D02*
X185640536Y-86853602D01*
%TO.C,R5*%
X181870645Y-96342421D02*
X180842421Y-97370645D01*
X183157579Y-97629355D02*
X182129355Y-98657579D01*
%TO.C,R8*%
X184442421Y-100970645D02*
X185470645Y-99942421D01*
X185729355Y-102257579D02*
X186757579Y-101229355D01*
%TO.C,R1*%
X191342421Y-91517052D02*
X192370645Y-92545276D01*
X192629355Y-90230118D02*
X193657579Y-91258342D01*
%TO.C,R7*%
X192642421Y-89429355D02*
X193670645Y-90457579D01*
X193929355Y-88142421D02*
X194957579Y-89170645D01*
%TO.C,R2*%
X183870645Y-90342421D02*
X182842421Y-91370645D01*
X185157579Y-91629355D02*
X184129355Y-92657579D01*
%TO.C,R4*%
X179092421Y-95620645D02*
X180120645Y-94592421D01*
X180379355Y-96907579D02*
X181407579Y-95879355D01*
%TD*%
%LPC*%
D13*
%TO.C,R3*%
X188001390Y-86844536D03*
X190069678Y-88912824D03*
%TD*%
D14*
%TO.C,J2*%
X181454594Y-85722361D03*
D15*
X183222361Y-83954594D03*
%TD*%
D16*
%TO.C,R6*%
X182765856Y-100334144D03*
X184834144Y-98265856D03*
%TD*%
D17*
%TO.C,C1*%
X186542983Y-89042983D03*
X184457017Y-86957017D03*
%TD*%
D18*
%TO.C,H3*%
X191590000Y-83610000D03*
%TD*%
D19*
%TO.C,R5*%
X183034144Y-96465856D03*
X180965856Y-98534144D03*
%TD*%
D16*
%TO.C,R8*%
X184565856Y-102134144D03*
X186634144Y-100065856D03*
%TD*%
D18*
%TO.C,H2*%
X177380000Y-91820000D03*
%TD*%
D13*
%TO.C,R1*%
X191465856Y-90353553D03*
X193534144Y-92421841D03*
%TD*%
D20*
%TO.C,J3*%
X192100000Y-94600000D03*
%TD*%
D18*
%TO.C,H1*%
X191570000Y-100010000D03*
%TD*%
D21*
%TO.C,J4*%
X196500000Y-95100000D03*
%TD*%
D13*
%TO.C,R7*%
X192765856Y-88265856D03*
X194834144Y-90334144D03*
%TD*%
D19*
%TO.C,R2*%
X185034144Y-90465856D03*
X182965856Y-92534144D03*
%TD*%
D16*
%TO.C,R4*%
X179215856Y-96784144D03*
X181284144Y-94715856D03*
%TD*%
D22*
%TO.C,U1*%
X183873654Y-94454773D03*
X184333274Y-94914393D03*
X184792893Y-95374012D03*
X185252512Y-95833632D03*
X185712132Y-96293251D03*
X186171751Y-96752870D03*
X186631371Y-97212490D03*
D23*
X187267767Y-93889088D03*
D22*
X190619453Y-93224408D03*
X190159833Y-92764788D03*
X189700214Y-92305169D03*
X189240595Y-91845549D03*
X188780975Y-91385930D03*
X188321356Y-90926311D03*
X187861736Y-90466691D03*
%TD*%
D24*
%TO.C,J1*%
X196967500Y-90250000D03*
D25*
X196967500Y-92750000D03*
%TD*%
%LPD*%
M02*
