%TF.GenerationSoftware,KiCad,Pcbnew,9.0.7*%
%TF.CreationDate,2026-02-05T13:48:50-05:00*%
%TF.ProjectId,PDB,5044422e-6b69-4636-9164-5f7063625858,rev?*%
%TF.SameCoordinates,Original*%
%TF.FileFunction,Copper,L2,Bot*%
%TF.FilePolarity,Positive*%
%FSLAX46Y46*%
G04 Gerber Fmt 4.6, Leading zero omitted, Abs format (unit mm)*
G04 Created by KiCad (PCBNEW 9.0.7) date 2026-02-05 13:48:50*
%MOMM*%
%LPD*%
G01*
G04 APERTURE LIST*
G04 Aperture macros list*
%AMRoundRect*
0 Rectangle with rounded corners*
0 $1 Rounding radius*
0 $2 $3 $4 $5 $6 $7 $8 $9 X,Y pos of 4 corners*
0 Add a 4 corners polygon primitive as box body*
4,1,4,$2,$3,$4,$5,$6,$7,$8,$9,$2,$3,0*
0 Add four circle primitives for the rounded corners*
1,1,$1+$1,$2,$3*
1,1,$1+$1,$4,$5*
1,1,$1+$1,$6,$7*
1,1,$1+$1,$8,$9*
0 Add four rect primitives between the rounded corners*
20,1,$1+$1,$2,$3,$4,$5,0*
20,1,$1+$1,$4,$5,$6,$7,0*
20,1,$1+$1,$6,$7,$8,$9,0*
20,1,$1+$1,$8,$9,$2,$3,0*%
%AMRotRect*
0 Rectangle, with rotation*
0 The origin of the aperture is its center*
0 $1 length*
0 $2 width*
0 $3 Rotation angle, in degrees counterclockwise*
0 Add horizontal line*
21,1,$1,$2,0,0,$3*%
G04 Aperture macros list end*
%TA.AperFunction,ComponentPad*%
%ADD10RotRect,0.900000X2.000000X120.000000*%
%TD*%
%TA.AperFunction,ComponentPad*%
%ADD11RoundRect,1.025000X1.400176X-0.375176X0.375176X1.400176X-1.400176X0.375176X-0.375176X-1.400176X0*%
%TD*%
%TA.AperFunction,ComponentPad*%
%ADD12C,4.100000*%
%TD*%
%TA.AperFunction,ComponentPad*%
%ADD13RotRect,0.900000X2.000000X60.000000*%
%TD*%
%TA.AperFunction,ComponentPad*%
%ADD14RoundRect,1.025000X0.375176X-1.400176X1.400176X0.375176X-0.375176X1.400176X-1.400176X-0.375176X0*%
%TD*%
%TA.AperFunction,ComponentPad*%
%ADD15R,2.000000X0.900000*%
%TD*%
%TA.AperFunction,ComponentPad*%
%ADD16RoundRect,1.025000X1.025000X-1.025000X1.025000X1.025000X-1.025000X1.025000X-1.025000X-1.025000X0*%
%TD*%
%TA.AperFunction,ComponentPad*%
%ADD17RotRect,0.900000X2.000000X300.000000*%
%TD*%
%TA.AperFunction,ComponentPad*%
%ADD18RoundRect,1.025000X-1.400176X0.375176X-0.375176X-1.400176X1.400176X-0.375176X0.375176X1.400176X0*%
%TD*%
%TA.AperFunction,ComponentPad*%
%ADD19RotRect,0.900000X2.000000X240.000000*%
%TD*%
%TA.AperFunction,ComponentPad*%
%ADD20RoundRect,1.025000X-0.375176X1.400176X-1.400176X-0.375176X0.375176X-1.400176X1.400176X0.375176X0*%
%TD*%
%TA.AperFunction,ComponentPad*%
%ADD21RoundRect,1.025000X-1.025000X1.025000X-1.025000X-1.025000X1.025000X-1.025000X1.025000X1.025000X0*%
%TD*%
%TA.AperFunction,ComponentPad*%
%ADD22RoundRect,2.700000X1.800000X1.800000X-1.800000X1.800000X-1.800000X-1.800000X1.800000X-1.800000X0*%
%TD*%
%TA.AperFunction,ComponentPad*%
%ADD23C,9.000000*%
%TD*%
%TA.AperFunction,ComponentPad*%
%ADD24C,2.300000*%
%TD*%
%TA.AperFunction,ComponentPad*%
%ADD25RoundRect,2.700000X-1.800000X-1.800000X1.800000X-1.800000X1.800000X1.800000X-1.800000X1.800000X0*%
%TD*%
%TA.AperFunction,ComponentPad*%
%ADD26RotRect,1.700000X1.700000X315.000000*%
%TD*%
%TA.AperFunction,ComponentPad*%
%ADD27C,1.700000*%
%TD*%
%TA.AperFunction,ComponentPad*%
%ADD28C,5.600000*%
%TD*%
%TA.AperFunction,ComponentPad*%
%ADD29C,5.000000*%
%TD*%
%TA.AperFunction,ComponentPad*%
%ADD30C,2.800000*%
%TD*%
%TA.AperFunction,ComponentPad*%
%ADD31C,1.400000*%
%TD*%
%TA.AperFunction,ComponentPad*%
%ADD32RoundRect,0.770000X0.358705X1.338705X-1.338705X0.358705X-0.358705X-1.338705X1.338705X-0.358705X0*%
%TD*%
%TA.AperFunction,ComponentPad*%
%ADD33C,3.500000*%
%TD*%
%TA.AperFunction,ComponentPad*%
%ADD34RotRect,1.700000X1.700000X135.000000*%
%TD*%
%TA.AperFunction,ComponentPad*%
%ADD35RotRect,1.700000X1.700000X225.000000*%
%TD*%
%TA.AperFunction,ComponentPad*%
%ADD36R,1.700000X1.700000*%
%TD*%
%TA.AperFunction,ComponentPad*%
%ADD37RoundRect,0.770000X-0.358705X-1.338705X1.338705X-0.358705X0.358705X1.338705X-1.338705X0.358705X0*%
%TD*%
G04 APERTURE END LIST*
D10*
%TO.P,J6,*%
%TO.N,*%
X125737917Y-126120672D03*
X118987917Y-114429329D03*
D11*
%TO.P,J6,1,Pin_1*%
%TO.N,GND*%
X125759069Y-114157309D03*
D12*
%TO.P,J6,2,Pin_2*%
%TO.N,/vbat*%
X129359069Y-120392692D03*
%TD*%
D13*
%TO.P,J7,*%
%TO.N,*%
X118787917Y-80770672D03*
X125537917Y-69079329D03*
D14*
%TO.P,J7,1,Pin_1*%
%TO.N,GND*%
X129159069Y-74807309D03*
D12*
%TO.P,J7,2,Pin_2*%
%TO.N,/vbat*%
X125559069Y-81042692D03*
%TD*%
D15*
%TO.P,J5,*%
%TO.N,*%
X116450000Y-104350000D03*
X116450000Y-90850000D03*
D16*
%TO.P,J5,1,Pin_1*%
%TO.N,GND*%
X122450000Y-94000000D03*
D12*
%TO.P,J5,2,Pin_2*%
%TO.N,/vbat*%
X122450000Y-101200000D03*
%TD*%
D17*
%TO.P,J10,*%
%TO.N,*%
X202062083Y-69079329D03*
X208812083Y-80770672D03*
D18*
%TO.P,J10,1,Pin_1*%
%TO.N,GND*%
X202040931Y-81042692D03*
D12*
%TO.P,J10,2,Pin_2*%
%TO.N,/vbat*%
X198440931Y-74807309D03*
%TD*%
D19*
%TO.P,J12,*%
%TO.N,*%
X209012083Y-114029329D03*
X202262083Y-125720672D03*
D20*
%TO.P,J12,1,Pin_1*%
%TO.N,GND*%
X198640931Y-119992692D03*
D12*
%TO.P,J12,2,Pin_2*%
%TO.N,/vbat*%
X202240931Y-113757309D03*
%TD*%
D15*
%TO.P,J11,*%
%TO.N,*%
X211150000Y-90850000D03*
X211150000Y-104350000D03*
D21*
%TO.P,J11,1,Pin_1*%
%TO.N,GND*%
X205150000Y-101200000D03*
D12*
%TO.P,J11,2,Pin_2*%
%TO.N,/vbat*%
X205150000Y-94000000D03*
%TD*%
D22*
%TO.P,J13,1,Pin_1*%
%TO.N,GND*%
X150800000Y-124075000D03*
D23*
%TO.P,J13,2,Pin_2*%
%TO.N,/vbat*%
X168800000Y-124075000D03*
D24*
%TO.P,J13,MP*%
%TO.N,N/C*%
X161600000Y-129575000D03*
X161600000Y-125575000D03*
X158000000Y-129575000D03*
X158000000Y-125575000D03*
%TD*%
D25*
%TO.P,J14,1,Pin_1*%
%TO.N,GND*%
X178400000Y-71125000D03*
D23*
%TO.P,J14,2,Pin_2*%
%TO.N,/vbat*%
X160400000Y-71125000D03*
D24*
%TO.P,J14,MP*%
%TO.N,N/C*%
X167600000Y-65625000D03*
X167600000Y-69625000D03*
X171200000Y-65625000D03*
X171200000Y-69625000D03*
%TD*%
D26*
%TO.P,J2,1,Pin_1*%
%TO.N,/vbat*%
X137522587Y-122102587D03*
D27*
%TO.P,J2,2,Pin_2*%
%TO.N,+5V*%
X139318638Y-123898638D03*
%TO.P,J2,3,Pin_3*%
%TO.N,unconnected-(J2-Pin_3-Pad3)*%
X135726536Y-123898638D03*
%TO.P,J2,4,Pin_4*%
%TO.N,unconnected-(J2-Pin_4-Pad4)*%
X137522587Y-125694689D03*
%TO.P,J2,5,Pin_5*%
%TO.N,GND*%
X133930485Y-125694689D03*
%TO.P,J2,6,Pin_6*%
%TO.N,/vbat*%
X135726536Y-127490741D03*
%TD*%
D28*
%TO.P,H6,1,1*%
%TO.N,GND*%
X202772587Y-136602587D03*
%TD*%
D29*
%TO.P,H1,1,1*%
%TO.N,GND*%
X147917333Y-44897413D03*
%TD*%
D30*
%TO.P,BATT,1,1*%
%TO.N,/vbat*%
X137600000Y-116600000D03*
%TD*%
D28*
%TO.P,H2,1,1*%
%TO.N,GND*%
X124772587Y-136602587D03*
%TD*%
D30*
%TO.P,GND,1,1*%
%TO.N,GND*%
X133800000Y-113400000D03*
%TD*%
D31*
%TO.P,J8,*%
%TO.N,*%
X190953758Y-137211571D03*
X181427479Y-142711571D03*
D32*
%TO.P,J8,1,Pin_1*%
%TO.N,GND*%
X185855682Y-134381444D03*
D33*
%TO.P,J8,2,Pin_2*%
%TO.N,/vbat*%
X181525555Y-136881444D03*
%TD*%
D34*
%TO.P,J3,1,Pin_1*%
%TO.N,/vbat*%
X190272587Y-72852587D03*
D27*
%TO.P,J3,2,Pin_2*%
%TO.N,+5V*%
X188476536Y-71056536D03*
%TO.P,J3,3,Pin_3*%
%TO.N,unconnected-(J3-Pin_3-Pad3)*%
X192068638Y-71056536D03*
%TO.P,J3,4,Pin_4*%
%TO.N,unconnected-(J3-Pin_4-Pad4)*%
X190272587Y-69260485D03*
%TO.P,J3,5,Pin_5*%
%TO.N,GND*%
X193864689Y-69260485D03*
%TO.P,J3,6,Pin_6*%
X192068638Y-67464433D03*
%TD*%
D28*
%TO.P,H4,1,1*%
%TO.N,GND*%
X124772587Y-58602587D03*
%TD*%
D29*
%TO.P,H3,1,1*%
%TO.N,GND*%
X179642333Y-150322413D03*
%TD*%
D30*
%TO.P,5V,1,1*%
%TO.N,+5V*%
X141000000Y-120200000D03*
%TD*%
D35*
%TO.P,J1,1,Pin_1*%
%TO.N,/vbat*%
X139022587Y-71102587D03*
D27*
%TO.P,J1,2,Pin_2*%
X137226536Y-72898638D03*
%TO.P,J1,3,Pin_3*%
%TO.N,unconnected-(J1-Pin_3-Pad3)*%
X137226536Y-69306536D03*
%TO.P,J1,4,Pin_4*%
%TO.N,unconnected-(J1-Pin_4-Pad4)*%
X135430485Y-71102587D03*
%TO.P,J1,5,Pin_5*%
%TO.N,GND*%
X135430485Y-67510485D03*
%TO.P,J1,6,Pin_6*%
%TO.N,/vbat*%
X133634433Y-69306536D03*
%TD*%
D36*
%TO.P,J4,1,Pin_1*%
%TO.N,/vbat*%
X189772587Y-123102587D03*
D27*
%TO.P,J4,2,Pin_2*%
X192312587Y-123102587D03*
%TO.P,J4,3,Pin_3*%
%TO.N,unconnected-(J4-Pin_3-Pad3)*%
X189772587Y-125642587D03*
%TO.P,J4,4,Pin_4*%
%TO.N,unconnected-(J4-Pin_4-Pad4)*%
X192312587Y-125642587D03*
%TO.P,J4,5,Pin_5*%
%TO.N,GND*%
X189772587Y-128182587D03*
%TO.P,J4,6,Pin_6*%
X192312587Y-128182587D03*
%TD*%
D28*
%TO.P,H5,1,1*%
%TO.N,GND*%
X202772587Y-58602587D03*
%TD*%
D31*
%TO.P,J9,*%
%TO.N,*%
X134646242Y-59188430D03*
X144172521Y-53688430D03*
D37*
%TO.P,J9,1,Pin_1*%
%TO.N,GND*%
X139744318Y-62018557D03*
D33*
%TO.P,J9,2,Pin_2*%
%TO.N,/vbat*%
X144074445Y-59518557D03*
%TD*%
%TA.AperFunction,Conductor*%
%TO.N,GND*%
G36*
X176554374Y-40575552D02*
G01*
X176563385Y-40575814D01*
X177101348Y-40591466D01*
X177108527Y-40591885D01*
X177584943Y-40633565D01*
X177651811Y-40639416D01*
X177658975Y-40640253D01*
X177710437Y-40647791D01*
X178198625Y-40719299D01*
X178205666Y-40720541D01*
X178739800Y-40830829D01*
X178746788Y-40832485D01*
X179273603Y-40973644D01*
X179280487Y-40975705D01*
X179798197Y-41147255D01*
X179804954Y-41149715D01*
X180311819Y-41351078D01*
X180318387Y-41353911D01*
X180812706Y-41584415D01*
X180819119Y-41587636D01*
X181300570Y-41847231D01*
X181303649Y-41848949D01*
X203290097Y-54542832D01*
X203345626Y-54574892D01*
X203348685Y-54576718D01*
X203814405Y-54863981D01*
X203820397Y-54867920D01*
X204159520Y-55105378D01*
X204267176Y-55180760D01*
X204272961Y-55185068D01*
X204700738Y-55523312D01*
X204706249Y-55527935D01*
X205113668Y-55890508D01*
X205113671Y-55890511D01*
X205118917Y-55895461D01*
X205504538Y-56281082D01*
X205509488Y-56286328D01*
X205872058Y-56693743D01*
X205876690Y-56699264D01*
X206012789Y-56871389D01*
X206214931Y-57127038D01*
X206219239Y-57132823D01*
X206532061Y-57579578D01*
X206536024Y-57585604D01*
X206823277Y-58051307D01*
X206825126Y-58054405D01*
X219545322Y-80086430D01*
X219550896Y-80096084D01*
X219552655Y-80099236D01*
X219812348Y-80580867D01*
X219815584Y-80587310D01*
X219877364Y-80719797D01*
X220046070Y-81081589D01*
X220048927Y-81088213D01*
X220250274Y-81595036D01*
X220252741Y-81601813D01*
X220424285Y-82119499D01*
X220426354Y-82126409D01*
X220567510Y-82653204D01*
X220569173Y-82660223D01*
X220679454Y-83194304D01*
X220680707Y-83201407D01*
X220759754Y-83741029D01*
X220760591Y-83748193D01*
X220808124Y-84291467D01*
X220808544Y-84298667D01*
X220824448Y-84845080D01*
X220824500Y-84848688D01*
X220824500Y-110300768D01*
X220824448Y-110304375D01*
X220808533Y-110851338D01*
X220808113Y-110858538D01*
X220760583Y-111401811D01*
X220759746Y-111408975D01*
X220680705Y-111948594D01*
X220679452Y-111955698D01*
X220569173Y-112489785D01*
X220567510Y-112496803D01*
X220426357Y-113023595D01*
X220424288Y-113030506D01*
X220252748Y-113548185D01*
X220250281Y-113554962D01*
X220048933Y-114061791D01*
X220046076Y-114068415D01*
X219815592Y-114562690D01*
X219812355Y-114569135D01*
X219552787Y-115050534D01*
X219551029Y-115053684D01*
X206849011Y-137054221D01*
X206849004Y-137054236D01*
X206832876Y-137082171D01*
X206825157Y-137095540D01*
X206825143Y-137095565D01*
X206823290Y-137098670D01*
X206536031Y-137564389D01*
X206532067Y-137570416D01*
X206219248Y-138017167D01*
X206214940Y-138022952D01*
X205876686Y-138450743D01*
X205872050Y-138456269D01*
X205509491Y-138863674D01*
X205504541Y-138868920D01*
X205118920Y-139254541D01*
X205113674Y-139259491D01*
X204706269Y-139622050D01*
X204700743Y-139626686D01*
X204272952Y-139964940D01*
X204267167Y-139969248D01*
X203820416Y-140282067D01*
X203814389Y-140286030D01*
X203348684Y-140573281D01*
X203345586Y-140575131D01*
X203304236Y-140599004D01*
X203304221Y-140599011D01*
X181303896Y-153300906D01*
X181300746Y-153302664D01*
X180819132Y-153562347D01*
X180812687Y-153565584D01*
X180318411Y-153796068D01*
X180311787Y-153798925D01*
X179804959Y-154000274D01*
X179798181Y-154002741D01*
X179280502Y-154174280D01*
X179273593Y-154176349D01*
X178746802Y-154317502D01*
X178739783Y-154319165D01*
X178205697Y-154429445D01*
X178198593Y-154430698D01*
X177658975Y-154509738D01*
X177651811Y-154510575D01*
X177108537Y-154558105D01*
X177101337Y-154558525D01*
X176856843Y-154565639D01*
X176554072Y-154574448D01*
X176550519Y-154574500D01*
X151099232Y-154574500D01*
X151095626Y-154574448D01*
X151075037Y-154573848D01*
X150548662Y-154558533D01*
X150541462Y-154558113D01*
X149998192Y-154510583D01*
X149991027Y-154509746D01*
X149451405Y-154430702D01*
X149444302Y-154429449D01*
X148910224Y-154319169D01*
X148903205Y-154317506D01*
X148376412Y-154176350D01*
X148369502Y-154174281D01*
X147851825Y-154002740D01*
X147845047Y-154000273D01*
X147338215Y-153798917D01*
X147331592Y-153796060D01*
X146837318Y-153565572D01*
X146830871Y-153562334D01*
X146348658Y-153302321D01*
X146345528Y-153300575D01*
X146290604Y-153268864D01*
X146290602Y-153268863D01*
X130950185Y-144412069D01*
X127990757Y-142703442D01*
X127811798Y-142600120D01*
X179726979Y-142600120D01*
X179726979Y-142823021D01*
X179726980Y-142823037D01*
X179756073Y-143044023D01*
X179756074Y-143044028D01*
X179756075Y-143044034D01*
X179756076Y-143044036D01*
X179813769Y-143259351D01*
X179813772Y-143259361D01*
X179899072Y-143465293D01*
X179899074Y-143465297D01*
X180010531Y-143658345D01*
X180010536Y-143658351D01*
X180010537Y-143658353D01*
X180146230Y-143835193D01*
X180146236Y-143835200D01*
X180303849Y-143992813D01*
X180303855Y-143992818D01*
X180480705Y-144128519D01*
X180673753Y-144239976D01*
X180879698Y-144325281D01*
X181095016Y-144382975D01*
X181316022Y-144412071D01*
X181316029Y-144412071D01*
X181538929Y-144412071D01*
X181538936Y-144412071D01*
X181759942Y-144382975D01*
X181975260Y-144325281D01*
X182181205Y-144239976D01*
X182374253Y-144128519D01*
X182551103Y-143992818D01*
X182708726Y-143835195D01*
X182844427Y-143658345D01*
X182955884Y-143465297D01*
X183041189Y-143259352D01*
X183098883Y-143044034D01*
X183127979Y-142823028D01*
X183127979Y-142600114D01*
X183098883Y-142379108D01*
X183041189Y-142163790D01*
X182955884Y-141957845D01*
X182844427Y-141764797D01*
X182708726Y-141587947D01*
X182708721Y-141587941D01*
X182551108Y-141430328D01*
X182551101Y-141430322D01*
X182374261Y-141294629D01*
X182374259Y-141294628D01*
X182374253Y-141294623D01*
X182181205Y-141183166D01*
X182181201Y-141183164D01*
X181975269Y-141097864D01*
X181975262Y-141097862D01*
X181975260Y-141097861D01*
X181759942Y-141040167D01*
X181759936Y-141040166D01*
X181759931Y-141040165D01*
X181538945Y-141011072D01*
X181538942Y-141011071D01*
X181538936Y-141011071D01*
X181316022Y-141011071D01*
X181316016Y-141011071D01*
X181316012Y-141011072D01*
X181095026Y-141040165D01*
X181095019Y-141040166D01*
X181095016Y-141040167D01*
X180879698Y-141097861D01*
X180879688Y-141097864D01*
X180673756Y-141183164D01*
X180673752Y-141183166D01*
X180480705Y-141294623D01*
X180480696Y-141294629D01*
X180303856Y-141430322D01*
X180303849Y-141430328D01*
X180146236Y-141587941D01*
X180146230Y-141587948D01*
X180010537Y-141764788D01*
X180010531Y-141764797D01*
X179899074Y-141957844D01*
X179899072Y-141957848D01*
X179813772Y-142163780D01*
X179813769Y-142163790D01*
X179756076Y-142379105D01*
X179756073Y-142379118D01*
X179726980Y-142600104D01*
X179726979Y-142600120D01*
X127811798Y-142600120D01*
X124359902Y-140607167D01*
X124304412Y-140575130D01*
X124301315Y-140573281D01*
X123835610Y-140286030D01*
X123829583Y-140282067D01*
X123382832Y-139969248D01*
X123377047Y-139964940D01*
X122949256Y-139626686D01*
X122943730Y-139622050D01*
X122536325Y-139259491D01*
X122531079Y-139254541D01*
X122145458Y-138868920D01*
X122140508Y-138863674D01*
X121777949Y-138456269D01*
X121773313Y-138450743D01*
X121435059Y-138022952D01*
X121430751Y-138017167D01*
X121394428Y-137965293D01*
X121117932Y-137570416D01*
X121113969Y-137564389D01*
X120927654Y-137262327D01*
X120826697Y-137098650D01*
X120824882Y-137095611D01*
X120820224Y-137087541D01*
X120792833Y-137040098D01*
X120792832Y-137040097D01*
X120612049Y-136726972D01*
X178775055Y-136726972D01*
X178775055Y-137035915D01*
X178809641Y-137342881D01*
X178809644Y-137342899D01*
X178878386Y-137644079D01*
X178878390Y-137644091D01*
X178980417Y-137935666D01*
X178980423Y-137935680D01*
X179114458Y-138214006D01*
X179114460Y-138214009D01*
X179278820Y-138475587D01*
X179471435Y-138717118D01*
X179689881Y-138935564D01*
X179931412Y-139128179D01*
X180192990Y-139292539D01*
X180471326Y-139426579D01*
X180471332Y-139426581D01*
X180762907Y-139528608D01*
X180762919Y-139528612D01*
X181064103Y-139597355D01*
X181064109Y-139597355D01*
X181064117Y-139597357D01*
X181268761Y-139620414D01*
X181371084Y-139631943D01*
X181371087Y-139631944D01*
X181371090Y-139631944D01*
X181680023Y-139631944D01*
X181680024Y-139631943D01*
X181836911Y-139614266D01*
X181986992Y-139597357D01*
X181986997Y-139597356D01*
X181987007Y-139597355D01*
X182288191Y-139528612D01*
X182579784Y-139426579D01*
X182858120Y-139292539D01*
X183119698Y-139128179D01*
X183361229Y-138935564D01*
X183579675Y-138717118D01*
X183772290Y-138475587D01*
X183936650Y-138214009D01*
X184070690Y-137935673D01*
X184172723Y-137644080D01*
X184241466Y-137342896D01*
X184256289Y-137211330D01*
X184268820Y-137100120D01*
X189253258Y-137100120D01*
X189253258Y-137323021D01*
X189253259Y-137323037D01*
X189282352Y-137544023D01*
X189282353Y-137544028D01*
X189282354Y-137544034D01*
X189340048Y-137759351D01*
X189340051Y-137759361D01*
X189413079Y-137935666D01*
X189425353Y-137965297D01*
X189536810Y-138158345D01*
X189536815Y-138158351D01*
X189536816Y-138158353D01*
X189672509Y-138335193D01*
X189672515Y-138335200D01*
X189830128Y-138492813D01*
X189830134Y-138492818D01*
X190006984Y-138628519D01*
X190200032Y-138739976D01*
X190405977Y-138825281D01*
X190621295Y-138882975D01*
X190842301Y-138912071D01*
X190842308Y-138912071D01*
X191065208Y-138912071D01*
X191065215Y-138912071D01*
X191286221Y-138882975D01*
X191501539Y-138825281D01*
X191707484Y-138739976D01*
X191900532Y-138628519D01*
X192077382Y-138492818D01*
X192235005Y-138335195D01*
X192370706Y-138158345D01*
X192482163Y-137965297D01*
X192567468Y-137759352D01*
X192625162Y-137544034D01*
X192654258Y-137323028D01*
X192654258Y-137100114D01*
X192625162Y-136879108D01*
X192567468Y-136663790D01*
X192482163Y-136457845D01*
X192370706Y-136264797D01*
X192331625Y-136213865D01*
X192235006Y-136087948D01*
X192235000Y-136087941D01*
X192077387Y-135930328D01*
X192077380Y-135930322D01*
X191900540Y-135794629D01*
X191900538Y-135794628D01*
X191900532Y-135794623D01*
X191707484Y-135683166D01*
X191707480Y-135683164D01*
X191501548Y-135597864D01*
X191501541Y-135597862D01*
X191501539Y-135597861D01*
X191286221Y-135540167D01*
X191286215Y-135540166D01*
X191286210Y-135540165D01*
X191065224Y-135511072D01*
X191065221Y-135511071D01*
X191065215Y-135511071D01*
X190842301Y-135511071D01*
X190842295Y-135511071D01*
X190842291Y-135511072D01*
X190621305Y-135540165D01*
X190621298Y-135540166D01*
X190621295Y-135540167D01*
X190588774Y-135548881D01*
X190405977Y-135597861D01*
X190405967Y-135597864D01*
X190200035Y-135683164D01*
X190200031Y-135683166D01*
X190006984Y-135794623D01*
X190006975Y-135794629D01*
X189830135Y-135930322D01*
X189830128Y-135930328D01*
X189672515Y-136087941D01*
X189672509Y-136087948D01*
X189536816Y-136264788D01*
X189536810Y-136264797D01*
X189425353Y-136457844D01*
X189425351Y-136457848D01*
X189340051Y-136663780D01*
X189340048Y-136663790D01*
X189323118Y-136726976D01*
X189282355Y-136879105D01*
X189282352Y-136879118D01*
X189253259Y-137100104D01*
X189253258Y-137100120D01*
X184268820Y-137100120D01*
X184270843Y-137082171D01*
X184270843Y-137082170D01*
X184276054Y-137035915D01*
X184276055Y-137035911D01*
X184276055Y-136726976D01*
X184276054Y-136726972D01*
X184241468Y-136420006D01*
X184241465Y-136419988D01*
X184172723Y-136118808D01*
X184172719Y-136118796D01*
X184070692Y-135827221D01*
X184070690Y-135827215D01*
X183936650Y-135548879D01*
X183772290Y-135287301D01*
X183579675Y-135045770D01*
X183361229Y-134827324D01*
X183119698Y-134634709D01*
X182858120Y-134470349D01*
X182858117Y-134470347D01*
X182579791Y-134336312D01*
X182579777Y-134336306D01*
X182288202Y-134234279D01*
X182288190Y-134234275D01*
X181987010Y-134165533D01*
X181986992Y-134165530D01*
X181680026Y-134130944D01*
X181680020Y-134130944D01*
X181371090Y-134130944D01*
X181371083Y-134130944D01*
X181064117Y-134165530D01*
X181064099Y-134165533D01*
X180762919Y-134234275D01*
X180762907Y-134234279D01*
X180471332Y-134336306D01*
X180471318Y-134336312D01*
X180192992Y-134470347D01*
X179931413Y-134634708D01*
X179689881Y-134827323D01*
X179471434Y-135045770D01*
X179278819Y-135287302D01*
X179114458Y-135548881D01*
X178980423Y-135827207D01*
X178980417Y-135827221D01*
X178878390Y-136118796D01*
X178878386Y-136118808D01*
X178809644Y-136419988D01*
X178809641Y-136420006D01*
X178775055Y-136726972D01*
X120612049Y-136726972D01*
X114517871Y-126171546D01*
X123642987Y-126171546D01*
X123651577Y-126374840D01*
X123651577Y-126374844D01*
X123700918Y-126572262D01*
X123700920Y-126572266D01*
X123751411Y-126680942D01*
X123751418Y-126680956D01*
X124259444Y-127560881D01*
X124259452Y-127560894D01*
X124275260Y-127583403D01*
X124328334Y-127658976D01*
X124474623Y-127800405D01*
X124474624Y-127800406D01*
X124474626Y-127800407D01*
X124474627Y-127800408D01*
X124646395Y-127909497D01*
X124836608Y-127981776D01*
X125037476Y-128014287D01*
X125240776Y-128005697D01*
X125438186Y-127956359D01*
X125438191Y-127956356D01*
X125438193Y-127956356D01*
X125438197Y-127956354D01*
X125471323Y-127940963D01*
X125546880Y-127905860D01*
X127379453Y-126847823D01*
X127477534Y-126778941D01*
X127618967Y-126632648D01*
X127728056Y-126460880D01*
X127800335Y-126270667D01*
X127832846Y-126069799D01*
X127824256Y-125866499D01*
X127774918Y-125669089D01*
X127774915Y-125669084D01*
X127774915Y-125669081D01*
X127774913Y-125669077D01*
X127724422Y-125560401D01*
X127724415Y-125560387D01*
X127216389Y-124680462D01*
X127216388Y-124680460D01*
X127216382Y-124680450D01*
X127147500Y-124582369D01*
X127147499Y-124582367D01*
X127001210Y-124440938D01*
X127001209Y-124440937D01*
X126829441Y-124331848D01*
X126829439Y-124331847D01*
X126748839Y-124301220D01*
X126639226Y-124259568D01*
X126639222Y-124259567D01*
X126639221Y-124259567D01*
X126438354Y-124227056D01*
X126235062Y-124235646D01*
X126235058Y-124235646D01*
X126037640Y-124284987D01*
X126037636Y-124284989D01*
X125928960Y-124335480D01*
X125928946Y-124335487D01*
X124096393Y-125393513D01*
X124096382Y-125393520D01*
X123998298Y-125462403D01*
X123856869Y-125608692D01*
X123856868Y-125608693D01*
X123747779Y-125780461D01*
X123747778Y-125780463D01*
X123675500Y-125970674D01*
X123675498Y-125970681D01*
X123642987Y-126171546D01*
X114517871Y-126171546D01*
X113135581Y-123777349D01*
X133876036Y-123777349D01*
X133876036Y-124019926D01*
X133907584Y-124259568D01*
X133907698Y-124260427D01*
X133913063Y-124280449D01*
X133970483Y-124494742D01*
X134063309Y-124718843D01*
X134063313Y-124718852D01*
X134085510Y-124757299D01*
X134184600Y-124928927D01*
X134184602Y-124928930D01*
X134184603Y-124928931D01*
X134332269Y-125121374D01*
X134332275Y-125121381D01*
X134503792Y-125292898D01*
X134503798Y-125292903D01*
X134696247Y-125440574D01*
X134906324Y-125561862D01*
X134906329Y-125561864D01*
X134906335Y-125561867D01*
X134950421Y-125580128D01*
X135004825Y-125623968D01*
X135026890Y-125690263D01*
X135009611Y-125757962D01*
X134958474Y-125805573D01*
X134950423Y-125809249D01*
X134906338Y-125827510D01*
X134906321Y-125827518D01*
X134696242Y-125948808D01*
X134503799Y-126096474D01*
X134503792Y-126096480D01*
X134332275Y-126267997D01*
X134332269Y-126268004D01*
X134184603Y-126460447D01*
X134063313Y-126670526D01*
X134063309Y-126670535D01*
X133970483Y-126894636D01*
X133907697Y-127128955D01*
X133876036Y-127369452D01*
X133876036Y-127612029D01*
X133907697Y-127852526D01*
X133970483Y-128086845D01*
X134063309Y-128310946D01*
X134063312Y-128310953D01*
X134184600Y-128521030D01*
X134184602Y-128521033D01*
X134184603Y-128521034D01*
X134332269Y-128713477D01*
X134332275Y-128713484D01*
X134503792Y-128885001D01*
X134503798Y-128885006D01*
X134696247Y-129032677D01*
X134906324Y-129153965D01*
X135101805Y-129234936D01*
X135112831Y-129239503D01*
X135130436Y-129246795D01*
X135364747Y-129309579D01*
X135545122Y-129333325D01*
X135605247Y-129341241D01*
X135605248Y-129341241D01*
X135847825Y-129341241D01*
X135895924Y-129334908D01*
X136088325Y-129309579D01*
X136322636Y-129246795D01*
X136546748Y-129153965D01*
X136756825Y-129032677D01*
X136949274Y-128885006D01*
X137120801Y-128713479D01*
X137268472Y-128521030D01*
X137389760Y-128310953D01*
X137482590Y-128086841D01*
X137545374Y-127852530D01*
X137572392Y-127647296D01*
X137600658Y-127583403D01*
X137658982Y-127544931D01*
X137679139Y-127540546D01*
X137884376Y-127513527D01*
X138118687Y-127450743D01*
X138342799Y-127357913D01*
X138552876Y-127236625D01*
X138745325Y-127088954D01*
X138916852Y-126917427D01*
X139064523Y-126724978D01*
X139185811Y-126514901D01*
X139278641Y-126290789D01*
X139341425Y-126056478D01*
X139368443Y-125851246D01*
X139396709Y-125787352D01*
X139455033Y-125748880D01*
X139475190Y-125744495D01*
X139680427Y-125717476D01*
X139914738Y-125654692D01*
X140138850Y-125561862D01*
X140348927Y-125440574D01*
X140357441Y-125434041D01*
X155849500Y-125434041D01*
X155849500Y-125715958D01*
X155886295Y-125995439D01*
X155959259Y-126267743D01*
X156067135Y-126528179D01*
X156067140Y-126528190D01*
X156208083Y-126772309D01*
X156208088Y-126772317D01*
X156379700Y-126995965D01*
X156379704Y-126995970D01*
X156579029Y-127195295D01*
X156579033Y-127195298D01*
X156579035Y-127195300D01*
X156802683Y-127366912D01*
X156802690Y-127366916D01*
X156977101Y-127467613D01*
X157025317Y-127518180D01*
X157038539Y-127586787D01*
X157012571Y-127651652D01*
X156977101Y-127682387D01*
X156802690Y-127783083D01*
X156802684Y-127783087D01*
X156802683Y-127783088D01*
X156765494Y-127811624D01*
X156579029Y-127954704D01*
X156379704Y-128154029D01*
X156208089Y-128377682D01*
X156208083Y-128377690D01*
X156067140Y-128621809D01*
X156067135Y-128621820D01*
X155959259Y-128882256D01*
X155886295Y-129154560D01*
X155849500Y-129434041D01*
X155849500Y-129715958D01*
X155886295Y-129995439D01*
X155959259Y-130267743D01*
X156067135Y-130528179D01*
X156067140Y-130528190D01*
X156208083Y-130772309D01*
X156208088Y-130772317D01*
X156379700Y-130995965D01*
X156379704Y-130995970D01*
X156579029Y-131195295D01*
X156579033Y-131195298D01*
X156579035Y-131195300D01*
X156802683Y-131366912D01*
X156802690Y-131366916D01*
X157046809Y-131507859D01*
X157046814Y-131507861D01*
X157046817Y-131507863D01*
X157307261Y-131615742D01*
X157579558Y-131688704D01*
X157859049Y-131725500D01*
X157859056Y-131725500D01*
X158140944Y-131725500D01*
X158140951Y-131725500D01*
X158420442Y-131688704D01*
X158692739Y-131615742D01*
X158953183Y-131507863D01*
X159197317Y-131366912D01*
X159420965Y-131195300D01*
X159620300Y-130995965D01*
X159701624Y-130889981D01*
X159758052Y-130848779D01*
X159827798Y-130844624D01*
X159888718Y-130878836D01*
X159898376Y-130889982D01*
X159979698Y-130995963D01*
X159979704Y-130995970D01*
X160179029Y-131195295D01*
X160179033Y-131195298D01*
X160179035Y-131195300D01*
X160402683Y-131366912D01*
X160402690Y-131366916D01*
X160646809Y-131507859D01*
X160646814Y-131507861D01*
X160646817Y-131507863D01*
X160907261Y-131615742D01*
X161179558Y-131688704D01*
X161459049Y-131725500D01*
X161459056Y-131725500D01*
X161740944Y-131725500D01*
X161740951Y-131725500D01*
X162020442Y-131688704D01*
X162292739Y-131615742D01*
X162553183Y-131507863D01*
X162797317Y-131366912D01*
X163020965Y-131195300D01*
X163220300Y-130995965D01*
X163391912Y-130772317D01*
X163532863Y-130528183D01*
X163640742Y-130267739D01*
X163713704Y-129995442D01*
X163750500Y-129715951D01*
X163750500Y-129434049D01*
X163713704Y-129154558D01*
X163640742Y-128882261D01*
X163532863Y-128621817D01*
X163532861Y-128621814D01*
X163532859Y-128621809D01*
X163391916Y-128377690D01*
X163391912Y-128377683D01*
X163220300Y-128154035D01*
X163220298Y-128154033D01*
X163220295Y-128154029D01*
X163020970Y-127954704D01*
X163020965Y-127954700D01*
X162797317Y-127783088D01*
X162622895Y-127682385D01*
X162574681Y-127631820D01*
X162561458Y-127563213D01*
X162587426Y-127498348D01*
X162622895Y-127467614D01*
X162797317Y-127366912D01*
X163020965Y-127195300D01*
X163220300Y-126995965D01*
X163391912Y-126772317D01*
X163532863Y-126528183D01*
X163538368Y-126514894D01*
X163584066Y-126404567D01*
X163627906Y-126350163D01*
X163694200Y-126328098D01*
X163761900Y-126345377D01*
X163809112Y-126395724D01*
X163997135Y-126764740D01*
X163997142Y-126764751D01*
X164222966Y-127133262D01*
X164222971Y-127133269D01*
X164222973Y-127133272D01*
X164243041Y-127160893D01*
X164477025Y-127482946D01*
X164477035Y-127482960D01*
X164733367Y-127783084D01*
X164757743Y-127811624D01*
X165063376Y-128117257D01*
X165063382Y-128117262D01*
X165392039Y-128397964D01*
X165392046Y-128397969D01*
X165741728Y-128652027D01*
X165741732Y-128652029D01*
X165741737Y-128652033D01*
X166110248Y-128877857D01*
X166110254Y-128877860D01*
X166110265Y-128877867D01*
X166495385Y-129074096D01*
X166894714Y-129239503D01*
X166894719Y-129239505D01*
X166917156Y-129246795D01*
X167305790Y-129373070D01*
X167726078Y-129473972D01*
X168152987Y-129541588D01*
X168583885Y-129575500D01*
X168583893Y-129575500D01*
X169016107Y-129575500D01*
X169016115Y-129575500D01*
X169447013Y-129541588D01*
X169873922Y-129473972D01*
X170294210Y-129373070D01*
X170705286Y-129239503D01*
X171104615Y-129074096D01*
X171489735Y-128877867D01*
X171858272Y-128652027D01*
X172207954Y-128397969D01*
X172536624Y-128117257D01*
X172842257Y-127811624D01*
X173101695Y-127507863D01*
X173122964Y-127482960D01*
X173122964Y-127482959D01*
X173122969Y-127482954D01*
X173377027Y-127133272D01*
X173602867Y-126764735D01*
X173799096Y-126379615D01*
X173964503Y-125980286D01*
X174098070Y-125569210D01*
X174198972Y-125148922D01*
X174266588Y-124722013D01*
X174300500Y-124291115D01*
X174300500Y-123858885D01*
X174266588Y-123427987D01*
X174198972Y-123001078D01*
X174098070Y-122580790D01*
X173972574Y-122194553D01*
X187922087Y-122194553D01*
X187922087Y-124010615D01*
X187922088Y-124010621D01*
X187932700Y-124130002D01*
X187988676Y-124325632D01*
X187988677Y-124325635D01*
X187988678Y-124325636D01*
X188077011Y-124494742D01*
X188082892Y-124505999D01*
X188151278Y-124589868D01*
X188178387Y-124654264D01*
X188166377Y-124723094D01*
X188162564Y-124730227D01*
X188109362Y-124822376D01*
X188109360Y-124822381D01*
X188016534Y-125046482D01*
X187953748Y-125280801D01*
X187922087Y-125521298D01*
X187922087Y-125763875D01*
X187953748Y-126004372D01*
X188016534Y-126238691D01*
X188103160Y-126447823D01*
X188109363Y-126462799D01*
X188230651Y-126672876D01*
X188230653Y-126672879D01*
X188230654Y-126672880D01*
X188378320Y-126865323D01*
X188378326Y-126865330D01*
X188549843Y-127036847D01*
X188549849Y-127036852D01*
X188742298Y-127184523D01*
X188952375Y-127305811D01*
X189176487Y-127398641D01*
X189410798Y-127461425D01*
X189591173Y-127485171D01*
X189651298Y-127493087D01*
X189651299Y-127493087D01*
X189893876Y-127493087D01*
X189941975Y-127486754D01*
X190134376Y-127461425D01*
X190368687Y-127398641D01*
X190592799Y-127305811D01*
X190802876Y-127184523D01*
X190967101Y-127058509D01*
X191032270Y-127033315D01*
X191100715Y-127047353D01*
X191118073Y-127058509D01*
X191282298Y-127184523D01*
X191492375Y-127305811D01*
X191716487Y-127398641D01*
X191950798Y-127461425D01*
X192131173Y-127485171D01*
X192191298Y-127493087D01*
X192191299Y-127493087D01*
X192433876Y-127493087D01*
X192481975Y-127486754D01*
X192674376Y-127461425D01*
X192908687Y-127398641D01*
X193132799Y-127305811D01*
X193342876Y-127184523D01*
X193535325Y-127036852D01*
X193706852Y-126865325D01*
X193854523Y-126672876D01*
X193975811Y-126462799D01*
X194068641Y-126238687D01*
X194131425Y-126004376D01*
X194163087Y-125763875D01*
X194163087Y-125669797D01*
X200167153Y-125669797D01*
X200199664Y-125870662D01*
X200199666Y-125870669D01*
X200271944Y-126060880D01*
X200271945Y-126060882D01*
X200381034Y-126232650D01*
X200381035Y-126232651D01*
X200522464Y-126378940D01*
X200620547Y-126447824D01*
X200620558Y-126447830D01*
X202453123Y-127505861D01*
X202527777Y-127540545D01*
X202561814Y-127556359D01*
X202759224Y-127605697D01*
X202860874Y-127609992D01*
X202962522Y-127614287D01*
X202962522Y-127614286D01*
X202962524Y-127614287D01*
X203163392Y-127581776D01*
X203353605Y-127509497D01*
X203525373Y-127400408D01*
X203671666Y-127258975D01*
X203740548Y-127160895D01*
X203758990Y-127128952D01*
X204248586Y-126280946D01*
X204248586Y-126280945D01*
X204268219Y-126238687D01*
X204299084Y-126172255D01*
X204348422Y-125974845D01*
X204357012Y-125771545D01*
X204324501Y-125570677D01*
X204252222Y-125380464D01*
X204143133Y-125208696D01*
X204143132Y-125208695D01*
X204143131Y-125208693D01*
X204143130Y-125208692D01*
X204001701Y-125062403D01*
X203903618Y-124993519D01*
X203903607Y-124993513D01*
X202071042Y-123935482D01*
X201962357Y-123884987D01*
X201962355Y-123884986D01*
X201962352Y-123884985D01*
X201814307Y-123847984D01*
X201764939Y-123835646D01*
X201561643Y-123827056D01*
X201360778Y-123859567D01*
X201360775Y-123859567D01*
X201360774Y-123859568D01*
X201360772Y-123859568D01*
X201360771Y-123859569D01*
X201170560Y-123931847D01*
X201170558Y-123931848D01*
X200998790Y-124040937D01*
X200998789Y-124040938D01*
X200852500Y-124182367D01*
X200783616Y-124280450D01*
X200783610Y-124280460D01*
X200275579Y-125160397D01*
X200275579Y-125160398D01*
X200225084Y-125269083D01*
X200225083Y-125269086D01*
X200225082Y-125269089D01*
X200219130Y-125292904D01*
X200175743Y-125466499D01*
X200175743Y-125466503D01*
X200167153Y-125669797D01*
X194163087Y-125669797D01*
X194163087Y-125521299D01*
X194131425Y-125280798D01*
X194068641Y-125046487D01*
X193975811Y-124822375D01*
X193854523Y-124612298D01*
X193728509Y-124448073D01*
X193703315Y-124382904D01*
X193717353Y-124314459D01*
X193728509Y-124297101D01*
X193775665Y-124235646D01*
X193854523Y-124132876D01*
X193975811Y-123922799D01*
X194068641Y-123698687D01*
X194131425Y-123464376D01*
X194163087Y-123223875D01*
X194163087Y-122981299D01*
X194131425Y-122740798D01*
X194068641Y-122506487D01*
X193975811Y-122282375D01*
X193854523Y-122072298D01*
X193706852Y-121879849D01*
X193706847Y-121879843D01*
X193535330Y-121708326D01*
X193535323Y-121708320D01*
X193342880Y-121560654D01*
X193342879Y-121560653D01*
X193342876Y-121560651D01*
X193132799Y-121439363D01*
X193125086Y-121436168D01*
X192908691Y-121346534D01*
X192674372Y-121283748D01*
X192433876Y-121252087D01*
X192433875Y-121252087D01*
X192191299Y-121252087D01*
X192191298Y-121252087D01*
X191950801Y-121283748D01*
X191716482Y-121346534D01*
X191492381Y-121439360D01*
X191492376Y-121439362D01*
X191400227Y-121492564D01*
X191332327Y-121509036D01*
X191266300Y-121486183D01*
X191259868Y-121481278D01*
X191175999Y-121412892D01*
X191175995Y-121412890D01*
X191175994Y-121412889D01*
X190995636Y-121318678D01*
X190995635Y-121318677D01*
X190995632Y-121318676D01*
X190878416Y-121285137D01*
X190800005Y-121262701D01*
X190800002Y-121262700D01*
X190800000Y-121262700D01*
X190733689Y-121256804D01*
X190680624Y-121252087D01*
X190680619Y-121252087D01*
X188864558Y-121252087D01*
X188864552Y-121252087D01*
X188864551Y-121252088D01*
X188852903Y-121253123D01*
X188745171Y-121262700D01*
X188549541Y-121318676D01*
X188496212Y-121346533D01*
X188369180Y-121412889D01*
X188369178Y-121412890D01*
X188369177Y-121412891D01*
X188211477Y-121541477D01*
X188082891Y-121699177D01*
X188082889Y-121699180D01*
X188078115Y-121708320D01*
X187988676Y-121879541D01*
X187943919Y-122035963D01*
X187933523Y-122072298D01*
X187932701Y-122075170D01*
X187932700Y-122075173D01*
X187922087Y-122194553D01*
X173972574Y-122194553D01*
X173964503Y-122169714D01*
X173799096Y-121770385D01*
X173602867Y-121385265D01*
X173602857Y-121385248D01*
X173377033Y-121016737D01*
X173377029Y-121016732D01*
X173377027Y-121016728D01*
X173122969Y-120667046D01*
X173122964Y-120667039D01*
X172858035Y-120356850D01*
X172842257Y-120338376D01*
X172536624Y-120032743D01*
X172399269Y-119915430D01*
X172207960Y-119752035D01*
X172207946Y-119752025D01*
X171908422Y-119534409D01*
X171858272Y-119497973D01*
X171858269Y-119497971D01*
X171858262Y-119497966D01*
X171489751Y-119272142D01*
X171489740Y-119272136D01*
X171489739Y-119272135D01*
X171489735Y-119272133D01*
X171104615Y-119075904D01*
X170922571Y-119000499D01*
X170705280Y-118910494D01*
X170394247Y-118809434D01*
X170294210Y-118776930D01*
X169873922Y-118676028D01*
X169447013Y-118608412D01*
X169016120Y-118574500D01*
X169016115Y-118574500D01*
X168583885Y-118574500D01*
X168583879Y-118574500D01*
X168152986Y-118608412D01*
X168152985Y-118608412D01*
X167726083Y-118676027D01*
X167726080Y-118676027D01*
X167726078Y-118676028D01*
X167608383Y-118704284D01*
X167305801Y-118776927D01*
X167305795Y-118776928D01*
X167305790Y-118776930D01*
X167305778Y-118776934D01*
X166894719Y-118910494D01*
X166495387Y-119075903D01*
X166110259Y-119272136D01*
X166110248Y-119272142D01*
X165741737Y-119497966D01*
X165741726Y-119497974D01*
X165392053Y-119752025D01*
X165392039Y-119752035D01*
X165063382Y-120032737D01*
X165063368Y-120032750D01*
X164757750Y-120338368D01*
X164757737Y-120338382D01*
X164477035Y-120667039D01*
X164477025Y-120667053D01*
X164222974Y-121016726D01*
X164222966Y-121016737D01*
X163997142Y-121385248D01*
X163997136Y-121385259D01*
X163800903Y-121770387D01*
X163635494Y-122169719D01*
X163501934Y-122580778D01*
X163501927Y-122580801D01*
X163401027Y-123001083D01*
X163333412Y-123427985D01*
X163333412Y-123427986D01*
X163299500Y-123858879D01*
X163299500Y-123933872D01*
X163279815Y-124000911D01*
X163227011Y-124046666D01*
X163157853Y-124056610D01*
X163094297Y-124027585D01*
X163087819Y-124021553D01*
X163020970Y-123954704D01*
X163020965Y-123954700D01*
X162797317Y-123783088D01*
X162797311Y-123783084D01*
X162797309Y-123783083D01*
X162553190Y-123642140D01*
X162553179Y-123642135D01*
X162292743Y-123534259D01*
X162020439Y-123461295D01*
X161740958Y-123424500D01*
X161740951Y-123424500D01*
X161459049Y-123424500D01*
X161459041Y-123424500D01*
X161179560Y-123461295D01*
X160907256Y-123534259D01*
X160646820Y-123642135D01*
X160646809Y-123642140D01*
X160402690Y-123783083D01*
X160402682Y-123783089D01*
X160179029Y-123954704D01*
X159979704Y-124154029D01*
X159898376Y-124260018D01*
X159841948Y-124301220D01*
X159772202Y-124305375D01*
X159711281Y-124271162D01*
X159701624Y-124260018D01*
X159676331Y-124227056D01*
X159620300Y-124154035D01*
X159620298Y-124154033D01*
X159620295Y-124154029D01*
X159420970Y-123954704D01*
X159420965Y-123954700D01*
X159197317Y-123783088D01*
X159197311Y-123783084D01*
X159197309Y-123783083D01*
X158953190Y-123642140D01*
X158953179Y-123642135D01*
X158692743Y-123534259D01*
X158420439Y-123461295D01*
X158140958Y-123424500D01*
X158140951Y-123424500D01*
X157859049Y-123424500D01*
X157859041Y-123424500D01*
X157579560Y-123461295D01*
X157307256Y-123534259D01*
X157046820Y-123642135D01*
X157046809Y-123642140D01*
X156802690Y-123783083D01*
X156802682Y-123783089D01*
X156579029Y-123954704D01*
X156379704Y-124154029D01*
X156298376Y-124260018D01*
X156211999Y-124372587D01*
X156208089Y-124377682D01*
X156208083Y-124377690D01*
X156067140Y-124621809D01*
X156067135Y-124621820D01*
X155959259Y-124882256D01*
X155886295Y-125154560D01*
X155849500Y-125434041D01*
X140357441Y-125434041D01*
X140541376Y-125292903D01*
X140712903Y-125121376D01*
X140860574Y-124928927D01*
X140981862Y-124718850D01*
X141074692Y-124494738D01*
X141137476Y-124260427D01*
X141169138Y-124019926D01*
X141169138Y-123777350D01*
X141137476Y-123536849D01*
X141074692Y-123302538D01*
X140981862Y-123078426D01*
X140860574Y-122868349D01*
X140850215Y-122854849D01*
X140808118Y-122799986D01*
X140782924Y-122734817D01*
X140796963Y-122666372D01*
X140845777Y-122616382D01*
X140906494Y-122600500D01*
X141134812Y-122600500D01*
X141134812Y-122600499D01*
X141402732Y-122570312D01*
X141665591Y-122510316D01*
X141920079Y-122421267D01*
X142162997Y-122304284D01*
X142391289Y-122160838D01*
X142602085Y-121992734D01*
X142792734Y-121802085D01*
X142960838Y-121591289D01*
X143104284Y-121362997D01*
X143221267Y-121120079D01*
X143310316Y-120865591D01*
X143370312Y-120602732D01*
X143400500Y-120334809D01*
X143400500Y-120065191D01*
X143370312Y-119797268D01*
X143310316Y-119534409D01*
X143221267Y-119279921D01*
X143104284Y-119037003D01*
X142960838Y-118808711D01*
X142792734Y-118597915D01*
X142602085Y-118407266D01*
X142583862Y-118392734D01*
X142538801Y-118356799D01*
X142391289Y-118239162D01*
X142162997Y-118095716D01*
X142162994Y-118095714D01*
X141920082Y-117978734D01*
X141665602Y-117889687D01*
X141665594Y-117889684D01*
X141468446Y-117844687D01*
X141402732Y-117829688D01*
X141402728Y-117829687D01*
X141402719Y-117829686D01*
X141134813Y-117799500D01*
X141134809Y-117799500D01*
X140865191Y-117799500D01*
X140865186Y-117799500D01*
X140597280Y-117829686D01*
X140597268Y-117829688D01*
X140334405Y-117889684D01*
X140334397Y-117889687D01*
X140079917Y-117978734D01*
X139837001Y-118095716D01*
X139837000Y-118095717D01*
X139732257Y-118161531D01*
X139665021Y-118180531D01*
X139598186Y-118160163D01*
X139552972Y-118106895D01*
X139543735Y-118037638D01*
X139561290Y-117990568D01*
X139704284Y-117762997D01*
X139821267Y-117520079D01*
X139910316Y-117265591D01*
X139970312Y-117002732D01*
X140000500Y-116734809D01*
X140000500Y-116465191D01*
X139970312Y-116197268D01*
X139910316Y-115934409D01*
X139903298Y-115914354D01*
X139868364Y-115814516D01*
X139821267Y-115679921D01*
X139704284Y-115437003D01*
X139560838Y-115208711D01*
X139392734Y-114997915D01*
X139202085Y-114807266D01*
X138991289Y-114639162D01*
X138762997Y-114495716D01*
X138762994Y-114495714D01*
X138520082Y-114378734D01*
X138265602Y-114289687D01*
X138265594Y-114289684D01*
X138068446Y-114244687D01*
X138002732Y-114229688D01*
X138002728Y-114229687D01*
X138002719Y-114229686D01*
X137734813Y-114199500D01*
X137734809Y-114199500D01*
X137465191Y-114199500D01*
X137465186Y-114199500D01*
X137197280Y-114229686D01*
X137197268Y-114229688D01*
X136934405Y-114289684D01*
X136934397Y-114289687D01*
X136679917Y-114378734D01*
X136437005Y-114495714D01*
X136208712Y-114639161D01*
X135997915Y-114807265D01*
X135807265Y-114997915D01*
X135639161Y-115208712D01*
X135495714Y-115437005D01*
X135378734Y-115679917D01*
X135289687Y-115934397D01*
X135289684Y-115934405D01*
X135229688Y-116197268D01*
X135229686Y-116197280D01*
X135199500Y-116465186D01*
X135199500Y-116734813D01*
X135229686Y-117002719D01*
X135229687Y-117002728D01*
X135229688Y-117002732D01*
X135244687Y-117068446D01*
X135289684Y-117265594D01*
X135289687Y-117265602D01*
X135378734Y-117520082D01*
X135495714Y-117762994D01*
X135495716Y-117762997D01*
X135639162Y-117991289D01*
X135807266Y-118202085D01*
X135997915Y-118392734D01*
X136208711Y-118560838D01*
X136437003Y-118704284D01*
X136679921Y-118821267D01*
X136871049Y-118888145D01*
X136934397Y-118910312D01*
X136934405Y-118910315D01*
X136934408Y-118910315D01*
X136934409Y-118910316D01*
X137197268Y-118970312D01*
X137465187Y-119000499D01*
X137465188Y-119000500D01*
X137465191Y-119000500D01*
X137734812Y-119000500D01*
X137734812Y-119000499D01*
X138002732Y-118970312D01*
X138265591Y-118910316D01*
X138520079Y-118821267D01*
X138762997Y-118704284D01*
X138867740Y-118638468D01*
X138934977Y-118619468D01*
X139001812Y-118639835D01*
X139047027Y-118693103D01*
X139056265Y-118762359D01*
X139038707Y-118809434D01*
X138895714Y-119037005D01*
X138778734Y-119279917D01*
X138689687Y-119534397D01*
X138689684Y-119534405D01*
X138629688Y-119797268D01*
X138629686Y-119797280D01*
X138599500Y-120065186D01*
X138599500Y-120263137D01*
X138579815Y-120330176D01*
X138527011Y-120375931D01*
X138457853Y-120385875D01*
X138394297Y-120356850D01*
X138387819Y-120350818D01*
X138189005Y-120152004D01*
X138097095Y-120075102D01*
X138097094Y-120075101D01*
X138097089Y-120075097D01*
X138097084Y-120075094D01*
X138097081Y-120075092D01*
X137919173Y-119976346D01*
X137919171Y-119976345D01*
X137725026Y-119915430D01*
X137522587Y-119894845D01*
X137320147Y-119915430D01*
X137126002Y-119976345D01*
X137126000Y-119976346D01*
X136948092Y-120075092D01*
X136948085Y-120075097D01*
X136856162Y-120152009D01*
X135572004Y-121436168D01*
X135495102Y-121528078D01*
X135495092Y-121528092D01*
X135396346Y-121706000D01*
X135396345Y-121706002D01*
X135335431Y-121900147D01*
X135335430Y-121900149D01*
X135324482Y-122007814D01*
X135298116Y-122072518D01*
X135240954Y-122112696D01*
X135233213Y-122115043D01*
X135130440Y-122142582D01*
X134906335Y-122235408D01*
X134906321Y-122235415D01*
X134696242Y-122356705D01*
X134503799Y-122504371D01*
X134503792Y-122504377D01*
X134332275Y-122675894D01*
X134332269Y-122675901D01*
X134184603Y-122868344D01*
X134063313Y-123078423D01*
X134063309Y-123078432D01*
X133970483Y-123302533D01*
X133907697Y-123536852D01*
X133876036Y-123777349D01*
X113135581Y-123777349D01*
X111082537Y-120221373D01*
X126308569Y-120221373D01*
X126308569Y-120564010D01*
X126346927Y-120904460D01*
X126346930Y-120904474D01*
X126423171Y-121238508D01*
X126423172Y-121238510D01*
X126536333Y-121561908D01*
X126684991Y-121870599D01*
X126690803Y-121879849D01*
X126867280Y-122160710D01*
X127080903Y-122428585D01*
X127323176Y-122670858D01*
X127591051Y-122884481D01*
X127881159Y-123066768D01*
X128189854Y-123215428D01*
X128513252Y-123328589D01*
X128847286Y-123404831D01*
X128847295Y-123404832D01*
X128847300Y-123404833D01*
X129074266Y-123430405D01*
X129187751Y-123443191D01*
X129187754Y-123443192D01*
X129187757Y-123443192D01*
X129530384Y-123443192D01*
X129530385Y-123443191D01*
X129704380Y-123423587D01*
X129870837Y-123404833D01*
X129870840Y-123404832D01*
X129870852Y-123404831D01*
X130204886Y-123328589D01*
X130528284Y-123215428D01*
X130836979Y-123066768D01*
X131127087Y-122884481D01*
X131394962Y-122670858D01*
X131637235Y-122428585D01*
X131850858Y-122160710D01*
X132033145Y-121870602D01*
X132181805Y-121561907D01*
X132294966Y-121238509D01*
X132371208Y-120904475D01*
X132409569Y-120564004D01*
X132409569Y-120221380D01*
X132375098Y-119915431D01*
X132371210Y-119880923D01*
X132371209Y-119880918D01*
X132371208Y-119880909D01*
X132294966Y-119546875D01*
X132181805Y-119223477D01*
X132033145Y-118914782D01*
X131850858Y-118624674D01*
X131637235Y-118356799D01*
X131394962Y-118114526D01*
X131371372Y-118095714D01*
X131297089Y-118036475D01*
X131127087Y-117900903D01*
X130836979Y-117718616D01*
X130836976Y-117718614D01*
X130528285Y-117569956D01*
X130204887Y-117456795D01*
X130204885Y-117456794D01*
X129947093Y-117397954D01*
X129870852Y-117380553D01*
X129870849Y-117380552D01*
X129870837Y-117380550D01*
X129530387Y-117342192D01*
X129530381Y-117342192D01*
X129187757Y-117342192D01*
X129187750Y-117342192D01*
X128847300Y-117380550D01*
X128847286Y-117380553D01*
X128513252Y-117456794D01*
X128513250Y-117456795D01*
X128189852Y-117569956D01*
X127881161Y-117718614D01*
X127591052Y-117900902D01*
X127323176Y-118114525D01*
X127080902Y-118356799D01*
X126867279Y-118624675D01*
X126684991Y-118914784D01*
X126536333Y-119223475D01*
X126423172Y-119546873D01*
X126423171Y-119546875D01*
X126346930Y-119880909D01*
X126346927Y-119880923D01*
X126308569Y-120221373D01*
X111082537Y-120221373D01*
X108099100Y-115053909D01*
X108097350Y-115050773D01*
X108097221Y-115050534D01*
X107837644Y-114569116D01*
X107834415Y-114562686D01*
X107819900Y-114531558D01*
X107795953Y-114480203D01*
X116892987Y-114480203D01*
X116901577Y-114683497D01*
X116901577Y-114683501D01*
X116950918Y-114880919D01*
X116950920Y-114880923D01*
X117001411Y-114989599D01*
X117001418Y-114989613D01*
X117509444Y-115869538D01*
X117509452Y-115869551D01*
X117534629Y-115905400D01*
X117578334Y-115967633D01*
X117724623Y-116109062D01*
X117724624Y-116109063D01*
X117724626Y-116109064D01*
X117724627Y-116109065D01*
X117896395Y-116218154D01*
X118086608Y-116290433D01*
X118287476Y-116322944D01*
X118490776Y-116314354D01*
X118688186Y-116265016D01*
X118688191Y-116265013D01*
X118688193Y-116265013D01*
X118688197Y-116265011D01*
X118722448Y-116249098D01*
X118796880Y-116214517D01*
X120629453Y-115156480D01*
X120727534Y-115087598D01*
X120868967Y-114941305D01*
X120978056Y-114769537D01*
X121050335Y-114579324D01*
X121082846Y-114378456D01*
X121074256Y-114175156D01*
X121024918Y-113977746D01*
X121024915Y-113977741D01*
X121024915Y-113977738D01*
X121024913Y-113977734D01*
X120974422Y-113869058D01*
X120974415Y-113869044D01*
X120466389Y-112989119D01*
X120466388Y-112989117D01*
X120466382Y-112989107D01*
X120397500Y-112891026D01*
X120397499Y-112891024D01*
X120251210Y-112749595D01*
X120251209Y-112749594D01*
X120079441Y-112640505D01*
X120079439Y-112640504D01*
X119956125Y-112593646D01*
X119889226Y-112568225D01*
X119889222Y-112568224D01*
X119889221Y-112568224D01*
X119688354Y-112535713D01*
X119485062Y-112544303D01*
X119485058Y-112544303D01*
X119287640Y-112593644D01*
X119287636Y-112593646D01*
X119178960Y-112644137D01*
X119178946Y-112644144D01*
X117346393Y-113702170D01*
X117346382Y-113702177D01*
X117248298Y-113771060D01*
X117106869Y-113917349D01*
X117106868Y-113917350D01*
X116997779Y-114089118D01*
X116997778Y-114089120D01*
X116925500Y-114279331D01*
X116925498Y-114279338D01*
X116892987Y-114480203D01*
X107795953Y-114480203D01*
X107748507Y-114378456D01*
X107603924Y-114068396D01*
X107601076Y-114061791D01*
X107399724Y-113554957D01*
X107397258Y-113548181D01*
X107387042Y-113517350D01*
X107225716Y-113030494D01*
X107223651Y-113023595D01*
X107082491Y-112496778D01*
X107080837Y-112489798D01*
X106970548Y-111955665D01*
X106969306Y-111948625D01*
X106890260Y-111408973D01*
X106889424Y-111401811D01*
X106859446Y-111059159D01*
X106841893Y-110858526D01*
X106841474Y-110851336D01*
X106825551Y-110304073D01*
X106825500Y-110300519D01*
X106825500Y-103841966D01*
X114449500Y-103841966D01*
X114449500Y-104858028D01*
X114449501Y-104858034D01*
X114460113Y-104977415D01*
X114516089Y-105173045D01*
X114516090Y-105173048D01*
X114516091Y-105173049D01*
X114610302Y-105353407D01*
X114610304Y-105353409D01*
X114738890Y-105511109D01*
X114832803Y-105587684D01*
X114896593Y-105639698D01*
X115076951Y-105733909D01*
X115272582Y-105789886D01*
X115391963Y-105800500D01*
X117508036Y-105800499D01*
X117627418Y-105789886D01*
X117823049Y-105733909D01*
X118003407Y-105639698D01*
X118161109Y-105511109D01*
X118289698Y-105353407D01*
X118383909Y-105173049D01*
X118439886Y-104977418D01*
X118450500Y-104858037D01*
X118450499Y-103841964D01*
X118439886Y-103722582D01*
X118383909Y-103526951D01*
X118289698Y-103346593D01*
X118199434Y-103235893D01*
X118161109Y-103188890D01*
X118003409Y-103060304D01*
X118003410Y-103060304D01*
X118003407Y-103060302D01*
X117823049Y-102966091D01*
X117823048Y-102966090D01*
X117823045Y-102966089D01*
X117705829Y-102932550D01*
X117627418Y-102910114D01*
X117627415Y-102910113D01*
X117627413Y-102910113D01*
X117561102Y-102904217D01*
X117508037Y-102899500D01*
X117508032Y-102899500D01*
X115391971Y-102899500D01*
X115391965Y-102899500D01*
X115391964Y-102899501D01*
X115380316Y-102900536D01*
X115272584Y-102910113D01*
X115076954Y-102966089D01*
X114986772Y-103013196D01*
X114896593Y-103060302D01*
X114896591Y-103060303D01*
X114896590Y-103060304D01*
X114738890Y-103188890D01*
X114610304Y-103346590D01*
X114516089Y-103526954D01*
X114460114Y-103722583D01*
X114460113Y-103722586D01*
X114449500Y-103841966D01*
X106825500Y-103841966D01*
X106825500Y-101028681D01*
X119399500Y-101028681D01*
X119399500Y-101371318D01*
X119437858Y-101711768D01*
X119437861Y-101711782D01*
X119514102Y-102045816D01*
X119514103Y-102045818D01*
X119627264Y-102369216D01*
X119775922Y-102677907D01*
X119775924Y-102677910D01*
X119958211Y-102968018D01*
X120171834Y-103235893D01*
X120414107Y-103478166D01*
X120681982Y-103691789D01*
X120972090Y-103874076D01*
X121280785Y-104022736D01*
X121604183Y-104135897D01*
X121938217Y-104212139D01*
X121938226Y-104212140D01*
X121938231Y-104212141D01*
X122165197Y-104237713D01*
X122278682Y-104250499D01*
X122278685Y-104250500D01*
X122278688Y-104250500D01*
X122621315Y-104250500D01*
X122621316Y-104250499D01*
X122795311Y-104230895D01*
X122961768Y-104212141D01*
X122961771Y-104212140D01*
X122961783Y-104212139D01*
X123295817Y-104135897D01*
X123619215Y-104022736D01*
X123927910Y-103874076D01*
X124218018Y-103691789D01*
X124485893Y-103478166D01*
X124728166Y-103235893D01*
X124941789Y-102968018D01*
X125124076Y-102677910D01*
X125272736Y-102369215D01*
X125385897Y-102045817D01*
X125462139Y-101711783D01*
X125500500Y-101371312D01*
X125500500Y-101028688D01*
X125462139Y-100688217D01*
X125385897Y-100354183D01*
X125272736Y-100030785D01*
X125124076Y-99722090D01*
X124941789Y-99431982D01*
X124728166Y-99164107D01*
X124485893Y-98921834D01*
X124218018Y-98708211D01*
X123927910Y-98525924D01*
X123927907Y-98525922D01*
X123619216Y-98377264D01*
X123295818Y-98264103D01*
X123295816Y-98264102D01*
X123038024Y-98205262D01*
X122961783Y-98187861D01*
X122961780Y-98187860D01*
X122961768Y-98187858D01*
X122621318Y-98149500D01*
X122621312Y-98149500D01*
X122278688Y-98149500D01*
X122278681Y-98149500D01*
X121938231Y-98187858D01*
X121938217Y-98187861D01*
X121604183Y-98264102D01*
X121604181Y-98264103D01*
X121280783Y-98377264D01*
X120972092Y-98525922D01*
X120681983Y-98708210D01*
X120414107Y-98921833D01*
X120171833Y-99164107D01*
X119958210Y-99431983D01*
X119775922Y-99722092D01*
X119627264Y-100030783D01*
X119514103Y-100354181D01*
X119514102Y-100354183D01*
X119437861Y-100688217D01*
X119437858Y-100688231D01*
X119399500Y-101028681D01*
X106825500Y-101028681D01*
X106825500Y-97127677D01*
X143324500Y-97127677D01*
X143324500Y-98022322D01*
X143363524Y-98916120D01*
X143441497Y-99807357D01*
X143558271Y-100694348D01*
X143713622Y-101575387D01*
X143713624Y-101575398D01*
X143713625Y-101575401D01*
X143854258Y-102209756D01*
X143907264Y-102448847D01*
X144138811Y-103312995D01*
X144407840Y-104166244D01*
X144713822Y-105006927D01*
X145056190Y-105833475D01*
X145434285Y-106644302D01*
X145847383Y-107437855D01*
X145993432Y-107690819D01*
X146294707Y-108212643D01*
X146719490Y-108879418D01*
X146775405Y-108967187D01*
X147288546Y-109700028D01*
X147833172Y-110409800D01*
X148114582Y-110745170D01*
X148408239Y-111095136D01*
X149012652Y-111754738D01*
X149645262Y-112387348D01*
X150304864Y-112991761D01*
X150607289Y-113245526D01*
X150990199Y-113566827D01*
X151699971Y-114111453D01*
X152402151Y-114603125D01*
X152432821Y-114624600D01*
X153187357Y-115105293D01*
X153647714Y-115371079D01*
X153962144Y-115552616D01*
X154755697Y-115965714D01*
X155063108Y-116109062D01*
X155566526Y-116343810D01*
X155979798Y-116514993D01*
X156393072Y-116686177D01*
X156621864Y-116769450D01*
X157233762Y-116992162D01*
X158087000Y-117261187D01*
X158951160Y-117492738D01*
X159824599Y-117686375D01*
X160259128Y-117762994D01*
X160705651Y-117841728D01*
X160822426Y-117857101D01*
X161592643Y-117958503D01*
X162483884Y-118036476D01*
X163377677Y-118075500D01*
X164272323Y-118075500D01*
X165166116Y-118036476D01*
X166057357Y-117958503D01*
X166944348Y-117841728D01*
X167825401Y-117686375D01*
X168698840Y-117492738D01*
X169563000Y-117261187D01*
X170416238Y-116992162D01*
X171256930Y-116686176D01*
X172083474Y-116343810D01*
X172894298Y-115965716D01*
X172992964Y-115914354D01*
X173687855Y-115552616D01*
X173735121Y-115525327D01*
X174462643Y-115105293D01*
X175217179Y-114624600D01*
X175950029Y-114111453D01*
X176634827Y-113585990D01*
X199190431Y-113585990D01*
X199190431Y-113928627D01*
X199228789Y-114269077D01*
X199228792Y-114269091D01*
X199305033Y-114603125D01*
X199305034Y-114603127D01*
X199418195Y-114926525D01*
X199566853Y-115235216D01*
X199566855Y-115235219D01*
X199749142Y-115525327D01*
X199895666Y-115709062D01*
X199927265Y-115748687D01*
X199962765Y-115793202D01*
X200205038Y-116035475D01*
X200472913Y-116249098D01*
X200763021Y-116431385D01*
X200763023Y-116431386D01*
X200833220Y-116465191D01*
X201071716Y-116580045D01*
X201395114Y-116693206D01*
X201729148Y-116769448D01*
X201729157Y-116769449D01*
X201729162Y-116769450D01*
X201956128Y-116795022D01*
X202069613Y-116807808D01*
X202069616Y-116807809D01*
X202069619Y-116807809D01*
X202412246Y-116807809D01*
X202412247Y-116807808D01*
X202586242Y-116788204D01*
X202752699Y-116769450D01*
X202752702Y-116769449D01*
X202752714Y-116769448D01*
X203086748Y-116693206D01*
X203410146Y-116580045D01*
X203718841Y-116431385D01*
X204008949Y-116249098D01*
X204276824Y-116035475D01*
X204519097Y-115793202D01*
X204732720Y-115525327D01*
X204915007Y-115235219D01*
X205063667Y-114926524D01*
X205176828Y-114603126D01*
X205253070Y-114269092D01*
X205263184Y-114179326D01*
X205285817Y-113978454D01*
X206917153Y-113978454D01*
X206933622Y-114080203D01*
X206949665Y-114179324D01*
X206950332Y-114181078D01*
X207021944Y-114369537D01*
X207021945Y-114369539D01*
X207131034Y-114541307D01*
X207131035Y-114541308D01*
X207272464Y-114687597D01*
X207370547Y-114756481D01*
X207370558Y-114756487D01*
X209203123Y-115814518D01*
X209283611Y-115851912D01*
X209311814Y-115865016D01*
X209509224Y-115914354D01*
X209610874Y-115918649D01*
X209712522Y-115922944D01*
X209712522Y-115922943D01*
X209712524Y-115922944D01*
X209913392Y-115890433D01*
X210103605Y-115818154D01*
X210275373Y-115709065D01*
X210421666Y-115567632D01*
X210490548Y-115469552D01*
X210711069Y-115087598D01*
X210998586Y-114589603D01*
X210998586Y-114589602D01*
X211011091Y-114562686D01*
X211049084Y-114480912D01*
X211098422Y-114283502D01*
X211107012Y-114080202D01*
X211074501Y-113879334D01*
X211002222Y-113689121D01*
X210893133Y-113517353D01*
X210893132Y-113517352D01*
X210893131Y-113517350D01*
X210893130Y-113517349D01*
X210751701Y-113371060D01*
X210653618Y-113302176D01*
X210653607Y-113302170D01*
X208821042Y-112244139D01*
X208712357Y-112193644D01*
X208712355Y-112193643D01*
X208712352Y-112193642D01*
X208564307Y-112156641D01*
X208514939Y-112144303D01*
X208311643Y-112135713D01*
X208110778Y-112168224D01*
X208110775Y-112168224D01*
X208110774Y-112168225D01*
X208110772Y-112168225D01*
X208110771Y-112168226D01*
X207920560Y-112240504D01*
X207920558Y-112240505D01*
X207748790Y-112349594D01*
X207748789Y-112349595D01*
X207602500Y-112491024D01*
X207533616Y-112589107D01*
X207533610Y-112589117D01*
X207025579Y-113469054D01*
X207025579Y-113469055D01*
X206975084Y-113577740D01*
X206975083Y-113577743D01*
X206975082Y-113577746D01*
X206973022Y-113585990D01*
X206925743Y-113775156D01*
X206925743Y-113775160D01*
X206917153Y-113978454D01*
X205285817Y-113978454D01*
X205287263Y-113965621D01*
X205287263Y-113965620D01*
X205291430Y-113928629D01*
X205291431Y-113928623D01*
X205291431Y-113585994D01*
X205291430Y-113585990D01*
X205290500Y-113577740D01*
X205253070Y-113245526D01*
X205176828Y-112911492D01*
X205063667Y-112588094D01*
X204915007Y-112279399D01*
X204732720Y-111989291D01*
X204519097Y-111721416D01*
X204276824Y-111479143D01*
X204008949Y-111265520D01*
X203718841Y-111083233D01*
X203718838Y-111083231D01*
X203410147Y-110934573D01*
X203086749Y-110821412D01*
X203086747Y-110821411D01*
X202828955Y-110762571D01*
X202752714Y-110745170D01*
X202752711Y-110745169D01*
X202752699Y-110745167D01*
X202412249Y-110706809D01*
X202412243Y-110706809D01*
X202069619Y-110706809D01*
X202069612Y-110706809D01*
X201729162Y-110745167D01*
X201729148Y-110745170D01*
X201395114Y-110821411D01*
X201395112Y-110821412D01*
X201071714Y-110934573D01*
X200763023Y-111083231D01*
X200472914Y-111265519D01*
X200205038Y-111479142D01*
X199962764Y-111721416D01*
X199749141Y-111989292D01*
X199566853Y-112279401D01*
X199418195Y-112588092D01*
X199305034Y-112911490D01*
X199305033Y-112911492D01*
X199228792Y-113245526D01*
X199228789Y-113245540D01*
X199190431Y-113585990D01*
X176634827Y-113585990D01*
X176659799Y-113566828D01*
X176718761Y-113517353D01*
X176754304Y-113487529D01*
X176975198Y-113302176D01*
X177345136Y-112991761D01*
X178004738Y-112387348D01*
X178637348Y-111754738D01*
X179241761Y-111095136D01*
X179816828Y-110409799D01*
X180361453Y-109700029D01*
X180874600Y-108967179D01*
X181355293Y-108212643D01*
X181802615Y-107437857D01*
X182215716Y-106644298D01*
X182593810Y-105833474D01*
X182936176Y-105006930D01*
X183242162Y-104166238D01*
X183344405Y-103841966D01*
X209149500Y-103841966D01*
X209149500Y-104858028D01*
X209149501Y-104858034D01*
X209160113Y-104977415D01*
X209216089Y-105173045D01*
X209216090Y-105173048D01*
X209216091Y-105173049D01*
X209310302Y-105353407D01*
X209310304Y-105353409D01*
X209438890Y-105511109D01*
X209532803Y-105587684D01*
X209596593Y-105639698D01*
X209776951Y-105733909D01*
X209972582Y-105789886D01*
X210091963Y-105800500D01*
X212208036Y-105800499D01*
X212327418Y-105789886D01*
X212523049Y-105733909D01*
X212703407Y-105639698D01*
X212861109Y-105511109D01*
X212989698Y-105353407D01*
X213083909Y-105173049D01*
X213139886Y-104977418D01*
X213150500Y-104858037D01*
X213150499Y-103841964D01*
X213139886Y-103722582D01*
X213083909Y-103526951D01*
X212989698Y-103346593D01*
X212899434Y-103235893D01*
X212861109Y-103188890D01*
X212703409Y-103060304D01*
X212703410Y-103060304D01*
X212703407Y-103060302D01*
X212523049Y-102966091D01*
X212523048Y-102966090D01*
X212523045Y-102966089D01*
X212405829Y-102932550D01*
X212327418Y-102910114D01*
X212327415Y-102910113D01*
X212327413Y-102910113D01*
X212261102Y-102904217D01*
X212208037Y-102899500D01*
X212208032Y-102899500D01*
X210091971Y-102899500D01*
X210091965Y-102899500D01*
X210091964Y-102899501D01*
X210080316Y-102900536D01*
X209972584Y-102910113D01*
X209776954Y-102966089D01*
X209686772Y-103013196D01*
X209596593Y-103060302D01*
X209596591Y-103060303D01*
X209596590Y-103060304D01*
X209438890Y-103188890D01*
X209310304Y-103346590D01*
X209216089Y-103526954D01*
X209160114Y-103722583D01*
X209160113Y-103722586D01*
X209149500Y-103841966D01*
X183344405Y-103841966D01*
X183511187Y-103313000D01*
X183742738Y-102448840D01*
X183936375Y-101575401D01*
X184091728Y-100694348D01*
X184208503Y-99807357D01*
X184286476Y-98916116D01*
X184325500Y-98022323D01*
X184325500Y-97127677D01*
X184286476Y-96233884D01*
X184208503Y-95342643D01*
X184091728Y-94455652D01*
X184041592Y-94171318D01*
X183984361Y-93846741D01*
X183981177Y-93828681D01*
X202099500Y-93828681D01*
X202099500Y-94171318D01*
X202137858Y-94511768D01*
X202137861Y-94511782D01*
X202214102Y-94845816D01*
X202214103Y-94845818D01*
X202327264Y-95169216D01*
X202475922Y-95477907D01*
X202475924Y-95477910D01*
X202658211Y-95768018D01*
X202871834Y-96035893D01*
X203114107Y-96278166D01*
X203381982Y-96491789D01*
X203672090Y-96674076D01*
X203980785Y-96822736D01*
X204304183Y-96935897D01*
X204638217Y-97012139D01*
X204638226Y-97012140D01*
X204638231Y-97012141D01*
X204865197Y-97037713D01*
X204978682Y-97050499D01*
X204978685Y-97050500D01*
X204978688Y-97050500D01*
X205321315Y-97050500D01*
X205321316Y-97050499D01*
X205495311Y-97030895D01*
X205661768Y-97012141D01*
X205661771Y-97012140D01*
X205661783Y-97012139D01*
X205995817Y-96935897D01*
X206319215Y-96822736D01*
X206627910Y-96674076D01*
X206918018Y-96491789D01*
X207185893Y-96278166D01*
X207428166Y-96035893D01*
X207641789Y-95768018D01*
X207824076Y-95477910D01*
X207972736Y-95169215D01*
X208085897Y-94845817D01*
X208162139Y-94511783D01*
X208168464Y-94455652D01*
X208200499Y-94171318D01*
X208200500Y-94171314D01*
X208200500Y-93828685D01*
X208200499Y-93828681D01*
X208162141Y-93488231D01*
X208162140Y-93488226D01*
X208162139Y-93488217D01*
X208085897Y-93154183D01*
X207972736Y-92830785D01*
X207824076Y-92522090D01*
X207641789Y-92231982D01*
X207428166Y-91964107D01*
X207185893Y-91721834D01*
X207124718Y-91673049D01*
X207117861Y-91667581D01*
X206918018Y-91508211D01*
X206627910Y-91325924D01*
X206627907Y-91325922D01*
X206319216Y-91177264D01*
X205995818Y-91064103D01*
X205995816Y-91064102D01*
X205738024Y-91005262D01*
X205661783Y-90987861D01*
X205661780Y-90987860D01*
X205661768Y-90987858D01*
X205321318Y-90949500D01*
X205321312Y-90949500D01*
X204978688Y-90949500D01*
X204978681Y-90949500D01*
X204638231Y-90987858D01*
X204638217Y-90987861D01*
X204304183Y-91064102D01*
X204304181Y-91064103D01*
X203980783Y-91177264D01*
X203672092Y-91325922D01*
X203381983Y-91508210D01*
X203114107Y-91721833D01*
X202871833Y-91964107D01*
X202658210Y-92231983D01*
X202475922Y-92522092D01*
X202327264Y-92830783D01*
X202214103Y-93154181D01*
X202214102Y-93154183D01*
X202137861Y-93488217D01*
X202137858Y-93488231D01*
X202099500Y-93828681D01*
X183981177Y-93828681D01*
X183936377Y-93574612D01*
X183936375Y-93574599D01*
X183742738Y-92701160D01*
X183511187Y-91837000D01*
X183242162Y-90983762D01*
X183068868Y-90507639D01*
X183023003Y-90381624D01*
X183008569Y-90341966D01*
X209149500Y-90341966D01*
X209149500Y-91358028D01*
X209149501Y-91358034D01*
X209160113Y-91477415D01*
X209216089Y-91673045D01*
X209216090Y-91673048D01*
X209216091Y-91673049D01*
X209310302Y-91853407D01*
X209310304Y-91853409D01*
X209438890Y-92011109D01*
X209532803Y-92087684D01*
X209596593Y-92139698D01*
X209776951Y-92233909D01*
X209972582Y-92289886D01*
X210091963Y-92300500D01*
X212208036Y-92300499D01*
X212327418Y-92289886D01*
X212523049Y-92233909D01*
X212703407Y-92139698D01*
X212861109Y-92011109D01*
X212989698Y-91853407D01*
X213083909Y-91673049D01*
X213139886Y-91477418D01*
X213150500Y-91358037D01*
X213150499Y-90341964D01*
X213139886Y-90222582D01*
X213083909Y-90026951D01*
X212989698Y-89846593D01*
X212937684Y-89782803D01*
X212861109Y-89688890D01*
X212703409Y-89560304D01*
X212703410Y-89560304D01*
X212703407Y-89560302D01*
X212523049Y-89466091D01*
X212523048Y-89466090D01*
X212523045Y-89466089D01*
X212405829Y-89432550D01*
X212327418Y-89410114D01*
X212327415Y-89410113D01*
X212327413Y-89410113D01*
X212261102Y-89404217D01*
X212208037Y-89399500D01*
X212208032Y-89399500D01*
X210091971Y-89399500D01*
X210091965Y-89399500D01*
X210091964Y-89399501D01*
X210080316Y-89400536D01*
X209972584Y-89410113D01*
X209776954Y-89466089D01*
X209686772Y-89513196D01*
X209596593Y-89560302D01*
X209596591Y-89560303D01*
X209596590Y-89560304D01*
X209438890Y-89688890D01*
X209310304Y-89846590D01*
X209216089Y-90026954D01*
X209160114Y-90222583D01*
X209160113Y-90222586D01*
X209149500Y-90341966D01*
X183008569Y-90341966D01*
X182936177Y-90143072D01*
X182593809Y-89316524D01*
X182215714Y-88505697D01*
X181802616Y-87712144D01*
X181621079Y-87397714D01*
X181355293Y-86937357D01*
X180874600Y-86182821D01*
X180777927Y-86044758D01*
X180361453Y-85449971D01*
X179816827Y-84740199D01*
X179440290Y-84291461D01*
X179241761Y-84054864D01*
X178637348Y-83395262D01*
X178004738Y-82762652D01*
X177345136Y-82158239D01*
X177023684Y-81888508D01*
X176659800Y-81583172D01*
X175950028Y-81038546D01*
X175783686Y-80922072D01*
X175640120Y-80821546D01*
X206717153Y-80821546D01*
X206725743Y-81024840D01*
X206725743Y-81024844D01*
X206740741Y-81084851D01*
X206773021Y-81214010D01*
X206775084Y-81222262D01*
X206775086Y-81222266D01*
X206825577Y-81330942D01*
X206825584Y-81330956D01*
X207333610Y-82210881D01*
X207333615Y-82210889D01*
X207333618Y-82210894D01*
X207358795Y-82246743D01*
X207402500Y-82308976D01*
X207548789Y-82450405D01*
X207548790Y-82450406D01*
X207548792Y-82450407D01*
X207548793Y-82450408D01*
X207720561Y-82559497D01*
X207910774Y-82631776D01*
X208111642Y-82664287D01*
X208314942Y-82655697D01*
X208512352Y-82606359D01*
X208512357Y-82606356D01*
X208512359Y-82606356D01*
X208512363Y-82606354D01*
X208545489Y-82590963D01*
X208621046Y-82555860D01*
X210453619Y-81497823D01*
X210551700Y-81428941D01*
X210693133Y-81282648D01*
X210802222Y-81110880D01*
X210874501Y-80920667D01*
X210907012Y-80719799D01*
X210898422Y-80516499D01*
X210849084Y-80319089D01*
X210849081Y-80319083D01*
X210849081Y-80319081D01*
X210849079Y-80319077D01*
X210798588Y-80210401D01*
X210798581Y-80210387D01*
X210290555Y-79330462D01*
X210290554Y-79330460D01*
X210290548Y-79330450D01*
X210221666Y-79232369D01*
X210221665Y-79232367D01*
X210075376Y-79090938D01*
X210075375Y-79090937D01*
X209903607Y-78981848D01*
X209903605Y-78981847D01*
X209780291Y-78934989D01*
X209713392Y-78909568D01*
X209713388Y-78909567D01*
X209713387Y-78909567D01*
X209512520Y-78877056D01*
X209309228Y-78885646D01*
X209309224Y-78885646D01*
X209111806Y-78934987D01*
X209111802Y-78934989D01*
X209003126Y-78985480D01*
X209003112Y-78985487D01*
X207170559Y-80043513D01*
X207170548Y-80043520D01*
X207072464Y-80112403D01*
X206931035Y-80258692D01*
X206931034Y-80258693D01*
X206821945Y-80430461D01*
X206821944Y-80430463D01*
X206749666Y-80620674D01*
X206749664Y-80620681D01*
X206717153Y-80821546D01*
X175640120Y-80821546D01*
X175217187Y-80525405D01*
X175129418Y-80469490D01*
X174462643Y-80044707D01*
X174316714Y-79960455D01*
X173687855Y-79597383D01*
X172894302Y-79184285D01*
X172083475Y-78806190D01*
X171256927Y-78463822D01*
X170416244Y-78157840D01*
X169562995Y-77888811D01*
X168698847Y-77657264D01*
X168698849Y-77657264D01*
X168698840Y-77657262D01*
X167825401Y-77463625D01*
X167825398Y-77463624D01*
X167825387Y-77463622D01*
X166944348Y-77308271D01*
X166057357Y-77191497D01*
X165166120Y-77113524D01*
X164272323Y-77074500D01*
X163377677Y-77074500D01*
X162483879Y-77113524D01*
X161592642Y-77191497D01*
X160705651Y-77308271D01*
X159824612Y-77463622D01*
X159744489Y-77481385D01*
X158951160Y-77657262D01*
X158951155Y-77657263D01*
X158951152Y-77657264D01*
X158087004Y-77888811D01*
X157233755Y-78157840D01*
X156393072Y-78463822D01*
X155566524Y-78806190D01*
X154755697Y-79184285D01*
X153962144Y-79597383D01*
X153187365Y-80044702D01*
X152432812Y-80525405D01*
X151699971Y-81038546D01*
X150990199Y-81583172D01*
X150304860Y-82158242D01*
X149645262Y-82762651D01*
X149012651Y-83395262D01*
X148408242Y-84054860D01*
X147833172Y-84740199D01*
X147288546Y-85449971D01*
X146775405Y-86182812D01*
X146294702Y-86937365D01*
X145847383Y-87712144D01*
X145434285Y-88505697D01*
X145056190Y-89316524D01*
X144713822Y-90143072D01*
X144407840Y-90983755D01*
X144138811Y-91837004D01*
X143907264Y-92701152D01*
X143713622Y-93574612D01*
X143558271Y-94455651D01*
X143441497Y-95342642D01*
X143363524Y-96233879D01*
X143324500Y-97127677D01*
X106825500Y-97127677D01*
X106825500Y-90341966D01*
X114449500Y-90341966D01*
X114449500Y-91358028D01*
X114449501Y-91358034D01*
X114460113Y-91477415D01*
X114516089Y-91673045D01*
X114516090Y-91673048D01*
X114516091Y-91673049D01*
X114610302Y-91853407D01*
X114610304Y-91853409D01*
X114738890Y-92011109D01*
X114832803Y-92087684D01*
X114896593Y-92139698D01*
X115076951Y-92233909D01*
X115272582Y-92289886D01*
X115391963Y-92300500D01*
X117508036Y-92300499D01*
X117627418Y-92289886D01*
X117823049Y-92233909D01*
X118003407Y-92139698D01*
X118161109Y-92011109D01*
X118289698Y-91853407D01*
X118383909Y-91673049D01*
X118439886Y-91477418D01*
X118450500Y-91358037D01*
X118450499Y-90341964D01*
X118439886Y-90222582D01*
X118383909Y-90026951D01*
X118289698Y-89846593D01*
X118237684Y-89782803D01*
X118161109Y-89688890D01*
X118003409Y-89560304D01*
X118003410Y-89560304D01*
X118003407Y-89560302D01*
X117823049Y-89466091D01*
X117823048Y-89466090D01*
X117823045Y-89466089D01*
X117705829Y-89432550D01*
X117627418Y-89410114D01*
X117627415Y-89410113D01*
X117627413Y-89410113D01*
X117561102Y-89404217D01*
X117508037Y-89399500D01*
X117508032Y-89399500D01*
X115391971Y-89399500D01*
X115391965Y-89399500D01*
X115391964Y-89399501D01*
X115380316Y-89400536D01*
X115272584Y-89410113D01*
X115076954Y-89466089D01*
X114986772Y-89513196D01*
X114896593Y-89560302D01*
X114896591Y-89560303D01*
X114896590Y-89560304D01*
X114738890Y-89688890D01*
X114610304Y-89846590D01*
X114516089Y-90026954D01*
X114460114Y-90222583D01*
X114460113Y-90222586D01*
X114449500Y-90341966D01*
X106825500Y-90341966D01*
X106825500Y-84849228D01*
X106825552Y-84845622D01*
X106829263Y-84718086D01*
X106841466Y-84298649D01*
X106841886Y-84291461D01*
X106859233Y-84093191D01*
X106889416Y-83748186D01*
X106890253Y-83741024D01*
X106940899Y-83395262D01*
X106969300Y-83201368D01*
X106970540Y-83194339D01*
X107080831Y-82660191D01*
X107082483Y-82653219D01*
X107223647Y-82126386D01*
X107225702Y-82119521D01*
X107397259Y-81601791D01*
X107399718Y-81595037D01*
X107601083Y-81088168D01*
X107603905Y-81081624D01*
X107772627Y-80719797D01*
X116692987Y-80719797D01*
X116722906Y-80904646D01*
X116725499Y-80920667D01*
X116743837Y-80968925D01*
X116797778Y-81110880D01*
X116797779Y-81110882D01*
X116906868Y-81282650D01*
X116906869Y-81282651D01*
X117048298Y-81428940D01*
X117146381Y-81497824D01*
X117146392Y-81497830D01*
X118978957Y-82555861D01*
X119059445Y-82593255D01*
X119087648Y-82606359D01*
X119285058Y-82655697D01*
X119386708Y-82659992D01*
X119488356Y-82664287D01*
X119488356Y-82664286D01*
X119488358Y-82664287D01*
X119689226Y-82631776D01*
X119879439Y-82559497D01*
X120051207Y-82450408D01*
X120197500Y-82308975D01*
X120266382Y-82210895D01*
X120474899Y-81849733D01*
X120774420Y-81330946D01*
X120774420Y-81330945D01*
X120783153Y-81312147D01*
X120824918Y-81222255D01*
X120874256Y-81024845D01*
X120876619Y-80968922D01*
X120880741Y-80871373D01*
X122508569Y-80871373D01*
X122508569Y-81214010D01*
X122546927Y-81554460D01*
X122546930Y-81554474D01*
X122623171Y-81888508D01*
X122623172Y-81888510D01*
X122736333Y-82211908D01*
X122884991Y-82520599D01*
X122907146Y-82555859D01*
X123067280Y-82810710D01*
X123280903Y-83078585D01*
X123523176Y-83320858D01*
X123791051Y-83534481D01*
X124081159Y-83716768D01*
X124081161Y-83716769D01*
X124235506Y-83791098D01*
X124389854Y-83865428D01*
X124713252Y-83978589D01*
X125047286Y-84054831D01*
X125047295Y-84054832D01*
X125047300Y-84054833D01*
X125274266Y-84080405D01*
X125387751Y-84093191D01*
X125387754Y-84093192D01*
X125387757Y-84093192D01*
X125730384Y-84093192D01*
X125730385Y-84093191D01*
X125904380Y-84073587D01*
X126070837Y-84054833D01*
X126070840Y-84054832D01*
X126070852Y-84054831D01*
X126404886Y-83978589D01*
X126728284Y-83865428D01*
X127036979Y-83716768D01*
X127327087Y-83534481D01*
X127594962Y-83320858D01*
X127837235Y-83078585D01*
X128050858Y-82810710D01*
X128233145Y-82520602D01*
X128381805Y-82211907D01*
X128494966Y-81888509D01*
X128571208Y-81554475D01*
X128572486Y-81543139D01*
X128596393Y-81330945D01*
X128609569Y-81214004D01*
X128609569Y-80871380D01*
X128576837Y-80580867D01*
X128571210Y-80530923D01*
X128571209Y-80530918D01*
X128571208Y-80530909D01*
X128494966Y-80196875D01*
X128381805Y-79873477D01*
X128233145Y-79564782D01*
X128050858Y-79274674D01*
X127837235Y-79006799D01*
X127594962Y-78764526D01*
X127327087Y-78550903D01*
X127036979Y-78368616D01*
X127036976Y-78368614D01*
X126728285Y-78219956D01*
X126404887Y-78106795D01*
X126404885Y-78106794D01*
X126147093Y-78047954D01*
X126070852Y-78030553D01*
X126070849Y-78030552D01*
X126070837Y-78030550D01*
X125730387Y-77992192D01*
X125730381Y-77992192D01*
X125387757Y-77992192D01*
X125387750Y-77992192D01*
X125047300Y-78030550D01*
X125047286Y-78030553D01*
X124713252Y-78106794D01*
X124713250Y-78106795D01*
X124389852Y-78219956D01*
X124081161Y-78368614D01*
X123791052Y-78550902D01*
X123523176Y-78764525D01*
X123280902Y-79006799D01*
X123067279Y-79274675D01*
X122884991Y-79564784D01*
X122736333Y-79873475D01*
X122623172Y-80196873D01*
X122623171Y-80196875D01*
X122546930Y-80530909D01*
X122546927Y-80530923D01*
X122508569Y-80871373D01*
X120880741Y-80871373D01*
X120881109Y-80862666D01*
X120882846Y-80821546D01*
X120866378Y-80719799D01*
X120850335Y-80620677D01*
X120778056Y-80430464D01*
X120668967Y-80258696D01*
X120668966Y-80258695D01*
X120668965Y-80258693D01*
X120668964Y-80258692D01*
X120527535Y-80112403D01*
X120429452Y-80043519D01*
X120429441Y-80043513D01*
X118596876Y-78985482D01*
X118488191Y-78934987D01*
X118488189Y-78934986D01*
X118488186Y-78934985D01*
X118340141Y-78897984D01*
X118290773Y-78885646D01*
X118087477Y-78877056D01*
X117886612Y-78909567D01*
X117886609Y-78909567D01*
X117886608Y-78909568D01*
X117886606Y-78909568D01*
X117886605Y-78909569D01*
X117696394Y-78981847D01*
X117696392Y-78981848D01*
X117524624Y-79090937D01*
X117524623Y-79090938D01*
X117378334Y-79232367D01*
X117309450Y-79330450D01*
X117309444Y-79330460D01*
X116801413Y-80210397D01*
X116801413Y-80210398D01*
X116750918Y-80319083D01*
X116750917Y-80319086D01*
X116750916Y-80319089D01*
X116734461Y-80384926D01*
X116701577Y-80516499D01*
X116701577Y-80516503D01*
X116692987Y-80719797D01*
X107772627Y-80719797D01*
X107834421Y-80587279D01*
X107837629Y-80580893D01*
X108097217Y-80099454D01*
X108098966Y-80096322D01*
X108099104Y-80096084D01*
X108104678Y-80086430D01*
X108129457Y-80043513D01*
X111449573Y-74292903D01*
X114489004Y-69028454D01*
X123442987Y-69028454D01*
X123475498Y-69229319D01*
X123475500Y-69229326D01*
X123547778Y-69419537D01*
X123547779Y-69419539D01*
X123656868Y-69591307D01*
X123656869Y-69591308D01*
X123798298Y-69737597D01*
X123896381Y-69806481D01*
X123896392Y-69806487D01*
X125728957Y-70864518D01*
X125793757Y-70894624D01*
X125837648Y-70915016D01*
X126035058Y-70964354D01*
X126136708Y-70968649D01*
X126238356Y-70972944D01*
X126238356Y-70972943D01*
X126238358Y-70972944D01*
X126439226Y-70940433D01*
X126629439Y-70868154D01*
X126801207Y-70759065D01*
X126947500Y-70617632D01*
X127016382Y-70519552D01*
X127050513Y-70460436D01*
X127524420Y-69639603D01*
X127524420Y-69639602D01*
X127533153Y-69620804D01*
X127574918Y-69530912D01*
X127624256Y-69333502D01*
X127630521Y-69185247D01*
X131783933Y-69185247D01*
X131783933Y-69427824D01*
X131815594Y-69668321D01*
X131878380Y-69902640D01*
X131971206Y-70126741D01*
X131971209Y-70126748D01*
X132092497Y-70336825D01*
X132092499Y-70336828D01*
X132092500Y-70336829D01*
X132240166Y-70529272D01*
X132240172Y-70529279D01*
X132411689Y-70700796D01*
X132411695Y-70700801D01*
X132604144Y-70848472D01*
X132814221Y-70969760D01*
X133038333Y-71062590D01*
X133272644Y-71125374D01*
X133477875Y-71152392D01*
X133541770Y-71180658D01*
X133580242Y-71238982D01*
X133584628Y-71259146D01*
X133611646Y-71464372D01*
X133674432Y-71698691D01*
X133714394Y-71795167D01*
X133767261Y-71922799D01*
X133888549Y-72132876D01*
X133888551Y-72132879D01*
X133888552Y-72132880D01*
X134036218Y-72325323D01*
X134036224Y-72325330D01*
X134207741Y-72496847D01*
X134207748Y-72496853D01*
X134320806Y-72583605D01*
X134400196Y-72644523D01*
X134610273Y-72765811D01*
X134834385Y-72858641D01*
X135068696Y-72921425D01*
X135273926Y-72948443D01*
X135337821Y-72976709D01*
X135376293Y-73035033D01*
X135380679Y-73055197D01*
X135406216Y-73249175D01*
X135407698Y-73260427D01*
X135420805Y-73309344D01*
X135470483Y-73494742D01*
X135480535Y-73519009D01*
X135563312Y-73718850D01*
X135684600Y-73928927D01*
X135684602Y-73928930D01*
X135684603Y-73928931D01*
X135832269Y-74121374D01*
X135832275Y-74121381D01*
X136003792Y-74292898D01*
X136003799Y-74292904D01*
X136116857Y-74379656D01*
X136196247Y-74440574D01*
X136406324Y-74561862D01*
X136630436Y-74654692D01*
X136864747Y-74717476D01*
X137045122Y-74741222D01*
X137105247Y-74749138D01*
X137105248Y-74749138D01*
X137347825Y-74749138D01*
X137395924Y-74742805D01*
X137588325Y-74717476D01*
X137822636Y-74654692D01*
X138046748Y-74561862D01*
X138256825Y-74440574D01*
X138449274Y-74292903D01*
X138620801Y-74121376D01*
X138768472Y-73928927D01*
X138889760Y-73718850D01*
X138982590Y-73494738D01*
X139010129Y-73391960D01*
X139046493Y-73332301D01*
X139109340Y-73301772D01*
X139117353Y-73300691D01*
X139186887Y-73293621D01*
X139225026Y-73289743D01*
X139354335Y-73249171D01*
X139419175Y-73228827D01*
X139597089Y-73130077D01*
X139689009Y-73053167D01*
X140973166Y-71769009D01*
X141050077Y-71677089D01*
X141148827Y-71499175D01*
X141198418Y-71341120D01*
X141209743Y-71305026D01*
X141217995Y-71223875D01*
X141230329Y-71102587D01*
X141217146Y-70972944D01*
X141211660Y-70918994D01*
X141210631Y-70908879D01*
X154899500Y-70908879D01*
X154899500Y-71341120D01*
X154933412Y-71772013D01*
X154933412Y-71772014D01*
X154990624Y-72133233D01*
X155001028Y-72198922D01*
X155101930Y-72619210D01*
X155110155Y-72644523D01*
X155235494Y-73030280D01*
X155330823Y-73260423D01*
X155400904Y-73429615D01*
X155597133Y-73814735D01*
X155597136Y-73814740D01*
X155597142Y-73814751D01*
X155822966Y-74183262D01*
X155822974Y-74183273D01*
X156077025Y-74532946D01*
X156077035Y-74532960D01*
X156234628Y-74717476D01*
X156357743Y-74861624D01*
X156663376Y-75167257D01*
X156663382Y-75167262D01*
X156992039Y-75447964D01*
X156992046Y-75447969D01*
X157341728Y-75702027D01*
X157341732Y-75702029D01*
X157341737Y-75702033D01*
X157710248Y-75927857D01*
X157710254Y-75927860D01*
X157710265Y-75927867D01*
X158095385Y-76124096D01*
X158494714Y-76289503D01*
X158494719Y-76289505D01*
X158599240Y-76323465D01*
X158905790Y-76423070D01*
X159326078Y-76523972D01*
X159752987Y-76591588D01*
X160183885Y-76625500D01*
X160183893Y-76625500D01*
X160616107Y-76625500D01*
X160616115Y-76625500D01*
X161047013Y-76591588D01*
X161473922Y-76523972D01*
X161894210Y-76423070D01*
X162305286Y-76289503D01*
X162704615Y-76124096D01*
X163089735Y-75927867D01*
X163458272Y-75702027D01*
X163807954Y-75447969D01*
X164136624Y-75167257D01*
X164442257Y-74861624D01*
X164722969Y-74532954D01*
X164977027Y-74183272D01*
X165202867Y-73814735D01*
X165399096Y-73429615D01*
X165564503Y-73030286D01*
X165698070Y-72619210D01*
X165798972Y-72198922D01*
X165866588Y-71772013D01*
X165900500Y-71341115D01*
X165900500Y-71266128D01*
X165920185Y-71199089D01*
X165972989Y-71153334D01*
X166042147Y-71143390D01*
X166105703Y-71172415D01*
X166112181Y-71178447D01*
X166179029Y-71245295D01*
X166179033Y-71245298D01*
X166179035Y-71245300D01*
X166402683Y-71416912D01*
X166405130Y-71418325D01*
X166646809Y-71557859D01*
X166646814Y-71557861D01*
X166646817Y-71557863D01*
X166907261Y-71665742D01*
X167179558Y-71738704D01*
X167459049Y-71775500D01*
X167459056Y-71775500D01*
X167740944Y-71775500D01*
X167740951Y-71775500D01*
X168020442Y-71738704D01*
X168292739Y-71665742D01*
X168553183Y-71557863D01*
X168797317Y-71416912D01*
X169020965Y-71245300D01*
X169220300Y-71045965D01*
X169301624Y-70939981D01*
X169358052Y-70898779D01*
X169427798Y-70894624D01*
X169488718Y-70928836D01*
X169498376Y-70939982D01*
X169579698Y-71045963D01*
X169579704Y-71045970D01*
X169779029Y-71245295D01*
X169779033Y-71245298D01*
X169779035Y-71245300D01*
X170002683Y-71416912D01*
X170005130Y-71418325D01*
X170246809Y-71557859D01*
X170246814Y-71557861D01*
X170246817Y-71557863D01*
X170507261Y-71665742D01*
X170779558Y-71738704D01*
X171059049Y-71775500D01*
X171059056Y-71775500D01*
X171340944Y-71775500D01*
X171340951Y-71775500D01*
X171620442Y-71738704D01*
X171892739Y-71665742D01*
X172153183Y-71557863D01*
X172397317Y-71416912D01*
X172620965Y-71245300D01*
X172820300Y-71045965D01*
X172905257Y-70935247D01*
X186626036Y-70935247D01*
X186626036Y-71177824D01*
X186657697Y-71418321D01*
X186720483Y-71652640D01*
X186779520Y-71795167D01*
X186813312Y-71876748D01*
X186934600Y-72086825D01*
X186934602Y-72086828D01*
X186934603Y-72086829D01*
X187082269Y-72279272D01*
X187082275Y-72279279D01*
X187253792Y-72450796D01*
X187253798Y-72450801D01*
X187446247Y-72598472D01*
X187656324Y-72719760D01*
X187767506Y-72765813D01*
X187880433Y-72812589D01*
X187880434Y-72812589D01*
X187880436Y-72812590D01*
X187983212Y-72840128D01*
X188042872Y-72876493D01*
X188073401Y-72939340D01*
X188074482Y-72947358D01*
X188085430Y-73055026D01*
X188146345Y-73249171D01*
X188146346Y-73249173D01*
X188245092Y-73427081D01*
X188245094Y-73427084D01*
X188245097Y-73427089D01*
X188301703Y-73494742D01*
X188322009Y-73519011D01*
X189606168Y-74803169D01*
X189676023Y-74861617D01*
X189698085Y-74880077D01*
X189875999Y-74978827D01*
X189876001Y-74978827D01*
X189876002Y-74978828D01*
X190070147Y-75039743D01*
X190104360Y-75043222D01*
X190272587Y-75060329D01*
X190456340Y-75041643D01*
X190475026Y-75039743D01*
X190582121Y-75006140D01*
X190669175Y-74978827D01*
X190847089Y-74880077D01*
X190939009Y-74803167D01*
X191106186Y-74635990D01*
X195390431Y-74635990D01*
X195390431Y-74978627D01*
X195428789Y-75319077D01*
X195428792Y-75319091D01*
X195505033Y-75653125D01*
X195505034Y-75653127D01*
X195618195Y-75976525D01*
X195766853Y-76285216D01*
X195766855Y-76285219D01*
X195949142Y-76575327D01*
X196162765Y-76843202D01*
X196405038Y-77085475D01*
X196672913Y-77299098D01*
X196963021Y-77481385D01*
X197271716Y-77630045D01*
X197595114Y-77743206D01*
X197929148Y-77819448D01*
X197929157Y-77819449D01*
X197929162Y-77819450D01*
X198156128Y-77845022D01*
X198269613Y-77857808D01*
X198269616Y-77857809D01*
X198269619Y-77857809D01*
X198612246Y-77857809D01*
X198612247Y-77857808D01*
X198786242Y-77838204D01*
X198952699Y-77819450D01*
X198952702Y-77819449D01*
X198952714Y-77819448D01*
X199286748Y-77743206D01*
X199610146Y-77630045D01*
X199918841Y-77481385D01*
X200208949Y-77299098D01*
X200476824Y-77085475D01*
X200719097Y-76843202D01*
X200932720Y-76575327D01*
X201115007Y-76285219D01*
X201263667Y-75976524D01*
X201376828Y-75653126D01*
X201453070Y-75319092D01*
X201491431Y-74978621D01*
X201491431Y-74635997D01*
X201453070Y-74295526D01*
X201376828Y-73961492D01*
X201263667Y-73638094D01*
X201115007Y-73329399D01*
X200932720Y-73039291D01*
X200719097Y-72771416D01*
X200476824Y-72529143D01*
X200208949Y-72315520D01*
X199918841Y-72133233D01*
X199918838Y-72133231D01*
X199610147Y-71984573D01*
X199286749Y-71871412D01*
X199286747Y-71871411D01*
X199028955Y-71812571D01*
X198952714Y-71795170D01*
X198952711Y-71795169D01*
X198952699Y-71795167D01*
X198612249Y-71756809D01*
X198612243Y-71756809D01*
X198269619Y-71756809D01*
X198269612Y-71756809D01*
X197929162Y-71795167D01*
X197929148Y-71795170D01*
X197595114Y-71871411D01*
X197595112Y-71871412D01*
X197271714Y-71984573D01*
X196963023Y-72133231D01*
X196672914Y-72315519D01*
X196405038Y-72529142D01*
X196162764Y-72771416D01*
X195949141Y-73039292D01*
X195766853Y-73329401D01*
X195618195Y-73638092D01*
X195505034Y-73961490D01*
X195505033Y-73961492D01*
X195428792Y-74295526D01*
X195428789Y-74295540D01*
X195390431Y-74635990D01*
X191106186Y-74635990D01*
X192223166Y-73519009D01*
X192300077Y-73427089D01*
X192398827Y-73249175D01*
X192459743Y-73055025D01*
X192470691Y-72947358D01*
X192497056Y-72882655D01*
X192554218Y-72842476D01*
X192561943Y-72840133D01*
X192664738Y-72812590D01*
X192888850Y-72719760D01*
X193098927Y-72598472D01*
X193291376Y-72450801D01*
X193462903Y-72279274D01*
X193610574Y-72086825D01*
X193731862Y-71876748D01*
X193824692Y-71652636D01*
X193887476Y-71418325D01*
X193919138Y-71177824D01*
X193919138Y-70935248D01*
X193916474Y-70915016D01*
X193907713Y-70848468D01*
X193887476Y-70694747D01*
X193824692Y-70460436D01*
X193731862Y-70236324D01*
X193610574Y-70026247D01*
X193462903Y-69833798D01*
X193462898Y-69833792D01*
X193291381Y-69662275D01*
X193291374Y-69662269D01*
X193098931Y-69514603D01*
X193098930Y-69514602D01*
X193098927Y-69514600D01*
X192888850Y-69393312D01*
X192888843Y-69393309D01*
X192664742Y-69300483D01*
X192644592Y-69295083D01*
X192430427Y-69237698D01*
X192430426Y-69237697D01*
X192430423Y-69237697D01*
X192225197Y-69210679D01*
X192161300Y-69182413D01*
X192126862Y-69130203D01*
X199967153Y-69130203D01*
X199975743Y-69333497D01*
X199975743Y-69333501D01*
X200025084Y-69530919D01*
X200025086Y-69530923D01*
X200075577Y-69639599D01*
X200075584Y-69639613D01*
X200583610Y-70519538D01*
X200583615Y-70519546D01*
X200583618Y-70519551D01*
X200590450Y-70529279D01*
X200652500Y-70617633D01*
X200798789Y-70759062D01*
X200798790Y-70759063D01*
X200798792Y-70759064D01*
X200798793Y-70759065D01*
X200970561Y-70868154D01*
X201160774Y-70940433D01*
X201361642Y-70972944D01*
X201564942Y-70964354D01*
X201762352Y-70915016D01*
X201762357Y-70915013D01*
X201762359Y-70915013D01*
X201762363Y-70915011D01*
X201795489Y-70899620D01*
X201871046Y-70864517D01*
X203703619Y-69806480D01*
X203801700Y-69737598D01*
X203943133Y-69591305D01*
X204052222Y-69419537D01*
X204124501Y-69229324D01*
X204157012Y-69028456D01*
X204148422Y-68825156D01*
X204099084Y-68627746D01*
X204099081Y-68627740D01*
X204099081Y-68627738D01*
X204099079Y-68627734D01*
X204048588Y-68519058D01*
X204048581Y-68519044D01*
X203540555Y-67639119D01*
X203540554Y-67639117D01*
X203540548Y-67639107D01*
X203478307Y-67550482D01*
X203471665Y-67541024D01*
X203325376Y-67399595D01*
X203325375Y-67399594D01*
X203153607Y-67290505D01*
X203153605Y-67290504D01*
X203034644Y-67245300D01*
X202963392Y-67218225D01*
X202963388Y-67218224D01*
X202963387Y-67218224D01*
X202762520Y-67185713D01*
X202559228Y-67194303D01*
X202559224Y-67194303D01*
X202361806Y-67243644D01*
X202361802Y-67243646D01*
X202253126Y-67294137D01*
X202253112Y-67294144D01*
X200420559Y-68352170D01*
X200420548Y-68352177D01*
X200322464Y-68421060D01*
X200181035Y-68567349D01*
X200181034Y-68567350D01*
X200071945Y-68739118D01*
X200071944Y-68739120D01*
X199999666Y-68929331D01*
X199999664Y-68929338D01*
X199967153Y-69130203D01*
X192126862Y-69130203D01*
X192122829Y-69124088D01*
X192118443Y-69103925D01*
X192114648Y-69075102D01*
X192091425Y-68898696D01*
X192028641Y-68664385D01*
X191935811Y-68440273D01*
X191814523Y-68230196D01*
X191702188Y-68083798D01*
X191666853Y-68037748D01*
X191666847Y-68037741D01*
X191495330Y-67866224D01*
X191495323Y-67866218D01*
X191302880Y-67718552D01*
X191302879Y-67718551D01*
X191302876Y-67718549D01*
X191092799Y-67597261D01*
X191092792Y-67597258D01*
X190868691Y-67504432D01*
X190634372Y-67441646D01*
X190393876Y-67409985D01*
X190393875Y-67409985D01*
X190151299Y-67409985D01*
X190151298Y-67409985D01*
X189910801Y-67441646D01*
X189676482Y-67504432D01*
X189452381Y-67597258D01*
X189452372Y-67597262D01*
X189288045Y-67692137D01*
X189244914Y-67717039D01*
X189242293Y-67718552D01*
X189049850Y-67866218D01*
X189049843Y-67866224D01*
X188878326Y-68037741D01*
X188878320Y-68037748D01*
X188730654Y-68230191D01*
X188609364Y-68440270D01*
X188609360Y-68440279D01*
X188516534Y-68664380D01*
X188453748Y-68898699D01*
X188426730Y-69103925D01*
X188398464Y-69167822D01*
X188340139Y-69206293D01*
X188319976Y-69210679D01*
X188114750Y-69237697D01*
X187880431Y-69300483D01*
X187656330Y-69393309D01*
X187656321Y-69393313D01*
X187446242Y-69514603D01*
X187253799Y-69662269D01*
X187253792Y-69662275D01*
X187082275Y-69833792D01*
X187082269Y-69833799D01*
X186934603Y-70026242D01*
X186934600Y-70026246D01*
X186934600Y-70026247D01*
X186923518Y-70045442D01*
X186813313Y-70236321D01*
X186813309Y-70236330D01*
X186720483Y-70460431D01*
X186657697Y-70694750D01*
X186626036Y-70935247D01*
X172905257Y-70935247D01*
X172991912Y-70822317D01*
X173132863Y-70578183D01*
X173240742Y-70317739D01*
X173313704Y-70045442D01*
X173350500Y-69765951D01*
X173350500Y-69484049D01*
X173313704Y-69204558D01*
X173240742Y-68932261D01*
X173218314Y-68878116D01*
X173148857Y-68710431D01*
X173132863Y-68671817D01*
X173132861Y-68671814D01*
X173132859Y-68671809D01*
X172991916Y-68427690D01*
X172991912Y-68427683D01*
X172820300Y-68204035D01*
X172820298Y-68204033D01*
X172820295Y-68204029D01*
X172620970Y-68004704D01*
X172620965Y-68004700D01*
X172397317Y-67833088D01*
X172222895Y-67732385D01*
X172174681Y-67681820D01*
X172161458Y-67613213D01*
X172187426Y-67548348D01*
X172222895Y-67517614D01*
X172397317Y-67416912D01*
X172620965Y-67245300D01*
X172820300Y-67045965D01*
X172991912Y-66822317D01*
X173132863Y-66578183D01*
X173240742Y-66317739D01*
X173313704Y-66045442D01*
X173350500Y-65765951D01*
X173350500Y-65484049D01*
X173313704Y-65204558D01*
X173240742Y-64932261D01*
X173132863Y-64671817D01*
X173132861Y-64671814D01*
X173132859Y-64671809D01*
X172991916Y-64427690D01*
X172991912Y-64427683D01*
X172820300Y-64204035D01*
X172820298Y-64204033D01*
X172820295Y-64204029D01*
X172620970Y-64004704D01*
X172620965Y-64004700D01*
X172397317Y-63833088D01*
X172397311Y-63833084D01*
X172397309Y-63833083D01*
X172153190Y-63692140D01*
X172153179Y-63692135D01*
X171892743Y-63584259D01*
X171620439Y-63511295D01*
X171340958Y-63474500D01*
X171340951Y-63474500D01*
X171059049Y-63474500D01*
X171059041Y-63474500D01*
X170779560Y-63511295D01*
X170507256Y-63584259D01*
X170246820Y-63692135D01*
X170246809Y-63692140D01*
X170002690Y-63833083D01*
X170002682Y-63833089D01*
X169779029Y-64004704D01*
X169579704Y-64204029D01*
X169498376Y-64310018D01*
X169441948Y-64351220D01*
X169372202Y-64355375D01*
X169311281Y-64321162D01*
X169301624Y-64310018D01*
X169220295Y-64204029D01*
X169020970Y-64004704D01*
X169020965Y-64004700D01*
X168797317Y-63833088D01*
X168797311Y-63833084D01*
X168797309Y-63833083D01*
X168553190Y-63692140D01*
X168553179Y-63692135D01*
X168292743Y-63584259D01*
X168020439Y-63511295D01*
X167740958Y-63474500D01*
X167740951Y-63474500D01*
X167459049Y-63474500D01*
X167459041Y-63474500D01*
X167179560Y-63511295D01*
X166907256Y-63584259D01*
X166646820Y-63692135D01*
X166646809Y-63692140D01*
X166402690Y-63833083D01*
X166402682Y-63833089D01*
X166179029Y-64004704D01*
X165979704Y-64204029D01*
X165808089Y-64427682D01*
X165808083Y-64427690D01*
X165667140Y-64671809D01*
X165667135Y-64671820D01*
X165559259Y-64932256D01*
X165486295Y-65204560D01*
X165449500Y-65484041D01*
X165449500Y-65765958D01*
X165486295Y-66045439D01*
X165559259Y-66317743D01*
X165667135Y-66578179D01*
X165667140Y-66578190D01*
X165808083Y-66822309D01*
X165808088Y-66822317D01*
X165979700Y-67045965D01*
X165979704Y-67045970D01*
X166179029Y-67245295D01*
X166179033Y-67245298D01*
X166179035Y-67245300D01*
X166402683Y-67416912D01*
X166402690Y-67416916D01*
X166577101Y-67517613D01*
X166625317Y-67568180D01*
X166638539Y-67636787D01*
X166612571Y-67701652D01*
X166577101Y-67732387D01*
X166402690Y-67833083D01*
X166402682Y-67833089D01*
X166179029Y-68004704D01*
X165979704Y-68204029D01*
X165808089Y-68427682D01*
X165808083Y-68427690D01*
X165667140Y-68671809D01*
X165667135Y-68671821D01*
X165615933Y-68795433D01*
X165572092Y-68849836D01*
X165505798Y-68871901D01*
X165438098Y-68854622D01*
X165390888Y-68804276D01*
X165202867Y-68435265D01*
X165198221Y-68427683D01*
X164977033Y-68066737D01*
X164977029Y-68066732D01*
X164977027Y-68066728D01*
X164722969Y-67717046D01*
X164722964Y-67717039D01*
X164442262Y-67388382D01*
X164442257Y-67388376D01*
X164136624Y-67082743D01*
X164093563Y-67045965D01*
X163807960Y-66802035D01*
X163807946Y-66802025D01*
X163499862Y-66578190D01*
X163458272Y-66547973D01*
X163458269Y-66547971D01*
X163458262Y-66547966D01*
X163089751Y-66322142D01*
X163089740Y-66322136D01*
X163089739Y-66322135D01*
X163089735Y-66322133D01*
X162704615Y-66125904D01*
X162510355Y-66045439D01*
X162305280Y-65960494D01*
X162012796Y-65865461D01*
X161894210Y-65826930D01*
X161473922Y-65726028D01*
X161047013Y-65658412D01*
X160616120Y-65624500D01*
X160616115Y-65624500D01*
X160183885Y-65624500D01*
X160183879Y-65624500D01*
X159752986Y-65658412D01*
X159752985Y-65658412D01*
X159326083Y-65726027D01*
X159326080Y-65726027D01*
X159326078Y-65726028D01*
X159175562Y-65762163D01*
X158905801Y-65826927D01*
X158905795Y-65826928D01*
X158905790Y-65826930D01*
X158905778Y-65826934D01*
X158494719Y-65960494D01*
X158095387Y-66125903D01*
X157710259Y-66322136D01*
X157710248Y-66322142D01*
X157341737Y-66547966D01*
X157341726Y-66547974D01*
X156992053Y-66802025D01*
X156992039Y-66802035D01*
X156663382Y-67082737D01*
X156663368Y-67082750D01*
X156357750Y-67388368D01*
X156357737Y-67388382D01*
X156077035Y-67717039D01*
X156077025Y-67717053D01*
X155822974Y-68066726D01*
X155822966Y-68066737D01*
X155597142Y-68435248D01*
X155597136Y-68435259D01*
X155400903Y-68820387D01*
X155235494Y-69219719D01*
X155101934Y-69630778D01*
X155101927Y-69630801D01*
X155076288Y-69737597D01*
X155006990Y-70026247D01*
X155001027Y-70051083D01*
X154933412Y-70477985D01*
X154933412Y-70477986D01*
X154899500Y-70908879D01*
X141210631Y-70908879D01*
X141209743Y-70900149D01*
X141148827Y-70705999D01*
X141050077Y-70528085D01*
X140973167Y-70436165D01*
X139689009Y-69152008D01*
X139689005Y-69152004D01*
X139597095Y-69075102D01*
X139597094Y-69075101D01*
X139597089Y-69075097D01*
X139597084Y-69075094D01*
X139597081Y-69075092D01*
X139419173Y-68976346D01*
X139419171Y-68976345D01*
X139225026Y-68915430D01*
X139117358Y-68904482D01*
X139052654Y-68878116D01*
X139012476Y-68820954D01*
X139010132Y-68813226D01*
X138982590Y-68710436D01*
X138889760Y-68486324D01*
X138768472Y-68276247D01*
X138620801Y-68083798D01*
X138620796Y-68083792D01*
X138449279Y-67912275D01*
X138449272Y-67912269D01*
X138256829Y-67764603D01*
X138256828Y-67764602D01*
X138256825Y-67764600D01*
X138046748Y-67643312D01*
X138036625Y-67639119D01*
X137822640Y-67550483D01*
X137699968Y-67517613D01*
X137588325Y-67487698D01*
X137588324Y-67487697D01*
X137588321Y-67487697D01*
X137347825Y-67456036D01*
X137347824Y-67456036D01*
X137105248Y-67456036D01*
X137105247Y-67456036D01*
X136864750Y-67487697D01*
X136630431Y-67550483D01*
X136406330Y-67643309D01*
X136406321Y-67643313D01*
X136196242Y-67764603D01*
X136003799Y-67912269D01*
X136003792Y-67912275D01*
X135832275Y-68083792D01*
X135832269Y-68083799D01*
X135684603Y-68276242D01*
X135563313Y-68486321D01*
X135563305Y-68486338D01*
X135545044Y-68530423D01*
X135501203Y-68584826D01*
X135434908Y-68606890D01*
X135367209Y-68589610D01*
X135319599Y-68538472D01*
X135315923Y-68530421D01*
X135297662Y-68486335D01*
X135297659Y-68486329D01*
X135297657Y-68486324D01*
X135176369Y-68276247D01*
X135028698Y-68083798D01*
X135028693Y-68083792D01*
X134857176Y-67912275D01*
X134857169Y-67912269D01*
X134664726Y-67764603D01*
X134664725Y-67764602D01*
X134664722Y-67764600D01*
X134454645Y-67643312D01*
X134444522Y-67639119D01*
X134230537Y-67550483D01*
X134107865Y-67517613D01*
X133996222Y-67487698D01*
X133996221Y-67487697D01*
X133996218Y-67487697D01*
X133755722Y-67456036D01*
X133755721Y-67456036D01*
X133513145Y-67456036D01*
X133513144Y-67456036D01*
X133272647Y-67487697D01*
X133038328Y-67550483D01*
X132814227Y-67643309D01*
X132814218Y-67643313D01*
X132604139Y-67764603D01*
X132411696Y-67912269D01*
X132411689Y-67912275D01*
X132240172Y-68083792D01*
X132240166Y-68083799D01*
X132092500Y-68276242D01*
X131971210Y-68486321D01*
X131971206Y-68486330D01*
X131878380Y-68710431D01*
X131815594Y-68944750D01*
X131783933Y-69185247D01*
X127630521Y-69185247D01*
X127631257Y-69167822D01*
X127632846Y-69130203D01*
X127616378Y-69028456D01*
X127600335Y-68929334D01*
X127528056Y-68739121D01*
X127418967Y-68567353D01*
X127418966Y-68567352D01*
X127418965Y-68567350D01*
X127418964Y-68567349D01*
X127277535Y-68421060D01*
X127179452Y-68352176D01*
X127179441Y-68352170D01*
X125346876Y-67294139D01*
X125238191Y-67243644D01*
X125238189Y-67243643D01*
X125238186Y-67243642D01*
X125090141Y-67206641D01*
X125040773Y-67194303D01*
X124837477Y-67185713D01*
X124636612Y-67218224D01*
X124636609Y-67218224D01*
X124636608Y-67218225D01*
X124636606Y-67218225D01*
X124636605Y-67218226D01*
X124446394Y-67290504D01*
X124446392Y-67290505D01*
X124274624Y-67399594D01*
X124274623Y-67399595D01*
X124128334Y-67541024D01*
X124059450Y-67639107D01*
X124059444Y-67639117D01*
X123551413Y-68519054D01*
X123551413Y-68519055D01*
X123500918Y-68627740D01*
X123500917Y-68627743D01*
X123500916Y-68627746D01*
X123484461Y-68693583D01*
X123451577Y-68825156D01*
X123451577Y-68825160D01*
X123442987Y-69028454D01*
X114489004Y-69028454D01*
X120234491Y-59076979D01*
X132945742Y-59076979D01*
X132945742Y-59299880D01*
X132945743Y-59299896D01*
X132974836Y-59520882D01*
X132974837Y-59520887D01*
X132974838Y-59520893D01*
X133032532Y-59736210D01*
X133032535Y-59736220D01*
X133117835Y-59942152D01*
X133117837Y-59942156D01*
X133229294Y-60135204D01*
X133229299Y-60135210D01*
X133229300Y-60135212D01*
X133364993Y-60312052D01*
X133364999Y-60312059D01*
X133522612Y-60469672D01*
X133522618Y-60469677D01*
X133699468Y-60605378D01*
X133892516Y-60716835D01*
X134098461Y-60802140D01*
X134313779Y-60859834D01*
X134534785Y-60888930D01*
X134534792Y-60888930D01*
X134757692Y-60888930D01*
X134757699Y-60888930D01*
X134978705Y-60859834D01*
X135194023Y-60802140D01*
X135399968Y-60716835D01*
X135593016Y-60605378D01*
X135769866Y-60469677D01*
X135927489Y-60312054D01*
X136063190Y-60135204D01*
X136174647Y-59942156D01*
X136259952Y-59736211D01*
X136317646Y-59520893D01*
X136338290Y-59364085D01*
X141323945Y-59364085D01*
X141323945Y-59673028D01*
X141358531Y-59979994D01*
X141358534Y-59980012D01*
X141427276Y-60281192D01*
X141427280Y-60281204D01*
X141529307Y-60572779D01*
X141529313Y-60572793D01*
X141663348Y-60851119D01*
X141663350Y-60851122D01*
X141827710Y-61112700D01*
X142020325Y-61354231D01*
X142238771Y-61572677D01*
X142480302Y-61765292D01*
X142741880Y-61929652D01*
X143020216Y-62063692D01*
X143020222Y-62063694D01*
X143311797Y-62165721D01*
X143311809Y-62165725D01*
X143612993Y-62234468D01*
X143612999Y-62234468D01*
X143613007Y-62234470D01*
X143817651Y-62257527D01*
X143919974Y-62269056D01*
X143919977Y-62269057D01*
X143919980Y-62269057D01*
X144228913Y-62269057D01*
X144228914Y-62269056D01*
X144385801Y-62251379D01*
X144535882Y-62234470D01*
X144535887Y-62234469D01*
X144535897Y-62234468D01*
X144837081Y-62165725D01*
X145128674Y-62063692D01*
X145407010Y-61929652D01*
X145668588Y-61765292D01*
X145910119Y-61572677D01*
X146128565Y-61354231D01*
X146321180Y-61112700D01*
X146485540Y-60851122D01*
X146619580Y-60572786D01*
X146721613Y-60281193D01*
X146790356Y-59980009D01*
X146794622Y-59942152D01*
X146824944Y-59673028D01*
X146824945Y-59673024D01*
X146824945Y-59364089D01*
X146824944Y-59364085D01*
X146790358Y-59057119D01*
X146790355Y-59057101D01*
X146721613Y-58755921D01*
X146721609Y-58755909D01*
X146619582Y-58464334D01*
X146619580Y-58464328D01*
X146485540Y-58185992D01*
X146321180Y-57924414D01*
X146128565Y-57682883D01*
X145910119Y-57464437D01*
X145668588Y-57271822D01*
X145442688Y-57129880D01*
X145407007Y-57107460D01*
X145128681Y-56973425D01*
X145128667Y-56973419D01*
X144837092Y-56871392D01*
X144837080Y-56871388D01*
X144535900Y-56802646D01*
X144535882Y-56802643D01*
X144228916Y-56768057D01*
X144228910Y-56768057D01*
X143919980Y-56768057D01*
X143919973Y-56768057D01*
X143613007Y-56802643D01*
X143612989Y-56802646D01*
X143311809Y-56871388D01*
X143311797Y-56871392D01*
X143020222Y-56973419D01*
X143020208Y-56973425D01*
X142741882Y-57107460D01*
X142480303Y-57271821D01*
X142238771Y-57464436D01*
X142020324Y-57682883D01*
X141827709Y-57924415D01*
X141663348Y-58185994D01*
X141529313Y-58464320D01*
X141529307Y-58464334D01*
X141427280Y-58755909D01*
X141427276Y-58755921D01*
X141358534Y-59057101D01*
X141358531Y-59057119D01*
X141323945Y-59364085D01*
X136338290Y-59364085D01*
X136346742Y-59299887D01*
X136346742Y-59076973D01*
X136317646Y-58855967D01*
X136259952Y-58640649D01*
X136174647Y-58434704D01*
X136063190Y-58241656D01*
X136020478Y-58185992D01*
X135927490Y-58064807D01*
X135927484Y-58064800D01*
X135769871Y-57907187D01*
X135769864Y-57907181D01*
X135593024Y-57771488D01*
X135593022Y-57771487D01*
X135593016Y-57771482D01*
X135399968Y-57660025D01*
X135399964Y-57660023D01*
X135194032Y-57574723D01*
X135194025Y-57574721D01*
X135194023Y-57574720D01*
X134978705Y-57517026D01*
X134978699Y-57517025D01*
X134978694Y-57517024D01*
X134757708Y-57487931D01*
X134757705Y-57487930D01*
X134757699Y-57487930D01*
X134534785Y-57487930D01*
X134534779Y-57487930D01*
X134534775Y-57487931D01*
X134313789Y-57517024D01*
X134313782Y-57517025D01*
X134313779Y-57517026D01*
X134181996Y-57552337D01*
X134098461Y-57574720D01*
X134098451Y-57574723D01*
X133892519Y-57660023D01*
X133892515Y-57660025D01*
X133699468Y-57771482D01*
X133699459Y-57771488D01*
X133522619Y-57907181D01*
X133522612Y-57907187D01*
X133364999Y-58064800D01*
X133364993Y-58064807D01*
X133229300Y-58241647D01*
X133229294Y-58241656D01*
X133117837Y-58434703D01*
X133117835Y-58434707D01*
X133032535Y-58640639D01*
X133032532Y-58640649D01*
X132974839Y-58855964D01*
X132974836Y-58855977D01*
X132945743Y-59076963D01*
X132945742Y-59076979D01*
X120234491Y-59076979D01*
X120792834Y-58109901D01*
X120824876Y-58054400D01*
X120826694Y-58051353D01*
X121113990Y-57585576D01*
X121117932Y-57579583D01*
X121121335Y-57574723D01*
X121430767Y-57132809D01*
X121435059Y-57127047D01*
X121773313Y-56699256D01*
X121777949Y-56693730D01*
X122140525Y-56286306D01*
X122145441Y-56281096D01*
X122531096Y-55895441D01*
X122536306Y-55890525D01*
X122943732Y-55527946D01*
X122949256Y-55523313D01*
X123377047Y-55185059D01*
X123382809Y-55180767D01*
X123829592Y-54867925D01*
X123835600Y-54863975D01*
X124301335Y-54576705D01*
X124304347Y-54574906D01*
X124359902Y-54542833D01*
X124359902Y-54542832D01*
X126032808Y-53576979D01*
X142472021Y-53576979D01*
X142472021Y-53799880D01*
X142472022Y-53799896D01*
X142501115Y-54020882D01*
X142501116Y-54020887D01*
X142501117Y-54020893D01*
X142558811Y-54236210D01*
X142558814Y-54236220D01*
X142644114Y-54442152D01*
X142644116Y-54442156D01*
X142755573Y-54635204D01*
X142755578Y-54635210D01*
X142755579Y-54635212D01*
X142891272Y-54812052D01*
X142891278Y-54812059D01*
X143048891Y-54969672D01*
X143048897Y-54969677D01*
X143225747Y-55105378D01*
X143418795Y-55216835D01*
X143624740Y-55302140D01*
X143840058Y-55359834D01*
X144061064Y-55388930D01*
X144061071Y-55388930D01*
X144283971Y-55388930D01*
X144283978Y-55388930D01*
X144504984Y-55359834D01*
X144720302Y-55302140D01*
X144926247Y-55216835D01*
X145119295Y-55105378D01*
X145296145Y-54969677D01*
X145453768Y-54812054D01*
X145589469Y-54635204D01*
X145700926Y-54442156D01*
X145786231Y-54236211D01*
X145843925Y-54020893D01*
X145873021Y-53799887D01*
X145873021Y-53576973D01*
X145843925Y-53355967D01*
X145786231Y-53140649D01*
X145700926Y-52934704D01*
X145589469Y-52741656D01*
X145453768Y-52564806D01*
X145453763Y-52564800D01*
X145296150Y-52407187D01*
X145296143Y-52407181D01*
X145119303Y-52271488D01*
X145119301Y-52271487D01*
X145119295Y-52271482D01*
X144926247Y-52160025D01*
X144926243Y-52160023D01*
X144720311Y-52074723D01*
X144720304Y-52074721D01*
X144720302Y-52074720D01*
X144504984Y-52017026D01*
X144504978Y-52017025D01*
X144504973Y-52017024D01*
X144283987Y-51987931D01*
X144283984Y-51987930D01*
X144283978Y-51987930D01*
X144061064Y-51987930D01*
X144061058Y-51987930D01*
X144061054Y-51987931D01*
X143840068Y-52017024D01*
X143840061Y-52017025D01*
X143840058Y-52017026D01*
X143624740Y-52074720D01*
X143624730Y-52074723D01*
X143418798Y-52160023D01*
X143418794Y-52160025D01*
X143225747Y-52271482D01*
X143225738Y-52271488D01*
X143048898Y-52407181D01*
X143048891Y-52407187D01*
X142891278Y-52564800D01*
X142891272Y-52564807D01*
X142755579Y-52741647D01*
X142755573Y-52741656D01*
X142644116Y-52934703D01*
X142644114Y-52934707D01*
X142558814Y-53140639D01*
X142558811Y-53140649D01*
X142501118Y-53355964D01*
X142501115Y-53355977D01*
X142472022Y-53576963D01*
X142472021Y-53576979D01*
X126032808Y-53576979D01*
X146290597Y-41881139D01*
X146290602Y-41881138D01*
X146346147Y-41849068D01*
X146349223Y-41847351D01*
X146830885Y-41587641D01*
X146837313Y-41584413D01*
X147331607Y-41353918D01*
X147338187Y-41351080D01*
X147845075Y-41149703D01*
X147851788Y-41147259D01*
X148369508Y-40975703D01*
X148376401Y-40973639D01*
X148903216Y-40832477D01*
X148910204Y-40830821D01*
X149444338Y-40720527D01*
X149451378Y-40719285D01*
X149991060Y-40640230D01*
X149998161Y-40639400D01*
X150541478Y-40591862D01*
X150548657Y-40591443D01*
X151094635Y-40575552D01*
X151098240Y-40575501D01*
X151163310Y-40575501D01*
X151163313Y-40575500D01*
X151170920Y-40575500D01*
X176486695Y-40575500D01*
X176550768Y-40575500D01*
X176554374Y-40575552D01*
G37*
%TD.AperFunction*%
%TD*%
M02*
