M48
; DRILL file {KiCad 9.0.7} date 2026-02-05T13:49:10-0500
; FORMAT={-:-/ absolute / metric / decimal}
; #@! TF.CreationDate,2026-02-05T13:49:10-05:00
; #@! TF.GenerationSoftware,Kicad,Pcbnew,9.0.7
; #@! TF.FileFunction,Plated,1,2,PTH
FMAT,2
METRIC
; #@! TA.AperFunction,Plated,PTH,ComponentDrill
T1C0.600
; #@! TA.AperFunction,Plated,PTH,ComponentDrill
T2C1.000
; #@! TA.AperFunction,Plated,PTH,ComponentDrill
T3C1.600
; #@! TA.AperFunction,Plated,PTH,ComponentDrill
T4C1.900
; #@! TA.AperFunction,Plated,PTH,ComponentDrill
T5C2.700
; #@! TA.AperFunction,Plated,PTH,ComponentDrill
T6C3.200
; #@! TA.AperFunction,Plated,PTH,ComponentDrill
T7C4.000
; #@! TA.AperFunction,Plated,PTH,ComponentDrill
T8C5.400
%
G90
G05
T2
X133.634Y-69.307
X133.93Y-125.695
X134.646Y-59.188
X135.43Y-67.51
X135.43Y-71.103
X135.727Y-123.899
X135.727Y-127.491
X137.227Y-69.307
X137.227Y-72.899
X137.523Y-122.103
X137.523Y-125.695
X139.023Y-71.103
X139.319Y-123.899
X144.173Y-53.688
X181.427Y-142.712
X188.477Y-71.057
X189.773Y-123.103
X189.773Y-125.643
X189.773Y-128.183
X190.273Y-69.26
X190.273Y-72.853
X190.954Y-137.212
X192.069Y-67.464
X192.069Y-71.057
X192.313Y-123.103
X192.313Y-125.643
X192.313Y-128.183
X193.865Y-69.26
T3
X133.8Y-113.4
X137.6Y-116.6
X141.0Y-120.2
T4
X139.744Y-62.019
X144.074Y-59.519
X158.0Y-125.575
X158.0Y-129.575
X161.6Y-125.575
X161.6Y-129.575
X167.6Y-65.625
X167.6Y-69.625
X171.2Y-65.625
X171.2Y-69.625
X181.526Y-136.881
X185.856Y-134.381
T5
X122.45Y-94.0
X122.45Y-101.2
X125.559Y-81.043
X125.759Y-114.157
X129.159Y-74.807
X129.359Y-120.393
X198.441Y-74.807
X198.641Y-119.993
X202.041Y-81.043
X202.241Y-113.757
X205.15Y-94.0
X205.15Y-101.2
T6
X124.773Y-58.603
X124.773Y-136.603
X202.773Y-58.603
X202.773Y-136.603
T7
X147.917Y-44.897
X179.642Y-150.322
T8
X150.8Y-124.075
X160.4Y-71.125
X168.8Y-124.075
X178.4Y-71.125
T1
X115.9Y-90.85G85X117.0Y-90.85
G05
X115.9Y-104.35G85X117.0Y-104.35
G05
X118.312Y-80.496G85X119.264Y-81.046
G05
X118.512Y-114.704G85X119.464Y-114.154
G05
X125.062Y-68.804G85X126.014Y-69.354
G05
X125.262Y-126.396G85X126.214Y-125.846
G05
X202.538Y-68.804G85X201.586Y-69.354
G05
X202.738Y-125.996G85X201.786Y-125.446
G05
X209.288Y-80.496G85X208.336Y-81.046
G05
X209.488Y-114.304G85X208.536Y-113.754
G05
X211.7Y-90.85G85X210.6Y-90.85
G05
X211.7Y-104.35G85X210.6Y-104.35
G05
M30
