%TF.GenerationSoftware,KiCad,Pcbnew,9.0.7*%
%TF.CreationDate,2026-02-05T13:48:51-05:00*%
%TF.ProjectId,PDB,5044422e-6b69-4636-9164-5f7063625858,rev?*%
%TF.SameCoordinates,Original*%
%TF.FileFunction,Soldermask,Top*%
%TF.FilePolarity,Negative*%
%FSLAX46Y46*%
G04 Gerber Fmt 4.6, Leading zero omitted, Abs format (unit mm)*
G04 Created by KiCad (PCBNEW 9.0.7) date 2026-02-05 13:48:51*
%MOMM*%
%LPD*%
G01*
G04 APERTURE LIST*
G04 Aperture macros list*
%AMRoundRect*
0 Rectangle with rounded corners*
0 $1 Rounding radius*
0 $2 $3 $4 $5 $6 $7 $8 $9 X,Y pos of 4 corners*
0 Add a 4 corners polygon primitive as box body*
4,1,4,$2,$3,$4,$5,$6,$7,$8,$9,$2,$3,0*
0 Add four circle primitives for the rounded corners*
1,1,$1+$1,$2,$3*
1,1,$1+$1,$4,$5*
1,1,$1+$1,$6,$7*
1,1,$1+$1,$8,$9*
0 Add four rect primitives between the rounded corners*
20,1,$1+$1,$2,$3,$4,$5,0*
20,1,$1+$1,$4,$5,$6,$7,0*
20,1,$1+$1,$6,$7,$8,$9,0*
20,1,$1+$1,$8,$9,$2,$3,0*%
%AMRotRect*
0 Rectangle, with rotation*
0 The origin of the aperture is its center*
0 $1 length*
0 $2 width*
0 $3 Rotation angle, in degrees counterclockwise*
0 Add horizontal line*
21,1,$1,$2,0,0,$3*%
G04 Aperture macros list end*
%ADD10RotRect,0.900000X2.000000X120.000000*%
%ADD11RoundRect,1.025000X1.400176X-0.375176X0.375176X1.400176X-1.400176X0.375176X-0.375176X-1.400176X0*%
%ADD12C,4.100000*%
%ADD13RotRect,0.900000X2.000000X60.000000*%
%ADD14RoundRect,1.025000X0.375176X-1.400176X1.400176X0.375176X-0.375176X1.400176X-1.400176X-0.375176X0*%
%ADD15R,2.000000X0.900000*%
%ADD16RoundRect,1.025000X1.025000X-1.025000X1.025000X1.025000X-1.025000X1.025000X-1.025000X-1.025000X0*%
%ADD17RotRect,0.900000X2.000000X300.000000*%
%ADD18RoundRect,1.025000X-1.400176X0.375176X-0.375176X-1.400176X1.400176X-0.375176X0.375176X1.400176X0*%
%ADD19RotRect,0.900000X2.000000X240.000000*%
%ADD20RoundRect,1.025000X-0.375176X1.400176X-1.400176X-0.375176X0.375176X-1.400176X1.400176X0.375176X0*%
%ADD21RoundRect,1.025000X-1.025000X1.025000X-1.025000X-1.025000X1.025000X-1.025000X1.025000X1.025000X0*%
%ADD22RoundRect,2.700000X1.800000X1.800000X-1.800000X1.800000X-1.800000X-1.800000X1.800000X-1.800000X0*%
%ADD23C,9.000000*%
%ADD24C,2.300000*%
%ADD25RoundRect,2.700000X-1.800000X-1.800000X1.800000X-1.800000X1.800000X1.800000X-1.800000X1.800000X0*%
%ADD26RotRect,1.700000X1.700000X315.000000*%
%ADD27C,1.700000*%
%ADD28C,5.600000*%
%ADD29C,5.000000*%
%ADD30C,2.800000*%
%ADD31C,1.400000*%
%ADD32RoundRect,0.770000X0.358705X1.338705X-1.338705X0.358705X-0.358705X-1.338705X1.338705X-0.358705X0*%
%ADD33C,3.500000*%
%ADD34RotRect,1.700000X1.700000X135.000000*%
%ADD35RotRect,1.700000X1.700000X225.000000*%
%ADD36R,1.700000X1.700000*%
%ADD37RoundRect,0.770000X-0.358705X-1.338705X1.338705X-0.358705X0.358705X1.338705X-1.338705X0.358705X0*%
G04 APERTURE END LIST*
D10*
%TO.C,J6*%
X125737917Y-126120672D03*
X118987917Y-114429329D03*
D11*
X125759069Y-114157309D03*
D12*
X129359069Y-120392692D03*
%TD*%
D13*
%TO.C,J7*%
X118787917Y-80770672D03*
X125537917Y-69079329D03*
D14*
X129159069Y-74807309D03*
D12*
X125559069Y-81042692D03*
%TD*%
D15*
%TO.C,J5*%
X116450000Y-104350000D03*
X116450000Y-90850000D03*
D16*
X122450000Y-94000000D03*
D12*
X122450000Y-101200000D03*
%TD*%
D17*
%TO.C,J10*%
X202062083Y-69079329D03*
X208812083Y-80770672D03*
D18*
X202040931Y-81042692D03*
D12*
X198440931Y-74807309D03*
%TD*%
D19*
%TO.C,J12*%
X209012083Y-114029329D03*
X202262083Y-125720672D03*
D20*
X198640931Y-119992692D03*
D12*
X202240931Y-113757309D03*
%TD*%
D15*
%TO.C,J11*%
X211150000Y-90850000D03*
X211150000Y-104350000D03*
D21*
X205150000Y-101200000D03*
D12*
X205150000Y-94000000D03*
%TD*%
D22*
%TO.C,J13*%
X150800000Y-124075000D03*
D23*
X168800000Y-124075000D03*
D24*
X161600000Y-129575000D03*
X161600000Y-125575000D03*
X158000000Y-129575000D03*
X158000000Y-125575000D03*
%TD*%
D25*
%TO.C,J14*%
X178400000Y-71125000D03*
D23*
X160400000Y-71125000D03*
D24*
X167600000Y-65625000D03*
X167600000Y-69625000D03*
X171200000Y-65625000D03*
X171200000Y-69625000D03*
%TD*%
D26*
%TO.C,J2*%
X137522587Y-122102587D03*
D27*
X139318638Y-123898638D03*
X135726536Y-123898638D03*
X137522587Y-125694689D03*
X133930485Y-125694689D03*
X135726536Y-127490741D03*
%TD*%
D28*
%TO.C,H6*%
X202772587Y-136602587D03*
%TD*%
D29*
%TO.C,H1*%
X147917333Y-44897413D03*
%TD*%
D30*
%TO.C,BATT*%
X137600000Y-116600000D03*
%TD*%
D28*
%TO.C,H2*%
X124772587Y-136602587D03*
%TD*%
D30*
%TO.C,GND*%
X133800000Y-113400000D03*
%TD*%
D31*
%TO.C,J8*%
X190953758Y-137211571D03*
X181427479Y-142711571D03*
D32*
X185855682Y-134381444D03*
D33*
X181525555Y-136881444D03*
%TD*%
D34*
%TO.C,J3*%
X190272587Y-72852587D03*
D27*
X188476536Y-71056536D03*
X192068638Y-71056536D03*
X190272587Y-69260485D03*
X193864689Y-69260485D03*
X192068638Y-67464433D03*
%TD*%
D28*
%TO.C,H4*%
X124772587Y-58602587D03*
%TD*%
D29*
%TO.C,H3*%
X179642333Y-150322413D03*
%TD*%
D30*
%TO.C,5V*%
X141000000Y-120200000D03*
%TD*%
D35*
%TO.C,J1*%
X139022587Y-71102587D03*
D27*
X137226536Y-72898638D03*
X137226536Y-69306536D03*
X135430485Y-71102587D03*
X135430485Y-67510485D03*
X133634433Y-69306536D03*
%TD*%
D36*
%TO.C,J4*%
X189772587Y-123102587D03*
D27*
X192312587Y-123102587D03*
X189772587Y-125642587D03*
X192312587Y-125642587D03*
X189772587Y-128182587D03*
X192312587Y-128182587D03*
%TD*%
D28*
%TO.C,H5*%
X202772587Y-58602587D03*
%TD*%
D31*
%TO.C,J9*%
X134646242Y-59188430D03*
X144172521Y-53688430D03*
D37*
X139744318Y-62018557D03*
D33*
X144074445Y-59518557D03*
%TD*%
M02*
