%TF.GenerationSoftware,KiCad,Pcbnew,9.0.7*%
%TF.CreationDate,2026-02-05T13:48:51-05:00*%
%TF.ProjectId,PDB,5044422e-6b69-4636-9164-5f7063625858,rev?*%
%TF.SameCoordinates,Original*%
%TF.FileFunction,Profile,NP*%
%FSLAX46Y46*%
G04 Gerber Fmt 4.6, Leading zero omitted, Abs format (unit mm)*
G04 Created by KiCad (PCBNEW 9.0.7) date 2026-02-05 13:48:51*
%MOMM*%
%LPD*%
G01*
G04 APERTURE LIST*
%TA.AperFunction,Profile*%
%ADD10C,0.200000*%
%TD*%
G04 APERTURE END LIST*
D10*
X107664746Y-115302586D02*
X120392333Y-137347413D01*
X107664746Y-115302586D02*
G75*
G02*
X106325007Y-110302586I8660254J4999986D01*
G01*
X146097414Y-41414746D02*
X124052587Y-54142333D01*
X207257667Y-137347413D02*
X219985254Y-115302586D01*
X221325000Y-110302586D02*
X221325000Y-84847414D01*
X207257667Y-137347413D02*
G75*
G02*
X203597413Y-141007667I-8660267J5000013D01*
G01*
X176552586Y-40075000D02*
G75*
G02*
X181552590Y-41414740I14J-10000000D01*
G01*
X203597413Y-54142333D02*
G75*
G02*
X207257667Y-57802587I-5000113J-8660367D01*
G01*
X181552586Y-153735254D02*
G75*
G02*
X176552586Y-155074993I-4999986J8660254D01*
G01*
X124052587Y-141007667D02*
X146097414Y-153735254D01*
X219985254Y-79847414D02*
G75*
G02*
X221325016Y-84847414I-8660454J-5000086D01*
G01*
X181552586Y-153735254D02*
X203597413Y-141007667D01*
X124052587Y-141007667D02*
G75*
G02*
X120392333Y-137347413I5000013J8660267D01*
G01*
X219985254Y-79847414D02*
X207257667Y-57802587D01*
X106325000Y-84847414D02*
X106325000Y-110302586D01*
X151097414Y-155075000D02*
G75*
G02*
X146097424Y-153735237I-14J9999800D01*
G01*
X146097415Y-41414747D02*
G75*
G02*
X151097414Y-40074972I5000085J-8660353D01*
G01*
X203597413Y-54142333D02*
X181552586Y-41414746D01*
X183825000Y-97575000D02*
G75*
G02*
X143825000Y-97575000I-20000000J0D01*
G01*
X143825000Y-97575000D02*
G75*
G02*
X183825000Y-97575000I20000000J0D01*
G01*
X120392333Y-57802587D02*
G75*
G02*
X124052587Y-54142333I8660267J-5000013D01*
G01*
X120392333Y-57802587D02*
X107664746Y-79847414D01*
X176552586Y-40075000D02*
X151097414Y-40075000D01*
X151097414Y-155075000D02*
X176552586Y-155075000D01*
X106325000Y-84847414D02*
G75*
G02*
X107664740Y-79847410I10000000J14D01*
G01*
X221325000Y-110302586D02*
G75*
G02*
X219985260Y-115302590I-10000000J-14D01*
G01*
M02*
