M48
; DRILL file {KiCad 8.0.0} date 2024-06-30T13:13:22-0400
; FORMAT={-:-/ absolute / inch / decimal}
; #@! TF.CreationDate,2024-06-30T13:13:22-04:00
; #@! TF.GenerationSoftware,Kicad,Pcbnew,8.0.0
; #@! TF.FileFunction,NonPlated,1,2,NPTH
FMAT,2
INCH
; #@! TA.AperFunction,NonPlated,NPTH,ComponentDrill
T1C0.0236
%
G90
G05
T1
G00X3.6331Y-3.2561
M15
G01X3.5937Y-3.2561
M16
G05
G00X3.6331Y-3.7876
M15
G01X3.5937Y-3.7876
M16
G05
G00X3.7666Y-4.2858
M15
G01X3.7325Y-4.3055
M16
G05
G00X3.7666Y-2.7579
M15
G01X3.7325Y-2.7382
M16
G05
G00X4.0323Y-4.7461
M15
G01X3.9982Y-4.7657
M16
G05
G00X4.0323Y-2.2976
M15
G01X3.9982Y-2.2779
M16
G05
G00X4.397Y-5.1108
M15
G01X4.3773Y-5.1449
M16
G05
G00X4.397Y-1.9329
M15
G01X4.3774Y-1.8988
M16
G05
G00X4.8573Y-5.3765
M15
G01X4.8376Y-5.4106
M16
G05
G00X4.8573Y-1.6671
M15
G01X4.8376Y-1.633
M16
G05
G00X6.3852Y-5.3765
M15
G01X6.4049Y-5.4106
M16
G05
G00X6.3852Y-1.6672
M15
G01X6.4049Y-1.6331
M16
G05
G00X6.8455Y-5.1108
M15
G01X6.8652Y-5.1449
M16
G05
G00X6.8455Y-1.9329
M15
G01X6.8652Y-1.8988
M16
G05
G00X7.2102Y-4.7461
M15
G01X7.2443Y-4.7658
M16
G05
G00X7.2102Y-2.2976
M15
G01X7.2443Y-2.2779
M16
G05
G00X7.476Y-4.2858
M15
G01X7.5101Y-4.3055
M16
G05
G00X7.476Y-2.7579
M15
G01X7.5101Y-2.7382
M16
G05
G00X7.6095Y-3.2561
M15
G01X7.6488Y-3.2561
M16
G05
G00X7.6095Y-3.7876
M15
G01X7.6488Y-3.7876
M16
G05
M30
