%TF.GenerationSoftware,KiCad,Pcbnew,8.0.0*%
%TF.CreationDate,2024-06-30T13:13:22-04:00*%
%TF.ProjectId,PDB,5044422e-6b69-4636-9164-5f7063625858,rev?*%
%TF.SameCoordinates,Original*%
%TF.FileFunction,Copper,L2,Bot*%
%TF.FilePolarity,Positive*%
%FSLAX46Y46*%
G04 Gerber Fmt 4.6, Leading zero omitted, Abs format (unit mm)*
G04 Created by KiCad (PCBNEW 8.0.0) date 2024-06-30 13:13:22*
%MOMM*%
%LPD*%
G01*
G04 APERTURE LIST*
G04 Aperture macros list*
%AMRoundRect*
0 Rectangle with rounded corners*
0 $1 Rounding radius*
0 $2 $3 $4 $5 $6 $7 $8 $9 X,Y pos of 4 corners*
0 Add a 4 corners polygon primitive as box body*
4,1,4,$2,$3,$4,$5,$6,$7,$8,$9,$2,$3,0*
0 Add four circle primitives for the rounded corners*
1,1,$1+$1,$2,$3*
1,1,$1+$1,$4,$5*
1,1,$1+$1,$6,$7*
1,1,$1+$1,$8,$9*
0 Add four rect primitives between the rounded corners*
20,1,$1+$1,$2,$3,$4,$5,0*
20,1,$1+$1,$4,$5,$6,$7,0*
20,1,$1+$1,$6,$7,$8,$9,0*
20,1,$1+$1,$8,$9,$2,$3,0*%
%AMHorizOval*
0 Thick line with rounded ends*
0 $1 width*
0 $2 $3 position (X,Y) of the first rounded end (center of the circle)*
0 $4 $5 position (X,Y) of the second rounded end (center of the circle)*
0 Add line between two ends*
20,1,$1,$2,$3,$4,$5,0*
0 Add two circle primitives to create the rounded ends*
1,1,$1,$2,$3*
1,1,$1,$4,$5*%
%AMRotRect*
0 Rectangle, with rotation*
0 The origin of the aperture is its center*
0 $1 length*
0 $2 width*
0 $3 Rotation angle, in degrees counterclockwise*
0 Add horizontal line*
21,1,$1,$2,0,0,$3*%
G04 Aperture macros list end*
%TA.AperFunction,ComponentPad*%
%ADD10C,6.400000*%
%TD*%
%TA.AperFunction,WasherPad*%
%ADD11RoundRect,0.150000X-0.637917X-0.195096X-0.487917X-0.454904X0.637917X0.195096X0.487917X0.454904X0*%
%TD*%
%TA.AperFunction,ComponentPad*%
%ADD12C,4.000000*%
%TD*%
%TA.AperFunction,WasherPad*%
%ADD13RoundRect,0.150000X-0.650000X0.150000X-0.650000X-0.150000X0.650000X-0.150000X0.650000X0.150000X0*%
%TD*%
%TA.AperFunction,WasherPad*%
%ADD14RoundRect,0.150000X0.650000X-0.150000X0.650000X0.150000X-0.650000X0.150000X-0.650000X-0.150000X0*%
%TD*%
%TA.AperFunction,ComponentPad*%
%ADD15RotRect,1.700000X1.700000X135.000000*%
%TD*%
%TA.AperFunction,ComponentPad*%
%ADD16HorizOval,1.700000X0.000000X0.000000X0.000000X0.000000X0*%
%TD*%
%TA.AperFunction,WasherPad*%
%ADD17RoundRect,0.150000X-0.487917X0.454904X-0.637917X0.195096X0.487917X-0.454904X0.637917X-0.195096X0*%
%TD*%
%TA.AperFunction,ComponentPad*%
%ADD18RotRect,1.700000X1.700000X315.000000*%
%TD*%
%TA.AperFunction,ComponentPad*%
%ADD19HorizOval,1.700000X0.000000X0.000000X0.000000X0.000000X0*%
%TD*%
%TA.AperFunction,ComponentPad*%
%ADD20C,1.400000*%
%TD*%
%TA.AperFunction,ComponentPad*%
%ADD21R,3.500000X3.500000*%
%TD*%
%TA.AperFunction,ComponentPad*%
%ADD22C,3.500000*%
%TD*%
%TA.AperFunction,ComponentPad*%
%ADD23R,1.700000X1.700000*%
%TD*%
%TA.AperFunction,ComponentPad*%
%ADD24O,1.700000X1.700000*%
%TD*%
%TA.AperFunction,WasherPad*%
%ADD25RoundRect,0.150000X-0.454904X-0.487917X-0.195096X-0.637917X0.454904X0.487917X0.195096X0.637917X0*%
%TD*%
%TA.AperFunction,ComponentPad*%
%ADD26RotRect,1.700000X1.700000X225.000000*%
%TD*%
%TA.AperFunction,ComponentPad*%
%ADD27HorizOval,1.700000X0.000000X0.000000X0.000000X0.000000X0*%
%TD*%
%TA.AperFunction,WasherPad*%
%ADD28RoundRect,0.150000X0.195096X-0.637917X0.454904X-0.487917X-0.195096X0.637917X-0.454904X0.487917X0*%
%TD*%
%TA.AperFunction,WasherPad*%
%ADD29RoundRect,0.150000X0.487917X-0.454904X0.637917X-0.195096X-0.487917X0.454904X-0.637917X0.195096X0*%
%TD*%
%TA.AperFunction,WasherPad*%
%ADD30RoundRect,0.150000X0.637917X0.195096X0.487917X0.454904X-0.637917X-0.195096X-0.487917X-0.454904X0*%
%TD*%
%TA.AperFunction,WasherPad*%
%ADD31RoundRect,0.150000X0.454904X0.487917X0.195096X0.637917X-0.454904X-0.487917X-0.195096X-0.637917X0*%
%TD*%
%TA.AperFunction,WasherPad*%
%ADD32RoundRect,0.150000X-0.195096X0.637917X-0.454904X0.487917X0.195096X-0.637917X0.454904X-0.487917X0*%
%TD*%
%TA.AperFunction,ComponentPad*%
%ADD33C,5.000000*%
%TD*%
%TA.AperFunction,SMDPad,CuDef*%
%ADD34C,7.000000*%
%TD*%
G04 APERTURE END LIST*
D10*
%TO.P,H3,1,1*%
%TO.N,GND*%
X103780254Y-128455174D03*
%TD*%
D11*
%TO.P,J13,*%
%TO.N,*%
X95237742Y-109108693D03*
X101987742Y-120800035D03*
D12*
%TO.P,J13,1,Pin_1*%
%TO.N,V+_BATT*%
X105608894Y-115072055D03*
%TO.P,J13,2,Pin_2*%
%TO.N,GND*%
X102008894Y-108836673D03*
%TD*%
D10*
%TO.P,H2,1,1*%
%TO.N,GND*%
X103780254Y-50455174D03*
%TD*%
D13*
%TO.P,J14,*%
%TO.N,*%
X91780254Y-82704306D03*
X91780254Y-96204306D03*
D12*
%TO.P,J14,1,Pin_1*%
%TO.N,V+_BATT*%
X97780254Y-93054306D03*
%TO.P,J14,2,Pin_2*%
%TO.N,GND*%
X97780254Y-85854306D03*
%TD*%
D14*
%TO.P,J9,*%
%TO.N,*%
X193780254Y-96205174D03*
X193780254Y-82705174D03*
D12*
%TO.P,J9,1,Pin_1*%
%TO.N,V+_BATT*%
X187780254Y-85855174D03*
%TO.P,J9,2,Pin_2*%
%TO.N,GND*%
X187780254Y-93055174D03*
%TD*%
D15*
%TO.P,J1,1,Pin_1*%
%TO.N,V+_BATT*%
X169280254Y-64705174D03*
D16*
%TO.P,J1,2,Pin_2*%
%TO.N,+5VA*%
X167484203Y-62909123D03*
%TO.P,J1,3,Pin_3*%
%TO.N,unconnected-(J1-Pin_3-Pad3)*%
X171076305Y-62909123D03*
%TO.P,J1,4,Pin_4*%
%TO.N,unconnected-(J1-Pin_4-Pad4)*%
X169280254Y-61113072D03*
%TO.P,J1,5,Pin_5*%
%TO.N,GND*%
X172872356Y-61113072D03*
%TO.P,J1,6,Pin_6*%
X171076305Y-59317020D03*
%TD*%
D17*
%TO.P,J15,*%
%TO.N,*%
X101988176Y-58108693D03*
X95238176Y-69800035D03*
D12*
%TO.P,J15,1,Pin_1*%
%TO.N,V+_BATT*%
X102009328Y-70072055D03*
%TO.P,J15,2,Pin_2*%
%TO.N,GND*%
X105609328Y-63836673D03*
%TD*%
D18*
%TO.P,J3,1,Pin_1*%
%TO.N,V+_BATT*%
X116530254Y-113955174D03*
D19*
%TO.P,J3,2,Pin_2*%
%TO.N,+5VA*%
X118326305Y-115751225D03*
%TO.P,J3,3,Pin_3*%
%TO.N,unconnected-(J3-Pin_3-Pad3)*%
X114734203Y-115751225D03*
%TO.P,J3,4,Pin_4*%
%TO.N,unconnected-(J3-Pin_4-Pad4)*%
X116530254Y-117547276D03*
%TO.P,J3,5,Pin_5*%
%TO.N,GND*%
X112938152Y-117547276D03*
%TO.P,J3,6,Pin_6*%
%TO.N,V+_BATT*%
X114734203Y-119343328D03*
%TD*%
D20*
%TO.P,J6,*%
%TO.N,*%
X141636254Y-142461174D03*
X130636254Y-142461174D03*
D21*
%TO.P,J6,1,Pin_1*%
%TO.N,GND*%
X138636254Y-137461174D03*
D22*
%TO.P,J6,2,Pin_2*%
%TO.N,V+_BATT*%
X133636254Y-137461174D03*
%TD*%
D23*
%TO.P,J2,1,Pin_1*%
%TO.N,V+_BATT*%
X168780254Y-114955174D03*
D24*
%TO.P,J2,2,Pin_2*%
X171320254Y-114955174D03*
%TO.P,J2,3,Pin_3*%
%TO.N,unconnected-(J2-Pin_3-Pad3)*%
X168780254Y-117495174D03*
%TO.P,J2,4,Pin_4*%
%TO.N,unconnected-(J2-Pin_4-Pad4)*%
X171320254Y-117495174D03*
%TO.P,J2,5,Pin_5*%
%TO.N,GND*%
X168780254Y-120035174D03*
%TO.P,J2,6,Pin_6*%
X171320254Y-120035174D03*
%TD*%
D10*
%TO.P,H5,1,1*%
%TO.N,GND*%
X181780254Y-128455174D03*
%TD*%
D25*
%TO.P,J12,*%
%TO.N,*%
X111434207Y-130246818D03*
X123125549Y-136996818D03*
D12*
%TO.P,J12,1,Pin_1*%
%TO.N,V+_BATT*%
X123397569Y-130225666D03*
%TO.P,J12,2,Pin_2*%
%TO.N,GND*%
X117162187Y-126625666D03*
%TD*%
D26*
%TO.P,J4,1,Pin_1*%
%TO.N,V+_BATT*%
X118030254Y-62955174D03*
D27*
%TO.P,J4,2,Pin_2*%
X116234203Y-64751225D03*
%TO.P,J4,3,Pin_3*%
%TO.N,unconnected-(J4-Pin_3-Pad3)*%
X116234203Y-61159123D03*
%TO.P,J4,4,Pin_4*%
%TO.N,unconnected-(J4-Pin_4-Pad4)*%
X114438152Y-62955174D03*
%TO.P,J4,5,Pin_5*%
%TO.N,GND*%
X114438152Y-59363072D03*
%TO.P,J4,6,Pin_6*%
%TO.N,V+_BATT*%
X112642100Y-61159123D03*
%TD*%
D10*
%TO.P,H6,1,1*%
%TO.N,GND*%
X181780254Y-50455174D03*
%TD*%
D20*
%TO.P,J5,*%
%TO.N,*%
X144352254Y-36703174D03*
X155352254Y-36703174D03*
D21*
%TO.P,J5,1,Pin_1*%
%TO.N,GND*%
X147352254Y-41703174D03*
D22*
%TO.P,J5,2,Pin_2*%
%TO.N,V+_BATT*%
X152352254Y-41703174D03*
%TD*%
D28*
%TO.P,J11,*%
%TO.N,*%
X162434207Y-136997252D03*
X174125549Y-130247252D03*
D12*
%TO.P,J11,1,Pin_1*%
%TO.N,V+_BATT*%
X168397569Y-126626100D03*
%TO.P,J11,2,Pin_2*%
%TO.N,GND*%
X162162187Y-130226100D03*
%TD*%
D29*
%TO.P,J10,*%
%TO.N,*%
X183572332Y-120800787D03*
X190322332Y-109109445D03*
D12*
%TO.P,J10,1,Pin_1*%
%TO.N,V+_BATT*%
X183551180Y-108837425D03*
%TO.P,J10,2,Pin_2*%
%TO.N,GND*%
X179951180Y-115072807D03*
%TD*%
D30*
%TO.P,J8,*%
%TO.N,*%
X190322766Y-69800787D03*
X183572766Y-58109445D03*
D12*
%TO.P,J8,1,Pin_1*%
%TO.N,V+_BATT*%
X179951614Y-63837425D03*
%TO.P,J8,2,Pin_2*%
%TO.N,GND*%
X183551614Y-70072807D03*
%TD*%
D31*
%TO.P,J7,*%
%TO.N,*%
X174126301Y-48662662D03*
X162434959Y-41912662D03*
D12*
%TO.P,J7,1,Pin_1*%
%TO.N,V+_BATT*%
X162162939Y-48683814D03*
%TO.P,J7,2,Pin_2*%
%TO.N,GND*%
X168398321Y-52283814D03*
%TD*%
D32*
%TO.P,J16,*%
%TO.N,*%
X123126301Y-41912228D03*
X111434959Y-48662228D03*
D12*
%TO.P,J16,1,Pin_1*%
%TO.N,V+_BATT*%
X117162939Y-52283380D03*
%TO.P,J16,2,Pin_2*%
%TO.N,GND*%
X123398321Y-48683380D03*
%TD*%
D33*
%TO.P,H4,1,1*%
%TO.N,GND*%
X158655254Y-142160174D03*
D34*
X158655254Y-142160174D03*
%TD*%
D33*
%TO.P,H1,1,1*%
%TO.N,GND*%
X126905254Y-36750174D03*
D34*
X126905254Y-36750174D03*
%TD*%
%TA.AperFunction,Conductor*%
%TO.N,V+_BATT*%
G36*
X155562041Y-32128139D02*
G01*
X155577296Y-32128582D01*
X156126462Y-32144559D01*
X156133637Y-32144978D01*
X156694310Y-32194027D01*
X156701470Y-32194863D01*
X157258374Y-32276436D01*
X157265452Y-32277684D01*
X157816657Y-32391497D01*
X157823634Y-32393150D01*
X158367316Y-32538825D01*
X158374209Y-32540889D01*
X158374280Y-32540913D01*
X158908462Y-32717919D01*
X158915238Y-32720385D01*
X159438317Y-32928188D01*
X159444896Y-32931026D01*
X159955007Y-33168892D01*
X159961435Y-33172120D01*
X160430783Y-33425187D01*
X160433436Y-33427687D01*
X160456676Y-33439307D01*
X160463212Y-33442824D01*
X182463251Y-46144552D01*
X182463260Y-46144558D01*
X182487034Y-46158283D01*
X182502377Y-46167142D01*
X182503275Y-46167660D01*
X182506356Y-46169499D01*
X182711277Y-46295897D01*
X182986917Y-46465915D01*
X182992943Y-46469878D01*
X183453974Y-46792694D01*
X183459760Y-46797001D01*
X183877966Y-47127674D01*
X183901259Y-47146091D01*
X183906762Y-47150709D01*
X184327227Y-47524889D01*
X184332457Y-47529824D01*
X184730425Y-47927790D01*
X184735375Y-47933036D01*
X185084898Y-48325789D01*
X185109541Y-48353479D01*
X185114171Y-48358997D01*
X185463273Y-48800505D01*
X185467557Y-48806260D01*
X185642389Y-49055941D01*
X185790380Y-49267292D01*
X185794344Y-49273318D01*
X186090470Y-49753407D01*
X186092319Y-49756505D01*
X191528038Y-59171445D01*
X198721735Y-71631293D01*
X198808778Y-71782055D01*
X198808779Y-71782061D01*
X198808781Y-71782061D01*
X198818371Y-71798673D01*
X198820126Y-71801818D01*
X199088106Y-72298821D01*
X199091343Y-72305267D01*
X199329196Y-72815347D01*
X199332053Y-72821970D01*
X199539846Y-73345018D01*
X199542313Y-73351795D01*
X199719345Y-73886045D01*
X199721414Y-73892955D01*
X199867085Y-74436603D01*
X199868748Y-74443621D01*
X199982560Y-74994798D01*
X199983813Y-75001902D01*
X200065388Y-75558786D01*
X200066225Y-75565950D01*
X200115280Y-76126609D01*
X200115700Y-76133809D01*
X200132115Y-76697769D01*
X200132167Y-76701377D01*
X200132167Y-102153355D01*
X200132115Y-102156961D01*
X200115693Y-102721367D01*
X200115273Y-102728568D01*
X200066223Y-103289227D01*
X200065386Y-103296391D01*
X199983817Y-103853276D01*
X199982564Y-103860380D01*
X199868755Y-104411557D01*
X199867092Y-104418575D01*
X199721423Y-104962223D01*
X199719354Y-104969133D01*
X199542325Y-105503378D01*
X199539858Y-105510156D01*
X199332064Y-106033208D01*
X199329207Y-106039832D01*
X199091354Y-106549911D01*
X199088117Y-106556356D01*
X198820303Y-107053050D01*
X198818545Y-107056200D01*
X186103474Y-129079348D01*
X186103473Y-129079351D01*
X186092612Y-129098163D01*
X186090763Y-129101260D01*
X185794343Y-129581828D01*
X185790380Y-129587855D01*
X185467544Y-130048912D01*
X185463236Y-130054697D01*
X185133396Y-130471849D01*
X185114177Y-130496155D01*
X185109540Y-130501681D01*
X184735369Y-130922132D01*
X184730419Y-130927378D01*
X184332452Y-131325345D01*
X184327205Y-131330295D01*
X183906778Y-131704440D01*
X183901253Y-131709077D01*
X183459757Y-132058167D01*
X183453971Y-132062474D01*
X182992953Y-132385282D01*
X182986927Y-132389246D01*
X182506120Y-132685810D01*
X182503023Y-132687658D01*
X161444340Y-144845895D01*
X161376440Y-144862368D01*
X161310413Y-144839515D01*
X161267222Y-144784594D01*
X161260581Y-144715041D01*
X161292597Y-144652938D01*
X161294576Y-144650910D01*
X161354711Y-144590776D01*
X161593990Y-144295291D01*
X161801072Y-143976413D01*
X161973688Y-143637636D01*
X162109946Y-143282671D01*
X162208354Y-142915409D01*
X162267833Y-142539871D01*
X162287732Y-142160174D01*
X162267833Y-141780477D01*
X162208354Y-141404939D01*
X162109946Y-141037677D01*
X161973688Y-140682712D01*
X161801072Y-140343935D01*
X161593990Y-140025057D01*
X161354711Y-139729572D01*
X161085856Y-139460717D01*
X161052184Y-139433450D01*
X160790369Y-139221436D01*
X160471497Y-139014358D01*
X160132719Y-138841741D01*
X159777758Y-138705484D01*
X159777751Y-138705482D01*
X159410489Y-138607074D01*
X159410485Y-138607073D01*
X159410484Y-138607073D01*
X159034952Y-138547595D01*
X158655255Y-138527696D01*
X158655253Y-138527696D01*
X158275555Y-138547595D01*
X157900024Y-138607073D01*
X157900022Y-138607073D01*
X157532749Y-138705484D01*
X157177788Y-138841741D01*
X156839010Y-139014358D01*
X156520138Y-139221436D01*
X156224656Y-139460713D01*
X156224648Y-139460720D01*
X155955800Y-139729568D01*
X155955793Y-139729576D01*
X155716516Y-140025058D01*
X155509438Y-140343930D01*
X155336821Y-140682708D01*
X155200564Y-141037669D01*
X155102153Y-141404942D01*
X155102153Y-141404944D01*
X155042675Y-141780475D01*
X155022776Y-142160173D01*
X155022776Y-142160174D01*
X155042675Y-142539872D01*
X155102153Y-142915403D01*
X155102153Y-142915405D01*
X155200564Y-143282678D01*
X155336821Y-143637639D01*
X155509438Y-143976417D01*
X155716516Y-144295289D01*
X155716518Y-144295291D01*
X155955797Y-144590776D01*
X156224652Y-144859631D01*
X156224656Y-144859634D01*
X156520138Y-145098911D01*
X156839010Y-145305989D01*
X156839015Y-145305992D01*
X157177792Y-145478608D01*
X157532757Y-145614866D01*
X157900019Y-145713274D01*
X158275557Y-145772753D01*
X158634253Y-145791551D01*
X158655253Y-145792652D01*
X158655254Y-145792652D01*
X158655255Y-145792652D01*
X158675154Y-145791609D01*
X159034951Y-145772753D01*
X159247819Y-145739038D01*
X159317113Y-145747993D01*
X159370564Y-145792989D01*
X159391204Y-145859740D01*
X159372479Y-145927054D01*
X159320334Y-145973558D01*
X159312999Y-145976750D01*
X158915232Y-146134773D01*
X158908454Y-146137240D01*
X158374209Y-146314271D01*
X158367299Y-146316340D01*
X157823649Y-146462013D01*
X157816630Y-146463676D01*
X157265460Y-146577485D01*
X157258357Y-146578738D01*
X156701468Y-146660313D01*
X156694304Y-146661150D01*
X156133645Y-146710203D01*
X156126444Y-146710623D01*
X155562520Y-146727035D01*
X155558913Y-146727087D01*
X130106897Y-146727087D01*
X130103291Y-146727035D01*
X129538884Y-146710616D01*
X129531683Y-146710196D01*
X128971025Y-146661148D01*
X128963861Y-146660311D01*
X128406975Y-146578742D01*
X128399871Y-146577489D01*
X127848693Y-146463682D01*
X127841675Y-146462019D01*
X127298028Y-146316351D01*
X127291118Y-146314282D01*
X126756879Y-146137255D01*
X126750100Y-146134788D01*
X126227042Y-145926990D01*
X126220419Y-145924133D01*
X125710342Y-145686278D01*
X125703896Y-145683041D01*
X125207270Y-145415262D01*
X125204121Y-145413504D01*
X125177832Y-145398326D01*
X125177831Y-145398325D01*
X121523808Y-143288674D01*
X120090536Y-142461174D01*
X129804196Y-142461174D01*
X129822378Y-142634169D01*
X129822379Y-142634172D01*
X129876128Y-142799595D01*
X129876131Y-142799602D01*
X129963104Y-142950244D01*
X130079493Y-143079509D01*
X130079500Y-143079515D01*
X130220220Y-143181754D01*
X130220221Y-143181754D01*
X130220225Y-143181757D01*
X130349821Y-143239457D01*
X130379129Y-143252506D01*
X130379134Y-143252508D01*
X130549280Y-143288674D01*
X130723228Y-143288674D01*
X130893374Y-143252508D01*
X131052283Y-143181757D01*
X131193009Y-143079514D01*
X131309403Y-142950245D01*
X131396377Y-142799602D01*
X131450130Y-142634169D01*
X131468312Y-142461174D01*
X140804196Y-142461174D01*
X140822378Y-142634169D01*
X140822379Y-142634172D01*
X140876128Y-142799595D01*
X140876131Y-142799602D01*
X140963104Y-142950244D01*
X141079493Y-143079509D01*
X141079500Y-143079515D01*
X141220220Y-143181754D01*
X141220221Y-143181754D01*
X141220225Y-143181757D01*
X141349821Y-143239457D01*
X141379129Y-143252506D01*
X141379134Y-143252508D01*
X141549280Y-143288674D01*
X141723228Y-143288674D01*
X141893374Y-143252508D01*
X142052283Y-143181757D01*
X142193009Y-143079514D01*
X142309403Y-142950245D01*
X142396377Y-142799602D01*
X142450130Y-142634169D01*
X142468312Y-142461174D01*
X142450130Y-142288179D01*
X142396377Y-142122746D01*
X142309403Y-141972103D01*
X142193014Y-141842838D01*
X142193007Y-141842832D01*
X142052287Y-141740593D01*
X142052284Y-141740591D01*
X142052283Y-141740591D01*
X141994581Y-141714900D01*
X141893378Y-141669841D01*
X141893373Y-141669839D01*
X141723228Y-141633674D01*
X141549280Y-141633674D01*
X141379134Y-141669839D01*
X141379129Y-141669841D01*
X141220225Y-141740591D01*
X141220220Y-141740593D01*
X141079500Y-141842832D01*
X141079493Y-141842838D01*
X140963104Y-141972103D01*
X140876131Y-142122745D01*
X140876128Y-142122752D01*
X140822379Y-142288175D01*
X140822378Y-142288179D01*
X140804196Y-142461174D01*
X131468312Y-142461174D01*
X131450130Y-142288179D01*
X131396377Y-142122746D01*
X131309403Y-141972103D01*
X131193014Y-141842838D01*
X131193007Y-141842832D01*
X131052287Y-141740593D01*
X131052284Y-141740591D01*
X131052283Y-141740591D01*
X130994581Y-141714900D01*
X130893378Y-141669841D01*
X130893373Y-141669839D01*
X130723228Y-141633674D01*
X130549280Y-141633674D01*
X130379134Y-141669839D01*
X130379129Y-141669841D01*
X130220225Y-141740591D01*
X130220220Y-141740593D01*
X130079500Y-141842832D01*
X130079493Y-141842838D01*
X129963104Y-141972103D01*
X129876131Y-142122745D01*
X129876128Y-142122752D01*
X129822379Y-142288175D01*
X129822378Y-142288179D01*
X129804196Y-142461174D01*
X120090536Y-142461174D01*
X114483122Y-139223732D01*
X136758754Y-139223732D01*
X136766152Y-139260923D01*
X136794331Y-139303096D01*
X136836504Y-139331275D01*
X136836506Y-139331276D01*
X136864459Y-139336836D01*
X136873695Y-139338674D01*
X136873696Y-139338674D01*
X140398813Y-139338674D01*
X140406211Y-139337202D01*
X140436002Y-139331276D01*
X140478176Y-139303096D01*
X140506356Y-139260922D01*
X140513754Y-139223732D01*
X140513754Y-136636713D01*
X161633707Y-136636713D01*
X161671222Y-136776724D01*
X162243698Y-137768280D01*
X162346192Y-137870775D01*
X162471723Y-137943249D01*
X162611732Y-137980765D01*
X162611734Y-137980765D01*
X162756680Y-137980765D01*
X162756682Y-137980765D01*
X162896692Y-137943250D01*
X163022222Y-137870775D01*
X163124717Y-137768280D01*
X163197191Y-137642750D01*
X163234707Y-137502741D01*
X163234707Y-137357791D01*
X163197192Y-137217781D01*
X162624717Y-136226224D01*
X162624716Y-136226223D01*
X162624715Y-136226221D01*
X162522223Y-136123731D01*
X162522222Y-136123730D01*
X162396692Y-136051255D01*
X162256682Y-136013740D01*
X162256680Y-136013739D01*
X162256679Y-136013739D01*
X162111734Y-136013739D01*
X162111733Y-136013739D01*
X162041727Y-136032496D01*
X161971721Y-136051254D01*
X161971719Y-136051255D01*
X161846189Y-136123730D01*
X161743699Y-136226222D01*
X161671224Y-136351751D01*
X161671223Y-136351754D01*
X161633708Y-136491764D01*
X161633707Y-136491766D01*
X161633707Y-136636277D01*
X161633707Y-136636713D01*
X140513754Y-136636713D01*
X140513754Y-135698616D01*
X140506356Y-135661426D01*
X140506355Y-135661424D01*
X140478176Y-135619251D01*
X140436003Y-135591072D01*
X140398813Y-135583674D01*
X140398812Y-135583674D01*
X136873696Y-135583674D01*
X136873695Y-135583674D01*
X136836504Y-135591072D01*
X136794331Y-135619251D01*
X136766152Y-135661424D01*
X136758754Y-135698615D01*
X136758754Y-139223732D01*
X114483122Y-139223732D01*
X111501519Y-137502303D01*
X122325049Y-137502303D01*
X122325050Y-137502305D01*
X122362565Y-137642315D01*
X122362566Y-137642318D01*
X122435041Y-137767847D01*
X122537531Y-137870339D01*
X122537533Y-137870340D01*
X122537534Y-137870341D01*
X122663064Y-137942816D01*
X122803075Y-137980331D01*
X122948024Y-137980330D01*
X123088034Y-137942815D01*
X123213564Y-137870340D01*
X123316059Y-137767846D01*
X123888534Y-136776289D01*
X123926049Y-136636279D01*
X123926049Y-136491329D01*
X123888533Y-136351320D01*
X123816059Y-136225790D01*
X123713564Y-136123295D01*
X123588789Y-136051256D01*
X123588036Y-136050821D01*
X123588035Y-136050820D01*
X123588034Y-136050820D01*
X123448024Y-136013305D01*
X123303074Y-136013305D01*
X123209734Y-136038315D01*
X123163064Y-136050821D01*
X123037536Y-136123293D01*
X122935040Y-136225790D01*
X122362565Y-137217343D01*
X122362564Y-137217345D01*
X122325049Y-137357358D01*
X122325049Y-137502303D01*
X111501519Y-137502303D01*
X103223815Y-132723169D01*
X103195042Y-132706556D01*
X103162073Y-132687521D01*
X103158988Y-132685680D01*
X102678401Y-132389251D01*
X102672375Y-132385287D01*
X102397129Y-132192561D01*
X102211343Y-132062474D01*
X102205578Y-132058183D01*
X101764060Y-131709077D01*
X101758545Y-131704448D01*
X101609580Y-131571882D01*
X101338127Y-131330311D01*
X101332880Y-131325362D01*
X100934894Y-130927379D01*
X100929944Y-130922132D01*
X100773952Y-130746846D01*
X100555779Y-130501688D01*
X100551160Y-130496183D01*
X100202065Y-130054685D01*
X100197779Y-130048928D01*
X99874924Y-129587847D01*
X99870985Y-129581856D01*
X99574892Y-129101818D01*
X99573054Y-129098740D01*
X99553696Y-129065211D01*
X99201492Y-128455176D01*
X100447867Y-128455176D01*
X100467401Y-128815465D01*
X100525777Y-129171544D01*
X100525778Y-129171547D01*
X100622304Y-129519204D01*
X100622305Y-129519206D01*
X100755859Y-129854403D01*
X100755865Y-129854415D01*
X100924874Y-130173199D01*
X101127363Y-130471848D01*
X101176246Y-130529398D01*
X101360956Y-130746855D01*
X101622912Y-130994993D01*
X101910162Y-131213354D01*
X101910168Y-131213358D01*
X101910174Y-131213362D01*
X102219339Y-131399380D01*
X102219344Y-131399382D01*
X102546799Y-131550880D01*
X102546803Y-131550880D01*
X102546810Y-131550884D01*
X102888746Y-131666095D01*
X103241134Y-131743662D01*
X103599842Y-131782674D01*
X103599848Y-131782674D01*
X103960660Y-131782674D01*
X103960666Y-131782674D01*
X104319374Y-131743662D01*
X104671762Y-131666095D01*
X105013698Y-131550884D01*
X105013705Y-131550880D01*
X105013708Y-131550880D01*
X105305456Y-131415902D01*
X105341172Y-131399378D01*
X105621409Y-131230765D01*
X105650333Y-131213362D01*
X105650334Y-131213361D01*
X105650346Y-131213354D01*
X105937596Y-130994993D01*
X106193801Y-130752303D01*
X110633707Y-130752303D01*
X110633708Y-130752305D01*
X110671223Y-130892315D01*
X110671224Y-130892318D01*
X110688437Y-130922132D01*
X110730503Y-130994992D01*
X110743699Y-131017847D01*
X110846189Y-131120339D01*
X110846191Y-131120340D01*
X110846192Y-131120341D01*
X110971722Y-131192816D01*
X111111733Y-131230331D01*
X111256682Y-131230330D01*
X111396692Y-131192815D01*
X111522222Y-131120340D01*
X111624717Y-131017846D01*
X112081831Y-130226100D01*
X160029716Y-130226100D01*
X160049577Y-130516471D01*
X160049578Y-130516473D01*
X160108790Y-130801419D01*
X160108795Y-130801438D01*
X160185861Y-131018281D01*
X160206260Y-131075679D01*
X160340162Y-131334098D01*
X160508005Y-131571877D01*
X160508009Y-131571881D01*
X160508009Y-131571882D01*
X160634067Y-131706856D01*
X160704876Y-131782674D01*
X160706665Y-131784589D01*
X160832941Y-131887321D01*
X160932433Y-131968265D01*
X160932435Y-131968266D01*
X160932436Y-131968267D01*
X161181113Y-132119490D01*
X161377567Y-132204822D01*
X161448066Y-132235444D01*
X161728323Y-132313968D01*
X161981818Y-132348810D01*
X162016661Y-132353600D01*
X162016662Y-132353600D01*
X162307713Y-132353600D01*
X162338799Y-132349327D01*
X162596051Y-132313968D01*
X162876308Y-132235444D01*
X163143262Y-132119489D01*
X163391941Y-131968265D01*
X163617712Y-131784586D01*
X163816369Y-131571877D01*
X163984212Y-131334098D01*
X164118114Y-131075679D01*
X164215580Y-130801434D01*
X164274796Y-130516471D01*
X164294658Y-130226100D01*
X164274796Y-129935729D01*
X164264610Y-129886713D01*
X173325049Y-129886713D01*
X173338183Y-129935729D01*
X173362564Y-130026724D01*
X173362565Y-130026726D01*
X173477674Y-130226100D01*
X173935040Y-131018280D01*
X174037534Y-131120775D01*
X174163065Y-131193249D01*
X174303074Y-131230765D01*
X174303076Y-131230765D01*
X174448022Y-131230765D01*
X174448024Y-131230765D01*
X174588034Y-131193250D01*
X174713564Y-131120775D01*
X174816059Y-131018280D01*
X174888533Y-130892750D01*
X174926049Y-130752741D01*
X174926049Y-130607791D01*
X174888534Y-130467781D01*
X174316059Y-129476224D01*
X174316058Y-129476223D01*
X174316057Y-129476221D01*
X174213565Y-129373731D01*
X174213564Y-129373730D01*
X174088034Y-129301255D01*
X173948024Y-129263740D01*
X173948022Y-129263739D01*
X173948021Y-129263739D01*
X173803076Y-129263739D01*
X173803075Y-129263739D01*
X173733069Y-129282496D01*
X173663063Y-129301254D01*
X173663061Y-129301255D01*
X173537531Y-129373730D01*
X173435041Y-129476222D01*
X173362566Y-129601751D01*
X173362565Y-129601754D01*
X173325050Y-129741764D01*
X173325049Y-129741766D01*
X173325049Y-129854403D01*
X173325049Y-129886713D01*
X164264610Y-129886713D01*
X164215580Y-129650766D01*
X164118114Y-129376521D01*
X163984212Y-129118102D01*
X163816369Y-128880323D01*
X163816364Y-128880317D01*
X163660597Y-128713533D01*
X163617712Y-128667614D01*
X163617710Y-128667613D01*
X163617708Y-128667610D01*
X163391937Y-128483932D01*
X163344650Y-128455176D01*
X178447867Y-128455176D01*
X178467401Y-128815465D01*
X178525777Y-129171544D01*
X178525778Y-129171547D01*
X178622304Y-129519204D01*
X178622305Y-129519206D01*
X178755859Y-129854403D01*
X178755865Y-129854415D01*
X178924874Y-130173199D01*
X179127363Y-130471848D01*
X179176246Y-130529398D01*
X179360956Y-130746855D01*
X179622912Y-130994993D01*
X179910162Y-131213354D01*
X179910168Y-131213358D01*
X179910174Y-131213362D01*
X180219339Y-131399380D01*
X180219344Y-131399382D01*
X180546799Y-131550880D01*
X180546803Y-131550880D01*
X180546810Y-131550884D01*
X180888746Y-131666095D01*
X181241134Y-131743662D01*
X181599842Y-131782674D01*
X181599848Y-131782674D01*
X181960660Y-131782674D01*
X181960666Y-131782674D01*
X182319374Y-131743662D01*
X182671762Y-131666095D01*
X183013698Y-131550884D01*
X183013705Y-131550880D01*
X183013708Y-131550880D01*
X183305456Y-131415902D01*
X183341172Y-131399378D01*
X183621409Y-131230765D01*
X183650333Y-131213362D01*
X183650334Y-131213361D01*
X183650346Y-131213354D01*
X183937596Y-130994993D01*
X184199552Y-130746855D01*
X184433144Y-130471849D01*
X184635634Y-130173199D01*
X184804647Y-129854407D01*
X184938201Y-129519210D01*
X185034732Y-129171539D01*
X185093106Y-128815468D01*
X185112641Y-128455174D01*
X185107905Y-128367833D01*
X185095457Y-128138233D01*
X185093106Y-128094880D01*
X185034732Y-127738809D01*
X184991262Y-127582246D01*
X184938203Y-127391143D01*
X184938202Y-127391141D01*
X184862438Y-127200985D01*
X184804647Y-127055941D01*
X184635634Y-126737149D01*
X184433144Y-126438499D01*
X184199552Y-126163493D01*
X183937596Y-125915355D01*
X183937589Y-125915349D01*
X183937586Y-125915347D01*
X183842192Y-125842831D01*
X183650346Y-125696994D01*
X183650340Y-125696990D01*
X183650333Y-125696985D01*
X183341168Y-125510967D01*
X183341163Y-125510965D01*
X183013708Y-125359467D01*
X183013703Y-125359466D01*
X183013700Y-125359465D01*
X183013698Y-125359464D01*
X182904706Y-125322740D01*
X182671764Y-125244253D01*
X182319372Y-125166685D01*
X181960667Y-125127674D01*
X181960666Y-125127674D01*
X181599842Y-125127674D01*
X181599840Y-125127674D01*
X181241135Y-125166685D01*
X180888743Y-125244253D01*
X180546804Y-125359466D01*
X180546799Y-125359467D01*
X180219344Y-125510965D01*
X180219339Y-125510967D01*
X179910174Y-125696985D01*
X179910166Y-125696991D01*
X179622921Y-125915347D01*
X179622912Y-125915355D01*
X179360953Y-126163495D01*
X179360948Y-126163501D01*
X179127363Y-126438499D01*
X178924874Y-126737148D01*
X178755865Y-127055932D01*
X178755859Y-127055944D01*
X178622305Y-127391141D01*
X178622304Y-127391143D01*
X178525778Y-127738800D01*
X178525777Y-127738803D01*
X178467401Y-128094882D01*
X178447867Y-128455171D01*
X178447867Y-128455176D01*
X163344650Y-128455176D01*
X163143260Y-128332709D01*
X162876312Y-128216757D01*
X162596057Y-128138233D01*
X162596052Y-128138232D01*
X162596051Y-128138232D01*
X162451881Y-128118416D01*
X162307713Y-128098600D01*
X162307712Y-128098600D01*
X162016662Y-128098600D01*
X162016661Y-128098600D01*
X161728323Y-128138232D01*
X161728316Y-128138233D01*
X161448061Y-128216757D01*
X161181113Y-128332709D01*
X160932436Y-128483932D01*
X160706665Y-128667610D01*
X160508009Y-128880317D01*
X160508009Y-128880318D01*
X160340162Y-129118101D01*
X160206259Y-129376522D01*
X160108795Y-129650761D01*
X160108790Y-129650780D01*
X160049578Y-129935726D01*
X160049577Y-129935728D01*
X160029716Y-130226100D01*
X112081831Y-130226100D01*
X112197192Y-130026289D01*
X112234707Y-129886279D01*
X112234707Y-129741329D01*
X112197191Y-129601320D01*
X112124717Y-129475790D01*
X112022222Y-129373295D01*
X111897447Y-129301256D01*
X111896694Y-129300821D01*
X111896693Y-129300820D01*
X111896692Y-129300820D01*
X111756682Y-129263305D01*
X111611732Y-129263305D01*
X111518392Y-129288315D01*
X111471722Y-129300821D01*
X111346194Y-129373293D01*
X111243698Y-129475790D01*
X110671223Y-130467343D01*
X110671222Y-130467345D01*
X110633707Y-130607358D01*
X110633707Y-130752303D01*
X106193801Y-130752303D01*
X106199552Y-130746855D01*
X106433144Y-130471849D01*
X106635634Y-130173199D01*
X106804647Y-129854407D01*
X106938201Y-129519210D01*
X107034732Y-129171539D01*
X107093106Y-128815468D01*
X107112641Y-128455174D01*
X107107905Y-128367833D01*
X107095457Y-128138233D01*
X107093106Y-128094880D01*
X107034732Y-127738809D01*
X106991262Y-127582246D01*
X106938203Y-127391143D01*
X106938202Y-127391141D01*
X106862438Y-127200985D01*
X106804647Y-127055941D01*
X106635634Y-126737149D01*
X106560047Y-126625666D01*
X115029716Y-126625666D01*
X115049577Y-126916037D01*
X115049578Y-126916039D01*
X115108790Y-127200985D01*
X115108795Y-127201004D01*
X115176370Y-127391143D01*
X115206260Y-127475245D01*
X115340162Y-127733664D01*
X115508005Y-127971443D01*
X115508009Y-127971447D01*
X115508009Y-127971448D01*
X115706665Y-128184155D01*
X115832941Y-128286887D01*
X115932433Y-128367831D01*
X115932435Y-128367832D01*
X115932436Y-128367833D01*
X116181113Y-128519056D01*
X116448061Y-128635008D01*
X116448066Y-128635010D01*
X116728323Y-128713534D01*
X116981818Y-128748376D01*
X117016661Y-128753166D01*
X117016662Y-128753166D01*
X117307713Y-128753166D01*
X117338799Y-128748893D01*
X117596051Y-128713534D01*
X117876308Y-128635010D01*
X118143262Y-128519055D01*
X118391941Y-128367831D01*
X118617712Y-128184152D01*
X118816369Y-127971443D01*
X118984212Y-127733664D01*
X119118114Y-127475245D01*
X119215580Y-127201000D01*
X119274796Y-126916037D01*
X119294658Y-126625666D01*
X119274796Y-126335295D01*
X119215580Y-126050332D01*
X119118114Y-125776087D01*
X118984212Y-125517668D01*
X118816369Y-125279889D01*
X118816364Y-125279883D01*
X118617708Y-125067176D01*
X118391937Y-124883498D01*
X118143260Y-124732275D01*
X117876312Y-124616323D01*
X117596057Y-124537799D01*
X117596052Y-124537798D01*
X117596051Y-124537798D01*
X117451881Y-124517982D01*
X117307713Y-124498166D01*
X117307712Y-124498166D01*
X117016662Y-124498166D01*
X117016661Y-124498166D01*
X116728323Y-124537798D01*
X116728316Y-124537799D01*
X116448061Y-124616323D01*
X116181113Y-124732275D01*
X115932436Y-124883498D01*
X115706665Y-125067176D01*
X115508009Y-125279883D01*
X115508009Y-125279884D01*
X115340162Y-125517667D01*
X115206259Y-125776088D01*
X115108795Y-126050327D01*
X115108790Y-126050346D01*
X115049578Y-126335292D01*
X115049577Y-126335294D01*
X115029716Y-126625666D01*
X106560047Y-126625666D01*
X106433144Y-126438499D01*
X106199552Y-126163493D01*
X105937596Y-125915355D01*
X105937589Y-125915349D01*
X105937586Y-125915347D01*
X105842192Y-125842831D01*
X105650346Y-125696994D01*
X105650340Y-125696990D01*
X105650333Y-125696985D01*
X105341168Y-125510967D01*
X105341163Y-125510965D01*
X105013708Y-125359467D01*
X105013703Y-125359466D01*
X105013700Y-125359465D01*
X105013698Y-125359464D01*
X104904706Y-125322740D01*
X104671764Y-125244253D01*
X104319372Y-125166685D01*
X103960667Y-125127674D01*
X103960666Y-125127674D01*
X103599842Y-125127674D01*
X103599840Y-125127674D01*
X103241135Y-125166685D01*
X102888743Y-125244253D01*
X102546804Y-125359466D01*
X102546799Y-125359467D01*
X102219344Y-125510965D01*
X102219339Y-125510967D01*
X101910174Y-125696985D01*
X101910166Y-125696991D01*
X101622921Y-125915347D01*
X101622912Y-125915355D01*
X101360953Y-126163495D01*
X101360948Y-126163501D01*
X101127363Y-126438499D01*
X100924874Y-126737148D01*
X100755865Y-127055932D01*
X100755859Y-127055944D01*
X100622305Y-127391141D01*
X100622304Y-127391143D01*
X100525778Y-127738800D01*
X100525777Y-127738803D01*
X100467401Y-128094882D01*
X100447867Y-128455171D01*
X100447867Y-128455176D01*
X99201492Y-128455176D01*
X94967975Y-121122509D01*
X101004229Y-121122509D01*
X101004431Y-121123262D01*
X101041744Y-121262520D01*
X101041745Y-121262522D01*
X101114220Y-121388052D01*
X101216710Y-121490540D01*
X101216714Y-121490544D01*
X101342244Y-121563019D01*
X101482254Y-121600534D01*
X101627203Y-121600535D01*
X101767214Y-121563020D01*
X102758770Y-120990544D01*
X102861265Y-120888050D01*
X102933739Y-120762519D01*
X102971255Y-120622510D01*
X102971255Y-120477560D01*
X102933740Y-120337550D01*
X102861265Y-120212020D01*
X102758770Y-120109525D01*
X102633240Y-120037051D01*
X102633241Y-120037051D01*
X102626236Y-120035174D01*
X167798024Y-120035174D01*
X167816897Y-120226800D01*
X167872792Y-120411058D01*
X167963556Y-120580866D01*
X167963560Y-120580873D01*
X168085712Y-120729715D01*
X168234554Y-120851867D01*
X168234561Y-120851871D01*
X168404369Y-120942635D01*
X168404371Y-120942636D01*
X168588630Y-120998531D01*
X168780254Y-121017404D01*
X168971878Y-120998531D01*
X169156137Y-120942636D01*
X169325952Y-120851868D01*
X169474795Y-120729715D01*
X169596948Y-120580872D01*
X169687716Y-120411057D01*
X169743611Y-120226798D01*
X169762484Y-120035174D01*
X170338024Y-120035174D01*
X170356897Y-120226800D01*
X170412792Y-120411058D01*
X170503556Y-120580866D01*
X170503560Y-120580873D01*
X170625712Y-120729715D01*
X170774554Y-120851867D01*
X170774561Y-120851871D01*
X170944369Y-120942635D01*
X170944371Y-120942636D01*
X171128630Y-120998531D01*
X171320254Y-121017404D01*
X171511878Y-120998531D01*
X171696137Y-120942636D01*
X171865952Y-120851868D01*
X172014795Y-120729715D01*
X172102161Y-120623260D01*
X182588819Y-120623260D01*
X182588820Y-120623262D01*
X182626335Y-120763272D01*
X182698374Y-120888047D01*
X182698811Y-120888803D01*
X182801301Y-120991295D01*
X182801303Y-120991296D01*
X182801304Y-120991297D01*
X183792861Y-121563772D01*
X183932871Y-121601287D01*
X183932873Y-121601287D01*
X184077819Y-121601287D01*
X184077821Y-121601287D01*
X184217830Y-121563771D01*
X184343360Y-121491297D01*
X184445855Y-121388802D01*
X184518330Y-121263272D01*
X184555845Y-121123262D01*
X184555845Y-120978312D01*
X184518329Y-120838303D01*
X184445855Y-120712772D01*
X184343360Y-120610278D01*
X183477336Y-120110278D01*
X183351806Y-120037803D01*
X183351804Y-120037802D01*
X183341996Y-120035174D01*
X183211793Y-120000287D01*
X183211790Y-120000287D01*
X183066846Y-120000287D01*
X183066844Y-120000288D01*
X182926834Y-120037803D01*
X182926831Y-120037804D01*
X182801302Y-120110279D01*
X182698810Y-120212769D01*
X182626335Y-120338299D01*
X182626334Y-120338301D01*
X182588819Y-120478314D01*
X182588819Y-120623259D01*
X182588819Y-120623260D01*
X172102161Y-120623260D01*
X172136948Y-120580872D01*
X172227716Y-120411057D01*
X172283611Y-120226798D01*
X172302484Y-120035174D01*
X172283611Y-119843550D01*
X172227716Y-119659291D01*
X172136948Y-119489476D01*
X172136947Y-119489474D01*
X172014795Y-119340632D01*
X171865953Y-119218480D01*
X171865946Y-119218476D01*
X171696138Y-119127712D01*
X171511880Y-119071817D01*
X171320254Y-119052944D01*
X171128627Y-119071817D01*
X170944369Y-119127712D01*
X170774561Y-119218476D01*
X170774554Y-119218480D01*
X170625712Y-119340632D01*
X170503560Y-119489474D01*
X170503556Y-119489481D01*
X170412792Y-119659289D01*
X170356897Y-119843547D01*
X170338024Y-120035174D01*
X169762484Y-120035174D01*
X169743611Y-119843550D01*
X169687716Y-119659291D01*
X169596948Y-119489476D01*
X169596947Y-119489474D01*
X169474795Y-119340632D01*
X169325953Y-119218480D01*
X169325946Y-119218476D01*
X169156138Y-119127712D01*
X168971880Y-119071817D01*
X168780254Y-119052944D01*
X168588627Y-119071817D01*
X168404369Y-119127712D01*
X168234561Y-119218476D01*
X168234554Y-119218480D01*
X168085712Y-119340632D01*
X167963560Y-119489474D01*
X167963556Y-119489481D01*
X167872792Y-119659289D01*
X167816897Y-119843547D01*
X167798024Y-120035174D01*
X102626236Y-120035174D01*
X102586570Y-120024545D01*
X102493231Y-119999535D01*
X102348281Y-119999535D01*
X102208271Y-120037050D01*
X102208268Y-120037051D01*
X101216711Y-120609526D01*
X101114221Y-120712018D01*
X101041746Y-120837547D01*
X101041745Y-120837550D01*
X101004230Y-120977560D01*
X101004229Y-120977562D01*
X101004229Y-121122507D01*
X101004229Y-121122509D01*
X94967975Y-121122509D01*
X92903813Y-117547276D01*
X111955922Y-117547276D01*
X111974795Y-117738902D01*
X112030690Y-117923160D01*
X112121454Y-118092968D01*
X112121458Y-118092975D01*
X112243610Y-118241817D01*
X112392452Y-118363969D01*
X112392459Y-118363973D01*
X112464791Y-118402635D01*
X112562269Y-118454738D01*
X112746528Y-118510633D01*
X112938152Y-118529506D01*
X113129776Y-118510633D01*
X113314035Y-118454738D01*
X113483850Y-118363970D01*
X113632693Y-118241817D01*
X113754846Y-118092974D01*
X113845614Y-117923159D01*
X113901509Y-117738900D01*
X113920382Y-117547276D01*
X115548024Y-117547276D01*
X115566897Y-117738902D01*
X115622792Y-117923160D01*
X115713556Y-118092968D01*
X115713560Y-118092975D01*
X115835712Y-118241817D01*
X115984554Y-118363969D01*
X115984561Y-118363973D01*
X116056893Y-118402635D01*
X116154371Y-118454738D01*
X116338630Y-118510633D01*
X116530254Y-118529506D01*
X116721878Y-118510633D01*
X116906137Y-118454738D01*
X117075952Y-118363970D01*
X117224795Y-118241817D01*
X117346948Y-118092974D01*
X117437716Y-117923159D01*
X117493611Y-117738900D01*
X117512484Y-117547276D01*
X117507352Y-117495174D01*
X167798024Y-117495174D01*
X167816897Y-117686800D01*
X167872792Y-117871058D01*
X167963556Y-118040866D01*
X167963560Y-118040873D01*
X168085712Y-118189715D01*
X168234554Y-118311867D01*
X168234561Y-118311871D01*
X168404369Y-118402635D01*
X168404371Y-118402636D01*
X168588630Y-118458531D01*
X168780254Y-118477404D01*
X168971878Y-118458531D01*
X169156137Y-118402636D01*
X169325952Y-118311868D01*
X169474795Y-118189715D01*
X169596948Y-118040872D01*
X169687716Y-117871057D01*
X169743611Y-117686798D01*
X169762484Y-117495174D01*
X170338024Y-117495174D01*
X170356897Y-117686800D01*
X170412792Y-117871058D01*
X170503556Y-118040866D01*
X170503560Y-118040873D01*
X170625712Y-118189715D01*
X170774554Y-118311867D01*
X170774561Y-118311871D01*
X170944369Y-118402635D01*
X170944371Y-118402636D01*
X171128630Y-118458531D01*
X171320254Y-118477404D01*
X171511878Y-118458531D01*
X171696137Y-118402636D01*
X171865952Y-118311868D01*
X172014795Y-118189715D01*
X172136948Y-118040872D01*
X172227716Y-117871057D01*
X172283611Y-117686798D01*
X172302484Y-117495174D01*
X172283611Y-117303550D01*
X172227716Y-117119291D01*
X172136948Y-116949476D01*
X172136947Y-116949474D01*
X172014795Y-116800632D01*
X171865953Y-116678480D01*
X171865946Y-116678476D01*
X171696138Y-116587712D01*
X171511880Y-116531817D01*
X171320254Y-116512944D01*
X171128627Y-116531817D01*
X170944369Y-116587712D01*
X170774561Y-116678476D01*
X170774554Y-116678480D01*
X170625712Y-116800632D01*
X170503560Y-116949474D01*
X170503556Y-116949481D01*
X170412792Y-117119289D01*
X170356897Y-117303547D01*
X170338024Y-117495174D01*
X169762484Y-117495174D01*
X169743611Y-117303550D01*
X169687716Y-117119291D01*
X169596948Y-116949476D01*
X169596947Y-116949474D01*
X169474795Y-116800632D01*
X169325953Y-116678480D01*
X169325946Y-116678476D01*
X169156138Y-116587712D01*
X168971880Y-116531817D01*
X168780254Y-116512944D01*
X168588627Y-116531817D01*
X168404369Y-116587712D01*
X168234561Y-116678476D01*
X168234554Y-116678480D01*
X168085712Y-116800632D01*
X167963560Y-116949474D01*
X167963556Y-116949481D01*
X167872792Y-117119289D01*
X167816897Y-117303547D01*
X167798024Y-117495174D01*
X117507352Y-117495174D01*
X117493611Y-117355652D01*
X117437716Y-117171393D01*
X117346948Y-117001578D01*
X117346947Y-117001576D01*
X117224795Y-116852734D01*
X117075953Y-116730582D01*
X117075946Y-116730578D01*
X116906138Y-116639814D01*
X116721880Y-116583919D01*
X116530254Y-116565046D01*
X116338627Y-116583919D01*
X116154369Y-116639814D01*
X115984561Y-116730578D01*
X115984554Y-116730582D01*
X115835712Y-116852734D01*
X115713560Y-117001576D01*
X115713556Y-117001583D01*
X115622792Y-117171391D01*
X115566897Y-117355649D01*
X115548024Y-117547276D01*
X113920382Y-117547276D01*
X113901509Y-117355652D01*
X113845614Y-117171393D01*
X113754846Y-117001578D01*
X113754845Y-117001576D01*
X113632693Y-116852734D01*
X113483851Y-116730582D01*
X113483844Y-116730578D01*
X113314036Y-116639814D01*
X113129778Y-116583919D01*
X112938152Y-116565046D01*
X112746525Y-116583919D01*
X112562267Y-116639814D01*
X112392459Y-116730578D01*
X112392452Y-116730582D01*
X112243610Y-116852734D01*
X112121458Y-117001576D01*
X112121454Y-117001583D01*
X112030690Y-117171391D01*
X111974795Y-117355649D01*
X111955922Y-117547276D01*
X92903813Y-117547276D01*
X91866863Y-115751225D01*
X113751973Y-115751225D01*
X113770846Y-115942851D01*
X113826741Y-116127109D01*
X113917505Y-116296917D01*
X113917509Y-116296924D01*
X114039661Y-116445766D01*
X114188503Y-116567918D01*
X114188510Y-116567922D01*
X114225535Y-116587712D01*
X114358320Y-116658687D01*
X114542579Y-116714582D01*
X114734203Y-116733455D01*
X114925827Y-116714582D01*
X115110086Y-116658687D01*
X115279901Y-116567919D01*
X115428744Y-116445766D01*
X115550897Y-116296923D01*
X115641665Y-116127108D01*
X115697560Y-115942849D01*
X115716433Y-115751225D01*
X117344075Y-115751225D01*
X117362948Y-115942851D01*
X117418843Y-116127109D01*
X117509607Y-116296917D01*
X117509611Y-116296924D01*
X117631763Y-116445766D01*
X117780605Y-116567918D01*
X117780612Y-116567922D01*
X117817637Y-116587712D01*
X117950422Y-116658687D01*
X118134681Y-116714582D01*
X118326305Y-116733455D01*
X118517929Y-116714582D01*
X118702188Y-116658687D01*
X118872003Y-116567919D01*
X119020846Y-116445766D01*
X119142999Y-116296923D01*
X119233767Y-116127108D01*
X119289662Y-115942849D01*
X119308535Y-115751225D01*
X119289662Y-115559601D01*
X119233767Y-115375342D01*
X119142999Y-115205527D01*
X119142998Y-115205525D01*
X119034079Y-115072807D01*
X177818709Y-115072807D01*
X177838570Y-115363178D01*
X177838571Y-115363180D01*
X177897783Y-115648126D01*
X177897788Y-115648145D01*
X177995252Y-115922384D01*
X177995253Y-115922386D01*
X178129155Y-116180805D01*
X178296998Y-116418584D01*
X178297002Y-116418588D01*
X178297002Y-116418589D01*
X178495658Y-116631296D01*
X178617692Y-116730578D01*
X178721426Y-116814972D01*
X178721428Y-116814973D01*
X178721429Y-116814974D01*
X178970106Y-116966197D01*
X179237054Y-117082149D01*
X179237059Y-117082151D01*
X179517316Y-117160675D01*
X179770811Y-117195517D01*
X179805654Y-117200307D01*
X179805655Y-117200307D01*
X180096706Y-117200307D01*
X180127792Y-117196034D01*
X180385044Y-117160675D01*
X180665301Y-117082151D01*
X180932255Y-116966196D01*
X181180934Y-116814972D01*
X181406705Y-116631293D01*
X181605362Y-116418584D01*
X181773205Y-116180805D01*
X181907107Y-115922386D01*
X182004573Y-115648141D01*
X182063789Y-115363178D01*
X182083651Y-115072807D01*
X182063789Y-114782436D01*
X182004573Y-114497473D01*
X181907107Y-114223228D01*
X181773205Y-113964809D01*
X181605362Y-113727030D01*
X181605357Y-113727024D01*
X181406701Y-113514317D01*
X181180930Y-113330639D01*
X180932253Y-113179416D01*
X180665305Y-113063464D01*
X180385050Y-112984940D01*
X180385045Y-112984939D01*
X180385044Y-112984939D01*
X180240874Y-112965123D01*
X180096706Y-112945307D01*
X180096705Y-112945307D01*
X179805655Y-112945307D01*
X179805654Y-112945307D01*
X179517316Y-112984939D01*
X179517309Y-112984940D01*
X179237054Y-113063464D01*
X178970106Y-113179416D01*
X178721429Y-113330639D01*
X178495658Y-113514317D01*
X178297002Y-113727024D01*
X178297002Y-113727025D01*
X178129155Y-113964808D01*
X177995252Y-114223229D01*
X177897788Y-114497468D01*
X177897783Y-114497487D01*
X177838571Y-114782433D01*
X177838570Y-114782435D01*
X177818709Y-115072807D01*
X119034079Y-115072807D01*
X119020846Y-115056683D01*
X118872004Y-114934531D01*
X118871997Y-114934527D01*
X118702189Y-114843763D01*
X118517931Y-114787868D01*
X118326305Y-114768995D01*
X118134678Y-114787868D01*
X117950420Y-114843763D01*
X117780612Y-114934527D01*
X117780605Y-114934531D01*
X117631763Y-115056683D01*
X117509611Y-115205525D01*
X117509607Y-115205532D01*
X117418843Y-115375340D01*
X117362948Y-115559598D01*
X117344075Y-115751225D01*
X115716433Y-115751225D01*
X115697560Y-115559601D01*
X115641665Y-115375342D01*
X115550897Y-115205527D01*
X115550896Y-115205525D01*
X115428744Y-115056683D01*
X115279902Y-114934531D01*
X115279895Y-114934527D01*
X115110087Y-114843763D01*
X114925829Y-114787868D01*
X114734203Y-114768995D01*
X114542576Y-114787868D01*
X114358318Y-114843763D01*
X114188510Y-114934527D01*
X114188503Y-114934531D01*
X114039661Y-115056683D01*
X113917509Y-115205525D01*
X113917505Y-115205532D01*
X113826741Y-115375340D01*
X113770846Y-115559598D01*
X113751973Y-115751225D01*
X91866863Y-115751225D01*
X88217976Y-109431167D01*
X94254229Y-109431167D01*
X94275227Y-109509534D01*
X94291744Y-109571178D01*
X94291745Y-109571180D01*
X94364220Y-109696710D01*
X94466710Y-109799198D01*
X94466714Y-109799202D01*
X94592244Y-109871677D01*
X94732254Y-109909192D01*
X94877203Y-109909193D01*
X95017214Y-109871678D01*
X96008770Y-109299202D01*
X96111265Y-109196708D01*
X96183739Y-109071177D01*
X96221255Y-108931168D01*
X96221255Y-108836673D01*
X99876423Y-108836673D01*
X99896284Y-109127044D01*
X99896285Y-109127046D01*
X99955497Y-109411992D01*
X99955502Y-109412011D01*
X100032295Y-109628087D01*
X100052967Y-109686252D01*
X100186869Y-109944671D01*
X100354712Y-110182450D01*
X100354716Y-110182454D01*
X100354716Y-110182455D01*
X100553372Y-110395162D01*
X100679648Y-110497894D01*
X100779140Y-110578838D01*
X100779142Y-110578839D01*
X100779143Y-110578840D01*
X101027820Y-110730063D01*
X101294768Y-110846015D01*
X101294773Y-110846017D01*
X101575030Y-110924541D01*
X101828525Y-110959383D01*
X101863368Y-110964173D01*
X101863369Y-110964173D01*
X102154420Y-110964173D01*
X102185506Y-110959900D01*
X102442758Y-110924541D01*
X102723015Y-110846017D01*
X102989969Y-110730062D01*
X103238648Y-110578838D01*
X103464419Y-110395159D01*
X103663076Y-110182450D01*
X103830919Y-109944671D01*
X103964821Y-109686252D01*
X104062287Y-109412007D01*
X104121503Y-109127044D01*
X104141365Y-108836673D01*
X104121503Y-108546302D01*
X104062287Y-108261339D01*
X103964821Y-107987094D01*
X103830919Y-107728675D01*
X103663076Y-107490896D01*
X103663071Y-107490890D01*
X103464415Y-107278183D01*
X103238644Y-107094505D01*
X102989967Y-106943282D01*
X102723019Y-106827330D01*
X102442764Y-106748806D01*
X102442759Y-106748805D01*
X102442758Y-106748805D01*
X102298588Y-106728989D01*
X102154420Y-106709173D01*
X102154419Y-106709173D01*
X101863369Y-106709173D01*
X101863368Y-106709173D01*
X101575030Y-106748805D01*
X101575023Y-106748806D01*
X101294768Y-106827330D01*
X101027820Y-106943282D01*
X100779143Y-107094505D01*
X100553372Y-107278183D01*
X100354716Y-107490890D01*
X100354716Y-107490891D01*
X100354713Y-107490893D01*
X100354712Y-107490896D01*
X100354456Y-107491259D01*
X100186869Y-107728674D01*
X100052966Y-107987095D01*
X99955502Y-108261334D01*
X99955497Y-108261353D01*
X99896285Y-108546299D01*
X99896284Y-108546301D01*
X99876423Y-108836673D01*
X96221255Y-108836673D01*
X96221255Y-108786218D01*
X96183740Y-108646208D01*
X96111265Y-108520678D01*
X96008770Y-108418183D01*
X95883240Y-108345709D01*
X95883241Y-108345709D01*
X95836570Y-108333203D01*
X95743231Y-108308193D01*
X95598281Y-108308193D01*
X95458271Y-108345708D01*
X95458268Y-108345709D01*
X94466711Y-108918184D01*
X94364221Y-109020676D01*
X94291746Y-109146205D01*
X94291745Y-109146208D01*
X94254230Y-109286218D01*
X94254229Y-109286220D01*
X94254229Y-109391214D01*
X94254229Y-109431167D01*
X88217976Y-109431167D01*
X86846932Y-107056449D01*
X86845214Y-107053370D01*
X86577222Y-106556344D01*
X86573990Y-106549907D01*
X86515486Y-106424444D01*
X86336128Y-106039806D01*
X86333290Y-106033226D01*
X86125487Y-105510150D01*
X86123021Y-105503374D01*
X85945991Y-104969122D01*
X85943925Y-104962220D01*
X85798257Y-104418572D01*
X85796594Y-104411554D01*
X85756787Y-104218767D01*
X85682787Y-103860378D01*
X85681534Y-103853274D01*
X85599964Y-103296389D01*
X85599127Y-103289225D01*
X85583472Y-103110282D01*
X85550077Y-102728556D01*
X85549658Y-102721366D01*
X85545166Y-102566965D01*
X85533218Y-102156315D01*
X85533167Y-102152764D01*
X85533167Y-96276781D01*
X90729754Y-96276781D01*
X90767270Y-96416791D01*
X90767271Y-96416794D01*
X90839742Y-96542317D01*
X90839744Y-96542319D01*
X90839745Y-96542321D01*
X90942239Y-96644815D01*
X90942240Y-96644816D01*
X90942242Y-96644817D01*
X91067765Y-96717288D01*
X91067766Y-96717288D01*
X91067769Y-96717290D01*
X91207779Y-96754806D01*
X91207782Y-96754806D01*
X92352726Y-96754806D01*
X92352729Y-96754806D01*
X92492739Y-96717290D01*
X92618269Y-96644815D01*
X92720763Y-96542321D01*
X92793238Y-96416791D01*
X92830754Y-96276781D01*
X92830754Y-96131831D01*
X92793238Y-95991821D01*
X92721262Y-95867156D01*
X92720765Y-95866294D01*
X92720760Y-95866288D01*
X92618271Y-95763799D01*
X92618265Y-95763794D01*
X92492742Y-95691323D01*
X92492743Y-95691323D01*
X92481260Y-95688246D01*
X92352729Y-95653806D01*
X91207779Y-95653806D01*
X91079247Y-95688246D01*
X91067765Y-95691323D01*
X90942242Y-95763794D01*
X90942236Y-95763799D01*
X90839747Y-95866288D01*
X90839742Y-95866294D01*
X90767271Y-95991817D01*
X90767270Y-95991821D01*
X90729754Y-96131831D01*
X90729754Y-96276781D01*
X85533167Y-96276781D01*
X85533167Y-89427587D01*
X122627222Y-89427587D01*
X122646999Y-90321348D01*
X122706290Y-91213348D01*
X122804978Y-92101853D01*
X122942872Y-92985128D01*
X123119704Y-93861444D01*
X123335118Y-94729060D01*
X123335121Y-94729070D01*
X123434350Y-95064516D01*
X123588713Y-95586339D01*
X123874889Y-96416791D01*
X123879965Y-96431520D01*
X124007632Y-96754806D01*
X124208325Y-97263015D01*
X124573136Y-98079151D01*
X124973697Y-98878365D01*
X125409215Y-99659075D01*
X125878843Y-100419760D01*
X126381661Y-101158930D01*
X126916675Y-101875126D01*
X127482853Y-102566965D01*
X127910356Y-103044580D01*
X128079074Y-103233075D01*
X128704177Y-103872163D01*
X129356938Y-104482976D01*
X130036078Y-105064317D01*
X130740268Y-105615048D01*
X131468129Y-106134091D01*
X132114514Y-106553181D01*
X132218245Y-106620436D01*
X132369358Y-106709173D01*
X132989123Y-107073115D01*
X133779278Y-107491257D01*
X134394298Y-107782660D01*
X134587147Y-107874034D01*
X134587151Y-107874036D01*
X134587156Y-107874038D01*
X135411175Y-108220710D01*
X136249721Y-108530593D01*
X136249727Y-108530595D01*
X136249730Y-108530596D01*
X137050819Y-108786972D01*
X137101155Y-108803081D01*
X137963807Y-109037641D01*
X138835991Y-109233813D01*
X139128980Y-109286218D01*
X139716005Y-109391215D01*
X139855376Y-109409824D01*
X140602107Y-109509534D01*
X141492582Y-109588544D01*
X142385680Y-109628087D01*
X142385688Y-109628087D01*
X143279646Y-109628087D01*
X143279654Y-109628087D01*
X144172752Y-109588544D01*
X145063227Y-109509534D01*
X145949335Y-109391214D01*
X146829343Y-109233813D01*
X147701527Y-109037641D01*
X148090349Y-108931918D01*
X189338819Y-108931918D01*
X189338820Y-108931920D01*
X189376335Y-109071930D01*
X189448374Y-109196705D01*
X189448811Y-109197461D01*
X189551301Y-109299953D01*
X189551303Y-109299954D01*
X189551304Y-109299955D01*
X190542861Y-109872430D01*
X190682871Y-109909945D01*
X190682873Y-109909945D01*
X190827819Y-109909945D01*
X190827821Y-109909945D01*
X190967830Y-109872429D01*
X191093360Y-109799955D01*
X191195855Y-109697460D01*
X191268330Y-109571930D01*
X191305845Y-109431920D01*
X191305845Y-109286970D01*
X191268329Y-109146961D01*
X191195855Y-109021430D01*
X191093360Y-108918936D01*
X190227336Y-108418936D01*
X190101806Y-108346461D01*
X190101804Y-108346460D01*
X190098997Y-108345708D01*
X189961793Y-108308945D01*
X189961790Y-108308945D01*
X189816846Y-108308945D01*
X189816844Y-108308946D01*
X189676834Y-108346461D01*
X189676831Y-108346462D01*
X189551302Y-108418937D01*
X189448810Y-108521427D01*
X189376335Y-108646957D01*
X189376334Y-108646959D01*
X189338819Y-108786972D01*
X189338819Y-108931917D01*
X189338819Y-108931918D01*
X148090349Y-108931918D01*
X148564179Y-108803081D01*
X149415613Y-108530593D01*
X150254159Y-108220710D01*
X151078178Y-107874038D01*
X151886056Y-107491257D01*
X152676211Y-107073115D01*
X153447097Y-106620431D01*
X154197205Y-106134091D01*
X154925066Y-105615048D01*
X155629256Y-105064317D01*
X156308396Y-104482976D01*
X156961157Y-103872163D01*
X157586260Y-103233075D01*
X158182483Y-102566962D01*
X158748657Y-101875128D01*
X159283675Y-101158927D01*
X159786490Y-100419761D01*
X160256117Y-99659078D01*
X160691636Y-98878366D01*
X161092196Y-98079154D01*
X161457012Y-97263006D01*
X161785369Y-96431520D01*
X161838393Y-96277649D01*
X192729754Y-96277649D01*
X192767038Y-96416794D01*
X192767271Y-96417662D01*
X192839742Y-96543185D01*
X192839744Y-96543187D01*
X192839745Y-96543189D01*
X192942239Y-96645683D01*
X192942240Y-96645684D01*
X192942242Y-96645685D01*
X193067765Y-96718156D01*
X193067766Y-96718156D01*
X193067769Y-96718158D01*
X193207779Y-96755674D01*
X193207782Y-96755674D01*
X194352726Y-96755674D01*
X194352729Y-96755674D01*
X194492739Y-96718158D01*
X194618269Y-96645683D01*
X194720763Y-96543189D01*
X194793238Y-96417659D01*
X194830754Y-96277649D01*
X194830754Y-96132699D01*
X194793238Y-95992689D01*
X194720763Y-95867159D01*
X194618269Y-95764665D01*
X194618267Y-95764664D01*
X194618265Y-95764662D01*
X194492742Y-95692191D01*
X194492743Y-95692191D01*
X194481260Y-95689114D01*
X194352729Y-95654674D01*
X193207779Y-95654674D01*
X193079247Y-95689114D01*
X193067765Y-95692191D01*
X192942242Y-95764662D01*
X192942236Y-95764667D01*
X192839747Y-95867156D01*
X192839742Y-95867162D01*
X192767271Y-95992685D01*
X192767270Y-95992689D01*
X192729754Y-96132699D01*
X192729754Y-96277649D01*
X161838393Y-96277649D01*
X162076626Y-95586323D01*
X162330213Y-94729070D01*
X162545631Y-93861440D01*
X162708327Y-93055174D01*
X185647783Y-93055174D01*
X185667644Y-93345545D01*
X185667645Y-93345547D01*
X185726857Y-93630493D01*
X185726862Y-93630512D01*
X185808935Y-93861444D01*
X185824327Y-93904753D01*
X185958229Y-94163172D01*
X186126072Y-94400951D01*
X186126076Y-94400955D01*
X186126076Y-94400956D01*
X186324732Y-94613663D01*
X186424689Y-94694984D01*
X186550500Y-94797339D01*
X186550502Y-94797340D01*
X186550503Y-94797341D01*
X186799180Y-94948564D01*
X187066128Y-95064516D01*
X187066133Y-95064518D01*
X187346390Y-95143042D01*
X187599885Y-95177884D01*
X187634728Y-95182674D01*
X187634729Y-95182674D01*
X187925780Y-95182674D01*
X187956866Y-95178401D01*
X188214118Y-95143042D01*
X188494375Y-95064518D01*
X188761329Y-94948563D01*
X189010008Y-94797339D01*
X189235779Y-94613660D01*
X189434436Y-94400951D01*
X189602279Y-94163172D01*
X189736181Y-93904753D01*
X189833647Y-93630508D01*
X189892863Y-93345545D01*
X189912725Y-93055174D01*
X189892863Y-92764803D01*
X189833647Y-92479840D01*
X189736181Y-92205595D01*
X189602279Y-91947176D01*
X189434436Y-91709397D01*
X189434431Y-91709391D01*
X189235775Y-91496684D01*
X189010004Y-91313006D01*
X188761327Y-91161783D01*
X188494379Y-91045831D01*
X188214124Y-90967307D01*
X188214119Y-90967306D01*
X188214118Y-90967306D01*
X188069948Y-90947490D01*
X187925780Y-90927674D01*
X187925779Y-90927674D01*
X187634729Y-90927674D01*
X187634728Y-90927674D01*
X187346390Y-90967306D01*
X187346383Y-90967307D01*
X187066128Y-91045831D01*
X186799180Y-91161783D01*
X186550503Y-91313006D01*
X186324732Y-91496684D01*
X186126076Y-91709391D01*
X186126076Y-91709392D01*
X185958229Y-91947175D01*
X185824326Y-92205596D01*
X185726862Y-92479835D01*
X185726857Y-92479854D01*
X185667645Y-92764800D01*
X185667644Y-92764802D01*
X185647783Y-93055174D01*
X162708327Y-93055174D01*
X162722461Y-92985130D01*
X162860355Y-92101856D01*
X162959044Y-91213346D01*
X163018335Y-90321341D01*
X163038112Y-89427587D01*
X163018335Y-88533833D01*
X162959044Y-87641828D01*
X162860355Y-86753318D01*
X162722461Y-85870044D01*
X162545631Y-84993734D01*
X162330213Y-84126104D01*
X162076626Y-83268851D01*
X161907357Y-82777649D01*
X192729754Y-82777649D01*
X192767038Y-82916794D01*
X192767271Y-82917662D01*
X192839742Y-83043185D01*
X192839744Y-83043187D01*
X192839745Y-83043189D01*
X192942239Y-83145683D01*
X192942240Y-83145684D01*
X192942242Y-83145685D01*
X193067765Y-83218156D01*
X193067766Y-83218156D01*
X193067769Y-83218158D01*
X193207779Y-83255674D01*
X193207782Y-83255674D01*
X194352726Y-83255674D01*
X194352729Y-83255674D01*
X194492739Y-83218158D01*
X194618269Y-83145683D01*
X194720763Y-83043189D01*
X194793238Y-82917659D01*
X194830754Y-82777649D01*
X194830754Y-82632699D01*
X194793238Y-82492689D01*
X194720763Y-82367159D01*
X194618269Y-82264665D01*
X194618267Y-82264664D01*
X194618265Y-82264662D01*
X194492742Y-82192191D01*
X194492743Y-82192191D01*
X194481260Y-82189114D01*
X194352729Y-82154674D01*
X193207779Y-82154674D01*
X193079247Y-82189114D01*
X193067765Y-82192191D01*
X192942242Y-82264662D01*
X192942236Y-82264667D01*
X192839747Y-82367156D01*
X192839742Y-82367162D01*
X192767271Y-82492685D01*
X192767270Y-82492689D01*
X192729754Y-82632699D01*
X192729754Y-82777649D01*
X161907357Y-82777649D01*
X161785369Y-82423654D01*
X161457012Y-81592168D01*
X161092196Y-80776020D01*
X160691636Y-79976808D01*
X160256117Y-79196096D01*
X159786490Y-78435413D01*
X159283675Y-77696247D01*
X158748657Y-76980046D01*
X158519476Y-76699999D01*
X158182480Y-76288208D01*
X157586266Y-75622106D01*
X157586260Y-75622099D01*
X156961157Y-74983011D01*
X156308396Y-74372198D01*
X155629256Y-73790857D01*
X154925066Y-73240126D01*
X154197205Y-72721083D01*
X153447097Y-72234743D01*
X153447088Y-72234737D01*
X152676216Y-71782062D01*
X152676214Y-71782061D01*
X152676211Y-71782059D01*
X151886056Y-71363917D01*
X151585261Y-71221397D01*
X151078186Y-70981139D01*
X150254155Y-70634462D01*
X149415603Y-70324577D01*
X148628906Y-70072807D01*
X181419143Y-70072807D01*
X181439004Y-70363178D01*
X181439005Y-70363180D01*
X181498217Y-70648126D01*
X181498221Y-70648141D01*
X181595687Y-70922386D01*
X181729589Y-71180805D01*
X181897432Y-71418584D01*
X181897436Y-71418588D01*
X181897436Y-71418589D01*
X182096092Y-71631296D01*
X182222368Y-71734028D01*
X182321860Y-71814972D01*
X182321862Y-71814973D01*
X182321863Y-71814974D01*
X182570540Y-71966197D01*
X182837488Y-72082149D01*
X182837493Y-72082151D01*
X183117750Y-72160675D01*
X183371245Y-72195517D01*
X183406088Y-72200307D01*
X183406089Y-72200307D01*
X183697140Y-72200307D01*
X183728226Y-72196034D01*
X183985478Y-72160675D01*
X184265735Y-72082151D01*
X184532689Y-71966196D01*
X184781368Y-71814972D01*
X185007139Y-71631293D01*
X185205796Y-71418584D01*
X185373639Y-71180805D01*
X185507541Y-70922386D01*
X185605007Y-70648141D01*
X185664223Y-70363178D01*
X185680634Y-70123261D01*
X189339253Y-70123261D01*
X189339586Y-70124502D01*
X189376768Y-70263272D01*
X189376769Y-70263274D01*
X189449244Y-70388804D01*
X189550985Y-70490543D01*
X189551738Y-70491296D01*
X189677268Y-70563771D01*
X189817278Y-70601286D01*
X189962227Y-70601287D01*
X190102238Y-70563772D01*
X191093794Y-69991296D01*
X191196289Y-69888802D01*
X191268763Y-69763271D01*
X191306279Y-69623262D01*
X191306279Y-69478312D01*
X191268764Y-69338302D01*
X191196289Y-69212772D01*
X191093794Y-69110277D01*
X190968264Y-69037803D01*
X190968265Y-69037803D01*
X190921594Y-69025297D01*
X190828255Y-69000287D01*
X190683305Y-69000287D01*
X190543295Y-69037802D01*
X190543292Y-69037803D01*
X189551735Y-69610278D01*
X189449245Y-69712770D01*
X189376770Y-69838299D01*
X189376769Y-69838302D01*
X189339254Y-69978312D01*
X189339253Y-69978314D01*
X189339253Y-70052093D01*
X189339253Y-70123261D01*
X185680634Y-70123261D01*
X185684085Y-70072807D01*
X185664223Y-69782436D01*
X185605007Y-69497473D01*
X185507541Y-69223228D01*
X185373639Y-68964809D01*
X185205796Y-68727030D01*
X185205791Y-68727024D01*
X185007135Y-68514317D01*
X184781364Y-68330639D01*
X184532687Y-68179416D01*
X184265739Y-68063464D01*
X183985484Y-67984940D01*
X183985479Y-67984939D01*
X183985478Y-67984939D01*
X183841308Y-67965123D01*
X183697140Y-67945307D01*
X183697139Y-67945307D01*
X183406089Y-67945307D01*
X183406088Y-67945307D01*
X183117750Y-67984939D01*
X183117743Y-67984940D01*
X182837488Y-68063464D01*
X182570540Y-68179416D01*
X182321863Y-68330639D01*
X182096092Y-68514317D01*
X181897436Y-68727024D01*
X181897436Y-68727025D01*
X181729589Y-68964808D01*
X181595686Y-69223229D01*
X181498222Y-69497468D01*
X181498217Y-69497487D01*
X181439005Y-69782433D01*
X181439004Y-69782435D01*
X181419143Y-70072807D01*
X148628906Y-70072807D01*
X148564194Y-70052097D01*
X147701524Y-69817532D01*
X146829342Y-69621360D01*
X145949328Y-69463958D01*
X145202604Y-69364250D01*
X145063227Y-69345640D01*
X144495766Y-69295290D01*
X144172755Y-69266630D01*
X143929179Y-69255845D01*
X143279654Y-69227087D01*
X142385680Y-69227087D01*
X141790281Y-69253449D01*
X141492578Y-69266630D01*
X141061896Y-69304843D01*
X140602107Y-69345640D01*
X140602100Y-69345641D01*
X139716005Y-69463958D01*
X138835991Y-69621360D01*
X137963809Y-69817532D01*
X137101139Y-70052097D01*
X136249730Y-70324577D01*
X135411178Y-70634462D01*
X134587147Y-70981139D01*
X133779284Y-71363914D01*
X133779278Y-71363917D01*
X133398895Y-71565212D01*
X132989117Y-71782062D01*
X132218245Y-72234737D01*
X131468122Y-72721087D01*
X130740270Y-73240124D01*
X130036075Y-73790859D01*
X129356939Y-74372196D01*
X128704179Y-74983009D01*
X128079067Y-75622106D01*
X127482853Y-76288208D01*
X126916675Y-76980047D01*
X126381661Y-77696243D01*
X125878843Y-78435413D01*
X125409215Y-79196098D01*
X124973697Y-79976808D01*
X124573136Y-80776022D01*
X124208325Y-81592158D01*
X123879960Y-82423667D01*
X123588713Y-83268834D01*
X123335118Y-84126113D01*
X123119704Y-84993729D01*
X122942872Y-85870045D01*
X122804978Y-86753320D01*
X122706290Y-87641825D01*
X122646999Y-88533825D01*
X122627222Y-89427587D01*
X85533167Y-89427587D01*
X85533167Y-85854306D01*
X95647783Y-85854306D01*
X95667644Y-86144677D01*
X95667645Y-86144679D01*
X95726857Y-86429625D01*
X95726861Y-86429640D01*
X95824327Y-86703885D01*
X95958229Y-86962304D01*
X96126072Y-87200083D01*
X96126076Y-87200087D01*
X96126076Y-87200088D01*
X96324732Y-87412795D01*
X96451008Y-87515527D01*
X96550500Y-87596471D01*
X96550502Y-87596472D01*
X96550503Y-87596473D01*
X96799180Y-87747696D01*
X97066128Y-87863648D01*
X97066133Y-87863650D01*
X97346390Y-87942174D01*
X97599885Y-87977016D01*
X97634728Y-87981806D01*
X97634729Y-87981806D01*
X97925780Y-87981806D01*
X97956866Y-87977533D01*
X98214118Y-87942174D01*
X98494375Y-87863650D01*
X98761329Y-87747695D01*
X99010008Y-87596471D01*
X99235779Y-87412792D01*
X99434436Y-87200083D01*
X99602279Y-86962304D01*
X99736181Y-86703885D01*
X99833647Y-86429640D01*
X99892863Y-86144677D01*
X99912725Y-85854306D01*
X99892863Y-85563935D01*
X99833647Y-85278972D01*
X99736181Y-85004727D01*
X99602279Y-84746308D01*
X99434436Y-84508529D01*
X99434431Y-84508523D01*
X99235775Y-84295816D01*
X99010004Y-84112138D01*
X98761327Y-83960915D01*
X98494379Y-83844963D01*
X98214124Y-83766439D01*
X98214119Y-83766438D01*
X98214118Y-83766438D01*
X98069948Y-83746622D01*
X97925780Y-83726806D01*
X97925779Y-83726806D01*
X97634729Y-83726806D01*
X97634728Y-83726806D01*
X97346390Y-83766438D01*
X97346383Y-83766439D01*
X97066128Y-83844963D01*
X96799180Y-83960915D01*
X96550503Y-84112138D01*
X96324732Y-84295816D01*
X96126076Y-84508523D01*
X96126076Y-84508524D01*
X95958229Y-84746307D01*
X95824326Y-85004728D01*
X95726862Y-85278967D01*
X95726857Y-85278986D01*
X95667645Y-85563932D01*
X95667644Y-85563934D01*
X95647783Y-85854306D01*
X85533167Y-85854306D01*
X85533167Y-82776781D01*
X90729754Y-82776781D01*
X90729987Y-82777649D01*
X90767271Y-82916794D01*
X90839742Y-83042317D01*
X90839744Y-83042319D01*
X90839745Y-83042321D01*
X90942239Y-83144815D01*
X90942240Y-83144816D01*
X90942242Y-83144817D01*
X91067765Y-83217288D01*
X91067766Y-83217288D01*
X91067769Y-83217290D01*
X91207779Y-83254806D01*
X91207782Y-83254806D01*
X92352726Y-83254806D01*
X92352729Y-83254806D01*
X92492739Y-83217290D01*
X92618269Y-83144815D01*
X92720763Y-83042321D01*
X92793238Y-82916791D01*
X92830754Y-82776781D01*
X92830754Y-82631831D01*
X92793238Y-82491821D01*
X92721262Y-82367156D01*
X92720765Y-82366294D01*
X92720760Y-82366288D01*
X92618271Y-82263799D01*
X92618265Y-82263794D01*
X92492742Y-82191323D01*
X92492743Y-82191323D01*
X92481260Y-82188246D01*
X92352729Y-82153806D01*
X91207779Y-82153806D01*
X91079247Y-82188246D01*
X91067765Y-82191323D01*
X90942242Y-82263794D01*
X90942236Y-82263799D01*
X90839747Y-82366288D01*
X90839742Y-82366294D01*
X90767271Y-82491817D01*
X90767270Y-82491821D01*
X90729754Y-82631831D01*
X90729754Y-82776781D01*
X85533167Y-82776781D01*
X85533167Y-76701817D01*
X85533219Y-76698211D01*
X85541875Y-76400729D01*
X85549641Y-76133794D01*
X85550061Y-76126606D01*
X85599114Y-75565920D01*
X85599944Y-75558815D01*
X85681524Y-75001877D01*
X85682773Y-74994798D01*
X85796587Y-74443594D01*
X85798239Y-74436622D01*
X85943919Y-73892934D01*
X85945977Y-73886059D01*
X86123014Y-73351789D01*
X86125477Y-73345024D01*
X86333283Y-72821944D01*
X86336130Y-72815347D01*
X86573994Y-72305242D01*
X86577209Y-72298840D01*
X86845142Y-71801924D01*
X86846827Y-71798903D01*
X88103369Y-69622508D01*
X94254663Y-69622508D01*
X94254664Y-69622510D01*
X94278850Y-69712772D01*
X94292179Y-69762519D01*
X94292180Y-69762522D01*
X94364655Y-69888051D01*
X94467145Y-69990543D01*
X94467147Y-69990544D01*
X94467148Y-69990545D01*
X95458705Y-70563020D01*
X95598715Y-70600535D01*
X95598717Y-70600535D01*
X95743663Y-70600535D01*
X95743665Y-70600535D01*
X95883674Y-70563019D01*
X96009204Y-70490545D01*
X96111699Y-70388050D01*
X96184174Y-70262520D01*
X96221689Y-70122510D01*
X96221689Y-69977560D01*
X96184173Y-69837551D01*
X96111699Y-69712020D01*
X96009204Y-69609526D01*
X95227191Y-69158030D01*
X95017650Y-69037051D01*
X95017648Y-69037050D01*
X94877637Y-68999535D01*
X94877634Y-68999535D01*
X94732690Y-68999535D01*
X94732688Y-68999536D01*
X94592678Y-69037051D01*
X94592675Y-69037052D01*
X94467146Y-69109527D01*
X94364654Y-69212017D01*
X94292179Y-69337547D01*
X94292178Y-69337549D01*
X94290010Y-69345640D01*
X94258308Y-69463960D01*
X94254663Y-69477562D01*
X94254663Y-69622507D01*
X94254663Y-69622508D01*
X88103369Y-69622508D01*
X91443823Y-63836673D01*
X103476857Y-63836673D01*
X103496718Y-64127044D01*
X103496719Y-64127046D01*
X103555931Y-64411992D01*
X103555935Y-64412007D01*
X103653401Y-64686252D01*
X103787303Y-64944671D01*
X103955146Y-65182450D01*
X103955150Y-65182454D01*
X103955150Y-65182455D01*
X104153806Y-65395162D01*
X104280082Y-65497894D01*
X104379574Y-65578838D01*
X104379576Y-65578839D01*
X104379577Y-65578840D01*
X104628254Y-65730063D01*
X104895202Y-65846015D01*
X104895207Y-65846017D01*
X105175464Y-65924541D01*
X105428959Y-65959383D01*
X105463802Y-65964173D01*
X105463803Y-65964173D01*
X105754854Y-65964173D01*
X105785940Y-65959900D01*
X106043192Y-65924541D01*
X106323449Y-65846017D01*
X106590403Y-65730062D01*
X106839082Y-65578838D01*
X107064853Y-65395159D01*
X107263510Y-65182450D01*
X107431353Y-64944671D01*
X107565255Y-64686252D01*
X107662721Y-64412007D01*
X107721937Y-64127044D01*
X107741799Y-63836673D01*
X107721937Y-63546302D01*
X107662721Y-63261339D01*
X107565255Y-62987094D01*
X107548715Y-62955174D01*
X113455922Y-62955174D01*
X113474795Y-63146800D01*
X113530690Y-63331058D01*
X113621454Y-63500866D01*
X113621458Y-63500873D01*
X113743610Y-63649715D01*
X113892452Y-63771867D01*
X113892459Y-63771871D01*
X114062267Y-63862635D01*
X114062269Y-63862636D01*
X114246528Y-63918531D01*
X114438152Y-63937404D01*
X114629776Y-63918531D01*
X114814035Y-63862636D01*
X114983850Y-63771868D01*
X115132693Y-63649715D01*
X115254846Y-63500872D01*
X115345614Y-63331057D01*
X115401509Y-63146798D01*
X115420382Y-62955174D01*
X115415846Y-62909123D01*
X166501973Y-62909123D01*
X166520846Y-63100749D01*
X166576741Y-63285007D01*
X166667505Y-63454815D01*
X166667509Y-63454822D01*
X166789661Y-63603664D01*
X166938503Y-63725816D01*
X166938510Y-63725820D01*
X167024658Y-63771867D01*
X167108320Y-63816585D01*
X167292579Y-63872480D01*
X167484203Y-63891353D01*
X167675827Y-63872480D01*
X167860086Y-63816585D01*
X168029901Y-63725817D01*
X168178744Y-63603664D01*
X168300897Y-63454821D01*
X168391665Y-63285006D01*
X168447560Y-63100747D01*
X168466433Y-62909123D01*
X170094075Y-62909123D01*
X170112948Y-63100749D01*
X170168843Y-63285007D01*
X170259607Y-63454815D01*
X170259611Y-63454822D01*
X170381763Y-63603664D01*
X170530605Y-63725816D01*
X170530612Y-63725820D01*
X170616760Y-63771867D01*
X170700422Y-63816585D01*
X170884681Y-63872480D01*
X171076305Y-63891353D01*
X171267929Y-63872480D01*
X171452188Y-63816585D01*
X171622003Y-63725817D01*
X171770846Y-63603664D01*
X171892999Y-63454821D01*
X171983767Y-63285006D01*
X172039662Y-63100747D01*
X172058535Y-62909123D01*
X172039662Y-62717499D01*
X171983767Y-62533240D01*
X171961131Y-62490891D01*
X171893002Y-62363430D01*
X171892998Y-62363423D01*
X171770846Y-62214581D01*
X171622004Y-62092429D01*
X171621997Y-62092425D01*
X171452189Y-62001661D01*
X171267931Y-61945766D01*
X171076305Y-61926893D01*
X170884678Y-61945766D01*
X170700420Y-62001661D01*
X170530612Y-62092425D01*
X170530605Y-62092429D01*
X170381763Y-62214581D01*
X170259611Y-62363423D01*
X170259607Y-62363430D01*
X170168843Y-62533238D01*
X170112948Y-62717496D01*
X170094075Y-62909123D01*
X168466433Y-62909123D01*
X168447560Y-62717499D01*
X168391665Y-62533240D01*
X168369029Y-62490891D01*
X168300900Y-62363430D01*
X168300896Y-62363423D01*
X168178744Y-62214581D01*
X168029902Y-62092429D01*
X168029895Y-62092425D01*
X167860087Y-62001661D01*
X167675829Y-61945766D01*
X167484203Y-61926893D01*
X167292576Y-61945766D01*
X167108318Y-62001661D01*
X166938510Y-62092425D01*
X166938503Y-62092429D01*
X166789661Y-62214581D01*
X166667509Y-62363423D01*
X166667505Y-62363430D01*
X166576741Y-62533238D01*
X166520846Y-62717496D01*
X166501973Y-62909123D01*
X115415846Y-62909123D01*
X115401509Y-62763550D01*
X115345614Y-62579291D01*
X115254846Y-62409476D01*
X115254845Y-62409474D01*
X115132693Y-62260632D01*
X114983851Y-62138480D01*
X114983844Y-62138476D01*
X114814036Y-62047712D01*
X114629778Y-61991817D01*
X114438152Y-61972944D01*
X114246525Y-61991817D01*
X114062267Y-62047712D01*
X113892459Y-62138476D01*
X113892452Y-62138480D01*
X113743610Y-62260632D01*
X113621458Y-62409474D01*
X113621454Y-62409481D01*
X113530690Y-62579289D01*
X113474795Y-62763547D01*
X113455922Y-62955174D01*
X107548715Y-62955174D01*
X107431353Y-62728675D01*
X107263510Y-62490896D01*
X107263505Y-62490890D01*
X107064849Y-62278183D01*
X106840058Y-62095302D01*
X106839082Y-62094508D01*
X106839080Y-62094507D01*
X106839078Y-62094505D01*
X106590401Y-61943282D01*
X106323453Y-61827330D01*
X106043198Y-61748806D01*
X106043193Y-61748805D01*
X106043192Y-61748805D01*
X105899022Y-61728989D01*
X105754854Y-61709173D01*
X105754853Y-61709173D01*
X105463803Y-61709173D01*
X105463802Y-61709173D01*
X105175464Y-61748805D01*
X105175457Y-61748806D01*
X104895202Y-61827330D01*
X104628254Y-61943282D01*
X104379577Y-62094505D01*
X104153806Y-62278183D01*
X103955150Y-62490890D01*
X103955150Y-62490891D01*
X103955147Y-62490893D01*
X103955146Y-62490896D01*
X103892751Y-62579289D01*
X103787303Y-62728674D01*
X103653400Y-62987095D01*
X103555936Y-63261334D01*
X103555931Y-63261353D01*
X103496719Y-63546299D01*
X103496718Y-63546301D01*
X103476857Y-63836673D01*
X91443823Y-63836673D01*
X92989707Y-61159123D01*
X115251973Y-61159123D01*
X115270846Y-61350749D01*
X115326741Y-61535007D01*
X115417505Y-61704815D01*
X115417509Y-61704822D01*
X115539661Y-61853664D01*
X115688503Y-61975816D01*
X115688510Y-61975820D01*
X115823011Y-62047712D01*
X115858320Y-62066585D01*
X116042579Y-62122480D01*
X116234203Y-62141353D01*
X116425827Y-62122480D01*
X116610086Y-62066585D01*
X116779901Y-61975817D01*
X116928744Y-61853664D01*
X117050897Y-61704821D01*
X117141665Y-61535006D01*
X117197560Y-61350747D01*
X117216433Y-61159123D01*
X117211897Y-61113072D01*
X168298024Y-61113072D01*
X168316897Y-61304698D01*
X168372792Y-61488956D01*
X168463556Y-61658764D01*
X168463560Y-61658771D01*
X168585712Y-61807613D01*
X168734554Y-61929765D01*
X168734561Y-61929769D01*
X168815336Y-61972944D01*
X168904371Y-62020534D01*
X169088630Y-62076429D01*
X169280254Y-62095302D01*
X169471878Y-62076429D01*
X169656137Y-62020534D01*
X169825952Y-61929766D01*
X169974795Y-61807613D01*
X170096948Y-61658770D01*
X170187716Y-61488955D01*
X170243611Y-61304696D01*
X170262484Y-61113072D01*
X171890126Y-61113072D01*
X171908999Y-61304698D01*
X171964894Y-61488956D01*
X172055658Y-61658764D01*
X172055662Y-61658771D01*
X172177814Y-61807613D01*
X172326656Y-61929765D01*
X172326663Y-61929769D01*
X172407438Y-61972944D01*
X172496473Y-62020534D01*
X172680732Y-62076429D01*
X172872356Y-62095302D01*
X173063980Y-62076429D01*
X173248239Y-62020534D01*
X173418054Y-61929766D01*
X173566897Y-61807613D01*
X173689050Y-61658770D01*
X173779818Y-61488955D01*
X173835713Y-61304696D01*
X173854586Y-61113072D01*
X173835713Y-60921448D01*
X173779818Y-60737189D01*
X173779817Y-60737187D01*
X173689053Y-60567379D01*
X173689049Y-60567372D01*
X173566897Y-60418530D01*
X173418055Y-60296378D01*
X173418048Y-60296374D01*
X173248240Y-60205610D01*
X173063982Y-60149715D01*
X172872356Y-60130842D01*
X172680729Y-60149715D01*
X172496471Y-60205610D01*
X172326663Y-60296374D01*
X172326656Y-60296378D01*
X172177814Y-60418530D01*
X172055662Y-60567372D01*
X172055658Y-60567379D01*
X171964894Y-60737187D01*
X171908999Y-60921445D01*
X171890126Y-61113072D01*
X170262484Y-61113072D01*
X170243611Y-60921448D01*
X170187716Y-60737189D01*
X170187715Y-60737187D01*
X170096951Y-60567379D01*
X170096947Y-60567372D01*
X169974795Y-60418530D01*
X169825953Y-60296378D01*
X169825946Y-60296374D01*
X169656138Y-60205610D01*
X169471880Y-60149715D01*
X169280254Y-60130842D01*
X169088627Y-60149715D01*
X168904369Y-60205610D01*
X168734561Y-60296374D01*
X168734554Y-60296378D01*
X168585712Y-60418530D01*
X168463560Y-60567372D01*
X168463556Y-60567379D01*
X168372792Y-60737187D01*
X168316897Y-60921445D01*
X168298024Y-61113072D01*
X117211897Y-61113072D01*
X117197560Y-60967499D01*
X117141665Y-60783240D01*
X117050897Y-60613425D01*
X117050896Y-60613423D01*
X116928744Y-60464581D01*
X116779902Y-60342429D01*
X116779895Y-60342425D01*
X116610087Y-60251661D01*
X116425829Y-60195766D01*
X116234203Y-60176893D01*
X116042576Y-60195766D01*
X115858318Y-60251661D01*
X115688510Y-60342425D01*
X115688503Y-60342429D01*
X115539661Y-60464581D01*
X115417509Y-60613423D01*
X115417505Y-60613430D01*
X115326741Y-60783238D01*
X115270846Y-60967496D01*
X115251973Y-61159123D01*
X92989707Y-61159123D01*
X94026658Y-59363072D01*
X113455922Y-59363072D01*
X113474795Y-59554698D01*
X113530690Y-59738956D01*
X113621454Y-59908764D01*
X113621458Y-59908771D01*
X113743610Y-60057613D01*
X113892452Y-60179765D01*
X113892459Y-60179769D01*
X114026960Y-60251661D01*
X114062269Y-60270534D01*
X114246528Y-60326429D01*
X114438152Y-60345302D01*
X114629776Y-60326429D01*
X114814035Y-60270534D01*
X114983850Y-60179766D01*
X115132693Y-60057613D01*
X115254846Y-59908770D01*
X115345614Y-59738955D01*
X115401509Y-59554696D01*
X115420382Y-59363072D01*
X115415846Y-59317020D01*
X170094075Y-59317020D01*
X170112948Y-59508646D01*
X170168843Y-59692904D01*
X170259607Y-59862712D01*
X170259611Y-59862719D01*
X170381763Y-60011561D01*
X170530605Y-60133713D01*
X170530612Y-60133717D01*
X170646698Y-60195766D01*
X170700422Y-60224482D01*
X170884681Y-60280377D01*
X171076305Y-60299250D01*
X171267929Y-60280377D01*
X171452188Y-60224482D01*
X171622003Y-60133714D01*
X171770846Y-60011561D01*
X171892999Y-59862718D01*
X171983767Y-59692903D01*
X172039662Y-59508644D01*
X172058535Y-59317020D01*
X172039662Y-59125396D01*
X171983767Y-58941137D01*
X171967094Y-58909944D01*
X171893002Y-58771327D01*
X171892998Y-58771320D01*
X171770846Y-58622478D01*
X171622004Y-58500326D01*
X171621997Y-58500322D01*
X171494024Y-58431919D01*
X182589253Y-58431919D01*
X182619922Y-58546378D01*
X182626768Y-58571930D01*
X182626769Y-58571932D01*
X182699244Y-58697462D01*
X182800985Y-58799201D01*
X182801738Y-58799954D01*
X182927268Y-58872429D01*
X183067278Y-58909944D01*
X183212227Y-58909945D01*
X183352238Y-58872430D01*
X184343794Y-58299954D01*
X184446289Y-58197460D01*
X184518763Y-58071929D01*
X184556279Y-57931920D01*
X184556279Y-57786970D01*
X184518764Y-57646960D01*
X184446289Y-57521430D01*
X184343794Y-57418935D01*
X184218264Y-57346461D01*
X184218265Y-57346461D01*
X184171594Y-57333955D01*
X184078255Y-57308945D01*
X183933305Y-57308945D01*
X183793295Y-57346460D01*
X183793292Y-57346461D01*
X182801735Y-57918936D01*
X182699245Y-58021428D01*
X182626770Y-58146957D01*
X182626769Y-58146960D01*
X182589254Y-58286970D01*
X182589253Y-58286972D01*
X182589253Y-58380842D01*
X182589253Y-58431919D01*
X171494024Y-58431919D01*
X171452189Y-58409558D01*
X171267931Y-58353663D01*
X171076305Y-58334790D01*
X170884678Y-58353663D01*
X170700420Y-58409558D01*
X170530612Y-58500322D01*
X170530605Y-58500326D01*
X170381763Y-58622478D01*
X170259611Y-58771320D01*
X170259607Y-58771327D01*
X170168843Y-58941135D01*
X170112948Y-59125393D01*
X170094075Y-59317020D01*
X115415846Y-59317020D01*
X115401509Y-59171448D01*
X115345614Y-58987189D01*
X115284273Y-58872428D01*
X115254849Y-58817379D01*
X115254845Y-58817372D01*
X115132693Y-58668530D01*
X114983851Y-58546378D01*
X114983844Y-58546374D01*
X114814036Y-58455610D01*
X114629778Y-58399715D01*
X114438152Y-58380842D01*
X114246525Y-58399715D01*
X114062267Y-58455610D01*
X113892459Y-58546374D01*
X113892452Y-58546378D01*
X113743610Y-58668530D01*
X113621458Y-58817372D01*
X113621454Y-58817379D01*
X113530690Y-58987187D01*
X113474795Y-59171445D01*
X113455922Y-59363072D01*
X94026658Y-59363072D01*
X94853370Y-57931166D01*
X101004663Y-57931166D01*
X101004664Y-57931168D01*
X101028850Y-58021430D01*
X101042179Y-58071177D01*
X101042180Y-58071180D01*
X101114655Y-58196709D01*
X101217145Y-58299201D01*
X101217147Y-58299202D01*
X101217148Y-58299203D01*
X102208705Y-58871678D01*
X102348715Y-58909193D01*
X102348717Y-58909193D01*
X102493663Y-58909193D01*
X102493665Y-58909193D01*
X102633674Y-58871677D01*
X102759204Y-58799203D01*
X102861699Y-58696708D01*
X102934174Y-58571178D01*
X102971689Y-58431168D01*
X102971689Y-58286218D01*
X102934173Y-58146209D01*
X102861699Y-58020678D01*
X102759204Y-57918184D01*
X101977191Y-57466688D01*
X101767650Y-57345709D01*
X101767648Y-57345708D01*
X101627637Y-57308193D01*
X101627634Y-57308193D01*
X101482690Y-57308193D01*
X101482688Y-57308194D01*
X101342678Y-57345709D01*
X101342675Y-57345710D01*
X101217146Y-57418185D01*
X101114654Y-57520675D01*
X101042179Y-57646205D01*
X101042178Y-57646207D01*
X101004663Y-57786220D01*
X101004663Y-57931165D01*
X101004663Y-57931166D01*
X94853370Y-57931166D01*
X96908439Y-54371682D01*
X99169635Y-50455176D01*
X100447867Y-50455176D01*
X100467401Y-50815465D01*
X100525777Y-51171544D01*
X100525778Y-51171547D01*
X100622304Y-51519204D01*
X100622305Y-51519206D01*
X100755859Y-51854403D01*
X100755865Y-51854415D01*
X100924874Y-52173199D01*
X101127363Y-52471848D01*
X101214290Y-52574187D01*
X101360956Y-52746855D01*
X101622912Y-52994993D01*
X101910162Y-53213354D01*
X101910168Y-53213358D01*
X101910174Y-53213362D01*
X102219339Y-53399380D01*
X102219344Y-53399382D01*
X102546799Y-53550880D01*
X102546803Y-53550880D01*
X102546810Y-53550884D01*
X102888746Y-53666095D01*
X103241134Y-53743662D01*
X103599842Y-53782674D01*
X103599848Y-53782674D01*
X103960660Y-53782674D01*
X103960666Y-53782674D01*
X104319374Y-53743662D01*
X104671762Y-53666095D01*
X105013698Y-53550884D01*
X105013705Y-53550880D01*
X105013708Y-53550880D01*
X105341163Y-53399382D01*
X105341168Y-53399380D01*
X105341169Y-53399379D01*
X105341172Y-53399378D01*
X105650346Y-53213354D01*
X105937596Y-52994993D01*
X106199552Y-52746855D01*
X106433144Y-52471849D01*
X106560635Y-52283814D01*
X166265850Y-52283814D01*
X166285711Y-52574185D01*
X166285712Y-52574187D01*
X166344924Y-52859133D01*
X166344929Y-52859152D01*
X166393207Y-52994993D01*
X166442394Y-53133393D01*
X166576296Y-53391812D01*
X166744139Y-53629591D01*
X166744143Y-53629595D01*
X166744143Y-53629596D01*
X166942799Y-53842303D01*
X167069075Y-53945035D01*
X167168567Y-54025979D01*
X167168569Y-54025980D01*
X167168570Y-54025981D01*
X167417247Y-54177204D01*
X167684195Y-54293156D01*
X167684200Y-54293158D01*
X167964457Y-54371682D01*
X168217952Y-54406524D01*
X168252795Y-54411314D01*
X168252796Y-54411314D01*
X168543847Y-54411314D01*
X168574933Y-54407041D01*
X168832185Y-54371682D01*
X169112442Y-54293158D01*
X169379396Y-54177203D01*
X169628075Y-54025979D01*
X169853846Y-53842300D01*
X170052503Y-53629591D01*
X170220346Y-53391812D01*
X170354248Y-53133393D01*
X170451714Y-52859148D01*
X170510930Y-52574185D01*
X170530792Y-52283814D01*
X170510930Y-51993443D01*
X170451714Y-51708480D01*
X170354248Y-51434235D01*
X170220346Y-51175816D01*
X170052503Y-50938037D01*
X170052498Y-50938031D01*
X169896731Y-50771247D01*
X169853846Y-50725328D01*
X169853844Y-50725327D01*
X169853842Y-50725324D01*
X169628071Y-50541646D01*
X169485876Y-50455176D01*
X178447867Y-50455176D01*
X178467401Y-50815465D01*
X178525777Y-51171544D01*
X178525778Y-51171547D01*
X178622304Y-51519204D01*
X178622305Y-51519206D01*
X178755859Y-51854403D01*
X178755865Y-51854415D01*
X178924874Y-52173199D01*
X179127363Y-52471848D01*
X179214290Y-52574187D01*
X179360956Y-52746855D01*
X179622912Y-52994993D01*
X179910162Y-53213354D01*
X179910168Y-53213358D01*
X179910174Y-53213362D01*
X180219339Y-53399380D01*
X180219344Y-53399382D01*
X180546799Y-53550880D01*
X180546803Y-53550880D01*
X180546810Y-53550884D01*
X180888746Y-53666095D01*
X181241134Y-53743662D01*
X181599842Y-53782674D01*
X181599848Y-53782674D01*
X181960660Y-53782674D01*
X181960666Y-53782674D01*
X182319374Y-53743662D01*
X182671762Y-53666095D01*
X183013698Y-53550884D01*
X183013705Y-53550880D01*
X183013708Y-53550880D01*
X183341163Y-53399382D01*
X183341168Y-53399380D01*
X183341169Y-53399379D01*
X183341172Y-53399378D01*
X183650346Y-53213354D01*
X183937596Y-52994993D01*
X184199552Y-52746855D01*
X184433144Y-52471849D01*
X184635634Y-52173199D01*
X184804647Y-51854407D01*
X184938201Y-51519210D01*
X185034732Y-51171539D01*
X185093106Y-50815468D01*
X185112641Y-50455174D01*
X185093106Y-50094880D01*
X185034732Y-49738809D01*
X184983676Y-49554922D01*
X184938203Y-49391143D01*
X184938202Y-49391141D01*
X184905141Y-49308162D01*
X184804647Y-49055941D01*
X184635634Y-48737149D01*
X184433144Y-48438499D01*
X184199559Y-48163501D01*
X184199554Y-48163495D01*
X184044616Y-48016730D01*
X183937596Y-47915355D01*
X183937589Y-47915349D01*
X183937586Y-47915347D01*
X183830313Y-47833801D01*
X183650346Y-47696994D01*
X183650340Y-47696990D01*
X183650333Y-47696985D01*
X183341168Y-47510967D01*
X183341163Y-47510965D01*
X183013708Y-47359467D01*
X183013703Y-47359466D01*
X183013700Y-47359465D01*
X183013698Y-47359464D01*
X182904706Y-47322740D01*
X182671764Y-47244253D01*
X182319372Y-47166685D01*
X181960667Y-47127674D01*
X181960666Y-47127674D01*
X181599842Y-47127674D01*
X181599840Y-47127674D01*
X181241135Y-47166685D01*
X180888743Y-47244253D01*
X180546804Y-47359466D01*
X180546799Y-47359467D01*
X180219344Y-47510965D01*
X180219339Y-47510967D01*
X179910174Y-47696985D01*
X179910166Y-47696991D01*
X179622921Y-47915347D01*
X179622912Y-47915355D01*
X179360953Y-48163495D01*
X179360948Y-48163501D01*
X179127363Y-48438499D01*
X178924874Y-48737148D01*
X178755865Y-49055932D01*
X178755859Y-49055944D01*
X178622305Y-49391141D01*
X178622304Y-49391143D01*
X178525778Y-49738800D01*
X178525777Y-49738803D01*
X178467401Y-50094882D01*
X178447867Y-50455171D01*
X178447867Y-50455176D01*
X169485876Y-50455176D01*
X169379394Y-50390423D01*
X169112446Y-50274471D01*
X168832191Y-50195947D01*
X168832186Y-50195946D01*
X168832185Y-50195946D01*
X168688015Y-50176130D01*
X168543847Y-50156314D01*
X168543846Y-50156314D01*
X168252796Y-50156314D01*
X168252795Y-50156314D01*
X167964457Y-50195946D01*
X167964450Y-50195947D01*
X167684195Y-50274471D01*
X167417247Y-50390423D01*
X167168570Y-50541646D01*
X166942799Y-50725324D01*
X166744143Y-50938031D01*
X166744143Y-50938032D01*
X166576296Y-51175815D01*
X166442393Y-51434236D01*
X166344929Y-51708475D01*
X166344924Y-51708494D01*
X166285712Y-51993440D01*
X166285711Y-51993442D01*
X166265850Y-52283814D01*
X106560635Y-52283814D01*
X106635634Y-52173199D01*
X106804647Y-51854407D01*
X106938201Y-51519210D01*
X107034732Y-51171539D01*
X107093106Y-50815468D01*
X107112641Y-50455174D01*
X107093106Y-50094880D01*
X107034732Y-49738809D01*
X106983676Y-49554922D01*
X106938203Y-49391143D01*
X106938202Y-49391141D01*
X106905141Y-49308162D01*
X106804647Y-49055941D01*
X106635634Y-48737149D01*
X106433144Y-48438499D01*
X106316937Y-48301689D01*
X110634459Y-48301689D01*
X110671974Y-48441700D01*
X111244450Y-49433256D01*
X111346944Y-49535751D01*
X111472475Y-49608225D01*
X111612484Y-49645741D01*
X111612486Y-49645741D01*
X111757432Y-49645741D01*
X111757434Y-49645741D01*
X111897444Y-49608226D01*
X112022974Y-49535751D01*
X112125469Y-49433256D01*
X112197943Y-49307726D01*
X112235459Y-49167717D01*
X112235459Y-49022767D01*
X112197944Y-48882757D01*
X112082834Y-48683380D01*
X121265850Y-48683380D01*
X121285711Y-48973751D01*
X121285712Y-48973753D01*
X121344924Y-49258699D01*
X121344929Y-49258718D01*
X121437925Y-49520384D01*
X121442394Y-49532959D01*
X121576296Y-49791378D01*
X121744139Y-50029157D01*
X121744143Y-50029161D01*
X121744143Y-50029162D01*
X121942799Y-50241869D01*
X122069075Y-50344601D01*
X122168567Y-50425545D01*
X122168569Y-50425546D01*
X122168570Y-50425547D01*
X122417247Y-50576770D01*
X122684195Y-50692722D01*
X122684200Y-50692724D01*
X122964457Y-50771248D01*
X123217952Y-50806090D01*
X123252795Y-50810880D01*
X123252796Y-50810880D01*
X123543847Y-50810880D01*
X123574933Y-50806607D01*
X123832185Y-50771248D01*
X124112442Y-50692724D01*
X124379396Y-50576769D01*
X124628075Y-50425545D01*
X124853846Y-50241866D01*
X125052503Y-50029157D01*
X125220346Y-49791378D01*
X125354248Y-49532959D01*
X125451714Y-49258714D01*
X125470534Y-49168148D01*
X173325801Y-49168148D01*
X173325802Y-49168150D01*
X173363317Y-49308160D01*
X173435541Y-49433256D01*
X173435793Y-49433691D01*
X173538283Y-49536183D01*
X173538285Y-49536184D01*
X173538286Y-49536185D01*
X173663816Y-49608660D01*
X173803827Y-49646175D01*
X173948776Y-49646174D01*
X174088786Y-49608659D01*
X174214316Y-49536184D01*
X174316811Y-49433690D01*
X174889286Y-48442133D01*
X174926801Y-48302123D01*
X174926801Y-48157173D01*
X174889285Y-48017164D01*
X174816811Y-47891634D01*
X174714316Y-47789139D01*
X174588786Y-47716664D01*
X174448776Y-47679149D01*
X174303826Y-47679149D01*
X174237229Y-47696994D01*
X174163816Y-47716665D01*
X174038288Y-47789137D01*
X173935792Y-47891634D01*
X173363317Y-48883187D01*
X173363316Y-48883189D01*
X173363316Y-48883190D01*
X173325918Y-49022767D01*
X173325801Y-49023202D01*
X173325801Y-49168147D01*
X173325801Y-49168148D01*
X125470534Y-49168148D01*
X125510930Y-48973751D01*
X125530792Y-48683380D01*
X125510930Y-48393009D01*
X125451714Y-48108046D01*
X125354248Y-47833801D01*
X125220346Y-47575382D01*
X125052503Y-47337603D01*
X125052498Y-47337597D01*
X124853842Y-47124890D01*
X124628071Y-46941212D01*
X124379394Y-46789989D01*
X124112446Y-46674037D01*
X123832191Y-46595513D01*
X123832186Y-46595512D01*
X123832185Y-46595512D01*
X123688015Y-46575696D01*
X123543847Y-46555880D01*
X123543846Y-46555880D01*
X123252796Y-46555880D01*
X123252795Y-46555880D01*
X122964457Y-46595512D01*
X122964450Y-46595513D01*
X122684195Y-46674037D01*
X122417247Y-46789989D01*
X122168570Y-46941212D01*
X121942799Y-47124890D01*
X121744143Y-47337597D01*
X121744143Y-47337598D01*
X121744140Y-47337600D01*
X121744139Y-47337603D01*
X121728706Y-47359467D01*
X121576296Y-47575381D01*
X121442393Y-47833802D01*
X121344929Y-48108041D01*
X121344924Y-48108060D01*
X121285712Y-48393006D01*
X121285711Y-48393008D01*
X121265850Y-48683380D01*
X112082834Y-48683380D01*
X111625469Y-47891200D01*
X111625468Y-47891199D01*
X111625467Y-47891197D01*
X111522975Y-47788707D01*
X111522974Y-47788706D01*
X111397444Y-47716231D01*
X111257434Y-47678716D01*
X111257432Y-47678715D01*
X111257431Y-47678715D01*
X111112486Y-47678715D01*
X111112485Y-47678715D01*
X111044299Y-47696985D01*
X110972473Y-47716230D01*
X110972471Y-47716231D01*
X110846941Y-47788706D01*
X110744451Y-47891198D01*
X110671976Y-48016727D01*
X110671975Y-48016730D01*
X110634460Y-48156740D01*
X110634459Y-48156742D01*
X110634459Y-48301687D01*
X110634459Y-48301689D01*
X106316937Y-48301689D01*
X106199559Y-48163501D01*
X106199554Y-48163495D01*
X106044616Y-48016730D01*
X105937596Y-47915355D01*
X105937589Y-47915349D01*
X105937586Y-47915347D01*
X105830313Y-47833801D01*
X105650346Y-47696994D01*
X105650340Y-47696990D01*
X105650333Y-47696985D01*
X105341168Y-47510967D01*
X105341163Y-47510965D01*
X105013708Y-47359467D01*
X105013703Y-47359466D01*
X105013700Y-47359465D01*
X105013698Y-47359464D01*
X104904706Y-47322740D01*
X104671764Y-47244253D01*
X104319372Y-47166685D01*
X103960667Y-47127674D01*
X103960666Y-47127674D01*
X103599842Y-47127674D01*
X103599840Y-47127674D01*
X103241135Y-47166685D01*
X102888743Y-47244253D01*
X102546804Y-47359466D01*
X102546799Y-47359467D01*
X102219344Y-47510965D01*
X102219339Y-47510967D01*
X101910174Y-47696985D01*
X101910166Y-47696991D01*
X101622921Y-47915347D01*
X101622912Y-47915355D01*
X101360953Y-48163495D01*
X101360948Y-48163501D01*
X101127363Y-48438499D01*
X100924874Y-48737148D01*
X100755865Y-49055932D01*
X100755859Y-49055944D01*
X100622305Y-49391141D01*
X100622304Y-49391143D01*
X100525778Y-49738800D01*
X100525777Y-49738803D01*
X100467401Y-50094882D01*
X100447867Y-50455171D01*
X100447867Y-50455176D01*
X99169635Y-50455176D01*
X99558589Y-49781488D01*
X99558590Y-49781486D01*
X99562076Y-49775447D01*
X99572767Y-49756933D01*
X99574547Y-49753950D01*
X99871015Y-49273307D01*
X99874937Y-49267344D01*
X100197806Y-48806243D01*
X100202068Y-48800519D01*
X100551190Y-48358988D01*
X100555781Y-48353516D01*
X100929982Y-47933036D01*
X100934893Y-47927829D01*
X101332905Y-47529822D01*
X101338135Y-47524890D01*
X101758571Y-47150737D01*
X101764072Y-47146119D01*
X102205616Y-46796996D01*
X102211338Y-46792736D01*
X102672434Y-46469878D01*
X102678388Y-46465961D01*
X103159862Y-46168988D01*
X103162886Y-46167182D01*
X103195042Y-46148618D01*
X103195042Y-46148616D01*
X103223798Y-46132014D01*
X103223803Y-46132010D01*
X107841932Y-43465732D01*
X145474754Y-43465732D01*
X145482152Y-43502923D01*
X145510331Y-43545096D01*
X145552504Y-43573275D01*
X145552506Y-43573276D01*
X145580459Y-43578836D01*
X145589695Y-43580674D01*
X145589696Y-43580674D01*
X149114813Y-43580674D01*
X149122211Y-43579202D01*
X149152002Y-43573276D01*
X149194176Y-43545096D01*
X149222356Y-43502922D01*
X149229754Y-43465732D01*
X149229754Y-42418148D01*
X161634459Y-42418148D01*
X161634460Y-42418150D01*
X161671975Y-42558160D01*
X161744199Y-42683256D01*
X161744451Y-42683691D01*
X161846941Y-42786183D01*
X161846943Y-42786184D01*
X161846944Y-42786185D01*
X161972474Y-42858660D01*
X162112485Y-42896175D01*
X162257434Y-42896174D01*
X162397444Y-42858659D01*
X162522974Y-42786184D01*
X162625469Y-42683690D01*
X163197944Y-41692133D01*
X163235459Y-41552123D01*
X163235459Y-41407173D01*
X163197943Y-41267164D01*
X163125469Y-41141634D01*
X163022974Y-41039139D01*
X162897444Y-40966664D01*
X162757434Y-40929149D01*
X162612484Y-40929149D01*
X162519144Y-40954159D01*
X162472474Y-40966665D01*
X162346946Y-41039137D01*
X162244450Y-41141634D01*
X161671975Y-42133187D01*
X161671974Y-42133189D01*
X161671974Y-42133190D01*
X161634576Y-42272767D01*
X161634459Y-42273202D01*
X161634459Y-42418147D01*
X161634459Y-42418148D01*
X149229754Y-42418148D01*
X149229754Y-39940616D01*
X149222356Y-39903426D01*
X149217387Y-39895989D01*
X149194176Y-39861251D01*
X149152003Y-39833072D01*
X149114813Y-39825674D01*
X149114812Y-39825674D01*
X145589696Y-39825674D01*
X145589695Y-39825674D01*
X145552504Y-39833072D01*
X145510331Y-39861251D01*
X145482152Y-39903424D01*
X145474754Y-39940615D01*
X145474754Y-43465732D01*
X107841932Y-43465732D01*
X111157152Y-41551689D01*
X122325801Y-41551689D01*
X122363316Y-41691700D01*
X122935792Y-42683256D01*
X123038286Y-42785751D01*
X123163817Y-42858225D01*
X123303826Y-42895741D01*
X123303828Y-42895741D01*
X123448774Y-42895741D01*
X123448776Y-42895741D01*
X123588786Y-42858226D01*
X123714316Y-42785751D01*
X123816811Y-42683256D01*
X123889285Y-42557726D01*
X123926801Y-42417717D01*
X123926801Y-42272767D01*
X123889286Y-42132757D01*
X123316811Y-41141200D01*
X123316810Y-41141199D01*
X123316809Y-41141197D01*
X123214317Y-41038707D01*
X123214316Y-41038706D01*
X123088786Y-40966231D01*
X122948776Y-40928716D01*
X122948774Y-40928715D01*
X122948773Y-40928715D01*
X122803828Y-40928715D01*
X122803827Y-40928715D01*
X122733821Y-40947472D01*
X122663815Y-40966230D01*
X122663813Y-40966231D01*
X122538283Y-41038706D01*
X122435793Y-41141198D01*
X122363318Y-41266727D01*
X122363317Y-41266730D01*
X122325802Y-41406740D01*
X122325801Y-41406742D01*
X122325801Y-41551687D01*
X122325801Y-41551689D01*
X111157152Y-41551689D01*
X124103518Y-34077102D01*
X124171416Y-34060630D01*
X124237443Y-34083483D01*
X124280634Y-34138404D01*
X124287275Y-34207957D01*
X124255259Y-34270060D01*
X124253198Y-34272170D01*
X124205800Y-34319568D01*
X124205793Y-34319576D01*
X123966516Y-34615058D01*
X123759438Y-34933930D01*
X123586821Y-35272708D01*
X123450564Y-35627669D01*
X123352153Y-35994942D01*
X123352153Y-35994944D01*
X123292675Y-36370475D01*
X123272776Y-36750173D01*
X123272776Y-36750174D01*
X123292675Y-37129872D01*
X123352153Y-37505403D01*
X123352153Y-37505405D01*
X123450564Y-37872678D01*
X123586821Y-38227639D01*
X123759438Y-38566417D01*
X123966516Y-38885289D01*
X123966518Y-38885291D01*
X124205797Y-39180776D01*
X124474652Y-39449631D01*
X124474656Y-39449634D01*
X124770138Y-39688911D01*
X125035520Y-39861252D01*
X125089015Y-39895992D01*
X125427792Y-40068608D01*
X125782757Y-40204866D01*
X126150019Y-40303274D01*
X126525557Y-40362753D01*
X126884253Y-40381551D01*
X126905253Y-40382652D01*
X126905254Y-40382652D01*
X126905255Y-40382652D01*
X126925154Y-40381609D01*
X127284951Y-40362753D01*
X127660489Y-40303274D01*
X128027751Y-40204866D01*
X128382716Y-40068608D01*
X128721493Y-39895992D01*
X129040371Y-39688910D01*
X129335856Y-39449631D01*
X129604711Y-39180776D01*
X129843990Y-38885291D01*
X130051072Y-38566413D01*
X130223688Y-38227636D01*
X130359946Y-37872671D01*
X130458354Y-37505409D01*
X130517833Y-37129871D01*
X130537732Y-36750174D01*
X130535269Y-36703174D01*
X143520196Y-36703174D01*
X143538378Y-36876169D01*
X143538379Y-36876172D01*
X143592128Y-37041595D01*
X143592131Y-37041602D01*
X143679104Y-37192244D01*
X143795493Y-37321509D01*
X143795500Y-37321515D01*
X143936220Y-37423754D01*
X143936221Y-37423754D01*
X143936225Y-37423757D01*
X144065821Y-37481457D01*
X144095129Y-37494506D01*
X144095134Y-37494508D01*
X144265280Y-37530674D01*
X144439228Y-37530674D01*
X144609374Y-37494508D01*
X144768283Y-37423757D01*
X144909009Y-37321514D01*
X145025403Y-37192245D01*
X145112377Y-37041602D01*
X145166130Y-36876169D01*
X145184312Y-36703174D01*
X154520196Y-36703174D01*
X154538378Y-36876169D01*
X154538379Y-36876172D01*
X154592128Y-37041595D01*
X154592131Y-37041602D01*
X154679104Y-37192244D01*
X154795493Y-37321509D01*
X154795500Y-37321515D01*
X154936220Y-37423754D01*
X154936221Y-37423754D01*
X154936225Y-37423757D01*
X155065821Y-37481457D01*
X155095129Y-37494506D01*
X155095134Y-37494508D01*
X155265280Y-37530674D01*
X155439228Y-37530674D01*
X155609374Y-37494508D01*
X155768283Y-37423757D01*
X155909009Y-37321514D01*
X156025403Y-37192245D01*
X156112377Y-37041602D01*
X156166130Y-36876169D01*
X156184312Y-36703174D01*
X156166130Y-36530179D01*
X156114239Y-36370477D01*
X156112379Y-36364752D01*
X156112378Y-36364751D01*
X156112377Y-36364746D01*
X156025403Y-36214103D01*
X155909014Y-36084838D01*
X155909007Y-36084832D01*
X155768287Y-35982593D01*
X155768284Y-35982591D01*
X155768283Y-35982591D01*
X155710581Y-35956900D01*
X155609378Y-35911841D01*
X155609373Y-35911839D01*
X155439228Y-35875674D01*
X155265280Y-35875674D01*
X155095134Y-35911839D01*
X155095129Y-35911841D01*
X154936225Y-35982591D01*
X154936220Y-35982593D01*
X154795500Y-36084832D01*
X154795493Y-36084838D01*
X154679104Y-36214103D01*
X154592131Y-36364745D01*
X154592128Y-36364752D01*
X154538379Y-36530175D01*
X154538378Y-36530179D01*
X154520196Y-36703174D01*
X145184312Y-36703174D01*
X145166130Y-36530179D01*
X145114239Y-36370477D01*
X145112379Y-36364752D01*
X145112378Y-36364751D01*
X145112377Y-36364746D01*
X145025403Y-36214103D01*
X144909014Y-36084838D01*
X144909007Y-36084832D01*
X144768287Y-35982593D01*
X144768284Y-35982591D01*
X144768283Y-35982591D01*
X144710581Y-35956900D01*
X144609378Y-35911841D01*
X144609373Y-35911839D01*
X144439228Y-35875674D01*
X144265280Y-35875674D01*
X144095134Y-35911839D01*
X144095129Y-35911841D01*
X143936225Y-35982591D01*
X143936220Y-35982593D01*
X143795500Y-36084832D01*
X143795493Y-36084838D01*
X143679104Y-36214103D01*
X143592131Y-36364745D01*
X143592128Y-36364752D01*
X143538379Y-36530175D01*
X143538378Y-36530179D01*
X143520196Y-36703174D01*
X130535269Y-36703174D01*
X130517833Y-36370477D01*
X130458354Y-35994939D01*
X130359946Y-35627677D01*
X130223688Y-35272712D01*
X130051072Y-34933935D01*
X129843990Y-34615057D01*
X129604711Y-34319572D01*
X129335856Y-34050717D01*
X129040371Y-33811438D01*
X129040369Y-33811436D01*
X128721497Y-33604358D01*
X128382719Y-33431741D01*
X128027758Y-33295484D01*
X128027751Y-33295482D01*
X127660489Y-33197074D01*
X127660485Y-33197073D01*
X127660484Y-33197073D01*
X127284952Y-33137595D01*
X126905255Y-33117696D01*
X126905253Y-33117696D01*
X126525555Y-33137595D01*
X126264184Y-33178992D01*
X126194890Y-33170037D01*
X126141438Y-33125041D01*
X126120799Y-33058289D01*
X126139524Y-32990976D01*
X126191669Y-32944472D01*
X126192144Y-32944248D01*
X126220481Y-32931034D01*
X126227015Y-32928216D01*
X126750116Y-32720404D01*
X126756857Y-32717950D01*
X127291152Y-32540904D01*
X127298017Y-32538849D01*
X127841705Y-32393169D01*
X127848678Y-32391517D01*
X128399892Y-32277700D01*
X128406959Y-32276454D01*
X128963897Y-32194874D01*
X128971002Y-32194044D01*
X129531700Y-32144989D01*
X129538873Y-32144570D01*
X130103555Y-32128139D01*
X130107120Y-32128088D01*
X130159397Y-32128088D01*
X130159405Y-32128087D01*
X155520372Y-32128087D01*
X155558435Y-32128087D01*
X155562041Y-32128139D01*
G37*
%TD.AperFunction*%
%TD*%
M02*
