M48
; DRILL file {KiCad 8.0.0} date 2024-06-13T18:26:09-0400
; FORMAT={-:-/ absolute / inch / decimal}
; #@! TF.CreationDate,2024-06-13T18:26:09-04:00
; #@! TF.GenerationSoftware,Kicad,Pcbnew,8.0.0
; #@! TF.FileFunction,Plated,1,2,PTH
FMAT,2
INCH
; #@! TA.AperFunction,Plated,PTH,ComponentDrill
T1C0.0394
; #@! TA.AperFunction,Plated,PTH,ComponentDrill
T2C0.0748
; #@! TA.AperFunction,Plated,PTH,ComponentDrill
T3C0.1024
; #@! TA.AperFunction,Plated,PTH,ComponentDrill
T4C0.1260
; #@! TA.AperFunction,Plated,PTH,ComponentDrill
T5C0.1575
%
G90
G05
T1
X4.4347Y-2.4078
X4.4464Y-4.6278
X4.5054Y-2.3371
X4.5054Y-2.4786
X4.5171Y-4.5571
X4.5171Y-4.6986
X4.5761Y-2.4078
X4.5761Y-2.5493
X4.5878Y-4.4864
X4.5878Y-4.6278
X4.6469Y-2.4786
X4.6585Y-4.5571
X5.1432Y-5.6087
X5.5762Y-5.6087
X5.6832Y-1.445
X6.1162Y-1.445
X6.5939Y-2.4767
X6.6449Y-4.5258
X6.6449Y-4.6258
X6.6449Y-4.7258
X6.6646Y-2.406
X6.6646Y-2.5474
X6.7353Y-2.3353
X6.7353Y-2.4767
X6.7449Y-4.5258
X6.7449Y-4.6258
X6.7449Y-4.7258
X6.806Y-2.406
T2
X5.2613Y-5.4119
X5.4581Y-5.4119
X5.8013Y-1.6419
X5.9981Y-1.6419
T3
X3.8496Y-3.3801
X3.8496Y-3.6636
X4.0161Y-4.2849
X4.0161Y-2.7587
X4.1578Y-4.5304
X4.1578Y-2.5133
X4.6127Y-4.9853
X4.6127Y-2.0584
X4.8582Y-5.127
X4.8582Y-1.9167
X6.3843Y-5.127
X6.3844Y-1.9167
X6.6298Y-4.9853
X6.6299Y-2.0584
X7.0847Y-4.5304
X7.0847Y-2.5133
X7.2264Y-4.2849
X7.2264Y-2.7588
X7.3929Y-3.3801
X7.3929Y-3.6636
T4
X4.0858Y-1.9864
X4.0858Y-5.0573
X7.1567Y-1.9864
X7.1567Y-5.0573
T5
X4.9963Y-1.4469
X6.2463Y-5.5969
M30
