%TF.GenerationSoftware,KiCad,Pcbnew,8.0.0*%
%TF.CreationDate,2024-06-30T13:13:21-04:00*%
%TF.ProjectId,PDB,5044422e-6b69-4636-9164-5f7063625858,rev?*%
%TF.SameCoordinates,Original*%
%TF.FileFunction,Soldermask,Top*%
%TF.FilePolarity,Negative*%
%FSLAX46Y46*%
G04 Gerber Fmt 4.6, Leading zero omitted, Abs format (unit mm)*
G04 Created by KiCad (PCBNEW 8.0.0) date 2024-06-30 13:13:21*
%MOMM*%
%LPD*%
G01*
G04 APERTURE LIST*
G04 Aperture macros list*
%AMRoundRect*
0 Rectangle with rounded corners*
0 $1 Rounding radius*
0 $2 $3 $4 $5 $6 $7 $8 $9 X,Y pos of 4 corners*
0 Add a 4 corners polygon primitive as box body*
4,1,4,$2,$3,$4,$5,$6,$7,$8,$9,$2,$3,0*
0 Add four circle primitives for the rounded corners*
1,1,$1+$1,$2,$3*
1,1,$1+$1,$4,$5*
1,1,$1+$1,$6,$7*
1,1,$1+$1,$8,$9*
0 Add four rect primitives between the rounded corners*
20,1,$1+$1,$2,$3,$4,$5,0*
20,1,$1+$1,$4,$5,$6,$7,0*
20,1,$1+$1,$6,$7,$8,$9,0*
20,1,$1+$1,$8,$9,$2,$3,0*%
%AMHorizOval*
0 Thick line with rounded ends*
0 $1 width*
0 $2 $3 position (X,Y) of the first rounded end (center of the circle)*
0 $4 $5 position (X,Y) of the second rounded end (center of the circle)*
0 Add line between two ends*
20,1,$1,$2,$3,$4,$5,0*
0 Add two circle primitives to create the rounded ends*
1,1,$1,$2,$3*
1,1,$1,$4,$5*%
%AMRotRect*
0 Rectangle, with rotation*
0 The origin of the aperture is its center*
0 $1 length*
0 $2 width*
0 $3 Rotation angle, in degrees counterclockwise*
0 Add horizontal line*
21,1,$1,$2,0,0,$3*%
G04 Aperture macros list end*
%ADD10C,6.400000*%
%ADD11RoundRect,0.150000X-0.637917X-0.195096X-0.487917X-0.454904X0.637917X0.195096X0.487917X0.454904X0*%
%ADD12C,4.000000*%
%ADD13RoundRect,0.150000X-0.650000X0.150000X-0.650000X-0.150000X0.650000X-0.150000X0.650000X0.150000X0*%
%ADD14RoundRect,0.150000X0.650000X-0.150000X0.650000X0.150000X-0.650000X0.150000X-0.650000X-0.150000X0*%
%ADD15RotRect,1.700000X1.700000X135.000000*%
%ADD16HorizOval,1.700000X0.000000X0.000000X0.000000X0.000000X0*%
%ADD17RoundRect,0.150000X-0.487917X0.454904X-0.637917X0.195096X0.487917X-0.454904X0.637917X-0.195096X0*%
%ADD18RotRect,1.700000X1.700000X315.000000*%
%ADD19HorizOval,1.700000X0.000000X0.000000X0.000000X0.000000X0*%
%ADD20C,1.400000*%
%ADD21R,3.500000X3.500000*%
%ADD22C,3.500000*%
%ADD23R,1.700000X1.700000*%
%ADD24O,1.700000X1.700000*%
%ADD25RoundRect,0.150000X-0.454904X-0.487917X-0.195096X-0.637917X0.454904X0.487917X0.195096X0.637917X0*%
%ADD26RotRect,1.700000X1.700000X225.000000*%
%ADD27HorizOval,1.700000X0.000000X0.000000X0.000000X0.000000X0*%
%ADD28RoundRect,0.150000X0.195096X-0.637917X0.454904X-0.487917X-0.195096X0.637917X-0.454904X0.487917X0*%
%ADD29RoundRect,0.150000X0.487917X-0.454904X0.637917X-0.195096X-0.487917X0.454904X-0.637917X0.195096X0*%
%ADD30RoundRect,0.150000X0.637917X0.195096X0.487917X0.454904X-0.637917X-0.195096X-0.487917X-0.454904X0*%
%ADD31RoundRect,0.150000X0.454904X0.487917X0.195096X0.637917X-0.454904X-0.487917X-0.195096X-0.637917X0*%
%ADD32RoundRect,0.150000X-0.195096X0.637917X-0.454904X0.487917X0.195096X-0.637917X0.454904X-0.487917X0*%
%ADD33C,5.000000*%
G04 APERTURE END LIST*
D10*
%TO.C,H3*%
X103780254Y-128455174D03*
%TD*%
D11*
%TO.C,J13*%
X95237742Y-109108693D03*
X101987742Y-120800035D03*
D12*
X105608894Y-115072055D03*
X102008894Y-108836673D03*
%TD*%
D10*
%TO.C,H2*%
X103780254Y-50455174D03*
%TD*%
D13*
%TO.C,J14*%
X91780254Y-82704306D03*
X91780254Y-96204306D03*
D12*
X97780254Y-93054306D03*
X97780254Y-85854306D03*
%TD*%
D14*
%TO.C,J9*%
X193780254Y-96205174D03*
X193780254Y-82705174D03*
D12*
X187780254Y-85855174D03*
X187780254Y-93055174D03*
%TD*%
D15*
%TO.C,J1*%
X169280254Y-64705174D03*
D16*
X167484203Y-62909123D03*
X171076305Y-62909123D03*
X169280254Y-61113072D03*
X172872356Y-61113072D03*
X171076305Y-59317020D03*
%TD*%
D17*
%TO.C,J15*%
X101988176Y-58108693D03*
X95238176Y-69800035D03*
D12*
X102009328Y-70072055D03*
X105609328Y-63836673D03*
%TD*%
D18*
%TO.C,J3*%
X116530254Y-113955174D03*
D19*
X118326305Y-115751225D03*
X114734203Y-115751225D03*
X116530254Y-117547276D03*
X112938152Y-117547276D03*
X114734203Y-119343328D03*
%TD*%
D20*
%TO.C,J6*%
X141636254Y-142461174D03*
X130636254Y-142461174D03*
D21*
X138636254Y-137461174D03*
D22*
X133636254Y-137461174D03*
%TD*%
D23*
%TO.C,J2*%
X168780254Y-114955174D03*
D24*
X171320254Y-114955174D03*
X168780254Y-117495174D03*
X171320254Y-117495174D03*
X168780254Y-120035174D03*
X171320254Y-120035174D03*
%TD*%
D10*
%TO.C,H5*%
X181780254Y-128455174D03*
%TD*%
D25*
%TO.C,J12*%
X111434207Y-130246818D03*
X123125549Y-136996818D03*
D12*
X123397569Y-130225666D03*
X117162187Y-126625666D03*
%TD*%
D26*
%TO.C,J4*%
X118030254Y-62955174D03*
D27*
X116234203Y-64751225D03*
X116234203Y-61159123D03*
X114438152Y-62955174D03*
X114438152Y-59363072D03*
X112642100Y-61159123D03*
%TD*%
D10*
%TO.C,H6*%
X181780254Y-50455174D03*
%TD*%
D20*
%TO.C,J5*%
X144352254Y-36703174D03*
X155352254Y-36703174D03*
D21*
X147352254Y-41703174D03*
D22*
X152352254Y-41703174D03*
%TD*%
D28*
%TO.C,J11*%
X162434207Y-136997252D03*
X174125549Y-130247252D03*
D12*
X168397569Y-126626100D03*
X162162187Y-130226100D03*
%TD*%
D29*
%TO.C,J10*%
X183572332Y-120800787D03*
X190322332Y-109109445D03*
D12*
X183551180Y-108837425D03*
X179951180Y-115072807D03*
%TD*%
D30*
%TO.C,J8*%
X190322766Y-69800787D03*
X183572766Y-58109445D03*
D12*
X179951614Y-63837425D03*
X183551614Y-70072807D03*
%TD*%
D31*
%TO.C,J7*%
X174126301Y-48662662D03*
X162434959Y-41912662D03*
D12*
X162162939Y-48683814D03*
X168398321Y-52283814D03*
%TD*%
D32*
%TO.C,J16*%
X123126301Y-41912228D03*
X111434959Y-48662228D03*
D12*
X117162939Y-52283380D03*
X123398321Y-48683380D03*
%TD*%
D33*
%TO.C,H4*%
X158655254Y-142160174D03*
%TD*%
%TO.C,H1*%
X126905254Y-36750174D03*
%TD*%
M02*
