%TF.GenerationSoftware,KiCad,Pcbnew,8.0.0*%
%TF.CreationDate,2024-06-13T18:26:09-04:00*%
%TF.ProjectId,PDB,5044422e-6b69-4636-9164-5f7063625858,rev?*%
%TF.SameCoordinates,Original*%
%TF.FileFunction,Profile,NP*%
%FSLAX46Y46*%
G04 Gerber Fmt 4.6, Leading zero omitted, Abs format (unit mm)*
G04 Created by KiCad (PCBNEW 8.0.0) date 2024-06-13 18:26:09*
%MOMM*%
%LPD*%
G01*
G04 APERTURE LIST*
%TA.AperFunction,Profile*%
%ADD10C,0.200000*%
%TD*%
G04 APERTURE END LIST*
D10*
X99400000Y-49655174D02*
G75*
G02*
X103060269Y-45994946I8660200J-5000026D01*
G01*
X160560253Y-145587841D02*
X182605080Y-132860254D01*
X85332667Y-76700001D02*
X85332667Y-102155173D01*
X130105081Y-146927587D02*
G75*
G02*
X125105075Y-145587851I-81J9999787D01*
G01*
X182605080Y-45994920D02*
X160560253Y-33267333D01*
X85332667Y-76700001D02*
G75*
G02*
X86672409Y-71699999I10000033J1D01*
G01*
X86672413Y-107155173D02*
G75*
G02*
X85332685Y-102155173I8660287J4999973D01*
G01*
X200332667Y-102155173D02*
X200332667Y-76700001D01*
X130105081Y-146927587D02*
X155560253Y-146927587D01*
X160560253Y-145587840D02*
G75*
G02*
X155560253Y-146927601I-5000053J8660340D01*
G01*
X155560253Y-31927587D02*
G75*
G02*
X160560266Y-33267311I47J-10000013D01*
G01*
X155560253Y-31927587D02*
X130105081Y-31927587D01*
X125105082Y-33267335D02*
G75*
G02*
X130105081Y-31927595I5000018J-8660365D01*
G01*
X186265334Y-129200000D02*
X198992921Y-107155173D01*
X125105081Y-33267333D02*
X103060254Y-45994920D01*
X103060254Y-132860253D02*
G75*
G02*
X99399984Y-129200009I4999946J8660253D01*
G01*
X103060254Y-132860254D02*
X125105081Y-145587841D01*
X182605080Y-45994920D02*
G75*
G02*
X186265349Y-49655166I-5000080J-8660380D01*
G01*
X86672413Y-107155173D02*
X99400000Y-129200000D01*
X198992921Y-71700001D02*
X186265334Y-49655174D01*
X200332667Y-102155173D02*
G75*
G02*
X198992929Y-107155178I-9999967J-27D01*
G01*
X198992920Y-71700001D02*
G75*
G02*
X200332680Y-76700001I-8660520J-5000099D01*
G01*
X99400000Y-49655174D02*
X86672413Y-71700001D01*
X162832667Y-89427587D02*
G75*
G02*
X122832667Y-89427587I-20000000J0D01*
G01*
X122832667Y-89427587D02*
G75*
G02*
X162832667Y-89427587I20000000J0D01*
G01*
X186265333Y-129200000D02*
G75*
G02*
X182605076Y-132860247I-8660233J5000000D01*
G01*
M02*
