M48
; DRILL file {KiCad (5.1.12)-1} date 12/15/21 00:56:13
; FORMAT={-:-/ absolute / inch / decimal}
; #@! TF.CreationDate,2021-12-15T00:56:13-05:00
; #@! TF.GenerationSoftware,Kicad,Pcbnew,(5.1.12)-1
; #@! TF.FileFunction,Plated,1,4,PTH
FMAT,2
INCH
T1C0.0079
T2C0.0157
T3C0.0197
T4C0.0256
T5C0.0300
T6C0.0315
T7C0.0394
T8C0.0402
T9C0.0591
T10C0.0709
T11C0.0748
T12C0.0787
T13C0.1260
%
G90
G05
T1
X6.5531Y-4.7773
X6.692Y-4.466
X6.6957Y-4.4925
X6.6975Y-4.5575
X6.707Y-4.602
X6.719Y-4.517
X6.7475Y-4.08
X6.792Y-5.801
X6.8206Y-3.7173
X6.92Y-4.79
X7.002Y-5.715
X7.008Y-3.361
X7.098Y-5.968
X7.153Y-6.07
X7.189Y-5.639
X7.252Y-5.932
X7.26Y-5.704
X7.298Y-6.042
X7.315Y-6.026
X7.323Y-3.411
X7.326Y-6.07
X7.329Y-3.35
X7.342Y-6.053
X7.35Y-3.308
X7.35Y-3.391
X7.351Y-3.436
X7.36Y-6.035
X7.372Y-3.417
X7.376Y-3.46
X7.379Y-6.015
X7.397Y-3.439
X7.44Y-3.56
X7.45Y-5.98
X7.461Y-3.339
X7.482Y-5.135
X7.603Y-4.602
X7.6035Y-4.6295
X7.652Y-3.917
X7.667Y-5.028
X7.67Y-4.993
X7.672Y-3.94
X7.675Y-2.99
X7.6763Y-5.0644
X7.678Y-3.267
X7.692Y-3.962
X7.6957Y-5.0729
X7.6959Y-5.0373
X7.699Y-5.001
X7.7116Y-5.8852
X7.712Y-3.988
X7.717Y-3.232
X7.745Y-3.337
X7.747Y-4.722
X7.76Y-5.1994
X7.867Y-4.702
X7.916Y-5.14
X7.937Y-3.735
X7.9977Y-3.3603
X8.002Y-3.114
X8.0356Y-4.39
X8.0356Y-4.4147
X8.1031Y-5.6273
X8.155Y-4.36
X8.1631Y-3.5948
X8.1631Y-3.6348
X8.185Y-3.751
X8.232Y-6.709
X8.2356Y-5.5473
X8.2544Y-2.7561
X8.2625Y-4.58
X8.2626Y-6.34
X8.2719Y-2.7736
X8.2828Y-6.7287
X8.2906Y-4.4325
X8.2906Y-4.4572
X8.3Y-4.62
X8.305Y-4.54
X8.3431Y-4.4323
X8.4345Y-4.7595
X8.443Y-4.672
X8.4505Y-4.7755
X8.5032Y-5.0824
X8.538Y-4.44
X8.543Y-5.0504
X8.555Y-4.51
X8.5575Y-4.865
X8.568Y-5.301
X8.5711Y-4.686
X8.584Y-4.705
X8.588Y-5.047
X8.6049Y-4.7625
X8.605Y-4.6497
X8.605Y-4.6709
X8.6075Y-4.53
X8.6084Y-4.7129
X8.6125Y-4.6053
X8.6125Y-4.785
X8.6125Y-4.88
X8.615Y-4.9025
X8.663Y-5.753
X8.69Y-4.9225
X8.693Y-4.596
X8.703Y-4.549
X8.705Y-4.686
X8.73Y-4.43
X8.7907Y-4.4273
X8.809Y-4.379
X8.8125Y-4.575
X8.815Y-5.94
X8.8154Y-4.4273
X8.865Y-5.1371
X8.8877Y-4.5033
X8.8921Y-4.6874
X8.8928Y-4.5556
X8.8931Y-4.9823
X8.8956Y-5.0798
X8.8958Y-4.4702
X8.9Y-4.6228
X8.9006Y-5.1298
X8.902Y-4.6672
X8.905Y-4.6
X8.9051Y-4.6456
X8.9072Y-4.7587
X8.908Y-5.041
X8.91Y-4.7
X8.9103Y-5.0998
X8.9109Y-4.7262
X8.9115Y-4.4355
X8.914Y-4.896
X8.915Y-5.012
X8.9215Y-4.7744
X8.9221Y-4.4868
X8.9228Y-4.5293
X8.924Y-5.773
X8.9299Y-5.1487
X8.939Y-4.788
X8.942Y-4.8738
X8.969Y-5.176
X8.99Y-3.77
X9.0Y-3.61
X9.038Y-5.808
X9.0731Y-2.7973
X9.081Y-5.078
X9.0931Y-3.1923
X9.0981Y-2.8248
X9.1038Y-5.0432
X9.105Y-5.64
X9.11Y-4.82
X9.1101Y-4.7926
X9.128Y-5.076
X9.1281Y-2.7873
X9.1325Y-5.6251
X9.1331Y-2.8373
X9.1375Y-4.7925
X9.1375Y-4.82
X9.162Y-4.743
X9.175Y-5.6399
X9.184Y-3.501
X9.186Y-3.54
X9.186Y-3.59
X9.1931Y-3.2273
X9.21Y-5.513
X9.2199Y-5.4888
X9.23Y-5.6484
X9.247Y-5.505
X9.25Y-5.46
X9.257Y-5.223
X9.294Y-4.251
X9.3549Y-4.04
X9.41Y-4.497
X9.425Y-3.91
X9.444Y-3.966
X9.453Y-3.757
X9.477Y-3.965
X9.505Y-4.743
X9.5072Y-3.5377
X9.538Y-4.567
X9.591Y-2.987
X9.6141Y-3.4525
X9.65Y-3.99
X9.653Y-5.485
X9.657Y-4.566
X9.7863Y-3.4022
X9.788Y-4.6969
X9.83Y-4.649
X9.833Y-4.688
X9.8638Y-4.6702
X9.867Y-4.706
X9.8769Y-3.3318
X9.949Y-4.69
X10.027Y-5.184
X10.075Y-4.91
X10.085Y-4.83
X10.0974Y-3.4378
X10.103Y-4.779
X10.144Y-4.783
X10.146Y-5.168
X10.214Y-4.687
X10.271Y-4.69
X10.3Y-4.804
X10.315Y-5.105
X10.328Y-4.729
X10.398Y-5.012
X10.399Y-4.778
X10.4306Y-5.8198
X10.434Y-4.92
X10.4581Y-5.8998
X10.4631Y-3.6723
X10.4681Y-5.8223
X10.4881Y-5.8698
X10.4981Y-5.8123
X10.7287Y-4.6753
T2
X6.46Y-4.798
X6.545Y-4.581
X6.548Y-4.876
X6.62Y-5.0547
X6.62Y-5.1453
X6.703Y-5.654
X6.726Y-3.67
X6.77Y-5.889
X6.773Y-3.779
X6.861Y-5.163
X6.893Y-5.187
X6.921Y-3.52
X7.0Y-5.185
X7.022Y-5.3405
X7.0235Y-4.8735
X7.029Y-5.4205
X7.036Y-5.137
X7.038Y-5.173
X7.04Y-5.47
X7.04Y-5.58
X7.0489Y-3.8189
X7.059Y-5.9396
X7.0845Y-5.4185
X7.09Y-5.47
X7.09Y-5.58
X7.14Y-5.166
X7.14Y-5.47
X7.14Y-5.58
X7.144Y-4.189
X7.173Y-4.153
X7.181Y-5.163
X7.19Y-3.6847
X7.19Y-3.7753
X7.24Y-5.14
X7.245Y-5.6405
X7.26Y-4.1957
X7.26Y-4.2863
X7.295Y-3.903
X7.3Y-5.14
X7.315Y-5.5057
X7.315Y-5.5963
X7.3255Y-5.692
X7.337Y-3.903
X7.34Y-3.6847
X7.34Y-3.7753
X7.352Y-4.283
X7.368Y-3.062
X7.37Y-5.14
X7.406Y-4.1957
X7.406Y-4.2863
X7.43Y-5.36
X7.43Y-5.4
X7.457Y-4.666
X7.457Y-4.894
X7.46Y-5.5047
X7.46Y-5.5953
X7.475Y-3.8111
X7.477Y-2.875
X7.48Y-6.56
X7.485Y-4.005
X7.489Y-4.691
X7.51Y-4.894
X7.55Y-6.225
X7.56Y-6.305
X7.585Y-5.305
X7.61Y-4.29
X7.631Y-3.476
X7.645Y-2.755
X7.645Y-6.395
X7.6965Y-4.95
X7.7Y-2.725
X7.725Y-2.765
X7.77Y-6.5
X7.79Y-2.67
X7.795Y-2.82
X7.81Y-3.611
X7.825Y-2.715
X7.825Y-2.865
X7.825Y-2.92
X7.825Y-2.97
X7.835Y-2.645
X7.835Y-2.785
X7.84Y-5.94
X7.86Y-6.32
X7.866Y-2.82
X7.87Y-6.5
X7.875Y-2.685
X7.876Y-3.555
X7.877Y-3.606
X7.885Y-2.615
X7.885Y-2.768
X7.935Y-2.585
X7.95Y-6.33
X8.01Y-6.49
X8.06Y-5.634
X8.123Y-3.09
X8.22Y-2.6575
X8.27Y-4.6625
X8.28Y-3.015
X8.2825Y-4.26
X8.2825Y-4.31
X8.297Y-5.261
X8.3447Y-5.57
X8.3447Y-5.7
X8.345Y-4.91
X8.347Y-6.837
X8.349Y-5.261
X8.35Y-4.735
X8.412Y-5.324
X8.4123Y-5.2773
X8.4353Y-5.57
X8.4353Y-5.7
X8.45Y-4.91
X8.4575Y-5.6095
X8.46Y-3.23
X8.46Y-3.28
X8.48Y-2.99
X8.5Y-3.23
X8.5Y-3.28
X8.5028Y-6.5507
X8.5028Y-6.6413
X8.5279Y-2.8273
X8.54Y-3.23
X8.54Y-3.28
X8.574Y-2.907
X8.6Y-4.045
X8.605Y-4.9525
X8.6184Y-2.8273
X8.65Y-3.23
X8.65Y-3.28
X8.693Y-4.453
X8.695Y-2.59
X8.695Y-4.513
X8.6975Y-4.6275
X8.7Y-3.23
X8.7Y-3.28
X8.709Y-5.627
X8.725Y-4.77
X8.73Y-3.075
X8.748Y-6.841
X8.75Y-3.23
X8.75Y-3.28
X8.7947Y-6.3
X8.8Y-3.28
X8.8066Y-6.5503
X8.8066Y-6.6409
X8.8325Y-2.59
X8.835Y-5.365
X8.8853Y-6.3
X8.93Y-2.5925
X8.94Y-4.045
X9.0075Y-2.5925
X9.056Y-5.641
X9.061Y-2.528
X9.07Y-6.14
X9.13Y-6.14
X9.13Y-6.22
X9.13Y-6.3
X9.13Y-6.36
X9.13Y-6.45
X9.13Y-6.51
X9.146Y-6.839
X9.18Y-6.18
X9.18Y-6.26
X9.18Y-6.34
X9.18Y-6.43
X9.18Y-6.49
X9.245Y-4.425
X9.245Y-4.77
X9.33Y-6.21
X9.33Y-6.27
X9.38Y-6.21
X9.38Y-6.27
X9.404Y-4.859
X9.405Y-4.96
X9.425Y-6.21
X9.425Y-6.27
X9.4372Y-5.68
X9.47Y-4.045
X9.47Y-4.42
X9.47Y-6.71
X9.496Y-5.776
X9.522Y-6.8
X9.5278Y-5.73
X9.5278Y-5.68
X9.5311Y-2.8301
X9.544Y-4.387
X9.547Y-6.765
X9.58Y-6.21
X9.58Y-6.27
X9.63Y-6.21
X9.64Y-6.27
X9.644Y-2.806
X9.655Y-4.19
X9.68Y-6.21
X9.692Y-4.745
X9.7Y-6.27
X9.704Y-4.785
X9.705Y-3.925
X9.73Y-6.21
X9.731Y-4.293
X9.76Y-6.27
X9.825Y-3.056
X9.875Y-3.775
X9.905Y-5.73
X9.905Y-5.915
X9.9147Y-5.68
X9.9674Y-3.4461
X10.0053Y-5.68
X10.015Y-4.365
X10.018Y-5.024
X10.051Y-4.789
X10.09Y-4.585
X10.185Y-4.425
X10.27Y-5.999
X10.28Y-5.023
X10.344Y-4.771
X10.351Y-3.577
X10.393Y-5.674
X10.41Y-5.1
X10.43Y-6.03
X10.47Y-5.768
X10.508Y-3.559
X10.536Y-3.895
X10.68Y-4.912
X10.681Y-4.54
X10.845Y-4.627
T3
X7.935Y-2.645
X8.03Y-2.54
X8.5169Y-5.6117
X9.4325Y-3.3425
X9.435Y-3.28
T4
X8.95Y-5.87
X8.95Y-5.92
X9.0Y-5.87
X9.0Y-5.92
X9.05Y-5.87
X9.05Y-5.92
X9.1Y-5.87
X9.1Y-5.92
X9.15Y-5.87
X9.15Y-5.92
X9.2Y-5.87
X9.2Y-5.92
X9.365Y-5.8935
X9.415Y-5.8935
X9.465Y-5.8935
X9.54Y-3.94
X9.54Y-3.99
X9.54Y-4.04
T5
X7.9281Y-3.8723
X8.1281Y-3.8723
T6
X6.6025Y-4.1325
X6.7025Y-4.0325
X6.7025Y-4.2325
X8.075Y-6.395
X8.075Y-6.595
X8.175Y-6.495
X8.66Y-3.8
X8.76Y-3.9
X8.86Y-3.8
T7
X9.8031Y-5.4273
X9.8031Y-5.5273
X9.9031Y-5.4273
X9.9031Y-5.5273
X10.0031Y-5.4273
X10.0031Y-5.5273
X10.1031Y-5.4273
X10.1031Y-5.5273
X10.2031Y-5.4273
X10.2031Y-5.5273
X10.3031Y-5.4273
X10.3031Y-5.5273
X10.4031Y-5.4273
X10.4031Y-5.5273
X10.5031Y-5.4273
X10.5031Y-5.5273
X10.6719Y-3.985
X10.6719Y-4.4181
T8
X7.4666Y-3.6136
X7.4779Y-5.8331
X7.5373Y-3.5429
X7.5373Y-3.6843
X7.5486Y-5.7624
X7.5486Y-5.9038
X7.608Y-3.6136
X7.608Y-3.7551
X7.6193Y-5.6916
X7.6193Y-5.8331
X7.6787Y-3.6843
X7.6901Y-5.7624
X9.6254Y-3.6822
X9.6767Y-5.7312
X9.6767Y-5.8312
X9.6767Y-5.9312
X9.6961Y-3.6115
X9.6961Y-3.7529
X9.7669Y-3.5408
X9.7669Y-3.6822
X9.7767Y-5.7312
X9.7767Y-5.8312
X9.7767Y-5.9312
X9.8376Y-3.6115
T9
X6.7854Y-4.4073
X6.7854Y-4.7073
X6.7854Y-5.0073
X7.3209Y-4.5573
X7.3209Y-4.7073
X7.3209Y-4.8573
X8.3531Y-6.5951
X8.3854Y-2.8523
X8.3854Y-3.1523
X8.3854Y-3.4523
X8.5031Y-6.0596
X8.6531Y-6.0596
X8.6531Y-6.5951
X8.8031Y-6.0596
X8.9209Y-3.0023
X8.9209Y-3.1523
X8.9209Y-3.3023
X8.9531Y-6.5951
T10
X8.0626Y-4.1368
X8.0626Y-5.3179
X9.2437Y-4.1368
X9.2437Y-5.3179
T11
X10.475Y-4.1031
X10.475Y-4.3
T12
X7.3209Y-4.4073
X7.3209Y-5.0073
X8.3531Y-6.0596
X8.9209Y-2.8523
X8.9209Y-3.4523
X8.9531Y-6.0596
T13
X7.1181Y-3.1923
X7.1181Y-6.2623
X10.1531Y-4.0167
X10.1881Y-3.1923
X10.1881Y-6.2623
T0
M30
