%TF.GenerationSoftware,KiCad,Pcbnew,(5.1.12)-1*%
%TF.CreationDate,2021-12-15T00:56:12-05:00*%
%TF.ProjectId,P2_PowerSystem,50325f50-6f77-4657-9253-797374656d2e,rev?*%
%TF.SameCoordinates,Original*%
%TF.FileFunction,Legend,Bot*%
%TF.FilePolarity,Positive*%
%FSLAX46Y46*%
G04 Gerber Fmt 4.6, Leading zero omitted, Abs format (unit mm)*
G04 Created by KiCad (PCBNEW (5.1.12)-1) date 2021-12-15 00:56:12*
%MOMM*%
%LPD*%
G01*
G04 APERTURE LIST*
%ADD10C,0.150000*%
%ADD11C,0.120000*%
%ADD12C,0.200000*%
%ADD13O,1.000000X1.000000*%
%ADD14R,1.000000X1.000000*%
%ADD15R,1.700000X1.700000*%
%ADD16O,1.700000X1.700000*%
%ADD17C,4.000000*%
%ADD18C,3.500000*%
%ADD19R,3.500000X3.500000*%
%ADD20C,1.400000*%
%ADD21C,1.420000*%
%ADD22C,1.524000*%
%ADD23C,1.440000*%
%ADD24C,5.600000*%
%ADD25R,1.270000X1.778000*%
%ADD26C,2.200000*%
%ADD27C,0.100000*%
%ADD28C,1.370000*%
%ADD29R,1.370000X1.370000*%
%ADD30C,3.700000*%
%ADD31C,2.500000*%
G04 APERTURE END LIST*
D10*
X230170333Y-140565142D02*
X230217952Y-140612761D01*
X230360809Y-140660380D01*
X230456047Y-140660380D01*
X230598904Y-140612761D01*
X230694142Y-140517523D01*
X230741761Y-140422285D01*
X230789380Y-140231809D01*
X230789380Y-140088952D01*
X230741761Y-139898476D01*
X230694142Y-139803238D01*
X230598904Y-139708000D01*
X230456047Y-139660380D01*
X230360809Y-139660380D01*
X230217952Y-139708000D01*
X230170333Y-139755619D01*
X229741761Y-139660380D02*
X229741761Y-140469904D01*
X229694142Y-140565142D01*
X229646523Y-140612761D01*
X229551285Y-140660380D01*
X229360809Y-140660380D01*
X229265571Y-140612761D01*
X229217952Y-140565142D01*
X229170333Y-140469904D01*
X229170333Y-139660380D01*
X228360809Y-140136571D02*
X228217952Y-140184190D01*
X228170333Y-140231809D01*
X228122714Y-140327047D01*
X228122714Y-140469904D01*
X228170333Y-140565142D01*
X228217952Y-140612761D01*
X228313190Y-140660380D01*
X228694142Y-140660380D01*
X228694142Y-139660380D01*
X228360809Y-139660380D01*
X228265571Y-139708000D01*
X228217952Y-139755619D01*
X228170333Y-139850857D01*
X228170333Y-139946095D01*
X228217952Y-140041333D01*
X228265571Y-140088952D01*
X228360809Y-140136571D01*
X228694142Y-140136571D01*
X227694142Y-140136571D02*
X227360809Y-140136571D01*
X227217952Y-140660380D02*
X227694142Y-140660380D01*
X227694142Y-139660380D01*
X227217952Y-139660380D01*
X226075095Y-140374666D02*
X225598904Y-140374666D01*
X226170333Y-140660380D02*
X225837000Y-139660380D01*
X225503666Y-140660380D01*
X224741761Y-139993714D02*
X224741761Y-140660380D01*
X225170333Y-139993714D02*
X225170333Y-140517523D01*
X225122714Y-140612761D01*
X225027476Y-140660380D01*
X224884619Y-140660380D01*
X224789380Y-140612761D01*
X224741761Y-140565142D01*
X224408428Y-139993714D02*
X224027476Y-139993714D01*
X224265571Y-139660380D02*
X224265571Y-140517523D01*
X224217952Y-140612761D01*
X224122714Y-140660380D01*
X224027476Y-140660380D01*
X223551285Y-140660380D02*
X223646523Y-140612761D01*
X223694142Y-140565142D01*
X223741761Y-140469904D01*
X223741761Y-140184190D01*
X223694142Y-140088952D01*
X223646523Y-140041333D01*
X223551285Y-139993714D01*
X223408428Y-139993714D01*
X223313190Y-140041333D01*
X223265571Y-140088952D01*
X223217952Y-140184190D01*
X223217952Y-140469904D01*
X223265571Y-140565142D01*
X223313190Y-140612761D01*
X223408428Y-140660380D01*
X223551285Y-140660380D01*
X222789380Y-139993714D02*
X222789380Y-140993714D01*
X222789380Y-140041333D02*
X222694142Y-139993714D01*
X222503666Y-139993714D01*
X222408428Y-140041333D01*
X222360809Y-140088952D01*
X222313190Y-140184190D01*
X222313190Y-140469904D01*
X222360809Y-140565142D01*
X222408428Y-140612761D01*
X222503666Y-140660380D01*
X222694142Y-140660380D01*
X222789380Y-140612761D01*
X221884619Y-140660380D02*
X221884619Y-139993714D01*
X221884619Y-139660380D02*
X221932238Y-139708000D01*
X221884619Y-139755619D01*
X221837000Y-139708000D01*
X221884619Y-139660380D01*
X221884619Y-139755619D01*
X221265571Y-140660380D02*
X221360809Y-140612761D01*
X221408428Y-140517523D01*
X221408428Y-139660380D01*
X220741761Y-140660380D02*
X220837000Y-140612761D01*
X220884619Y-140565142D01*
X220932238Y-140469904D01*
X220932238Y-140184190D01*
X220884619Y-140088952D01*
X220837000Y-140041333D01*
X220741761Y-139993714D01*
X220598904Y-139993714D01*
X220503666Y-140041333D01*
X220456047Y-140088952D01*
X220408428Y-140184190D01*
X220408428Y-140469904D01*
X220456047Y-140565142D01*
X220503666Y-140612761D01*
X220598904Y-140660380D01*
X220741761Y-140660380D01*
X220122714Y-139993714D02*
X219741761Y-139993714D01*
X219979857Y-139660380D02*
X219979857Y-140517523D01*
X219932238Y-140612761D01*
X219837000Y-140660380D01*
X219741761Y-140660380D01*
X218075095Y-140565142D02*
X218122714Y-140612761D01*
X218265571Y-140660380D01*
X218360809Y-140660380D01*
X218503666Y-140612761D01*
X218598904Y-140517523D01*
X218646523Y-140422285D01*
X218694142Y-140231809D01*
X218694142Y-140088952D01*
X218646523Y-139898476D01*
X218598904Y-139803238D01*
X218503666Y-139708000D01*
X218360809Y-139660380D01*
X218265571Y-139660380D01*
X218122714Y-139708000D01*
X218075095Y-139755619D01*
X217217952Y-140660380D02*
X217217952Y-140136571D01*
X217265571Y-140041333D01*
X217360809Y-139993714D01*
X217551285Y-139993714D01*
X217646523Y-140041333D01*
X217217952Y-140612761D02*
X217313190Y-140660380D01*
X217551285Y-140660380D01*
X217646523Y-140612761D01*
X217694142Y-140517523D01*
X217694142Y-140422285D01*
X217646523Y-140327047D01*
X217551285Y-140279428D01*
X217313190Y-140279428D01*
X217217952Y-140231809D01*
X216741761Y-140660380D02*
X216741761Y-139993714D01*
X216741761Y-140184190D02*
X216694142Y-140088952D01*
X216646523Y-140041333D01*
X216551285Y-139993714D01*
X216456047Y-139993714D01*
X216122714Y-140660380D02*
X216122714Y-139993714D01*
X216122714Y-140184190D02*
X216075095Y-140088952D01*
X216027476Y-140041333D01*
X215932238Y-139993714D01*
X215837000Y-139993714D01*
X215503666Y-140660380D02*
X215503666Y-139993714D01*
X215503666Y-139660380D02*
X215551285Y-139708000D01*
X215503666Y-139755619D01*
X215456047Y-139708000D01*
X215503666Y-139660380D01*
X215503666Y-139755619D01*
X214646523Y-140612761D02*
X214741761Y-140660380D01*
X214932238Y-140660380D01*
X215027476Y-140612761D01*
X215075095Y-140517523D01*
X215075095Y-140136571D01*
X215027476Y-140041333D01*
X214932238Y-139993714D01*
X214741761Y-139993714D01*
X214646523Y-140041333D01*
X214598904Y-140136571D01*
X214598904Y-140231809D01*
X215075095Y-140327047D01*
X214170333Y-140660380D02*
X214170333Y-139993714D01*
X214170333Y-140184190D02*
X214122714Y-140088952D01*
X214075095Y-140041333D01*
X213979857Y-139993714D01*
X213884619Y-139993714D01*
X212456047Y-140136571D02*
X212313190Y-140184190D01*
X212265571Y-140231809D01*
X212217952Y-140327047D01*
X212217952Y-140469904D01*
X212265571Y-140565142D01*
X212313190Y-140612761D01*
X212408428Y-140660380D01*
X212789380Y-140660380D01*
X212789380Y-139660380D01*
X212456047Y-139660380D01*
X212360809Y-139708000D01*
X212313190Y-139755619D01*
X212265571Y-139850857D01*
X212265571Y-139946095D01*
X212313190Y-140041333D01*
X212360809Y-140088952D01*
X212456047Y-140136571D01*
X212789380Y-140136571D01*
X211646523Y-140660380D02*
X211741761Y-140612761D01*
X211789380Y-140565142D01*
X211837000Y-140469904D01*
X211837000Y-140184190D01*
X211789380Y-140088952D01*
X211741761Y-140041333D01*
X211646523Y-139993714D01*
X211503666Y-139993714D01*
X211408428Y-140041333D01*
X211360809Y-140088952D01*
X211313190Y-140184190D01*
X211313190Y-140469904D01*
X211360809Y-140565142D01*
X211408428Y-140612761D01*
X211503666Y-140660380D01*
X211646523Y-140660380D01*
X210456047Y-140660380D02*
X210456047Y-140136571D01*
X210503666Y-140041333D01*
X210598904Y-139993714D01*
X210789380Y-139993714D01*
X210884619Y-140041333D01*
X210456047Y-140612761D02*
X210551285Y-140660380D01*
X210789380Y-140660380D01*
X210884619Y-140612761D01*
X210932238Y-140517523D01*
X210932238Y-140422285D01*
X210884619Y-140327047D01*
X210789380Y-140279428D01*
X210551285Y-140279428D01*
X210456047Y-140231809D01*
X209979857Y-140660380D02*
X209979857Y-139993714D01*
X209979857Y-140184190D02*
X209932238Y-140088952D01*
X209884619Y-140041333D01*
X209789380Y-139993714D01*
X209694142Y-139993714D01*
X208932238Y-140660380D02*
X208932238Y-139660380D01*
X208932238Y-140612761D02*
X209027476Y-140660380D01*
X209217952Y-140660380D01*
X209313190Y-140612761D01*
X209360809Y-140565142D01*
X209408428Y-140469904D01*
X209408428Y-140184190D01*
X209360809Y-140088952D01*
X209313190Y-140041333D01*
X209217952Y-139993714D01*
X209027476Y-139993714D01*
X208932238Y-140041333D01*
X227519523Y-142312380D02*
X227519523Y-141312380D01*
X227281428Y-141312380D01*
X227138571Y-141360000D01*
X227043333Y-141455238D01*
X226995714Y-141550476D01*
X226948095Y-141740952D01*
X226948095Y-141883809D01*
X226995714Y-142074285D01*
X227043333Y-142169523D01*
X227138571Y-142264761D01*
X227281428Y-142312380D01*
X227519523Y-142312380D01*
X226138571Y-142264761D02*
X226233809Y-142312380D01*
X226424285Y-142312380D01*
X226519523Y-142264761D01*
X226567142Y-142169523D01*
X226567142Y-141788571D01*
X226519523Y-141693333D01*
X226424285Y-141645714D01*
X226233809Y-141645714D01*
X226138571Y-141693333D01*
X226090952Y-141788571D01*
X226090952Y-141883809D01*
X226567142Y-141979047D01*
X225710000Y-142264761D02*
X225614761Y-142312380D01*
X225424285Y-142312380D01*
X225329047Y-142264761D01*
X225281428Y-142169523D01*
X225281428Y-142121904D01*
X225329047Y-142026666D01*
X225424285Y-141979047D01*
X225567142Y-141979047D01*
X225662380Y-141931428D01*
X225710000Y-141836190D01*
X225710000Y-141788571D01*
X225662380Y-141693333D01*
X225567142Y-141645714D01*
X225424285Y-141645714D01*
X225329047Y-141693333D01*
X224852857Y-142312380D02*
X224852857Y-141645714D01*
X224852857Y-141312380D02*
X224900476Y-141360000D01*
X224852857Y-141407619D01*
X224805238Y-141360000D01*
X224852857Y-141312380D01*
X224852857Y-141407619D01*
X224376666Y-141645714D02*
X224376666Y-142312380D01*
X224376666Y-141740952D02*
X224329047Y-141693333D01*
X224233809Y-141645714D01*
X224090952Y-141645714D01*
X223995714Y-141693333D01*
X223948095Y-141788571D01*
X223948095Y-142312380D01*
X223043333Y-141645714D02*
X223043333Y-142455238D01*
X223090952Y-142550476D01*
X223138571Y-142598095D01*
X223233809Y-142645714D01*
X223376666Y-142645714D01*
X223471904Y-142598095D01*
X223043333Y-142264761D02*
X223138571Y-142312380D01*
X223329047Y-142312380D01*
X223424285Y-142264761D01*
X223471904Y-142217142D01*
X223519523Y-142121904D01*
X223519523Y-141836190D01*
X223471904Y-141740952D01*
X223424285Y-141693333D01*
X223329047Y-141645714D01*
X223138571Y-141645714D01*
X223043333Y-141693333D01*
X222186190Y-142264761D02*
X222281428Y-142312380D01*
X222471904Y-142312380D01*
X222567142Y-142264761D01*
X222614761Y-142169523D01*
X222614761Y-141788571D01*
X222567142Y-141693333D01*
X222471904Y-141645714D01*
X222281428Y-141645714D01*
X222186190Y-141693333D01*
X222138571Y-141788571D01*
X222138571Y-141883809D01*
X222614761Y-141979047D01*
X221281428Y-142312380D02*
X221281428Y-141312380D01*
X221281428Y-142264761D02*
X221376666Y-142312380D01*
X221567142Y-142312380D01*
X221662380Y-142264761D01*
X221710000Y-142217142D01*
X221757619Y-142121904D01*
X221757619Y-141836190D01*
X221710000Y-141740952D01*
X221662380Y-141693333D01*
X221567142Y-141645714D01*
X221376666Y-141645714D01*
X221281428Y-141693333D01*
X220186190Y-141645714D02*
X219805238Y-141645714D01*
X220043333Y-142312380D02*
X220043333Y-141455238D01*
X219995714Y-141360000D01*
X219900476Y-141312380D01*
X219805238Y-141312380D01*
X219329047Y-142312380D02*
X219424285Y-142264761D01*
X219471904Y-142217142D01*
X219519523Y-142121904D01*
X219519523Y-141836190D01*
X219471904Y-141740952D01*
X219424285Y-141693333D01*
X219329047Y-141645714D01*
X219186190Y-141645714D01*
X219090952Y-141693333D01*
X219043333Y-141740952D01*
X218995714Y-141836190D01*
X218995714Y-142121904D01*
X219043333Y-142217142D01*
X219090952Y-142264761D01*
X219186190Y-142312380D01*
X219329047Y-142312380D01*
X218567142Y-142312380D02*
X218567142Y-141645714D01*
X218567142Y-141836190D02*
X218519523Y-141740952D01*
X218471904Y-141693333D01*
X218376666Y-141645714D01*
X218281428Y-141645714D01*
X217233809Y-142026666D02*
X216757619Y-142026666D01*
X217329047Y-142312380D02*
X216995714Y-141312380D01*
X216662380Y-142312380D01*
X216329047Y-141788571D02*
X215995714Y-141788571D01*
X215852857Y-142312380D02*
X216329047Y-142312380D01*
X216329047Y-141312380D01*
X215852857Y-141312380D01*
X214852857Y-142312380D02*
X215186190Y-141836190D01*
X215424285Y-142312380D02*
X215424285Y-141312380D01*
X215043333Y-141312380D01*
X214948095Y-141360000D01*
X214900476Y-141407619D01*
X214852857Y-141502857D01*
X214852857Y-141645714D01*
X214900476Y-141740952D01*
X214948095Y-141788571D01*
X215043333Y-141836190D01*
X215424285Y-141836190D01*
X214424285Y-142312380D02*
X214424285Y-141312380D01*
X214043333Y-141312380D01*
X213948095Y-141360000D01*
X213900476Y-141407619D01*
X213852857Y-141502857D01*
X213852857Y-141645714D01*
X213900476Y-141740952D01*
X213948095Y-141788571D01*
X214043333Y-141836190D01*
X214424285Y-141836190D01*
X213471904Y-142026666D02*
X212995714Y-142026666D01*
X213567142Y-142312380D02*
X213233809Y-141312380D01*
X212900476Y-142312380D01*
X212662380Y-141312380D02*
X212424285Y-142312380D01*
X212233809Y-141598095D01*
X212043333Y-142312380D01*
X211805238Y-141312380D01*
X226900476Y-143438571D02*
X226757619Y-143486190D01*
X226710000Y-143533809D01*
X226662380Y-143629047D01*
X226662380Y-143771904D01*
X226710000Y-143867142D01*
X226757619Y-143914761D01*
X226852857Y-143962380D01*
X227233809Y-143962380D01*
X227233809Y-142962380D01*
X226900476Y-142962380D01*
X226805238Y-143010000D01*
X226757619Y-143057619D01*
X226710000Y-143152857D01*
X226710000Y-143248095D01*
X226757619Y-143343333D01*
X226805238Y-143390952D01*
X226900476Y-143438571D01*
X227233809Y-143438571D01*
X226329047Y-143295714D02*
X226090952Y-143962380D01*
X225852857Y-143295714D02*
X226090952Y-143962380D01*
X226186190Y-144200476D01*
X226233809Y-144248095D01*
X226329047Y-144295714D01*
X225471904Y-143867142D02*
X225424285Y-143914761D01*
X225471904Y-143962380D01*
X225519523Y-143914761D01*
X225471904Y-143867142D01*
X225471904Y-143962380D01*
X225471904Y-143343333D02*
X225424285Y-143390952D01*
X225471904Y-143438571D01*
X225519523Y-143390952D01*
X225471904Y-143343333D01*
X225471904Y-143438571D01*
X224233809Y-143962380D02*
X224233809Y-142962380D01*
X223900476Y-143676666D01*
X223567142Y-142962380D01*
X223567142Y-143962380D01*
X222662380Y-143962380D02*
X222662380Y-143438571D01*
X222710000Y-143343333D01*
X222805238Y-143295714D01*
X222995714Y-143295714D01*
X223090952Y-143343333D01*
X222662380Y-143914761D02*
X222757619Y-143962380D01*
X222995714Y-143962380D01*
X223090952Y-143914761D01*
X223138571Y-143819523D01*
X223138571Y-143724285D01*
X223090952Y-143629047D01*
X222995714Y-143581428D01*
X222757619Y-143581428D01*
X222662380Y-143533809D01*
X222186190Y-143962380D02*
X222186190Y-143295714D01*
X222186190Y-143486190D02*
X222138571Y-143390952D01*
X222090952Y-143343333D01*
X221995714Y-143295714D01*
X221900476Y-143295714D01*
X221567142Y-143962380D02*
X221567142Y-142962380D01*
X221471904Y-143581428D02*
X221186190Y-143962380D01*
X221186190Y-143295714D02*
X221567142Y-143676666D01*
X219662380Y-143438571D02*
X219995714Y-143438571D01*
X219995714Y-143962380D02*
X219995714Y-142962380D01*
X219519523Y-142962380D01*
X218710000Y-143295714D02*
X218710000Y-143962380D01*
X219138571Y-143295714D02*
X219138571Y-143819523D01*
X219090952Y-143914761D01*
X218995714Y-143962380D01*
X218852857Y-143962380D01*
X218757619Y-143914761D01*
X218710000Y-143867142D01*
X218233809Y-143295714D02*
X218233809Y-143962380D01*
X218233809Y-143390952D02*
X218186190Y-143343333D01*
X218090952Y-143295714D01*
X217948095Y-143295714D01*
X217852857Y-143343333D01*
X217805238Y-143438571D01*
X217805238Y-143962380D01*
X216900476Y-143962380D02*
X216900476Y-142962380D01*
X216900476Y-143914761D02*
X216995714Y-143962380D01*
X217186190Y-143962380D01*
X217281428Y-143914761D01*
X217329047Y-143867142D01*
X217376666Y-143771904D01*
X217376666Y-143486190D01*
X217329047Y-143390952D01*
X217281428Y-143343333D01*
X217186190Y-143295714D01*
X216995714Y-143295714D01*
X216900476Y-143343333D01*
X216043333Y-143914761D02*
X216138571Y-143962380D01*
X216329047Y-143962380D01*
X216424285Y-143914761D01*
X216471904Y-143819523D01*
X216471904Y-143438571D01*
X216424285Y-143343333D01*
X216329047Y-143295714D01*
X216138571Y-143295714D01*
X216043333Y-143343333D01*
X215995714Y-143438571D01*
X215995714Y-143533809D01*
X216471904Y-143629047D01*
X215567142Y-143962380D02*
X215567142Y-143295714D01*
X215567142Y-143486190D02*
X215519523Y-143390952D01*
X215471904Y-143343333D01*
X215376666Y-143295714D01*
X215281428Y-143295714D01*
X214948095Y-143962380D02*
X214948095Y-142962380D01*
X214948095Y-143343333D02*
X214852857Y-143295714D01*
X214662380Y-143295714D01*
X214567142Y-143343333D01*
X214519523Y-143390952D01*
X214471904Y-143486190D01*
X214471904Y-143771904D01*
X214519523Y-143867142D01*
X214567142Y-143914761D01*
X214662380Y-143962380D01*
X214852857Y-143962380D01*
X214948095Y-143914761D01*
X213614761Y-143295714D02*
X213614761Y-143962380D01*
X214043333Y-143295714D02*
X214043333Y-143819523D01*
X213995714Y-143914761D01*
X213900476Y-143962380D01*
X213757619Y-143962380D01*
X213662380Y-143914761D01*
X213614761Y-143867142D01*
X213138571Y-143962380D02*
X213138571Y-143295714D01*
X213138571Y-143486190D02*
X213090952Y-143390952D01*
X213043333Y-143343333D01*
X212948095Y-143295714D01*
X212852857Y-143295714D01*
X212519523Y-143962380D02*
X212519523Y-142962380D01*
X212424285Y-143581428D02*
X212138571Y-143962380D01*
X212138571Y-143295714D02*
X212519523Y-143676666D01*
X227114761Y-145612380D02*
X227686190Y-145612380D01*
X227400476Y-145612380D02*
X227400476Y-144612380D01*
X227495714Y-144755238D01*
X227590952Y-144850476D01*
X227686190Y-144898095D01*
X226162380Y-145612380D02*
X226733809Y-145612380D01*
X226448095Y-145612380D02*
X226448095Y-144612380D01*
X226543333Y-144755238D01*
X226638571Y-144850476D01*
X226733809Y-144898095D01*
X225019523Y-144564761D02*
X225876666Y-145850476D01*
X224162380Y-145612380D02*
X224733809Y-145612380D01*
X224448095Y-145612380D02*
X224448095Y-144612380D01*
X224543333Y-144755238D01*
X224638571Y-144850476D01*
X224733809Y-144898095D01*
X223781428Y-144707619D02*
X223733809Y-144660000D01*
X223638571Y-144612380D01*
X223400476Y-144612380D01*
X223305238Y-144660000D01*
X223257619Y-144707619D01*
X223210000Y-144802857D01*
X223210000Y-144898095D01*
X223257619Y-145040952D01*
X223829047Y-145612380D01*
X223210000Y-145612380D01*
X222067142Y-144564761D02*
X222924285Y-145850476D01*
X221781428Y-144707619D02*
X221733809Y-144660000D01*
X221638571Y-144612380D01*
X221400476Y-144612380D01*
X221305238Y-144660000D01*
X221257619Y-144707619D01*
X221210000Y-144802857D01*
X221210000Y-144898095D01*
X221257619Y-145040952D01*
X221829047Y-145612380D01*
X221210000Y-145612380D01*
X220257619Y-145612380D02*
X220829047Y-145612380D01*
X220543333Y-145612380D02*
X220543333Y-144612380D01*
X220638571Y-144755238D01*
X220733809Y-144850476D01*
X220829047Y-144898095D01*
X219067142Y-145231428D02*
X218305238Y-145231428D01*
X216495714Y-145612380D02*
X216829047Y-145136190D01*
X217067142Y-145612380D02*
X217067142Y-144612380D01*
X216686190Y-144612380D01*
X216590952Y-144660000D01*
X216543333Y-144707619D01*
X216495714Y-144802857D01*
X216495714Y-144945714D01*
X216543333Y-145040952D01*
X216590952Y-145088571D01*
X216686190Y-145136190D01*
X217067142Y-145136190D01*
X215686190Y-145564761D02*
X215781428Y-145612380D01*
X215971904Y-145612380D01*
X216067142Y-145564761D01*
X216114761Y-145469523D01*
X216114761Y-145088571D01*
X216067142Y-144993333D01*
X215971904Y-144945714D01*
X215781428Y-144945714D01*
X215686190Y-144993333D01*
X215638571Y-145088571D01*
X215638571Y-145183809D01*
X216114761Y-145279047D01*
X215305238Y-144945714D02*
X215067142Y-145612380D01*
X214829047Y-144945714D01*
X213162380Y-145612380D02*
X213733809Y-145612380D01*
X213448095Y-145612380D02*
X213448095Y-144612380D01*
X213543333Y-144755238D01*
X213638571Y-144850476D01*
X213733809Y-144898095D01*
X212733809Y-145517142D02*
X212686190Y-145564761D01*
X212733809Y-145612380D01*
X212781428Y-145564761D01*
X212733809Y-145517142D01*
X212733809Y-145612380D01*
X211733809Y-145612380D02*
X212305238Y-145612380D01*
X212019523Y-145612380D02*
X212019523Y-144612380D01*
X212114761Y-144755238D01*
X212210000Y-144850476D01*
X212305238Y-144898095D01*
X201675952Y-96591428D02*
X200914047Y-96591428D01*
X206755952Y-96591428D02*
X205994047Y-96591428D01*
X206375000Y-96972380D02*
X206375000Y-96210476D01*
D11*
%TO.C,JP1*%
X234375000Y-147968000D02*
X234375000Y-148790470D01*
X234375000Y-150675530D02*
X234375000Y-151498000D01*
X234375000Y-149405530D02*
X234375000Y-150060470D01*
X228090000Y-147968000D02*
X234375000Y-147968000D01*
X226635000Y-151498000D02*
X234375000Y-151498000D01*
X228090000Y-147968000D02*
X228090000Y-148534529D01*
X228090000Y-149661471D02*
X228090000Y-149804529D01*
X228036529Y-149858000D02*
X227893471Y-149858000D01*
X226766529Y-149858000D02*
X226635000Y-149858000D01*
X226635000Y-149858000D02*
X226635000Y-150060470D01*
X226635000Y-150675530D02*
X226635000Y-151498000D01*
X227330000Y-147968000D02*
X226570000Y-147968000D01*
X226570000Y-147968000D02*
X226570000Y-149098000D01*
%TO.C,RFD_900x1*%
X247670000Y-141724434D02*
X247670000Y-136524434D01*
X265510000Y-141724434D02*
X247670000Y-141724434D01*
X268110000Y-136524434D02*
X247670000Y-136524434D01*
X265510000Y-141724434D02*
X265510000Y-139124434D01*
X265510000Y-139124434D02*
X268110000Y-139124434D01*
X268110000Y-139124434D02*
X268110000Y-136524434D01*
X266780000Y-141724434D02*
X268110000Y-141724434D01*
X268110000Y-141724434D02*
X268110000Y-140394434D01*
%TO.C,J6*%
X280225000Y-111250000D02*
X274225000Y-111250000D01*
X280225000Y-111250000D02*
X280225000Y-102220000D01*
X280225000Y-102190000D02*
X274225000Y-102190000D01*
X274225000Y-102190000D02*
X274225000Y-101660000D01*
X274225000Y-101660000D02*
X272175000Y-101660000D01*
X272175000Y-101660000D02*
X272175000Y-100960000D01*
X272175000Y-112480000D02*
X272175000Y-111780000D01*
X274225000Y-111780000D02*
X272175000Y-111780000D01*
X269955000Y-112480000D02*
X269955000Y-100960000D01*
X274225000Y-111780000D02*
X274225000Y-111250000D01*
X272175000Y-101070000D02*
G75*
G03*
X269955000Y-101070000I-1110000J0D01*
G01*
X269968365Y-112541729D02*
G75*
G03*
X272175000Y-112370000I1096635J171729D01*
G01*
%TO.C,C24*%
X204067860Y-85020880D02*
X202817860Y-85020880D01*
X203442860Y-85645880D02*
X203442860Y-84395880D01*
X196387297Y-84155880D02*
X195322860Y-83091443D01*
X204978423Y-84155880D02*
X206042860Y-83091443D01*
X204978423Y-84155880D02*
X202192860Y-84155880D01*
X196387297Y-84155880D02*
X199172860Y-84155880D01*
X195322860Y-83091443D02*
X195322860Y-73435880D01*
X206042860Y-83091443D02*
X206042860Y-73435880D01*
X206042860Y-73435880D02*
X202192860Y-73435880D01*
X195322860Y-73435880D02*
X199172860Y-73435880D01*
%TO.C,C11*%
X170385000Y-143779434D02*
X170385000Y-142529434D01*
X169760000Y-143154434D02*
X171010000Y-143154434D01*
X171250000Y-136098871D02*
X172314437Y-135034434D01*
X171250000Y-144689997D02*
X172314437Y-145754434D01*
X171250000Y-144689997D02*
X171250000Y-141904434D01*
X171250000Y-136098871D02*
X171250000Y-138884434D01*
X172314437Y-135034434D02*
X181970000Y-135034434D01*
X172314437Y-145754434D02*
X181970000Y-145754434D01*
X181970000Y-145754434D02*
X181970000Y-141904434D01*
X181970000Y-135034434D02*
X181970000Y-138884434D01*
%TO.C,C7*%
X244765000Y-168209434D02*
X243515000Y-168209434D01*
X244140000Y-168834434D02*
X244140000Y-167584434D01*
X237084437Y-167344434D02*
X236020000Y-166279997D01*
X245675563Y-167344434D02*
X246740000Y-166279997D01*
X245675563Y-167344434D02*
X242890000Y-167344434D01*
X237084437Y-167344434D02*
X239870000Y-167344434D01*
X236020000Y-166279997D02*
X236020000Y-156624434D01*
X246740000Y-166279997D02*
X246740000Y-156624434D01*
X246740000Y-156624434D02*
X242890000Y-156624434D01*
X236020000Y-156624434D02*
X239870000Y-156624434D01*
%TO.C,BUZZ1*%
X259159357Y-130324690D02*
X256914295Y-127181600D01*
X256144329Y-134174121D02*
X252064956Y-132210544D01*
X234014643Y-112364178D02*
X235810693Y-115956280D01*
X237606742Y-108772075D02*
X241198846Y-110568127D01*
X236715100Y-110837534D02*
G75*
G03*
X236715100Y-110837534I-635000J0D01*
G01*
X257549294Y-131671729D02*
G75*
G03*
X257549294Y-131671729I-634999J0D01*
G01*
X258916470Y-121344434D02*
G75*
G03*
X258916470Y-121344434I-12329470J0D01*
G01*
X237606742Y-108772075D02*
G75*
G03*
X234014643Y-112364178I-1526642J-2065459D01*
G01*
X256144329Y-134174122D02*
G75*
G03*
X259159357Y-130324690I769966J2502393D01*
G01*
%TO.C,J5*%
X200105000Y-97087434D02*
X200105000Y-99627434D01*
X207725000Y-97087434D02*
X200105000Y-97087434D01*
X207725000Y-99627434D02*
X207725000Y-97087434D01*
X200105000Y-99627434D02*
X207725000Y-99627434D01*
%TO.C,U4*%
X222711000Y-130742434D02*
X222711000Y-133790434D01*
X220679000Y-130742434D02*
X222711000Y-130742434D01*
X220679000Y-133790434D02*
X220679000Y-130742434D01*
X222711000Y-133790434D02*
X220679000Y-133790434D01*
X208487000Y-132266434D02*
X228807000Y-132266434D01*
X208487000Y-108898434D02*
X208487000Y-132266434D01*
X228807000Y-108898434D02*
X208487000Y-108898434D01*
X228807000Y-132266434D02*
X228807000Y-108898434D01*
D12*
%TO.C,J4*%
X191221863Y-88059730D02*
X187721685Y-91559909D01*
X193470463Y-97308687D02*
X196970642Y-93808508D01*
X193470463Y-97308687D02*
X187721685Y-91559909D01*
X196970642Y-93808508D02*
X191221863Y-88059730D01*
X196678197Y-95120191D02*
G75*
G03*
X196678197Y-95120191I-100000J0D01*
G01*
%TO.C,J3*%
X188008976Y-148386031D02*
X191509155Y-151886209D01*
X197257933Y-146137431D02*
X193757754Y-142637252D01*
X197257933Y-146137431D02*
X191509155Y-151886209D01*
X193757754Y-142637252D02*
X188008976Y-148386031D01*
X195169437Y-143029697D02*
G75*
G03*
X195169437Y-143029697I-100000J0D01*
G01*
%TO.C,J2*%
X244584440Y-152178494D02*
X249534440Y-152178494D01*
X249534440Y-144048494D02*
X244584440Y-144048494D01*
X249534440Y-144048494D02*
X249534440Y-152178494D01*
X244584440Y-144048494D02*
X244584440Y-152178494D01*
X245889440Y-143398494D02*
G75*
G03*
X245889440Y-143398494I-100000J0D01*
G01*
%TO.C,J1*%
X251804704Y-91506297D02*
X248304525Y-88006119D01*
X242555747Y-93754897D02*
X246055926Y-97255076D01*
X242555747Y-93754897D02*
X248304525Y-88006119D01*
X246055926Y-97255076D02*
X251804704Y-91506297D01*
X244844243Y-96862631D02*
G75*
G03*
X244844243Y-96862631I-100000J0D01*
G01*
D11*
%TO.C,U6*%
X212170000Y-91499434D02*
X210265000Y-89594434D01*
X229315000Y-68639434D02*
X229315000Y-91499434D01*
X210265000Y-68639434D02*
X229315000Y-68639434D01*
X210265000Y-89594434D02*
X210265000Y-68639434D01*
X229315000Y-91499434D02*
X212170000Y-91499434D01*
%TO.C,U5*%
X171530000Y-130996434D02*
X169625000Y-129091434D01*
X188675000Y-108136434D02*
X188675000Y-130996434D01*
X169625000Y-108136434D02*
X188675000Y-108136434D01*
X169625000Y-129091434D02*
X169625000Y-108136434D01*
X188675000Y-130996434D02*
X171530000Y-130996434D01*
%TO.C,U3*%
X231220000Y-168334434D02*
X229315000Y-170239434D01*
X208360000Y-151189434D02*
X231220000Y-151189434D01*
X208360000Y-170239434D02*
X208360000Y-151189434D01*
X229315000Y-170239434D02*
X208360000Y-170239434D01*
X231220000Y-151189434D02*
X231220000Y-168334434D01*
%TO.C,F5*%
X188790000Y-80792064D02*
X188790000Y-76687936D01*
X192210000Y-80792064D02*
X192210000Y-76687936D01*
%TO.C,F4*%
X181202064Y-152264434D02*
X177097936Y-152264434D01*
X181202064Y-148844434D02*
X177097936Y-148844434D01*
%TO.C,F3*%
X253250000Y-158662370D02*
X253250000Y-162766498D01*
X249830000Y-158662370D02*
X249830000Y-162766498D01*
%TO.C,JP1*%
D10*
X225087380Y-148899666D02*
X225801666Y-148899666D01*
X225944523Y-148852047D01*
X226039761Y-148756809D01*
X226087380Y-148613952D01*
X226087380Y-148518714D01*
X226087380Y-149375857D02*
X225087380Y-149375857D01*
X225087380Y-149756809D01*
X225135000Y-149852047D01*
X225182619Y-149899666D01*
X225277857Y-149947285D01*
X225420714Y-149947285D01*
X225515952Y-149899666D01*
X225563571Y-149852047D01*
X225611190Y-149756809D01*
X225611190Y-149375857D01*
X226087380Y-150899666D02*
X226087380Y-150328238D01*
X226087380Y-150613952D02*
X225087380Y-150613952D01*
X225230238Y-150518714D01*
X225325476Y-150423476D01*
X225373095Y-150328238D01*
%TO.C,RFD_900x1*%
X261199523Y-143386814D02*
X261532857Y-142910624D01*
X261770952Y-143386814D02*
X261770952Y-142386814D01*
X261390000Y-142386814D01*
X261294761Y-142434434D01*
X261247142Y-142482053D01*
X261199523Y-142577291D01*
X261199523Y-142720148D01*
X261247142Y-142815386D01*
X261294761Y-142863005D01*
X261390000Y-142910624D01*
X261770952Y-142910624D01*
X260437619Y-142863005D02*
X260770952Y-142863005D01*
X260770952Y-143386814D02*
X260770952Y-142386814D01*
X260294761Y-142386814D01*
X259913809Y-143386814D02*
X259913809Y-142386814D01*
X259675714Y-142386814D01*
X259532857Y-142434434D01*
X259437619Y-142529672D01*
X259390000Y-142624910D01*
X259342380Y-142815386D01*
X259342380Y-142958243D01*
X259390000Y-143148719D01*
X259437619Y-143243957D01*
X259532857Y-143339195D01*
X259675714Y-143386814D01*
X259913809Y-143386814D01*
X259151904Y-143482053D02*
X258390000Y-143482053D01*
X258104285Y-143386814D02*
X257913809Y-143386814D01*
X257818571Y-143339195D01*
X257770952Y-143291576D01*
X257675714Y-143148719D01*
X257628095Y-142958243D01*
X257628095Y-142577291D01*
X257675714Y-142482053D01*
X257723333Y-142434434D01*
X257818571Y-142386814D01*
X258009047Y-142386814D01*
X258104285Y-142434434D01*
X258151904Y-142482053D01*
X258199523Y-142577291D01*
X258199523Y-142815386D01*
X258151904Y-142910624D01*
X258104285Y-142958243D01*
X258009047Y-143005862D01*
X257818571Y-143005862D01*
X257723333Y-142958243D01*
X257675714Y-142910624D01*
X257628095Y-142815386D01*
X257009047Y-142386814D02*
X256913809Y-142386814D01*
X256818571Y-142434434D01*
X256770952Y-142482053D01*
X256723333Y-142577291D01*
X256675714Y-142767767D01*
X256675714Y-143005862D01*
X256723333Y-143196338D01*
X256770952Y-143291576D01*
X256818571Y-143339195D01*
X256913809Y-143386814D01*
X257009047Y-143386814D01*
X257104285Y-143339195D01*
X257151904Y-143291576D01*
X257199523Y-143196338D01*
X257247142Y-143005862D01*
X257247142Y-142767767D01*
X257199523Y-142577291D01*
X257151904Y-142482053D01*
X257104285Y-142434434D01*
X257009047Y-142386814D01*
X256056666Y-142386814D02*
X255961428Y-142386814D01*
X255866190Y-142434434D01*
X255818571Y-142482053D01*
X255770952Y-142577291D01*
X255723333Y-142767767D01*
X255723333Y-143005862D01*
X255770952Y-143196338D01*
X255818571Y-143291576D01*
X255866190Y-143339195D01*
X255961428Y-143386814D01*
X256056666Y-143386814D01*
X256151904Y-143339195D01*
X256199523Y-143291576D01*
X256247142Y-143196338D01*
X256294761Y-143005862D01*
X256294761Y-142767767D01*
X256247142Y-142577291D01*
X256199523Y-142482053D01*
X256151904Y-142434434D01*
X256056666Y-142386814D01*
X255390000Y-143386814D02*
X254866190Y-142720148D01*
X255390000Y-142720148D02*
X254866190Y-143386814D01*
X253961428Y-143386814D02*
X254532857Y-143386814D01*
X254247142Y-143386814D02*
X254247142Y-142386814D01*
X254342380Y-142529672D01*
X254437619Y-142624910D01*
X254532857Y-142672529D01*
%TO.C,J6*%
X265957857Y-112791428D02*
X265957857Y-111648571D01*
X265957857Y-101791428D02*
X265957857Y-100648571D01*
X265386428Y-101220000D02*
X266529285Y-101220000D01*
%TO.C,C24*%
X205239857Y-71731142D02*
X205287476Y-71778761D01*
X205430333Y-71826380D01*
X205525571Y-71826380D01*
X205668428Y-71778761D01*
X205763666Y-71683523D01*
X205811285Y-71588285D01*
X205858904Y-71397809D01*
X205858904Y-71254952D01*
X205811285Y-71064476D01*
X205763666Y-70969238D01*
X205668428Y-70874000D01*
X205525571Y-70826380D01*
X205430333Y-70826380D01*
X205287476Y-70874000D01*
X205239857Y-70921619D01*
X204858904Y-70921619D02*
X204811285Y-70874000D01*
X204716047Y-70826380D01*
X204477952Y-70826380D01*
X204382714Y-70874000D01*
X204335095Y-70921619D01*
X204287476Y-71016857D01*
X204287476Y-71112095D01*
X204335095Y-71254952D01*
X204906523Y-71826380D01*
X204287476Y-71826380D01*
X203430333Y-71159714D02*
X203430333Y-71826380D01*
X203668428Y-70778761D02*
X203906523Y-71493047D01*
X203287476Y-71493047D01*
%TO.C,C11*%
X177252857Y-147051576D02*
X177300476Y-147099195D01*
X177443333Y-147146814D01*
X177538571Y-147146814D01*
X177681428Y-147099195D01*
X177776666Y-147003957D01*
X177824285Y-146908719D01*
X177871904Y-146718243D01*
X177871904Y-146575386D01*
X177824285Y-146384910D01*
X177776666Y-146289672D01*
X177681428Y-146194434D01*
X177538571Y-146146814D01*
X177443333Y-146146814D01*
X177300476Y-146194434D01*
X177252857Y-146242053D01*
X176300476Y-147146814D02*
X176871904Y-147146814D01*
X176586190Y-147146814D02*
X176586190Y-146146814D01*
X176681428Y-146289672D01*
X176776666Y-146384910D01*
X176871904Y-146432529D01*
X175348095Y-147146814D02*
X175919523Y-147146814D01*
X175633809Y-147146814D02*
X175633809Y-146146814D01*
X175729047Y-146289672D01*
X175824285Y-146384910D01*
X175919523Y-146432529D01*
%TO.C,C7*%
X238037666Y-169013142D02*
X238085285Y-169060761D01*
X238228142Y-169108380D01*
X238323380Y-169108380D01*
X238466238Y-169060761D01*
X238561476Y-168965523D01*
X238609095Y-168870285D01*
X238656714Y-168679809D01*
X238656714Y-168536952D01*
X238609095Y-168346476D01*
X238561476Y-168251238D01*
X238466238Y-168156000D01*
X238323380Y-168108380D01*
X238228142Y-168108380D01*
X238085285Y-168156000D01*
X238037666Y-168203619D01*
X237704333Y-168108380D02*
X237037666Y-168108380D01*
X237466238Y-169108380D01*
%TO.C,BUZZ1*%
X248321094Y-122270407D02*
X248186407Y-122203064D01*
X248119064Y-122203064D01*
X248018049Y-122236735D01*
X247917033Y-122337751D01*
X247883362Y-122438766D01*
X247883362Y-122506109D01*
X247917033Y-122607125D01*
X248186407Y-122876499D01*
X248893514Y-122169392D01*
X248657812Y-121933690D01*
X248556797Y-121900018D01*
X248489453Y-121900018D01*
X248388438Y-121933690D01*
X248321094Y-122001033D01*
X248287423Y-122102048D01*
X248287423Y-122169392D01*
X248321094Y-122270407D01*
X248556797Y-122506109D01*
X248186407Y-121462285D02*
X247613988Y-122034705D01*
X247512972Y-122068377D01*
X247445629Y-122068377D01*
X247344614Y-122034705D01*
X247209927Y-121900018D01*
X247176255Y-121799003D01*
X247176255Y-121731659D01*
X247209927Y-121630644D01*
X247782346Y-121058224D01*
X247512972Y-120788850D02*
X247041568Y-120317445D01*
X246805865Y-121495957D01*
X246334461Y-121024552D01*
X246839537Y-120115415D02*
X246368133Y-119644010D01*
X246132430Y-120822522D01*
X245661026Y-120351117D01*
X245021263Y-119711354D02*
X245425324Y-120115415D01*
X245223293Y-119913384D02*
X245930400Y-119206278D01*
X245896728Y-119374636D01*
X245896728Y-119509323D01*
X245930400Y-119610339D01*
%TO.C,J5*%
X204248333Y-95591380D02*
X204248333Y-96305666D01*
X204295952Y-96448523D01*
X204391190Y-96543761D01*
X204534047Y-96591380D01*
X204629285Y-96591380D01*
X203295952Y-95591380D02*
X203772142Y-95591380D01*
X203819761Y-96067571D01*
X203772142Y-96019952D01*
X203676904Y-95972333D01*
X203438809Y-95972333D01*
X203343571Y-96019952D01*
X203295952Y-96067571D01*
X203248333Y-96162809D01*
X203248333Y-96400904D01*
X203295952Y-96496142D01*
X203343571Y-96543761D01*
X203438809Y-96591380D01*
X203676904Y-96591380D01*
X203772142Y-96543761D01*
X203819761Y-96496142D01*
%TO.C,U4*%
X219430504Y-134046980D02*
X219430504Y-134856504D01*
X219382885Y-134951742D01*
X219335266Y-134999361D01*
X219240028Y-135046980D01*
X219049552Y-135046980D01*
X218954314Y-134999361D01*
X218906695Y-134951742D01*
X218859076Y-134856504D01*
X218859076Y-134046980D01*
X217954314Y-134380314D02*
X217954314Y-135046980D01*
X218192409Y-133999361D02*
X218430504Y-134713647D01*
X217811457Y-134713647D01*
%TO.C,J4*%
X188549673Y-94279239D02*
X188044597Y-94784315D01*
X187977253Y-94919002D01*
X187977253Y-95053689D01*
X188044597Y-95188376D01*
X188111940Y-95255719D01*
X187674207Y-93875178D02*
X187202803Y-94346582D01*
X188111940Y-93774162D02*
X187775223Y-94447597D01*
X187337490Y-94009865D01*
%TO.C,J3*%
X194228485Y-151058220D02*
X194733561Y-151563296D01*
X194868248Y-151630640D01*
X195002935Y-151630640D01*
X195137622Y-151563296D01*
X195204965Y-151495953D01*
X193959111Y-151327594D02*
X193521378Y-151765327D01*
X194026454Y-151798999D01*
X193925439Y-151900014D01*
X193891767Y-152001029D01*
X193891767Y-152068373D01*
X193925439Y-152169388D01*
X194093798Y-152337747D01*
X194194813Y-152371418D01*
X194262156Y-152371418D01*
X194363172Y-152337747D01*
X194565202Y-152135716D01*
X194598874Y-152034701D01*
X194598874Y-151967357D01*
%TO.C,J2*%
X250871820Y-149670160D02*
X251586106Y-149670160D01*
X251728963Y-149622541D01*
X251824201Y-149527303D01*
X251871820Y-149384446D01*
X251871820Y-149289208D01*
X250967059Y-150098732D02*
X250919440Y-150146351D01*
X250871820Y-150241589D01*
X250871820Y-150479684D01*
X250919440Y-150574922D01*
X250967059Y-150622541D01*
X251062297Y-150670160D01*
X251157535Y-150670160D01*
X251300392Y-150622541D01*
X251871820Y-150051113D01*
X251871820Y-150670160D01*
%TO.C,J1*%
X245282149Y-87588252D02*
X245787225Y-88093328D01*
X245921912Y-88160672D01*
X246056599Y-88160672D01*
X246191286Y-88093328D01*
X246258629Y-88025985D01*
X245282149Y-89002466D02*
X245686210Y-88598405D01*
X245484179Y-88800435D02*
X244777072Y-88093328D01*
X244945431Y-88127000D01*
X245080118Y-88127000D01*
X245181133Y-88093328D01*
%TO.C,U6*%
X220551904Y-92221814D02*
X220551904Y-93031338D01*
X220504285Y-93126576D01*
X220456666Y-93174195D01*
X220361428Y-93221814D01*
X220170952Y-93221814D01*
X220075714Y-93174195D01*
X220028095Y-93126576D01*
X219980476Y-93031338D01*
X219980476Y-92221814D01*
X219075714Y-92221814D02*
X219266190Y-92221814D01*
X219361428Y-92269434D01*
X219409047Y-92317053D01*
X219504285Y-92459910D01*
X219551904Y-92650386D01*
X219551904Y-93031338D01*
X219504285Y-93126576D01*
X219456666Y-93174195D01*
X219361428Y-93221814D01*
X219170952Y-93221814D01*
X219075714Y-93174195D01*
X219028095Y-93126576D01*
X218980476Y-93031338D01*
X218980476Y-92793243D01*
X219028095Y-92698005D01*
X219075714Y-92650386D01*
X219170952Y-92602767D01*
X219361428Y-92602767D01*
X219456666Y-92650386D01*
X219504285Y-92698005D01*
X219551904Y-92793243D01*
%TO.C,U5*%
X179911904Y-131718814D02*
X179911904Y-132528338D01*
X179864285Y-132623576D01*
X179816666Y-132671195D01*
X179721428Y-132718814D01*
X179530952Y-132718814D01*
X179435714Y-132671195D01*
X179388095Y-132623576D01*
X179340476Y-132528338D01*
X179340476Y-131718814D01*
X178388095Y-131718814D02*
X178864285Y-131718814D01*
X178911904Y-132195005D01*
X178864285Y-132147386D01*
X178769047Y-132099767D01*
X178530952Y-132099767D01*
X178435714Y-132147386D01*
X178388095Y-132195005D01*
X178340476Y-132290243D01*
X178340476Y-132528338D01*
X178388095Y-132623576D01*
X178435714Y-132671195D01*
X178530952Y-132718814D01*
X178769047Y-132718814D01*
X178864285Y-132671195D01*
X178911904Y-132623576D01*
%TO.C,U3*%
X231942380Y-159952529D02*
X232751904Y-159952529D01*
X232847142Y-160000148D01*
X232894761Y-160047767D01*
X232942380Y-160143005D01*
X232942380Y-160333481D01*
X232894761Y-160428719D01*
X232847142Y-160476338D01*
X232751904Y-160523957D01*
X231942380Y-160523957D01*
X231942380Y-160904910D02*
X231942380Y-161523957D01*
X232323333Y-161190624D01*
X232323333Y-161333481D01*
X232370952Y-161428719D01*
X232418571Y-161476338D01*
X232513809Y-161523957D01*
X232751904Y-161523957D01*
X232847142Y-161476338D01*
X232894761Y-161428719D01*
X232942380Y-161333481D01*
X232942380Y-161047767D01*
X232894761Y-160952529D01*
X232847142Y-160904910D01*
%TO.C,F5*%
X190833333Y-83494571D02*
X191166666Y-83494571D01*
X191166666Y-84018380D02*
X191166666Y-83018380D01*
X190690476Y-83018380D01*
X189833333Y-83018380D02*
X190309523Y-83018380D01*
X190357142Y-83494571D01*
X190309523Y-83446952D01*
X190214285Y-83399333D01*
X189976190Y-83399333D01*
X189880952Y-83446952D01*
X189833333Y-83494571D01*
X189785714Y-83589809D01*
X189785714Y-83827904D01*
X189833333Y-83923142D01*
X189880952Y-83970761D01*
X189976190Y-84018380D01*
X190214285Y-84018380D01*
X190309523Y-83970761D01*
X190357142Y-83923142D01*
%TO.C,F4*%
X179483333Y-153471571D02*
X179816666Y-153471571D01*
X179816666Y-153995380D02*
X179816666Y-152995380D01*
X179340476Y-152995380D01*
X178530952Y-153328714D02*
X178530952Y-153995380D01*
X178769047Y-152947761D02*
X179007142Y-153662047D01*
X178388095Y-153662047D01*
%TO.C,F3*%
X251920333Y-155884571D02*
X252253666Y-155884571D01*
X252253666Y-156408380D02*
X252253666Y-155408380D01*
X251777476Y-155408380D01*
X251491761Y-155408380D02*
X250872714Y-155408380D01*
X251206047Y-155789333D01*
X251063190Y-155789333D01*
X250967952Y-155836952D01*
X250920333Y-155884571D01*
X250872714Y-155979809D01*
X250872714Y-156217904D01*
X250920333Y-156313142D01*
X250967952Y-156360761D01*
X251063190Y-156408380D01*
X251348904Y-156408380D01*
X251444142Y-156360761D01*
X251491761Y-156313142D01*
%TD*%
%LPC*%
D13*
%TO.C,JP1*%
X233680000Y-150368000D03*
X233680000Y-149098000D03*
X232410000Y-150368000D03*
X232410000Y-149098000D03*
X231140000Y-150368000D03*
X231140000Y-149098000D03*
X229870000Y-150368000D03*
X229870000Y-149098000D03*
X228600000Y-150368000D03*
X228600000Y-149098000D03*
X227330000Y-150368000D03*
D14*
X227330000Y-149098000D03*
%TD*%
D13*
%TO.C,JP14*%
X242316000Y-100076000D03*
X242316000Y-101346000D03*
D14*
X242316000Y-102616000D03*
%TD*%
D13*
%TO.C,JP7*%
X240411000Y-149694900D03*
X239141000Y-149694900D03*
D14*
X237871000Y-149694900D03*
%TD*%
D15*
%TO.C,RFD_900x1*%
X266780000Y-140394434D03*
D16*
X266780000Y-137854434D03*
X264240000Y-140394434D03*
X264240000Y-137854434D03*
X261700000Y-140394434D03*
X261700000Y-137854434D03*
X259160000Y-140394434D03*
X259160000Y-137854434D03*
X256620000Y-140394434D03*
X256620000Y-137854434D03*
X254080000Y-140394434D03*
X254080000Y-137854434D03*
X251540000Y-140394434D03*
X251540000Y-137854434D03*
X249000000Y-140394434D03*
X249000000Y-137854434D03*
D17*
X257890000Y-102024434D03*
%TD*%
D18*
%TO.C,J6*%
X266065000Y-104220000D03*
D19*
X266065000Y-109220000D03*
D20*
X271065000Y-101220000D03*
X271065000Y-112220000D03*
%TD*%
%TO.C,C24*%
G36*
G01*
X201682860Y-76795880D02*
X199682860Y-76795880D01*
G75*
G02*
X199432860Y-76545880I0J250000D01*
G01*
X199432860Y-72645880D01*
G75*
G02*
X199682860Y-72395880I250000J0D01*
G01*
X201682860Y-72395880D01*
G75*
G02*
X201932860Y-72645880I0J-250000D01*
G01*
X201932860Y-76545880D01*
G75*
G02*
X201682860Y-76795880I-250000J0D01*
G01*
G37*
G36*
G01*
X201682860Y-85195880D02*
X199682860Y-85195880D01*
G75*
G02*
X199432860Y-84945880I0J250000D01*
G01*
X199432860Y-81045880D01*
G75*
G02*
X199682860Y-80795880I250000J0D01*
G01*
X201682860Y-80795880D01*
G75*
G02*
X201932860Y-81045880I0J-250000D01*
G01*
X201932860Y-84945880D01*
G75*
G02*
X201682860Y-85195880I-250000J0D01*
G01*
G37*
%TD*%
%TO.C,C11*%
G36*
G01*
X178610001Y-141394434D02*
X178610001Y-139394434D01*
G75*
G02*
X178860001Y-139144434I250000J0D01*
G01*
X182759999Y-139144434D01*
G75*
G02*
X183009999Y-139394434I0J-250000D01*
G01*
X183009999Y-141394434D01*
G75*
G02*
X182759999Y-141644434I-250000J0D01*
G01*
X178860001Y-141644434D01*
G75*
G02*
X178610001Y-141394434I0J250000D01*
G01*
G37*
G36*
G01*
X170210000Y-141394434D02*
X170210000Y-139394434D01*
G75*
G02*
X170460000Y-139144434I250000J0D01*
G01*
X174360000Y-139144434D01*
G75*
G02*
X174610000Y-139394434I0J-250000D01*
G01*
X174610000Y-141394434D01*
G75*
G02*
X174360000Y-141644434I-250000J0D01*
G01*
X170460000Y-141644434D01*
G75*
G02*
X170210000Y-141394434I0J250000D01*
G01*
G37*
%TD*%
%TO.C,C7*%
G36*
G01*
X242380000Y-159984434D02*
X240380000Y-159984434D01*
G75*
G02*
X240130000Y-159734434I0J250000D01*
G01*
X240130000Y-155834434D01*
G75*
G02*
X240380000Y-155584434I250000J0D01*
G01*
X242380000Y-155584434D01*
G75*
G02*
X242630000Y-155834434I0J-250000D01*
G01*
X242630000Y-159734434D01*
G75*
G02*
X242380000Y-159984434I-250000J0D01*
G01*
G37*
G36*
G01*
X242380000Y-168384434D02*
X240380000Y-168384434D01*
G75*
G02*
X240130000Y-168134434I0J250000D01*
G01*
X240130000Y-164234434D01*
G75*
G02*
X240380000Y-163984434I250000J0D01*
G01*
X242380000Y-163984434D01*
G75*
G02*
X242630000Y-164234434I0J-250000D01*
G01*
X242630000Y-168134434D01*
G75*
G02*
X242380000Y-168384434I-250000J0D01*
G01*
G37*
%TD*%
D21*
%TO.C,J37*%
X236300000Y-94044434D03*
X236300000Y-66734434D03*
%TD*%
D22*
%TO.C,J5*%
X206455000Y-98357434D03*
X201375000Y-98357434D03*
%TD*%
D23*
%TO.C,RV3*%
X219964000Y-96520000D03*
X222504000Y-99060000D03*
X225044000Y-96520000D03*
%TD*%
D24*
%TO.C,H4*%
X258779000Y-159063434D03*
%TD*%
%TO.C,H3*%
X258779000Y-81085434D03*
%TD*%
%TO.C,H2*%
X180801000Y-159063434D03*
%TD*%
%TO.C,H1*%
X180801000Y-81085434D03*
%TD*%
%TO.C,U4*%
G36*
G01*
X209376000Y-113975334D02*
X209376000Y-114610334D01*
G75*
G02*
X209058500Y-114927834I-317500J0D01*
G01*
X207915500Y-114927834D01*
G75*
G02*
X207598000Y-114610334I0J317500D01*
G01*
X207598000Y-113975334D01*
G75*
G02*
X207915500Y-113657834I317500J0D01*
G01*
X209058500Y-113657834D01*
G75*
G02*
X209376000Y-113975334I0J-317500D01*
G01*
G37*
G36*
G01*
X209376000Y-115981934D02*
X209376000Y-116616934D01*
G75*
G02*
X209058500Y-116934434I-317500J0D01*
G01*
X207915500Y-116934434D01*
G75*
G02*
X207598000Y-116616934I0J317500D01*
G01*
X207598000Y-115981934D01*
G75*
G02*
X207915500Y-115664434I317500J0D01*
G01*
X209058500Y-115664434D01*
G75*
G02*
X209376000Y-115981934I0J-317500D01*
G01*
G37*
G36*
G01*
X209376000Y-117988534D02*
X209376000Y-118623534D01*
G75*
G02*
X209058500Y-118941034I-317500J0D01*
G01*
X207915500Y-118941034D01*
G75*
G02*
X207598000Y-118623534I0J317500D01*
G01*
X207598000Y-117988534D01*
G75*
G02*
X207915500Y-117671034I317500J0D01*
G01*
X209058500Y-117671034D01*
G75*
G02*
X209376000Y-117988534I0J-317500D01*
G01*
G37*
G36*
G01*
X209376000Y-119995134D02*
X209376000Y-120630134D01*
G75*
G02*
X209058500Y-120947634I-317500J0D01*
G01*
X207915500Y-120947634D01*
G75*
G02*
X207598000Y-120630134I0J317500D01*
G01*
X207598000Y-119995134D01*
G75*
G02*
X207915500Y-119677634I317500J0D01*
G01*
X209058500Y-119677634D01*
G75*
G02*
X209376000Y-119995134I0J-317500D01*
G01*
G37*
G36*
G01*
X209376000Y-122001734D02*
X209376000Y-122636734D01*
G75*
G02*
X209058500Y-122954234I-317500J0D01*
G01*
X207915500Y-122954234D01*
G75*
G02*
X207598000Y-122636734I0J317500D01*
G01*
X207598000Y-122001734D01*
G75*
G02*
X207915500Y-121684234I317500J0D01*
G01*
X209058500Y-121684234D01*
G75*
G02*
X209376000Y-122001734I0J-317500D01*
G01*
G37*
G36*
G01*
X209376000Y-124008334D02*
X209376000Y-124643334D01*
G75*
G02*
X209058500Y-124960834I-317500J0D01*
G01*
X207915500Y-124960834D01*
G75*
G02*
X207598000Y-124643334I0J317500D01*
G01*
X207598000Y-124008334D01*
G75*
G02*
X207915500Y-123690834I317500J0D01*
G01*
X209058500Y-123690834D01*
G75*
G02*
X209376000Y-124008334I0J-317500D01*
G01*
G37*
G36*
G01*
X222393500Y-108377734D02*
X222393500Y-109520734D01*
G75*
G02*
X222076000Y-109838234I-317500J0D01*
G01*
X221441000Y-109838234D01*
G75*
G02*
X221123500Y-109520734I0J317500D01*
G01*
X221123500Y-108377734D01*
G75*
G02*
X221441000Y-108060234I317500J0D01*
G01*
X222076000Y-108060234D01*
G75*
G02*
X222393500Y-108377734I0J-317500D01*
G01*
G37*
G36*
G01*
X216373700Y-108377734D02*
X216373700Y-109520734D01*
G75*
G02*
X216056200Y-109838234I-317500J0D01*
G01*
X215421200Y-109838234D01*
G75*
G02*
X215103700Y-109520734I0J317500D01*
G01*
X215103700Y-108377734D01*
G75*
G02*
X215421200Y-108060234I317500J0D01*
G01*
X216056200Y-108060234D01*
G75*
G02*
X216373700Y-108377734I0J-317500D01*
G01*
G37*
G36*
G01*
X214367100Y-108377734D02*
X214367100Y-109520734D01*
G75*
G02*
X214049600Y-109838234I-317500J0D01*
G01*
X213414600Y-109838234D01*
G75*
G02*
X213097100Y-109520734I0J317500D01*
G01*
X213097100Y-108377734D01*
G75*
G02*
X213414600Y-108060234I317500J0D01*
G01*
X214049600Y-108060234D01*
G75*
G02*
X214367100Y-108377734I0J-317500D01*
G01*
G37*
G36*
G01*
X220386900Y-108377734D02*
X220386900Y-109520734D01*
G75*
G02*
X220069400Y-109838234I-317500J0D01*
G01*
X219434400Y-109838234D01*
G75*
G02*
X219116900Y-109520734I0J317500D01*
G01*
X219116900Y-108377734D01*
G75*
G02*
X219434400Y-108060234I317500J0D01*
G01*
X220069400Y-108060234D01*
G75*
G02*
X220386900Y-108377734I0J-317500D01*
G01*
G37*
G36*
G01*
X218380300Y-108377734D02*
X218380300Y-109520734D01*
G75*
G02*
X218062800Y-109838234I-317500J0D01*
G01*
X217427800Y-109838234D01*
G75*
G02*
X217110300Y-109520734I0J317500D01*
G01*
X217110300Y-108377734D01*
G75*
G02*
X217427800Y-108060234I317500J0D01*
G01*
X218062800Y-108060234D01*
G75*
G02*
X218380300Y-108377734I0J-317500D01*
G01*
G37*
D25*
X211725500Y-108949234D03*
G36*
G01*
X222342700Y-131618734D02*
X222342700Y-132761734D01*
G75*
G02*
X222025200Y-133079234I-317500J0D01*
G01*
X221390200Y-133079234D01*
G75*
G02*
X221072700Y-132761734I0J317500D01*
G01*
X221072700Y-131618734D01*
G75*
G02*
X221390200Y-131301234I317500J0D01*
G01*
X222025200Y-131301234D01*
G75*
G02*
X222342700Y-131618734I0J-317500D01*
G01*
G37*
G36*
G01*
X216322900Y-131618734D02*
X216322900Y-132761734D01*
G75*
G02*
X216005400Y-133079234I-317500J0D01*
G01*
X215370400Y-133079234D01*
G75*
G02*
X215052900Y-132761734I0J317500D01*
G01*
X215052900Y-131618734D01*
G75*
G02*
X215370400Y-131301234I317500J0D01*
G01*
X216005400Y-131301234D01*
G75*
G02*
X216322900Y-131618734I0J-317500D01*
G01*
G37*
G36*
G01*
X214316300Y-131618734D02*
X214316300Y-132761734D01*
G75*
G02*
X213998800Y-133079234I-317500J0D01*
G01*
X213363800Y-133079234D01*
G75*
G02*
X213046300Y-132761734I0J317500D01*
G01*
X213046300Y-131618734D01*
G75*
G02*
X213363800Y-131301234I317500J0D01*
G01*
X213998800Y-131301234D01*
G75*
G02*
X214316300Y-131618734I0J-317500D01*
G01*
G37*
G36*
G01*
X220336100Y-131618734D02*
X220336100Y-132761734D01*
G75*
G02*
X220018600Y-133079234I-317500J0D01*
G01*
X219383600Y-133079234D01*
G75*
G02*
X219066100Y-132761734I0J317500D01*
G01*
X219066100Y-131618734D01*
G75*
G02*
X219383600Y-131301234I317500J0D01*
G01*
X220018600Y-131301234D01*
G75*
G02*
X220336100Y-131618734I0J-317500D01*
G01*
G37*
G36*
G01*
X218329500Y-131618734D02*
X218329500Y-132761734D01*
G75*
G02*
X218012000Y-133079234I-317500J0D01*
G01*
X217377000Y-133079234D01*
G75*
G02*
X217059500Y-132761734I0J317500D01*
G01*
X217059500Y-131618734D01*
G75*
G02*
X217377000Y-131301234I317500J0D01*
G01*
X218012000Y-131301234D01*
G75*
G02*
X218329500Y-131618734I0J-317500D01*
G01*
G37*
X211674700Y-132190234D03*
G36*
G01*
X229696000Y-115819934D02*
X229696000Y-116454934D01*
G75*
G02*
X229378500Y-116772434I-317500J0D01*
G01*
X228235500Y-116772434D01*
G75*
G02*
X227918000Y-116454934I0J317500D01*
G01*
X227918000Y-115819934D01*
G75*
G02*
X228235500Y-115502434I317500J0D01*
G01*
X229378500Y-115502434D01*
G75*
G02*
X229696000Y-115819934I0J-317500D01*
G01*
G37*
G36*
G01*
X229696000Y-117826534D02*
X229696000Y-118461534D01*
G75*
G02*
X229378500Y-118779034I-317500J0D01*
G01*
X228235500Y-118779034D01*
G75*
G02*
X227918000Y-118461534I0J317500D01*
G01*
X227918000Y-117826534D01*
G75*
G02*
X228235500Y-117509034I317500J0D01*
G01*
X229378500Y-117509034D01*
G75*
G02*
X229696000Y-117826534I0J-317500D01*
G01*
G37*
G36*
G01*
X229696000Y-119833134D02*
X229696000Y-120468134D01*
G75*
G02*
X229378500Y-120785634I-317500J0D01*
G01*
X228235500Y-120785634D01*
G75*
G02*
X227918000Y-120468134I0J317500D01*
G01*
X227918000Y-119833134D01*
G75*
G02*
X228235500Y-119515634I317500J0D01*
G01*
X229378500Y-119515634D01*
G75*
G02*
X229696000Y-119833134I0J-317500D01*
G01*
G37*
G36*
G01*
X229696000Y-121839734D02*
X229696000Y-122474734D01*
G75*
G02*
X229378500Y-122792234I-317500J0D01*
G01*
X228235500Y-122792234D01*
G75*
G02*
X227918000Y-122474734I0J317500D01*
G01*
X227918000Y-121839734D01*
G75*
G02*
X228235500Y-121522234I317500J0D01*
G01*
X229378500Y-121522234D01*
G75*
G02*
X229696000Y-121839734I0J-317500D01*
G01*
G37*
G36*
G01*
X229696000Y-123846334D02*
X229696000Y-124481334D01*
G75*
G02*
X229378500Y-124798834I-317500J0D01*
G01*
X228235500Y-124798834D01*
G75*
G02*
X227918000Y-124481334I0J317500D01*
G01*
X227918000Y-123846334D01*
G75*
G02*
X228235500Y-123528834I317500J0D01*
G01*
X229378500Y-123528834D01*
G75*
G02*
X229696000Y-123846334I0J-317500D01*
G01*
G37*
G36*
G01*
X229696000Y-125852934D02*
X229696000Y-126487934D01*
G75*
G02*
X229378500Y-126805434I-317500J0D01*
G01*
X228235500Y-126805434D01*
G75*
G02*
X227918000Y-126487934I0J317500D01*
G01*
X227918000Y-125852934D01*
G75*
G02*
X228235500Y-125535434I317500J0D01*
G01*
X229378500Y-125535434D01*
G75*
G02*
X229696000Y-125852934I0J-317500D01*
G01*
G37*
G36*
G01*
X209376000Y-126014934D02*
X209376000Y-126649934D01*
G75*
G02*
X209058500Y-126967434I-317500J0D01*
G01*
X207915500Y-126967434D01*
G75*
G02*
X207598000Y-126649934I0J317500D01*
G01*
X207598000Y-126014934D01*
G75*
G02*
X207915500Y-125697434I317500J0D01*
G01*
X209058500Y-125697434D01*
G75*
G02*
X209376000Y-126014934I0J-317500D01*
G01*
G37*
%TD*%
D21*
%TO.C,J38*%
X203280000Y-94044434D03*
X203280000Y-66734434D03*
%TD*%
D26*
%TO.C,Pix1*%
X234790000Y-135074434D03*
X234790000Y-105074434D03*
X204790000Y-105074434D03*
X204790000Y-135074434D03*
%TD*%
D27*
%TO.C,J4*%
G36*
X194071504Y-93582234D02*
G01*
X195040240Y-92613498D01*
X196008976Y-93582234D01*
X195040240Y-94550970D01*
X194071504Y-93582234D01*
G37*
D28*
X193244189Y-95378285D03*
X193244189Y-91786183D03*
X191448138Y-93582234D03*
X191448138Y-89990132D03*
X189652086Y-91786183D03*
%TD*%
D27*
%TO.C,J3*%
G36*
X193531480Y-145536390D02*
G01*
X192562744Y-144567654D01*
X193531480Y-143598918D01*
X194500216Y-144567654D01*
X193531480Y-145536390D01*
G37*
D28*
X195327531Y-146363705D03*
X191735429Y-146363705D03*
X193531480Y-148159756D03*
X189939378Y-148159756D03*
X191735429Y-149955808D03*
%TD*%
D29*
%TO.C,J2*%
X245789440Y-145573494D03*
D28*
X248329440Y-145573494D03*
X245789440Y-148113494D03*
X248329440Y-148113494D03*
X245789440Y-150653494D03*
X248329440Y-150653494D03*
%TD*%
D27*
%TO.C,J1*%
G36*
X246282200Y-94355938D02*
G01*
X247250936Y-95324674D01*
X246282200Y-96293410D01*
X245313464Y-95324674D01*
X246282200Y-94355938D01*
G37*
D28*
X244486149Y-93528623D03*
X248078251Y-93528623D03*
X246282200Y-91732572D03*
X249874302Y-91732572D03*
X248078251Y-89936520D03*
%TD*%
D30*
%TO.C,U6*%
X226590000Y-87689434D03*
D31*
X226590000Y-83879434D03*
X226590000Y-80069434D03*
X226590000Y-76259434D03*
D30*
X226590000Y-72449434D03*
D31*
X212990000Y-72449434D03*
X212990000Y-80069434D03*
X212990000Y-87689434D03*
%TD*%
D30*
%TO.C,U5*%
X185950000Y-127186434D03*
D31*
X185950000Y-123376434D03*
X185950000Y-119566434D03*
X185950000Y-115756434D03*
D30*
X185950000Y-111946434D03*
D31*
X172350000Y-111946434D03*
X172350000Y-119566434D03*
X172350000Y-127186434D03*
%TD*%
D30*
%TO.C,U3*%
X227410000Y-153914434D03*
D31*
X223600000Y-153914434D03*
X219790000Y-153914434D03*
X215980000Y-153914434D03*
D30*
X212170000Y-153914434D03*
D31*
X212170000Y-167514434D03*
X219790000Y-167514434D03*
X227410000Y-167514434D03*
%TD*%
D23*
%TO.C,RV2*%
X170243500Y-102425500D03*
X167703500Y-104965500D03*
X170243500Y-107505500D03*
%TD*%
%TO.C,RV1*%
X205105000Y-167513000D03*
X207645000Y-164973000D03*
X205105000Y-162433000D03*
%TD*%
%TO.C,F5*%
G36*
G01*
X191925001Y-76515000D02*
X189074999Y-76515000D01*
G75*
G02*
X188825000Y-76265001I0J249999D01*
G01*
X188825000Y-75239999D01*
G75*
G02*
X189074999Y-74990000I249999J0D01*
G01*
X191925001Y-74990000D01*
G75*
G02*
X192175000Y-75239999I0J-249999D01*
G01*
X192175000Y-76265001D01*
G75*
G02*
X191925001Y-76515000I-249999J0D01*
G01*
G37*
G36*
G01*
X191925001Y-82490000D02*
X189074999Y-82490000D01*
G75*
G02*
X188825000Y-82240001I0J249999D01*
G01*
X188825000Y-81214999D01*
G75*
G02*
X189074999Y-80965000I249999J0D01*
G01*
X191925001Y-80965000D01*
G75*
G02*
X192175000Y-81214999I0J-249999D01*
G01*
X192175000Y-82240001D01*
G75*
G02*
X191925001Y-82490000I-249999J0D01*
G01*
G37*
%TD*%
%TO.C,F4*%
G36*
G01*
X176925000Y-149129433D02*
X176925000Y-151979435D01*
G75*
G02*
X176675001Y-152229434I-249999J0D01*
G01*
X175649999Y-152229434D01*
G75*
G02*
X175400000Y-151979435I0J249999D01*
G01*
X175400000Y-149129433D01*
G75*
G02*
X175649999Y-148879434I249999J0D01*
G01*
X176675001Y-148879434D01*
G75*
G02*
X176925000Y-149129433I0J-249999D01*
G01*
G37*
G36*
G01*
X182900000Y-149129433D02*
X182900000Y-151979435D01*
G75*
G02*
X182650001Y-152229434I-249999J0D01*
G01*
X181624999Y-152229434D01*
G75*
G02*
X181375000Y-151979435I0J249999D01*
G01*
X181375000Y-149129433D01*
G75*
G02*
X181624999Y-148879434I249999J0D01*
G01*
X182650001Y-148879434D01*
G75*
G02*
X182900000Y-149129433I0J-249999D01*
G01*
G37*
%TD*%
%TO.C,F3*%
G36*
G01*
X250114999Y-162939434D02*
X252965001Y-162939434D01*
G75*
G02*
X253215000Y-163189433I0J-249999D01*
G01*
X253215000Y-164214435D01*
G75*
G02*
X252965001Y-164464434I-249999J0D01*
G01*
X250114999Y-164464434D01*
G75*
G02*
X249865000Y-164214435I0J249999D01*
G01*
X249865000Y-163189433D01*
G75*
G02*
X250114999Y-162939434I249999J0D01*
G01*
G37*
G36*
G01*
X250114999Y-156964434D02*
X252965001Y-156964434D01*
G75*
G02*
X253215000Y-157214433I0J-249999D01*
G01*
X253215000Y-158239435D01*
G75*
G02*
X252965001Y-158489434I-249999J0D01*
G01*
X250114999Y-158489434D01*
G75*
G02*
X249865000Y-158239435I0J249999D01*
G01*
X249865000Y-157214433D01*
G75*
G02*
X250114999Y-156964434I249999J0D01*
G01*
G37*
%TD*%
M02*
