%TF.GenerationSoftware,KiCad,Pcbnew,(5.1.12)-1*%
%TF.CreationDate,2021-12-14T20:27:31-05:00*%
%TF.ProjectId,PDB,5044422e-6b69-4636-9164-5f7063625858,rev?*%
%TF.SameCoordinates,Original*%
%TF.FileFunction,Soldermask,Bot*%
%TF.FilePolarity,Negative*%
%FSLAX46Y46*%
G04 Gerber Fmt 4.6, Leading zero omitted, Abs format (unit mm)*
G04 Created by KiCad (PCBNEW (5.1.12)-1) date 2021-12-14 20:27:31*
%MOMM*%
%LPD*%
G01*
G04 APERTURE LIST*
%ADD10C,1.400000*%
%ADD11R,3.500000X3.500000*%
%ADD12C,3.500000*%
%ADD13C,0.100000*%
%ADD14R,1.700000X1.700000*%
%ADD15O,1.700000X1.700000*%
%ADD16C,7.000000*%
%ADD17C,5.000000*%
%ADD18R,8.000000X14.000000*%
%ADD19C,4.000000*%
%ADD20C,6.400000*%
%ADD21R,6.000000X9.000000*%
%ADD22C,0.500000*%
%ADD23R,1.500000X1.500000*%
%ADD24C,1.500000*%
G04 APERTURE END LIST*
D10*
%TO.C,J20*%
X218646000Y-173080434D03*
X207646000Y-173080434D03*
D11*
X215646000Y-168080434D03*
D12*
X210646000Y-168080434D03*
%TD*%
D13*
%TO.C,J5*%
G36*
X192337918Y-144574434D02*
G01*
X193540000Y-143372352D01*
X194742082Y-144574434D01*
X193540000Y-145776516D01*
X192337918Y-144574434D01*
G37*
G36*
G01*
X194735010Y-145769444D02*
X194735010Y-145769444D01*
G75*
G02*
X195937092Y-145769444I601041J-601041D01*
G01*
X195937092Y-145769444D01*
G75*
G02*
X195937092Y-146971526I-601041J-601041D01*
G01*
X195937092Y-146971526D01*
G75*
G02*
X194735010Y-146971526I-601041J601041D01*
G01*
X194735010Y-146971526D01*
G75*
G02*
X194735010Y-145769444I601041J601041D01*
G01*
G37*
G36*
G01*
X191142908Y-145769444D02*
X191142908Y-145769444D01*
G75*
G02*
X192344990Y-145769444I601041J-601041D01*
G01*
X192344990Y-145769444D01*
G75*
G02*
X192344990Y-146971526I-601041J-601041D01*
G01*
X192344990Y-146971526D01*
G75*
G02*
X191142908Y-146971526I-601041J601041D01*
G01*
X191142908Y-146971526D01*
G75*
G02*
X191142908Y-145769444I601041J601041D01*
G01*
G37*
G36*
G01*
X192938959Y-147565495D02*
X192938959Y-147565495D01*
G75*
G02*
X194141041Y-147565495I601041J-601041D01*
G01*
X194141041Y-147565495D01*
G75*
G02*
X194141041Y-148767577I-601041J-601041D01*
G01*
X194141041Y-148767577D01*
G75*
G02*
X192938959Y-148767577I-601041J601041D01*
G01*
X192938959Y-148767577D01*
G75*
G02*
X192938959Y-147565495I601041J601041D01*
G01*
G37*
G36*
G01*
X189346857Y-147565495D02*
X189346857Y-147565495D01*
G75*
G02*
X190548939Y-147565495I601041J-601041D01*
G01*
X190548939Y-147565495D01*
G75*
G02*
X190548939Y-148767577I-601041J-601041D01*
G01*
X190548939Y-148767577D01*
G75*
G02*
X189346857Y-148767577I-601041J601041D01*
G01*
X189346857Y-148767577D01*
G75*
G02*
X189346857Y-147565495I601041J601041D01*
G01*
G37*
G36*
G01*
X191142908Y-149361547D02*
X191142908Y-149361547D01*
G75*
G02*
X192344990Y-149361547I601041J-601041D01*
G01*
X192344990Y-149361547D01*
G75*
G02*
X192344990Y-150563629I-601041J-601041D01*
G01*
X192344990Y-150563629D01*
G75*
G02*
X191142908Y-150563629I-601041J601041D01*
G01*
X191142908Y-150563629D01*
G75*
G02*
X191142908Y-149361547I601041J601041D01*
G01*
G37*
%TD*%
D14*
%TO.C,J4*%
X245790000Y-145574434D03*
D15*
X248330000Y-145574434D03*
X245790000Y-148114434D03*
X248330000Y-148114434D03*
X245790000Y-150654434D03*
X248330000Y-150654434D03*
%TD*%
D13*
%TO.C,J3*%
G36*
X247492082Y-95324434D02*
G01*
X246290000Y-96526516D01*
X245087918Y-95324434D01*
X246290000Y-94122352D01*
X247492082Y-95324434D01*
G37*
G36*
G01*
X245094990Y-94129424D02*
X245094990Y-94129424D01*
G75*
G02*
X243892908Y-94129424I-601041J601041D01*
G01*
X243892908Y-94129424D01*
G75*
G02*
X243892908Y-92927342I601041J601041D01*
G01*
X243892908Y-92927342D01*
G75*
G02*
X245094990Y-92927342I601041J-601041D01*
G01*
X245094990Y-92927342D01*
G75*
G02*
X245094990Y-94129424I-601041J-601041D01*
G01*
G37*
G36*
G01*
X248687092Y-94129424D02*
X248687092Y-94129424D01*
G75*
G02*
X247485010Y-94129424I-601041J601041D01*
G01*
X247485010Y-94129424D01*
G75*
G02*
X247485010Y-92927342I601041J601041D01*
G01*
X247485010Y-92927342D01*
G75*
G02*
X248687092Y-92927342I601041J-601041D01*
G01*
X248687092Y-92927342D01*
G75*
G02*
X248687092Y-94129424I-601041J-601041D01*
G01*
G37*
G36*
G01*
X246891041Y-92333373D02*
X246891041Y-92333373D01*
G75*
G02*
X245688959Y-92333373I-601041J601041D01*
G01*
X245688959Y-92333373D01*
G75*
G02*
X245688959Y-91131291I601041J601041D01*
G01*
X245688959Y-91131291D01*
G75*
G02*
X246891041Y-91131291I601041J-601041D01*
G01*
X246891041Y-91131291D01*
G75*
G02*
X246891041Y-92333373I-601041J-601041D01*
G01*
G37*
G36*
G01*
X250483143Y-92333373D02*
X250483143Y-92333373D01*
G75*
G02*
X249281061Y-92333373I-601041J601041D01*
G01*
X249281061Y-92333373D01*
G75*
G02*
X249281061Y-91131291I601041J601041D01*
G01*
X249281061Y-91131291D01*
G75*
G02*
X250483143Y-91131291I601041J-601041D01*
G01*
X250483143Y-91131291D01*
G75*
G02*
X250483143Y-92333373I-601041J-601041D01*
G01*
G37*
G36*
G01*
X248687092Y-90537321D02*
X248687092Y-90537321D01*
G75*
G02*
X247485010Y-90537321I-601041J601041D01*
G01*
X247485010Y-90537321D01*
G75*
G02*
X247485010Y-89335239I601041J601041D01*
G01*
X247485010Y-89335239D01*
G75*
G02*
X248687092Y-89335239I601041J-601041D01*
G01*
X248687092Y-89335239D01*
G75*
G02*
X248687092Y-90537321I-601041J-601041D01*
G01*
G37*
%TD*%
%TO.C,J6*%
G36*
X195040000Y-92372352D02*
G01*
X196242082Y-93574434D01*
X195040000Y-94776516D01*
X193837918Y-93574434D01*
X195040000Y-92372352D01*
G37*
G36*
G01*
X193844990Y-94769444D02*
X193844990Y-94769444D01*
G75*
G02*
X193844990Y-95971526I-601041J-601041D01*
G01*
X193844990Y-95971526D01*
G75*
G02*
X192642908Y-95971526I-601041J601041D01*
G01*
X192642908Y-95971526D01*
G75*
G02*
X192642908Y-94769444I601041J601041D01*
G01*
X192642908Y-94769444D01*
G75*
G02*
X193844990Y-94769444I601041J-601041D01*
G01*
G37*
G36*
G01*
X193844990Y-91177342D02*
X193844990Y-91177342D01*
G75*
G02*
X193844990Y-92379424I-601041J-601041D01*
G01*
X193844990Y-92379424D01*
G75*
G02*
X192642908Y-92379424I-601041J601041D01*
G01*
X192642908Y-92379424D01*
G75*
G02*
X192642908Y-91177342I601041J601041D01*
G01*
X192642908Y-91177342D01*
G75*
G02*
X193844990Y-91177342I601041J-601041D01*
G01*
G37*
G36*
G01*
X192048939Y-92973393D02*
X192048939Y-92973393D01*
G75*
G02*
X192048939Y-94175475I-601041J-601041D01*
G01*
X192048939Y-94175475D01*
G75*
G02*
X190846857Y-94175475I-601041J601041D01*
G01*
X190846857Y-94175475D01*
G75*
G02*
X190846857Y-92973393I601041J601041D01*
G01*
X190846857Y-92973393D01*
G75*
G02*
X192048939Y-92973393I601041J-601041D01*
G01*
G37*
G36*
G01*
X192048939Y-89381291D02*
X192048939Y-89381291D01*
G75*
G02*
X192048939Y-90583373I-601041J-601041D01*
G01*
X192048939Y-90583373D01*
G75*
G02*
X190846857Y-90583373I-601041J601041D01*
G01*
X190846857Y-90583373D01*
G75*
G02*
X190846857Y-89381291I601041J601041D01*
G01*
X190846857Y-89381291D01*
G75*
G02*
X192048939Y-89381291I601041J-601041D01*
G01*
G37*
G36*
G01*
X190252887Y-91177342D02*
X190252887Y-91177342D01*
G75*
G02*
X190252887Y-92379424I-601041J-601041D01*
G01*
X190252887Y-92379424D01*
G75*
G02*
X189050805Y-92379424I-601041J601041D01*
G01*
X189050805Y-92379424D01*
G75*
G02*
X189050805Y-91177342I601041J601041D01*
G01*
X189050805Y-91177342D01*
G75*
G02*
X190252887Y-91177342I601041J-601041D01*
G01*
G37*
%TD*%
D16*
%TO.C,J24*%
X203915000Y-67369434D03*
D17*
X203915000Y-67369434D03*
%TD*%
D16*
%TO.C,J23*%
X235665000Y-172779434D03*
D17*
X235665000Y-172779434D03*
%TD*%
D18*
%TO.C,J1*%
X220425000Y-70074434D03*
%TD*%
%TO.C,J2*%
X219409000Y-170074434D03*
%TD*%
D10*
%TO.C,J19*%
X221362000Y-67322434D03*
X232362000Y-67322434D03*
D11*
X224362000Y-72322434D03*
D12*
X229362000Y-72322434D03*
%TD*%
%TO.C,C2*%
G36*
G01*
X209259000Y-157244434D02*
X210509000Y-157244434D01*
G75*
G02*
X210759000Y-157494434I0J-250000D01*
G01*
X210759000Y-158419434D01*
G75*
G02*
X210509000Y-158669434I-250000J0D01*
G01*
X209259000Y-158669434D01*
G75*
G02*
X209009000Y-158419434I0J250000D01*
G01*
X209009000Y-157494434D01*
G75*
G02*
X209259000Y-157244434I250000J0D01*
G01*
G37*
G36*
G01*
X209259000Y-160219434D02*
X210509000Y-160219434D01*
G75*
G02*
X210759000Y-160469434I0J-250000D01*
G01*
X210759000Y-161394434D01*
G75*
G02*
X210509000Y-161644434I-250000J0D01*
G01*
X209259000Y-161644434D01*
G75*
G02*
X209009000Y-161394434I0J250000D01*
G01*
X209009000Y-160469434D01*
G75*
G02*
X209259000Y-160219434I250000J0D01*
G01*
G37*
%TD*%
%TO.C,C1*%
G36*
G01*
X230829000Y-81453434D02*
X229579000Y-81453434D01*
G75*
G02*
X229329000Y-81203434I0J250000D01*
G01*
X229329000Y-80278434D01*
G75*
G02*
X229579000Y-80028434I250000J0D01*
G01*
X230829000Y-80028434D01*
G75*
G02*
X231079000Y-80278434I0J-250000D01*
G01*
X231079000Y-81203434D01*
G75*
G02*
X230829000Y-81453434I-250000J0D01*
G01*
G37*
G36*
G01*
X230829000Y-84428434D02*
X229579000Y-84428434D01*
G75*
G02*
X229329000Y-84178434I0J250000D01*
G01*
X229329000Y-83253434D01*
G75*
G02*
X229579000Y-83003434I250000J0D01*
G01*
X230829000Y-83003434D01*
G75*
G02*
X231079000Y-83253434I0J-250000D01*
G01*
X231079000Y-84178434D01*
G75*
G02*
X230829000Y-84428434I-250000J0D01*
G01*
G37*
%TD*%
D19*
%TO.C,J11*%
X264790000Y-116474434D03*
X264790000Y-123674434D03*
G36*
G01*
X271440000Y-113624434D02*
X270140000Y-113624434D01*
G75*
G02*
X269990000Y-113474434I0J150000D01*
G01*
X269990000Y-113174434D01*
G75*
G02*
X270140000Y-113024434I150000J0D01*
G01*
X271440000Y-113024434D01*
G75*
G02*
X271590000Y-113174434I0J-150000D01*
G01*
X271590000Y-113474434D01*
G75*
G02*
X271440000Y-113624434I-150000J0D01*
G01*
G37*
G36*
G01*
X271440000Y-127124434D02*
X270140000Y-127124434D01*
G75*
G02*
X269990000Y-126974434I0J150000D01*
G01*
X269990000Y-126674434D01*
G75*
G02*
X270140000Y-126524434I150000J0D01*
G01*
X271440000Y-126524434D01*
G75*
G02*
X271590000Y-126674434I0J-150000D01*
G01*
X271590000Y-126974434D01*
G75*
G02*
X271440000Y-127124434I-150000J0D01*
G01*
G37*
%TD*%
%TO.C,J12*%
X260560926Y-139456685D03*
X256960926Y-145692067D03*
G36*
G01*
X267744995Y-140313513D02*
X266619161Y-139663513D01*
G75*
G02*
X266564257Y-139458609I75000J129904D01*
G01*
X266714257Y-139198801D01*
G75*
G02*
X266919161Y-139143897I129904J-75000D01*
G01*
X268044995Y-139793897D01*
G75*
G02*
X268099899Y-139998801I-75000J-129904D01*
G01*
X267949899Y-140258609D01*
G75*
G02*
X267744995Y-140313513I-129904J75000D01*
G01*
G37*
G36*
G01*
X260994995Y-152004855D02*
X259869161Y-151354855D01*
G75*
G02*
X259814257Y-151149951I75000J129904D01*
G01*
X259964257Y-150890143D01*
G75*
G02*
X260169161Y-150835239I129904J-75000D01*
G01*
X261294995Y-151485239D01*
G75*
G02*
X261349899Y-151690143I-75000J-129904D01*
G01*
X261199899Y-151949951D01*
G75*
G02*
X260994995Y-152004855I-129904J75000D01*
G01*
G37*
%TD*%
%TO.C,J13*%
X245407315Y-157245360D03*
X239171933Y-160845360D03*
G36*
G01*
X251200487Y-161579429D02*
X250550487Y-160453595D01*
G75*
G02*
X250605391Y-160248691I129904J75000D01*
G01*
X250865199Y-160098691D01*
G75*
G02*
X251070103Y-160153595I75000J-129904D01*
G01*
X251720103Y-161279429D01*
G75*
G02*
X251665199Y-161484333I-129904J-75000D01*
G01*
X251405391Y-161634333D01*
G75*
G02*
X251200487Y-161579429I-75000J129904D01*
G01*
G37*
G36*
G01*
X239509145Y-168329429D02*
X238859145Y-167203595D01*
G75*
G02*
X238914049Y-166998691I129904J75000D01*
G01*
X239173857Y-166848691D01*
G75*
G02*
X239378761Y-166903595I75000J-129904D01*
G01*
X240028761Y-168029429D01*
G75*
G02*
X239973857Y-168234333I-129904J-75000D01*
G01*
X239714049Y-168384333D01*
G75*
G02*
X239509145Y-168329429I-75000J129904D01*
G01*
G37*
%TD*%
%TO.C,J14*%
X200407315Y-160844926D03*
X194171933Y-157244926D03*
G36*
G01*
X199550487Y-168028995D02*
X200200487Y-166903161D01*
G75*
G02*
X200405391Y-166848257I129904J-75000D01*
G01*
X200665199Y-166998257D01*
G75*
G02*
X200720103Y-167203161I-75000J-129904D01*
G01*
X200070103Y-168328995D01*
G75*
G02*
X199865199Y-168383899I-129904J75000D01*
G01*
X199605391Y-168233899D01*
G75*
G02*
X199550487Y-168028995I75000J129904D01*
G01*
G37*
G36*
G01*
X187859145Y-161278995D02*
X188509145Y-160153161D01*
G75*
G02*
X188714049Y-160098257I129904J-75000D01*
G01*
X188973857Y-160248257D01*
G75*
G02*
X189028761Y-160453161I-75000J-129904D01*
G01*
X188378761Y-161578995D01*
G75*
G02*
X188173857Y-161633899I-129904J75000D01*
G01*
X187914049Y-161483899D01*
G75*
G02*
X187859145Y-161278995I75000J129904D01*
G01*
G37*
%TD*%
%TO.C,J15*%
X182618640Y-145691315D03*
X179018640Y-139455933D03*
G36*
G01*
X178284571Y-151484487D02*
X179410405Y-150834487D01*
G75*
G02*
X179615309Y-150889391I75000J-129904D01*
G01*
X179765309Y-151149199D01*
G75*
G02*
X179710405Y-151354103I-129904J-75000D01*
G01*
X178584571Y-152004103D01*
G75*
G02*
X178379667Y-151949199I-75000J129904D01*
G01*
X178229667Y-151689391D01*
G75*
G02*
X178284571Y-151484487I129904J75000D01*
G01*
G37*
G36*
G01*
X171534571Y-139793145D02*
X172660405Y-139143145D01*
G75*
G02*
X172865309Y-139198049I75000J-129904D01*
G01*
X173015309Y-139457857D01*
G75*
G02*
X172960405Y-139662761I-129904J-75000D01*
G01*
X171834571Y-140312761D01*
G75*
G02*
X171629667Y-140257857I-75000J129904D01*
G01*
X171479667Y-139998049D01*
G75*
G02*
X171534571Y-139793145I129904J75000D01*
G01*
G37*
%TD*%
%TO.C,J16*%
X174790000Y-123673566D03*
X174790000Y-116473566D03*
G36*
G01*
X168140000Y-126523566D02*
X169440000Y-126523566D01*
G75*
G02*
X169590000Y-126673566I0J-150000D01*
G01*
X169590000Y-126973566D01*
G75*
G02*
X169440000Y-127123566I-150000J0D01*
G01*
X168140000Y-127123566D01*
G75*
G02*
X167990000Y-126973566I0J150000D01*
G01*
X167990000Y-126673566D01*
G75*
G02*
X168140000Y-126523566I150000J0D01*
G01*
G37*
G36*
G01*
X168140000Y-113023566D02*
X169440000Y-113023566D01*
G75*
G02*
X169590000Y-113173566I0J-150000D01*
G01*
X169590000Y-113473566D01*
G75*
G02*
X169440000Y-113623566I-150000J0D01*
G01*
X168140000Y-113623566D01*
G75*
G02*
X167990000Y-113473566I0J150000D01*
G01*
X167990000Y-113173566D01*
G75*
G02*
X168140000Y-113023566I150000J0D01*
G01*
G37*
%TD*%
%TO.C,J17*%
X179019074Y-100691315D03*
X182619074Y-94455933D03*
G36*
G01*
X171835005Y-99834487D02*
X172960839Y-100484487D01*
G75*
G02*
X173015743Y-100689391I-75000J-129904D01*
G01*
X172865743Y-100949199D01*
G75*
G02*
X172660839Y-101004103I-129904J75000D01*
G01*
X171535005Y-100354103D01*
G75*
G02*
X171480101Y-100149199I75000J129904D01*
G01*
X171630101Y-99889391D01*
G75*
G02*
X171835005Y-99834487I129904J-75000D01*
G01*
G37*
G36*
G01*
X178585005Y-88143145D02*
X179710839Y-88793145D01*
G75*
G02*
X179765743Y-88998049I-75000J-129904D01*
G01*
X179615743Y-89257857D01*
G75*
G02*
X179410839Y-89312761I-129904J75000D01*
G01*
X178285005Y-88662761D01*
G75*
G02*
X178230101Y-88457857I75000J129904D01*
G01*
X178380101Y-88198049D01*
G75*
G02*
X178585005Y-88143145I129904J-75000D01*
G01*
G37*
%TD*%
%TO.C,J18*%
X194172685Y-82902640D03*
X200408067Y-79302640D03*
G36*
G01*
X188379513Y-78568571D02*
X189029513Y-79694405D01*
G75*
G02*
X188974609Y-79899309I-129904J-75000D01*
G01*
X188714801Y-80049309D01*
G75*
G02*
X188509897Y-79994405I-75000J129904D01*
G01*
X187859897Y-78868571D01*
G75*
G02*
X187914801Y-78663667I129904J75000D01*
G01*
X188174609Y-78513667D01*
G75*
G02*
X188379513Y-78568571I75000J-129904D01*
G01*
G37*
G36*
G01*
X200070855Y-71818571D02*
X200720855Y-72944405D01*
G75*
G02*
X200665951Y-73149309I-129904J-75000D01*
G01*
X200406143Y-73299309D01*
G75*
G02*
X200201239Y-73244405I-75000J129904D01*
G01*
X199551239Y-72118571D01*
G75*
G02*
X199606143Y-71913667I129904J75000D01*
G01*
X199865951Y-71763667D01*
G75*
G02*
X200070855Y-71818571I75000J-129904D01*
G01*
G37*
%TD*%
%TO.C,J9*%
X239172685Y-79303074D03*
X245408067Y-82903074D03*
G36*
G01*
X240029513Y-72119005D02*
X239379513Y-73244839D01*
G75*
G02*
X239174609Y-73299743I-129904J75000D01*
G01*
X238914801Y-73149743D01*
G75*
G02*
X238859897Y-72944839I75000J129904D01*
G01*
X239509897Y-71819005D01*
G75*
G02*
X239714801Y-71764101I129904J-75000D01*
G01*
X239974609Y-71914101D01*
G75*
G02*
X240029513Y-72119005I-75000J-129904D01*
G01*
G37*
G36*
G01*
X251720855Y-78869005D02*
X251070855Y-79994839D01*
G75*
G02*
X250865951Y-80049743I-129904J75000D01*
G01*
X250606143Y-79899743D01*
G75*
G02*
X250551239Y-79694839I75000J129904D01*
G01*
X251201239Y-78569005D01*
G75*
G02*
X251406143Y-78514101I129904J-75000D01*
G01*
X251665951Y-78664101D01*
G75*
G02*
X251720855Y-78869005I-75000J-129904D01*
G01*
G37*
%TD*%
%TO.C,J10*%
X256961360Y-94456685D03*
X260561360Y-100692067D03*
G36*
G01*
X261295429Y-88663513D02*
X260169595Y-89313513D01*
G75*
G02*
X259964691Y-89258609I-75000J129904D01*
G01*
X259814691Y-88998801D01*
G75*
G02*
X259869595Y-88793897I129904J75000D01*
G01*
X260995429Y-88143897D01*
G75*
G02*
X261200333Y-88198801I75000J-129904D01*
G01*
X261350333Y-88458609D01*
G75*
G02*
X261295429Y-88663513I-129904J-75000D01*
G01*
G37*
G36*
G01*
X268045429Y-100354855D02*
X266919595Y-101004855D01*
G75*
G02*
X266714691Y-100949951I-75000J129904D01*
G01*
X266564691Y-100690143D01*
G75*
G02*
X266619595Y-100485239I129904J75000D01*
G01*
X267745429Y-99835239D01*
G75*
G02*
X267950333Y-99890143I75000J-129904D01*
G01*
X268100333Y-100149951D01*
G75*
G02*
X268045429Y-100354855I-129904J-75000D01*
G01*
G37*
%TD*%
D20*
%TO.C,M1*%
X258790000Y-81074434D03*
%TD*%
%TO.C,M4*%
X180790000Y-81074434D03*
%TD*%
%TO.C,M2*%
X258790000Y-159074434D03*
%TD*%
%TO.C,M3*%
X180790000Y-159074434D03*
%TD*%
D21*
%TO.C,U2*%
X212040000Y-76324434D03*
X212040000Y-86324434D03*
D22*
X210040000Y-86324434D03*
X210040000Y-85024434D03*
X210040000Y-83724434D03*
X210040000Y-87624434D03*
X210040000Y-88924434D03*
X212040000Y-82574434D03*
X212040000Y-90074434D03*
X214040000Y-88924434D03*
X214040000Y-87624434D03*
X214040000Y-86324434D03*
X214040000Y-85024434D03*
X214040000Y-83724434D03*
X212040000Y-80074434D03*
X212040000Y-72574434D03*
X210040000Y-78924434D03*
X210040000Y-77624434D03*
X210040000Y-76324434D03*
X210040000Y-75024434D03*
X210040000Y-73724434D03*
X214040000Y-78924434D03*
X214040000Y-77624434D03*
X214040000Y-76324434D03*
X214040000Y-75024434D03*
X214040000Y-73724434D03*
D23*
X233440000Y-83234434D03*
D24*
X233440000Y-81324434D03*
X233440000Y-79414434D03*
%TD*%
D21*
%TO.C,U1*%
X227790000Y-164574434D03*
X227790000Y-154574434D03*
D22*
X229790000Y-154574434D03*
X229790000Y-155874434D03*
X229790000Y-157174434D03*
X229790000Y-153274434D03*
X229790000Y-151974434D03*
X227790000Y-158324434D03*
X227790000Y-150824434D03*
X225790000Y-151974434D03*
X225790000Y-153274434D03*
X225790000Y-154574434D03*
X225790000Y-155874434D03*
X225790000Y-157174434D03*
X227790000Y-160824434D03*
X227790000Y-168324434D03*
X229790000Y-161974434D03*
X229790000Y-163274434D03*
X229790000Y-164574434D03*
X229790000Y-165874434D03*
X229790000Y-167174434D03*
X225790000Y-161974434D03*
X225790000Y-163274434D03*
X225790000Y-164574434D03*
X225790000Y-165874434D03*
X225790000Y-167174434D03*
D23*
X206390000Y-157664434D03*
D24*
X206390000Y-159574434D03*
X206390000Y-161484434D03*
%TD*%
M02*
