%TF.GenerationSoftware,KiCad,Pcbnew,(5.1.12)-1*%
%TF.CreationDate,2021-12-14T20:27:31-05:00*%
%TF.ProjectId,PDB,5044422e-6b69-4636-9164-5f7063625858,rev?*%
%TF.SameCoordinates,Original*%
%TF.FileFunction,Legend,Top*%
%TF.FilePolarity,Positive*%
%FSLAX46Y46*%
G04 Gerber Fmt 4.6, Leading zero omitted, Abs format (unit mm)*
G04 Created by KiCad (PCBNEW (5.1.12)-1) date 2021-12-14 20:27:31*
%MOMM*%
%LPD*%
G01*
G04 APERTURE LIST*
%ADD10C,0.120000*%
%ADD11C,0.150000*%
%ADD12C,0.100000*%
%ADD13R,0.650000X0.400000*%
%ADD14C,1.400000*%
%ADD15R,3.500000X3.500000*%
%ADD16C,3.500000*%
%ADD17R,1.700000X1.700000*%
%ADD18O,1.700000X1.700000*%
%ADD19C,5.000000*%
%ADD20R,10.000000X8.000000*%
%ADD21C,4.000000*%
%ADD22C,6.400000*%
%ADD23R,6.000000X9.000000*%
%ADD24C,0.500000*%
%ADD25R,1.500000X1.500000*%
%ADD26C,1.500000*%
%ADD27R,0.800000X8.000000*%
%ADD28R,2.800000X0.800000*%
%ADD29R,3.700000X9.700000*%
%ADD30R,2.900000X8.700000*%
%ADD31R,1.400000X10.100000*%
G04 APERTURE END LIST*
D10*
%TO.C,C4*%
X257179680Y-128826734D02*
X256898520Y-128826734D01*
X257179680Y-127806734D02*
X256898520Y-127806734D01*
%TO.C,C3*%
X182425720Y-111309434D02*
X182706880Y-111309434D01*
X182425720Y-112329434D02*
X182706880Y-112329434D01*
%TO.C,U4*%
X186479400Y-111764334D02*
X184579400Y-111764334D01*
X185079400Y-114084334D02*
X186479400Y-114084334D01*
%TO.C,U3*%
X253100600Y-128397234D02*
X255000600Y-128397234D01*
X254500600Y-126077234D02*
X253100600Y-126077234D01*
%TO.C,J20*%
X218206000Y-176240434D02*
X217676000Y-176240434D01*
X218906000Y-171970434D02*
X207386000Y-171970434D01*
X218206000Y-176240434D02*
X218206000Y-174190434D01*
X218906000Y-174190434D02*
X218206000Y-174190434D01*
X208086000Y-174190434D02*
X207386000Y-174190434D01*
X208086000Y-176240434D02*
X208086000Y-174190434D01*
X208616000Y-176240434D02*
X208086000Y-176240434D01*
X208616000Y-182240434D02*
X208616000Y-176240434D01*
X217676000Y-182240434D02*
X208646000Y-182240434D01*
X217676000Y-182240434D02*
X217676000Y-176240434D01*
X218967729Y-171983799D02*
G75*
G02*
X218796000Y-174190434I-171729J-1096635D01*
G01*
X207496000Y-174190434D02*
G75*
G02*
X207496000Y-171970434I0J1110000D01*
G01*
%TO.C,J5*%
X188066994Y-148166536D02*
X191743949Y-151843492D01*
X191701522Y-144532008D02*
X188066994Y-148166536D01*
X197216955Y-146370485D02*
X191743949Y-151843492D01*
X191701522Y-144532008D02*
X193540000Y-146370485D01*
X193540000Y-146370485D02*
X195378478Y-144532008D01*
X195378478Y-144532008D02*
X197216955Y-146370485D01*
X192599548Y-143633982D02*
X193540000Y-142693530D01*
X193540000Y-142693530D02*
X194480452Y-143633982D01*
%TO.C,J4*%
X244460000Y-151984434D02*
X249660000Y-151984434D01*
X244460000Y-146844434D02*
X244460000Y-151984434D01*
X249660000Y-144244434D02*
X249660000Y-151984434D01*
X244460000Y-146844434D02*
X247060000Y-146844434D01*
X247060000Y-146844434D02*
X247060000Y-144244434D01*
X247060000Y-144244434D02*
X249660000Y-144244434D01*
X244460000Y-145574434D02*
X244460000Y-144244434D01*
X244460000Y-144244434D02*
X245790000Y-144244434D01*
%TO.C,J3*%
X251763006Y-91732332D02*
X248086051Y-88055376D01*
X248128478Y-95366860D02*
X251763006Y-91732332D01*
X242613045Y-93528383D02*
X248086051Y-88055376D01*
X248128478Y-95366860D02*
X246290000Y-93528383D01*
X246290000Y-93528383D02*
X244451522Y-95366860D01*
X244451522Y-95366860D02*
X242613045Y-93528383D01*
X247230452Y-96264886D02*
X246290000Y-97205338D01*
X246290000Y-97205338D02*
X245349548Y-96264886D01*
%TO.C,J6*%
X191447898Y-88101428D02*
X187770942Y-91778383D01*
X195082426Y-91735956D02*
X191447898Y-88101428D01*
X193243949Y-97251389D02*
X187770942Y-91778383D01*
X195082426Y-91735956D02*
X193243949Y-93574434D01*
X193243949Y-93574434D02*
X195082426Y-95412912D01*
X195082426Y-95412912D02*
X193243949Y-97251389D01*
X195980452Y-92633982D02*
X196920904Y-93574434D01*
X196920904Y-93574434D02*
X195980452Y-94514886D01*
%TO.C,J19*%
X221802000Y-64162434D02*
X222332000Y-64162434D01*
X221102000Y-68432434D02*
X232622000Y-68432434D01*
X221802000Y-64162434D02*
X221802000Y-66212434D01*
X221102000Y-66212434D02*
X221802000Y-66212434D01*
X231922000Y-66212434D02*
X232622000Y-66212434D01*
X231922000Y-64162434D02*
X231922000Y-66212434D01*
X231392000Y-64162434D02*
X231922000Y-64162434D01*
X231392000Y-58162434D02*
X231392000Y-64162434D01*
X222332000Y-58162434D02*
X231362000Y-58162434D01*
X222332000Y-58162434D02*
X222332000Y-64162434D01*
X221040271Y-68419069D02*
G75*
G02*
X221212000Y-66212434I171729J1096635D01*
G01*
X232512000Y-66212434D02*
G75*
G02*
X232512000Y-68432434I0J-1110000D01*
G01*
D11*
%TO.C,Q10*%
X197388087Y-92073617D02*
X201388087Y-99001820D01*
X212241161Y-96199896D02*
X205191161Y-83988938D01*
X205191161Y-83988938D02*
X203718918Y-84838938D01*
D10*
%TO.C,U2*%
X229640000Y-86424434D02*
X216940000Y-86424434D01*
X229640000Y-76224434D02*
X229640000Y-86424434D01*
X216940000Y-76224434D02*
X229640000Y-76224434D01*
X234340000Y-84024434D02*
X234340000Y-78524434D01*
X232540000Y-84024434D02*
X232540000Y-78524434D01*
X216940000Y-86424434D02*
X226140000Y-86424434D01*
X216940000Y-76224434D02*
X226140000Y-76224434D01*
X216440000Y-85924434D02*
X216440000Y-76724434D01*
D12*
X232740000Y-84124434D02*
X234140000Y-84124434D01*
X216440000Y-76224434D02*
X216940000Y-76224434D01*
X216440000Y-76224434D02*
X216440000Y-76724434D01*
X216440000Y-86424434D02*
X216440000Y-85924434D01*
X216440000Y-86424434D02*
X216940000Y-86424434D01*
X226640000Y-86424434D02*
X226140000Y-86424434D01*
X226640000Y-76224434D02*
X226140000Y-76224434D01*
D10*
%TO.C,U1*%
X210190000Y-154474434D02*
X222890000Y-154474434D01*
X210190000Y-164674434D02*
X210190000Y-154474434D01*
X222890000Y-164674434D02*
X210190000Y-164674434D01*
X205490000Y-156874434D02*
X205490000Y-162374434D01*
X207290000Y-156874434D02*
X207290000Y-162374434D01*
X222890000Y-154474434D02*
X213690000Y-154474434D01*
X222890000Y-164674434D02*
X213690000Y-164674434D01*
X223390000Y-154974434D02*
X223390000Y-164174434D01*
D12*
X207090000Y-156774434D02*
X205690000Y-156774434D01*
X223390000Y-164674434D02*
X222890000Y-164674434D01*
X223390000Y-164674434D02*
X223390000Y-164174434D01*
X223390000Y-154474434D02*
X223390000Y-154974434D01*
X223390000Y-154474434D02*
X222890000Y-154474434D01*
X213190000Y-154474434D02*
X213690000Y-154474434D01*
X213190000Y-164674434D02*
X213690000Y-164674434D01*
D11*
%TO.C,Q9*%
X186389183Y-107025913D02*
X193317386Y-111025913D01*
X201315462Y-103172839D02*
X189104504Y-96122839D01*
X189104504Y-96122839D02*
X188254504Y-97595082D01*
%TO.C,Q1*%
X232838087Y-86673183D02*
X228838087Y-93601386D01*
X236691161Y-101599462D02*
X243741161Y-89388504D01*
X243741161Y-89388504D02*
X242268918Y-88538504D01*
%TO.C,Q2*%
X247790383Y-97672087D02*
X240862180Y-101672087D01*
X243664104Y-112525161D02*
X255875062Y-105475161D01*
X255875062Y-105475161D02*
X255025062Y-104002918D01*
%TO.C,Q3*%
X255240000Y-114673566D02*
X247240000Y-114673566D01*
X244240000Y-125473566D02*
X258340000Y-125473566D01*
X258340000Y-125473566D02*
X258340000Y-123773566D01*
%TO.C,Q4*%
X253190817Y-133122087D02*
X246262614Y-129122087D01*
X238264538Y-136975161D02*
X250475496Y-144025161D01*
X250475496Y-144025161D02*
X251325496Y-142552918D01*
%TO.C,Q5*%
X242191913Y-148074383D02*
X238191913Y-141146180D01*
X227338839Y-143948104D02*
X234388839Y-156159062D01*
X234388839Y-156159062D02*
X235861082Y-155309062D01*
%TO.C,Q6*%
X206741913Y-153474817D02*
X210741913Y-146546614D01*
X202888839Y-138548538D02*
X195838839Y-150759496D01*
X195838839Y-150759496D02*
X197311082Y-151609496D01*
%TO.C,Q7*%
X191789617Y-142475913D02*
X198717820Y-138475913D01*
X195915896Y-127622839D02*
X183704938Y-134672839D01*
X183704938Y-134672839D02*
X184554938Y-136145082D01*
%TO.C,Q8*%
X184340000Y-125474434D02*
X192340000Y-125474434D01*
X195340000Y-114674434D02*
X181240000Y-114674434D01*
X181240000Y-114674434D02*
X181240000Y-116374434D01*
%TO.C,C4*%
X256872433Y-130103876D02*
X256824814Y-130151495D01*
X256681957Y-130199114D01*
X256586719Y-130199114D01*
X256443861Y-130151495D01*
X256348623Y-130056257D01*
X256301004Y-129961019D01*
X256253385Y-129770543D01*
X256253385Y-129627686D01*
X256301004Y-129437210D01*
X256348623Y-129341972D01*
X256443861Y-129246734D01*
X256586719Y-129199114D01*
X256681957Y-129199114D01*
X256824814Y-129246734D01*
X256872433Y-129294353D01*
X257729576Y-129532448D02*
X257729576Y-130199114D01*
X257491480Y-129151495D02*
X257253385Y-129865781D01*
X257872433Y-129865781D01*
%TO.C,C3*%
X182399633Y-110746576D02*
X182352014Y-110794195D01*
X182209157Y-110841814D01*
X182113919Y-110841814D01*
X181971061Y-110794195D01*
X181875823Y-110698957D01*
X181828204Y-110603719D01*
X181780585Y-110413243D01*
X181780585Y-110270386D01*
X181828204Y-110079910D01*
X181875823Y-109984672D01*
X181971061Y-109889434D01*
X182113919Y-109841814D01*
X182209157Y-109841814D01*
X182352014Y-109889434D01*
X182399633Y-109937053D01*
X182732966Y-109841814D02*
X183352014Y-109841814D01*
X183018680Y-110222767D01*
X183161538Y-110222767D01*
X183256776Y-110270386D01*
X183304395Y-110318005D01*
X183352014Y-110413243D01*
X183352014Y-110651338D01*
X183304395Y-110746576D01*
X183256776Y-110794195D01*
X183161538Y-110841814D01*
X182875823Y-110841814D01*
X182780585Y-110794195D01*
X182732966Y-110746576D01*
%TO.C,U4*%
X185017495Y-110376714D02*
X185017495Y-111186238D01*
X185065114Y-111281476D01*
X185112733Y-111329095D01*
X185207971Y-111376714D01*
X185398447Y-111376714D01*
X185493685Y-111329095D01*
X185541304Y-111281476D01*
X185588923Y-111186238D01*
X185588923Y-110376714D01*
X186493685Y-110710048D02*
X186493685Y-111376714D01*
X186255590Y-110329095D02*
X186017495Y-111043381D01*
X186636542Y-111043381D01*
%TO.C,U3*%
X253038695Y-128689614D02*
X253038695Y-129499138D01*
X253086314Y-129594376D01*
X253133933Y-129641995D01*
X253229171Y-129689614D01*
X253419647Y-129689614D01*
X253514885Y-129641995D01*
X253562504Y-129594376D01*
X253610123Y-129499138D01*
X253610123Y-128689614D01*
X253991076Y-128689614D02*
X254610123Y-128689614D01*
X254276790Y-129070567D01*
X254419647Y-129070567D01*
X254514885Y-129118186D01*
X254562504Y-129165805D01*
X254610123Y-129261043D01*
X254610123Y-129499138D01*
X254562504Y-129594376D01*
X254514885Y-129641995D01*
X254419647Y-129689614D01*
X254133933Y-129689614D01*
X254038695Y-129641995D01*
X253991076Y-129594376D01*
%TO.C,J20*%
X202851476Y-174390814D02*
X202851476Y-175105100D01*
X202803857Y-175247957D01*
X202708619Y-175343195D01*
X202565761Y-175390814D01*
X202470523Y-175390814D01*
X203280047Y-174486053D02*
X203327666Y-174438434D01*
X203422904Y-174390814D01*
X203661000Y-174390814D01*
X203756238Y-174438434D01*
X203803857Y-174486053D01*
X203851476Y-174581291D01*
X203851476Y-174676529D01*
X203803857Y-174819386D01*
X203232428Y-175390814D01*
X203851476Y-175390814D01*
X204470523Y-174390814D02*
X204565761Y-174390814D01*
X204661000Y-174438434D01*
X204708619Y-174486053D01*
X204756238Y-174581291D01*
X204803857Y-174771767D01*
X204803857Y-175009862D01*
X204756238Y-175200338D01*
X204708619Y-175295576D01*
X204661000Y-175343195D01*
X204565761Y-175390814D01*
X204470523Y-175390814D01*
X204375285Y-175343195D01*
X204327666Y-175295576D01*
X204280047Y-175200338D01*
X204232428Y-175009862D01*
X204232428Y-174771767D01*
X204280047Y-174581291D01*
X204327666Y-174486053D01*
X204375285Y-174438434D01*
X204470523Y-174390814D01*
X207074571Y-168187576D02*
X208217428Y-168187576D01*
X207646000Y-168759005D02*
X207646000Y-167616148D01*
X218074571Y-168187576D02*
X219217428Y-168187576D01*
%TO.C,J5*%
X196237106Y-143201973D02*
X195732030Y-143707049D01*
X195597343Y-143774393D01*
X195462656Y-143774393D01*
X195327969Y-143707049D01*
X195260626Y-143639706D01*
X196910541Y-143875408D02*
X196573824Y-143538691D01*
X196203435Y-143841736D01*
X196270778Y-143841736D01*
X196371793Y-143875408D01*
X196540152Y-144043767D01*
X196573824Y-144144782D01*
X196573824Y-144212126D01*
X196540152Y-144313141D01*
X196371793Y-144481500D01*
X196270778Y-144515171D01*
X196203435Y-144515171D01*
X196102419Y-144481500D01*
X195934061Y-144313141D01*
X195900389Y-144212126D01*
X195900389Y-144144782D01*
%TO.C,J4*%
X246726666Y-142696814D02*
X246726666Y-143411100D01*
X246679047Y-143553957D01*
X246583809Y-143649195D01*
X246440952Y-143696814D01*
X246345714Y-143696814D01*
X247631428Y-143030148D02*
X247631428Y-143696814D01*
X247393333Y-142649195D02*
X247155238Y-143363481D01*
X247774285Y-143363481D01*
%TO.C,J3*%
X243895938Y-95451039D02*
X243390862Y-95956115D01*
X243256175Y-96023459D01*
X243121488Y-96023459D01*
X242986801Y-95956115D01*
X242919458Y-95888772D01*
X244165312Y-95720413D02*
X244603045Y-96158146D01*
X244097969Y-96191818D01*
X244198984Y-96292833D01*
X244232656Y-96393848D01*
X244232656Y-96461192D01*
X244198984Y-96562207D01*
X244030625Y-96730566D01*
X243929610Y-96764237D01*
X243862267Y-96764237D01*
X243761251Y-96730566D01*
X243559221Y-96528535D01*
X243525549Y-96427520D01*
X243525549Y-96360176D01*
%TO.C,J6*%
X195166605Y-95968495D02*
X195671681Y-96473571D01*
X195739025Y-96608258D01*
X195739025Y-96742945D01*
X195671681Y-96877632D01*
X195604338Y-96944975D01*
X195806368Y-95328731D02*
X195671681Y-95463418D01*
X195638010Y-95564434D01*
X195638010Y-95631777D01*
X195671681Y-95800136D01*
X195772697Y-95968495D01*
X196042071Y-96237869D01*
X196143086Y-96271540D01*
X196210429Y-96271540D01*
X196311445Y-96237869D01*
X196446132Y-96103182D01*
X196479803Y-96002166D01*
X196479803Y-95934823D01*
X196446132Y-95833808D01*
X196277773Y-95665449D01*
X196176758Y-95631777D01*
X196109414Y-95631777D01*
X196008399Y-95665449D01*
X195873712Y-95800136D01*
X195840040Y-95901151D01*
X195840040Y-95968495D01*
X195873712Y-96069510D01*
%TO.C,J1*%
X220091666Y-71776814D02*
X220091666Y-72491100D01*
X220044047Y-72633957D01*
X219948809Y-72729195D01*
X219805952Y-72776814D01*
X219710714Y-72776814D01*
X221091666Y-72776814D02*
X220520238Y-72776814D01*
X220805952Y-72776814D02*
X220805952Y-71776814D01*
X220710714Y-71919672D01*
X220615476Y-72014910D01*
X220520238Y-72062529D01*
%TO.C,J2*%
X219075666Y-171776814D02*
X219075666Y-172491100D01*
X219028047Y-172633957D01*
X218932809Y-172729195D01*
X218789952Y-172776814D01*
X218694714Y-172776814D01*
X219504238Y-171872053D02*
X219551857Y-171824434D01*
X219647095Y-171776814D01*
X219885190Y-171776814D01*
X219980428Y-171824434D01*
X220028047Y-171872053D01*
X220075666Y-171967291D01*
X220075666Y-172062529D01*
X220028047Y-172205386D01*
X219456619Y-172776814D01*
X220075666Y-172776814D01*
%TO.C,J22*%
X221393476Y-147974814D02*
X221393476Y-148689100D01*
X221345857Y-148831957D01*
X221250619Y-148927195D01*
X221107761Y-148974814D01*
X221012523Y-148974814D01*
X221822047Y-148070053D02*
X221869666Y-148022434D01*
X221964904Y-147974814D01*
X222203000Y-147974814D01*
X222298238Y-148022434D01*
X222345857Y-148070053D01*
X222393476Y-148165291D01*
X222393476Y-148260529D01*
X222345857Y-148403386D01*
X221774428Y-148974814D01*
X222393476Y-148974814D01*
X222774428Y-148070053D02*
X222822047Y-148022434D01*
X222917285Y-147974814D01*
X223155380Y-147974814D01*
X223250619Y-148022434D01*
X223298238Y-148070053D01*
X223345857Y-148165291D01*
X223345857Y-148260529D01*
X223298238Y-148403386D01*
X222726809Y-148974814D01*
X223345857Y-148974814D01*
%TO.C,J21*%
X212757476Y-80944814D02*
X212757476Y-81659100D01*
X212709857Y-81801957D01*
X212614619Y-81897195D01*
X212471761Y-81944814D01*
X212376523Y-81944814D01*
X213186047Y-81040053D02*
X213233666Y-80992434D01*
X213328904Y-80944814D01*
X213567000Y-80944814D01*
X213662238Y-80992434D01*
X213709857Y-81040053D01*
X213757476Y-81135291D01*
X213757476Y-81230529D01*
X213709857Y-81373386D01*
X213138428Y-81944814D01*
X213757476Y-81944814D01*
X214709857Y-81944814D02*
X214138428Y-81944814D01*
X214424142Y-81944814D02*
X214424142Y-80944814D01*
X214328904Y-81087672D01*
X214233666Y-81182910D01*
X214138428Y-81230529D01*
%TO.C,J19*%
X235871476Y-67202814D02*
X235871476Y-67917100D01*
X235823857Y-68059957D01*
X235728619Y-68155195D01*
X235585761Y-68202814D01*
X235490523Y-68202814D01*
X236871476Y-68202814D02*
X236300047Y-68202814D01*
X236585761Y-68202814D02*
X236585761Y-67202814D01*
X236490523Y-67345672D01*
X236395285Y-67440910D01*
X236300047Y-67488529D01*
X237347666Y-68202814D02*
X237538142Y-68202814D01*
X237633380Y-68155195D01*
X237681000Y-68107576D01*
X237776238Y-67964719D01*
X237823857Y-67774243D01*
X237823857Y-67393291D01*
X237776238Y-67298053D01*
X237728619Y-67250434D01*
X237633380Y-67202814D01*
X237442904Y-67202814D01*
X237347666Y-67250434D01*
X237300047Y-67298053D01*
X237252428Y-67393291D01*
X237252428Y-67631386D01*
X237300047Y-67726624D01*
X237347666Y-67774243D01*
X237442904Y-67821862D01*
X237633380Y-67821862D01*
X237728619Y-67774243D01*
X237776238Y-67726624D01*
X237823857Y-67631386D01*
X231790571Y-72429576D02*
X232933428Y-72429576D01*
X232362000Y-73001005D02*
X232362000Y-71858148D01*
X220790571Y-72429576D02*
X221933428Y-72429576D01*
%TO.C,J8*%
X213206666Y-78026814D02*
X213206666Y-78741100D01*
X213159047Y-78883957D01*
X213063809Y-78979195D01*
X212920952Y-79026814D01*
X212825714Y-79026814D01*
X213825714Y-78455386D02*
X213730476Y-78407767D01*
X213682857Y-78360148D01*
X213635238Y-78264910D01*
X213635238Y-78217291D01*
X213682857Y-78122053D01*
X213730476Y-78074434D01*
X213825714Y-78026814D01*
X214016190Y-78026814D01*
X214111428Y-78074434D01*
X214159047Y-78122053D01*
X214206666Y-78217291D01*
X214206666Y-78264910D01*
X214159047Y-78360148D01*
X214111428Y-78407767D01*
X214016190Y-78455386D01*
X213825714Y-78455386D01*
X213730476Y-78503005D01*
X213682857Y-78550624D01*
X213635238Y-78645862D01*
X213635238Y-78836338D01*
X213682857Y-78931576D01*
X213730476Y-78979195D01*
X213825714Y-79026814D01*
X214016190Y-79026814D01*
X214111428Y-78979195D01*
X214159047Y-78931576D01*
X214206666Y-78836338D01*
X214206666Y-78645862D01*
X214159047Y-78550624D01*
X214111428Y-78503005D01*
X214016190Y-78455386D01*
%TO.C,J7*%
X225956666Y-166526814D02*
X225956666Y-167241100D01*
X225909047Y-167383957D01*
X225813809Y-167479195D01*
X225670952Y-167526814D01*
X225575714Y-167526814D01*
X226337619Y-166526814D02*
X227004285Y-166526814D01*
X226575714Y-167526814D01*
%TO.C,J11*%
X260342380Y-120883957D02*
X261056666Y-120883957D01*
X261199523Y-120931576D01*
X261294761Y-121026814D01*
X261342380Y-121169672D01*
X261342380Y-121264910D01*
X261342380Y-119883957D02*
X261342380Y-120455386D01*
X261342380Y-120169672D02*
X260342380Y-120169672D01*
X260485238Y-120264910D01*
X260580476Y-120360148D01*
X260628095Y-120455386D01*
X261342380Y-118931576D02*
X261342380Y-119503005D01*
X261342380Y-119217291D02*
X260342380Y-119217291D01*
X260485238Y-119312529D01*
X260580476Y-119407767D01*
X260628095Y-119503005D01*
%TO.C,J12*%
X254504413Y-141051634D02*
X255123002Y-141408777D01*
X255222911Y-141521445D01*
X255257770Y-141651543D01*
X255227581Y-141799070D01*
X255179962Y-141881549D01*
X255870438Y-140685609D02*
X255584724Y-141180480D01*
X255727581Y-140933045D02*
X254861555Y-140433045D01*
X254937654Y-140586952D01*
X254972514Y-140717049D01*
X254966134Y-140823338D01*
X255277367Y-139903313D02*
X255259938Y-139838265D01*
X255266317Y-139731976D01*
X255385365Y-139525780D01*
X255474223Y-139467111D01*
X255539272Y-139449681D01*
X255645560Y-139456061D01*
X255728039Y-139503680D01*
X255827947Y-139616348D01*
X256037105Y-140396934D01*
X256346628Y-139860823D01*
%TO.C,J13*%
X239364746Y-155598370D02*
X239721889Y-156216960D01*
X239752078Y-156364487D01*
X239717218Y-156494585D01*
X239617310Y-156607253D01*
X239534831Y-156654872D01*
X240730771Y-155964396D02*
X240235900Y-156250110D01*
X240483335Y-156107253D02*
X239983335Y-155241228D01*
X239972285Y-155412565D01*
X239937426Y-155542662D01*
X239878757Y-155631521D01*
X240519446Y-154931704D02*
X241055557Y-154622180D01*
X240957358Y-155118761D01*
X241081076Y-155047332D01*
X241187364Y-155040953D01*
X241252413Y-155058382D01*
X241341272Y-155117052D01*
X241460319Y-155323248D01*
X241466699Y-155429536D01*
X241449269Y-155494585D01*
X241390600Y-155583443D01*
X241143164Y-155726301D01*
X241036876Y-155732680D01*
X240971827Y-155715251D01*
%TO.C,J14*%
X198812365Y-154788413D02*
X198455222Y-155407002D01*
X198342554Y-155506911D01*
X198212456Y-155541770D01*
X198064929Y-155511581D01*
X197982450Y-155463962D01*
X199178390Y-156154438D02*
X198683519Y-155868724D01*
X198930954Y-156011581D02*
X199430954Y-155145555D01*
X199277047Y-155221654D01*
X199146950Y-155256514D01*
X199040661Y-155250134D01*
X200254031Y-156005659D02*
X199920698Y-156583009D01*
X200238311Y-155556697D02*
X199674971Y-156056239D01*
X200211082Y-156365763D01*
%TO.C,J15*%
X184265629Y-139648746D02*
X183647039Y-140005889D01*
X183499512Y-140036078D01*
X183369414Y-140001218D01*
X183256746Y-139901310D01*
X183209127Y-139818831D01*
X183899603Y-141014771D02*
X183613889Y-140519900D01*
X183756746Y-140767335D02*
X184622771Y-140267335D01*
X184451434Y-140256285D01*
X184321337Y-140221426D01*
X184232478Y-140162757D01*
X185218010Y-141298318D02*
X184979914Y-140885925D01*
X184543712Y-141082781D01*
X184608761Y-141100211D01*
X184697619Y-141158880D01*
X184816667Y-141365076D01*
X184823046Y-141471364D01*
X184805617Y-141536413D01*
X184746947Y-141625272D01*
X184540751Y-141744319D01*
X184434463Y-141750699D01*
X184369414Y-141733269D01*
X184280556Y-141674600D01*
X184161508Y-141468404D01*
X184155128Y-141362115D01*
X184172558Y-141297067D01*
%TO.C,J16*%
X178142380Y-120883089D02*
X178856666Y-120883089D01*
X178999523Y-120930708D01*
X179094761Y-121025946D01*
X179142380Y-121168804D01*
X179142380Y-121264042D01*
X179142380Y-119883089D02*
X179142380Y-120454518D01*
X179142380Y-120168804D02*
X178142380Y-120168804D01*
X178285238Y-120264042D01*
X178380476Y-120359280D01*
X178428095Y-120454518D01*
X178142380Y-119025946D02*
X178142380Y-119216423D01*
X178190000Y-119311661D01*
X178237619Y-119359280D01*
X178380476Y-119454518D01*
X178570952Y-119502137D01*
X178951904Y-119502137D01*
X179047142Y-119454518D01*
X179094761Y-119406899D01*
X179142380Y-119311661D01*
X179142380Y-119121185D01*
X179094761Y-119025946D01*
X179047142Y-118978327D01*
X178951904Y-118930708D01*
X178713809Y-118930708D01*
X178618571Y-118978327D01*
X178570952Y-119025946D01*
X178523333Y-119121185D01*
X178523333Y-119311661D01*
X178570952Y-119406899D01*
X178618571Y-119454518D01*
X178713809Y-119502137D01*
%TO.C,J17*%
X183317559Y-99950882D02*
X183936148Y-100308025D01*
X184036057Y-100420693D01*
X184070916Y-100550791D01*
X184040727Y-100698318D01*
X183993108Y-100780797D01*
X184683584Y-99584857D02*
X184397870Y-100079728D01*
X184540727Y-99832293D02*
X183674701Y-99332293D01*
X183750800Y-99486200D01*
X183785660Y-99616297D01*
X183779280Y-99722586D01*
X183984225Y-98796182D02*
X184317559Y-98218831D01*
X184969298Y-99089985D01*
%TO.C,J18*%
X198265498Y-84410648D02*
X198622641Y-85029238D01*
X198652830Y-85176765D01*
X198617970Y-85306863D01*
X198518062Y-85419531D01*
X198435583Y-85467150D01*
X199631523Y-84776674D02*
X199136652Y-85062388D01*
X199384087Y-84919531D02*
X198884087Y-84053506D01*
X198873037Y-84224843D01*
X198838178Y-84354940D01*
X198779509Y-84443799D01*
X199840681Y-83996088D02*
X199734392Y-84002468D01*
X199669344Y-83985038D01*
X199580485Y-83926369D01*
X199556676Y-83885129D01*
X199550296Y-83778841D01*
X199567726Y-83713792D01*
X199626395Y-83624934D01*
X199791352Y-83529696D01*
X199897640Y-83523316D01*
X199962689Y-83540746D01*
X200051547Y-83599415D01*
X200075357Y-83640654D01*
X200081737Y-83746943D01*
X200064307Y-83811991D01*
X200005638Y-83900850D01*
X199840681Y-83996088D01*
X199782011Y-84084946D01*
X199764582Y-84149995D01*
X199770961Y-84256283D01*
X199866200Y-84421240D01*
X199955058Y-84479909D01*
X200020107Y-84497339D01*
X200126395Y-84490960D01*
X200291352Y-84395721D01*
X200350021Y-84306863D01*
X200367451Y-84241814D01*
X200361071Y-84135526D01*
X200265833Y-83970569D01*
X200176975Y-83911900D01*
X200111926Y-83894470D01*
X200005638Y-83900850D01*
%TO.C,J9*%
X240325510Y-83839654D02*
X239968367Y-84458243D01*
X239855699Y-84558152D01*
X239725601Y-84593011D01*
X239578074Y-84562822D01*
X239495595Y-84515203D01*
X240279142Y-84967584D02*
X240444099Y-85062822D01*
X240550388Y-85069202D01*
X240615436Y-85051772D01*
X240769344Y-84975673D01*
X240905821Y-84834525D01*
X241096297Y-84504611D01*
X241102677Y-84398323D01*
X241085247Y-84333274D01*
X241026578Y-84244416D01*
X240861621Y-84149178D01*
X240755333Y-84142798D01*
X240690284Y-84160228D01*
X240601426Y-84218897D01*
X240482378Y-84425093D01*
X240475998Y-84531381D01*
X240493428Y-84596430D01*
X240552097Y-84685289D01*
X240717054Y-84780527D01*
X240823342Y-84786906D01*
X240888391Y-84769477D01*
X240977250Y-84710808D01*
%TO.C,J10*%
X255453351Y-98549498D02*
X254834761Y-98906641D01*
X254687234Y-98936830D01*
X254557136Y-98901970D01*
X254444468Y-98802062D01*
X254396849Y-98719583D01*
X255087325Y-99915523D02*
X254801611Y-99420652D01*
X254944468Y-99668087D02*
X255810493Y-99168087D01*
X255639156Y-99157037D01*
X255509059Y-99122178D01*
X255420200Y-99063509D01*
X256262874Y-99951634D02*
X256310493Y-100034113D01*
X256316873Y-100140401D01*
X256299443Y-100205450D01*
X256240774Y-100294308D01*
X256099627Y-100430785D01*
X255893430Y-100549833D01*
X255704663Y-100603832D01*
X255598375Y-100610212D01*
X255533326Y-100592782D01*
X255444468Y-100534113D01*
X255396849Y-100451634D01*
X255390469Y-100345346D01*
X255407899Y-100280297D01*
X255466568Y-100191439D01*
X255607716Y-100054961D01*
X255813912Y-99935914D01*
X256002679Y-99881915D01*
X256108967Y-99875535D01*
X256174016Y-99892965D01*
X256262874Y-99951634D01*
%TO.C,M1*%
X257980476Y-77326814D02*
X257980476Y-76326814D01*
X258313809Y-77041100D01*
X258647142Y-76326814D01*
X258647142Y-77326814D01*
X259647142Y-77326814D02*
X259075714Y-77326814D01*
X259361428Y-77326814D02*
X259361428Y-76326814D01*
X259266190Y-76469672D01*
X259170952Y-76564910D01*
X259075714Y-76612529D01*
%TO.C,M4*%
X179980476Y-77326814D02*
X179980476Y-76326814D01*
X180313809Y-77041100D01*
X180647142Y-76326814D01*
X180647142Y-77326814D01*
X181551904Y-76660148D02*
X181551904Y-77326814D01*
X181313809Y-76279195D02*
X181075714Y-76993481D01*
X181694761Y-76993481D01*
%TO.C,M2*%
X257980476Y-155326814D02*
X257980476Y-154326814D01*
X258313809Y-155041100D01*
X258647142Y-154326814D01*
X258647142Y-155326814D01*
X259075714Y-154422053D02*
X259123333Y-154374434D01*
X259218571Y-154326814D01*
X259456666Y-154326814D01*
X259551904Y-154374434D01*
X259599523Y-154422053D01*
X259647142Y-154517291D01*
X259647142Y-154612529D01*
X259599523Y-154755386D01*
X259028095Y-155326814D01*
X259647142Y-155326814D01*
%TO.C,M3*%
X179980476Y-155326814D02*
X179980476Y-154326814D01*
X180313809Y-155041100D01*
X180647142Y-154326814D01*
X180647142Y-155326814D01*
X181028095Y-154326814D02*
X181647142Y-154326814D01*
X181313809Y-154707767D01*
X181456666Y-154707767D01*
X181551904Y-154755386D01*
X181599523Y-154803005D01*
X181647142Y-154898243D01*
X181647142Y-155136338D01*
X181599523Y-155231576D01*
X181551904Y-155279195D01*
X181456666Y-155326814D01*
X181170952Y-155326814D01*
X181075714Y-155279195D01*
X181028095Y-155231576D01*
%TO.C,Q10*%
X208692316Y-89448354D02*
X208685936Y-89342066D01*
X208720796Y-89211969D01*
X208773085Y-89016822D01*
X208766706Y-88910534D01*
X208719087Y-88828055D01*
X208536700Y-88988342D02*
X208530320Y-88882054D01*
X208565179Y-88751956D01*
X208706327Y-88615479D01*
X208995002Y-88448812D01*
X209183769Y-88394814D01*
X209313867Y-88429673D01*
X209402725Y-88488342D01*
X209497963Y-88653299D01*
X209504343Y-88759588D01*
X209469483Y-88889685D01*
X209328336Y-89026163D01*
X209039660Y-89192829D01*
X208850894Y-89246828D01*
X208720796Y-89211969D01*
X208631938Y-89153299D01*
X208536700Y-88988342D01*
X209227176Y-90184282D02*
X208941461Y-89689410D01*
X209084319Y-89936846D02*
X209950344Y-89436846D01*
X209779007Y-89425796D01*
X209648909Y-89390937D01*
X209560051Y-89332268D01*
X210402725Y-90220393D02*
X210450344Y-90302872D01*
X210456724Y-90409160D01*
X210439294Y-90474209D01*
X210380625Y-90563067D01*
X210239477Y-90699544D01*
X210033281Y-90818592D01*
X209844514Y-90872591D01*
X209738226Y-90878971D01*
X209673177Y-90861541D01*
X209584319Y-90802872D01*
X209536700Y-90720393D01*
X209530320Y-90614105D01*
X209547750Y-90549056D01*
X209606419Y-90460198D01*
X209747566Y-90323720D01*
X209953763Y-90204673D01*
X210142530Y-90150674D01*
X210248818Y-90144294D01*
X210313867Y-90161724D01*
X210402725Y-90220393D01*
%TO.C,U2*%
X205282380Y-82026338D02*
X206091904Y-82026338D01*
X206187142Y-81978719D01*
X206234761Y-81931100D01*
X206282380Y-81835862D01*
X206282380Y-81645386D01*
X206234761Y-81550148D01*
X206187142Y-81502529D01*
X206091904Y-81454910D01*
X205282380Y-81454910D01*
X205377619Y-81026338D02*
X205330000Y-80978719D01*
X205282380Y-80883481D01*
X205282380Y-80645386D01*
X205330000Y-80550148D01*
X205377619Y-80502529D01*
X205472857Y-80454910D01*
X205568095Y-80454910D01*
X205710952Y-80502529D01*
X206282380Y-81073957D01*
X206282380Y-80454910D01*
%TO.C,U1*%
X233452380Y-160396338D02*
X234261904Y-160396338D01*
X234357142Y-160348719D01*
X234404761Y-160301100D01*
X234452380Y-160205862D01*
X234452380Y-160015386D01*
X234404761Y-159920148D01*
X234357142Y-159872529D01*
X234261904Y-159824910D01*
X233452380Y-159824910D01*
X234452380Y-158824910D02*
X234452380Y-159396338D01*
X234452380Y-159110624D02*
X233452380Y-159110624D01*
X233595238Y-159205862D01*
X233690476Y-159301100D01*
X233738095Y-159396338D01*
%TO.C,Q9*%
X195278694Y-99338349D02*
X195220025Y-99249491D01*
X195185166Y-99119393D01*
X195132876Y-98924247D01*
X195074207Y-98835389D01*
X194991729Y-98787770D01*
X194913920Y-99017776D02*
X194855251Y-98928917D01*
X194820392Y-98798820D01*
X194874391Y-98610053D01*
X195041057Y-98321378D01*
X195177535Y-98180230D01*
X195307632Y-98145370D01*
X195413920Y-98151750D01*
X195578878Y-98246988D01*
X195637547Y-98335847D01*
X195672406Y-98465944D01*
X195618407Y-98654711D01*
X195451741Y-98943386D01*
X195315263Y-99084534D01*
X195185166Y-99119393D01*
X195078878Y-99113014D01*
X194913920Y-99017776D01*
X195697467Y-99470157D02*
X195862424Y-99565395D01*
X195968713Y-99571774D01*
X196033761Y-99554345D01*
X196187669Y-99478246D01*
X196324146Y-99337098D01*
X196514622Y-99007184D01*
X196521002Y-98900895D01*
X196503572Y-98835847D01*
X196444903Y-98746988D01*
X196279946Y-98651750D01*
X196173658Y-98645370D01*
X196108609Y-98662800D01*
X196019750Y-98721469D01*
X195900703Y-98927666D01*
X195894323Y-99033954D01*
X195911753Y-99099003D01*
X195970422Y-99187861D01*
X196135379Y-99283099D01*
X196241667Y-99289479D01*
X196306716Y-99272049D01*
X196395574Y-99213380D01*
%TO.C,Q1*%
X241378915Y-96275271D02*
X241290057Y-96333940D01*
X241159959Y-96368799D01*
X240964813Y-96421089D01*
X240875955Y-96479758D01*
X240828336Y-96562236D01*
X241058342Y-96640045D02*
X240969483Y-96698714D01*
X240839386Y-96733573D01*
X240650619Y-96679574D01*
X240361944Y-96512908D01*
X240220796Y-96376430D01*
X240185936Y-96246333D01*
X240192316Y-96140045D01*
X240287554Y-95975087D01*
X240376413Y-95916418D01*
X240506510Y-95881559D01*
X240695277Y-95935558D01*
X240983952Y-96102224D01*
X241125100Y-96238702D01*
X241159959Y-96368799D01*
X241153580Y-96475087D01*
X241058342Y-96640045D01*
X241748818Y-95444105D02*
X241463104Y-95938976D01*
X241605961Y-95691541D02*
X240739935Y-95191541D01*
X240816034Y-95345448D01*
X240850894Y-95475545D01*
X240844514Y-95581834D01*
%TO.C,Q2*%
X250385913Y-110258154D02*
X250279625Y-110264533D01*
X250149528Y-110229674D01*
X249954381Y-110177384D01*
X249848093Y-110183764D01*
X249765614Y-110231383D01*
X249925901Y-110413770D02*
X249819613Y-110420150D01*
X249689516Y-110385290D01*
X249553038Y-110244143D01*
X249386371Y-109955468D01*
X249332373Y-109766701D01*
X249367232Y-109636603D01*
X249425901Y-109547745D01*
X249590859Y-109452507D01*
X249697147Y-109446127D01*
X249827244Y-109480987D01*
X249963722Y-109622134D01*
X250130388Y-109910809D01*
X250184387Y-110099576D01*
X250149528Y-110229674D01*
X250090859Y-110318532D01*
X249925901Y-110413770D01*
X250174589Y-109225461D02*
X250192018Y-109160413D01*
X250250687Y-109071554D01*
X250456884Y-108952507D01*
X250563172Y-108946127D01*
X250628221Y-108963557D01*
X250717079Y-109022226D01*
X250764698Y-109104704D01*
X250794888Y-109252232D01*
X250585730Y-110032818D01*
X251121841Y-109723294D01*
%TO.C,Q3*%
X251194761Y-126871185D02*
X251099523Y-126823566D01*
X251004285Y-126728327D01*
X250861428Y-126585470D01*
X250766190Y-126537851D01*
X250670952Y-126537851D01*
X250718571Y-126775946D02*
X250623333Y-126728327D01*
X250528095Y-126633089D01*
X250480476Y-126442613D01*
X250480476Y-126109280D01*
X250528095Y-125918804D01*
X250623333Y-125823566D01*
X250718571Y-125775946D01*
X250909047Y-125775946D01*
X251004285Y-125823566D01*
X251099523Y-125918804D01*
X251147142Y-126109280D01*
X251147142Y-126442613D01*
X251099523Y-126633089D01*
X251004285Y-126728327D01*
X250909047Y-126775946D01*
X250718571Y-126775946D01*
X251480476Y-125775946D02*
X252099523Y-125775946D01*
X251766190Y-126156899D01*
X251909047Y-126156899D01*
X252004285Y-126204518D01*
X252051904Y-126252137D01*
X252099523Y-126347375D01*
X252099523Y-126585470D01*
X252051904Y-126680708D01*
X252004285Y-126728327D01*
X251909047Y-126775946D01*
X251623333Y-126775946D01*
X251528095Y-126728327D01*
X251480476Y-126680708D01*
%TO.C,Q4*%
X243588728Y-141662915D02*
X243530059Y-141574057D01*
X243495200Y-141443959D01*
X243442910Y-141248813D01*
X243384241Y-141159955D01*
X243301763Y-141112336D01*
X243223954Y-141342342D02*
X243165285Y-141253483D01*
X243130426Y-141123386D01*
X243184425Y-140934619D01*
X243351091Y-140645944D01*
X243487569Y-140504796D01*
X243617666Y-140469936D01*
X243723954Y-140476316D01*
X243888912Y-140571554D01*
X243947581Y-140660413D01*
X243982440Y-140790510D01*
X243928441Y-140979277D01*
X243761775Y-141267952D01*
X243625297Y-141409100D01*
X243495200Y-141443959D01*
X243388912Y-141437580D01*
X243223954Y-141342342D01*
X244670749Y-141407848D02*
X244337416Y-141985199D01*
X244655029Y-140958886D02*
X244091689Y-141458428D01*
X244627800Y-141767952D01*
%TO.C,Q5*%
X227777128Y-147570764D02*
X227770749Y-147464476D01*
X227805608Y-147334379D01*
X227857898Y-147139232D01*
X227851518Y-147032944D01*
X227803899Y-146950465D01*
X227621512Y-147110752D02*
X227615132Y-147004464D01*
X227649992Y-146874367D01*
X227791139Y-146737889D01*
X228079814Y-146571222D01*
X228268581Y-146517224D01*
X228398679Y-146552083D01*
X228487537Y-146610752D01*
X228582775Y-146775710D01*
X228589155Y-146881998D01*
X228554295Y-147012095D01*
X228413148Y-147148573D01*
X228124473Y-147315239D01*
X227935706Y-147369238D01*
X227805608Y-147334379D01*
X227716750Y-147275710D01*
X227621512Y-147110752D01*
X229154204Y-147765453D02*
X228916109Y-147353060D01*
X228479906Y-147549916D01*
X228544955Y-147567346D01*
X228633813Y-147626015D01*
X228752861Y-147832211D01*
X228759241Y-147938499D01*
X228741811Y-148003548D01*
X228683142Y-148092406D01*
X228476945Y-148211454D01*
X228370657Y-148217834D01*
X228305608Y-148200404D01*
X228216750Y-148141735D01*
X228097702Y-147935538D01*
X228091323Y-147829250D01*
X228108752Y-147764201D01*
%TO.C,Q6*%
X199054349Y-144585305D02*
X198965491Y-144643974D01*
X198835393Y-144678833D01*
X198640247Y-144731123D01*
X198551389Y-144789792D01*
X198503770Y-144872270D01*
X198733776Y-144950079D02*
X198644917Y-145008748D01*
X198514820Y-145043607D01*
X198326053Y-144989608D01*
X198037378Y-144822942D01*
X197896230Y-144686464D01*
X197861370Y-144556367D01*
X197867750Y-144450079D01*
X197962988Y-144285121D01*
X198051847Y-144226452D01*
X198181944Y-144191593D01*
X198370711Y-144245592D01*
X198659386Y-144412258D01*
X198800534Y-144548736D01*
X198835393Y-144678833D01*
X198829014Y-144785121D01*
X198733776Y-144950079D01*
X198510607Y-143336617D02*
X198415369Y-143501575D01*
X198408990Y-143607863D01*
X198426419Y-143672912D01*
X198502518Y-143826819D01*
X198643666Y-143963296D01*
X198973580Y-144153772D01*
X199079868Y-144160152D01*
X199144917Y-144142722D01*
X199233776Y-144084053D01*
X199329014Y-143919096D01*
X199335393Y-143812808D01*
X199317964Y-143747759D01*
X199259295Y-143658901D01*
X199053098Y-143539853D01*
X198946810Y-143533473D01*
X198881761Y-143550903D01*
X198792903Y-143609572D01*
X198697665Y-143774529D01*
X198691285Y-143880818D01*
X198708715Y-143945866D01*
X198767384Y-144034725D01*
%TO.C,Q7*%
X189576747Y-130933588D02*
X189470459Y-130939967D01*
X189340362Y-130905108D01*
X189145215Y-130852818D01*
X189038927Y-130859198D01*
X188956448Y-130906817D01*
X189116735Y-131089204D02*
X189010447Y-131095584D01*
X188880350Y-131060724D01*
X188743872Y-130919577D01*
X188577205Y-130630902D01*
X188523207Y-130442135D01*
X188558066Y-130312037D01*
X188616735Y-130223179D01*
X188781693Y-130127941D01*
X188887981Y-130121561D01*
X189018078Y-130156421D01*
X189154556Y-130297568D01*
X189321222Y-130586243D01*
X189375221Y-130775010D01*
X189340362Y-130905108D01*
X189281693Y-130993966D01*
X189116735Y-131089204D01*
X189276564Y-129842226D02*
X189853914Y-129508893D01*
X189982761Y-130589204D01*
%TO.C,Q8*%
X188194761Y-114372053D02*
X188099523Y-114324434D01*
X188004285Y-114229195D01*
X187861428Y-114086338D01*
X187766190Y-114038719D01*
X187670952Y-114038719D01*
X187718571Y-114276814D02*
X187623333Y-114229195D01*
X187528095Y-114133957D01*
X187480476Y-113943481D01*
X187480476Y-113610148D01*
X187528095Y-113419672D01*
X187623333Y-113324434D01*
X187718571Y-113276814D01*
X187909047Y-113276814D01*
X188004285Y-113324434D01*
X188099523Y-113419672D01*
X188147142Y-113610148D01*
X188147142Y-113943481D01*
X188099523Y-114133957D01*
X188004285Y-114229195D01*
X187909047Y-114276814D01*
X187718571Y-114276814D01*
X188718571Y-113705386D02*
X188623333Y-113657767D01*
X188575714Y-113610148D01*
X188528095Y-113514910D01*
X188528095Y-113467291D01*
X188575714Y-113372053D01*
X188623333Y-113324434D01*
X188718571Y-113276814D01*
X188909047Y-113276814D01*
X189004285Y-113324434D01*
X189051904Y-113372053D01*
X189099523Y-113467291D01*
X189099523Y-113514910D01*
X189051904Y-113610148D01*
X189004285Y-113657767D01*
X188909047Y-113705386D01*
X188718571Y-113705386D01*
X188623333Y-113753005D01*
X188575714Y-113800624D01*
X188528095Y-113895862D01*
X188528095Y-114086338D01*
X188575714Y-114181576D01*
X188623333Y-114229195D01*
X188718571Y-114276814D01*
X188909047Y-114276814D01*
X189004285Y-114229195D01*
X189051904Y-114181576D01*
X189099523Y-114086338D01*
X189099523Y-113895862D01*
X189051904Y-113800624D01*
X189004285Y-113753005D01*
X188909047Y-113705386D01*
%TD*%
%LPC*%
%TO.C,C4*%
G36*
G01*
X256714100Y-128066734D02*
X256714100Y-128566734D01*
G75*
G02*
X256489100Y-128791734I-225000J0D01*
G01*
X256039100Y-128791734D01*
G75*
G02*
X255814100Y-128566734I0J225000D01*
G01*
X255814100Y-128066734D01*
G75*
G02*
X256039100Y-127841734I225000J0D01*
G01*
X256489100Y-127841734D01*
G75*
G02*
X256714100Y-128066734I0J-225000D01*
G01*
G37*
G36*
G01*
X258264100Y-128066734D02*
X258264100Y-128566734D01*
G75*
G02*
X258039100Y-128791734I-225000J0D01*
G01*
X257589100Y-128791734D01*
G75*
G02*
X257364100Y-128566734I0J225000D01*
G01*
X257364100Y-128066734D01*
G75*
G02*
X257589100Y-127841734I225000J0D01*
G01*
X258039100Y-127841734D01*
G75*
G02*
X258264100Y-128066734I0J-225000D01*
G01*
G37*
%TD*%
%TO.C,C3*%
G36*
G01*
X182891300Y-112069434D02*
X182891300Y-111569434D01*
G75*
G02*
X183116300Y-111344434I225000J0D01*
G01*
X183566300Y-111344434D01*
G75*
G02*
X183791300Y-111569434I0J-225000D01*
G01*
X183791300Y-112069434D01*
G75*
G02*
X183566300Y-112294434I-225000J0D01*
G01*
X183116300Y-112294434D01*
G75*
G02*
X182891300Y-112069434I0J225000D01*
G01*
G37*
G36*
G01*
X181341300Y-112069434D02*
X181341300Y-111569434D01*
G75*
G02*
X181566300Y-111344434I225000J0D01*
G01*
X182016300Y-111344434D01*
G75*
G02*
X182241300Y-111569434I0J-225000D01*
G01*
X182241300Y-112069434D01*
G75*
G02*
X182016300Y-112294434I-225000J0D01*
G01*
X181566300Y-112294434D01*
G75*
G02*
X181341300Y-112069434I0J225000D01*
G01*
G37*
%TD*%
D13*
%TO.C,U4*%
X186729400Y-112274334D03*
X186729400Y-113574334D03*
X184829400Y-112924334D03*
X184829400Y-113574334D03*
X184829400Y-112274334D03*
%TD*%
%TO.C,U3*%
X252850600Y-127887234D03*
X252850600Y-126587234D03*
X254750600Y-127237234D03*
X254750600Y-126587234D03*
X254750600Y-127887234D03*
%TD*%
D14*
%TO.C,J20*%
X218646000Y-173080434D03*
X207646000Y-173080434D03*
D15*
X215646000Y-168080434D03*
D16*
X210646000Y-168080434D03*
%TD*%
D12*
%TO.C,J5*%
G36*
X192337918Y-144574434D02*
G01*
X193540000Y-143372352D01*
X194742082Y-144574434D01*
X193540000Y-145776516D01*
X192337918Y-144574434D01*
G37*
G36*
G01*
X194735010Y-145769444D02*
X194735010Y-145769444D01*
G75*
G02*
X195937092Y-145769444I601041J-601041D01*
G01*
X195937092Y-145769444D01*
G75*
G02*
X195937092Y-146971526I-601041J-601041D01*
G01*
X195937092Y-146971526D01*
G75*
G02*
X194735010Y-146971526I-601041J601041D01*
G01*
X194735010Y-146971526D01*
G75*
G02*
X194735010Y-145769444I601041J601041D01*
G01*
G37*
G36*
G01*
X191142908Y-145769444D02*
X191142908Y-145769444D01*
G75*
G02*
X192344990Y-145769444I601041J-601041D01*
G01*
X192344990Y-145769444D01*
G75*
G02*
X192344990Y-146971526I-601041J-601041D01*
G01*
X192344990Y-146971526D01*
G75*
G02*
X191142908Y-146971526I-601041J601041D01*
G01*
X191142908Y-146971526D01*
G75*
G02*
X191142908Y-145769444I601041J601041D01*
G01*
G37*
G36*
G01*
X192938959Y-147565495D02*
X192938959Y-147565495D01*
G75*
G02*
X194141041Y-147565495I601041J-601041D01*
G01*
X194141041Y-147565495D01*
G75*
G02*
X194141041Y-148767577I-601041J-601041D01*
G01*
X194141041Y-148767577D01*
G75*
G02*
X192938959Y-148767577I-601041J601041D01*
G01*
X192938959Y-148767577D01*
G75*
G02*
X192938959Y-147565495I601041J601041D01*
G01*
G37*
G36*
G01*
X189346857Y-147565495D02*
X189346857Y-147565495D01*
G75*
G02*
X190548939Y-147565495I601041J-601041D01*
G01*
X190548939Y-147565495D01*
G75*
G02*
X190548939Y-148767577I-601041J-601041D01*
G01*
X190548939Y-148767577D01*
G75*
G02*
X189346857Y-148767577I-601041J601041D01*
G01*
X189346857Y-148767577D01*
G75*
G02*
X189346857Y-147565495I601041J601041D01*
G01*
G37*
G36*
G01*
X191142908Y-149361547D02*
X191142908Y-149361547D01*
G75*
G02*
X192344990Y-149361547I601041J-601041D01*
G01*
X192344990Y-149361547D01*
G75*
G02*
X192344990Y-150563629I-601041J-601041D01*
G01*
X192344990Y-150563629D01*
G75*
G02*
X191142908Y-150563629I-601041J601041D01*
G01*
X191142908Y-150563629D01*
G75*
G02*
X191142908Y-149361547I601041J601041D01*
G01*
G37*
%TD*%
D17*
%TO.C,J4*%
X245790000Y-145574434D03*
D18*
X248330000Y-145574434D03*
X245790000Y-148114434D03*
X248330000Y-148114434D03*
X245790000Y-150654434D03*
X248330000Y-150654434D03*
%TD*%
D12*
%TO.C,J3*%
G36*
X247492082Y-95324434D02*
G01*
X246290000Y-96526516D01*
X245087918Y-95324434D01*
X246290000Y-94122352D01*
X247492082Y-95324434D01*
G37*
G36*
G01*
X245094990Y-94129424D02*
X245094990Y-94129424D01*
G75*
G02*
X243892908Y-94129424I-601041J601041D01*
G01*
X243892908Y-94129424D01*
G75*
G02*
X243892908Y-92927342I601041J601041D01*
G01*
X243892908Y-92927342D01*
G75*
G02*
X245094990Y-92927342I601041J-601041D01*
G01*
X245094990Y-92927342D01*
G75*
G02*
X245094990Y-94129424I-601041J-601041D01*
G01*
G37*
G36*
G01*
X248687092Y-94129424D02*
X248687092Y-94129424D01*
G75*
G02*
X247485010Y-94129424I-601041J601041D01*
G01*
X247485010Y-94129424D01*
G75*
G02*
X247485010Y-92927342I601041J601041D01*
G01*
X247485010Y-92927342D01*
G75*
G02*
X248687092Y-92927342I601041J-601041D01*
G01*
X248687092Y-92927342D01*
G75*
G02*
X248687092Y-94129424I-601041J-601041D01*
G01*
G37*
G36*
G01*
X246891041Y-92333373D02*
X246891041Y-92333373D01*
G75*
G02*
X245688959Y-92333373I-601041J601041D01*
G01*
X245688959Y-92333373D01*
G75*
G02*
X245688959Y-91131291I601041J601041D01*
G01*
X245688959Y-91131291D01*
G75*
G02*
X246891041Y-91131291I601041J-601041D01*
G01*
X246891041Y-91131291D01*
G75*
G02*
X246891041Y-92333373I-601041J-601041D01*
G01*
G37*
G36*
G01*
X250483143Y-92333373D02*
X250483143Y-92333373D01*
G75*
G02*
X249281061Y-92333373I-601041J601041D01*
G01*
X249281061Y-92333373D01*
G75*
G02*
X249281061Y-91131291I601041J601041D01*
G01*
X249281061Y-91131291D01*
G75*
G02*
X250483143Y-91131291I601041J-601041D01*
G01*
X250483143Y-91131291D01*
G75*
G02*
X250483143Y-92333373I-601041J-601041D01*
G01*
G37*
G36*
G01*
X248687092Y-90537321D02*
X248687092Y-90537321D01*
G75*
G02*
X247485010Y-90537321I-601041J601041D01*
G01*
X247485010Y-90537321D01*
G75*
G02*
X247485010Y-89335239I601041J601041D01*
G01*
X247485010Y-89335239D01*
G75*
G02*
X248687092Y-89335239I601041J-601041D01*
G01*
X248687092Y-89335239D01*
G75*
G02*
X248687092Y-90537321I-601041J-601041D01*
G01*
G37*
%TD*%
%TO.C,J6*%
G36*
X195040000Y-92372352D02*
G01*
X196242082Y-93574434D01*
X195040000Y-94776516D01*
X193837918Y-93574434D01*
X195040000Y-92372352D01*
G37*
G36*
G01*
X193844990Y-94769444D02*
X193844990Y-94769444D01*
G75*
G02*
X193844990Y-95971526I-601041J-601041D01*
G01*
X193844990Y-95971526D01*
G75*
G02*
X192642908Y-95971526I-601041J601041D01*
G01*
X192642908Y-95971526D01*
G75*
G02*
X192642908Y-94769444I601041J601041D01*
G01*
X192642908Y-94769444D01*
G75*
G02*
X193844990Y-94769444I601041J-601041D01*
G01*
G37*
G36*
G01*
X193844990Y-91177342D02*
X193844990Y-91177342D01*
G75*
G02*
X193844990Y-92379424I-601041J-601041D01*
G01*
X193844990Y-92379424D01*
G75*
G02*
X192642908Y-92379424I-601041J601041D01*
G01*
X192642908Y-92379424D01*
G75*
G02*
X192642908Y-91177342I601041J601041D01*
G01*
X192642908Y-91177342D01*
G75*
G02*
X193844990Y-91177342I601041J-601041D01*
G01*
G37*
G36*
G01*
X192048939Y-92973393D02*
X192048939Y-92973393D01*
G75*
G02*
X192048939Y-94175475I-601041J-601041D01*
G01*
X192048939Y-94175475D01*
G75*
G02*
X190846857Y-94175475I-601041J601041D01*
G01*
X190846857Y-94175475D01*
G75*
G02*
X190846857Y-92973393I601041J601041D01*
G01*
X190846857Y-92973393D01*
G75*
G02*
X192048939Y-92973393I601041J-601041D01*
G01*
G37*
G36*
G01*
X192048939Y-89381291D02*
X192048939Y-89381291D01*
G75*
G02*
X192048939Y-90583373I-601041J-601041D01*
G01*
X192048939Y-90583373D01*
G75*
G02*
X190846857Y-90583373I-601041J601041D01*
G01*
X190846857Y-90583373D01*
G75*
G02*
X190846857Y-89381291I601041J601041D01*
G01*
X190846857Y-89381291D01*
G75*
G02*
X192048939Y-89381291I601041J-601041D01*
G01*
G37*
G36*
G01*
X190252887Y-91177342D02*
X190252887Y-91177342D01*
G75*
G02*
X190252887Y-92379424I-601041J-601041D01*
G01*
X190252887Y-92379424D01*
G75*
G02*
X189050805Y-92379424I-601041J601041D01*
G01*
X189050805Y-92379424D01*
G75*
G02*
X189050805Y-91177342I601041J601041D01*
G01*
X189050805Y-91177342D01*
G75*
G02*
X190252887Y-91177342I601041J-601041D01*
G01*
G37*
%TD*%
D19*
%TO.C,J24*%
X203915000Y-67369434D03*
%TD*%
%TO.C,J23*%
X235665000Y-172779434D03*
%TD*%
D20*
%TO.C,J22*%
X226267000Y-154618434D03*
%TD*%
%TO.C,J21*%
X213567000Y-86292434D03*
%TD*%
D14*
%TO.C,J19*%
X221362000Y-67322434D03*
X232362000Y-67322434D03*
D15*
X224362000Y-72322434D03*
D16*
X229362000Y-72322434D03*
%TD*%
D20*
%TO.C,J8*%
X213540000Y-76324434D03*
%TD*%
%TO.C,J7*%
X226290000Y-164824434D03*
%TD*%
D21*
%TO.C,J11*%
X264790000Y-116474434D03*
X264790000Y-123674434D03*
G36*
G01*
X271440000Y-113624434D02*
X270140000Y-113624434D01*
G75*
G02*
X269990000Y-113474434I0J150000D01*
G01*
X269990000Y-113174434D01*
G75*
G02*
X270140000Y-113024434I150000J0D01*
G01*
X271440000Y-113024434D01*
G75*
G02*
X271590000Y-113174434I0J-150000D01*
G01*
X271590000Y-113474434D01*
G75*
G02*
X271440000Y-113624434I-150000J0D01*
G01*
G37*
G36*
G01*
X271440000Y-127124434D02*
X270140000Y-127124434D01*
G75*
G02*
X269990000Y-126974434I0J150000D01*
G01*
X269990000Y-126674434D01*
G75*
G02*
X270140000Y-126524434I150000J0D01*
G01*
X271440000Y-126524434D01*
G75*
G02*
X271590000Y-126674434I0J-150000D01*
G01*
X271590000Y-126974434D01*
G75*
G02*
X271440000Y-127124434I-150000J0D01*
G01*
G37*
%TD*%
%TO.C,J12*%
X260560926Y-139456685D03*
X256960926Y-145692067D03*
G36*
G01*
X267744995Y-140313513D02*
X266619161Y-139663513D01*
G75*
G02*
X266564257Y-139458609I75000J129904D01*
G01*
X266714257Y-139198801D01*
G75*
G02*
X266919161Y-139143897I129904J-75000D01*
G01*
X268044995Y-139793897D01*
G75*
G02*
X268099899Y-139998801I-75000J-129904D01*
G01*
X267949899Y-140258609D01*
G75*
G02*
X267744995Y-140313513I-129904J75000D01*
G01*
G37*
G36*
G01*
X260994995Y-152004855D02*
X259869161Y-151354855D01*
G75*
G02*
X259814257Y-151149951I75000J129904D01*
G01*
X259964257Y-150890143D01*
G75*
G02*
X260169161Y-150835239I129904J-75000D01*
G01*
X261294995Y-151485239D01*
G75*
G02*
X261349899Y-151690143I-75000J-129904D01*
G01*
X261199899Y-151949951D01*
G75*
G02*
X260994995Y-152004855I-129904J75000D01*
G01*
G37*
%TD*%
%TO.C,J13*%
X245407315Y-157245360D03*
X239171933Y-160845360D03*
G36*
G01*
X251200487Y-161579429D02*
X250550487Y-160453595D01*
G75*
G02*
X250605391Y-160248691I129904J75000D01*
G01*
X250865199Y-160098691D01*
G75*
G02*
X251070103Y-160153595I75000J-129904D01*
G01*
X251720103Y-161279429D01*
G75*
G02*
X251665199Y-161484333I-129904J-75000D01*
G01*
X251405391Y-161634333D01*
G75*
G02*
X251200487Y-161579429I-75000J129904D01*
G01*
G37*
G36*
G01*
X239509145Y-168329429D02*
X238859145Y-167203595D01*
G75*
G02*
X238914049Y-166998691I129904J75000D01*
G01*
X239173857Y-166848691D01*
G75*
G02*
X239378761Y-166903595I75000J-129904D01*
G01*
X240028761Y-168029429D01*
G75*
G02*
X239973857Y-168234333I-129904J-75000D01*
G01*
X239714049Y-168384333D01*
G75*
G02*
X239509145Y-168329429I-75000J129904D01*
G01*
G37*
%TD*%
%TO.C,J14*%
X200407315Y-160844926D03*
X194171933Y-157244926D03*
G36*
G01*
X199550487Y-168028995D02*
X200200487Y-166903161D01*
G75*
G02*
X200405391Y-166848257I129904J-75000D01*
G01*
X200665199Y-166998257D01*
G75*
G02*
X200720103Y-167203161I-75000J-129904D01*
G01*
X200070103Y-168328995D01*
G75*
G02*
X199865199Y-168383899I-129904J75000D01*
G01*
X199605391Y-168233899D01*
G75*
G02*
X199550487Y-168028995I75000J129904D01*
G01*
G37*
G36*
G01*
X187859145Y-161278995D02*
X188509145Y-160153161D01*
G75*
G02*
X188714049Y-160098257I129904J-75000D01*
G01*
X188973857Y-160248257D01*
G75*
G02*
X189028761Y-160453161I-75000J-129904D01*
G01*
X188378761Y-161578995D01*
G75*
G02*
X188173857Y-161633899I-129904J75000D01*
G01*
X187914049Y-161483899D01*
G75*
G02*
X187859145Y-161278995I75000J129904D01*
G01*
G37*
%TD*%
%TO.C,J15*%
X182618640Y-145691315D03*
X179018640Y-139455933D03*
G36*
G01*
X178284571Y-151484487D02*
X179410405Y-150834487D01*
G75*
G02*
X179615309Y-150889391I75000J-129904D01*
G01*
X179765309Y-151149199D01*
G75*
G02*
X179710405Y-151354103I-129904J-75000D01*
G01*
X178584571Y-152004103D01*
G75*
G02*
X178379667Y-151949199I-75000J129904D01*
G01*
X178229667Y-151689391D01*
G75*
G02*
X178284571Y-151484487I129904J75000D01*
G01*
G37*
G36*
G01*
X171534571Y-139793145D02*
X172660405Y-139143145D01*
G75*
G02*
X172865309Y-139198049I75000J-129904D01*
G01*
X173015309Y-139457857D01*
G75*
G02*
X172960405Y-139662761I-129904J-75000D01*
G01*
X171834571Y-140312761D01*
G75*
G02*
X171629667Y-140257857I-75000J129904D01*
G01*
X171479667Y-139998049D01*
G75*
G02*
X171534571Y-139793145I129904J75000D01*
G01*
G37*
%TD*%
%TO.C,J16*%
X174790000Y-123673566D03*
X174790000Y-116473566D03*
G36*
G01*
X168140000Y-126523566D02*
X169440000Y-126523566D01*
G75*
G02*
X169590000Y-126673566I0J-150000D01*
G01*
X169590000Y-126973566D01*
G75*
G02*
X169440000Y-127123566I-150000J0D01*
G01*
X168140000Y-127123566D01*
G75*
G02*
X167990000Y-126973566I0J150000D01*
G01*
X167990000Y-126673566D01*
G75*
G02*
X168140000Y-126523566I150000J0D01*
G01*
G37*
G36*
G01*
X168140000Y-113023566D02*
X169440000Y-113023566D01*
G75*
G02*
X169590000Y-113173566I0J-150000D01*
G01*
X169590000Y-113473566D01*
G75*
G02*
X169440000Y-113623566I-150000J0D01*
G01*
X168140000Y-113623566D01*
G75*
G02*
X167990000Y-113473566I0J150000D01*
G01*
X167990000Y-113173566D01*
G75*
G02*
X168140000Y-113023566I150000J0D01*
G01*
G37*
%TD*%
%TO.C,J17*%
X179019074Y-100691315D03*
X182619074Y-94455933D03*
G36*
G01*
X171835005Y-99834487D02*
X172960839Y-100484487D01*
G75*
G02*
X173015743Y-100689391I-75000J-129904D01*
G01*
X172865743Y-100949199D01*
G75*
G02*
X172660839Y-101004103I-129904J75000D01*
G01*
X171535005Y-100354103D01*
G75*
G02*
X171480101Y-100149199I75000J129904D01*
G01*
X171630101Y-99889391D01*
G75*
G02*
X171835005Y-99834487I129904J-75000D01*
G01*
G37*
G36*
G01*
X178585005Y-88143145D02*
X179710839Y-88793145D01*
G75*
G02*
X179765743Y-88998049I-75000J-129904D01*
G01*
X179615743Y-89257857D01*
G75*
G02*
X179410839Y-89312761I-129904J75000D01*
G01*
X178285005Y-88662761D01*
G75*
G02*
X178230101Y-88457857I75000J129904D01*
G01*
X178380101Y-88198049D01*
G75*
G02*
X178585005Y-88143145I129904J-75000D01*
G01*
G37*
%TD*%
%TO.C,J18*%
X194172685Y-82902640D03*
X200408067Y-79302640D03*
G36*
G01*
X188379513Y-78568571D02*
X189029513Y-79694405D01*
G75*
G02*
X188974609Y-79899309I-129904J-75000D01*
G01*
X188714801Y-80049309D01*
G75*
G02*
X188509897Y-79994405I-75000J129904D01*
G01*
X187859897Y-78868571D01*
G75*
G02*
X187914801Y-78663667I129904J75000D01*
G01*
X188174609Y-78513667D01*
G75*
G02*
X188379513Y-78568571I75000J-129904D01*
G01*
G37*
G36*
G01*
X200070855Y-71818571D02*
X200720855Y-72944405D01*
G75*
G02*
X200665951Y-73149309I-129904J-75000D01*
G01*
X200406143Y-73299309D01*
G75*
G02*
X200201239Y-73244405I-75000J129904D01*
G01*
X199551239Y-72118571D01*
G75*
G02*
X199606143Y-71913667I129904J75000D01*
G01*
X199865951Y-71763667D01*
G75*
G02*
X200070855Y-71818571I75000J-129904D01*
G01*
G37*
%TD*%
%TO.C,J9*%
X239172685Y-79303074D03*
X245408067Y-82903074D03*
G36*
G01*
X240029513Y-72119005D02*
X239379513Y-73244839D01*
G75*
G02*
X239174609Y-73299743I-129904J75000D01*
G01*
X238914801Y-73149743D01*
G75*
G02*
X238859897Y-72944839I75000J129904D01*
G01*
X239509897Y-71819005D01*
G75*
G02*
X239714801Y-71764101I129904J-75000D01*
G01*
X239974609Y-71914101D01*
G75*
G02*
X240029513Y-72119005I-75000J-129904D01*
G01*
G37*
G36*
G01*
X251720855Y-78869005D02*
X251070855Y-79994839D01*
G75*
G02*
X250865951Y-80049743I-129904J75000D01*
G01*
X250606143Y-79899743D01*
G75*
G02*
X250551239Y-79694839I75000J129904D01*
G01*
X251201239Y-78569005D01*
G75*
G02*
X251406143Y-78514101I129904J-75000D01*
G01*
X251665951Y-78664101D01*
G75*
G02*
X251720855Y-78869005I-75000J-129904D01*
G01*
G37*
%TD*%
%TO.C,J10*%
X256961360Y-94456685D03*
X260561360Y-100692067D03*
G36*
G01*
X261295429Y-88663513D02*
X260169595Y-89313513D01*
G75*
G02*
X259964691Y-89258609I-75000J129904D01*
G01*
X259814691Y-88998801D01*
G75*
G02*
X259869595Y-88793897I129904J75000D01*
G01*
X260995429Y-88143897D01*
G75*
G02*
X261200333Y-88198801I75000J-129904D01*
G01*
X261350333Y-88458609D01*
G75*
G02*
X261295429Y-88663513I-129904J-75000D01*
G01*
G37*
G36*
G01*
X268045429Y-100354855D02*
X266919595Y-101004855D01*
G75*
G02*
X266714691Y-100949951I-75000J129904D01*
G01*
X266564691Y-100690143D01*
G75*
G02*
X266619595Y-100485239I129904J75000D01*
G01*
X267745429Y-99835239D01*
G75*
G02*
X267950333Y-99890143I75000J-129904D01*
G01*
X268100333Y-100149951D01*
G75*
G02*
X268045429Y-100354855I-129904J-75000D01*
G01*
G37*
%TD*%
D22*
%TO.C,M1*%
X258790000Y-81074434D03*
%TD*%
%TO.C,M4*%
X180790000Y-81074434D03*
%TD*%
%TO.C,M2*%
X258790000Y-159074434D03*
%TD*%
%TO.C,M3*%
X180790000Y-159074434D03*
%TD*%
D12*
%TO.C,Q10*%
G36*
X204659111Y-87067399D02*
G01*
X205059111Y-87760219D01*
X198130907Y-91760219D01*
X197730907Y-91067399D01*
X204659111Y-87067399D01*
G37*
G36*
X204698341Y-84735348D02*
G01*
X206098341Y-87160220D01*
X205405521Y-87560220D01*
X204005521Y-85135348D01*
X204698341Y-84735348D01*
G37*
G36*
X203659110Y-85335348D02*
G01*
X205059110Y-87760220D01*
X204366290Y-88160220D01*
X202966290Y-85735348D01*
X203659110Y-85335348D01*
G37*
G36*
X202619880Y-85935348D02*
G01*
X204019880Y-88360220D01*
X203327060Y-88760220D01*
X201927060Y-86335348D01*
X202619880Y-85935348D01*
G37*
G36*
X197423727Y-88935348D02*
G01*
X198823727Y-91360220D01*
X198130907Y-91760220D01*
X196730907Y-89335348D01*
X197423727Y-88935348D01*
G37*
G36*
X198462958Y-88335348D02*
G01*
X199862958Y-90760220D01*
X199170138Y-91160220D01*
X197770138Y-88735348D01*
X198462958Y-88335348D01*
G37*
G36*
X199502188Y-87735348D02*
G01*
X200902188Y-90160220D01*
X200209368Y-90560220D01*
X198809368Y-88135348D01*
X199502188Y-87735348D01*
G37*
G36*
X200541419Y-87135348D02*
G01*
X201941419Y-89560220D01*
X201248599Y-89960220D01*
X199848599Y-87535348D01*
X200541419Y-87135348D01*
G37*
G36*
X201580649Y-86535348D02*
G01*
X202980649Y-88960220D01*
X202287829Y-89360220D01*
X200887829Y-86935348D01*
X201580649Y-86535348D01*
G37*
G36*
X207564847Y-89200283D02*
G01*
X209414847Y-92404577D01*
X201014401Y-97254577D01*
X199164401Y-94050283D01*
X207564847Y-89200283D01*
G37*
G36*
X208981835Y-92654577D02*
G01*
X210431835Y-95166051D01*
X202897413Y-99516051D01*
X201447413Y-97004577D01*
X208981835Y-92654577D01*
G37*
G36*
X211038052Y-94816050D02*
G01*
X211738052Y-96028486D01*
X202991196Y-101078486D01*
X202291196Y-99866050D01*
X211038052Y-94816050D01*
G37*
%TD*%
D23*
%TO.C,U2*%
X212040000Y-76324434D03*
X212040000Y-86324434D03*
D24*
X210040000Y-86324434D03*
X210040000Y-85024434D03*
X210040000Y-83724434D03*
X210040000Y-87624434D03*
X210040000Y-88924434D03*
X212040000Y-82574434D03*
X212040000Y-90074434D03*
X214040000Y-88924434D03*
X214040000Y-87624434D03*
X214040000Y-86324434D03*
X214040000Y-85024434D03*
X214040000Y-83724434D03*
X212040000Y-80074434D03*
X212040000Y-72574434D03*
X210040000Y-78924434D03*
X210040000Y-77624434D03*
X210040000Y-76324434D03*
X210040000Y-75024434D03*
X210040000Y-73724434D03*
X214040000Y-78924434D03*
X214040000Y-77624434D03*
X214040000Y-76324434D03*
X214040000Y-75024434D03*
X214040000Y-73724434D03*
D25*
X233440000Y-83234434D03*
D26*
X233440000Y-81324434D03*
X233440000Y-79414434D03*
%TD*%
D23*
%TO.C,U1*%
X227790000Y-164574434D03*
X227790000Y-154574434D03*
D24*
X229790000Y-154574434D03*
X229790000Y-155874434D03*
X229790000Y-157174434D03*
X229790000Y-153274434D03*
X229790000Y-151974434D03*
X227790000Y-158324434D03*
X227790000Y-150824434D03*
X225790000Y-151974434D03*
X225790000Y-153274434D03*
X225790000Y-154574434D03*
X225790000Y-155874434D03*
X225790000Y-157174434D03*
X227790000Y-160824434D03*
X227790000Y-168324434D03*
X229790000Y-161974434D03*
X229790000Y-163274434D03*
X229790000Y-164574434D03*
X229790000Y-165874434D03*
X229790000Y-167174434D03*
X225790000Y-161974434D03*
X225790000Y-163274434D03*
X225790000Y-164574434D03*
X225790000Y-165874434D03*
X225790000Y-167174434D03*
D25*
X206390000Y-157664434D03*
D26*
X206390000Y-159574434D03*
X206390000Y-161484434D03*
%TD*%
D12*
%TO.C,Q9*%
G36*
X190182965Y-99054889D02*
G01*
X190875785Y-99454889D01*
X186875785Y-106383093D01*
X186182965Y-105983093D01*
X190182965Y-99054889D01*
G37*
G36*
X189050914Y-97015659D02*
G01*
X191475786Y-98415659D01*
X191075786Y-99108479D01*
X188650914Y-97708479D01*
X189050914Y-97015659D01*
G37*
G36*
X188450914Y-98054890D02*
G01*
X190875786Y-99454890D01*
X190475786Y-100147710D01*
X188050914Y-98747710D01*
X188450914Y-98054890D01*
G37*
G36*
X187850914Y-99094120D02*
G01*
X190275786Y-100494120D01*
X189875786Y-101186940D01*
X187450914Y-99786940D01*
X187850914Y-99094120D01*
G37*
G36*
X184850914Y-104290273D02*
G01*
X187275786Y-105690273D01*
X186875786Y-106383093D01*
X184450914Y-104983093D01*
X184850914Y-104290273D01*
G37*
G36*
X185450914Y-103251042D02*
G01*
X187875786Y-104651042D01*
X187475786Y-105343862D01*
X185050914Y-103943862D01*
X185450914Y-103251042D01*
G37*
G36*
X186050914Y-102211812D02*
G01*
X188475786Y-103611812D01*
X188075786Y-104304632D01*
X185650914Y-102904632D01*
X186050914Y-102211812D01*
G37*
G36*
X186650914Y-101172581D02*
G01*
X189075786Y-102572581D01*
X188675786Y-103265401D01*
X186250914Y-101865401D01*
X186650914Y-101172581D01*
G37*
G36*
X187250914Y-100133351D02*
G01*
X189675786Y-101533351D01*
X189275786Y-102226171D01*
X186850914Y-100826171D01*
X187250914Y-100133351D01*
G37*
G36*
X193765849Y-99449153D02*
G01*
X196970143Y-101299153D01*
X192120143Y-109699599D01*
X188915849Y-107849599D01*
X193765849Y-99449153D01*
G37*
G36*
X196720143Y-101732165D02*
G01*
X199231617Y-103182165D01*
X194881617Y-110716587D01*
X192370143Y-109266587D01*
X196720143Y-101732165D01*
G37*
G36*
X199581616Y-102575948D02*
G01*
X200794052Y-103275948D01*
X195744052Y-112022804D01*
X194531616Y-111322804D01*
X199581616Y-102575948D01*
G37*
%TD*%
%TO.C,Q1*%
G36*
X240809111Y-90466965D02*
G01*
X240409111Y-91159785D01*
X233480907Y-87159785D01*
X233880907Y-86466965D01*
X240809111Y-90466965D01*
G37*
G36*
X242848341Y-89334914D02*
G01*
X241448341Y-91759786D01*
X240755521Y-91359786D01*
X242155521Y-88934914D01*
X242848341Y-89334914D01*
G37*
G36*
X241809110Y-88734914D02*
G01*
X240409110Y-91159786D01*
X239716290Y-90759786D01*
X241116290Y-88334914D01*
X241809110Y-88734914D01*
G37*
G36*
X240769880Y-88134914D02*
G01*
X239369880Y-90559786D01*
X238677060Y-90159786D01*
X240077060Y-87734914D01*
X240769880Y-88134914D01*
G37*
G36*
X235573727Y-85134914D02*
G01*
X234173727Y-87559786D01*
X233480907Y-87159786D01*
X234880907Y-84734914D01*
X235573727Y-85134914D01*
G37*
G36*
X236612958Y-85734914D02*
G01*
X235212958Y-88159786D01*
X234520138Y-87759786D01*
X235920138Y-85334914D01*
X236612958Y-85734914D01*
G37*
G36*
X237652188Y-86334914D02*
G01*
X236252188Y-88759786D01*
X235559368Y-88359786D01*
X236959368Y-85934914D01*
X237652188Y-86334914D01*
G37*
G36*
X238691419Y-86934914D02*
G01*
X237291419Y-89359786D01*
X236598599Y-88959786D01*
X237998599Y-86534914D01*
X238691419Y-86934914D01*
G37*
G36*
X239730649Y-87534914D02*
G01*
X238330649Y-89959786D01*
X237637829Y-89559786D01*
X239037829Y-87134914D01*
X239730649Y-87534914D01*
G37*
G36*
X240414847Y-94049849D02*
G01*
X238564847Y-97254143D01*
X230164401Y-92404143D01*
X232014401Y-89199849D01*
X240414847Y-94049849D01*
G37*
G36*
X238131835Y-97004143D02*
G01*
X236681835Y-99515617D01*
X229147413Y-95165617D01*
X230597413Y-92654143D01*
X238131835Y-97004143D01*
G37*
G36*
X237288052Y-99865616D02*
G01*
X236588052Y-101078052D01*
X227841196Y-96028052D01*
X228541196Y-94815616D01*
X237288052Y-99865616D01*
G37*
%TD*%
%TO.C,Q2*%
G36*
X252796601Y-104943111D02*
G01*
X252103781Y-105343111D01*
X248103781Y-98414907D01*
X248796601Y-98014907D01*
X252796601Y-104943111D01*
G37*
G36*
X255128652Y-104982341D02*
G01*
X252703780Y-106382341D01*
X252303780Y-105689521D01*
X254728652Y-104289521D01*
X255128652Y-104982341D01*
G37*
G36*
X254528652Y-103943110D02*
G01*
X252103780Y-105343110D01*
X251703780Y-104650290D01*
X254128652Y-103250290D01*
X254528652Y-103943110D01*
G37*
G36*
X253928652Y-102903880D02*
G01*
X251503780Y-104303880D01*
X251103780Y-103611060D01*
X253528652Y-102211060D01*
X253928652Y-102903880D01*
G37*
G36*
X250928652Y-97707727D02*
G01*
X248503780Y-99107727D01*
X248103780Y-98414907D01*
X250528652Y-97014907D01*
X250928652Y-97707727D01*
G37*
G36*
X251528652Y-98746958D02*
G01*
X249103780Y-100146958D01*
X248703780Y-99454138D01*
X251128652Y-98054138D01*
X251528652Y-98746958D01*
G37*
G36*
X252128652Y-99786188D02*
G01*
X249703780Y-101186188D01*
X249303780Y-100493368D01*
X251728652Y-99093368D01*
X252128652Y-99786188D01*
G37*
G36*
X252728652Y-100825419D02*
G01*
X250303780Y-102225419D01*
X249903780Y-101532599D01*
X252328652Y-100132599D01*
X252728652Y-100825419D01*
G37*
G36*
X253328652Y-101864649D02*
G01*
X250903780Y-103264649D01*
X250503780Y-102571829D01*
X252928652Y-101171829D01*
X253328652Y-101864649D01*
G37*
G36*
X250663717Y-107848847D02*
G01*
X247459423Y-109698847D01*
X242609423Y-101298401D01*
X245813717Y-99448401D01*
X250663717Y-107848847D01*
G37*
G36*
X247209423Y-109265835D02*
G01*
X244697949Y-110715835D01*
X240347949Y-103181413D01*
X242859423Y-101731413D01*
X247209423Y-109265835D01*
G37*
G36*
X245047950Y-111322052D02*
G01*
X243835514Y-112022052D01*
X238785514Y-103275196D01*
X239997950Y-102575196D01*
X245047950Y-111322052D01*
G37*
%TD*%
D27*
%TO.C,Q3*%
X255540000Y-119473566D03*
D28*
X256540000Y-124273566D03*
X256540000Y-123073566D03*
X256540000Y-121873566D03*
X256540000Y-115873566D03*
X256540000Y-117073566D03*
X256540000Y-118273566D03*
X256540000Y-119473566D03*
X256540000Y-120673566D03*
D29*
X250790000Y-120073566D03*
D30*
X247490000Y-120073566D03*
D31*
X245340000Y-120073566D03*
%TD*%
D12*
%TO.C,Q4*%
G36*
X249397035Y-141093111D02*
G01*
X248704215Y-140693111D01*
X252704215Y-133764907D01*
X253397035Y-134164907D01*
X249397035Y-141093111D01*
G37*
G36*
X250529086Y-143132341D02*
G01*
X248104214Y-141732341D01*
X248504214Y-141039521D01*
X250929086Y-142439521D01*
X250529086Y-143132341D01*
G37*
G36*
X251129086Y-142093110D02*
G01*
X248704214Y-140693110D01*
X249104214Y-140000290D01*
X251529086Y-141400290D01*
X251129086Y-142093110D01*
G37*
G36*
X251729086Y-141053880D02*
G01*
X249304214Y-139653880D01*
X249704214Y-138961060D01*
X252129086Y-140361060D01*
X251729086Y-141053880D01*
G37*
G36*
X254729086Y-135857727D02*
G01*
X252304214Y-134457727D01*
X252704214Y-133764907D01*
X255129086Y-135164907D01*
X254729086Y-135857727D01*
G37*
G36*
X254129086Y-136896958D02*
G01*
X251704214Y-135496958D01*
X252104214Y-134804138D01*
X254529086Y-136204138D01*
X254129086Y-136896958D01*
G37*
G36*
X253529086Y-137936188D02*
G01*
X251104214Y-136536188D01*
X251504214Y-135843368D01*
X253929086Y-137243368D01*
X253529086Y-137936188D01*
G37*
G36*
X252929086Y-138975419D02*
G01*
X250504214Y-137575419D01*
X250904214Y-136882599D01*
X253329086Y-138282599D01*
X252929086Y-138975419D01*
G37*
G36*
X252329086Y-140014649D02*
G01*
X249904214Y-138614649D01*
X250304214Y-137921829D01*
X252729086Y-139321829D01*
X252329086Y-140014649D01*
G37*
G36*
X245814151Y-140698847D02*
G01*
X242609857Y-138848847D01*
X247459857Y-130448401D01*
X250664151Y-132298401D01*
X245814151Y-140698847D01*
G37*
G36*
X242859857Y-138415835D02*
G01*
X240348383Y-136965835D01*
X244698383Y-129431413D01*
X247209857Y-130881413D01*
X242859857Y-138415835D01*
G37*
G36*
X239998384Y-137572052D02*
G01*
X238785948Y-136872052D01*
X243835948Y-128125196D01*
X245048384Y-128825196D01*
X239998384Y-137572052D01*
G37*
%TD*%
%TO.C,Q5*%
G36*
X234920889Y-153080601D02*
G01*
X234520889Y-152387781D01*
X241449093Y-148387781D01*
X241849093Y-149080601D01*
X234920889Y-153080601D01*
G37*
G36*
X234881659Y-155412652D02*
G01*
X233481659Y-152987780D01*
X234174479Y-152587780D01*
X235574479Y-155012652D01*
X234881659Y-155412652D01*
G37*
G36*
X235920890Y-154812652D02*
G01*
X234520890Y-152387780D01*
X235213710Y-151987780D01*
X236613710Y-154412652D01*
X235920890Y-154812652D01*
G37*
G36*
X236960120Y-154212652D02*
G01*
X235560120Y-151787780D01*
X236252940Y-151387780D01*
X237652940Y-153812652D01*
X236960120Y-154212652D01*
G37*
G36*
X242156273Y-151212652D02*
G01*
X240756273Y-148787780D01*
X241449093Y-148387780D01*
X242849093Y-150812652D01*
X242156273Y-151212652D01*
G37*
G36*
X241117042Y-151812652D02*
G01*
X239717042Y-149387780D01*
X240409862Y-148987780D01*
X241809862Y-151412652D01*
X241117042Y-151812652D01*
G37*
G36*
X240077812Y-152412652D02*
G01*
X238677812Y-149987780D01*
X239370632Y-149587780D01*
X240770632Y-152012652D01*
X240077812Y-152412652D01*
G37*
G36*
X239038581Y-153012652D02*
G01*
X237638581Y-150587780D01*
X238331401Y-150187780D01*
X239731401Y-152612652D01*
X239038581Y-153012652D01*
G37*
G36*
X237999351Y-153612652D02*
G01*
X236599351Y-151187780D01*
X237292171Y-150787780D01*
X238692171Y-153212652D01*
X237999351Y-153612652D01*
G37*
G36*
X232015153Y-150947717D02*
G01*
X230165153Y-147743423D01*
X238565599Y-142893423D01*
X240415599Y-146097717D01*
X232015153Y-150947717D01*
G37*
G36*
X230598165Y-147493423D02*
G01*
X229148165Y-144981949D01*
X236682587Y-140631949D01*
X238132587Y-143143423D01*
X230598165Y-147493423D01*
G37*
G36*
X228541948Y-145331950D02*
G01*
X227841948Y-144119514D01*
X236588804Y-139069514D01*
X237288804Y-140281950D01*
X228541948Y-145331950D01*
G37*
%TD*%
%TO.C,Q6*%
G36*
X198770889Y-149681035D02*
G01*
X199170889Y-148988215D01*
X206099093Y-152988215D01*
X205699093Y-153681035D01*
X198770889Y-149681035D01*
G37*
G36*
X196731659Y-150813086D02*
G01*
X198131659Y-148388214D01*
X198824479Y-148788214D01*
X197424479Y-151213086D01*
X196731659Y-150813086D01*
G37*
G36*
X197770890Y-151413086D02*
G01*
X199170890Y-148988214D01*
X199863710Y-149388214D01*
X198463710Y-151813086D01*
X197770890Y-151413086D01*
G37*
G36*
X198810120Y-152013086D02*
G01*
X200210120Y-149588214D01*
X200902940Y-149988214D01*
X199502940Y-152413086D01*
X198810120Y-152013086D01*
G37*
G36*
X204006273Y-155013086D02*
G01*
X205406273Y-152588214D01*
X206099093Y-152988214D01*
X204699093Y-155413086D01*
X204006273Y-155013086D01*
G37*
G36*
X202967042Y-154413086D02*
G01*
X204367042Y-151988214D01*
X205059862Y-152388214D01*
X203659862Y-154813086D01*
X202967042Y-154413086D01*
G37*
G36*
X201927812Y-153813086D02*
G01*
X203327812Y-151388214D01*
X204020632Y-151788214D01*
X202620632Y-154213086D01*
X201927812Y-153813086D01*
G37*
G36*
X200888581Y-153213086D02*
G01*
X202288581Y-150788214D01*
X202981401Y-151188214D01*
X201581401Y-153613086D01*
X200888581Y-153213086D01*
G37*
G36*
X199849351Y-152613086D02*
G01*
X201249351Y-150188214D01*
X201942171Y-150588214D01*
X200542171Y-153013086D01*
X199849351Y-152613086D01*
G37*
G36*
X199165153Y-146098151D02*
G01*
X201015153Y-142893857D01*
X209415599Y-147743857D01*
X207565599Y-150948151D01*
X199165153Y-146098151D01*
G37*
G36*
X201448165Y-143143857D02*
G01*
X202898165Y-140632383D01*
X210432587Y-144982383D01*
X208982587Y-147493857D01*
X201448165Y-143143857D01*
G37*
G36*
X202291948Y-140282384D02*
G01*
X202991948Y-139069948D01*
X211738804Y-144119948D01*
X211038804Y-145332384D01*
X202291948Y-140282384D01*
G37*
%TD*%
%TO.C,Q7*%
G36*
X186783399Y-135204889D02*
G01*
X187476219Y-134804889D01*
X191476219Y-141733093D01*
X190783399Y-142133093D01*
X186783399Y-135204889D01*
G37*
G36*
X184451348Y-135165659D02*
G01*
X186876220Y-133765659D01*
X187276220Y-134458479D01*
X184851348Y-135858479D01*
X184451348Y-135165659D01*
G37*
G36*
X185051348Y-136204890D02*
G01*
X187476220Y-134804890D01*
X187876220Y-135497710D01*
X185451348Y-136897710D01*
X185051348Y-136204890D01*
G37*
G36*
X185651348Y-137244120D02*
G01*
X188076220Y-135844120D01*
X188476220Y-136536940D01*
X186051348Y-137936940D01*
X185651348Y-137244120D01*
G37*
G36*
X188651348Y-142440273D02*
G01*
X191076220Y-141040273D01*
X191476220Y-141733093D01*
X189051348Y-143133093D01*
X188651348Y-142440273D01*
G37*
G36*
X188051348Y-141401042D02*
G01*
X190476220Y-140001042D01*
X190876220Y-140693862D01*
X188451348Y-142093862D01*
X188051348Y-141401042D01*
G37*
G36*
X187451348Y-140361812D02*
G01*
X189876220Y-138961812D01*
X190276220Y-139654632D01*
X187851348Y-141054632D01*
X187451348Y-140361812D01*
G37*
G36*
X186851348Y-139322581D02*
G01*
X189276220Y-137922581D01*
X189676220Y-138615401D01*
X187251348Y-140015401D01*
X186851348Y-139322581D01*
G37*
G36*
X186251348Y-138283351D02*
G01*
X188676220Y-136883351D01*
X189076220Y-137576171D01*
X186651348Y-138976171D01*
X186251348Y-138283351D01*
G37*
G36*
X188916283Y-132299153D02*
G01*
X192120577Y-130449153D01*
X196970577Y-138849599D01*
X193766283Y-140699599D01*
X188916283Y-132299153D01*
G37*
G36*
X192370577Y-130882165D02*
G01*
X194882051Y-129432165D01*
X199232051Y-136966587D01*
X196720577Y-138416587D01*
X192370577Y-130882165D01*
G37*
G36*
X194532050Y-128825948D02*
G01*
X195744486Y-128125948D01*
X200794486Y-136872804D01*
X199582050Y-137572804D01*
X194532050Y-128825948D01*
G37*
%TD*%
D27*
%TO.C,Q8*%
X184040000Y-120674434D03*
D28*
X183040000Y-115874434D03*
X183040000Y-117074434D03*
X183040000Y-118274434D03*
X183040000Y-124274434D03*
X183040000Y-123074434D03*
X183040000Y-121874434D03*
X183040000Y-120674434D03*
X183040000Y-119474434D03*
D29*
X188790000Y-120074434D03*
D30*
X192090000Y-120074434D03*
D31*
X194240000Y-120074434D03*
%TD*%
M02*
