%TF.GenerationSoftware,KiCad,Pcbnew,(5.1.12)-1*%
%TF.CreationDate,2021-12-14T20:27:31-05:00*%
%TF.ProjectId,PDB,5044422e-6b69-4636-9164-5f7063625858,rev?*%
%TF.SameCoordinates,Original*%
%TF.FileFunction,Legend,Bot*%
%TF.FilePolarity,Positive*%
%FSLAX46Y46*%
G04 Gerber Fmt 4.6, Leading zero omitted, Abs format (unit mm)*
G04 Created by KiCad (PCBNEW (5.1.12)-1) date 2021-12-14 20:27:31*
%MOMM*%
%LPD*%
G01*
G04 APERTURE LIST*
%ADD10C,0.150000*%
%ADD11C,0.120000*%
%ADD12C,1.400000*%
%ADD13R,3.500000X3.500000*%
%ADD14C,3.500000*%
%ADD15C,0.100000*%
%ADD16R,1.700000X1.700000*%
%ADD17O,1.700000X1.700000*%
%ADD18C,7.000000*%
%ADD19C,5.000000*%
%ADD20R,8.000000X14.000000*%
%ADD21C,4.000000*%
%ADD22C,6.400000*%
%ADD23R,6.000000X9.000000*%
%ADD24C,0.500000*%
%ADD25R,1.500000X1.500000*%
%ADD26C,1.500000*%
G04 APERTURE END LIST*
D10*
X260182857Y-117367814D02*
X260182857Y-118177338D01*
X260135238Y-118272576D01*
X260087619Y-118320195D01*
X259992380Y-118367814D01*
X259801904Y-118367814D01*
X259706666Y-118320195D01*
X259659047Y-118272576D01*
X259611428Y-118177338D01*
X259611428Y-117367814D01*
X259182857Y-118082100D02*
X258706666Y-118082100D01*
X259278095Y-118367814D02*
X258944761Y-117367814D01*
X258611428Y-118367814D01*
X258420952Y-117367814D02*
X258087619Y-118367814D01*
X257754285Y-117367814D01*
X256659047Y-118367814D02*
X256659047Y-117367814D01*
X256278095Y-117367814D01*
X256182857Y-117415434D01*
X256135238Y-117463053D01*
X256087619Y-117558291D01*
X256087619Y-117701148D01*
X256135238Y-117796386D01*
X256182857Y-117844005D01*
X256278095Y-117891624D01*
X256659047Y-117891624D01*
X255659047Y-118367814D02*
X255659047Y-117367814D01*
X255420952Y-117367814D01*
X255278095Y-117415434D01*
X255182857Y-117510672D01*
X255135238Y-117605910D01*
X255087619Y-117796386D01*
X255087619Y-117939243D01*
X255135238Y-118129719D01*
X255182857Y-118224957D01*
X255278095Y-118320195D01*
X255420952Y-118367814D01*
X255659047Y-118367814D01*
X254325714Y-117844005D02*
X254182857Y-117891624D01*
X254135238Y-117939243D01*
X254087619Y-118034481D01*
X254087619Y-118177338D01*
X254135238Y-118272576D01*
X254182857Y-118320195D01*
X254278095Y-118367814D01*
X254659047Y-118367814D01*
X254659047Y-117367814D01*
X254325714Y-117367814D01*
X254230476Y-117415434D01*
X254182857Y-117463053D01*
X254135238Y-117558291D01*
X254135238Y-117653529D01*
X254182857Y-117748767D01*
X254230476Y-117796386D01*
X254325714Y-117844005D01*
X254659047Y-117844005D01*
X252897142Y-117986862D02*
X252135238Y-117986862D01*
X250944761Y-117463053D02*
X250897142Y-117415434D01*
X250801904Y-117367814D01*
X250563809Y-117367814D01*
X250468571Y-117415434D01*
X250420952Y-117463053D01*
X250373333Y-117558291D01*
X250373333Y-117653529D01*
X250420952Y-117796386D01*
X250992380Y-118367814D01*
X250373333Y-118367814D01*
X249801904Y-118367814D02*
X249897142Y-118320195D01*
X249944761Y-118272576D01*
X249992380Y-118177338D01*
X249992380Y-117891624D01*
X249944761Y-117796386D01*
X249897142Y-117748767D01*
X249801904Y-117701148D01*
X249659047Y-117701148D01*
X249563809Y-117748767D01*
X249516190Y-117796386D01*
X249468571Y-117891624D01*
X249468571Y-118177338D01*
X249516190Y-118272576D01*
X249563809Y-118320195D01*
X249659047Y-118367814D01*
X249801904Y-118367814D01*
X249135238Y-117701148D02*
X248611428Y-117701148D01*
X249135238Y-118367814D01*
X248611428Y-118367814D01*
X247040000Y-118320195D02*
X247135238Y-118367814D01*
X247325714Y-118367814D01*
X247420952Y-118320195D01*
X247468571Y-118272576D01*
X247516190Y-118177338D01*
X247516190Y-117891624D01*
X247468571Y-117796386D01*
X247420952Y-117748767D01*
X247325714Y-117701148D01*
X247135238Y-117701148D01*
X247040000Y-117748767D01*
X246468571Y-118367814D02*
X246563809Y-118320195D01*
X246611428Y-118272576D01*
X246659047Y-118177338D01*
X246659047Y-117891624D01*
X246611428Y-117796386D01*
X246563809Y-117748767D01*
X246468571Y-117701148D01*
X246325714Y-117701148D01*
X246230476Y-117748767D01*
X246182857Y-117796386D01*
X246135238Y-117891624D01*
X246135238Y-118177338D01*
X246182857Y-118272576D01*
X246230476Y-118320195D01*
X246325714Y-118367814D01*
X246468571Y-118367814D01*
X245706666Y-117701148D02*
X245706666Y-118701148D01*
X245706666Y-117748767D02*
X245611428Y-117701148D01*
X245420952Y-117701148D01*
X245325714Y-117748767D01*
X245278095Y-117796386D01*
X245230476Y-117891624D01*
X245230476Y-118177338D01*
X245278095Y-118272576D01*
X245325714Y-118320195D01*
X245420952Y-118367814D01*
X245611428Y-118367814D01*
X245706666Y-118320195D01*
X244801904Y-117701148D02*
X244801904Y-118701148D01*
X244801904Y-117748767D02*
X244706666Y-117701148D01*
X244516190Y-117701148D01*
X244420952Y-117748767D01*
X244373333Y-117796386D01*
X244325714Y-117891624D01*
X244325714Y-118177338D01*
X244373333Y-118272576D01*
X244420952Y-118320195D01*
X244516190Y-118367814D01*
X244706666Y-118367814D01*
X244801904Y-118320195D01*
X243516190Y-118320195D02*
X243611428Y-118367814D01*
X243801904Y-118367814D01*
X243897142Y-118320195D01*
X243944761Y-118224957D01*
X243944761Y-117844005D01*
X243897142Y-117748767D01*
X243801904Y-117701148D01*
X243611428Y-117701148D01*
X243516190Y-117748767D01*
X243468571Y-117844005D01*
X243468571Y-117939243D01*
X243944761Y-118034481D01*
X243040000Y-118367814D02*
X243040000Y-117701148D01*
X243040000Y-117891624D02*
X242992380Y-117796386D01*
X242944761Y-117748767D01*
X242849523Y-117701148D01*
X242754285Y-117701148D01*
X259349523Y-120146814D02*
X259349523Y-119146814D01*
X259111428Y-119146814D01*
X258968571Y-119194434D01*
X258873333Y-119289672D01*
X258825714Y-119384910D01*
X258778095Y-119575386D01*
X258778095Y-119718243D01*
X258825714Y-119908719D01*
X258873333Y-120003957D01*
X258968571Y-120099195D01*
X259111428Y-120146814D01*
X259349523Y-120146814D01*
X257968571Y-120099195D02*
X258063809Y-120146814D01*
X258254285Y-120146814D01*
X258349523Y-120099195D01*
X258397142Y-120003957D01*
X258397142Y-119623005D01*
X258349523Y-119527767D01*
X258254285Y-119480148D01*
X258063809Y-119480148D01*
X257968571Y-119527767D01*
X257920952Y-119623005D01*
X257920952Y-119718243D01*
X258397142Y-119813481D01*
X257540000Y-120099195D02*
X257444761Y-120146814D01*
X257254285Y-120146814D01*
X257159047Y-120099195D01*
X257111428Y-120003957D01*
X257111428Y-119956338D01*
X257159047Y-119861100D01*
X257254285Y-119813481D01*
X257397142Y-119813481D01*
X257492380Y-119765862D01*
X257540000Y-119670624D01*
X257540000Y-119623005D01*
X257492380Y-119527767D01*
X257397142Y-119480148D01*
X257254285Y-119480148D01*
X257159047Y-119527767D01*
X256682857Y-120146814D02*
X256682857Y-119480148D01*
X256682857Y-119146814D02*
X256730476Y-119194434D01*
X256682857Y-119242053D01*
X256635238Y-119194434D01*
X256682857Y-119146814D01*
X256682857Y-119242053D01*
X255778095Y-119480148D02*
X255778095Y-120289672D01*
X255825714Y-120384910D01*
X255873333Y-120432529D01*
X255968571Y-120480148D01*
X256111428Y-120480148D01*
X256206666Y-120432529D01*
X255778095Y-120099195D02*
X255873333Y-120146814D01*
X256063809Y-120146814D01*
X256159047Y-120099195D01*
X256206666Y-120051576D01*
X256254285Y-119956338D01*
X256254285Y-119670624D01*
X256206666Y-119575386D01*
X256159047Y-119527767D01*
X256063809Y-119480148D01*
X255873333Y-119480148D01*
X255778095Y-119527767D01*
X255301904Y-119480148D02*
X255301904Y-120146814D01*
X255301904Y-119575386D02*
X255254285Y-119527767D01*
X255159047Y-119480148D01*
X255016190Y-119480148D01*
X254920952Y-119527767D01*
X254873333Y-119623005D01*
X254873333Y-120146814D01*
X254016190Y-120099195D02*
X254111428Y-120146814D01*
X254301904Y-120146814D01*
X254397142Y-120099195D01*
X254444761Y-120003957D01*
X254444761Y-119623005D01*
X254397142Y-119527767D01*
X254301904Y-119480148D01*
X254111428Y-119480148D01*
X254016190Y-119527767D01*
X253968571Y-119623005D01*
X253968571Y-119718243D01*
X254444761Y-119813481D01*
X253111428Y-120146814D02*
X253111428Y-119146814D01*
X253111428Y-120099195D02*
X253206666Y-120146814D01*
X253397142Y-120146814D01*
X253492380Y-120099195D01*
X253540000Y-120051576D01*
X253587619Y-119956338D01*
X253587619Y-119670624D01*
X253540000Y-119575386D01*
X253492380Y-119527767D01*
X253397142Y-119480148D01*
X253206666Y-119480148D01*
X253111428Y-119527767D01*
X252016190Y-119480148D02*
X251635238Y-119480148D01*
X251873333Y-120146814D02*
X251873333Y-119289672D01*
X251825714Y-119194434D01*
X251730476Y-119146814D01*
X251635238Y-119146814D01*
X251159047Y-120146814D02*
X251254285Y-120099195D01*
X251301904Y-120051576D01*
X251349523Y-119956338D01*
X251349523Y-119670624D01*
X251301904Y-119575386D01*
X251254285Y-119527767D01*
X251159047Y-119480148D01*
X251016190Y-119480148D01*
X250920952Y-119527767D01*
X250873333Y-119575386D01*
X250825714Y-119670624D01*
X250825714Y-119956338D01*
X250873333Y-120051576D01*
X250920952Y-120099195D01*
X251016190Y-120146814D01*
X251159047Y-120146814D01*
X250397142Y-120146814D02*
X250397142Y-119480148D01*
X250397142Y-119670624D02*
X250349523Y-119575386D01*
X250301904Y-119527767D01*
X250206666Y-119480148D01*
X250111428Y-119480148D01*
X249063809Y-119861100D02*
X248587619Y-119861100D01*
X249159047Y-120146814D02*
X248825714Y-119146814D01*
X248492380Y-120146814D01*
X248159047Y-119623005D02*
X247825714Y-119623005D01*
X247682857Y-120146814D02*
X248159047Y-120146814D01*
X248159047Y-119146814D01*
X247682857Y-119146814D01*
X246682857Y-120146814D02*
X247016190Y-119670624D01*
X247254285Y-120146814D02*
X247254285Y-119146814D01*
X246873333Y-119146814D01*
X246778095Y-119194434D01*
X246730476Y-119242053D01*
X246682857Y-119337291D01*
X246682857Y-119480148D01*
X246730476Y-119575386D01*
X246778095Y-119623005D01*
X246873333Y-119670624D01*
X247254285Y-119670624D01*
X246254285Y-120146814D02*
X246254285Y-119146814D01*
X245873333Y-119146814D01*
X245778095Y-119194434D01*
X245730476Y-119242053D01*
X245682857Y-119337291D01*
X245682857Y-119480148D01*
X245730476Y-119575386D01*
X245778095Y-119623005D01*
X245873333Y-119670624D01*
X246254285Y-119670624D01*
X245301904Y-119861100D02*
X244825714Y-119861100D01*
X245397142Y-120146814D02*
X245063809Y-119146814D01*
X244730476Y-120146814D01*
X244492380Y-119146814D02*
X244254285Y-120146814D01*
X244063809Y-119432529D01*
X243873333Y-120146814D01*
X243635238Y-119146814D01*
X258730476Y-121273005D02*
X258587619Y-121320624D01*
X258540000Y-121368243D01*
X258492380Y-121463481D01*
X258492380Y-121606338D01*
X258540000Y-121701576D01*
X258587619Y-121749195D01*
X258682857Y-121796814D01*
X259063809Y-121796814D01*
X259063809Y-120796814D01*
X258730476Y-120796814D01*
X258635238Y-120844434D01*
X258587619Y-120892053D01*
X258540000Y-120987291D01*
X258540000Y-121082529D01*
X258587619Y-121177767D01*
X258635238Y-121225386D01*
X258730476Y-121273005D01*
X259063809Y-121273005D01*
X258159047Y-121130148D02*
X257920952Y-121796814D01*
X257682857Y-121130148D02*
X257920952Y-121796814D01*
X258016190Y-122034910D01*
X258063809Y-122082529D01*
X258159047Y-122130148D01*
X257301904Y-121701576D02*
X257254285Y-121749195D01*
X257301904Y-121796814D01*
X257349523Y-121749195D01*
X257301904Y-121701576D01*
X257301904Y-121796814D01*
X257301904Y-121177767D02*
X257254285Y-121225386D01*
X257301904Y-121273005D01*
X257349523Y-121225386D01*
X257301904Y-121177767D01*
X257301904Y-121273005D01*
X256063809Y-121796814D02*
X256063809Y-120796814D01*
X255730476Y-121511100D01*
X255397142Y-120796814D01*
X255397142Y-121796814D01*
X254492380Y-121796814D02*
X254492380Y-121273005D01*
X254540000Y-121177767D01*
X254635238Y-121130148D01*
X254825714Y-121130148D01*
X254920952Y-121177767D01*
X254492380Y-121749195D02*
X254587619Y-121796814D01*
X254825714Y-121796814D01*
X254920952Y-121749195D01*
X254968571Y-121653957D01*
X254968571Y-121558719D01*
X254920952Y-121463481D01*
X254825714Y-121415862D01*
X254587619Y-121415862D01*
X254492380Y-121368243D01*
X254016190Y-121796814D02*
X254016190Y-121130148D01*
X254016190Y-121320624D02*
X253968571Y-121225386D01*
X253920952Y-121177767D01*
X253825714Y-121130148D01*
X253730476Y-121130148D01*
X253397142Y-121796814D02*
X253397142Y-120796814D01*
X253301904Y-121415862D02*
X253016190Y-121796814D01*
X253016190Y-121130148D02*
X253397142Y-121511100D01*
X251492380Y-121273005D02*
X251825714Y-121273005D01*
X251825714Y-121796814D02*
X251825714Y-120796814D01*
X251349523Y-120796814D01*
X250540000Y-121130148D02*
X250540000Y-121796814D01*
X250968571Y-121130148D02*
X250968571Y-121653957D01*
X250920952Y-121749195D01*
X250825714Y-121796814D01*
X250682857Y-121796814D01*
X250587619Y-121749195D01*
X250540000Y-121701576D01*
X250063809Y-121130148D02*
X250063809Y-121796814D01*
X250063809Y-121225386D02*
X250016190Y-121177767D01*
X249920952Y-121130148D01*
X249778095Y-121130148D01*
X249682857Y-121177767D01*
X249635238Y-121273005D01*
X249635238Y-121796814D01*
X248730476Y-121796814D02*
X248730476Y-120796814D01*
X248730476Y-121749195D02*
X248825714Y-121796814D01*
X249016190Y-121796814D01*
X249111428Y-121749195D01*
X249159047Y-121701576D01*
X249206666Y-121606338D01*
X249206666Y-121320624D01*
X249159047Y-121225386D01*
X249111428Y-121177767D01*
X249016190Y-121130148D01*
X248825714Y-121130148D01*
X248730476Y-121177767D01*
X247873333Y-121749195D02*
X247968571Y-121796814D01*
X248159047Y-121796814D01*
X248254285Y-121749195D01*
X248301904Y-121653957D01*
X248301904Y-121273005D01*
X248254285Y-121177767D01*
X248159047Y-121130148D01*
X247968571Y-121130148D01*
X247873333Y-121177767D01*
X247825714Y-121273005D01*
X247825714Y-121368243D01*
X248301904Y-121463481D01*
X247397142Y-121796814D02*
X247397142Y-121130148D01*
X247397142Y-121320624D02*
X247349523Y-121225386D01*
X247301904Y-121177767D01*
X247206666Y-121130148D01*
X247111428Y-121130148D01*
X246778095Y-121796814D02*
X246778095Y-120796814D01*
X246778095Y-121177767D02*
X246682857Y-121130148D01*
X246492380Y-121130148D01*
X246397142Y-121177767D01*
X246349523Y-121225386D01*
X246301904Y-121320624D01*
X246301904Y-121606338D01*
X246349523Y-121701576D01*
X246397142Y-121749195D01*
X246492380Y-121796814D01*
X246682857Y-121796814D01*
X246778095Y-121749195D01*
X245444761Y-121130148D02*
X245444761Y-121796814D01*
X245873333Y-121130148D02*
X245873333Y-121653957D01*
X245825714Y-121749195D01*
X245730476Y-121796814D01*
X245587619Y-121796814D01*
X245492380Y-121749195D01*
X245444761Y-121701576D01*
X244968571Y-121796814D02*
X244968571Y-121130148D01*
X244968571Y-121320624D02*
X244920952Y-121225386D01*
X244873333Y-121177767D01*
X244778095Y-121130148D01*
X244682857Y-121130148D01*
X244349523Y-121796814D02*
X244349523Y-120796814D01*
X244254285Y-121415862D02*
X243968571Y-121796814D01*
X243968571Y-121130148D02*
X244349523Y-121511100D01*
X258944761Y-123446814D02*
X259516190Y-123446814D01*
X259230476Y-123446814D02*
X259230476Y-122446814D01*
X259325714Y-122589672D01*
X259420952Y-122684910D01*
X259516190Y-122732529D01*
X258563809Y-122542053D02*
X258516190Y-122494434D01*
X258420952Y-122446814D01*
X258182857Y-122446814D01*
X258087619Y-122494434D01*
X258040000Y-122542053D01*
X257992380Y-122637291D01*
X257992380Y-122732529D01*
X258040000Y-122875386D01*
X258611428Y-123446814D01*
X257992380Y-123446814D01*
X256849523Y-122399195D02*
X257706666Y-123684910D01*
X255992380Y-123446814D02*
X256563809Y-123446814D01*
X256278095Y-123446814D02*
X256278095Y-122446814D01*
X256373333Y-122589672D01*
X256468571Y-122684910D01*
X256563809Y-122732529D01*
X255087619Y-122446814D02*
X255563809Y-122446814D01*
X255611428Y-122923005D01*
X255563809Y-122875386D01*
X255468571Y-122827767D01*
X255230476Y-122827767D01*
X255135238Y-122875386D01*
X255087619Y-122923005D01*
X255040000Y-123018243D01*
X255040000Y-123256338D01*
X255087619Y-123351576D01*
X255135238Y-123399195D01*
X255230476Y-123446814D01*
X255468571Y-123446814D01*
X255563809Y-123399195D01*
X255611428Y-123351576D01*
X253897142Y-122399195D02*
X254754285Y-123684910D01*
X253611428Y-122542053D02*
X253563809Y-122494434D01*
X253468571Y-122446814D01*
X253230476Y-122446814D01*
X253135238Y-122494434D01*
X253087619Y-122542053D01*
X253040000Y-122637291D01*
X253040000Y-122732529D01*
X253087619Y-122875386D01*
X253659047Y-123446814D01*
X253040000Y-123446814D01*
X252087619Y-123446814D02*
X252659047Y-123446814D01*
X252373333Y-123446814D02*
X252373333Y-122446814D01*
X252468571Y-122589672D01*
X252563809Y-122684910D01*
X252659047Y-122732529D01*
X250897142Y-123065862D02*
X250135238Y-123065862D01*
X248325714Y-123446814D02*
X248659047Y-122970624D01*
X248897142Y-123446814D02*
X248897142Y-122446814D01*
X248516190Y-122446814D01*
X248420952Y-122494434D01*
X248373333Y-122542053D01*
X248325714Y-122637291D01*
X248325714Y-122780148D01*
X248373333Y-122875386D01*
X248420952Y-122923005D01*
X248516190Y-122970624D01*
X248897142Y-122970624D01*
X247516190Y-123399195D02*
X247611428Y-123446814D01*
X247801904Y-123446814D01*
X247897142Y-123399195D01*
X247944761Y-123303957D01*
X247944761Y-122923005D01*
X247897142Y-122827767D01*
X247801904Y-122780148D01*
X247611428Y-122780148D01*
X247516190Y-122827767D01*
X247468571Y-122923005D01*
X247468571Y-123018243D01*
X247944761Y-123113481D01*
X247135238Y-122780148D02*
X246897142Y-123446814D01*
X246659047Y-122780148D01*
X244992380Y-123446814D02*
X245563809Y-123446814D01*
X245278095Y-123446814D02*
X245278095Y-122446814D01*
X245373333Y-122589672D01*
X245468571Y-122684910D01*
X245563809Y-122732529D01*
X244563809Y-123351576D02*
X244516190Y-123399195D01*
X244563809Y-123446814D01*
X244611428Y-123399195D01*
X244563809Y-123351576D01*
X244563809Y-123446814D01*
X243563809Y-123446814D02*
X244135238Y-123446814D01*
X243849523Y-123446814D02*
X243849523Y-122446814D01*
X243944761Y-122589672D01*
X244040000Y-122684910D01*
X244135238Y-122732529D01*
D11*
%TO.C,C2*%
X208974000Y-158842370D02*
X208974000Y-160046498D01*
X210794000Y-158842370D02*
X210794000Y-160046498D01*
%TO.C,C1*%
X229294000Y-82830498D02*
X229294000Y-81626370D01*
X231114000Y-82830498D02*
X231114000Y-81626370D01*
%TO.C,J24*%
D10*
X204724523Y-71521814D02*
X204724523Y-72236100D01*
X204772142Y-72378957D01*
X204867380Y-72474195D01*
X205010238Y-72521814D01*
X205105476Y-72521814D01*
X204295952Y-71617053D02*
X204248333Y-71569434D01*
X204153095Y-71521814D01*
X203915000Y-71521814D01*
X203819761Y-71569434D01*
X203772142Y-71617053D01*
X203724523Y-71712291D01*
X203724523Y-71807529D01*
X203772142Y-71950386D01*
X204343571Y-72521814D01*
X203724523Y-72521814D01*
X202867380Y-71855148D02*
X202867380Y-72521814D01*
X203105476Y-71474195D02*
X203343571Y-72188481D01*
X202724523Y-72188481D01*
%TO.C,J23*%
X236474523Y-176931814D02*
X236474523Y-177646100D01*
X236522142Y-177788957D01*
X236617380Y-177884195D01*
X236760238Y-177931814D01*
X236855476Y-177931814D01*
X236045952Y-177027053D02*
X235998333Y-176979434D01*
X235903095Y-176931814D01*
X235665000Y-176931814D01*
X235569761Y-176979434D01*
X235522142Y-177027053D01*
X235474523Y-177122291D01*
X235474523Y-177217529D01*
X235522142Y-177360386D01*
X236093571Y-177931814D01*
X235474523Y-177931814D01*
X235141190Y-176931814D02*
X234522142Y-176931814D01*
X234855476Y-177312767D01*
X234712619Y-177312767D01*
X234617380Y-177360386D01*
X234569761Y-177408005D01*
X234522142Y-177503243D01*
X234522142Y-177741338D01*
X234569761Y-177836576D01*
X234617380Y-177884195D01*
X234712619Y-177931814D01*
X234998333Y-177931814D01*
X235093571Y-177884195D01*
X235141190Y-177836576D01*
%TO.C,C2*%
X212273142Y-159277767D02*
X212320761Y-159230148D01*
X212368380Y-159087291D01*
X212368380Y-158992053D01*
X212320761Y-158849195D01*
X212225523Y-158753957D01*
X212130285Y-158706338D01*
X211939809Y-158658719D01*
X211796952Y-158658719D01*
X211606476Y-158706338D01*
X211511238Y-158753957D01*
X211416000Y-158849195D01*
X211368380Y-158992053D01*
X211368380Y-159087291D01*
X211416000Y-159230148D01*
X211463619Y-159277767D01*
X211463619Y-159658719D02*
X211416000Y-159706338D01*
X211368380Y-159801576D01*
X211368380Y-160039672D01*
X211416000Y-160134910D01*
X211463619Y-160182529D01*
X211558857Y-160230148D01*
X211654095Y-160230148D01*
X211796952Y-160182529D01*
X212368380Y-159611100D01*
X212368380Y-160230148D01*
%TO.C,C1*%
X228529142Y-82061767D02*
X228576761Y-82014148D01*
X228624380Y-81871291D01*
X228624380Y-81776053D01*
X228576761Y-81633195D01*
X228481523Y-81537957D01*
X228386285Y-81490338D01*
X228195809Y-81442719D01*
X228052952Y-81442719D01*
X227862476Y-81490338D01*
X227767238Y-81537957D01*
X227672000Y-81633195D01*
X227624380Y-81776053D01*
X227624380Y-81871291D01*
X227672000Y-82014148D01*
X227719619Y-82061767D01*
X228624380Y-83014148D02*
X228624380Y-82442719D01*
X228624380Y-82728434D02*
X227624380Y-82728434D01*
X227767238Y-82633195D01*
X227862476Y-82537957D01*
X227910095Y-82442719D01*
%TD*%
%LPC*%
D12*
%TO.C,J20*%
X218646000Y-173080434D03*
X207646000Y-173080434D03*
D13*
X215646000Y-168080434D03*
D14*
X210646000Y-168080434D03*
%TD*%
D15*
%TO.C,J5*%
G36*
X192337918Y-144574434D02*
G01*
X193540000Y-143372352D01*
X194742082Y-144574434D01*
X193540000Y-145776516D01*
X192337918Y-144574434D01*
G37*
G36*
G01*
X194735010Y-145769444D02*
X194735010Y-145769444D01*
G75*
G02*
X195937092Y-145769444I601041J-601041D01*
G01*
X195937092Y-145769444D01*
G75*
G02*
X195937092Y-146971526I-601041J-601041D01*
G01*
X195937092Y-146971526D01*
G75*
G02*
X194735010Y-146971526I-601041J601041D01*
G01*
X194735010Y-146971526D01*
G75*
G02*
X194735010Y-145769444I601041J601041D01*
G01*
G37*
G36*
G01*
X191142908Y-145769444D02*
X191142908Y-145769444D01*
G75*
G02*
X192344990Y-145769444I601041J-601041D01*
G01*
X192344990Y-145769444D01*
G75*
G02*
X192344990Y-146971526I-601041J-601041D01*
G01*
X192344990Y-146971526D01*
G75*
G02*
X191142908Y-146971526I-601041J601041D01*
G01*
X191142908Y-146971526D01*
G75*
G02*
X191142908Y-145769444I601041J601041D01*
G01*
G37*
G36*
G01*
X192938959Y-147565495D02*
X192938959Y-147565495D01*
G75*
G02*
X194141041Y-147565495I601041J-601041D01*
G01*
X194141041Y-147565495D01*
G75*
G02*
X194141041Y-148767577I-601041J-601041D01*
G01*
X194141041Y-148767577D01*
G75*
G02*
X192938959Y-148767577I-601041J601041D01*
G01*
X192938959Y-148767577D01*
G75*
G02*
X192938959Y-147565495I601041J601041D01*
G01*
G37*
G36*
G01*
X189346857Y-147565495D02*
X189346857Y-147565495D01*
G75*
G02*
X190548939Y-147565495I601041J-601041D01*
G01*
X190548939Y-147565495D01*
G75*
G02*
X190548939Y-148767577I-601041J-601041D01*
G01*
X190548939Y-148767577D01*
G75*
G02*
X189346857Y-148767577I-601041J601041D01*
G01*
X189346857Y-148767577D01*
G75*
G02*
X189346857Y-147565495I601041J601041D01*
G01*
G37*
G36*
G01*
X191142908Y-149361547D02*
X191142908Y-149361547D01*
G75*
G02*
X192344990Y-149361547I601041J-601041D01*
G01*
X192344990Y-149361547D01*
G75*
G02*
X192344990Y-150563629I-601041J-601041D01*
G01*
X192344990Y-150563629D01*
G75*
G02*
X191142908Y-150563629I-601041J601041D01*
G01*
X191142908Y-150563629D01*
G75*
G02*
X191142908Y-149361547I601041J601041D01*
G01*
G37*
%TD*%
D16*
%TO.C,J4*%
X245790000Y-145574434D03*
D17*
X248330000Y-145574434D03*
X245790000Y-148114434D03*
X248330000Y-148114434D03*
X245790000Y-150654434D03*
X248330000Y-150654434D03*
%TD*%
D15*
%TO.C,J3*%
G36*
X247492082Y-95324434D02*
G01*
X246290000Y-96526516D01*
X245087918Y-95324434D01*
X246290000Y-94122352D01*
X247492082Y-95324434D01*
G37*
G36*
G01*
X245094990Y-94129424D02*
X245094990Y-94129424D01*
G75*
G02*
X243892908Y-94129424I-601041J601041D01*
G01*
X243892908Y-94129424D01*
G75*
G02*
X243892908Y-92927342I601041J601041D01*
G01*
X243892908Y-92927342D01*
G75*
G02*
X245094990Y-92927342I601041J-601041D01*
G01*
X245094990Y-92927342D01*
G75*
G02*
X245094990Y-94129424I-601041J-601041D01*
G01*
G37*
G36*
G01*
X248687092Y-94129424D02*
X248687092Y-94129424D01*
G75*
G02*
X247485010Y-94129424I-601041J601041D01*
G01*
X247485010Y-94129424D01*
G75*
G02*
X247485010Y-92927342I601041J601041D01*
G01*
X247485010Y-92927342D01*
G75*
G02*
X248687092Y-92927342I601041J-601041D01*
G01*
X248687092Y-92927342D01*
G75*
G02*
X248687092Y-94129424I-601041J-601041D01*
G01*
G37*
G36*
G01*
X246891041Y-92333373D02*
X246891041Y-92333373D01*
G75*
G02*
X245688959Y-92333373I-601041J601041D01*
G01*
X245688959Y-92333373D01*
G75*
G02*
X245688959Y-91131291I601041J601041D01*
G01*
X245688959Y-91131291D01*
G75*
G02*
X246891041Y-91131291I601041J-601041D01*
G01*
X246891041Y-91131291D01*
G75*
G02*
X246891041Y-92333373I-601041J-601041D01*
G01*
G37*
G36*
G01*
X250483143Y-92333373D02*
X250483143Y-92333373D01*
G75*
G02*
X249281061Y-92333373I-601041J601041D01*
G01*
X249281061Y-92333373D01*
G75*
G02*
X249281061Y-91131291I601041J601041D01*
G01*
X249281061Y-91131291D01*
G75*
G02*
X250483143Y-91131291I601041J-601041D01*
G01*
X250483143Y-91131291D01*
G75*
G02*
X250483143Y-92333373I-601041J-601041D01*
G01*
G37*
G36*
G01*
X248687092Y-90537321D02*
X248687092Y-90537321D01*
G75*
G02*
X247485010Y-90537321I-601041J601041D01*
G01*
X247485010Y-90537321D01*
G75*
G02*
X247485010Y-89335239I601041J601041D01*
G01*
X247485010Y-89335239D01*
G75*
G02*
X248687092Y-89335239I601041J-601041D01*
G01*
X248687092Y-89335239D01*
G75*
G02*
X248687092Y-90537321I-601041J-601041D01*
G01*
G37*
%TD*%
%TO.C,J6*%
G36*
X195040000Y-92372352D02*
G01*
X196242082Y-93574434D01*
X195040000Y-94776516D01*
X193837918Y-93574434D01*
X195040000Y-92372352D01*
G37*
G36*
G01*
X193844990Y-94769444D02*
X193844990Y-94769444D01*
G75*
G02*
X193844990Y-95971526I-601041J-601041D01*
G01*
X193844990Y-95971526D01*
G75*
G02*
X192642908Y-95971526I-601041J601041D01*
G01*
X192642908Y-95971526D01*
G75*
G02*
X192642908Y-94769444I601041J601041D01*
G01*
X192642908Y-94769444D01*
G75*
G02*
X193844990Y-94769444I601041J-601041D01*
G01*
G37*
G36*
G01*
X193844990Y-91177342D02*
X193844990Y-91177342D01*
G75*
G02*
X193844990Y-92379424I-601041J-601041D01*
G01*
X193844990Y-92379424D01*
G75*
G02*
X192642908Y-92379424I-601041J601041D01*
G01*
X192642908Y-92379424D01*
G75*
G02*
X192642908Y-91177342I601041J601041D01*
G01*
X192642908Y-91177342D01*
G75*
G02*
X193844990Y-91177342I601041J-601041D01*
G01*
G37*
G36*
G01*
X192048939Y-92973393D02*
X192048939Y-92973393D01*
G75*
G02*
X192048939Y-94175475I-601041J-601041D01*
G01*
X192048939Y-94175475D01*
G75*
G02*
X190846857Y-94175475I-601041J601041D01*
G01*
X190846857Y-94175475D01*
G75*
G02*
X190846857Y-92973393I601041J601041D01*
G01*
X190846857Y-92973393D01*
G75*
G02*
X192048939Y-92973393I601041J-601041D01*
G01*
G37*
G36*
G01*
X192048939Y-89381291D02*
X192048939Y-89381291D01*
G75*
G02*
X192048939Y-90583373I-601041J-601041D01*
G01*
X192048939Y-90583373D01*
G75*
G02*
X190846857Y-90583373I-601041J601041D01*
G01*
X190846857Y-90583373D01*
G75*
G02*
X190846857Y-89381291I601041J601041D01*
G01*
X190846857Y-89381291D01*
G75*
G02*
X192048939Y-89381291I601041J-601041D01*
G01*
G37*
G36*
G01*
X190252887Y-91177342D02*
X190252887Y-91177342D01*
G75*
G02*
X190252887Y-92379424I-601041J-601041D01*
G01*
X190252887Y-92379424D01*
G75*
G02*
X189050805Y-92379424I-601041J601041D01*
G01*
X189050805Y-92379424D01*
G75*
G02*
X189050805Y-91177342I601041J601041D01*
G01*
X189050805Y-91177342D01*
G75*
G02*
X190252887Y-91177342I601041J-601041D01*
G01*
G37*
%TD*%
D18*
%TO.C,J24*%
X203915000Y-67369434D03*
D19*
X203915000Y-67369434D03*
%TD*%
D18*
%TO.C,J23*%
X235665000Y-172779434D03*
D19*
X235665000Y-172779434D03*
%TD*%
D20*
%TO.C,J1*%
X220425000Y-70074434D03*
%TD*%
%TO.C,J2*%
X219409000Y-170074434D03*
%TD*%
D12*
%TO.C,J19*%
X221362000Y-67322434D03*
X232362000Y-67322434D03*
D13*
X224362000Y-72322434D03*
D14*
X229362000Y-72322434D03*
%TD*%
%TO.C,C2*%
G36*
G01*
X209259000Y-157244434D02*
X210509000Y-157244434D01*
G75*
G02*
X210759000Y-157494434I0J-250000D01*
G01*
X210759000Y-158419434D01*
G75*
G02*
X210509000Y-158669434I-250000J0D01*
G01*
X209259000Y-158669434D01*
G75*
G02*
X209009000Y-158419434I0J250000D01*
G01*
X209009000Y-157494434D01*
G75*
G02*
X209259000Y-157244434I250000J0D01*
G01*
G37*
G36*
G01*
X209259000Y-160219434D02*
X210509000Y-160219434D01*
G75*
G02*
X210759000Y-160469434I0J-250000D01*
G01*
X210759000Y-161394434D01*
G75*
G02*
X210509000Y-161644434I-250000J0D01*
G01*
X209259000Y-161644434D01*
G75*
G02*
X209009000Y-161394434I0J250000D01*
G01*
X209009000Y-160469434D01*
G75*
G02*
X209259000Y-160219434I250000J0D01*
G01*
G37*
%TD*%
%TO.C,C1*%
G36*
G01*
X230829000Y-81453434D02*
X229579000Y-81453434D01*
G75*
G02*
X229329000Y-81203434I0J250000D01*
G01*
X229329000Y-80278434D01*
G75*
G02*
X229579000Y-80028434I250000J0D01*
G01*
X230829000Y-80028434D01*
G75*
G02*
X231079000Y-80278434I0J-250000D01*
G01*
X231079000Y-81203434D01*
G75*
G02*
X230829000Y-81453434I-250000J0D01*
G01*
G37*
G36*
G01*
X230829000Y-84428434D02*
X229579000Y-84428434D01*
G75*
G02*
X229329000Y-84178434I0J250000D01*
G01*
X229329000Y-83253434D01*
G75*
G02*
X229579000Y-83003434I250000J0D01*
G01*
X230829000Y-83003434D01*
G75*
G02*
X231079000Y-83253434I0J-250000D01*
G01*
X231079000Y-84178434D01*
G75*
G02*
X230829000Y-84428434I-250000J0D01*
G01*
G37*
%TD*%
D21*
%TO.C,J11*%
X264790000Y-116474434D03*
X264790000Y-123674434D03*
G36*
G01*
X271440000Y-113624434D02*
X270140000Y-113624434D01*
G75*
G02*
X269990000Y-113474434I0J150000D01*
G01*
X269990000Y-113174434D01*
G75*
G02*
X270140000Y-113024434I150000J0D01*
G01*
X271440000Y-113024434D01*
G75*
G02*
X271590000Y-113174434I0J-150000D01*
G01*
X271590000Y-113474434D01*
G75*
G02*
X271440000Y-113624434I-150000J0D01*
G01*
G37*
G36*
G01*
X271440000Y-127124434D02*
X270140000Y-127124434D01*
G75*
G02*
X269990000Y-126974434I0J150000D01*
G01*
X269990000Y-126674434D01*
G75*
G02*
X270140000Y-126524434I150000J0D01*
G01*
X271440000Y-126524434D01*
G75*
G02*
X271590000Y-126674434I0J-150000D01*
G01*
X271590000Y-126974434D01*
G75*
G02*
X271440000Y-127124434I-150000J0D01*
G01*
G37*
%TD*%
%TO.C,J12*%
X260560926Y-139456685D03*
X256960926Y-145692067D03*
G36*
G01*
X267744995Y-140313513D02*
X266619161Y-139663513D01*
G75*
G02*
X266564257Y-139458609I75000J129904D01*
G01*
X266714257Y-139198801D01*
G75*
G02*
X266919161Y-139143897I129904J-75000D01*
G01*
X268044995Y-139793897D01*
G75*
G02*
X268099899Y-139998801I-75000J-129904D01*
G01*
X267949899Y-140258609D01*
G75*
G02*
X267744995Y-140313513I-129904J75000D01*
G01*
G37*
G36*
G01*
X260994995Y-152004855D02*
X259869161Y-151354855D01*
G75*
G02*
X259814257Y-151149951I75000J129904D01*
G01*
X259964257Y-150890143D01*
G75*
G02*
X260169161Y-150835239I129904J-75000D01*
G01*
X261294995Y-151485239D01*
G75*
G02*
X261349899Y-151690143I-75000J-129904D01*
G01*
X261199899Y-151949951D01*
G75*
G02*
X260994995Y-152004855I-129904J75000D01*
G01*
G37*
%TD*%
%TO.C,J13*%
X245407315Y-157245360D03*
X239171933Y-160845360D03*
G36*
G01*
X251200487Y-161579429D02*
X250550487Y-160453595D01*
G75*
G02*
X250605391Y-160248691I129904J75000D01*
G01*
X250865199Y-160098691D01*
G75*
G02*
X251070103Y-160153595I75000J-129904D01*
G01*
X251720103Y-161279429D01*
G75*
G02*
X251665199Y-161484333I-129904J-75000D01*
G01*
X251405391Y-161634333D01*
G75*
G02*
X251200487Y-161579429I-75000J129904D01*
G01*
G37*
G36*
G01*
X239509145Y-168329429D02*
X238859145Y-167203595D01*
G75*
G02*
X238914049Y-166998691I129904J75000D01*
G01*
X239173857Y-166848691D01*
G75*
G02*
X239378761Y-166903595I75000J-129904D01*
G01*
X240028761Y-168029429D01*
G75*
G02*
X239973857Y-168234333I-129904J-75000D01*
G01*
X239714049Y-168384333D01*
G75*
G02*
X239509145Y-168329429I-75000J129904D01*
G01*
G37*
%TD*%
%TO.C,J14*%
X200407315Y-160844926D03*
X194171933Y-157244926D03*
G36*
G01*
X199550487Y-168028995D02*
X200200487Y-166903161D01*
G75*
G02*
X200405391Y-166848257I129904J-75000D01*
G01*
X200665199Y-166998257D01*
G75*
G02*
X200720103Y-167203161I-75000J-129904D01*
G01*
X200070103Y-168328995D01*
G75*
G02*
X199865199Y-168383899I-129904J75000D01*
G01*
X199605391Y-168233899D01*
G75*
G02*
X199550487Y-168028995I75000J129904D01*
G01*
G37*
G36*
G01*
X187859145Y-161278995D02*
X188509145Y-160153161D01*
G75*
G02*
X188714049Y-160098257I129904J-75000D01*
G01*
X188973857Y-160248257D01*
G75*
G02*
X189028761Y-160453161I-75000J-129904D01*
G01*
X188378761Y-161578995D01*
G75*
G02*
X188173857Y-161633899I-129904J75000D01*
G01*
X187914049Y-161483899D01*
G75*
G02*
X187859145Y-161278995I75000J129904D01*
G01*
G37*
%TD*%
%TO.C,J15*%
X182618640Y-145691315D03*
X179018640Y-139455933D03*
G36*
G01*
X178284571Y-151484487D02*
X179410405Y-150834487D01*
G75*
G02*
X179615309Y-150889391I75000J-129904D01*
G01*
X179765309Y-151149199D01*
G75*
G02*
X179710405Y-151354103I-129904J-75000D01*
G01*
X178584571Y-152004103D01*
G75*
G02*
X178379667Y-151949199I-75000J129904D01*
G01*
X178229667Y-151689391D01*
G75*
G02*
X178284571Y-151484487I129904J75000D01*
G01*
G37*
G36*
G01*
X171534571Y-139793145D02*
X172660405Y-139143145D01*
G75*
G02*
X172865309Y-139198049I75000J-129904D01*
G01*
X173015309Y-139457857D01*
G75*
G02*
X172960405Y-139662761I-129904J-75000D01*
G01*
X171834571Y-140312761D01*
G75*
G02*
X171629667Y-140257857I-75000J129904D01*
G01*
X171479667Y-139998049D01*
G75*
G02*
X171534571Y-139793145I129904J75000D01*
G01*
G37*
%TD*%
%TO.C,J16*%
X174790000Y-123673566D03*
X174790000Y-116473566D03*
G36*
G01*
X168140000Y-126523566D02*
X169440000Y-126523566D01*
G75*
G02*
X169590000Y-126673566I0J-150000D01*
G01*
X169590000Y-126973566D01*
G75*
G02*
X169440000Y-127123566I-150000J0D01*
G01*
X168140000Y-127123566D01*
G75*
G02*
X167990000Y-126973566I0J150000D01*
G01*
X167990000Y-126673566D01*
G75*
G02*
X168140000Y-126523566I150000J0D01*
G01*
G37*
G36*
G01*
X168140000Y-113023566D02*
X169440000Y-113023566D01*
G75*
G02*
X169590000Y-113173566I0J-150000D01*
G01*
X169590000Y-113473566D01*
G75*
G02*
X169440000Y-113623566I-150000J0D01*
G01*
X168140000Y-113623566D01*
G75*
G02*
X167990000Y-113473566I0J150000D01*
G01*
X167990000Y-113173566D01*
G75*
G02*
X168140000Y-113023566I150000J0D01*
G01*
G37*
%TD*%
%TO.C,J17*%
X179019074Y-100691315D03*
X182619074Y-94455933D03*
G36*
G01*
X171835005Y-99834487D02*
X172960839Y-100484487D01*
G75*
G02*
X173015743Y-100689391I-75000J-129904D01*
G01*
X172865743Y-100949199D01*
G75*
G02*
X172660839Y-101004103I-129904J75000D01*
G01*
X171535005Y-100354103D01*
G75*
G02*
X171480101Y-100149199I75000J129904D01*
G01*
X171630101Y-99889391D01*
G75*
G02*
X171835005Y-99834487I129904J-75000D01*
G01*
G37*
G36*
G01*
X178585005Y-88143145D02*
X179710839Y-88793145D01*
G75*
G02*
X179765743Y-88998049I-75000J-129904D01*
G01*
X179615743Y-89257857D01*
G75*
G02*
X179410839Y-89312761I-129904J75000D01*
G01*
X178285005Y-88662761D01*
G75*
G02*
X178230101Y-88457857I75000J129904D01*
G01*
X178380101Y-88198049D01*
G75*
G02*
X178585005Y-88143145I129904J-75000D01*
G01*
G37*
%TD*%
%TO.C,J18*%
X194172685Y-82902640D03*
X200408067Y-79302640D03*
G36*
G01*
X188379513Y-78568571D02*
X189029513Y-79694405D01*
G75*
G02*
X188974609Y-79899309I-129904J-75000D01*
G01*
X188714801Y-80049309D01*
G75*
G02*
X188509897Y-79994405I-75000J129904D01*
G01*
X187859897Y-78868571D01*
G75*
G02*
X187914801Y-78663667I129904J75000D01*
G01*
X188174609Y-78513667D01*
G75*
G02*
X188379513Y-78568571I75000J-129904D01*
G01*
G37*
G36*
G01*
X200070855Y-71818571D02*
X200720855Y-72944405D01*
G75*
G02*
X200665951Y-73149309I-129904J-75000D01*
G01*
X200406143Y-73299309D01*
G75*
G02*
X200201239Y-73244405I-75000J129904D01*
G01*
X199551239Y-72118571D01*
G75*
G02*
X199606143Y-71913667I129904J75000D01*
G01*
X199865951Y-71763667D01*
G75*
G02*
X200070855Y-71818571I75000J-129904D01*
G01*
G37*
%TD*%
%TO.C,J9*%
X239172685Y-79303074D03*
X245408067Y-82903074D03*
G36*
G01*
X240029513Y-72119005D02*
X239379513Y-73244839D01*
G75*
G02*
X239174609Y-73299743I-129904J75000D01*
G01*
X238914801Y-73149743D01*
G75*
G02*
X238859897Y-72944839I75000J129904D01*
G01*
X239509897Y-71819005D01*
G75*
G02*
X239714801Y-71764101I129904J-75000D01*
G01*
X239974609Y-71914101D01*
G75*
G02*
X240029513Y-72119005I-75000J-129904D01*
G01*
G37*
G36*
G01*
X251720855Y-78869005D02*
X251070855Y-79994839D01*
G75*
G02*
X250865951Y-80049743I-129904J75000D01*
G01*
X250606143Y-79899743D01*
G75*
G02*
X250551239Y-79694839I75000J129904D01*
G01*
X251201239Y-78569005D01*
G75*
G02*
X251406143Y-78514101I129904J-75000D01*
G01*
X251665951Y-78664101D01*
G75*
G02*
X251720855Y-78869005I-75000J-129904D01*
G01*
G37*
%TD*%
%TO.C,J10*%
X256961360Y-94456685D03*
X260561360Y-100692067D03*
G36*
G01*
X261295429Y-88663513D02*
X260169595Y-89313513D01*
G75*
G02*
X259964691Y-89258609I-75000J129904D01*
G01*
X259814691Y-88998801D01*
G75*
G02*
X259869595Y-88793897I129904J75000D01*
G01*
X260995429Y-88143897D01*
G75*
G02*
X261200333Y-88198801I75000J-129904D01*
G01*
X261350333Y-88458609D01*
G75*
G02*
X261295429Y-88663513I-129904J-75000D01*
G01*
G37*
G36*
G01*
X268045429Y-100354855D02*
X266919595Y-101004855D01*
G75*
G02*
X266714691Y-100949951I-75000J129904D01*
G01*
X266564691Y-100690143D01*
G75*
G02*
X266619595Y-100485239I129904J75000D01*
G01*
X267745429Y-99835239D01*
G75*
G02*
X267950333Y-99890143I75000J-129904D01*
G01*
X268100333Y-100149951D01*
G75*
G02*
X268045429Y-100354855I-129904J-75000D01*
G01*
G37*
%TD*%
D22*
%TO.C,M1*%
X258790000Y-81074434D03*
%TD*%
%TO.C,M4*%
X180790000Y-81074434D03*
%TD*%
%TO.C,M2*%
X258790000Y-159074434D03*
%TD*%
%TO.C,M3*%
X180790000Y-159074434D03*
%TD*%
D23*
%TO.C,U2*%
X212040000Y-76324434D03*
X212040000Y-86324434D03*
D24*
X210040000Y-86324434D03*
X210040000Y-85024434D03*
X210040000Y-83724434D03*
X210040000Y-87624434D03*
X210040000Y-88924434D03*
X212040000Y-82574434D03*
X212040000Y-90074434D03*
X214040000Y-88924434D03*
X214040000Y-87624434D03*
X214040000Y-86324434D03*
X214040000Y-85024434D03*
X214040000Y-83724434D03*
X212040000Y-80074434D03*
X212040000Y-72574434D03*
X210040000Y-78924434D03*
X210040000Y-77624434D03*
X210040000Y-76324434D03*
X210040000Y-75024434D03*
X210040000Y-73724434D03*
X214040000Y-78924434D03*
X214040000Y-77624434D03*
X214040000Y-76324434D03*
X214040000Y-75024434D03*
X214040000Y-73724434D03*
D25*
X233440000Y-83234434D03*
D26*
X233440000Y-81324434D03*
X233440000Y-79414434D03*
%TD*%
D23*
%TO.C,U1*%
X227790000Y-164574434D03*
X227790000Y-154574434D03*
D24*
X229790000Y-154574434D03*
X229790000Y-155874434D03*
X229790000Y-157174434D03*
X229790000Y-153274434D03*
X229790000Y-151974434D03*
X227790000Y-158324434D03*
X227790000Y-150824434D03*
X225790000Y-151974434D03*
X225790000Y-153274434D03*
X225790000Y-154574434D03*
X225790000Y-155874434D03*
X225790000Y-157174434D03*
X227790000Y-160824434D03*
X227790000Y-168324434D03*
X229790000Y-161974434D03*
X229790000Y-163274434D03*
X229790000Y-164574434D03*
X229790000Y-165874434D03*
X229790000Y-167174434D03*
X225790000Y-161974434D03*
X225790000Y-163274434D03*
X225790000Y-164574434D03*
X225790000Y-165874434D03*
X225790000Y-167174434D03*
D25*
X206390000Y-157664434D03*
D26*
X206390000Y-159574434D03*
X206390000Y-161484434D03*
%TD*%
M02*
