%TF.GenerationSoftware,KiCad,Pcbnew,(5.1.12)-1*%
%TF.CreationDate,2021-12-14T20:27:31-05:00*%
%TF.ProjectId,PDB,5044422e-6b69-4636-9164-5f7063625858,rev?*%
%TF.SameCoordinates,Original*%
%TF.FileFunction,Soldermask,Top*%
%TF.FilePolarity,Negative*%
%FSLAX46Y46*%
G04 Gerber Fmt 4.6, Leading zero omitted, Abs format (unit mm)*
G04 Created by KiCad (PCBNEW (5.1.12)-1) date 2021-12-14 20:27:31*
%MOMM*%
%LPD*%
G01*
G04 APERTURE LIST*
%ADD10R,0.650000X0.400000*%
%ADD11C,1.400000*%
%ADD12R,3.500000X3.500000*%
%ADD13C,3.500000*%
%ADD14C,0.100000*%
%ADD15R,1.700000X1.700000*%
%ADD16O,1.700000X1.700000*%
%ADD17C,5.000000*%
%ADD18R,10.000000X8.000000*%
%ADD19C,4.000000*%
%ADD20C,6.400000*%
%ADD21R,6.000000X9.000000*%
%ADD22C,0.500000*%
%ADD23R,1.500000X1.500000*%
%ADD24C,1.500000*%
%ADD25R,0.800000X8.000000*%
%ADD26R,2.800000X0.800000*%
%ADD27R,3.700000X9.700000*%
%ADD28R,2.900000X8.700000*%
%ADD29R,1.400000X10.100000*%
G04 APERTURE END LIST*
%TO.C,C4*%
G36*
G01*
X256714100Y-128066734D02*
X256714100Y-128566734D01*
G75*
G02*
X256489100Y-128791734I-225000J0D01*
G01*
X256039100Y-128791734D01*
G75*
G02*
X255814100Y-128566734I0J225000D01*
G01*
X255814100Y-128066734D01*
G75*
G02*
X256039100Y-127841734I225000J0D01*
G01*
X256489100Y-127841734D01*
G75*
G02*
X256714100Y-128066734I0J-225000D01*
G01*
G37*
G36*
G01*
X258264100Y-128066734D02*
X258264100Y-128566734D01*
G75*
G02*
X258039100Y-128791734I-225000J0D01*
G01*
X257589100Y-128791734D01*
G75*
G02*
X257364100Y-128566734I0J225000D01*
G01*
X257364100Y-128066734D01*
G75*
G02*
X257589100Y-127841734I225000J0D01*
G01*
X258039100Y-127841734D01*
G75*
G02*
X258264100Y-128066734I0J-225000D01*
G01*
G37*
%TD*%
%TO.C,C3*%
G36*
G01*
X182891300Y-112069434D02*
X182891300Y-111569434D01*
G75*
G02*
X183116300Y-111344434I225000J0D01*
G01*
X183566300Y-111344434D01*
G75*
G02*
X183791300Y-111569434I0J-225000D01*
G01*
X183791300Y-112069434D01*
G75*
G02*
X183566300Y-112294434I-225000J0D01*
G01*
X183116300Y-112294434D01*
G75*
G02*
X182891300Y-112069434I0J225000D01*
G01*
G37*
G36*
G01*
X181341300Y-112069434D02*
X181341300Y-111569434D01*
G75*
G02*
X181566300Y-111344434I225000J0D01*
G01*
X182016300Y-111344434D01*
G75*
G02*
X182241300Y-111569434I0J-225000D01*
G01*
X182241300Y-112069434D01*
G75*
G02*
X182016300Y-112294434I-225000J0D01*
G01*
X181566300Y-112294434D01*
G75*
G02*
X181341300Y-112069434I0J225000D01*
G01*
G37*
%TD*%
D10*
%TO.C,U4*%
X186729400Y-112274334D03*
X186729400Y-113574334D03*
X184829400Y-112924334D03*
X184829400Y-113574334D03*
X184829400Y-112274334D03*
%TD*%
%TO.C,U3*%
X252850600Y-127887234D03*
X252850600Y-126587234D03*
X254750600Y-127237234D03*
X254750600Y-126587234D03*
X254750600Y-127887234D03*
%TD*%
D11*
%TO.C,J20*%
X218646000Y-173080434D03*
X207646000Y-173080434D03*
D12*
X215646000Y-168080434D03*
D13*
X210646000Y-168080434D03*
%TD*%
D14*
%TO.C,J5*%
G36*
X192337918Y-144574434D02*
G01*
X193540000Y-143372352D01*
X194742082Y-144574434D01*
X193540000Y-145776516D01*
X192337918Y-144574434D01*
G37*
G36*
G01*
X194735010Y-145769444D02*
X194735010Y-145769444D01*
G75*
G02*
X195937092Y-145769444I601041J-601041D01*
G01*
X195937092Y-145769444D01*
G75*
G02*
X195937092Y-146971526I-601041J-601041D01*
G01*
X195937092Y-146971526D01*
G75*
G02*
X194735010Y-146971526I-601041J601041D01*
G01*
X194735010Y-146971526D01*
G75*
G02*
X194735010Y-145769444I601041J601041D01*
G01*
G37*
G36*
G01*
X191142908Y-145769444D02*
X191142908Y-145769444D01*
G75*
G02*
X192344990Y-145769444I601041J-601041D01*
G01*
X192344990Y-145769444D01*
G75*
G02*
X192344990Y-146971526I-601041J-601041D01*
G01*
X192344990Y-146971526D01*
G75*
G02*
X191142908Y-146971526I-601041J601041D01*
G01*
X191142908Y-146971526D01*
G75*
G02*
X191142908Y-145769444I601041J601041D01*
G01*
G37*
G36*
G01*
X192938959Y-147565495D02*
X192938959Y-147565495D01*
G75*
G02*
X194141041Y-147565495I601041J-601041D01*
G01*
X194141041Y-147565495D01*
G75*
G02*
X194141041Y-148767577I-601041J-601041D01*
G01*
X194141041Y-148767577D01*
G75*
G02*
X192938959Y-148767577I-601041J601041D01*
G01*
X192938959Y-148767577D01*
G75*
G02*
X192938959Y-147565495I601041J601041D01*
G01*
G37*
G36*
G01*
X189346857Y-147565495D02*
X189346857Y-147565495D01*
G75*
G02*
X190548939Y-147565495I601041J-601041D01*
G01*
X190548939Y-147565495D01*
G75*
G02*
X190548939Y-148767577I-601041J-601041D01*
G01*
X190548939Y-148767577D01*
G75*
G02*
X189346857Y-148767577I-601041J601041D01*
G01*
X189346857Y-148767577D01*
G75*
G02*
X189346857Y-147565495I601041J601041D01*
G01*
G37*
G36*
G01*
X191142908Y-149361547D02*
X191142908Y-149361547D01*
G75*
G02*
X192344990Y-149361547I601041J-601041D01*
G01*
X192344990Y-149361547D01*
G75*
G02*
X192344990Y-150563629I-601041J-601041D01*
G01*
X192344990Y-150563629D01*
G75*
G02*
X191142908Y-150563629I-601041J601041D01*
G01*
X191142908Y-150563629D01*
G75*
G02*
X191142908Y-149361547I601041J601041D01*
G01*
G37*
%TD*%
D15*
%TO.C,J4*%
X245790000Y-145574434D03*
D16*
X248330000Y-145574434D03*
X245790000Y-148114434D03*
X248330000Y-148114434D03*
X245790000Y-150654434D03*
X248330000Y-150654434D03*
%TD*%
D14*
%TO.C,J3*%
G36*
X247492082Y-95324434D02*
G01*
X246290000Y-96526516D01*
X245087918Y-95324434D01*
X246290000Y-94122352D01*
X247492082Y-95324434D01*
G37*
G36*
G01*
X245094990Y-94129424D02*
X245094990Y-94129424D01*
G75*
G02*
X243892908Y-94129424I-601041J601041D01*
G01*
X243892908Y-94129424D01*
G75*
G02*
X243892908Y-92927342I601041J601041D01*
G01*
X243892908Y-92927342D01*
G75*
G02*
X245094990Y-92927342I601041J-601041D01*
G01*
X245094990Y-92927342D01*
G75*
G02*
X245094990Y-94129424I-601041J-601041D01*
G01*
G37*
G36*
G01*
X248687092Y-94129424D02*
X248687092Y-94129424D01*
G75*
G02*
X247485010Y-94129424I-601041J601041D01*
G01*
X247485010Y-94129424D01*
G75*
G02*
X247485010Y-92927342I601041J601041D01*
G01*
X247485010Y-92927342D01*
G75*
G02*
X248687092Y-92927342I601041J-601041D01*
G01*
X248687092Y-92927342D01*
G75*
G02*
X248687092Y-94129424I-601041J-601041D01*
G01*
G37*
G36*
G01*
X246891041Y-92333373D02*
X246891041Y-92333373D01*
G75*
G02*
X245688959Y-92333373I-601041J601041D01*
G01*
X245688959Y-92333373D01*
G75*
G02*
X245688959Y-91131291I601041J601041D01*
G01*
X245688959Y-91131291D01*
G75*
G02*
X246891041Y-91131291I601041J-601041D01*
G01*
X246891041Y-91131291D01*
G75*
G02*
X246891041Y-92333373I-601041J-601041D01*
G01*
G37*
G36*
G01*
X250483143Y-92333373D02*
X250483143Y-92333373D01*
G75*
G02*
X249281061Y-92333373I-601041J601041D01*
G01*
X249281061Y-92333373D01*
G75*
G02*
X249281061Y-91131291I601041J601041D01*
G01*
X249281061Y-91131291D01*
G75*
G02*
X250483143Y-91131291I601041J-601041D01*
G01*
X250483143Y-91131291D01*
G75*
G02*
X250483143Y-92333373I-601041J-601041D01*
G01*
G37*
G36*
G01*
X248687092Y-90537321D02*
X248687092Y-90537321D01*
G75*
G02*
X247485010Y-90537321I-601041J601041D01*
G01*
X247485010Y-90537321D01*
G75*
G02*
X247485010Y-89335239I601041J601041D01*
G01*
X247485010Y-89335239D01*
G75*
G02*
X248687092Y-89335239I601041J-601041D01*
G01*
X248687092Y-89335239D01*
G75*
G02*
X248687092Y-90537321I-601041J-601041D01*
G01*
G37*
%TD*%
%TO.C,J6*%
G36*
X195040000Y-92372352D02*
G01*
X196242082Y-93574434D01*
X195040000Y-94776516D01*
X193837918Y-93574434D01*
X195040000Y-92372352D01*
G37*
G36*
G01*
X193844990Y-94769444D02*
X193844990Y-94769444D01*
G75*
G02*
X193844990Y-95971526I-601041J-601041D01*
G01*
X193844990Y-95971526D01*
G75*
G02*
X192642908Y-95971526I-601041J601041D01*
G01*
X192642908Y-95971526D01*
G75*
G02*
X192642908Y-94769444I601041J601041D01*
G01*
X192642908Y-94769444D01*
G75*
G02*
X193844990Y-94769444I601041J-601041D01*
G01*
G37*
G36*
G01*
X193844990Y-91177342D02*
X193844990Y-91177342D01*
G75*
G02*
X193844990Y-92379424I-601041J-601041D01*
G01*
X193844990Y-92379424D01*
G75*
G02*
X192642908Y-92379424I-601041J601041D01*
G01*
X192642908Y-92379424D01*
G75*
G02*
X192642908Y-91177342I601041J601041D01*
G01*
X192642908Y-91177342D01*
G75*
G02*
X193844990Y-91177342I601041J-601041D01*
G01*
G37*
G36*
G01*
X192048939Y-92973393D02*
X192048939Y-92973393D01*
G75*
G02*
X192048939Y-94175475I-601041J-601041D01*
G01*
X192048939Y-94175475D01*
G75*
G02*
X190846857Y-94175475I-601041J601041D01*
G01*
X190846857Y-94175475D01*
G75*
G02*
X190846857Y-92973393I601041J601041D01*
G01*
X190846857Y-92973393D01*
G75*
G02*
X192048939Y-92973393I601041J-601041D01*
G01*
G37*
G36*
G01*
X192048939Y-89381291D02*
X192048939Y-89381291D01*
G75*
G02*
X192048939Y-90583373I-601041J-601041D01*
G01*
X192048939Y-90583373D01*
G75*
G02*
X190846857Y-90583373I-601041J601041D01*
G01*
X190846857Y-90583373D01*
G75*
G02*
X190846857Y-89381291I601041J601041D01*
G01*
X190846857Y-89381291D01*
G75*
G02*
X192048939Y-89381291I601041J-601041D01*
G01*
G37*
G36*
G01*
X190252887Y-91177342D02*
X190252887Y-91177342D01*
G75*
G02*
X190252887Y-92379424I-601041J-601041D01*
G01*
X190252887Y-92379424D01*
G75*
G02*
X189050805Y-92379424I-601041J601041D01*
G01*
X189050805Y-92379424D01*
G75*
G02*
X189050805Y-91177342I601041J601041D01*
G01*
X189050805Y-91177342D01*
G75*
G02*
X190252887Y-91177342I601041J-601041D01*
G01*
G37*
%TD*%
D17*
%TO.C,J24*%
X203915000Y-67369434D03*
%TD*%
%TO.C,J23*%
X235665000Y-172779434D03*
%TD*%
D18*
%TO.C,J22*%
X226267000Y-154618434D03*
%TD*%
%TO.C,J21*%
X213567000Y-86292434D03*
%TD*%
D11*
%TO.C,J19*%
X221362000Y-67322434D03*
X232362000Y-67322434D03*
D12*
X224362000Y-72322434D03*
D13*
X229362000Y-72322434D03*
%TD*%
D18*
%TO.C,J8*%
X213540000Y-76324434D03*
%TD*%
%TO.C,J7*%
X226290000Y-164824434D03*
%TD*%
D19*
%TO.C,J11*%
X264790000Y-116474434D03*
X264790000Y-123674434D03*
G36*
G01*
X271440000Y-113624434D02*
X270140000Y-113624434D01*
G75*
G02*
X269990000Y-113474434I0J150000D01*
G01*
X269990000Y-113174434D01*
G75*
G02*
X270140000Y-113024434I150000J0D01*
G01*
X271440000Y-113024434D01*
G75*
G02*
X271590000Y-113174434I0J-150000D01*
G01*
X271590000Y-113474434D01*
G75*
G02*
X271440000Y-113624434I-150000J0D01*
G01*
G37*
G36*
G01*
X271440000Y-127124434D02*
X270140000Y-127124434D01*
G75*
G02*
X269990000Y-126974434I0J150000D01*
G01*
X269990000Y-126674434D01*
G75*
G02*
X270140000Y-126524434I150000J0D01*
G01*
X271440000Y-126524434D01*
G75*
G02*
X271590000Y-126674434I0J-150000D01*
G01*
X271590000Y-126974434D01*
G75*
G02*
X271440000Y-127124434I-150000J0D01*
G01*
G37*
%TD*%
%TO.C,J12*%
X260560926Y-139456685D03*
X256960926Y-145692067D03*
G36*
G01*
X267744995Y-140313513D02*
X266619161Y-139663513D01*
G75*
G02*
X266564257Y-139458609I75000J129904D01*
G01*
X266714257Y-139198801D01*
G75*
G02*
X266919161Y-139143897I129904J-75000D01*
G01*
X268044995Y-139793897D01*
G75*
G02*
X268099899Y-139998801I-75000J-129904D01*
G01*
X267949899Y-140258609D01*
G75*
G02*
X267744995Y-140313513I-129904J75000D01*
G01*
G37*
G36*
G01*
X260994995Y-152004855D02*
X259869161Y-151354855D01*
G75*
G02*
X259814257Y-151149951I75000J129904D01*
G01*
X259964257Y-150890143D01*
G75*
G02*
X260169161Y-150835239I129904J-75000D01*
G01*
X261294995Y-151485239D01*
G75*
G02*
X261349899Y-151690143I-75000J-129904D01*
G01*
X261199899Y-151949951D01*
G75*
G02*
X260994995Y-152004855I-129904J75000D01*
G01*
G37*
%TD*%
%TO.C,J13*%
X245407315Y-157245360D03*
X239171933Y-160845360D03*
G36*
G01*
X251200487Y-161579429D02*
X250550487Y-160453595D01*
G75*
G02*
X250605391Y-160248691I129904J75000D01*
G01*
X250865199Y-160098691D01*
G75*
G02*
X251070103Y-160153595I75000J-129904D01*
G01*
X251720103Y-161279429D01*
G75*
G02*
X251665199Y-161484333I-129904J-75000D01*
G01*
X251405391Y-161634333D01*
G75*
G02*
X251200487Y-161579429I-75000J129904D01*
G01*
G37*
G36*
G01*
X239509145Y-168329429D02*
X238859145Y-167203595D01*
G75*
G02*
X238914049Y-166998691I129904J75000D01*
G01*
X239173857Y-166848691D01*
G75*
G02*
X239378761Y-166903595I75000J-129904D01*
G01*
X240028761Y-168029429D01*
G75*
G02*
X239973857Y-168234333I-129904J-75000D01*
G01*
X239714049Y-168384333D01*
G75*
G02*
X239509145Y-168329429I-75000J129904D01*
G01*
G37*
%TD*%
%TO.C,J14*%
X200407315Y-160844926D03*
X194171933Y-157244926D03*
G36*
G01*
X199550487Y-168028995D02*
X200200487Y-166903161D01*
G75*
G02*
X200405391Y-166848257I129904J-75000D01*
G01*
X200665199Y-166998257D01*
G75*
G02*
X200720103Y-167203161I-75000J-129904D01*
G01*
X200070103Y-168328995D01*
G75*
G02*
X199865199Y-168383899I-129904J75000D01*
G01*
X199605391Y-168233899D01*
G75*
G02*
X199550487Y-168028995I75000J129904D01*
G01*
G37*
G36*
G01*
X187859145Y-161278995D02*
X188509145Y-160153161D01*
G75*
G02*
X188714049Y-160098257I129904J-75000D01*
G01*
X188973857Y-160248257D01*
G75*
G02*
X189028761Y-160453161I-75000J-129904D01*
G01*
X188378761Y-161578995D01*
G75*
G02*
X188173857Y-161633899I-129904J75000D01*
G01*
X187914049Y-161483899D01*
G75*
G02*
X187859145Y-161278995I75000J129904D01*
G01*
G37*
%TD*%
%TO.C,J15*%
X182618640Y-145691315D03*
X179018640Y-139455933D03*
G36*
G01*
X178284571Y-151484487D02*
X179410405Y-150834487D01*
G75*
G02*
X179615309Y-150889391I75000J-129904D01*
G01*
X179765309Y-151149199D01*
G75*
G02*
X179710405Y-151354103I-129904J-75000D01*
G01*
X178584571Y-152004103D01*
G75*
G02*
X178379667Y-151949199I-75000J129904D01*
G01*
X178229667Y-151689391D01*
G75*
G02*
X178284571Y-151484487I129904J75000D01*
G01*
G37*
G36*
G01*
X171534571Y-139793145D02*
X172660405Y-139143145D01*
G75*
G02*
X172865309Y-139198049I75000J-129904D01*
G01*
X173015309Y-139457857D01*
G75*
G02*
X172960405Y-139662761I-129904J-75000D01*
G01*
X171834571Y-140312761D01*
G75*
G02*
X171629667Y-140257857I-75000J129904D01*
G01*
X171479667Y-139998049D01*
G75*
G02*
X171534571Y-139793145I129904J75000D01*
G01*
G37*
%TD*%
%TO.C,J16*%
X174790000Y-123673566D03*
X174790000Y-116473566D03*
G36*
G01*
X168140000Y-126523566D02*
X169440000Y-126523566D01*
G75*
G02*
X169590000Y-126673566I0J-150000D01*
G01*
X169590000Y-126973566D01*
G75*
G02*
X169440000Y-127123566I-150000J0D01*
G01*
X168140000Y-127123566D01*
G75*
G02*
X167990000Y-126973566I0J150000D01*
G01*
X167990000Y-126673566D01*
G75*
G02*
X168140000Y-126523566I150000J0D01*
G01*
G37*
G36*
G01*
X168140000Y-113023566D02*
X169440000Y-113023566D01*
G75*
G02*
X169590000Y-113173566I0J-150000D01*
G01*
X169590000Y-113473566D01*
G75*
G02*
X169440000Y-113623566I-150000J0D01*
G01*
X168140000Y-113623566D01*
G75*
G02*
X167990000Y-113473566I0J150000D01*
G01*
X167990000Y-113173566D01*
G75*
G02*
X168140000Y-113023566I150000J0D01*
G01*
G37*
%TD*%
%TO.C,J17*%
X179019074Y-100691315D03*
X182619074Y-94455933D03*
G36*
G01*
X171835005Y-99834487D02*
X172960839Y-100484487D01*
G75*
G02*
X173015743Y-100689391I-75000J-129904D01*
G01*
X172865743Y-100949199D01*
G75*
G02*
X172660839Y-101004103I-129904J75000D01*
G01*
X171535005Y-100354103D01*
G75*
G02*
X171480101Y-100149199I75000J129904D01*
G01*
X171630101Y-99889391D01*
G75*
G02*
X171835005Y-99834487I129904J-75000D01*
G01*
G37*
G36*
G01*
X178585005Y-88143145D02*
X179710839Y-88793145D01*
G75*
G02*
X179765743Y-88998049I-75000J-129904D01*
G01*
X179615743Y-89257857D01*
G75*
G02*
X179410839Y-89312761I-129904J75000D01*
G01*
X178285005Y-88662761D01*
G75*
G02*
X178230101Y-88457857I75000J129904D01*
G01*
X178380101Y-88198049D01*
G75*
G02*
X178585005Y-88143145I129904J-75000D01*
G01*
G37*
%TD*%
%TO.C,J18*%
X194172685Y-82902640D03*
X200408067Y-79302640D03*
G36*
G01*
X188379513Y-78568571D02*
X189029513Y-79694405D01*
G75*
G02*
X188974609Y-79899309I-129904J-75000D01*
G01*
X188714801Y-80049309D01*
G75*
G02*
X188509897Y-79994405I-75000J129904D01*
G01*
X187859897Y-78868571D01*
G75*
G02*
X187914801Y-78663667I129904J75000D01*
G01*
X188174609Y-78513667D01*
G75*
G02*
X188379513Y-78568571I75000J-129904D01*
G01*
G37*
G36*
G01*
X200070855Y-71818571D02*
X200720855Y-72944405D01*
G75*
G02*
X200665951Y-73149309I-129904J-75000D01*
G01*
X200406143Y-73299309D01*
G75*
G02*
X200201239Y-73244405I-75000J129904D01*
G01*
X199551239Y-72118571D01*
G75*
G02*
X199606143Y-71913667I129904J75000D01*
G01*
X199865951Y-71763667D01*
G75*
G02*
X200070855Y-71818571I75000J-129904D01*
G01*
G37*
%TD*%
%TO.C,J9*%
X239172685Y-79303074D03*
X245408067Y-82903074D03*
G36*
G01*
X240029513Y-72119005D02*
X239379513Y-73244839D01*
G75*
G02*
X239174609Y-73299743I-129904J75000D01*
G01*
X238914801Y-73149743D01*
G75*
G02*
X238859897Y-72944839I75000J129904D01*
G01*
X239509897Y-71819005D01*
G75*
G02*
X239714801Y-71764101I129904J-75000D01*
G01*
X239974609Y-71914101D01*
G75*
G02*
X240029513Y-72119005I-75000J-129904D01*
G01*
G37*
G36*
G01*
X251720855Y-78869005D02*
X251070855Y-79994839D01*
G75*
G02*
X250865951Y-80049743I-129904J75000D01*
G01*
X250606143Y-79899743D01*
G75*
G02*
X250551239Y-79694839I75000J129904D01*
G01*
X251201239Y-78569005D01*
G75*
G02*
X251406143Y-78514101I129904J-75000D01*
G01*
X251665951Y-78664101D01*
G75*
G02*
X251720855Y-78869005I-75000J-129904D01*
G01*
G37*
%TD*%
%TO.C,J10*%
X256961360Y-94456685D03*
X260561360Y-100692067D03*
G36*
G01*
X261295429Y-88663513D02*
X260169595Y-89313513D01*
G75*
G02*
X259964691Y-89258609I-75000J129904D01*
G01*
X259814691Y-88998801D01*
G75*
G02*
X259869595Y-88793897I129904J75000D01*
G01*
X260995429Y-88143897D01*
G75*
G02*
X261200333Y-88198801I75000J-129904D01*
G01*
X261350333Y-88458609D01*
G75*
G02*
X261295429Y-88663513I-129904J-75000D01*
G01*
G37*
G36*
G01*
X268045429Y-100354855D02*
X266919595Y-101004855D01*
G75*
G02*
X266714691Y-100949951I-75000J129904D01*
G01*
X266564691Y-100690143D01*
G75*
G02*
X266619595Y-100485239I129904J75000D01*
G01*
X267745429Y-99835239D01*
G75*
G02*
X267950333Y-99890143I75000J-129904D01*
G01*
X268100333Y-100149951D01*
G75*
G02*
X268045429Y-100354855I-129904J-75000D01*
G01*
G37*
%TD*%
D20*
%TO.C,M1*%
X258790000Y-81074434D03*
%TD*%
%TO.C,M4*%
X180790000Y-81074434D03*
%TD*%
%TO.C,M2*%
X258790000Y-159074434D03*
%TD*%
%TO.C,M3*%
X180790000Y-159074434D03*
%TD*%
D14*
%TO.C,Q10*%
G36*
X204659111Y-87067399D02*
G01*
X205059111Y-87760219D01*
X198130907Y-91760219D01*
X197730907Y-91067399D01*
X204659111Y-87067399D01*
G37*
G36*
X204698341Y-84735348D02*
G01*
X206098341Y-87160220D01*
X205405521Y-87560220D01*
X204005521Y-85135348D01*
X204698341Y-84735348D01*
G37*
G36*
X203659110Y-85335348D02*
G01*
X205059110Y-87760220D01*
X204366290Y-88160220D01*
X202966290Y-85735348D01*
X203659110Y-85335348D01*
G37*
G36*
X202619880Y-85935348D02*
G01*
X204019880Y-88360220D01*
X203327060Y-88760220D01*
X201927060Y-86335348D01*
X202619880Y-85935348D01*
G37*
G36*
X197423727Y-88935348D02*
G01*
X198823727Y-91360220D01*
X198130907Y-91760220D01*
X196730907Y-89335348D01*
X197423727Y-88935348D01*
G37*
G36*
X198462958Y-88335348D02*
G01*
X199862958Y-90760220D01*
X199170138Y-91160220D01*
X197770138Y-88735348D01*
X198462958Y-88335348D01*
G37*
G36*
X199502188Y-87735348D02*
G01*
X200902188Y-90160220D01*
X200209368Y-90560220D01*
X198809368Y-88135348D01*
X199502188Y-87735348D01*
G37*
G36*
X200541419Y-87135348D02*
G01*
X201941419Y-89560220D01*
X201248599Y-89960220D01*
X199848599Y-87535348D01*
X200541419Y-87135348D01*
G37*
G36*
X201580649Y-86535348D02*
G01*
X202980649Y-88960220D01*
X202287829Y-89360220D01*
X200887829Y-86935348D01*
X201580649Y-86535348D01*
G37*
G36*
X207564847Y-89200283D02*
G01*
X209414847Y-92404577D01*
X201014401Y-97254577D01*
X199164401Y-94050283D01*
X207564847Y-89200283D01*
G37*
G36*
X208981835Y-92654577D02*
G01*
X210431835Y-95166051D01*
X202897413Y-99516051D01*
X201447413Y-97004577D01*
X208981835Y-92654577D01*
G37*
G36*
X211038052Y-94816050D02*
G01*
X211738052Y-96028486D01*
X202991196Y-101078486D01*
X202291196Y-99866050D01*
X211038052Y-94816050D01*
G37*
%TD*%
D21*
%TO.C,U2*%
X212040000Y-76324434D03*
X212040000Y-86324434D03*
D22*
X210040000Y-86324434D03*
X210040000Y-85024434D03*
X210040000Y-83724434D03*
X210040000Y-87624434D03*
X210040000Y-88924434D03*
X212040000Y-82574434D03*
X212040000Y-90074434D03*
X214040000Y-88924434D03*
X214040000Y-87624434D03*
X214040000Y-86324434D03*
X214040000Y-85024434D03*
X214040000Y-83724434D03*
X212040000Y-80074434D03*
X212040000Y-72574434D03*
X210040000Y-78924434D03*
X210040000Y-77624434D03*
X210040000Y-76324434D03*
X210040000Y-75024434D03*
X210040000Y-73724434D03*
X214040000Y-78924434D03*
X214040000Y-77624434D03*
X214040000Y-76324434D03*
X214040000Y-75024434D03*
X214040000Y-73724434D03*
D23*
X233440000Y-83234434D03*
D24*
X233440000Y-81324434D03*
X233440000Y-79414434D03*
%TD*%
D21*
%TO.C,U1*%
X227790000Y-164574434D03*
X227790000Y-154574434D03*
D22*
X229790000Y-154574434D03*
X229790000Y-155874434D03*
X229790000Y-157174434D03*
X229790000Y-153274434D03*
X229790000Y-151974434D03*
X227790000Y-158324434D03*
X227790000Y-150824434D03*
X225790000Y-151974434D03*
X225790000Y-153274434D03*
X225790000Y-154574434D03*
X225790000Y-155874434D03*
X225790000Y-157174434D03*
X227790000Y-160824434D03*
X227790000Y-168324434D03*
X229790000Y-161974434D03*
X229790000Y-163274434D03*
X229790000Y-164574434D03*
X229790000Y-165874434D03*
X229790000Y-167174434D03*
X225790000Y-161974434D03*
X225790000Y-163274434D03*
X225790000Y-164574434D03*
X225790000Y-165874434D03*
X225790000Y-167174434D03*
D23*
X206390000Y-157664434D03*
D24*
X206390000Y-159574434D03*
X206390000Y-161484434D03*
%TD*%
D14*
%TO.C,Q9*%
G36*
X190182965Y-99054889D02*
G01*
X190875785Y-99454889D01*
X186875785Y-106383093D01*
X186182965Y-105983093D01*
X190182965Y-99054889D01*
G37*
G36*
X189050914Y-97015659D02*
G01*
X191475786Y-98415659D01*
X191075786Y-99108479D01*
X188650914Y-97708479D01*
X189050914Y-97015659D01*
G37*
G36*
X188450914Y-98054890D02*
G01*
X190875786Y-99454890D01*
X190475786Y-100147710D01*
X188050914Y-98747710D01*
X188450914Y-98054890D01*
G37*
G36*
X187850914Y-99094120D02*
G01*
X190275786Y-100494120D01*
X189875786Y-101186940D01*
X187450914Y-99786940D01*
X187850914Y-99094120D01*
G37*
G36*
X184850914Y-104290273D02*
G01*
X187275786Y-105690273D01*
X186875786Y-106383093D01*
X184450914Y-104983093D01*
X184850914Y-104290273D01*
G37*
G36*
X185450914Y-103251042D02*
G01*
X187875786Y-104651042D01*
X187475786Y-105343862D01*
X185050914Y-103943862D01*
X185450914Y-103251042D01*
G37*
G36*
X186050914Y-102211812D02*
G01*
X188475786Y-103611812D01*
X188075786Y-104304632D01*
X185650914Y-102904632D01*
X186050914Y-102211812D01*
G37*
G36*
X186650914Y-101172581D02*
G01*
X189075786Y-102572581D01*
X188675786Y-103265401D01*
X186250914Y-101865401D01*
X186650914Y-101172581D01*
G37*
G36*
X187250914Y-100133351D02*
G01*
X189675786Y-101533351D01*
X189275786Y-102226171D01*
X186850914Y-100826171D01*
X187250914Y-100133351D01*
G37*
G36*
X193765849Y-99449153D02*
G01*
X196970143Y-101299153D01*
X192120143Y-109699599D01*
X188915849Y-107849599D01*
X193765849Y-99449153D01*
G37*
G36*
X196720143Y-101732165D02*
G01*
X199231617Y-103182165D01*
X194881617Y-110716587D01*
X192370143Y-109266587D01*
X196720143Y-101732165D01*
G37*
G36*
X199581616Y-102575948D02*
G01*
X200794052Y-103275948D01*
X195744052Y-112022804D01*
X194531616Y-111322804D01*
X199581616Y-102575948D01*
G37*
%TD*%
%TO.C,Q1*%
G36*
X240809111Y-90466965D02*
G01*
X240409111Y-91159785D01*
X233480907Y-87159785D01*
X233880907Y-86466965D01*
X240809111Y-90466965D01*
G37*
G36*
X242848341Y-89334914D02*
G01*
X241448341Y-91759786D01*
X240755521Y-91359786D01*
X242155521Y-88934914D01*
X242848341Y-89334914D01*
G37*
G36*
X241809110Y-88734914D02*
G01*
X240409110Y-91159786D01*
X239716290Y-90759786D01*
X241116290Y-88334914D01*
X241809110Y-88734914D01*
G37*
G36*
X240769880Y-88134914D02*
G01*
X239369880Y-90559786D01*
X238677060Y-90159786D01*
X240077060Y-87734914D01*
X240769880Y-88134914D01*
G37*
G36*
X235573727Y-85134914D02*
G01*
X234173727Y-87559786D01*
X233480907Y-87159786D01*
X234880907Y-84734914D01*
X235573727Y-85134914D01*
G37*
G36*
X236612958Y-85734914D02*
G01*
X235212958Y-88159786D01*
X234520138Y-87759786D01*
X235920138Y-85334914D01*
X236612958Y-85734914D01*
G37*
G36*
X237652188Y-86334914D02*
G01*
X236252188Y-88759786D01*
X235559368Y-88359786D01*
X236959368Y-85934914D01*
X237652188Y-86334914D01*
G37*
G36*
X238691419Y-86934914D02*
G01*
X237291419Y-89359786D01*
X236598599Y-88959786D01*
X237998599Y-86534914D01*
X238691419Y-86934914D01*
G37*
G36*
X239730649Y-87534914D02*
G01*
X238330649Y-89959786D01*
X237637829Y-89559786D01*
X239037829Y-87134914D01*
X239730649Y-87534914D01*
G37*
G36*
X240414847Y-94049849D02*
G01*
X238564847Y-97254143D01*
X230164401Y-92404143D01*
X232014401Y-89199849D01*
X240414847Y-94049849D01*
G37*
G36*
X238131835Y-97004143D02*
G01*
X236681835Y-99515617D01*
X229147413Y-95165617D01*
X230597413Y-92654143D01*
X238131835Y-97004143D01*
G37*
G36*
X237288052Y-99865616D02*
G01*
X236588052Y-101078052D01*
X227841196Y-96028052D01*
X228541196Y-94815616D01*
X237288052Y-99865616D01*
G37*
%TD*%
%TO.C,Q2*%
G36*
X252796601Y-104943111D02*
G01*
X252103781Y-105343111D01*
X248103781Y-98414907D01*
X248796601Y-98014907D01*
X252796601Y-104943111D01*
G37*
G36*
X255128652Y-104982341D02*
G01*
X252703780Y-106382341D01*
X252303780Y-105689521D01*
X254728652Y-104289521D01*
X255128652Y-104982341D01*
G37*
G36*
X254528652Y-103943110D02*
G01*
X252103780Y-105343110D01*
X251703780Y-104650290D01*
X254128652Y-103250290D01*
X254528652Y-103943110D01*
G37*
G36*
X253928652Y-102903880D02*
G01*
X251503780Y-104303880D01*
X251103780Y-103611060D01*
X253528652Y-102211060D01*
X253928652Y-102903880D01*
G37*
G36*
X250928652Y-97707727D02*
G01*
X248503780Y-99107727D01*
X248103780Y-98414907D01*
X250528652Y-97014907D01*
X250928652Y-97707727D01*
G37*
G36*
X251528652Y-98746958D02*
G01*
X249103780Y-100146958D01*
X248703780Y-99454138D01*
X251128652Y-98054138D01*
X251528652Y-98746958D01*
G37*
G36*
X252128652Y-99786188D02*
G01*
X249703780Y-101186188D01*
X249303780Y-100493368D01*
X251728652Y-99093368D01*
X252128652Y-99786188D01*
G37*
G36*
X252728652Y-100825419D02*
G01*
X250303780Y-102225419D01*
X249903780Y-101532599D01*
X252328652Y-100132599D01*
X252728652Y-100825419D01*
G37*
G36*
X253328652Y-101864649D02*
G01*
X250903780Y-103264649D01*
X250503780Y-102571829D01*
X252928652Y-101171829D01*
X253328652Y-101864649D01*
G37*
G36*
X250663717Y-107848847D02*
G01*
X247459423Y-109698847D01*
X242609423Y-101298401D01*
X245813717Y-99448401D01*
X250663717Y-107848847D01*
G37*
G36*
X247209423Y-109265835D02*
G01*
X244697949Y-110715835D01*
X240347949Y-103181413D01*
X242859423Y-101731413D01*
X247209423Y-109265835D01*
G37*
G36*
X245047950Y-111322052D02*
G01*
X243835514Y-112022052D01*
X238785514Y-103275196D01*
X239997950Y-102575196D01*
X245047950Y-111322052D01*
G37*
%TD*%
D25*
%TO.C,Q3*%
X255540000Y-119473566D03*
D26*
X256540000Y-124273566D03*
X256540000Y-123073566D03*
X256540000Y-121873566D03*
X256540000Y-115873566D03*
X256540000Y-117073566D03*
X256540000Y-118273566D03*
X256540000Y-119473566D03*
X256540000Y-120673566D03*
D27*
X250790000Y-120073566D03*
D28*
X247490000Y-120073566D03*
D29*
X245340000Y-120073566D03*
%TD*%
D14*
%TO.C,Q4*%
G36*
X249397035Y-141093111D02*
G01*
X248704215Y-140693111D01*
X252704215Y-133764907D01*
X253397035Y-134164907D01*
X249397035Y-141093111D01*
G37*
G36*
X250529086Y-143132341D02*
G01*
X248104214Y-141732341D01*
X248504214Y-141039521D01*
X250929086Y-142439521D01*
X250529086Y-143132341D01*
G37*
G36*
X251129086Y-142093110D02*
G01*
X248704214Y-140693110D01*
X249104214Y-140000290D01*
X251529086Y-141400290D01*
X251129086Y-142093110D01*
G37*
G36*
X251729086Y-141053880D02*
G01*
X249304214Y-139653880D01*
X249704214Y-138961060D01*
X252129086Y-140361060D01*
X251729086Y-141053880D01*
G37*
G36*
X254729086Y-135857727D02*
G01*
X252304214Y-134457727D01*
X252704214Y-133764907D01*
X255129086Y-135164907D01*
X254729086Y-135857727D01*
G37*
G36*
X254129086Y-136896958D02*
G01*
X251704214Y-135496958D01*
X252104214Y-134804138D01*
X254529086Y-136204138D01*
X254129086Y-136896958D01*
G37*
G36*
X253529086Y-137936188D02*
G01*
X251104214Y-136536188D01*
X251504214Y-135843368D01*
X253929086Y-137243368D01*
X253529086Y-137936188D01*
G37*
G36*
X252929086Y-138975419D02*
G01*
X250504214Y-137575419D01*
X250904214Y-136882599D01*
X253329086Y-138282599D01*
X252929086Y-138975419D01*
G37*
G36*
X252329086Y-140014649D02*
G01*
X249904214Y-138614649D01*
X250304214Y-137921829D01*
X252729086Y-139321829D01*
X252329086Y-140014649D01*
G37*
G36*
X245814151Y-140698847D02*
G01*
X242609857Y-138848847D01*
X247459857Y-130448401D01*
X250664151Y-132298401D01*
X245814151Y-140698847D01*
G37*
G36*
X242859857Y-138415835D02*
G01*
X240348383Y-136965835D01*
X244698383Y-129431413D01*
X247209857Y-130881413D01*
X242859857Y-138415835D01*
G37*
G36*
X239998384Y-137572052D02*
G01*
X238785948Y-136872052D01*
X243835948Y-128125196D01*
X245048384Y-128825196D01*
X239998384Y-137572052D01*
G37*
%TD*%
%TO.C,Q5*%
G36*
X234920889Y-153080601D02*
G01*
X234520889Y-152387781D01*
X241449093Y-148387781D01*
X241849093Y-149080601D01*
X234920889Y-153080601D01*
G37*
G36*
X234881659Y-155412652D02*
G01*
X233481659Y-152987780D01*
X234174479Y-152587780D01*
X235574479Y-155012652D01*
X234881659Y-155412652D01*
G37*
G36*
X235920890Y-154812652D02*
G01*
X234520890Y-152387780D01*
X235213710Y-151987780D01*
X236613710Y-154412652D01*
X235920890Y-154812652D01*
G37*
G36*
X236960120Y-154212652D02*
G01*
X235560120Y-151787780D01*
X236252940Y-151387780D01*
X237652940Y-153812652D01*
X236960120Y-154212652D01*
G37*
G36*
X242156273Y-151212652D02*
G01*
X240756273Y-148787780D01*
X241449093Y-148387780D01*
X242849093Y-150812652D01*
X242156273Y-151212652D01*
G37*
G36*
X241117042Y-151812652D02*
G01*
X239717042Y-149387780D01*
X240409862Y-148987780D01*
X241809862Y-151412652D01*
X241117042Y-151812652D01*
G37*
G36*
X240077812Y-152412652D02*
G01*
X238677812Y-149987780D01*
X239370632Y-149587780D01*
X240770632Y-152012652D01*
X240077812Y-152412652D01*
G37*
G36*
X239038581Y-153012652D02*
G01*
X237638581Y-150587780D01*
X238331401Y-150187780D01*
X239731401Y-152612652D01*
X239038581Y-153012652D01*
G37*
G36*
X237999351Y-153612652D02*
G01*
X236599351Y-151187780D01*
X237292171Y-150787780D01*
X238692171Y-153212652D01*
X237999351Y-153612652D01*
G37*
G36*
X232015153Y-150947717D02*
G01*
X230165153Y-147743423D01*
X238565599Y-142893423D01*
X240415599Y-146097717D01*
X232015153Y-150947717D01*
G37*
G36*
X230598165Y-147493423D02*
G01*
X229148165Y-144981949D01*
X236682587Y-140631949D01*
X238132587Y-143143423D01*
X230598165Y-147493423D01*
G37*
G36*
X228541948Y-145331950D02*
G01*
X227841948Y-144119514D01*
X236588804Y-139069514D01*
X237288804Y-140281950D01*
X228541948Y-145331950D01*
G37*
%TD*%
%TO.C,Q6*%
G36*
X198770889Y-149681035D02*
G01*
X199170889Y-148988215D01*
X206099093Y-152988215D01*
X205699093Y-153681035D01*
X198770889Y-149681035D01*
G37*
G36*
X196731659Y-150813086D02*
G01*
X198131659Y-148388214D01*
X198824479Y-148788214D01*
X197424479Y-151213086D01*
X196731659Y-150813086D01*
G37*
G36*
X197770890Y-151413086D02*
G01*
X199170890Y-148988214D01*
X199863710Y-149388214D01*
X198463710Y-151813086D01*
X197770890Y-151413086D01*
G37*
G36*
X198810120Y-152013086D02*
G01*
X200210120Y-149588214D01*
X200902940Y-149988214D01*
X199502940Y-152413086D01*
X198810120Y-152013086D01*
G37*
G36*
X204006273Y-155013086D02*
G01*
X205406273Y-152588214D01*
X206099093Y-152988214D01*
X204699093Y-155413086D01*
X204006273Y-155013086D01*
G37*
G36*
X202967042Y-154413086D02*
G01*
X204367042Y-151988214D01*
X205059862Y-152388214D01*
X203659862Y-154813086D01*
X202967042Y-154413086D01*
G37*
G36*
X201927812Y-153813086D02*
G01*
X203327812Y-151388214D01*
X204020632Y-151788214D01*
X202620632Y-154213086D01*
X201927812Y-153813086D01*
G37*
G36*
X200888581Y-153213086D02*
G01*
X202288581Y-150788214D01*
X202981401Y-151188214D01*
X201581401Y-153613086D01*
X200888581Y-153213086D01*
G37*
G36*
X199849351Y-152613086D02*
G01*
X201249351Y-150188214D01*
X201942171Y-150588214D01*
X200542171Y-153013086D01*
X199849351Y-152613086D01*
G37*
G36*
X199165153Y-146098151D02*
G01*
X201015153Y-142893857D01*
X209415599Y-147743857D01*
X207565599Y-150948151D01*
X199165153Y-146098151D01*
G37*
G36*
X201448165Y-143143857D02*
G01*
X202898165Y-140632383D01*
X210432587Y-144982383D01*
X208982587Y-147493857D01*
X201448165Y-143143857D01*
G37*
G36*
X202291948Y-140282384D02*
G01*
X202991948Y-139069948D01*
X211738804Y-144119948D01*
X211038804Y-145332384D01*
X202291948Y-140282384D01*
G37*
%TD*%
%TO.C,Q7*%
G36*
X186783399Y-135204889D02*
G01*
X187476219Y-134804889D01*
X191476219Y-141733093D01*
X190783399Y-142133093D01*
X186783399Y-135204889D01*
G37*
G36*
X184451348Y-135165659D02*
G01*
X186876220Y-133765659D01*
X187276220Y-134458479D01*
X184851348Y-135858479D01*
X184451348Y-135165659D01*
G37*
G36*
X185051348Y-136204890D02*
G01*
X187476220Y-134804890D01*
X187876220Y-135497710D01*
X185451348Y-136897710D01*
X185051348Y-136204890D01*
G37*
G36*
X185651348Y-137244120D02*
G01*
X188076220Y-135844120D01*
X188476220Y-136536940D01*
X186051348Y-137936940D01*
X185651348Y-137244120D01*
G37*
G36*
X188651348Y-142440273D02*
G01*
X191076220Y-141040273D01*
X191476220Y-141733093D01*
X189051348Y-143133093D01*
X188651348Y-142440273D01*
G37*
G36*
X188051348Y-141401042D02*
G01*
X190476220Y-140001042D01*
X190876220Y-140693862D01*
X188451348Y-142093862D01*
X188051348Y-141401042D01*
G37*
G36*
X187451348Y-140361812D02*
G01*
X189876220Y-138961812D01*
X190276220Y-139654632D01*
X187851348Y-141054632D01*
X187451348Y-140361812D01*
G37*
G36*
X186851348Y-139322581D02*
G01*
X189276220Y-137922581D01*
X189676220Y-138615401D01*
X187251348Y-140015401D01*
X186851348Y-139322581D01*
G37*
G36*
X186251348Y-138283351D02*
G01*
X188676220Y-136883351D01*
X189076220Y-137576171D01*
X186651348Y-138976171D01*
X186251348Y-138283351D01*
G37*
G36*
X188916283Y-132299153D02*
G01*
X192120577Y-130449153D01*
X196970577Y-138849599D01*
X193766283Y-140699599D01*
X188916283Y-132299153D01*
G37*
G36*
X192370577Y-130882165D02*
G01*
X194882051Y-129432165D01*
X199232051Y-136966587D01*
X196720577Y-138416587D01*
X192370577Y-130882165D01*
G37*
G36*
X194532050Y-128825948D02*
G01*
X195744486Y-128125948D01*
X200794486Y-136872804D01*
X199582050Y-137572804D01*
X194532050Y-128825948D01*
G37*
%TD*%
D25*
%TO.C,Q8*%
X184040000Y-120674434D03*
D26*
X183040000Y-115874434D03*
X183040000Y-117074434D03*
X183040000Y-118274434D03*
X183040000Y-124274434D03*
X183040000Y-123074434D03*
X183040000Y-121874434D03*
X183040000Y-120674434D03*
X183040000Y-119474434D03*
D27*
X188790000Y-120074434D03*
D28*
X192090000Y-120074434D03*
D29*
X194240000Y-120074434D03*
%TD*%
M02*
