%TF.GenerationSoftware,KiCad,Pcbnew,9.0.7*%
%TF.CreationDate,2026-03-18T17:04:26-04:00*%
%TF.ProjectId,sam4,73616d34-2e6b-4696-9361-645f70636258,rev?*%
%TF.SameCoordinates,Original*%
%TF.FileFunction,Profile,NP*%
%FSLAX46Y46*%
G04 Gerber Fmt 4.6, Leading zero omitted, Abs format (unit mm)*
G04 Created by KiCad (PCBNEW 9.0.7) date 2026-03-18 17:04:26*
%MOMM*%
%LPD*%
G01*
G04 APERTURE LIST*
%TA.AperFunction,Profile*%
%ADD10C,0.200000*%
%TD*%
%TA.AperFunction,Profile*%
%ADD11C,0.050000*%
%TD*%
G04 APERTURE END LIST*
D10*
X203600000Y-52409996D02*
X228100000Y-52409996D01*
X197450000Y-83050000D02*
X197450000Y-58550000D01*
D11*
X282400000Y-45600000D02*
X282400000Y-138400000D01*
X254200000Y-138400000D02*
X233200000Y-163000000D01*
X200600000Y-83050000D02*
X197450000Y-83050000D01*
X198800000Y-22000000D02*
X232600000Y-22000000D01*
X177800000Y-45600000D02*
X198800000Y-22000000D01*
D10*
X203600000Y-89239996D02*
X228100000Y-89239996D01*
X234200000Y-83050000D02*
X234200000Y-58550000D01*
D11*
X177600000Y-138600000D02*
X148600000Y-138600000D01*
X148600000Y-138600000D02*
X148600000Y-45600000D01*
X231100000Y-83050000D02*
X234200000Y-83050000D01*
D10*
X231045000Y-58550000D02*
G75*
G02*
X228100000Y-55604992I55000J3000000D01*
G01*
D11*
X148600000Y-45600000D02*
X177800000Y-45600000D01*
X232600000Y-22000000D02*
X253600000Y-45600000D01*
D10*
X200600000Y-83050000D02*
G75*
G02*
X203600000Y-86050000I0J-3000000D01*
G01*
D11*
X203600000Y-86050000D02*
X203600000Y-89239996D01*
X234200000Y-58550000D02*
X231045007Y-58550000D01*
X233200000Y-163000000D02*
X198400000Y-163000000D01*
X200600000Y-58550000D02*
X197450000Y-58550000D01*
X203600000Y-55550000D02*
X203600000Y-52409996D01*
X228100000Y-86050000D02*
X228100000Y-89239996D01*
X282400000Y-138400000D02*
X254200000Y-138400000D01*
D10*
X228100000Y-86050000D02*
G75*
G02*
X231100000Y-83050000I3000000J0D01*
G01*
X203600000Y-55550000D02*
G75*
G02*
X200600000Y-58550000I-3000000J0D01*
G01*
D11*
X228100000Y-55604993D02*
X228100000Y-52409996D01*
X198400000Y-163000000D02*
X177600000Y-138600000D01*
X253600000Y-45600000D02*
X282400000Y-45600000D01*
M02*
