%TF.GenerationSoftware,KiCad,Pcbnew,9.0.7*%
%TF.CreationDate,2026-03-18T17:04:26-04:00*%
%TF.ProjectId,sam4,73616d34-2e6b-4696-9361-645f70636258,rev?*%
%TF.SameCoordinates,Original*%
%TF.FileFunction,Copper,L4,Bot*%
%TF.FilePolarity,Positive*%
%FSLAX46Y46*%
G04 Gerber Fmt 4.6, Leading zero omitted, Abs format (unit mm)*
G04 Created by KiCad (PCBNEW 9.0.7) date 2026-03-18 17:04:26*
%MOMM*%
%LPD*%
G01*
G04 APERTURE LIST*
G04 Aperture macros list*
%AMRoundRect*
0 Rectangle with rounded corners*
0 $1 Rounding radius*
0 $2 $3 $4 $5 $6 $7 $8 $9 X,Y pos of 4 corners*
0 Add a 4 corners polygon primitive as box body*
4,1,4,$2,$3,$4,$5,$6,$7,$8,$9,$2,$3,0*
0 Add four circle primitives for the rounded corners*
1,1,$1+$1,$2,$3*
1,1,$1+$1,$4,$5*
1,1,$1+$1,$6,$7*
1,1,$1+$1,$8,$9*
0 Add four rect primitives between the rounded corners*
20,1,$1+$1,$2,$3,$4,$5,0*
20,1,$1+$1,$4,$5,$6,$7,0*
20,1,$1+$1,$6,$7,$8,$9,0*
20,1,$1+$1,$8,$9,$2,$3,0*%
G04 Aperture macros list end*
%TA.AperFunction,ComponentPad*%
%ADD10C,1.400000*%
%TD*%
%TA.AperFunction,ComponentPad*%
%ADD11RoundRect,0.750000X-1.056624X-0.092443X0.092443X-1.056624X1.056624X0.092443X-0.092443X1.056624X0*%
%TD*%
%TA.AperFunction,ComponentPad*%
%ADD12C,3.000000*%
%TD*%
%TA.AperFunction,ComponentPad*%
%ADD13R,1.700000X1.700000*%
%TD*%
%TA.AperFunction,ComponentPad*%
%ADD14C,1.700000*%
%TD*%
%TA.AperFunction,ComponentPad*%
%ADD15R,0.900000X2.000000*%
%TD*%
%TA.AperFunction,ComponentPad*%
%ADD16RoundRect,1.025000X-1.025000X-1.025000X1.025000X-1.025000X1.025000X1.025000X-1.025000X1.025000X0*%
%TD*%
%TA.AperFunction,ComponentPad*%
%ADD17C,4.100000*%
%TD*%
%TA.AperFunction,ComponentPad*%
%ADD18RoundRect,0.770000X0.980000X-0.980000X0.980000X0.980000X-0.980000X0.980000X-0.980000X-0.980000X0*%
%TD*%
%TA.AperFunction,ComponentPad*%
%ADD19C,3.500000*%
%TD*%
%TA.AperFunction,ComponentPad*%
%ADD20RoundRect,0.750000X1.056624X0.092443X-0.092443X1.056624X-1.056624X-0.092443X0.092443X-1.056624X0*%
%TD*%
%TA.AperFunction,ComponentPad*%
%ADD21C,2.500000*%
%TD*%
%TA.AperFunction,ComponentPad*%
%ADD22C,3.700000*%
%TD*%
%TA.AperFunction,SMDPad,CuDef*%
%ADD23R,9.000000X6.000000*%
%TD*%
%TA.AperFunction,SMDPad,CuDef*%
%ADD24R,7.000000X4.000000*%
%TD*%
%TA.AperFunction,SMDPad,CuDef*%
%ADD25R,5.500000X4.000000*%
%TD*%
%TA.AperFunction,ComponentPad*%
%ADD26RoundRect,0.750000X0.092443X1.056624X-1.056624X0.092443X-0.092443X-1.056624X1.056624X-0.092443X0*%
%TD*%
%TA.AperFunction,ComponentPad*%
%ADD27C,0.800000*%
%TD*%
%TA.AperFunction,HeatsinkPad*%
%ADD28O,2.100000X1.000000*%
%TD*%
%TA.AperFunction,HeatsinkPad*%
%ADD29O,1.800000X1.000000*%
%TD*%
%TA.AperFunction,ComponentPad*%
%ADD30C,1.440000*%
%TD*%
%TA.AperFunction,ComponentPad*%
%ADD31RoundRect,0.750000X-0.092443X-1.056624X1.056624X-0.092443X0.092443X1.056624X-1.056624X0.092443X0*%
%TD*%
%TA.AperFunction,ComponentPad*%
%ADD32C,1.524000*%
%TD*%
%TA.AperFunction,ComponentPad*%
%ADD33RoundRect,0.750000X0.750000X-0.750000X0.750000X0.750000X-0.750000X0.750000X-0.750000X-0.750000X0*%
%TD*%
%TA.AperFunction,ComponentPad*%
%ADD34C,2.200000*%
%TD*%
%TA.AperFunction,SMDPad,CuDef*%
%ADD35R,0.600000X0.800000*%
%TD*%
%TA.AperFunction,SMDPad,CuDef*%
%ADD36R,0.600000X2.000000*%
%TD*%
%TA.AperFunction,SMDPad,CuDef*%
%ADD37R,0.800000X0.600000*%
%TD*%
%TA.AperFunction,SMDPad,CuDef*%
%ADD38R,2.000000X0.600000*%
%TD*%
%TA.AperFunction,SMDPad,CuDef*%
%ADD39RoundRect,0.250000X-0.650000X0.325000X-0.650000X-0.325000X0.650000X-0.325000X0.650000X0.325000X0*%
%TD*%
%TA.AperFunction,SMDPad,CuDef*%
%ADD40RoundRect,0.250000X0.650000X-0.325000X0.650000X0.325000X-0.650000X0.325000X-0.650000X-0.325000X0*%
%TD*%
%TA.AperFunction,SMDPad,CuDef*%
%ADD41RoundRect,0.317500X-0.317500X-0.571500X0.317500X-0.571500X0.317500X0.571500X-0.317500X0.571500X0*%
%TD*%
%TA.AperFunction,SMDPad,CuDef*%
%ADD42R,1.270000X1.778000*%
%TD*%
%TA.AperFunction,SMDPad,CuDef*%
%ADD43RoundRect,0.317500X-0.571500X-0.317500X0.571500X-0.317500X0.571500X0.317500X-0.571500X0.317500X0*%
%TD*%
%TA.AperFunction,ComponentPad*%
%ADD44RoundRect,0.250000X0.750000X-0.600000X0.750000X0.600000X-0.750000X0.600000X-0.750000X-0.600000X0*%
%TD*%
%TA.AperFunction,ComponentPad*%
%ADD45O,2.000000X1.700000*%
%TD*%
%TA.AperFunction,SMDPad,CuDef*%
%ADD46RoundRect,0.250000X-0.450000X0.350000X-0.450000X-0.350000X0.450000X-0.350000X0.450000X0.350000X0*%
%TD*%
%TA.AperFunction,SMDPad,CuDef*%
%ADD47RoundRect,0.250000X1.750000X1.000000X-1.750000X1.000000X-1.750000X-1.000000X1.750000X-1.000000X0*%
%TD*%
%TA.AperFunction,SMDPad,CuDef*%
%ADD48RoundRect,0.250000X0.450000X-0.350000X0.450000X0.350000X-0.450000X0.350000X-0.450000X-0.350000X0*%
%TD*%
%TA.AperFunction,ViaPad*%
%ADD49C,0.500000*%
%TD*%
%TA.AperFunction,ViaPad*%
%ADD50C,0.700000*%
%TD*%
%TA.AperFunction,ViaPad*%
%ADD51C,1.000000*%
%TD*%
%TA.AperFunction,ViaPad*%
%ADD52C,0.600000*%
%TD*%
%TA.AperFunction,Conductor*%
%ADD53C,0.200000*%
%TD*%
%TA.AperFunction,Conductor*%
%ADD54C,0.400000*%
%TD*%
%TA.AperFunction,Conductor*%
%ADD55C,0.300000*%
%TD*%
%TA.AperFunction,Conductor*%
%ADD56C,0.110000*%
%TD*%
G04 APERTURE END LIST*
D10*
%TO.P,M4,*%
%TO.N,*%
X175145724Y-56017336D03*
X185104301Y-64373575D03*
D11*
%TO.P,M4,1,Pin_1*%
%TO.N,/esc_landing/M1c*%
X179592230Y-66275434D03*
D12*
%TO.P,M4,2,Pin_2*%
%TO.N,/esc_landing/M1b*%
X176911074Y-64025677D03*
%TO.P,M4,3,Pin_3*%
%TO.N,/esc_landing/M1a*%
X174229919Y-61775921D03*
%TD*%
D13*
%TO.P,U10,1,VOUT*%
%TO.N,Net-(U10-VOUT)*%
X258660000Y-70920000D03*
D14*
X261200000Y-70920000D03*
%TO.P,U10,2,GND*%
%TO.N,GND*%
X258660000Y-73460000D03*
X258660000Y-76000000D03*
X261200000Y-73460000D03*
X261200000Y-76000000D03*
%TO.P,U10,3,VIN*%
%TO.N,BATT_AUX*%
X258660000Y-78540000D03*
X261200000Y-78540000D03*
%TO.P,U10,4,VRP*%
%TO.N,unconnected-(U10-VRP-Pad4)_1*%
X258660000Y-81080000D03*
%TO.N,unconnected-(U10-VRP-Pad4)*%
X261200000Y-81080000D03*
%TO.P,U10,5,EN*%
%TO.N,/aux_power/5v_enb*%
X258660000Y-83620000D03*
%TO.P,U10,6,PG*%
%TO.N,unconnected-(U10-PG-Pad6)*%
X261200000Y-83620000D03*
%TD*%
D15*
%TO.P,J7,*%
%TO.N,*%
X218450000Y-24600000D03*
X231950000Y-24600000D03*
D16*
%TO.P,J7,1,Pin_1*%
%TO.N,GND*%
X221600000Y-30600000D03*
D17*
%TO.P,J7,2,Pin_2*%
%TO.N,+BATT*%
X228800000Y-30600000D03*
%TD*%
D10*
%TO.P,J8,*%
%TO.N,*%
X151000000Y-137200000D03*
X151000000Y-126200000D03*
D18*
%TO.P,J8,1,Pin_1*%
%TO.N,GND*%
X156000000Y-134200000D03*
D19*
%TO.P,J8,2,Pin_2*%
%TO.N,BATT_AUX*%
X156000000Y-129200000D03*
%TD*%
D10*
%TO.P,M1,*%
%TO.N,*%
X256254276Y-132582665D03*
X246295699Y-124226426D03*
D20*
%TO.P,M1,1,Pin_1*%
%TO.N,/esc_landing/M4b*%
X251807770Y-122324567D03*
D12*
%TO.P,M1,2,Pin_2*%
%TO.N,/esc_landing/M4c*%
X254488926Y-124574324D03*
%TO.P,M1,3,Pin_3*%
%TO.N,/esc_landing/M4a*%
X257170081Y-126824080D03*
%TD*%
D21*
%TO.P,U4,1,Vin(+)*%
%TO.N,Net-(U4-Vin(+))*%
X177620000Y-74200000D03*
%TO.P,U4,2,ON/OFF*%
%TO.N,GND*%
X170000000Y-74200000D03*
%TO.P,U4,3,Vin(-)*%
X162380000Y-74200000D03*
D22*
%TO.P,U4,4,Vout(-)*%
X162380000Y-87800000D03*
D21*
%TO.P,U4,5,Power_Good*%
%TO.N,unconnected-(U4-Power_Good-Pad5)*%
X166190000Y-87800000D03*
%TO.P,U4,6,TRIM*%
%TO.N,Net-(U4-TRIM)*%
X170000000Y-87800000D03*
%TO.P,U4,7,SENSE(+)*%
%TO.N,5V3_Primary*%
X173810000Y-87800000D03*
D22*
%TO.P,U4,8,Vout(+)*%
X177620000Y-87800000D03*
%TD*%
D23*
%TO.P,U2,1,Batt+*%
%TO.N,+BATT*%
X210720000Y-48782000D03*
%TO.P,U2,2,Batt-*%
%TO.N,GND*%
X220880000Y-48782000D03*
D24*
%TO.P,U2,13,M1a*%
%TO.N,/esc_landing/M1a*%
X193390000Y-57754000D03*
%TO.P,U2,14,M1b*%
%TO.N,/esc_landing/M1b*%
X193390000Y-62954000D03*
%TO.P,U2,15,M1c*%
%TO.N,/esc_landing/M1c*%
X193390000Y-68168000D03*
%TO.P,U2,16,M2a*%
%TO.N,/esc_landing/M2a*%
X193390000Y-73354000D03*
%TO.P,U2,17,M2b*%
%TO.N,/esc_landing/M2b*%
X193390000Y-78554000D03*
D25*
%TO.P,U2,18,M2c*%
%TO.N,/esc_landing/M2c*%
X194152000Y-83754000D03*
D24*
%TO.P,U2,19,M3a*%
%TO.N,/esc_landing/M3a*%
X238252000Y-57754000D03*
%TO.P,U2,20,M3b*%
%TO.N,/esc_landing/M3b*%
X238252000Y-62954000D03*
%TO.P,U2,21,M3c*%
%TO.N,/esc_landing/M3c*%
X238252000Y-68168000D03*
%TO.P,U2,22,M4a*%
%TO.N,/esc_landing/M4a*%
X238252000Y-73354000D03*
%TO.P,U2,23,M4b*%
%TO.N,/esc_landing/M4b*%
X238252000Y-78582000D03*
D25*
%TO.P,U2,24,M4c*%
%TO.N,/esc_landing/M4c*%
X237490000Y-83754000D03*
%TD*%
D10*
%TO.P,M3,*%
%TO.N,*%
X185304302Y-124626426D03*
X175345725Y-132982665D03*
D26*
%TO.P,M3,1,Pin_1*%
%TO.N,/esc_landing/M2a*%
X174429920Y-127224080D03*
D12*
%TO.P,M3,2,Pin_2*%
%TO.N,/esc_landing/M2c*%
X177111076Y-124974323D03*
%TO.P,M3,3,Pin_3*%
%TO.N,/esc_landing/M2b*%
X179792231Y-122724567D03*
%TD*%
D27*
%TO.P,C2,2,2*%
%TO.N,GND*%
X213550000Y-145400000D03*
X211250000Y-145400000D03*
%TD*%
D13*
%TO.P,J10,1,Pin_1*%
%TO.N,/aux_power/5v_enb*%
X254800000Y-84600000D03*
D14*
%TO.P,J10,2,Pin_2*%
%TO.N,/aux_power/12v_enb*%
X254800000Y-87140000D03*
%TO.P,J10,3,Pin_3*%
%TO.N,GND*%
X252260000Y-84600000D03*
%TO.P,J10,4,Pin_4*%
X252260000Y-87140000D03*
%TD*%
D28*
%TO.P,J9,S1,SHIELD*%
%TO.N,GND*%
X156025000Y-98380000D03*
D29*
X151825000Y-98380000D03*
D28*
X156025000Y-107020000D03*
D29*
X151825000Y-107020000D03*
%TD*%
D27*
%TO.P,C1,2,2*%
%TO.N,GND*%
X228550000Y-145200000D03*
X226250000Y-145200000D03*
%TD*%
D30*
%TO.P,RV2,1,1*%
%TO.N,Net-(R2-Pad1)*%
X173000000Y-115200000D03*
%TO.P,RV2,2,2*%
%TO.N,Net-(U6-TRIM)*%
X170460000Y-117740000D03*
%TO.P,RV2,3,3*%
%TO.N,unconnected-(RV2-Pad3)*%
X167920000Y-115200000D03*
%TD*%
D10*
%TO.P,M2,*%
%TO.N,*%
X246371381Y-64173575D03*
X256329958Y-55817336D03*
D31*
%TO.P,M2,1,Pin_1*%
%TO.N,/esc_landing/M3a*%
X257245763Y-61575921D03*
D12*
%TO.P,M2,2,Pin_2*%
%TO.N,/esc_landing/M3b*%
X254564607Y-63825678D03*
%TO.P,M2,3,Pin_3*%
%TO.N,/esc_landing/M3c*%
X251883452Y-66075434D03*
%TD*%
D15*
%TO.P,J6,*%
%TO.N,*%
X199850000Y-24600000D03*
X213350000Y-24600000D03*
D16*
%TO.P,J6,1,Pin_1*%
%TO.N,GND*%
X203000000Y-30600000D03*
D17*
%TO.P,J6,2,Pin_2*%
%TO.N,+BATT*%
X210200000Y-30600000D03*
%TD*%
D13*
%TO.P,U11,1,VOUT*%
%TO.N,Net-(U11-VOUT)*%
X258660000Y-96700000D03*
D14*
X261200000Y-96700000D03*
%TO.P,U11,2,GND*%
%TO.N,GND*%
X258660000Y-99240000D03*
X258660000Y-101780000D03*
X261200000Y-99240000D03*
X261200000Y-101780000D03*
%TO.P,U11,3,VIN*%
%TO.N,BATT_AUX*%
X258660000Y-104320000D03*
X261200000Y-104320000D03*
%TO.P,U11,4,VRP*%
%TO.N,unconnected-(U11-VRP-Pad4)*%
X258660000Y-106860000D03*
%TO.N,unconnected-(U11-VRP-Pad4)_1*%
X261200000Y-106860000D03*
%TO.P,U11,5,EN*%
%TO.N,/aux_power/12v_enb*%
X258660000Y-109400000D03*
%TO.P,U11,6,PG*%
%TO.N,unconnected-(U11-PG-Pad6)*%
X261200000Y-109400000D03*
%TD*%
D32*
%TO.P,J11,1,Pin_1*%
%TO.N,GND*%
X231800000Y-156200000D03*
%TO.P,J11,2,Pin_2*%
%TO.N,BUZZER*%
X231800000Y-161280000D03*
%TD*%
D27*
%TO.P,C6,2,2*%
%TO.N,GND*%
X167400000Y-124200000D03*
X169700000Y-124200000D03*
%TD*%
D30*
%TO.P,RV1,1,1*%
%TO.N,Net-(R1-Pad1)*%
X183770000Y-85260000D03*
%TO.P,RV1,2,2*%
%TO.N,Net-(U4-TRIM)*%
X186310000Y-87800000D03*
%TO.P,RV1,3,3*%
%TO.N,unconnected-(RV1-Pad3)*%
X183770000Y-90340000D03*
%TD*%
D10*
%TO.P,M5,*%
%TO.N,*%
X151000000Y-122800000D03*
X151000000Y-109800000D03*
D33*
%TO.P,M5,1,Pin_1*%
%TO.N,5V3_secondary*%
X156000000Y-112800000D03*
D12*
%TO.P,M5,2,Pin_2*%
%TO.N,GND*%
X156000000Y-116300000D03*
%TO.P,M5,3,Pin_3*%
%TO.N,5V3_Primary*%
X156000000Y-119800000D03*
%TD*%
D34*
%TO.P,Pix1,~*%
%TO.N,N/C*%
X230749200Y-98867868D03*
X200749200Y-98867868D03*
X230749200Y-128867868D03*
X200749200Y-128867868D03*
%TD*%
D21*
%TO.P,U6,1,Vin(+)*%
%TO.N,Net-(U6-Vin(+))*%
X177820000Y-95800000D03*
%TO.P,U6,2,ON/OFF*%
%TO.N,GND*%
X170200000Y-95800000D03*
%TO.P,U6,3,Vin(-)*%
X162580000Y-95800000D03*
D22*
%TO.P,U6,4,Vout(-)*%
X162580000Y-109400000D03*
D21*
%TO.P,U6,5,Power_Good*%
%TO.N,unconnected-(U6-Power_Good-Pad5)*%
X166390000Y-109400000D03*
%TO.P,U6,6,TRIM*%
%TO.N,Net-(U6-TRIM)*%
X170200000Y-109400000D03*
%TO.P,U6,7,SENSE(+)*%
%TO.N,5V3_secondary*%
X174010000Y-109400000D03*
D22*
%TO.P,U6,8,Vout(+)*%
X177820000Y-109400000D03*
%TD*%
D35*
%TO.P,C7,1,1*%
%TO.N,5V_PERIPH_SECONDARY*%
X209600000Y-133200000D03*
D27*
%TO.P,C7,2,2*%
%TO.N,GND*%
X208600000Y-134350000D03*
D36*
X208600000Y-133200000D03*
D27*
X208600000Y-132050000D03*
D35*
%TO.P,C7,3,3*%
%TO.N,Net-(J17-Pin_1)*%
X207600000Y-133200000D03*
%TD*%
D37*
%TO.P,C5,1,1*%
%TO.N,5V_PERIPH_PRIMARY*%
X232800000Y-94800000D03*
D27*
%TO.P,C5,2,2*%
%TO.N,GND*%
X231650000Y-93800000D03*
D38*
X232800000Y-93800000D03*
D27*
X233950000Y-93800000D03*
D37*
%TO.P,C5,3,3*%
%TO.N,Net-(J15-Pin_1)*%
X232800000Y-92800000D03*
%TD*%
D39*
%TO.P,C24,1*%
%TO.N,Net-(U4-Vin(+))*%
X178800000Y-76725000D03*
%TO.P,C24,2*%
%TO.N,GND*%
X178800000Y-79675000D03*
%TD*%
D40*
%TO.P,C18,1*%
%TO.N,5V3_secondary*%
X177400000Y-106350000D03*
%TO.P,C18,2*%
%TO.N,GND*%
X177400000Y-103400000D03*
%TD*%
D37*
%TO.P,C3,1,1*%
%TO.N,5V_PERIPH_PRIMARY*%
X151800000Y-65200000D03*
D27*
%TO.P,C3,2,2*%
%TO.N,GND*%
X152950000Y-66200000D03*
D38*
X151800000Y-66200000D03*
D27*
X150650000Y-66200000D03*
D37*
%TO.P,C3,3,3*%
%TO.N,Net-(J13-Pin_1)*%
X151800000Y-67200000D03*
%TD*%
D41*
%TO.P,U5,1,VDD_3V3_SPEKTRUM*%
%TO.N,unconnected-(U5-VDD_3V3_SPEKTRUM-Pad1)*%
X213139300Y-101965100D03*
%TO.P,U5,2,NC*%
%TO.N,unconnected-(U5-NC-Pad2)*%
X215145900Y-101965100D03*
%TO.P,U5,3,RX_5V0_OUT*%
%TO.N,unconnected-(U5-RX_5V0_OUT-Pad3)*%
X217152500Y-101965100D03*
%TO.P,U5,4,VDD_5V_PERIPH*%
%TO.N,5V_PERIPH_SECONDARY*%
X219159100Y-101965100D03*
%TO.P,U5,5,VDD_5V_HIPOWER*%
%TO.N,5V_PERIPH_PRIMARY*%
X221165700Y-101965100D03*
D42*
%TO.P,U5,6,GND*%
%TO.N,GND*%
X223172300Y-101965100D03*
X223121500Y-125206100D03*
D43*
%TO.P,U5,7,~{VDD_5V_HI_POWER_OC}*%
%TO.N,~{VDD_HIPOWER_OC}*%
X226360000Y-107822900D03*
%TO.P,U5,8,~{VDD_5V_PERIPH_OC}*%
%TO.N,~{VDD_5V_PERIPH_OC}*%
X226360000Y-109829500D03*
%TO.P,U5,9,VDD_3V3_SPEKTRUM_EN*%
%TO.N,VDD_3V3_SPECKTRUM_EN*%
X226360000Y-111836100D03*
%TO.P,U5,10,~{VDD_5V_PERIPH_EN}*%
%TO.N,~{VDD_5V_PERIPH_EN}*%
X226360000Y-113842700D03*
%TO.P,U5,11,VBUS_TO_FMU*%
%TO.N,VBUS*%
X226360000Y-115849300D03*
%TO.P,U5,12,ALARM_fromCube*%
%TO.N,ALARM*%
X226360000Y-117855900D03*
%TO.P,U5,13,BUZZ_OUT*%
%TO.N,BUZZER*%
X226360000Y-119862500D03*
D41*
%TO.P,U5,15,VDD_5V_TO_FMU*%
%TO.N,VDD_5V_IN_PROT*%
X221114900Y-125206100D03*
%TO.P,U5,16,~{VDD_BRICK_VALID}*%
%TO.N,~{VDD_BRICK_VALID}*%
X219108300Y-125206100D03*
%TO.P,U5,17,~{VDD_BACKUP_VALID}*%
%TO.N,~{VDD_BACKUP_VALID}*%
X217101700Y-125206100D03*
%TO.P,U5,18,~{VBUS_VALID}*%
%TO.N,~{VBUS_VALID}*%
X215095100Y-125206100D03*
%TO.P,U5,19,SERVO_IN*%
%TO.N,VDD_SERVO_IN*%
X213088500Y-125206100D03*
D43*
%TO.P,U5,20,VDD_VBUS*%
%TO.N,VBUS*%
X206040000Y-116011300D03*
X206040000Y-118017900D03*
%TO.P,U5,22,VDD_V_BACKUP*%
%TO.N,5V3_secondary*%
X206040000Y-111998100D03*
X206040000Y-114004700D03*
%TO.P,U5,24,VDD_BRICK_IN*%
%TO.N,5V3_Primary*%
X206040000Y-107984900D03*
X206040000Y-109991500D03*
%TD*%
D44*
%TO.P,J20,1,Pin_1*%
%TO.N,GND*%
X275067500Y-72900000D03*
D45*
%TO.P,J20,2,Pin_2*%
%TO.N,V_AUX_5V0*%
X275067500Y-70400000D03*
%TD*%
D39*
%TO.P,C32,1*%
%TO.N,Net-(U4-Vin(+))*%
X176000000Y-76725000D03*
%TO.P,C32,2*%
%TO.N,GND*%
X176000000Y-79675000D03*
%TD*%
D46*
%TO.P,R10,1*%
%TO.N,Net-(J9-CC2)*%
X158500000Y-104400000D03*
%TO.P,R10,2*%
%TO.N,GND*%
X158500000Y-106400000D03*
%TD*%
D39*
%TO.P,C13,1*%
%TO.N,Net-(U4-Vin(+))*%
X173200000Y-76725000D03*
%TO.P,C13,2*%
%TO.N,GND*%
X173200000Y-79675000D03*
%TD*%
D40*
%TO.P,C14,1*%
%TO.N,5V3_Primary*%
X177400000Y-84750000D03*
%TO.P,C14,2*%
%TO.N,GND*%
X177400000Y-81800000D03*
%TD*%
D35*
%TO.P,C4,1,1*%
%TO.N,5V_PERIPH_PRIMARY*%
X230600000Y-134200000D03*
D27*
%TO.P,C4,2,2*%
%TO.N,GND*%
X229600000Y-135350000D03*
D36*
X229600000Y-134200000D03*
D27*
X229600000Y-133050000D03*
D35*
%TO.P,C4,3,3*%
%TO.N,Net-(J14-Pin_1)*%
X228600000Y-134200000D03*
%TD*%
D44*
%TO.P,J12,1,Pin_1*%
%TO.N,GND*%
X275067500Y-82450000D03*
D45*
%TO.P,J12,2,Pin_2*%
%TO.N,V_AUX_5V0*%
X275067500Y-79950000D03*
%TD*%
D39*
%TO.P,C31,1*%
%TO.N,Net-(U6-Vin(+))*%
X178600000Y-98125000D03*
%TO.P,C31,2*%
%TO.N,GND*%
X178600000Y-101075000D03*
%TD*%
D47*
%TO.P,C11,1*%
%TO.N,+BATT*%
X212400000Y-38600000D03*
%TO.P,C11,2*%
%TO.N,GND*%
X204400000Y-38600000D03*
%TD*%
D48*
%TO.P,R11,1*%
%TO.N,Net-(J9-CC1)*%
X158500000Y-101000000D03*
%TO.P,R11,2*%
%TO.N,GND*%
X158500000Y-99000000D03*
%TD*%
D47*
%TO.P,C10,1*%
%TO.N,+BATT*%
X226800000Y-38600000D03*
%TO.P,C10,2*%
%TO.N,GND*%
X218800000Y-38600000D03*
%TD*%
D44*
%TO.P,J22,1,Pin_1*%
%TO.N,GND*%
X275067500Y-98650000D03*
D45*
%TO.P,J22,2,Pin_2*%
%TO.N,V_AUX_12V0*%
X275067500Y-96150000D03*
%TD*%
D37*
%TO.P,C23,1,1*%
%TO.N,5V_PERIPH_PRIMARY*%
X233000000Y-106800000D03*
D27*
%TO.P,C23,2,2*%
%TO.N,GND*%
X231850000Y-105800000D03*
D38*
X233000000Y-105800000D03*
D27*
X234150000Y-105800000D03*
D37*
%TO.P,C23,3,3*%
%TO.N,Net-(J19-Pin_1)*%
X233000000Y-104800000D03*
%TD*%
D40*
%TO.P,C19,1*%
%TO.N,5V3_secondary*%
X174800000Y-106350000D03*
%TO.P,C19,2*%
%TO.N,GND*%
X174800000Y-103400000D03*
%TD*%
%TO.P,C15,1*%
%TO.N,5V3_Primary*%
X174800000Y-84750000D03*
%TO.P,C15,2*%
%TO.N,GND*%
X174800000Y-81800000D03*
%TD*%
D44*
%TO.P,J21,1,Pin_1*%
%TO.N,GND*%
X275067500Y-108200000D03*
D45*
%TO.P,J21,2,Pin_2*%
%TO.N,V_AUX_12V0*%
X275067500Y-105700000D03*
%TD*%
D39*
%TO.P,C17,1*%
%TO.N,Net-(U6-Vin(+))*%
X173400000Y-98125000D03*
%TO.P,C17,2*%
%TO.N,GND*%
X173400000Y-101075000D03*
%TD*%
%TO.P,C25,1*%
%TO.N,Net-(U6-Vin(+))*%
X176000000Y-98125000D03*
%TO.P,C25,2*%
%TO.N,GND*%
X176000000Y-101075000D03*
%TD*%
D49*
%TO.N,GND*%
X234200000Y-109600000D03*
D50*
X206400000Y-40400000D03*
D51*
X226800000Y-51200000D03*
X223600000Y-51200000D03*
D49*
X150000000Y-63000000D03*
D51*
X230000000Y-48000000D03*
X228400000Y-48000000D03*
D50*
X179600000Y-81200000D03*
X172600000Y-82400000D03*
X171600000Y-103600000D03*
X222400000Y-33400000D03*
X172600000Y-81200000D03*
D52*
X153800000Y-104600000D03*
D50*
X205800000Y-35200000D03*
D52*
X191200000Y-90800000D03*
D49*
X155200000Y-48400000D03*
D51*
X158800000Y-59200000D03*
D50*
X218400000Y-33400000D03*
D49*
X156000000Y-48400000D03*
D50*
X171400000Y-82400000D03*
D51*
X162000000Y-62400000D03*
D50*
X179600000Y-82200000D03*
X224400000Y-126800000D03*
X217600000Y-40600000D03*
X204800000Y-35200000D03*
D51*
X233200000Y-51200000D03*
D49*
X153600000Y-48400000D03*
D51*
X231600000Y-48000000D03*
X218800000Y-49600000D03*
D50*
X205600000Y-34200000D03*
D49*
X166700000Y-135900000D03*
D51*
X225200000Y-46400000D03*
X158800000Y-62400000D03*
D50*
X220400000Y-33400000D03*
X220800000Y-36400000D03*
X219400000Y-34400000D03*
D51*
X158800000Y-60800000D03*
D49*
X154400000Y-48400000D03*
D51*
X218800000Y-51200000D03*
X231600000Y-51200000D03*
D50*
X218800000Y-36400000D03*
X179000000Y-103600000D03*
D51*
X220400000Y-46400000D03*
D50*
X203600000Y-34200000D03*
D52*
X152000000Y-102600000D03*
D51*
X160400000Y-59200000D03*
D50*
X204400000Y-40400000D03*
D51*
X223600000Y-48000000D03*
X228400000Y-51200000D03*
D52*
X172800000Y-102600000D03*
X167000000Y-119200000D03*
D51*
X228400000Y-49600000D03*
D50*
X205400000Y-40400000D03*
D51*
X233200000Y-46400000D03*
D50*
X219600000Y-40600000D03*
D51*
X162000000Y-59200000D03*
D50*
X220600000Y-40600000D03*
X203800000Y-35200000D03*
D51*
X233200000Y-48000000D03*
X225200000Y-51200000D03*
D50*
X219200000Y-35400000D03*
X217400000Y-120200000D03*
D51*
X226800000Y-48000000D03*
D50*
X203200000Y-36200000D03*
D49*
X150800000Y-57000000D03*
D50*
X204600000Y-33200000D03*
D51*
X223600000Y-46400000D03*
D50*
X202600000Y-34200000D03*
D51*
X220400000Y-51200000D03*
X226800000Y-46400000D03*
D50*
X203400000Y-40400000D03*
X222400000Y-34400000D03*
D51*
X222000000Y-46400000D03*
D50*
X219800000Y-36400000D03*
X218400000Y-34400000D03*
D49*
X223400000Y-134600000D03*
D50*
X180000000Y-102600000D03*
D49*
X234800000Y-99600000D03*
D50*
X220200000Y-35400000D03*
D51*
X230000000Y-51200000D03*
D50*
X221400000Y-34400000D03*
X221200000Y-35400000D03*
D51*
X231600000Y-49600000D03*
D50*
X203600000Y-33200000D03*
D52*
X152000000Y-100600000D03*
D50*
X223400000Y-100400000D03*
D51*
X233200000Y-49600000D03*
D50*
X218600000Y-40600000D03*
X180000000Y-103600000D03*
X217800000Y-36400000D03*
D49*
X153200000Y-71000000D03*
D50*
X204600000Y-34200000D03*
D52*
X204000000Y-138000000D03*
X204000000Y-150400000D03*
D51*
X162000000Y-60800000D03*
X160400000Y-60800000D03*
D52*
X172800000Y-103600000D03*
D50*
X171400000Y-81200000D03*
X221400000Y-33400000D03*
X171600000Y-102600000D03*
D51*
X230000000Y-49600000D03*
D50*
X201800000Y-35200000D03*
D51*
X222000000Y-51200000D03*
D50*
X171400000Y-78800000D03*
X206200000Y-36200000D03*
D52*
X152000000Y-104600000D03*
D51*
X231600000Y-46400000D03*
D50*
X202600000Y-33200000D03*
X158200000Y-55800000D03*
D51*
X225200000Y-49600000D03*
X160400000Y-62400000D03*
D52*
X178600000Y-114400000D03*
D50*
X201600000Y-34200000D03*
D51*
X228400000Y-46400000D03*
D50*
X223200000Y-126800000D03*
X171400000Y-80000000D03*
D52*
X266249000Y-125175500D03*
D51*
X217200000Y-51200000D03*
X217200000Y-46400000D03*
D50*
X202800000Y-35200000D03*
X160200000Y-55800000D03*
D51*
X222000000Y-49600000D03*
X217200000Y-49600000D03*
D52*
X239000000Y-131600000D03*
X161200000Y-127800000D03*
D50*
X205600000Y-33200000D03*
X171600000Y-101600000D03*
X218200000Y-35400000D03*
D51*
X218800000Y-48000000D03*
D50*
X179000000Y-102600000D03*
X204200000Y-36200000D03*
X222200000Y-35400000D03*
X221800000Y-36400000D03*
D52*
X153800000Y-102600000D03*
D50*
X219400000Y-33400000D03*
D51*
X230000000Y-46400000D03*
D50*
X202200000Y-36200000D03*
D52*
X220800000Y-147000000D03*
D51*
X223600000Y-49600000D03*
D49*
X155200000Y-63800000D03*
D51*
X217200000Y-48000000D03*
X222000000Y-48000000D03*
D52*
X153800000Y-100600000D03*
D49*
X164400000Y-102800000D03*
D51*
X220400000Y-48000000D03*
D50*
X220400000Y-34400000D03*
D49*
X152800000Y-48400000D03*
D50*
X201600000Y-33200000D03*
D51*
X226800000Y-49600000D03*
D49*
X150800000Y-49000000D03*
D51*
X220400000Y-49600000D03*
D52*
X250600000Y-95000000D03*
D51*
X225200000Y-48000000D03*
X218800000Y-46400000D03*
D50*
X205200000Y-36200000D03*
%TO.N,5V_PERIPH_PRIMARY*%
X228200000Y-105200000D03*
X223200000Y-105800000D03*
D49*
X152000000Y-63800000D03*
D50*
X226400000Y-142800000D03*
%TO.N,5V_PERIPH_SECONDARY*%
X211400000Y-143400000D03*
X169400000Y-126200000D03*
D51*
%TO.N,+BATT*%
X203000000Y-51200000D03*
X201400000Y-46400000D03*
X214200000Y-46400000D03*
X211000000Y-46400000D03*
D50*
X230200000Y-33400000D03*
D51*
X198200000Y-46400000D03*
X204600000Y-48000000D03*
D50*
X210600000Y-35200000D03*
D51*
X199800000Y-49600000D03*
X198200000Y-49600000D03*
D50*
X211200000Y-40400000D03*
X212400000Y-33200000D03*
X228600000Y-36400000D03*
D51*
X199800000Y-46400000D03*
D50*
X210400000Y-33200000D03*
X213200000Y-40400000D03*
X211000000Y-36200000D03*
X226600000Y-36400000D03*
D51*
X211000000Y-51200000D03*
D50*
X227000000Y-35400000D03*
D51*
X209400000Y-49600000D03*
X209400000Y-48000000D03*
D50*
X213600000Y-35200000D03*
X225600000Y-36400000D03*
D51*
X204600000Y-49600000D03*
D50*
X228400000Y-40600000D03*
D51*
X204600000Y-46400000D03*
D50*
X229600000Y-36400000D03*
D51*
X207800000Y-49600000D03*
D50*
X226200000Y-33400000D03*
X212000000Y-36200000D03*
X211400000Y-34200000D03*
X213400000Y-33200000D03*
X209400000Y-33200000D03*
X227200000Y-34400000D03*
X226200000Y-34400000D03*
D51*
X212600000Y-51200000D03*
X214200000Y-51200000D03*
X207800000Y-48000000D03*
D50*
X229200000Y-33400000D03*
D51*
X206200000Y-46400000D03*
X199800000Y-48000000D03*
X201400000Y-51200000D03*
D50*
X228000000Y-35400000D03*
X229200000Y-34400000D03*
X212600000Y-35200000D03*
D51*
X201400000Y-48000000D03*
D50*
X227200000Y-33400000D03*
X213400000Y-34200000D03*
D51*
X203000000Y-49600000D03*
D50*
X212400000Y-34200000D03*
D51*
X199800000Y-51200000D03*
X211000000Y-49600000D03*
X212600000Y-46400000D03*
D50*
X210000000Y-36200000D03*
D51*
X209400000Y-51200000D03*
X198200000Y-51200000D03*
X212600000Y-49600000D03*
D50*
X209400000Y-34200000D03*
X213000000Y-36200000D03*
D51*
X211000000Y-48000000D03*
D50*
X214000000Y-36200000D03*
D51*
X206200000Y-51200000D03*
D50*
X227600000Y-36400000D03*
X211400000Y-33200000D03*
X225400000Y-40600000D03*
D51*
X207800000Y-51200000D03*
D50*
X228200000Y-33400000D03*
X212200000Y-40400000D03*
X226400000Y-40600000D03*
X230200000Y-34400000D03*
X214200000Y-40400000D03*
D51*
X214200000Y-49600000D03*
X198200000Y-48000000D03*
D50*
X226000000Y-35400000D03*
X209600000Y-35200000D03*
X227400000Y-40600000D03*
D51*
X204600000Y-51200000D03*
X206200000Y-48000000D03*
X207800000Y-46400000D03*
X212600000Y-48000000D03*
X201400000Y-49600000D03*
D50*
X230000000Y-35400000D03*
X229000000Y-35400000D03*
D51*
X203000000Y-48000000D03*
X203000000Y-46400000D03*
X214200000Y-48000000D03*
X209400000Y-46400000D03*
D50*
X210400000Y-34200000D03*
X228200000Y-34400000D03*
X211600000Y-35200000D03*
D51*
X206200000Y-49600000D03*
D50*
%TO.N,5V3_Primary*%
X204400000Y-109200000D03*
X204400000Y-108200000D03*
X203400000Y-108200000D03*
X203400000Y-109200000D03*
%TO.N,5V3_secondary*%
X204400000Y-114000000D03*
X204400000Y-113000000D03*
X203400000Y-113000000D03*
X203400000Y-114000000D03*
D51*
%TO.N,BATT_AUX*%
X167000000Y-59000000D03*
X167000000Y-57400000D03*
X154600000Y-89400000D03*
X156200000Y-87800000D03*
X165400000Y-55800000D03*
X170200000Y-54200000D03*
X168600000Y-59000000D03*
X167000000Y-54200000D03*
X170200000Y-59000000D03*
X156200000Y-86200000D03*
X171800000Y-54200000D03*
D49*
X154400000Y-59200000D03*
D51*
X171800000Y-59000000D03*
X171800000Y-55800000D03*
X170200000Y-57400000D03*
D49*
X154400000Y-58200000D03*
D51*
X171800000Y-57400000D03*
X154600000Y-86200000D03*
X153000000Y-84600000D03*
X151400000Y-91000000D03*
X168600000Y-57400000D03*
X151400000Y-84600000D03*
X154600000Y-87800000D03*
X151400000Y-89400000D03*
X153000000Y-87800000D03*
X168600000Y-54200000D03*
X167000000Y-55800000D03*
X165400000Y-57400000D03*
X153000000Y-86200000D03*
X151400000Y-87800000D03*
X151400000Y-86200000D03*
X168600000Y-55800000D03*
X165400000Y-54200000D03*
X153000000Y-89400000D03*
X170200000Y-55800000D03*
D52*
%TO.N,AUX_BATT_CURRENT_SENS*%
X170000000Y-77600000D03*
D49*
X200000000Y-93600000D03*
%TO.N,PPM-SBUS-PROT*%
X211800000Y-108000000D03*
D52*
X262600000Y-125800000D03*
D49*
%TO.N,SERIAL2_TX*%
X208200000Y-120200000D03*
D52*
X212924265Y-132475735D03*
X262600000Y-128600000D03*
%TO.N,SERIAL2_RX*%
X262600000Y-127000000D03*
X207719000Y-147400000D03*
D49*
X209000000Y-116611300D03*
%TO.N,V_AUX_12V0*%
X255000000Y-103600000D03*
X255800000Y-90000000D03*
D52*
%TO.N,Net-(J9-CC2)*%
X159600000Y-104400000D03*
%TO.N,Net-(J9-CC1)*%
X159600000Y-101200000D03*
D49*
%TO.N,USB_D+*%
X213850157Y-115482843D03*
X185917157Y-111482843D03*
D50*
%TO.N,VBUS*%
X214600000Y-117000000D03*
D49*
X182800000Y-109400000D03*
X160600000Y-101000000D03*
X162600000Y-105852961D03*
X201000000Y-114200000D03*
%TO.N,USB_D-*%
X214415843Y-114917157D03*
X186482843Y-110917157D03*
%TO.N,CAN_1-*%
X218400000Y-104550000D03*
X224717157Y-105682843D03*
X229082843Y-103082843D03*
X223917157Y-117317157D03*
X224517157Y-124682843D03*
%TO.N,CAN_1+*%
X228517157Y-102517157D03*
X224482843Y-117882843D03*
X225082843Y-124117157D03*
X218400000Y-103750000D03*
X225282843Y-105117157D03*
%TO.N,CAN_2-*%
X218000000Y-113800000D03*
X169117157Y-120317157D03*
%TO.N,CAN_2+*%
X217517157Y-113117157D03*
X169682843Y-120882843D03*
%TO.N,CAN_3-*%
X205000000Y-132000000D03*
X212517157Y-122282843D03*
%TO.N,CAN_3+*%
X205800000Y-132000000D03*
X213082843Y-121717157D03*
D51*
%TO.N,/esc_landing/M4b*%
X237200000Y-76800000D03*
X238800000Y-76800000D03*
X240400000Y-76800000D03*
X240400000Y-80000000D03*
X238800000Y-78400000D03*
X235600000Y-80000000D03*
X235600000Y-78400000D03*
X242000000Y-80600000D03*
X238800000Y-80000000D03*
X237200000Y-78400000D03*
X237200000Y-80000000D03*
X242000000Y-77400000D03*
X242000000Y-79000000D03*
X240400000Y-78400000D03*
X235600000Y-76800000D03*
%TO.N,/esc_landing/M4c*%
X236600000Y-85200000D03*
X238200000Y-85200000D03*
X236600000Y-83600000D03*
X238200000Y-82000000D03*
X236600000Y-82000000D03*
X239800000Y-82000000D03*
X239800000Y-83600000D03*
X239800000Y-85200000D03*
X238200000Y-83600000D03*
%TO.N,/esc_landing/M4a*%
X240400000Y-73400000D03*
X240400000Y-71800000D03*
X235600000Y-73400000D03*
X242000000Y-71800000D03*
X240400000Y-75000000D03*
X237200000Y-71800000D03*
X237200000Y-73400000D03*
X242000000Y-73400000D03*
X238800000Y-71800000D03*
X238800000Y-73400000D03*
X235600000Y-75000000D03*
X237200000Y-75000000D03*
X235600000Y-71800000D03*
X238800000Y-75000000D03*
X242000000Y-75000000D03*
%TO.N,/esc_landing/M3b*%
X240400000Y-64500000D03*
X235600000Y-64500000D03*
X242000000Y-62900000D03*
X242000000Y-64500000D03*
X242000000Y-61300000D03*
X235600000Y-62900000D03*
X237200000Y-64500000D03*
X240400000Y-62900000D03*
X240400000Y-61300000D03*
X238800000Y-62900000D03*
X235600000Y-61300000D03*
X237200000Y-62900000D03*
X238800000Y-64500000D03*
X237200000Y-61300000D03*
X238800000Y-61300000D03*
%TO.N,/esc_landing/M3a*%
X237200000Y-55800000D03*
X237200000Y-59000000D03*
X235600000Y-57400000D03*
X242000000Y-57400000D03*
X237200000Y-57400000D03*
X240400000Y-57400000D03*
X238800000Y-57400000D03*
X235600000Y-59000000D03*
X242000000Y-59000000D03*
X235600000Y-55800000D03*
X242000000Y-55800000D03*
X238800000Y-55800000D03*
X238800000Y-59000000D03*
X240400000Y-59000000D03*
X240400000Y-55800000D03*
%TO.N,/esc_landing/M3c*%
X237200000Y-66400000D03*
X238800000Y-69600000D03*
X240400000Y-68000000D03*
X237200000Y-69600000D03*
X237200000Y-68000000D03*
X238800000Y-66400000D03*
X238800000Y-68000000D03*
X240400000Y-69600000D03*
X235600000Y-69600000D03*
X235600000Y-68000000D03*
X242000000Y-68000000D03*
X242000000Y-69600000D03*
X235600000Y-66400000D03*
X240400000Y-66400000D03*
X242000000Y-66400000D03*
%TO.N,/esc_landing/M2c*%
X193800000Y-82000000D03*
X192200000Y-82000000D03*
X195400000Y-83600000D03*
X193800000Y-85200000D03*
X192200000Y-83600000D03*
X192200000Y-85200000D03*
X195400000Y-85200000D03*
X193800000Y-83600000D03*
X195400000Y-82000000D03*
%TO.N,/esc_landing/M2a*%
X191600000Y-71800000D03*
X193200000Y-75000000D03*
X191600000Y-75000000D03*
X194800000Y-71800000D03*
X190000000Y-75000000D03*
X194800000Y-73400000D03*
X190000000Y-71800000D03*
X193200000Y-73400000D03*
X196400000Y-71800000D03*
X193200000Y-71800000D03*
X191600000Y-73400000D03*
X190000000Y-73400000D03*
X196400000Y-75000000D03*
X194800000Y-75000000D03*
X196400000Y-73400000D03*
%TO.N,/esc_landing/M2b*%
X194800000Y-76800000D03*
X196400000Y-76800000D03*
X191600000Y-78400000D03*
X194800000Y-78400000D03*
X196400000Y-78400000D03*
X191600000Y-80000000D03*
X190000000Y-80600000D03*
X194800000Y-80000000D03*
X193200000Y-76800000D03*
X196400000Y-80000000D03*
X190000000Y-77400000D03*
X193200000Y-80000000D03*
X190000000Y-79000000D03*
X193200000Y-78400000D03*
X191600000Y-76800000D03*
%TO.N,/esc_landing/M1a*%
X194800000Y-56000000D03*
X196400000Y-57600000D03*
X190000000Y-59200000D03*
X190000000Y-56000000D03*
X191600000Y-56000000D03*
X191600000Y-59200000D03*
X193200000Y-59200000D03*
X194800000Y-57600000D03*
X193200000Y-57600000D03*
X194800000Y-59200000D03*
X190000000Y-57600000D03*
X191600000Y-57600000D03*
X196400000Y-59200000D03*
X193200000Y-56000000D03*
X196400000Y-56000000D03*
%TO.N,/esc_landing/M1c*%
X193200000Y-68200000D03*
X193200000Y-69800000D03*
X190000000Y-66600000D03*
X191600000Y-68200000D03*
X194800000Y-69800000D03*
X196400000Y-69800000D03*
X190000000Y-68200000D03*
X194800000Y-68200000D03*
X196400000Y-68200000D03*
X190000000Y-69800000D03*
X196400000Y-66600000D03*
X191600000Y-66600000D03*
X191600000Y-69800000D03*
X194800000Y-66600000D03*
X193200000Y-66600000D03*
%TO.N,/esc_landing/M1b*%
X190000000Y-63100000D03*
X190000000Y-61500000D03*
X191600000Y-63100000D03*
X196400000Y-61500000D03*
X193200000Y-64700000D03*
X193200000Y-61500000D03*
X196400000Y-63100000D03*
X194800000Y-61500000D03*
X194800000Y-63100000D03*
X191600000Y-61500000D03*
X191600000Y-64700000D03*
X190000000Y-64700000D03*
X196400000Y-64700000D03*
X193200000Y-63100000D03*
X194800000Y-64700000D03*
D52*
%TO.N,SERIAL2_RTS*%
X210600000Y-128800000D03*
D49*
X211800000Y-117200000D03*
%TO.N,~{VDD_BRICK_VALID}*%
X214000000Y-118400000D03*
%TO.N,~{VDD_BACKUP_VALID}*%
X214000000Y-119400000D03*
%TO.N,I2C_1_SCL*%
X219041000Y-114400000D03*
X150175000Y-71225000D03*
X168000000Y-83800000D03*
D52*
%TO.N,SERIAL1_RTS*%
X221800000Y-144000000D03*
D49*
X206400000Y-119400000D03*
%TO.N,~{VDD_HIPOWER_OC}*%
X218200000Y-110400000D03*
D52*
%TO.N,SERIAL1_RX*%
X224600000Y-143800000D03*
D49*
X207650000Y-119400000D03*
%TO.N,SERIAL1_TX*%
X207050000Y-120150000D03*
D52*
X225800000Y-147400000D03*
D49*
%TO.N,~{VDD_5V_PERIPH_OC}*%
X218400000Y-111200000D03*
D50*
%TO.N,VDD_5V_IN_PROT*%
X221200000Y-120400000D03*
X217800000Y-108400000D03*
D52*
%TO.N,SERIAL1_CTS*%
X223400000Y-147400000D03*
D49*
X205800000Y-120200000D03*
%TO.N,~{VBUS_VALID}*%
X213600000Y-120200000D03*
%TO.N,BATT_CURRENT_SENS_PROT*%
X214600000Y-111400000D03*
D52*
X208982330Y-112311651D03*
D49*
%TO.N,I2C_1_SDA*%
X217200000Y-115200000D03*
D52*
X168800000Y-83800000D03*
D49*
X150600000Y-70400000D03*
%TO.N,SERIAL2_CTS*%
X214200000Y-122200000D03*
D52*
X212200000Y-128800000D03*
D49*
%TO.N,~{VDD_5V_PERIPH_EN}*%
X221000000Y-115400000D03*
%TO.N,VDD_3V3_SPECKTRUM_EN*%
X222600000Y-119800000D03*
D50*
X221800000Y-113200000D03*
%TO.N,VDD_SERVO_IN*%
X214000000Y-123400000D03*
D52*
%TO.N,BATT_VOLTAGE_SENS_PROT*%
X197400000Y-96800000D03*
D49*
X214000000Y-110600000D03*
%TO.N,ALARM*%
X209200000Y-118000000D03*
D52*
%TO.N,BUZZER*%
X228800000Y-123000000D03*
D49*
X233800000Y-125200000D03*
%TO.N,Net-(J13-Pin_1)*%
X150000000Y-75200000D03*
%TO.N,Net-(J14-Pin_1)*%
X227400000Y-134400000D03*
D52*
%TO.N,Net-(J15-Pin_1)*%
X234200000Y-92400000D03*
%TO.N,Net-(J17-Pin_1)*%
X207000000Y-132200000D03*
D49*
%TO.N,Net-(J19-Pin_1)*%
X234400000Y-104600000D03*
%TD*%
D53*
%TO.N,GND*%
X157900000Y-98400000D02*
X156045000Y-98400000D01*
X158500000Y-99000000D02*
X157900000Y-98400000D01*
X158500000Y-106400000D02*
X157880000Y-107020000D01*
X156045000Y-98400000D02*
X156025000Y-98380000D01*
X157880000Y-107020000D02*
X156025000Y-107020000D01*
D54*
%TO.N,5V_PERIPH_PRIMARY*%
X228200000Y-110200000D02*
X228800000Y-110800000D01*
X230600000Y-138600000D02*
X226400000Y-142800000D01*
X233000000Y-107200000D02*
X233000000Y-106800000D01*
X221165700Y-101965100D02*
X221165700Y-103765700D01*
X225400000Y-96800000D02*
X230800000Y-96800000D01*
X221165700Y-101965100D02*
X221165700Y-101034300D01*
X230800000Y-96800000D02*
X232800000Y-94800000D01*
X221165700Y-103765700D02*
X223200000Y-105800000D01*
X228200000Y-105200000D02*
X228200000Y-110200000D01*
X221165700Y-101034300D02*
X225400000Y-96800000D01*
X232800000Y-131000000D02*
X230600000Y-133200000D01*
X232800000Y-114800000D02*
X232800000Y-131000000D01*
X228800000Y-110800000D02*
X229000000Y-111000000D01*
X151800000Y-65200000D02*
X151800000Y-64000000D01*
X229200000Y-111000000D02*
X233000000Y-107200000D01*
X229000000Y-111000000D02*
X229200000Y-111000000D01*
X230600000Y-133200000D02*
X230600000Y-134200000D01*
X228800000Y-110800000D02*
X232800000Y-114800000D01*
X151800000Y-64000000D02*
X152000000Y-63800000D01*
X230600000Y-134200000D02*
X230600000Y-138600000D01*
%TO.N,5V_PERIPH_SECONDARY*%
X209000000Y-139800000D02*
X211400000Y-142200000D01*
X218600000Y-100200000D02*
X208600000Y-100200000D01*
X176400000Y-130800000D02*
X178800000Y-133200000D01*
X199600000Y-124000000D02*
X202400000Y-126800000D01*
X209000000Y-135600000D02*
X209600000Y-135000000D01*
X178800000Y-133200000D02*
X202400000Y-133200000D01*
X209000000Y-139800000D02*
X209000000Y-135600000D01*
X219159100Y-100759100D02*
X218600000Y-100200000D01*
X211400000Y-142200000D02*
X211400000Y-143400000D01*
X199600000Y-109200000D02*
X199600000Y-124000000D01*
X174000000Y-130800000D02*
X176400000Y-130800000D01*
X202400000Y-126800000D02*
X202400000Y-133200000D01*
X208600000Y-100200000D02*
X199600000Y-109200000D01*
X169400000Y-126200000D02*
X174000000Y-130800000D01*
X209600000Y-135000000D02*
X209600000Y-133200000D01*
X219159100Y-101965100D02*
X219159100Y-100759100D01*
X202400000Y-133200000D02*
X209000000Y-139800000D01*
D53*
%TO.N,V_AUX_12V0*%
X255000000Y-90800000D02*
X255800000Y-90000000D01*
X255000000Y-103600000D02*
X255000000Y-90800000D01*
%TO.N,Net-(J9-CC2)*%
X159600000Y-104400000D02*
X158500000Y-104400000D01*
%TO.N,Net-(J9-CC1)*%
X158700000Y-101200000D02*
X158500000Y-101000000D01*
X159600000Y-101200000D02*
X158700000Y-101200000D01*
D55*
%TO.N,VBUS*%
X206388700Y-116011300D02*
X202811300Y-116011300D01*
X214600000Y-117000000D02*
X220446185Y-117000000D01*
X221596885Y-115849300D02*
X226360000Y-115849300D01*
X214600000Y-117000000D02*
X214400000Y-117000000D01*
X220446185Y-117000000D02*
X221596885Y-115849300D01*
X213411300Y-116011300D02*
X206040000Y-116011300D01*
X202811300Y-116011300D02*
X201000000Y-114200000D01*
X214400000Y-117000000D02*
X213411300Y-116011300D01*
D56*
%TO.N,CAN_1-*%
X230945000Y-102060062D02*
X230945000Y-101339938D01*
X223917157Y-117317157D02*
X223917157Y-123722218D01*
X230945000Y-101339938D02*
X230460062Y-100855000D01*
X225339938Y-100855000D02*
X224717157Y-101477781D01*
X224717157Y-101477781D02*
X224717157Y-105682843D01*
X224517157Y-124322218D02*
X224517157Y-124682843D01*
X229082843Y-103082843D02*
X229358529Y-102807157D01*
X230460062Y-100855000D02*
X225339938Y-100855000D01*
X229358529Y-102807157D02*
X230197905Y-102807157D01*
X223917157Y-123722218D02*
X224517157Y-124322218D01*
X230197905Y-102807157D02*
X230945000Y-102060062D01*
%TO.N,CAN_1+*%
X230655000Y-101460062D02*
X230339938Y-101145000D01*
X230077781Y-102517157D02*
X230655000Y-101939938D01*
X224722218Y-124117157D02*
X225082843Y-124117157D01*
X230655000Y-101939938D02*
X230655000Y-101460062D01*
X225460062Y-101145000D02*
X225007157Y-101597905D01*
X230339938Y-101145000D02*
X225460062Y-101145000D01*
X225007157Y-101597905D02*
X225007157Y-104841471D01*
X224207157Y-118158529D02*
X224207157Y-123602096D01*
X224207157Y-123602096D02*
X224722218Y-124117157D01*
X228517157Y-102517157D02*
X230077781Y-102517157D01*
X224482843Y-117882843D02*
X224207157Y-118158529D01*
X225007157Y-104841471D02*
X225282843Y-105117157D01*
%TO.N,CAN_3-*%
X210006962Y-123248038D02*
X210130000Y-123248038D01*
X205000000Y-132000000D02*
X205255000Y-131745000D01*
X210996950Y-123455000D02*
X211120000Y-123455000D01*
X211939938Y-123455000D02*
X212208638Y-123186299D01*
X211780000Y-123455000D02*
X211939938Y-123455000D01*
X212400000Y-122994938D02*
X212400000Y-122882843D01*
X210336962Y-123455000D02*
X210460000Y-123455000D01*
X212208638Y-123186299D02*
X212400000Y-122994938D01*
X209339938Y-123455000D02*
X209800000Y-123455000D01*
X210666950Y-123248050D02*
X210790000Y-123248050D01*
X212400000Y-122400000D02*
X212517157Y-122282843D01*
X212400000Y-122882843D02*
X212400000Y-122400000D01*
X211657048Y-123455000D02*
X211780000Y-123455000D01*
X211327048Y-123247952D02*
X211450000Y-123247952D01*
X205255000Y-131745000D02*
X205255000Y-127539938D01*
X205255000Y-127539938D02*
X209339938Y-123455000D01*
X210790000Y-123248050D02*
G75*
G02*
X210893450Y-123351525I0J-103450D01*
G01*
X210233481Y-123351519D02*
G75*
G03*
X210336962Y-123455019I103519J19D01*
G01*
X210130000Y-123248038D02*
G75*
G02*
X210233462Y-123351519I0J-103462D01*
G01*
X211120000Y-123455000D02*
G75*
G03*
X211223500Y-123351476I0J103500D01*
G01*
X211553524Y-123351476D02*
G75*
G03*
X211657048Y-123454976I103476J-24D01*
G01*
X211450000Y-123247952D02*
G75*
G02*
X211553548Y-123351476I0J-103548D01*
G01*
X210563475Y-123351525D02*
G75*
G02*
X210666950Y-123248075I103425J25D01*
G01*
X210460000Y-123455000D02*
G75*
G03*
X210563500Y-123351525I0J103500D01*
G01*
X211223524Y-123351476D02*
G75*
G02*
X211327048Y-123248024I103476J-24D01*
G01*
X209800000Y-123455000D02*
G75*
G03*
X209903500Y-123351519I0J103500D01*
G01*
X210893475Y-123351525D02*
G75*
G03*
X210996950Y-123454925I103425J25D01*
G01*
X209903481Y-123351519D02*
G75*
G02*
X210006962Y-123247981I103519J19D01*
G01*
%TO.N,CAN_3+*%
X212060062Y-123745000D02*
X209460062Y-123745000D01*
X209460062Y-123745000D02*
X205545000Y-127660062D01*
X205545000Y-127660062D02*
X205545000Y-131745000D01*
X213082843Y-122722219D02*
X212060062Y-123745000D01*
X205545000Y-131745000D02*
X205800000Y-132000000D01*
X213082843Y-121717157D02*
X213082843Y-122722219D01*
D53*
%TO.N,~{VDD_BRICK_VALID}*%
X219108300Y-125206100D02*
X219108300Y-123508300D01*
X219108300Y-123508300D02*
X214000000Y-118400000D01*
%TO.N,~{VDD_BACKUP_VALID}*%
X214000000Y-119600000D02*
X214000000Y-119400000D01*
X217101700Y-122701700D02*
X214000000Y-119600000D01*
X217101700Y-125206100D02*
X217101700Y-122701700D01*
%TO.N,I2C_1_SCL*%
X152200000Y-72800000D02*
X157000000Y-72800000D01*
X157000000Y-72800000D02*
X168000000Y-83800000D01*
X150175000Y-71225000D02*
X150625000Y-71225000D01*
X150625000Y-71225000D02*
X152200000Y-72800000D01*
%TO.N,~{VDD_HIPOWER_OC}*%
X218200000Y-110400000D02*
X219000000Y-109600000D01*
X219000000Y-109600000D02*
X224582900Y-109600000D01*
X224582900Y-109600000D02*
X226360000Y-107822900D01*
%TO.N,~{VDD_5V_PERIPH_OC}*%
X225989500Y-110200000D02*
X226360000Y-109829500D01*
X218400000Y-111200000D02*
X219400000Y-110200000D01*
X219400000Y-110200000D02*
X225989500Y-110200000D01*
D55*
%TO.N,VDD_5V_IN_PROT*%
X221114900Y-125206100D02*
X221114900Y-120485100D01*
X221114900Y-120485100D02*
X221200000Y-120400000D01*
D53*
%TO.N,~{VBUS_VALID}*%
X215095100Y-121895100D02*
X213600000Y-120400000D01*
X215095100Y-125206100D02*
X215095100Y-121895100D01*
X213600000Y-120400000D02*
X213600000Y-120200000D01*
%TO.N,I2C_1_SDA*%
X157200000Y-72200000D02*
X168800000Y-83800000D01*
X150600000Y-70400000D02*
X152400000Y-72200000D01*
X152400000Y-72200000D02*
X157200000Y-72200000D01*
%TO.N,~{VDD_5V_PERIPH_EN}*%
X226360000Y-113842700D02*
X222557300Y-113842700D01*
X222557300Y-113842700D02*
X221000000Y-115400000D01*
%TO.N,VDD_3V3_SPECKTRUM_EN*%
X223163900Y-111836100D02*
X221800000Y-113200000D01*
X226360000Y-111836100D02*
X223163900Y-111836100D01*
%TO.N,VDD_SERVO_IN*%
X214000000Y-123400000D02*
X213088500Y-124311500D01*
X213088500Y-124311500D02*
X213088500Y-125206100D01*
%TO.N,ALARM*%
X209200000Y-118000000D02*
X209381000Y-117819000D01*
X225240257Y-116736157D02*
X226360000Y-117855900D01*
X220781000Y-117819000D02*
X221863843Y-116736157D01*
X209381000Y-117819000D02*
X220781000Y-117819000D01*
X221863843Y-116736157D02*
X225240257Y-116736157D01*
%TO.N,BUZZER*%
X228800000Y-123000000D02*
X227984367Y-123000000D01*
X226360000Y-121375633D02*
X226360000Y-119862500D01*
X227984367Y-123000000D02*
X226360000Y-121375633D01*
D54*
%TO.N,Net-(J13-Pin_1)*%
X151800000Y-67200000D02*
X149299000Y-69701000D01*
X149299000Y-69701000D02*
X149299000Y-74499000D01*
X149299000Y-74499000D02*
X150000000Y-75200000D01*
%TO.N,Net-(J14-Pin_1)*%
X227600000Y-134200000D02*
X228600000Y-134200000D01*
X227400000Y-134400000D02*
X227600000Y-134200000D01*
D55*
%TO.N,Net-(J15-Pin_1)*%
X232800000Y-92800000D02*
X233800000Y-92800000D01*
X233800000Y-92800000D02*
X234200000Y-92400000D01*
%TO.N,Net-(J17-Pin_1)*%
X207600000Y-132800000D02*
X207600000Y-133200000D01*
X207000000Y-132200000D02*
X207600000Y-132800000D01*
D54*
%TO.N,Net-(J19-Pin_1)*%
X234200000Y-104800000D02*
X234400000Y-104600000D01*
X233000000Y-104800000D02*
X234200000Y-104800000D01*
%TD*%
%TA.AperFunction,Conductor*%
%TO.N,GND*%
G36*
X223515677Y-28017725D02*
G01*
X223536319Y-28034359D01*
X223963681Y-28461721D01*
X223997166Y-28523044D01*
X224000000Y-28549402D01*
X224000000Y-32088717D01*
X223998606Y-32107258D01*
X223853551Y-33066467D01*
X223849400Y-33084591D01*
X221559897Y-40481449D01*
X221521271Y-40539670D01*
X221515027Y-40544590D01*
X220932815Y-40973846D01*
X220867175Y-40997785D01*
X220859230Y-40998040D01*
X216751362Y-40998040D01*
X216684323Y-40978355D01*
X216663681Y-40961721D01*
X216236319Y-40534359D01*
X216202834Y-40473036D01*
X216200000Y-40446678D01*
X216200000Y-37311496D01*
X216202887Y-37284895D01*
X216406642Y-36357203D01*
X216415166Y-36331845D01*
X218390471Y-32052020D01*
X218390471Y-32052019D01*
X218600000Y-31598040D01*
X218600000Y-28549402D01*
X218619685Y-28482363D01*
X218636319Y-28461721D01*
X219063681Y-28034359D01*
X219125004Y-28000874D01*
X219151362Y-27998040D01*
X223448638Y-27998040D01*
X223515677Y-28017725D01*
G37*
%TD.AperFunction*%
%TD*%
%TA.AperFunction,Conductor*%
%TO.N,+BATT*%
G36*
X232386795Y-22520185D02*
G01*
X232412392Y-22542070D01*
X237784899Y-28579745D01*
X237814758Y-28642911D01*
X237815305Y-28677553D01*
X237723766Y-29409866D01*
X237695919Y-29473946D01*
X237637847Y-29512799D01*
X237567989Y-29514087D01*
X237553272Y-29509047D01*
X237396107Y-29443948D01*
X237268912Y-29409866D01*
X237161789Y-29381162D01*
X237161788Y-29381161D01*
X237161785Y-29381161D01*
X236921289Y-29349500D01*
X236921288Y-29349500D01*
X236678712Y-29349500D01*
X236678711Y-29349500D01*
X236438214Y-29381161D01*
X236203895Y-29443947D01*
X235979794Y-29536773D01*
X235979785Y-29536777D01*
X235769706Y-29658067D01*
X235577263Y-29805733D01*
X235577256Y-29805739D01*
X235405739Y-29977256D01*
X235405733Y-29977263D01*
X235258067Y-30169706D01*
X235258064Y-30169710D01*
X235258064Y-30169711D01*
X235253704Y-30177263D01*
X235136777Y-30379785D01*
X235136773Y-30379794D01*
X235043947Y-30603895D01*
X234981161Y-30838214D01*
X234949500Y-31078711D01*
X234949500Y-31321288D01*
X234981161Y-31561785D01*
X235043947Y-31796104D01*
X235126790Y-31996104D01*
X235136776Y-32020212D01*
X235258064Y-32230289D01*
X235258066Y-32230292D01*
X235258067Y-32230293D01*
X235405733Y-32422736D01*
X235405739Y-32422743D01*
X235577256Y-32594260D01*
X235577262Y-32594265D01*
X235769711Y-32741936D01*
X235979788Y-32863224D01*
X236203900Y-32956054D01*
X236438211Y-33018838D01*
X236618586Y-33042584D01*
X236678711Y-33050500D01*
X236678712Y-33050500D01*
X236921288Y-33050500D01*
X237115365Y-33024949D01*
X237184398Y-33035714D01*
X237236654Y-33082094D01*
X237255539Y-33149363D01*
X237254590Y-33163268D01*
X235867834Y-44257319D01*
X235839987Y-44321400D01*
X235826856Y-44334899D01*
X235335162Y-44768960D01*
X235271877Y-44798570D01*
X235253098Y-44800000D01*
X215600000Y-44800000D01*
X215600000Y-51649977D01*
X215591664Y-51678362D01*
X215585913Y-51707379D01*
X215581238Y-51713870D01*
X215580315Y-51717016D01*
X215565289Y-51736020D01*
X215434696Y-51871539D01*
X215374003Y-51906154D01*
X215345407Y-51909496D01*
X203534108Y-51909496D01*
X203406812Y-51943604D01*
X203292686Y-52009496D01*
X203292683Y-52009498D01*
X203199502Y-52102679D01*
X203199500Y-52102682D01*
X203133608Y-52216808D01*
X203099500Y-52344104D01*
X203099500Y-52476000D01*
X203079815Y-52543039D01*
X203027011Y-52588794D01*
X202975500Y-52600000D01*
X197746321Y-52600000D01*
X197679282Y-52580315D01*
X197665024Y-52569632D01*
X197634396Y-52543039D01*
X197164809Y-52135314D01*
X197127095Y-52076500D01*
X197123336Y-52059094D01*
X194472077Y-33352991D01*
X194482159Y-33283855D01*
X194528020Y-33231143D01*
X194595099Y-33211593D01*
X194626942Y-33215818D01*
X194638211Y-33218838D01*
X194753828Y-33234059D01*
X194878711Y-33250500D01*
X194878712Y-33250500D01*
X195121289Y-33250500D01*
X195169388Y-33244167D01*
X195361789Y-33218838D01*
X195596100Y-33156054D01*
X195820212Y-33063224D01*
X196030289Y-32941936D01*
X196222738Y-32794265D01*
X196394265Y-32622738D01*
X196541936Y-32430289D01*
X196663224Y-32220212D01*
X196756054Y-31996100D01*
X196818838Y-31761789D01*
X196850500Y-31521288D01*
X196850500Y-31278712D01*
X196818838Y-31038211D01*
X196756054Y-30803900D01*
X196663224Y-30579788D01*
X196541936Y-30369711D01*
X196394265Y-30177262D01*
X196394260Y-30177256D01*
X196222743Y-30005739D01*
X196222736Y-30005733D01*
X196030293Y-29858067D01*
X196030292Y-29858066D01*
X196030289Y-29858064D01*
X195820212Y-29736776D01*
X195820205Y-29736773D01*
X195596104Y-29643947D01*
X195361785Y-29581161D01*
X195121289Y-29549500D01*
X195121288Y-29549500D01*
X194878712Y-29549500D01*
X194878711Y-29549500D01*
X194638214Y-29581161D01*
X194403895Y-29643947D01*
X194179794Y-29736773D01*
X194179789Y-29736775D01*
X194135208Y-29762514D01*
X194067308Y-29778985D01*
X194001281Y-29756133D01*
X193958091Y-29701211D01*
X193950437Y-29672532D01*
X193791531Y-28551363D01*
X199694500Y-28551363D01*
X199694500Y-32093444D01*
X199695204Y-32120125D01*
X199695892Y-32133156D01*
X199698004Y-32159776D01*
X199801387Y-33135641D01*
X199804897Y-33162088D01*
X199806959Y-33175004D01*
X199806961Y-33175013D01*
X199811858Y-33201218D01*
X201391767Y-40574136D01*
X201391773Y-40574160D01*
X201391775Y-40574170D01*
X201398254Y-40600845D01*
X201401785Y-40613833D01*
X201409698Y-40640099D01*
X201409699Y-40640101D01*
X201473901Y-40768863D01*
X201473902Y-40768864D01*
X201473908Y-40768875D01*
X201513038Y-40825419D01*
X201513579Y-40826216D01*
X201513660Y-40826318D01*
X201513662Y-40826321D01*
X201611541Y-40931778D01*
X202148100Y-41365541D01*
X202148121Y-41365557D01*
X202169934Y-41382231D01*
X202169944Y-41382238D01*
X202180861Y-41390122D01*
X202203517Y-41405567D01*
X202334394Y-41465338D01*
X202401433Y-41485023D01*
X202401437Y-41485024D01*
X202543853Y-41505500D01*
X202543856Y-41505500D01*
X206648640Y-41505500D01*
X206658786Y-41504955D01*
X206702678Y-41502603D01*
X206702686Y-41502602D01*
X206702688Y-41502602D01*
X206702689Y-41502602D01*
X206709682Y-41501849D01*
X206729036Y-41499769D01*
X206729046Y-41499767D01*
X206729049Y-41499767D01*
X206738648Y-41498211D01*
X206782448Y-41491114D01*
X206917257Y-41440832D01*
X206978580Y-41407347D01*
X207093761Y-41321123D01*
X207521123Y-40893761D01*
X207557288Y-40853500D01*
X207573922Y-40832858D01*
X207605567Y-40788974D01*
X207665338Y-40658097D01*
X207685023Y-40591058D01*
X207685024Y-40591054D01*
X207705500Y-40448638D01*
X207705500Y-37311505D01*
X215694500Y-37311505D01*
X215694500Y-40446680D01*
X215697397Y-40500728D01*
X215697397Y-40500729D01*
X215700229Y-40527062D01*
X215700232Y-40527089D01*
X215708885Y-40580485D01*
X215708885Y-40580487D01*
X215737833Y-40658097D01*
X215759168Y-40715297D01*
X215781555Y-40756296D01*
X215784073Y-40760908D01*
X215792653Y-40776620D01*
X215878877Y-40891801D01*
X215878881Y-40891805D01*
X215878886Y-40891811D01*
X216306223Y-41319147D01*
X216306239Y-41319163D01*
X216306255Y-41319177D01*
X216306262Y-41319184D01*
X216346480Y-41355311D01*
X216346492Y-41355321D01*
X216346500Y-41355328D01*
X216359174Y-41365541D01*
X216367143Y-41371963D01*
X216381392Y-41382238D01*
X216411026Y-41403607D01*
X216541903Y-41463378D01*
X216608942Y-41483063D01*
X216608946Y-41483064D01*
X216751362Y-41503540D01*
X216751365Y-41503540D01*
X220859233Y-41503540D01*
X220860025Y-41503527D01*
X220875446Y-41503280D01*
X220883391Y-41503025D01*
X220899561Y-41502246D01*
X221040373Y-41472688D01*
X221106013Y-41448749D01*
X221106014Y-41448748D01*
X221106014Y-41448747D01*
X221106927Y-41448415D01*
X221110113Y-41446549D01*
X221149799Y-41425251D01*
X221232794Y-41380716D01*
X221815006Y-40951460D01*
X221827886Y-40941641D01*
X221834130Y-40936721D01*
X221846704Y-40926482D01*
X221942499Y-40819129D01*
X221981125Y-40760908D01*
X222042794Y-40630917D01*
X222048080Y-40613841D01*
X223070231Y-37311505D01*
X224332297Y-33234059D01*
X224342141Y-33197445D01*
X224346292Y-33179321D01*
X224353368Y-33142051D01*
X224498423Y-32182842D01*
X224502683Y-32145157D01*
X224502684Y-32145151D01*
X224504075Y-32126636D01*
X224504077Y-32126616D01*
X224505500Y-32088717D01*
X224505500Y-28549402D01*
X224502603Y-28495362D01*
X224499769Y-28469004D01*
X224491114Y-28415592D01*
X224440832Y-28280783D01*
X224407347Y-28219460D01*
X224321123Y-28104279D01*
X224321118Y-28104274D01*
X224321113Y-28104268D01*
X223893776Y-27676932D01*
X223893770Y-27676926D01*
X223893761Y-27676917D01*
X223893737Y-27676895D01*
X223853519Y-27640768D01*
X223853507Y-27640758D01*
X223832856Y-27624116D01*
X223788974Y-27592473D01*
X223658100Y-27532703D01*
X223591055Y-27513016D01*
X223543582Y-27506190D01*
X223448638Y-27492540D01*
X219151362Y-27492540D01*
X219151360Y-27492540D01*
X219097311Y-27495437D01*
X219097310Y-27495437D01*
X219070977Y-27498269D01*
X219070950Y-27498272D01*
X219017554Y-27506925D01*
X219017552Y-27506925D01*
X218882747Y-27557206D01*
X218821422Y-27590691D01*
X218706240Y-27676916D01*
X218706228Y-27676926D01*
X218278892Y-28104263D01*
X218278855Y-28104302D01*
X218242728Y-28144520D01*
X218242718Y-28144532D01*
X218226076Y-28165183D01*
X218194433Y-28209065D01*
X218134663Y-28339939D01*
X218114976Y-28406984D01*
X218105776Y-28470977D01*
X218094501Y-28549399D01*
X218094500Y-28549403D01*
X218094500Y-31459779D01*
X218083087Y-31511742D01*
X215956193Y-36120009D01*
X215936013Y-36170775D01*
X215927483Y-36196153D01*
X215927478Y-36196168D01*
X215912910Y-36248763D01*
X215709160Y-37176431D01*
X215709152Y-37176473D01*
X215700341Y-37230328D01*
X215700339Y-37230342D01*
X215697451Y-37256945D01*
X215697451Y-37256948D01*
X215697451Y-37256954D01*
X215694621Y-37309277D01*
X215694500Y-37311505D01*
X207705500Y-37311505D01*
X207705500Y-37309267D01*
X207704092Y-37271565D01*
X207702713Y-37253127D01*
X207698501Y-37215663D01*
X207637988Y-36813234D01*
X207554220Y-36256141D01*
X207552828Y-36248763D01*
X207547227Y-36219086D01*
X207543123Y-36201057D01*
X207533378Y-36164595D01*
X206234650Y-31943729D01*
X206117129Y-31561785D01*
X206110983Y-31541808D01*
X206105500Y-31505342D01*
X206105500Y-28551359D01*
X206102602Y-28497311D01*
X206102602Y-28497310D01*
X206099770Y-28470977D01*
X206099767Y-28470950D01*
X206091114Y-28417554D01*
X206091114Y-28417552D01*
X206087172Y-28406984D01*
X206040832Y-28282743D01*
X206007347Y-28221420D01*
X205921123Y-28106239D01*
X205921118Y-28106234D01*
X205921113Y-28106228D01*
X205493776Y-27678892D01*
X205493770Y-27678886D01*
X205493761Y-27678877D01*
X205491596Y-27676932D01*
X205453519Y-27642728D01*
X205453507Y-27642718D01*
X205451087Y-27640768D01*
X205432858Y-27626078D01*
X205432856Y-27626076D01*
X205388974Y-27594433D01*
X205258100Y-27534663D01*
X205191055Y-27514976D01*
X205135057Y-27506925D01*
X205048638Y-27494500D01*
X200751362Y-27494500D01*
X200751360Y-27494500D01*
X200697311Y-27497397D01*
X200697310Y-27497397D01*
X200670977Y-27500229D01*
X200670950Y-27500232D01*
X200617554Y-27508885D01*
X200617552Y-27508885D01*
X200482747Y-27559166D01*
X200421422Y-27592651D01*
X200306240Y-27678876D01*
X200306228Y-27678886D01*
X199878892Y-28106223D01*
X199878855Y-28106262D01*
X199842728Y-28146480D01*
X199842718Y-28146492D01*
X199826076Y-28167143D01*
X199794433Y-28211025D01*
X199734663Y-28341899D01*
X199714976Y-28408944D01*
X199713738Y-28417554D01*
X199694501Y-28551359D01*
X199694500Y-28551363D01*
X193791531Y-28551363D01*
X193778824Y-28461707D01*
X193788906Y-28392572D01*
X193808955Y-28361889D01*
X198063807Y-23580247D01*
X199199500Y-23580247D01*
X199199500Y-25619752D01*
X199211131Y-25678229D01*
X199211132Y-25678230D01*
X199255447Y-25744552D01*
X199321769Y-25788867D01*
X199321770Y-25788868D01*
X199380247Y-25800499D01*
X199380250Y-25800500D01*
X199380252Y-25800500D01*
X200319750Y-25800500D01*
X200319751Y-25800499D01*
X200334568Y-25797552D01*
X200378229Y-25788868D01*
X200378229Y-25788867D01*
X200378231Y-25788867D01*
X200444552Y-25744552D01*
X200488867Y-25678231D01*
X200488867Y-25678229D01*
X200488868Y-25678229D01*
X200500499Y-25619752D01*
X200500500Y-25619750D01*
X200500500Y-23580249D01*
X200500499Y-23580247D01*
X212699500Y-23580247D01*
X212699500Y-25619752D01*
X212711131Y-25678229D01*
X212711132Y-25678230D01*
X212755447Y-25744552D01*
X212821769Y-25788867D01*
X212821770Y-25788868D01*
X212880247Y-25800499D01*
X212880250Y-25800500D01*
X212880252Y-25800500D01*
X213819750Y-25800500D01*
X213819751Y-25800499D01*
X213834568Y-25797552D01*
X213878229Y-25788868D01*
X213878229Y-25788867D01*
X213878231Y-25788867D01*
X213944552Y-25744552D01*
X213988867Y-25678231D01*
X213988867Y-25678229D01*
X213988868Y-25678229D01*
X214000499Y-25619752D01*
X214000500Y-25619750D01*
X214000500Y-23580249D01*
X214000499Y-23580247D01*
X217799500Y-23580247D01*
X217799500Y-25619752D01*
X217811131Y-25678229D01*
X217811132Y-25678230D01*
X217855447Y-25744552D01*
X217921769Y-25788867D01*
X217921770Y-25788868D01*
X217980247Y-25800499D01*
X217980250Y-25800500D01*
X217980252Y-25800500D01*
X218919750Y-25800500D01*
X218919751Y-25800499D01*
X218934568Y-25797552D01*
X218978229Y-25788868D01*
X218978229Y-25788867D01*
X218978231Y-25788867D01*
X219044552Y-25744552D01*
X219088867Y-25678231D01*
X219088867Y-25678229D01*
X219088868Y-25678229D01*
X219100499Y-25619752D01*
X219100500Y-25619750D01*
X219100500Y-23580249D01*
X219100499Y-23580247D01*
X231299500Y-23580247D01*
X231299500Y-25619752D01*
X231311131Y-25678229D01*
X231311132Y-25678230D01*
X231355447Y-25744552D01*
X231421769Y-25788867D01*
X231421770Y-25788868D01*
X231480247Y-25800499D01*
X231480250Y-25800500D01*
X231480252Y-25800500D01*
X232419750Y-25800500D01*
X232419751Y-25800499D01*
X232434568Y-25797552D01*
X232478229Y-25788868D01*
X232478229Y-25788867D01*
X232478231Y-25788867D01*
X232544552Y-25744552D01*
X232588867Y-25678231D01*
X232588867Y-25678229D01*
X232588868Y-25678229D01*
X232600499Y-25619752D01*
X232600500Y-25619750D01*
X232600500Y-23580249D01*
X232600499Y-23580247D01*
X232588868Y-23521770D01*
X232588867Y-23521769D01*
X232544552Y-23455447D01*
X232478230Y-23411132D01*
X232478229Y-23411131D01*
X232419752Y-23399500D01*
X232419748Y-23399500D01*
X231480252Y-23399500D01*
X231480247Y-23399500D01*
X231421770Y-23411131D01*
X231421769Y-23411132D01*
X231355447Y-23455447D01*
X231311132Y-23521769D01*
X231311131Y-23521770D01*
X231299500Y-23580247D01*
X219100499Y-23580247D01*
X219088868Y-23521770D01*
X219088867Y-23521769D01*
X219044552Y-23455447D01*
X218978230Y-23411132D01*
X218978229Y-23411131D01*
X218919752Y-23399500D01*
X218919748Y-23399500D01*
X217980252Y-23399500D01*
X217980247Y-23399500D01*
X217921770Y-23411131D01*
X217921769Y-23411132D01*
X217855447Y-23455447D01*
X217811132Y-23521769D01*
X217811131Y-23521770D01*
X217799500Y-23580247D01*
X214000499Y-23580247D01*
X213988868Y-23521770D01*
X213988867Y-23521769D01*
X213944552Y-23455447D01*
X213878230Y-23411132D01*
X213878229Y-23411131D01*
X213819752Y-23399500D01*
X213819748Y-23399500D01*
X212880252Y-23399500D01*
X212880247Y-23399500D01*
X212821770Y-23411131D01*
X212821769Y-23411132D01*
X212755447Y-23455447D01*
X212711132Y-23521769D01*
X212711131Y-23521770D01*
X212699500Y-23580247D01*
X200500499Y-23580247D01*
X200488868Y-23521770D01*
X200488867Y-23521769D01*
X200444552Y-23455447D01*
X200378230Y-23411132D01*
X200378229Y-23411131D01*
X200319752Y-23399500D01*
X200319748Y-23399500D01*
X199380252Y-23399500D01*
X199380247Y-23399500D01*
X199321770Y-23411131D01*
X199321769Y-23411132D01*
X199255447Y-23455447D01*
X199211132Y-23521769D01*
X199211131Y-23521770D01*
X199199500Y-23580247D01*
X198063807Y-23580247D01*
X198987609Y-22542070D01*
X199046879Y-22505073D01*
X199080244Y-22500500D01*
X232319756Y-22500500D01*
X232386795Y-22520185D01*
G37*
%TD.AperFunction*%
%TD*%
%TA.AperFunction,Conductor*%
%TO.N,GND*%
G36*
X205115677Y-28019685D02*
G01*
X205136319Y-28036319D01*
X205563681Y-28463681D01*
X205597166Y-28525004D01*
X205600000Y-28551362D01*
X205600000Y-31599999D01*
X205751501Y-32092381D01*
X205751504Y-32092389D01*
X207050232Y-36313255D01*
X207054336Y-36331284D01*
X207198621Y-37290829D01*
X207200000Y-37309267D01*
X207200000Y-40448638D01*
X207180315Y-40515677D01*
X207163681Y-40536319D01*
X206736319Y-40963681D01*
X206674996Y-40997166D01*
X206648638Y-41000000D01*
X202543853Y-41000000D01*
X202476814Y-40980315D01*
X202465897Y-40972431D01*
X202455073Y-40963681D01*
X201929338Y-40538668D01*
X201889579Y-40481213D01*
X201886046Y-40468219D01*
X201881850Y-40448638D01*
X200997595Y-36322110D01*
X200995698Y-36313255D01*
X200306137Y-33095301D01*
X200304074Y-33082382D01*
X200200690Y-32106512D01*
X200200000Y-32093449D01*
X200200000Y-28551362D01*
X200219685Y-28484323D01*
X200236319Y-28463681D01*
X200663681Y-28036319D01*
X200725004Y-28002834D01*
X200751362Y-28000000D01*
X205048638Y-28000000D01*
X205115677Y-28019685D01*
G37*
%TD.AperFunction*%
%TD*%
%TA.AperFunction,Conductor*%
%TO.N,GND*%
G36*
X235111721Y-45219685D02*
G01*
X235136955Y-45241165D01*
X235509304Y-45655938D01*
X235539440Y-45718974D01*
X235540313Y-45752101D01*
X234858845Y-52055678D01*
X234832069Y-52120213D01*
X234818398Y-52134623D01*
X234335342Y-52568273D01*
X234272306Y-52598409D01*
X234252507Y-52600000D01*
X228724500Y-52600000D01*
X228657461Y-52580315D01*
X228611706Y-52527511D01*
X228600500Y-52476000D01*
X228600500Y-52344106D01*
X228600500Y-52344104D01*
X228566392Y-52216810D01*
X228500500Y-52102682D01*
X228407314Y-52009496D01*
X228350250Y-51976550D01*
X228293187Y-51943604D01*
X228229539Y-51926550D01*
X228165892Y-51909496D01*
X216124000Y-51909496D01*
X216056961Y-51889811D01*
X216011206Y-51837007D01*
X216000000Y-51785496D01*
X216000000Y-45751362D01*
X216019685Y-45684323D01*
X216036319Y-45663681D01*
X216463681Y-45236319D01*
X216525004Y-45202834D01*
X216551362Y-45200000D01*
X235044682Y-45200000D01*
X235111721Y-45219685D01*
G37*
%TD.AperFunction*%
%TD*%
%TA.AperFunction,Conductor*%
%TO.N,GND*%
G36*
X223329451Y-124417670D02*
G01*
X223706456Y-124643873D01*
X223753813Y-124695242D01*
X223766657Y-124750200D01*
X223766657Y-124756761D01*
X223766657Y-124756763D01*
X223766656Y-124756763D01*
X223795497Y-124901750D01*
X223795500Y-124901760D01*
X223852069Y-125038331D01*
X223852076Y-125038344D01*
X223934205Y-125161258D01*
X223934208Y-125161262D01*
X224038737Y-125265791D01*
X224038741Y-125265794D01*
X224161655Y-125347923D01*
X224161668Y-125347930D01*
X224303871Y-125406832D01*
X224302911Y-125409148D01*
X224352166Y-125441405D01*
X224367171Y-125463446D01*
X225131667Y-126896876D01*
X225145846Y-126965292D01*
X225128584Y-127019027D01*
X224936121Y-127339798D01*
X224884750Y-127387156D01*
X224829792Y-127400000D01*
X223151362Y-127400000D01*
X223084323Y-127380315D01*
X223063681Y-127363681D01*
X222636319Y-126936319D01*
X222602834Y-126874996D01*
X222600000Y-126848638D01*
X222600000Y-124951362D01*
X222619685Y-124884323D01*
X222636319Y-124863681D01*
X223063681Y-124436319D01*
X223090608Y-124421615D01*
X223116427Y-124405023D01*
X223122627Y-124404131D01*
X223125004Y-124402834D01*
X223151362Y-124400000D01*
X223265655Y-124400000D01*
X223329451Y-124417670D01*
G37*
%TD.AperFunction*%
%TD*%
%TA.AperFunction,Conductor*%
%TO.N,/esc_landing/M2a*%
G36*
X196892539Y-70819685D02*
G01*
X196938294Y-70872489D01*
X196949500Y-70924000D01*
X196949500Y-75570500D01*
X196929815Y-75637539D01*
X196877011Y-75683294D01*
X196825500Y-75694500D01*
X189717542Y-75694500D01*
X189706119Y-75695104D01*
X189695830Y-75695649D01*
X189695825Y-75695649D01*
X189669798Y-75698414D01*
X189593485Y-75722146D01*
X189532072Y-75755472D01*
X189485154Y-75790404D01*
X189485150Y-75790408D01*
X186373821Y-78885643D01*
X186373787Y-78885679D01*
X186359240Y-78901769D01*
X186342719Y-78922109D01*
X186342717Y-78922111D01*
X186305362Y-78992743D01*
X186285327Y-79059683D01*
X186276703Y-79117537D01*
X186236997Y-86774865D01*
X186216965Y-86841801D01*
X186163925Y-86887282D01*
X186137191Y-86895839D01*
X186041505Y-86914872D01*
X186041499Y-86914874D01*
X185873982Y-86984261D01*
X185873973Y-86984266D01*
X185723215Y-87085000D01*
X185723211Y-87085003D01*
X185595003Y-87213211D01*
X185595000Y-87213215D01*
X185494266Y-87363973D01*
X185494261Y-87363982D01*
X185424874Y-87531499D01*
X185424872Y-87531507D01*
X185389500Y-87709334D01*
X185389500Y-87890665D01*
X185424872Y-88068492D01*
X185424874Y-88068500D01*
X185494261Y-88236017D01*
X185494266Y-88236026D01*
X185595000Y-88386784D01*
X185595003Y-88386788D01*
X185723211Y-88514996D01*
X185723215Y-88514999D01*
X185873973Y-88615733D01*
X185873979Y-88615736D01*
X185873980Y-88615737D01*
X186041500Y-88685126D01*
X186126567Y-88702046D01*
X186188475Y-88734430D01*
X186223050Y-88795145D01*
X186226372Y-88824306D01*
X186114804Y-110340941D01*
X186119385Y-110385173D01*
X186119385Y-110385176D01*
X186130584Y-110437307D01*
X186133190Y-110448030D01*
X186153156Y-110485498D01*
X186167310Y-110553919D01*
X186142227Y-110619131D01*
X186131407Y-110631490D01*
X186122358Y-110640539D01*
X186122354Y-110640544D01*
X186063044Y-110743271D01*
X186032343Y-110857848D01*
X186032343Y-110857850D01*
X186032343Y-110908343D01*
X186012658Y-110975382D01*
X185959854Y-111021137D01*
X185908343Y-111032343D01*
X185857848Y-111032343D01*
X185743271Y-111063044D01*
X185743269Y-111063044D01*
X185743269Y-111063045D01*
X185640544Y-111122354D01*
X185640541Y-111122356D01*
X185556670Y-111206227D01*
X185556668Y-111206230D01*
X185497358Y-111308957D01*
X185466657Y-111423534D01*
X185466657Y-111542152D01*
X185497358Y-111656729D01*
X185556668Y-111759456D01*
X185640544Y-111843332D01*
X185743271Y-111902642D01*
X185857848Y-111933343D01*
X185857851Y-111933343D01*
X185981903Y-111933343D01*
X186048942Y-111953028D01*
X186094697Y-112005832D01*
X186105901Y-112057986D01*
X186098706Y-113445574D01*
X186086392Y-113498807D01*
X184768256Y-116231267D01*
X184734257Y-116274040D01*
X180671848Y-119539352D01*
X180671625Y-119539531D01*
X177431306Y-122131784D01*
X177398588Y-122164662D01*
X177398586Y-122164664D01*
X177364078Y-122208232D01*
X177356356Y-122218639D01*
X177356355Y-122218640D01*
X177333238Y-122276096D01*
X177289952Y-122330942D01*
X177239635Y-122351943D01*
X177190038Y-122360647D01*
X177190035Y-122360647D01*
X177125634Y-122387731D01*
X177075492Y-122417850D01*
X177075484Y-122417855D01*
X174566920Y-124461870D01*
X174566907Y-124461882D01*
X174535627Y-124493599D01*
X174535625Y-124493601D01*
X174502437Y-124535504D01*
X174495775Y-124544399D01*
X174495774Y-124544401D01*
X174460889Y-124628930D01*
X174460887Y-124628937D01*
X174449271Y-124697848D01*
X174446617Y-124722830D01*
X174446617Y-124722832D01*
X174462973Y-124812812D01*
X174490453Y-124877055D01*
X174520876Y-124927012D01*
X174520876Y-124927013D01*
X177559719Y-128610458D01*
X177587198Y-128674697D01*
X177575584Y-128743595D01*
X177528565Y-128795276D01*
X177496422Y-128809074D01*
X174276096Y-129679433D01*
X174206242Y-129677922D01*
X174149083Y-129639825D01*
X170938255Y-125845210D01*
X170909978Y-125781318D01*
X170911120Y-125741831D01*
X171476898Y-122782490D01*
X171508821Y-122720341D01*
X171517835Y-122711765D01*
X180603318Y-114899948D01*
X181100000Y-113817863D01*
X181100000Y-111800000D01*
X181100000Y-109340691D01*
X182349500Y-109340691D01*
X182349500Y-109459309D01*
X182380201Y-109573886D01*
X182439511Y-109676613D01*
X182523387Y-109760489D01*
X182626114Y-109819799D01*
X182740691Y-109850500D01*
X182740694Y-109850500D01*
X182859306Y-109850500D01*
X182859309Y-109850500D01*
X182973886Y-109819799D01*
X183076613Y-109760489D01*
X183160489Y-109676613D01*
X183219799Y-109573886D01*
X183250500Y-109459309D01*
X183250500Y-109340691D01*
X183219799Y-109226114D01*
X183160489Y-109123387D01*
X183076613Y-109039511D01*
X182973886Y-108980201D01*
X182859309Y-108949500D01*
X182740691Y-108949500D01*
X182626114Y-108980201D01*
X182626112Y-108980201D01*
X182626112Y-108980202D01*
X182523387Y-109039511D01*
X182523384Y-109039513D01*
X182439513Y-109123384D01*
X182439511Y-109123387D01*
X182380201Y-109226114D01*
X182349500Y-109340691D01*
X181100000Y-109340691D01*
X181100000Y-95000000D01*
X181100000Y-90249334D01*
X182849500Y-90249334D01*
X182849500Y-90430665D01*
X182884872Y-90608492D01*
X182884874Y-90608500D01*
X182954261Y-90776017D01*
X182954266Y-90776026D01*
X183055000Y-90926784D01*
X183055003Y-90926788D01*
X183183211Y-91054996D01*
X183183215Y-91054999D01*
X183333973Y-91155733D01*
X183333979Y-91155736D01*
X183333980Y-91155737D01*
X183501500Y-91225126D01*
X183679334Y-91260499D01*
X183679338Y-91260500D01*
X183679339Y-91260500D01*
X183860662Y-91260500D01*
X183860663Y-91260499D01*
X184038500Y-91225126D01*
X184206020Y-91155737D01*
X184356785Y-91054999D01*
X184484999Y-90926785D01*
X184585737Y-90776020D01*
X184655126Y-90608500D01*
X184690500Y-90430661D01*
X184690500Y-90249339D01*
X184655126Y-90071500D01*
X184585737Y-89903980D01*
X184585736Y-89903979D01*
X184585733Y-89903973D01*
X184484999Y-89753215D01*
X184484996Y-89753211D01*
X184356788Y-89625003D01*
X184356784Y-89625000D01*
X184206026Y-89524266D01*
X184206017Y-89524261D01*
X184038500Y-89454874D01*
X184038492Y-89454872D01*
X183860665Y-89419500D01*
X183860661Y-89419500D01*
X183679339Y-89419500D01*
X183679334Y-89419500D01*
X183501507Y-89454872D01*
X183501499Y-89454874D01*
X183333982Y-89524261D01*
X183333973Y-89524266D01*
X183183215Y-89625000D01*
X183183211Y-89625003D01*
X183055003Y-89753211D01*
X183055000Y-89753215D01*
X182954266Y-89903973D01*
X182954261Y-89903982D01*
X182884874Y-90071499D01*
X182884872Y-90071507D01*
X182849500Y-90249334D01*
X181100000Y-90249334D01*
X181100000Y-85169334D01*
X182849500Y-85169334D01*
X182849500Y-85350665D01*
X182884872Y-85528492D01*
X182884874Y-85528500D01*
X182954261Y-85696017D01*
X182954266Y-85696026D01*
X183055000Y-85846784D01*
X183055003Y-85846788D01*
X183183211Y-85974996D01*
X183183215Y-85974999D01*
X183333973Y-86075733D01*
X183333979Y-86075736D01*
X183333980Y-86075737D01*
X183501500Y-86145126D01*
X183679334Y-86180499D01*
X183679338Y-86180500D01*
X183679339Y-86180500D01*
X183860662Y-86180500D01*
X183860663Y-86180499D01*
X184038500Y-86145126D01*
X184206020Y-86075737D01*
X184356785Y-85974999D01*
X184484999Y-85846785D01*
X184585737Y-85696020D01*
X184655126Y-85528500D01*
X184690500Y-85350661D01*
X184690500Y-85169339D01*
X184655126Y-84991500D01*
X184585737Y-84823980D01*
X184585736Y-84823979D01*
X184585733Y-84823973D01*
X184484999Y-84673215D01*
X184484996Y-84673211D01*
X184356788Y-84545003D01*
X184356784Y-84545000D01*
X184206026Y-84444266D01*
X184206017Y-84444261D01*
X184038500Y-84374874D01*
X184038492Y-84374872D01*
X183860665Y-84339500D01*
X183860661Y-84339500D01*
X183679339Y-84339500D01*
X183679334Y-84339500D01*
X183501507Y-84374872D01*
X183501499Y-84374874D01*
X183333982Y-84444261D01*
X183333973Y-84444266D01*
X183183215Y-84545000D01*
X183183211Y-84545003D01*
X183055003Y-84673211D01*
X183055000Y-84673215D01*
X182954266Y-84823973D01*
X182954261Y-84823982D01*
X182884874Y-84991499D01*
X182884872Y-84991507D01*
X182849500Y-85169334D01*
X181100000Y-85169334D01*
X181100000Y-78251851D01*
X181119685Y-78184812D01*
X181136909Y-78163583D01*
X183577562Y-75755472D01*
X188563785Y-70835731D01*
X188625332Y-70802660D01*
X188650876Y-70800000D01*
X196825500Y-70800000D01*
X196892539Y-70819685D01*
G37*
%TD.AperFunction*%
%TD*%
%TA.AperFunction,Conductor*%
%TO.N,5V3_secondary*%
G36*
X180115677Y-105019685D02*
G01*
X180136319Y-105036319D01*
X180563681Y-105463681D01*
X180597166Y-105525004D01*
X180600000Y-105551362D01*
X180600000Y-111248638D01*
X180580315Y-111315677D01*
X180563681Y-111336319D01*
X180136319Y-111763681D01*
X180074996Y-111797166D01*
X180048638Y-111800000D01*
X173147159Y-111800000D01*
X173080120Y-111780315D01*
X173064759Y-111768662D01*
X172576819Y-111334762D01*
X172539803Y-111275504D01*
X172536069Y-111256597D01*
X171864925Y-105551860D01*
X171876642Y-105482982D01*
X171895411Y-105454977D01*
X172263007Y-105041599D01*
X172322265Y-105004584D01*
X172355669Y-105000000D01*
X180048638Y-105000000D01*
X180115677Y-105019685D01*
G37*
%TD.AperFunction*%
%TD*%
%TA.AperFunction,Conductor*%
%TO.N,/esc_landing/M4c*%
G36*
X240275647Y-81170984D02*
G01*
X240321402Y-81223788D01*
X240332607Y-81274919D01*
X240432227Y-113750327D01*
X240432227Y-113750329D01*
X240432228Y-113750330D01*
X242707227Y-118451299D01*
X242707228Y-118451300D01*
X249532227Y-123851299D01*
X250332227Y-124088335D01*
X252232228Y-124651299D01*
X254253658Y-122244834D01*
X254311847Y-122206165D01*
X254381709Y-122205093D01*
X254426928Y-122228461D01*
X256935511Y-124272493D01*
X256975049Y-124330099D01*
X256977165Y-124399937D01*
X256952834Y-124447533D01*
X256062785Y-125526379D01*
X256048899Y-125540691D01*
X256046450Y-125542838D01*
X255888838Y-125700450D01*
X255888832Y-125700457D01*
X255753139Y-125877297D01*
X255753129Y-125877312D01*
X255711341Y-125949689D01*
X255699605Y-125966598D01*
X253781202Y-128291935D01*
X253723355Y-128331121D01*
X253657294Y-128333761D01*
X249043825Y-127254013D01*
X249021360Y-127246427D01*
X243247269Y-124658041D01*
X243219471Y-124640861D01*
X242714391Y-124227614D01*
X242604533Y-124137730D01*
X245395199Y-124137730D01*
X245395199Y-124315121D01*
X245429802Y-124489084D01*
X245429805Y-124489093D01*
X245497682Y-124652966D01*
X245497689Y-124652979D01*
X245596234Y-124800460D01*
X245596237Y-124800464D01*
X245721660Y-124925887D01*
X245721664Y-124925890D01*
X245869145Y-125024435D01*
X245869158Y-125024442D01*
X245992062Y-125075349D01*
X246033033Y-125092320D01*
X246033035Y-125092320D01*
X246033040Y-125092322D01*
X246207003Y-125126925D01*
X246207006Y-125126926D01*
X246207008Y-125126926D01*
X246384392Y-125126926D01*
X246384393Y-125126925D01*
X246442381Y-125115390D01*
X246558357Y-125092322D01*
X246558360Y-125092320D01*
X246558365Y-125092320D01*
X246722246Y-125024439D01*
X246869734Y-124925890D01*
X246995163Y-124800461D01*
X247093712Y-124652973D01*
X247161593Y-124489092D01*
X247196199Y-124315117D01*
X247196199Y-124137735D01*
X247196199Y-124137732D01*
X247196198Y-124137730D01*
X247161595Y-123963767D01*
X247161592Y-123963758D01*
X247093715Y-123799885D01*
X247093708Y-123799872D01*
X246995163Y-123652391D01*
X246995160Y-123652387D01*
X246869737Y-123526964D01*
X246869733Y-123526961D01*
X246722252Y-123428416D01*
X246722239Y-123428409D01*
X246558366Y-123360532D01*
X246558357Y-123360529D01*
X246384393Y-123325926D01*
X246384390Y-123325926D01*
X246207008Y-123325926D01*
X246207005Y-123325926D01*
X246033040Y-123360529D01*
X246033031Y-123360532D01*
X245869158Y-123428409D01*
X245869145Y-123428416D01*
X245721664Y-123526961D01*
X245721660Y-123526964D01*
X245596237Y-123652387D01*
X245596234Y-123652391D01*
X245497689Y-123799872D01*
X245497682Y-123799885D01*
X245429805Y-123963758D01*
X245429802Y-123963767D01*
X245395199Y-124137730D01*
X242604533Y-124137730D01*
X237328817Y-119821237D01*
X237295283Y-119778367D01*
X236666414Y-118451300D01*
X235344090Y-115660876D01*
X235332147Y-115608140D01*
X235232589Y-81275659D01*
X235252079Y-81208562D01*
X235304750Y-81162654D01*
X235356588Y-81151299D01*
X240208608Y-81151299D01*
X240275647Y-81170984D01*
G37*
%TD.AperFunction*%
%TD*%
%TA.AperFunction,Conductor*%
%TO.N,GND*%
G36*
X180115677Y-78219685D02*
G01*
X180136319Y-78236319D01*
X180563681Y-78663681D01*
X180597166Y-78725004D01*
X180600000Y-78751362D01*
X180600000Y-82448638D01*
X180580315Y-82515677D01*
X180563681Y-82536319D01*
X180136319Y-82963681D01*
X180074996Y-82997166D01*
X180048638Y-83000000D01*
X171351362Y-83000000D01*
X171284323Y-82980315D01*
X171263681Y-82963681D01*
X170836319Y-82536319D01*
X170802834Y-82474996D01*
X170800000Y-82448638D01*
X170800000Y-78751362D01*
X170819685Y-78684323D01*
X170836319Y-78663681D01*
X171263681Y-78236319D01*
X171325004Y-78202834D01*
X171351362Y-78200000D01*
X180048638Y-78200000D01*
X180115677Y-78219685D01*
G37*
%TD.AperFunction*%
%TD*%
%TA.AperFunction,Conductor*%
%TO.N,/esc_landing/M2b*%
G36*
X196892539Y-75919685D02*
G01*
X196938294Y-75972489D01*
X196949500Y-76024000D01*
X196949500Y-81076000D01*
X196929815Y-81143039D01*
X196877011Y-81188794D01*
X196825500Y-81200000D01*
X196551613Y-81200000D01*
X196484574Y-81180315D01*
X196449723Y-81142496D01*
X196448040Y-81143653D01*
X196444102Y-81137919D01*
X196444100Y-81137915D01*
X196398345Y-81085111D01*
X196398339Y-81085104D01*
X196380757Y-81067160D01*
X196380756Y-81067159D01*
X196380754Y-81067157D01*
X196380752Y-81067156D01*
X196380750Y-81067154D01*
X196300940Y-81022511D01*
X196300935Y-81022509D01*
X196233903Y-81002826D01*
X196233899Y-81002825D01*
X196233898Y-81002825D01*
X196176000Y-80994500D01*
X191324000Y-80994500D01*
X191323992Y-80994500D01*
X191280313Y-80999197D01*
X191228825Y-81010397D01*
X191218627Y-81012890D01*
X191218624Y-81012891D01*
X191137916Y-81055899D01*
X191137913Y-81055901D01*
X191085104Y-81101660D01*
X191067160Y-81119242D01*
X191067154Y-81119249D01*
X191022511Y-81199059D01*
X191022509Y-81199064D01*
X191002826Y-81266096D01*
X190994500Y-81324003D01*
X190994500Y-90186705D01*
X190995212Y-90203786D01*
X190996929Y-90224359D01*
X190998826Y-90231271D01*
X190997579Y-90301130D01*
X190958761Y-90359224D01*
X190941246Y-90371463D01*
X190892689Y-90399498D01*
X190892683Y-90399502D01*
X190799502Y-90492683D01*
X190799500Y-90492686D01*
X190733608Y-90606812D01*
X190699500Y-90734108D01*
X190699500Y-90865891D01*
X190733608Y-90993187D01*
X190766554Y-91050250D01*
X190799500Y-91107314D01*
X190892686Y-91200500D01*
X190942266Y-91229125D01*
X190990482Y-91279692D01*
X191003705Y-91348299D01*
X191003004Y-91354159D01*
X190994500Y-91413304D01*
X190994500Y-114023488D01*
X190982117Y-114077504D01*
X188772927Y-118642488D01*
X188738250Y-118685715D01*
X182022362Y-123999383D01*
X181980649Y-124021031D01*
X181323583Y-124215719D01*
X180901778Y-124340697D01*
X180168493Y-124557967D01*
X179548645Y-124741625D01*
X179478775Y-124741797D01*
X179419905Y-124704167D01*
X179418471Y-124702490D01*
X179414562Y-124697836D01*
X177542199Y-122468833D01*
X177514153Y-122404840D01*
X177525156Y-122335843D01*
X177559680Y-122292255D01*
X180800000Y-119700000D01*
X184921010Y-116387587D01*
X186303818Y-113521063D01*
X186313101Y-111730624D01*
X186316193Y-111703745D01*
X186320348Y-111685493D01*
X186336956Y-111656729D01*
X186367657Y-111542152D01*
X186367657Y-111477716D01*
X186370751Y-111464128D01*
X186381268Y-111445302D01*
X186387342Y-111424618D01*
X186397968Y-111415410D01*
X186404828Y-111403132D01*
X186423852Y-111392981D01*
X186440146Y-111378863D01*
X186457314Y-111375128D01*
X186466472Y-111370242D01*
X186476157Y-111371028D01*
X186491657Y-111367657D01*
X186542149Y-111367657D01*
X186542152Y-111367657D01*
X186656729Y-111336956D01*
X186759456Y-111277646D01*
X186843332Y-111193770D01*
X186902642Y-111091043D01*
X186933343Y-110976466D01*
X186933343Y-110857848D01*
X186902642Y-110743271D01*
X186843332Y-110640544D01*
X186759456Y-110556668D01*
X186656729Y-110497358D01*
X186542152Y-110466657D01*
X186444300Y-110466657D01*
X186377261Y-110446972D01*
X186331506Y-110394168D01*
X186320302Y-110342014D01*
X186328292Y-108800985D01*
X186431921Y-88815399D01*
X186451952Y-88748467D01*
X186504992Y-88702986D01*
X186531718Y-88694431D01*
X186578500Y-88685126D01*
X186746020Y-88615737D01*
X186896785Y-88514999D01*
X187024999Y-88386785D01*
X187125737Y-88236020D01*
X187195126Y-88068500D01*
X187230500Y-87890661D01*
X187230500Y-87709339D01*
X187195126Y-87531500D01*
X187125737Y-87363980D01*
X187125736Y-87363979D01*
X187125733Y-87363973D01*
X187024999Y-87213215D01*
X187024996Y-87213211D01*
X186896788Y-87085003D01*
X186896784Y-87085000D01*
X186746026Y-86984266D01*
X186746017Y-86984261D01*
X186578500Y-86914874D01*
X186578495Y-86914872D01*
X186542251Y-86907663D01*
X186480341Y-86875277D01*
X186445767Y-86814561D01*
X186442446Y-86785411D01*
X186482200Y-79118603D01*
X186502232Y-79051670D01*
X186518741Y-79031344D01*
X189630088Y-75936091D01*
X189691498Y-75902766D01*
X189717542Y-75900000D01*
X196825500Y-75900000D01*
X196892539Y-75919685D01*
G37*
%TD.AperFunction*%
%TD*%
%TA.AperFunction,Conductor*%
%TO.N,/esc_landing/M1a*%
G36*
X197143039Y-55219685D02*
G01*
X197188794Y-55272489D01*
X197200000Y-55324000D01*
X197200000Y-58044818D01*
X197180315Y-58111857D01*
X197147820Y-58142845D01*
X197149131Y-58144554D01*
X197142689Y-58149496D01*
X197049500Y-58242686D01*
X196983608Y-58356812D01*
X196949500Y-58484108D01*
X196949500Y-60070500D01*
X196929815Y-60137539D01*
X196877011Y-60183294D01*
X196825500Y-60194500D01*
X177655676Y-60194500D01*
X177627723Y-60196410D01*
X177594295Y-60201001D01*
X177513349Y-60230322D01*
X177513347Y-60230323D01*
X177454104Y-60267345D01*
X177409411Y-60305091D01*
X175663416Y-62269335D01*
X175663410Y-62269343D01*
X175642859Y-62296764D01*
X175642854Y-62296772D01*
X175620985Y-62331681D01*
X175620984Y-62331681D01*
X175605274Y-62362142D01*
X175605269Y-62362152D01*
X175576728Y-62431057D01*
X175569554Y-62445603D01*
X175479695Y-62601242D01*
X175470684Y-62614728D01*
X175361276Y-62757313D01*
X175350581Y-62769508D01*
X175223506Y-62896583D01*
X175211311Y-62907278D01*
X175068727Y-63016686D01*
X175055242Y-63025696D01*
X174969604Y-63075140D01*
X174969595Y-63075145D01*
X174942501Y-63093830D01*
X174942498Y-63093832D01*
X174911855Y-63118809D01*
X174888081Y-63141588D01*
X174330276Y-63769120D01*
X174330066Y-63769385D01*
X174329998Y-63769432D01*
X174327984Y-63771699D01*
X174327453Y-63771227D01*
X174272963Y-63809647D01*
X174203158Y-63812646D01*
X174151990Y-63786198D01*
X171596196Y-61582927D01*
X171558274Y-61524247D01*
X171558097Y-61454377D01*
X171585210Y-61405820D01*
X177163079Y-55240806D01*
X177222653Y-55204301D01*
X177255029Y-55200000D01*
X197076000Y-55200000D01*
X197143039Y-55219685D01*
G37*
%TD.AperFunction*%
%TD*%
%TA.AperFunction,Conductor*%
%TO.N,/esc_landing/M3c*%
G36*
X252443582Y-63969849D02*
G01*
X252487813Y-64003480D01*
X254367211Y-66258757D01*
X254395007Y-66322860D01*
X254383733Y-66391814D01*
X254355363Y-66429893D01*
X252265828Y-68329471D01*
X252213717Y-68357703D01*
X243573582Y-70611650D01*
X243503745Y-70609525D01*
X243455191Y-70579933D01*
X243212783Y-70340757D01*
X243212774Y-70340748D01*
X243203829Y-70332794D01*
X243196844Y-70326583D01*
X243176797Y-70310540D01*
X243176793Y-70310537D01*
X243106874Y-70274114D01*
X243106289Y-70273809D01*
X243106286Y-70273808D01*
X243106284Y-70273807D01*
X243039261Y-70254126D01*
X243039252Y-70254124D01*
X243039250Y-70254124D01*
X242981352Y-70245799D01*
X234824500Y-70245799D01*
X234757461Y-70226114D01*
X234711706Y-70173310D01*
X234700500Y-70121799D01*
X234700500Y-65674000D01*
X234720185Y-65606961D01*
X234772989Y-65561206D01*
X234824500Y-65550000D01*
X241643251Y-65550000D01*
X242627292Y-65404215D01*
X245825432Y-64930416D01*
X245894626Y-64940063D01*
X245912478Y-64949968D01*
X245944834Y-64971588D01*
X245944837Y-64971589D01*
X245944840Y-64971591D01*
X246067744Y-65022498D01*
X246108715Y-65039469D01*
X246108717Y-65039469D01*
X246108722Y-65039471D01*
X246282685Y-65074074D01*
X246282688Y-65074075D01*
X246282690Y-65074075D01*
X246460074Y-65074075D01*
X246460075Y-65074074D01*
X246518063Y-65062539D01*
X246634039Y-65039471D01*
X246634042Y-65039469D01*
X246634047Y-65039469D01*
X246797928Y-64971588D01*
X246945416Y-64873039D01*
X247043866Y-64774588D01*
X247105187Y-64741104D01*
X247113321Y-64739618D01*
X252374382Y-63960202D01*
X252443582Y-63969849D01*
G37*
%TD.AperFunction*%
%TD*%
%TA.AperFunction,Conductor*%
%TO.N,/esc_landing/M3a*%
G36*
X254455257Y-55169685D02*
G01*
X254480166Y-55190805D01*
X259148009Y-60350000D01*
X260058034Y-61355817D01*
X260088415Y-61418736D01*
X260079957Y-61488091D01*
X260047048Y-61532929D01*
X257491262Y-63736192D01*
X257427633Y-63765055D01*
X257358500Y-63754936D01*
X257316769Y-63721647D01*
X257315902Y-63722419D01*
X257061909Y-63436677D01*
X257061907Y-63436675D01*
X257027342Y-63405683D01*
X257027339Y-63405680D01*
X257027331Y-63405674D01*
X256981958Y-63373436D01*
X256981948Y-63373430D01*
X256941306Y-63350988D01*
X256941301Y-63350986D01*
X256810810Y-63297150D01*
X256788706Y-63285285D01*
X256682286Y-63213418D01*
X256664136Y-63198470D01*
X256616096Y-63150565D01*
X256608676Y-63142478D01*
X255592382Y-61931305D01*
X255585697Y-61922579D01*
X255546873Y-61866966D01*
X255535297Y-61846486D01*
X255479737Y-61721888D01*
X255476274Y-61713265D01*
X255460240Y-61668538D01*
X255431821Y-61612825D01*
X255402354Y-61569676D01*
X255212257Y-61355817D01*
X254233839Y-60255096D01*
X254233822Y-60255078D01*
X254213840Y-60235473D01*
X254213832Y-60235466D01*
X254213825Y-60235459D01*
X254188187Y-60213527D01*
X254112500Y-60172510D01*
X254045466Y-60152826D01*
X254045462Y-60152825D01*
X254045461Y-60152825D01*
X253987563Y-60144500D01*
X234824500Y-60144500D01*
X234757461Y-60124815D01*
X234711706Y-60072011D01*
X234700500Y-60020500D01*
X234700500Y-58484110D01*
X234700500Y-58484108D01*
X234666392Y-58356814D01*
X234600500Y-58242686D01*
X234507314Y-58149500D01*
X234507313Y-58149499D01*
X234505241Y-58148303D01*
X234503840Y-58146833D01*
X234500869Y-58144554D01*
X234501224Y-58144090D01*
X234457028Y-58097733D01*
X234443247Y-58040919D01*
X234443247Y-55274000D01*
X234462932Y-55206961D01*
X234515736Y-55161206D01*
X234567247Y-55150000D01*
X254388218Y-55150000D01*
X254455257Y-55169685D01*
G37*
%TD.AperFunction*%
%TD*%
%TA.AperFunction,Conductor*%
%TO.N,VBUS*%
G36*
X206115677Y-116019685D02*
G01*
X206136319Y-116036319D01*
X206563681Y-116463681D01*
X206597166Y-116525004D01*
X206600000Y-116551362D01*
X206600000Y-117848638D01*
X206580315Y-117915677D01*
X206563681Y-117936319D01*
X206136319Y-118363681D01*
X206109391Y-118378384D01*
X206083573Y-118394977D01*
X206077372Y-118395868D01*
X206074996Y-118397166D01*
X206048638Y-118400000D01*
X205951362Y-118400000D01*
X205884323Y-118380315D01*
X205863681Y-118363681D01*
X205436319Y-117936319D01*
X205402834Y-117874996D01*
X205400000Y-117848638D01*
X205400000Y-116551362D01*
X205419685Y-116484323D01*
X205436319Y-116463681D01*
X205863681Y-116036319D01*
X205890608Y-116021615D01*
X205916427Y-116005023D01*
X205922627Y-116004131D01*
X205925004Y-116002834D01*
X205951362Y-116000000D01*
X206048638Y-116000000D01*
X206115677Y-116019685D01*
G37*
%TD.AperFunction*%
%TD*%
%TA.AperFunction,Conductor*%
%TO.N,Net-(U6-Vin(+))*%
G36*
X180115677Y-94219685D02*
G01*
X180136319Y-94236319D01*
X180563681Y-94663681D01*
X180597166Y-94725004D01*
X180600000Y-94751362D01*
X180600000Y-99049377D01*
X180580315Y-99116416D01*
X180564571Y-99136159D01*
X180135532Y-99574041D01*
X180074554Y-99608150D01*
X180049491Y-99611233D01*
X175700000Y-99700000D01*
X171351990Y-99788734D01*
X171284563Y-99770422D01*
X171262678Y-99753331D01*
X170837218Y-99336466D01*
X170803109Y-99275488D01*
X170800000Y-99247895D01*
X170800000Y-97254322D01*
X170819685Y-97187283D01*
X170867704Y-97143837D01*
X170986433Y-97083343D01*
X171177510Y-96944517D01*
X171344517Y-96777510D01*
X171483343Y-96586433D01*
X171590568Y-96375992D01*
X171663553Y-96151368D01*
X171700500Y-95918097D01*
X171700500Y-95681910D01*
X171700500Y-95681908D01*
X171696586Y-95657197D01*
X171705540Y-95587905D01*
X171750536Y-95534453D01*
X171784984Y-95518575D01*
X173600000Y-95000000D01*
X175910933Y-94339733D01*
X175927796Y-94336162D01*
X176891439Y-94201198D01*
X176908638Y-94200000D01*
X180048638Y-94200000D01*
X180115677Y-94219685D01*
G37*
%TD.AperFunction*%
%TD*%
%TA.AperFunction,Conductor*%
%TO.N,/esc_landing/M1b*%
G36*
X196892539Y-60419685D02*
G01*
X196938294Y-60472489D01*
X196949500Y-60524000D01*
X196949500Y-65270500D01*
X196929815Y-65337539D01*
X196877011Y-65383294D01*
X196825500Y-65394500D01*
X190024272Y-65394500D01*
X190006100Y-65393161D01*
X186065345Y-64809344D01*
X186001914Y-64780048D01*
X185964391Y-64721108D01*
X185964690Y-64651239D01*
X185968951Y-64639242D01*
X185970195Y-64636241D01*
X186004801Y-64462266D01*
X186004801Y-64284884D01*
X186004801Y-64284881D01*
X186004800Y-64284879D01*
X185970197Y-64110916D01*
X185970194Y-64110907D01*
X185902317Y-63947034D01*
X185902310Y-63947021D01*
X185803765Y-63799540D01*
X185803762Y-63799536D01*
X185678339Y-63674113D01*
X185678335Y-63674110D01*
X185530854Y-63575565D01*
X185530841Y-63575558D01*
X185366968Y-63507681D01*
X185366959Y-63507678D01*
X185192995Y-63473075D01*
X185192992Y-63473075D01*
X185015610Y-63473075D01*
X185015607Y-63473075D01*
X184841642Y-63507678D01*
X184841633Y-63507681D01*
X184677760Y-63575558D01*
X184677747Y-63575565D01*
X184530266Y-63674110D01*
X184530262Y-63674113D01*
X184404839Y-63799536D01*
X184404836Y-63799540D01*
X184306291Y-63947021D01*
X184306284Y-63947034D01*
X184238407Y-64110907D01*
X184238404Y-64110916D01*
X184203801Y-64284879D01*
X184203801Y-64389836D01*
X184184116Y-64456875D01*
X184131312Y-64502630D01*
X184062154Y-64512574D01*
X184061629Y-64512497D01*
X179298992Y-63806922D01*
X179298988Y-63806921D01*
X179252669Y-63805341D01*
X179252660Y-63805341D01*
X179197294Y-63809718D01*
X179190676Y-63810450D01*
X179184460Y-63811139D01*
X179184459Y-63811139D01*
X179099062Y-63843874D01*
X179099060Y-63843875D01*
X179041021Y-63882774D01*
X178997569Y-63921915D01*
X178997562Y-63921922D01*
X177124449Y-66169657D01*
X177066410Y-66208556D01*
X176996553Y-66209902D01*
X176948492Y-66184422D01*
X176266666Y-65600000D01*
X174495858Y-64082164D01*
X174457769Y-64023590D01*
X174457394Y-63953722D01*
X174483876Y-63905639D01*
X175041679Y-63278110D01*
X175072347Y-63253113D01*
X175176693Y-63192869D01*
X175353543Y-63057168D01*
X175511166Y-62899545D01*
X175646867Y-62722695D01*
X175758324Y-62529647D01*
X175795131Y-62440785D01*
X175817007Y-62405866D01*
X177563005Y-60441618D01*
X177622256Y-60404591D01*
X177655684Y-60400000D01*
X196825500Y-60400000D01*
X196892539Y-60419685D01*
G37*
%TD.AperFunction*%
%TD*%
%TA.AperFunction,Conductor*%
%TO.N,5V3_Primary*%
G36*
X180115677Y-83294685D02*
G01*
X180136319Y-83311319D01*
X180563681Y-83738681D01*
X180597166Y-83800004D01*
X180600000Y-83826362D01*
X180600000Y-93448637D01*
X180580315Y-93515676D01*
X180563681Y-93536318D01*
X180185956Y-93914042D01*
X180124633Y-93947527D01*
X180080630Y-93949099D01*
X180048642Y-93944500D01*
X180048638Y-93944500D01*
X176908638Y-93944500D01*
X176906101Y-93944588D01*
X176890878Y-93945118D01*
X176873691Y-93946315D01*
X176855984Y-93948169D01*
X176516354Y-93995737D01*
X176494480Y-93998801D01*
X176477283Y-94000000D01*
X159000000Y-94000000D01*
X157176471Y-95458823D01*
X155390433Y-96887653D01*
X155000000Y-97200000D01*
X155000000Y-97742270D01*
X154980315Y-97809309D01*
X154963681Y-97829951D01*
X154892051Y-97901580D01*
X154892048Y-97901584D01*
X154809919Y-98024498D01*
X154809912Y-98024511D01*
X154753343Y-98161082D01*
X154753340Y-98161092D01*
X154724500Y-98306079D01*
X154724500Y-98306082D01*
X154724500Y-98453918D01*
X154724500Y-98453920D01*
X154724499Y-98453920D01*
X154753340Y-98598907D01*
X154753343Y-98598917D01*
X154809912Y-98735488D01*
X154809919Y-98735501D01*
X154892048Y-98858415D01*
X154892051Y-98858419D01*
X154963681Y-98930049D01*
X154997166Y-98991372D01*
X155000000Y-99017730D01*
X155000000Y-99500458D01*
X154983388Y-99562456D01*
X154968721Y-99587860D01*
X154968719Y-99587865D01*
X154929500Y-99734234D01*
X154929500Y-99885765D01*
X154968719Y-100032135D01*
X154983387Y-100057540D01*
X155000000Y-100119541D01*
X155000000Y-105280458D01*
X154983388Y-105342456D01*
X154968721Y-105367860D01*
X154968719Y-105367865D01*
X154929500Y-105514234D01*
X154929500Y-105665765D01*
X154968719Y-105812135D01*
X154983387Y-105837540D01*
X155000000Y-105899541D01*
X155000000Y-106382270D01*
X154980315Y-106449309D01*
X154963681Y-106469951D01*
X154892051Y-106541580D01*
X154892048Y-106541584D01*
X154809919Y-106664498D01*
X154809912Y-106664511D01*
X154753343Y-106801082D01*
X154753340Y-106801092D01*
X154724500Y-106946079D01*
X154724500Y-106946082D01*
X154724500Y-107093918D01*
X154724500Y-107093920D01*
X154724499Y-107093920D01*
X154753340Y-107238907D01*
X154753343Y-107238917D01*
X154809912Y-107375488D01*
X154809919Y-107375501D01*
X154892048Y-107498415D01*
X154892051Y-107498419D01*
X154963681Y-107570049D01*
X154997166Y-107631372D01*
X155000000Y-107657730D01*
X155000000Y-110987386D01*
X154980315Y-111054425D01*
X154927511Y-111100180D01*
X154910113Y-111106601D01*
X154876956Y-111116088D01*
X154811559Y-111150249D01*
X154696593Y-111210302D01*
X154696591Y-111210303D01*
X154696590Y-111210304D01*
X154538890Y-111338890D01*
X154410304Y-111496590D01*
X154410302Y-111496593D01*
X154363196Y-111586772D01*
X154316089Y-111676954D01*
X154260114Y-111872583D01*
X154260113Y-111872586D01*
X154253733Y-111944347D01*
X154250220Y-111983871D01*
X154249500Y-111991966D01*
X154249500Y-113608028D01*
X154249501Y-113608034D01*
X154260113Y-113727415D01*
X154316089Y-113923045D01*
X154316090Y-113923048D01*
X154316091Y-113923049D01*
X154410302Y-114103407D01*
X154410304Y-114103409D01*
X154538890Y-114261109D01*
X154635587Y-114339954D01*
X154696593Y-114389698D01*
X154876951Y-114483909D01*
X154910111Y-114493397D01*
X154932788Y-114507750D01*
X154957203Y-114518900D01*
X154961864Y-114526153D01*
X154969149Y-114530764D01*
X154980466Y-114555098D01*
X154994977Y-114577678D01*
X154996771Y-114590158D01*
X154998613Y-114594118D01*
X155000000Y-114612613D01*
X155000000Y-114799719D01*
X154980315Y-114866758D01*
X154951488Y-114898094D01*
X154843331Y-114981087D01*
X154843330Y-114981089D01*
X154681081Y-115143338D01*
X154541392Y-115325382D01*
X154426657Y-115524109D01*
X154426650Y-115524123D01*
X154338842Y-115736112D01*
X154279453Y-115957759D01*
X154279451Y-115957770D01*
X154249500Y-116185258D01*
X154249500Y-116414741D01*
X154274446Y-116604215D01*
X154279452Y-116642238D01*
X154323545Y-116806796D01*
X154338842Y-116863887D01*
X154426650Y-117075876D01*
X154426657Y-117075890D01*
X154541392Y-117274617D01*
X154681081Y-117456661D01*
X154681089Y-117456670D01*
X154843333Y-117618914D01*
X154843339Y-117618919D01*
X154951487Y-117701904D01*
X154992689Y-117758331D01*
X155000000Y-117800279D01*
X155000000Y-118200000D01*
X158448638Y-118200000D01*
X158515677Y-118219685D01*
X158536319Y-118236319D01*
X158963681Y-118663681D01*
X158997166Y-118725004D01*
X159000000Y-118751362D01*
X159000000Y-121048638D01*
X158980315Y-121115677D01*
X158963681Y-121136319D01*
X158536319Y-121563681D01*
X158474996Y-121597166D01*
X158448638Y-121600000D01*
X154911999Y-121600000D01*
X154888222Y-121597699D01*
X154885494Y-121597166D01*
X153948543Y-121414111D01*
X153925652Y-121407295D01*
X151500000Y-120421875D01*
X149177829Y-119478492D01*
X149123128Y-119435023D01*
X149100612Y-119368880D01*
X149100500Y-119363610D01*
X149100500Y-109706379D01*
X150049500Y-109706379D01*
X150049500Y-109893620D01*
X150086025Y-110077243D01*
X150086027Y-110077251D01*
X150157676Y-110250228D01*
X150157681Y-110250237D01*
X150261697Y-110405907D01*
X150261700Y-110405911D01*
X150394088Y-110538299D01*
X150394092Y-110538302D01*
X150549762Y-110642318D01*
X150549768Y-110642321D01*
X150549769Y-110642322D01*
X150722749Y-110713973D01*
X150906379Y-110750499D01*
X150906383Y-110750500D01*
X150906384Y-110750500D01*
X151093617Y-110750500D01*
X151093618Y-110750499D01*
X151277251Y-110713973D01*
X151450231Y-110642322D01*
X151605908Y-110538302D01*
X151738302Y-110405908D01*
X151842322Y-110250231D01*
X151913973Y-110077251D01*
X151950500Y-109893616D01*
X151950500Y-109706384D01*
X151913973Y-109522749D01*
X151842322Y-109349769D01*
X151842321Y-109349768D01*
X151842318Y-109349762D01*
X151738302Y-109194092D01*
X151738299Y-109194088D01*
X151605911Y-109061700D01*
X151605907Y-109061697D01*
X151450237Y-108957681D01*
X151450228Y-108957676D01*
X151277251Y-108886027D01*
X151277243Y-108886025D01*
X151093620Y-108849500D01*
X151093616Y-108849500D01*
X150906384Y-108849500D01*
X150906379Y-108849500D01*
X150722756Y-108886025D01*
X150722748Y-108886027D01*
X150549771Y-108957676D01*
X150549762Y-108957681D01*
X150394092Y-109061697D01*
X150394088Y-109061700D01*
X150261700Y-109194088D01*
X150261697Y-109194092D01*
X150157681Y-109349762D01*
X150157676Y-109349771D01*
X150086027Y-109522748D01*
X150086025Y-109522756D01*
X150049500Y-109706379D01*
X149100500Y-109706379D01*
X149100500Y-107093920D01*
X150674499Y-107093920D01*
X150703340Y-107238907D01*
X150703343Y-107238917D01*
X150759912Y-107375488D01*
X150759919Y-107375501D01*
X150842048Y-107498415D01*
X150842051Y-107498419D01*
X150946580Y-107602948D01*
X150946584Y-107602951D01*
X151069498Y-107685080D01*
X151069511Y-107685087D01*
X151206082Y-107741656D01*
X151206087Y-107741658D01*
X151206091Y-107741658D01*
X151206092Y-107741659D01*
X151351079Y-107770500D01*
X151351082Y-107770500D01*
X152298920Y-107770500D01*
X152396462Y-107751096D01*
X152443913Y-107741658D01*
X152580495Y-107685084D01*
X152703416Y-107602951D01*
X152807951Y-107498416D01*
X152890084Y-107375495D01*
X152946658Y-107238913D01*
X152975500Y-107093918D01*
X152975500Y-106946082D01*
X152975500Y-106946079D01*
X152946659Y-106801092D01*
X152946658Y-106801091D01*
X152946658Y-106801087D01*
X152892153Y-106669500D01*
X152890087Y-106664511D01*
X152890080Y-106664498D01*
X152807951Y-106541584D01*
X152807948Y-106541580D01*
X152703419Y-106437051D01*
X152703415Y-106437048D01*
X152580501Y-106354919D01*
X152580488Y-106354912D01*
X152443917Y-106298343D01*
X152443907Y-106298340D01*
X152298920Y-106269500D01*
X152298918Y-106269500D01*
X151351082Y-106269500D01*
X151351080Y-106269500D01*
X151206092Y-106298340D01*
X151206082Y-106298343D01*
X151069511Y-106354912D01*
X151069498Y-106354919D01*
X150946584Y-106437048D01*
X150946580Y-106437051D01*
X150842051Y-106541580D01*
X150842048Y-106541584D01*
X150759919Y-106664498D01*
X150759912Y-106664511D01*
X150703343Y-106801082D01*
X150703340Y-106801092D01*
X150674500Y-106946079D01*
X150674500Y-106946082D01*
X150674500Y-107093918D01*
X150674500Y-107093920D01*
X150674499Y-107093920D01*
X149100500Y-107093920D01*
X149100500Y-104527525D01*
X151449500Y-104527525D01*
X151449500Y-104672475D01*
X151484192Y-104801944D01*
X151487017Y-104812488D01*
X151559488Y-104938011D01*
X151559490Y-104938013D01*
X151559491Y-104938015D01*
X151661985Y-105040509D01*
X151661986Y-105040510D01*
X151661988Y-105040511D01*
X151787511Y-105112982D01*
X151787512Y-105112982D01*
X151787515Y-105112984D01*
X151927525Y-105150500D01*
X151927528Y-105150500D01*
X152072472Y-105150500D01*
X152072475Y-105150500D01*
X152212485Y-105112984D01*
X152338015Y-105040509D01*
X152440509Y-104938015D01*
X152512984Y-104812485D01*
X152550500Y-104672475D01*
X152550500Y-104527525D01*
X153249500Y-104527525D01*
X153249500Y-104672475D01*
X153284192Y-104801944D01*
X153287017Y-104812488D01*
X153359488Y-104938011D01*
X153359490Y-104938013D01*
X153359491Y-104938015D01*
X153461985Y-105040509D01*
X153461986Y-105040510D01*
X153461988Y-105040511D01*
X153587511Y-105112982D01*
X153587512Y-105112982D01*
X153587515Y-105112984D01*
X153727525Y-105150500D01*
X153727528Y-105150500D01*
X153872472Y-105150500D01*
X153872475Y-105150500D01*
X154012485Y-105112984D01*
X154138015Y-105040509D01*
X154240509Y-104938015D01*
X154312984Y-104812485D01*
X154350500Y-104672475D01*
X154350500Y-104527525D01*
X154312984Y-104387515D01*
X154240509Y-104261985D01*
X154138015Y-104159491D01*
X154138013Y-104159490D01*
X154138011Y-104159488D01*
X154012488Y-104087017D01*
X154012489Y-104087017D01*
X154001006Y-104083940D01*
X153872475Y-104049500D01*
X153727525Y-104049500D01*
X153598993Y-104083940D01*
X153587511Y-104087017D01*
X153461988Y-104159488D01*
X153461982Y-104159493D01*
X153359493Y-104261982D01*
X153359488Y-104261988D01*
X153287017Y-104387511D01*
X153287016Y-104387515D01*
X153249500Y-104527525D01*
X152550500Y-104527525D01*
X152512984Y-104387515D01*
X152440509Y-104261985D01*
X152338015Y-104159491D01*
X152338013Y-104159490D01*
X152338011Y-104159488D01*
X152212488Y-104087017D01*
X152212489Y-104087017D01*
X152201006Y-104083940D01*
X152072475Y-104049500D01*
X151927525Y-104049500D01*
X151798993Y-104083940D01*
X151787511Y-104087017D01*
X151661988Y-104159488D01*
X151661982Y-104159493D01*
X151559493Y-104261982D01*
X151559488Y-104261988D01*
X151487017Y-104387511D01*
X151487016Y-104387515D01*
X151449500Y-104527525D01*
X149100500Y-104527525D01*
X149100500Y-102527525D01*
X151449500Y-102527525D01*
X151449500Y-102672475D01*
X151466015Y-102734108D01*
X151487017Y-102812488D01*
X151559488Y-102938011D01*
X151559490Y-102938013D01*
X151559491Y-102938015D01*
X151661985Y-103040509D01*
X151661986Y-103040510D01*
X151661988Y-103040511D01*
X151787511Y-103112982D01*
X151787512Y-103112982D01*
X151787515Y-103112984D01*
X151927525Y-103150500D01*
X151927528Y-103150500D01*
X152072472Y-103150500D01*
X152072475Y-103150500D01*
X152212485Y-103112984D01*
X152338015Y-103040509D01*
X152440509Y-102938015D01*
X152512984Y-102812485D01*
X152550500Y-102672475D01*
X152550500Y-102527525D01*
X153249500Y-102527525D01*
X153249500Y-102672475D01*
X153266015Y-102734108D01*
X153287017Y-102812488D01*
X153359488Y-102938011D01*
X153359490Y-102938013D01*
X153359491Y-102938015D01*
X153461985Y-103040509D01*
X153461986Y-103040510D01*
X153461988Y-103040511D01*
X153587511Y-103112982D01*
X153587512Y-103112982D01*
X153587515Y-103112984D01*
X153727525Y-103150500D01*
X153727528Y-103150500D01*
X153872472Y-103150500D01*
X153872475Y-103150500D01*
X154012485Y-103112984D01*
X154138015Y-103040509D01*
X154240509Y-102938015D01*
X154312984Y-102812485D01*
X154350500Y-102672475D01*
X154350500Y-102527525D01*
X154312984Y-102387515D01*
X154262168Y-102299500D01*
X154240511Y-102261988D01*
X154240506Y-102261982D01*
X154138017Y-102159493D01*
X154138011Y-102159488D01*
X154012488Y-102087017D01*
X154012489Y-102087017D01*
X154001006Y-102083940D01*
X153872475Y-102049500D01*
X153727525Y-102049500D01*
X153598993Y-102083940D01*
X153587511Y-102087017D01*
X153461988Y-102159488D01*
X153461982Y-102159493D01*
X153359493Y-102261982D01*
X153359488Y-102261988D01*
X153287017Y-102387511D01*
X153287016Y-102387515D01*
X153249500Y-102527525D01*
X152550500Y-102527525D01*
X152512984Y-102387515D01*
X152462168Y-102299500D01*
X152440511Y-102261988D01*
X152440506Y-102261982D01*
X152338017Y-102159493D01*
X152338011Y-102159488D01*
X152212488Y-102087017D01*
X152212489Y-102087017D01*
X152201006Y-102083940D01*
X152072475Y-102049500D01*
X151927525Y-102049500D01*
X151798993Y-102083940D01*
X151787511Y-102087017D01*
X151661988Y-102159488D01*
X151661982Y-102159493D01*
X151559493Y-102261982D01*
X151559488Y-102261988D01*
X151487017Y-102387511D01*
X151487016Y-102387515D01*
X151449500Y-102527525D01*
X149100500Y-102527525D01*
X149100500Y-100527525D01*
X151449500Y-100527525D01*
X151449500Y-100672475D01*
X151487016Y-100812485D01*
X151487017Y-100812488D01*
X151559488Y-100938011D01*
X151559490Y-100938013D01*
X151559491Y-100938015D01*
X151661985Y-101040509D01*
X151661986Y-101040510D01*
X151661988Y-101040511D01*
X151787511Y-101112982D01*
X151787512Y-101112982D01*
X151787515Y-101112984D01*
X151927525Y-101150500D01*
X151927528Y-101150500D01*
X152072472Y-101150500D01*
X152072475Y-101150500D01*
X152212485Y-101112984D01*
X152338015Y-101040509D01*
X152440509Y-100938015D01*
X152512984Y-100812485D01*
X152550500Y-100672475D01*
X152550500Y-100527525D01*
X153249500Y-100527525D01*
X153249500Y-100672475D01*
X153287016Y-100812485D01*
X153287017Y-100812488D01*
X153359488Y-100938011D01*
X153359490Y-100938013D01*
X153359491Y-100938015D01*
X153461985Y-101040509D01*
X153461986Y-101040510D01*
X153461988Y-101040511D01*
X153587511Y-101112982D01*
X153587512Y-101112982D01*
X153587515Y-101112984D01*
X153727525Y-101150500D01*
X153727528Y-101150500D01*
X153872472Y-101150500D01*
X153872475Y-101150500D01*
X154012485Y-101112984D01*
X154138015Y-101040509D01*
X154240509Y-100938015D01*
X154312984Y-100812485D01*
X154350500Y-100672475D01*
X154350500Y-100527525D01*
X154312984Y-100387515D01*
X154289177Y-100346281D01*
X154240511Y-100261988D01*
X154240506Y-100261982D01*
X154138017Y-100159493D01*
X154138011Y-100159488D01*
X154012488Y-100087017D01*
X154012489Y-100087017D01*
X154001006Y-100083940D01*
X153872475Y-100049500D01*
X153727525Y-100049500D01*
X153598993Y-100083940D01*
X153587511Y-100087017D01*
X153461988Y-100159488D01*
X153461982Y-100159493D01*
X153359493Y-100261982D01*
X153359488Y-100261988D01*
X153287017Y-100387511D01*
X153287016Y-100387515D01*
X153249500Y-100527525D01*
X152550500Y-100527525D01*
X152512984Y-100387515D01*
X152489177Y-100346281D01*
X152440511Y-100261988D01*
X152440506Y-100261982D01*
X152338017Y-100159493D01*
X152338011Y-100159488D01*
X152212488Y-100087017D01*
X152212489Y-100087017D01*
X152201006Y-100083940D01*
X152072475Y-100049500D01*
X151927525Y-100049500D01*
X151798993Y-100083940D01*
X151787511Y-100087017D01*
X151661988Y-100159488D01*
X151661982Y-100159493D01*
X151559493Y-100261982D01*
X151559488Y-100261988D01*
X151487017Y-100387511D01*
X151487016Y-100387515D01*
X151449500Y-100527525D01*
X149100500Y-100527525D01*
X149100500Y-98453920D01*
X150674499Y-98453920D01*
X150703340Y-98598907D01*
X150703343Y-98598917D01*
X150759912Y-98735488D01*
X150759919Y-98735501D01*
X150842048Y-98858415D01*
X150842051Y-98858419D01*
X150946580Y-98962948D01*
X150946584Y-98962951D01*
X151069498Y-99045080D01*
X151069511Y-99045087D01*
X151206082Y-99101656D01*
X151206087Y-99101658D01*
X151206091Y-99101658D01*
X151206092Y-99101659D01*
X151351079Y-99130500D01*
X151351082Y-99130500D01*
X152298920Y-99130500D01*
X152396462Y-99111096D01*
X152443913Y-99101658D01*
X152580495Y-99045084D01*
X152703416Y-98962951D01*
X152807951Y-98858416D01*
X152890084Y-98735495D01*
X152946658Y-98598913D01*
X152975500Y-98453918D01*
X152975500Y-98306082D01*
X152975500Y-98306079D01*
X152946659Y-98161092D01*
X152946658Y-98161091D01*
X152946658Y-98161087D01*
X152910331Y-98073386D01*
X152890087Y-98024511D01*
X152890080Y-98024498D01*
X152807951Y-97901584D01*
X152807948Y-97901580D01*
X152703419Y-97797051D01*
X152703415Y-97797048D01*
X152580501Y-97714919D01*
X152580488Y-97714912D01*
X152443917Y-97658343D01*
X152443907Y-97658340D01*
X152298920Y-97629500D01*
X152298918Y-97629500D01*
X151351082Y-97629500D01*
X151351080Y-97629500D01*
X151206092Y-97658340D01*
X151206082Y-97658343D01*
X151069511Y-97714912D01*
X151069498Y-97714919D01*
X150946584Y-97797048D01*
X150946580Y-97797051D01*
X150842051Y-97901580D01*
X150842048Y-97901584D01*
X150759919Y-98024498D01*
X150759912Y-98024511D01*
X150703343Y-98161082D01*
X150703340Y-98161092D01*
X150674500Y-98306079D01*
X150674500Y-98306082D01*
X150674500Y-98453918D01*
X150674500Y-98453920D01*
X150674499Y-98453920D01*
X149100500Y-98453920D01*
X149100500Y-95089139D01*
X149120185Y-95022100D01*
X149144028Y-94994799D01*
X152746786Y-91921857D01*
X154602750Y-90338830D01*
X154640339Y-90316823D01*
X155479243Y-90007650D01*
X155522123Y-90000000D01*
X172000000Y-90000000D01*
X172000000Y-83826362D01*
X172019685Y-83759323D01*
X172036319Y-83738681D01*
X172463681Y-83311319D01*
X172525004Y-83277834D01*
X172551362Y-83275000D01*
X180048638Y-83275000D01*
X180115677Y-83294685D01*
G37*
%TD.AperFunction*%
%TD*%
%TA.AperFunction,Conductor*%
%TO.N,Net-(U4-Vin(+))*%
G36*
X180115677Y-72219685D02*
G01*
X180136319Y-72236319D01*
X180563681Y-72663681D01*
X180597166Y-72725004D01*
X180600000Y-72751362D01*
X180600000Y-77248638D01*
X180580315Y-77315677D01*
X180563681Y-77336319D01*
X180136319Y-77763681D01*
X180074996Y-77797166D01*
X180048638Y-77800000D01*
X171351362Y-77800000D01*
X171284323Y-77780315D01*
X171263681Y-77763681D01*
X170836319Y-77336319D01*
X170802834Y-77274996D01*
X170800000Y-77248638D01*
X170800000Y-75536666D01*
X170819685Y-75469627D01*
X170851110Y-75436352D01*
X170977510Y-75344517D01*
X171144517Y-75177510D01*
X171283343Y-74986433D01*
X171390568Y-74775992D01*
X171397755Y-74753871D01*
X171437187Y-74696198D01*
X171461766Y-74680525D01*
X175564286Y-72700000D01*
X176137116Y-72423461D01*
X176163366Y-72414254D01*
X177086352Y-72203122D01*
X177114003Y-72200000D01*
X180048638Y-72200000D01*
X180115677Y-72219685D01*
G37*
%TD.AperFunction*%
%TD*%
%TA.AperFunction,Conductor*%
%TO.N,/esc_landing/M3b*%
G36*
X254054602Y-60369685D02*
G01*
X254080240Y-60391617D01*
X255248761Y-61706203D01*
X255277180Y-61761916D01*
X255281666Y-61782287D01*
X255281667Y-61782290D01*
X255281668Y-61782293D01*
X255360395Y-61958848D01*
X255360398Y-61958853D01*
X255360399Y-61958854D01*
X255425569Y-62052207D01*
X256460643Y-63285760D01*
X256460646Y-63285762D01*
X256541261Y-63366152D01*
X256682138Y-63461289D01*
X256701465Y-63474341D01*
X256862928Y-63540954D01*
X256908314Y-63573201D01*
X257159368Y-63855636D01*
X257189194Y-63918819D01*
X257180126Y-63988098D01*
X257147387Y-64032165D01*
X254694753Y-66134422D01*
X254631042Y-66163105D01*
X254561938Y-66152790D01*
X254518796Y-66119657D01*
X252645686Y-63871926D01*
X252645682Y-63871922D01*
X252612194Y-63839896D01*
X252567963Y-63806265D01*
X252557455Y-63798784D01*
X252471956Y-63766317D01*
X252471955Y-63766316D01*
X252471953Y-63766316D01*
X252471949Y-63766315D01*
X252402762Y-63756670D01*
X252402757Y-63756670D01*
X252402756Y-63756670D01*
X252402502Y-63756671D01*
X252344270Y-63756920D01*
X252344260Y-63756921D01*
X247395570Y-64490060D01*
X247326370Y-64480413D01*
X247273370Y-64434884D01*
X247253399Y-64367930D01*
X247255781Y-64343207D01*
X247271881Y-64262268D01*
X247271881Y-64084881D01*
X247271880Y-64084879D01*
X247237277Y-63910916D01*
X247237274Y-63910907D01*
X247169397Y-63747034D01*
X247169390Y-63747021D01*
X247070845Y-63599540D01*
X247070842Y-63599536D01*
X246945419Y-63474113D01*
X246945415Y-63474110D01*
X246797934Y-63375565D01*
X246797921Y-63375558D01*
X246634048Y-63307681D01*
X246634039Y-63307678D01*
X246460075Y-63273075D01*
X246460072Y-63273075D01*
X246282690Y-63273075D01*
X246282687Y-63273075D01*
X246108722Y-63307678D01*
X246108713Y-63307681D01*
X245944840Y-63375558D01*
X245944827Y-63375565D01*
X245797346Y-63474110D01*
X245797342Y-63474113D01*
X245671919Y-63599536D01*
X245671916Y-63599540D01*
X245573371Y-63747021D01*
X245573364Y-63747034D01*
X245505487Y-63910907D01*
X245505484Y-63910916D01*
X245470881Y-64084879D01*
X245470881Y-64262270D01*
X245505484Y-64436233D01*
X245505486Y-64436237D01*
X245505487Y-64436241D01*
X245537599Y-64513768D01*
X245574952Y-64603948D01*
X245582420Y-64673417D01*
X245551144Y-64735896D01*
X245491055Y-64771548D01*
X245478562Y-64774060D01*
X242597176Y-65200934D01*
X241637151Y-65343161D01*
X241618979Y-65344500D01*
X234824500Y-65344500D01*
X234757461Y-65324815D01*
X234711706Y-65272011D01*
X234700500Y-65220500D01*
X234700500Y-60474000D01*
X234720185Y-60406961D01*
X234772989Y-60361206D01*
X234824500Y-60350000D01*
X253987563Y-60350000D01*
X254054602Y-60369685D01*
G37*
%TD.AperFunction*%
%TD*%
%TA.AperFunction,Conductor*%
%TO.N,/esc_landing/M1c*%
G36*
X184219546Y-64743636D02*
G01*
X184282974Y-64772931D01*
X184304473Y-64797405D01*
X184404836Y-64947609D01*
X184404839Y-64947613D01*
X184530262Y-65073036D01*
X184530266Y-65073039D01*
X184677747Y-65171584D01*
X184677760Y-65171591D01*
X184800664Y-65222498D01*
X184841635Y-65239469D01*
X184841637Y-65239469D01*
X184841642Y-65239471D01*
X185015605Y-65274074D01*
X185015608Y-65274075D01*
X185015610Y-65274075D01*
X185192994Y-65274075D01*
X185192995Y-65274074D01*
X185250983Y-65262539D01*
X185366959Y-65239471D01*
X185366962Y-65239469D01*
X185366967Y-65239469D01*
X185530848Y-65171588D01*
X185678336Y-65073039D01*
X185732880Y-65018494D01*
X185794201Y-64985010D01*
X185838727Y-64983515D01*
X188292810Y-65347083D01*
X189999996Y-65600000D01*
X190000000Y-65600000D01*
X196825500Y-65600000D01*
X196892539Y-65619685D01*
X196938294Y-65672489D01*
X196949500Y-65724000D01*
X196949500Y-70470500D01*
X196929815Y-70537539D01*
X196877011Y-70583294D01*
X196825500Y-70594500D01*
X188650850Y-70594500D01*
X188629599Y-70595604D01*
X188629584Y-70595605D01*
X188604052Y-70598263D01*
X188528060Y-70621639D01*
X188466520Y-70654706D01*
X188466516Y-70654708D01*
X188419450Y-70689450D01*
X188418761Y-70690131D01*
X188418474Y-70690284D01*
X188416083Y-70692329D01*
X188415638Y-70691808D01*
X188357210Y-70723196D01*
X188300380Y-70721838D01*
X179429529Y-68407703D01*
X179377418Y-68379471D01*
X177287883Y-66479893D01*
X177251519Y-66420232D01*
X177253183Y-66350382D01*
X177276033Y-66308759D01*
X179155433Y-64053479D01*
X179213472Y-64014581D01*
X179268864Y-64010202D01*
X184219546Y-64743636D01*
G37*
%TD.AperFunction*%
%TD*%
%TA.AperFunction,Conductor*%
%TO.N,GND*%
G36*
X180115677Y-100019685D02*
G01*
X180136319Y-100036319D01*
X180563681Y-100463681D01*
X180597166Y-100525004D01*
X180600000Y-100551362D01*
X180600000Y-104048915D01*
X180580315Y-104115954D01*
X180564016Y-104136260D01*
X180135998Y-104567565D01*
X180074803Y-104601285D01*
X180048931Y-104604216D01*
X175700000Y-104637500D01*
X171351623Y-104670777D01*
X171284435Y-104651606D01*
X171263329Y-104634797D01*
X170836655Y-104211375D01*
X170802936Y-104150180D01*
X170800000Y-104123359D01*
X170800000Y-100551361D01*
X170819685Y-100484322D01*
X170836314Y-100463685D01*
X171224149Y-100075850D01*
X171285468Y-100042368D01*
X171326960Y-100040461D01*
X171357203Y-100044181D01*
X171357209Y-100044180D01*
X171357211Y-100044181D01*
X173520820Y-100000026D01*
X173523350Y-100000000D01*
X180048638Y-100000000D01*
X180115677Y-100019685D01*
G37*
%TD.AperFunction*%
%TD*%
%TA.AperFunction,Conductor*%
%TO.N,/esc_landing/M4b*%
G36*
X241986542Y-75970984D02*
G01*
X242000849Y-75981711D01*
X245107401Y-78681911D01*
X245145086Y-78740747D01*
X245150053Y-78774856D01*
X245328409Y-113172357D01*
X245328410Y-113172362D01*
X246711218Y-116038886D01*
X250832228Y-119351299D01*
X254072541Y-121943549D01*
X254112593Y-122000800D01*
X254115336Y-122070615D01*
X254090026Y-122120133D01*
X252213755Y-124353789D01*
X252155564Y-124392460D01*
X252085702Y-124393532D01*
X252083581Y-124392924D01*
X250390607Y-123891302D01*
X249651576Y-123672330D01*
X249609863Y-123650682D01*
X247675419Y-122120133D01*
X242893975Y-118337013D01*
X242859302Y-118293790D01*
X240649876Y-113728322D01*
X240637495Y-113674687D01*
X240635954Y-113172362D01*
X240538106Y-81274289D01*
X240533343Y-81230929D01*
X240522138Y-81179798D01*
X240519718Y-81169926D01*
X240476708Y-81089214D01*
X240430953Y-81036410D01*
X240430947Y-81036403D01*
X240413365Y-81018459D01*
X240413364Y-81018458D01*
X240413362Y-81018456D01*
X240413360Y-81018455D01*
X240413358Y-81018453D01*
X240333548Y-80973810D01*
X240333543Y-80973808D01*
X240266511Y-80954125D01*
X240266507Y-80954124D01*
X240266506Y-80954124D01*
X240208608Y-80945799D01*
X235356588Y-80945799D01*
X235312615Y-80950559D01*
X235260781Y-80961912D01*
X235250316Y-80964494D01*
X235250314Y-80964494D01*
X235169724Y-81007739D01*
X235117061Y-81053641D01*
X235117060Y-81053641D01*
X235099151Y-81071291D01*
X235099149Y-81071295D01*
X235090135Y-81087520D01*
X235080861Y-81096658D01*
X235075453Y-81108502D01*
X235056455Y-81120710D01*
X235040370Y-81136563D01*
X235026277Y-81140105D01*
X235016675Y-81146276D01*
X234981740Y-81151299D01*
X234824500Y-81151299D01*
X234757461Y-81131614D01*
X234711706Y-81078810D01*
X234700500Y-81027299D01*
X234700500Y-76075299D01*
X234720185Y-76008260D01*
X234772989Y-75962505D01*
X234824500Y-75951299D01*
X241919503Y-75951299D01*
X241986542Y-75970984D01*
G37*
%TD.AperFunction*%
%TD*%
%TA.AperFunction,Conductor*%
%TO.N,/esc_landing/M2c*%
G36*
X196243039Y-81219685D02*
G01*
X196288794Y-81272489D01*
X196300000Y-81324000D01*
X196300000Y-115956650D01*
X196288055Y-116009751D01*
X194336944Y-120127068D01*
X194303410Y-120169938D01*
X188412756Y-124989562D01*
X188384958Y-125006742D01*
X182610867Y-127595128D01*
X182588402Y-127602714D01*
X177974933Y-128682462D01*
X177905171Y-128678573D01*
X177851025Y-128640636D01*
X175012883Y-125200464D01*
X174679392Y-124796233D01*
X174651914Y-124731995D01*
X174663528Y-124663097D01*
X174696716Y-124621194D01*
X174799147Y-124537732D01*
X177205300Y-122577162D01*
X177269702Y-122550077D01*
X177338528Y-122562110D01*
X177378571Y-122593537D01*
X179400000Y-125000000D01*
X180928942Y-124546979D01*
X180960158Y-124537730D01*
X184403802Y-124537730D01*
X184403802Y-124715121D01*
X184438405Y-124889084D01*
X184438408Y-124889093D01*
X184506285Y-125052966D01*
X184506292Y-125052979D01*
X184604837Y-125200460D01*
X184604840Y-125200464D01*
X184730263Y-125325887D01*
X184730267Y-125325890D01*
X184877748Y-125424435D01*
X184877761Y-125424442D01*
X185000665Y-125475349D01*
X185041636Y-125492320D01*
X185041638Y-125492320D01*
X185041643Y-125492322D01*
X185215606Y-125526925D01*
X185215609Y-125526926D01*
X185215611Y-125526926D01*
X185392995Y-125526926D01*
X185392996Y-125526925D01*
X185456729Y-125514248D01*
X185566960Y-125492322D01*
X185566963Y-125492320D01*
X185566968Y-125492320D01*
X185730849Y-125424439D01*
X185878337Y-125325890D01*
X186003766Y-125200461D01*
X186102315Y-125052973D01*
X186170196Y-124889092D01*
X186204802Y-124715117D01*
X186204802Y-124537735D01*
X186204802Y-124537732D01*
X186204801Y-124537730D01*
X186170198Y-124363767D01*
X186170195Y-124363758D01*
X186102318Y-124199885D01*
X186102311Y-124199872D01*
X186003766Y-124052391D01*
X186003763Y-124052387D01*
X185878340Y-123926964D01*
X185878336Y-123926961D01*
X185730855Y-123828416D01*
X185730842Y-123828409D01*
X185566969Y-123760532D01*
X185566960Y-123760529D01*
X185392996Y-123725926D01*
X185392993Y-123725926D01*
X185215611Y-123725926D01*
X185215608Y-123725926D01*
X185041643Y-123760529D01*
X185041634Y-123760532D01*
X184877761Y-123828409D01*
X184877748Y-123828416D01*
X184730267Y-123926961D01*
X184730263Y-123926964D01*
X184604840Y-124052387D01*
X184604837Y-124052391D01*
X184506292Y-124199872D01*
X184506285Y-124199885D01*
X184438408Y-124363758D01*
X184438405Y-124363767D01*
X184403802Y-124537730D01*
X180960158Y-124537730D01*
X181381963Y-124412752D01*
X181740981Y-124306376D01*
X182100000Y-124200000D01*
X188925001Y-118800000D01*
X191200000Y-114099031D01*
X191200000Y-91413303D01*
X191219685Y-91346264D01*
X191272489Y-91300509D01*
X191291895Y-91293532D01*
X191393186Y-91266392D01*
X191507314Y-91200500D01*
X191600500Y-91107314D01*
X191666392Y-90993186D01*
X191700500Y-90865892D01*
X191700500Y-90734108D01*
X191666392Y-90606814D01*
X191600500Y-90492686D01*
X191507314Y-90399500D01*
X191450250Y-90366554D01*
X191393187Y-90333608D01*
X191350519Y-90322175D01*
X191291905Y-90306470D01*
X191232246Y-90270106D01*
X191201717Y-90207259D01*
X191200000Y-90186696D01*
X191200000Y-81324000D01*
X191219685Y-81256961D01*
X191272489Y-81211206D01*
X191324000Y-81200000D01*
X196176000Y-81200000D01*
X196243039Y-81219685D01*
G37*
%TD.AperFunction*%
%TD*%
%TA.AperFunction,Conductor*%
%TO.N,GND*%
G36*
X223661368Y-99730960D02*
G01*
X223662606Y-99731682D01*
X223872092Y-99855503D01*
X223919788Y-99906560D01*
X223932309Y-99975299D01*
X223932148Y-99976738D01*
X223663931Y-102256588D01*
X223636548Y-102320869D01*
X223623180Y-102334762D01*
X223187389Y-102722289D01*
X223124211Y-102752128D01*
X223054931Y-102743074D01*
X223017308Y-102717308D01*
X222636319Y-102336319D01*
X222602834Y-102274996D01*
X222600000Y-102248638D01*
X222600000Y-100930034D01*
X222613743Y-100873294D01*
X222919110Y-100279907D01*
X222941678Y-100248978D01*
X223260050Y-99930606D01*
X223275638Y-99917401D01*
X223527453Y-99737533D01*
X223593444Y-99714586D01*
X223661368Y-99730960D01*
G37*
%TD.AperFunction*%
%TD*%
%TA.AperFunction,Conductor*%
%TO.N,/esc_landing/M4a*%
G36*
X243048391Y-70470984D02*
G01*
X243068442Y-70487030D01*
X248606552Y-75951299D01*
X250495319Y-77814882D01*
X250529215Y-77875979D01*
X250532228Y-77903150D01*
X250532228Y-94404854D01*
X250512543Y-94471893D01*
X250459739Y-94517648D01*
X250440325Y-94524628D01*
X250406813Y-94533608D01*
X250292686Y-94599500D01*
X250292683Y-94599502D01*
X250199502Y-94692683D01*
X250199500Y-94692686D01*
X250133608Y-94806812D01*
X250099500Y-94934108D01*
X250099500Y-95065891D01*
X250133608Y-95193187D01*
X250166554Y-95250250D01*
X250199500Y-95307314D01*
X250292686Y-95400500D01*
X250406814Y-95466392D01*
X250440320Y-95475369D01*
X250499980Y-95511732D01*
X250530511Y-95574579D01*
X250532228Y-95595144D01*
X250532228Y-113469163D01*
X251028908Y-114551244D01*
X251028910Y-114551247D01*
X259713760Y-122018596D01*
X260114378Y-122363052D01*
X260152377Y-122421685D01*
X260155329Y-122433791D01*
X260721106Y-125393127D01*
X260714361Y-125462670D01*
X260693972Y-125496509D01*
X257483144Y-129291124D01*
X257424813Y-129329586D01*
X257356131Y-129330732D01*
X254135803Y-128460373D01*
X254076222Y-128423879D01*
X254045829Y-128360966D01*
X254054274Y-128291609D01*
X254072501Y-128261763D01*
X255858122Y-126097375D01*
X255868426Y-126083771D01*
X255880162Y-126066862D01*
X255889308Y-126052441D01*
X255920306Y-125998749D01*
X255929306Y-125985280D01*
X256038727Y-125842678D01*
X256049408Y-125830499D01*
X256189850Y-125690057D01*
X256192015Y-125687945D01*
X256196388Y-125683790D01*
X256196399Y-125683778D01*
X256196406Y-125683772D01*
X256210263Y-125669489D01*
X256210274Y-125669478D01*
X256221302Y-125657156D01*
X257111351Y-124578310D01*
X257135812Y-124541071D01*
X257160143Y-124493475D01*
X257164929Y-124483452D01*
X257182571Y-124393713D01*
X257180455Y-124323875D01*
X257178158Y-124298839D01*
X257144480Y-124213809D01*
X257104942Y-124156203D01*
X257065320Y-124113182D01*
X257065317Y-124113179D01*
X257065311Y-124113173D01*
X254556746Y-122069156D01*
X254556734Y-122069148D01*
X254521267Y-122045894D01*
X254476041Y-122022523D01*
X254468021Y-122018598D01*
X254468017Y-122018596D01*
X254388004Y-122001621D01*
X254326509Y-121968451D01*
X254298866Y-121927012D01*
X254280978Y-121883000D01*
X254240926Y-121825749D01*
X254200916Y-121783080D01*
X250960603Y-119190830D01*
X250960454Y-119190711D01*
X250960231Y-119190532D01*
X246897969Y-115925339D01*
X246863971Y-115882567D01*
X245545832Y-113150101D01*
X245533519Y-113096874D01*
X245355550Y-78773790D01*
X245353408Y-78745243D01*
X245348441Y-78711134D01*
X245318133Y-78629909D01*
X245280448Y-78571073D01*
X245242213Y-78526811D01*
X245242211Y-78526808D01*
X242135670Y-75826618D01*
X242124113Y-75817283D01*
X242109823Y-75806569D01*
X242109819Y-75806567D01*
X242109818Y-75806566D01*
X242044440Y-75773809D01*
X242044435Y-75773807D01*
X241977408Y-75754125D01*
X241976759Y-75754031D01*
X241919503Y-75745799D01*
X234824500Y-75745799D01*
X234757461Y-75726114D01*
X234711706Y-75673310D01*
X234700500Y-75621799D01*
X234700500Y-70575299D01*
X234720185Y-70508260D01*
X234772989Y-70462505D01*
X234824500Y-70451299D01*
X242981352Y-70451299D01*
X243048391Y-70470984D01*
G37*
%TD.AperFunction*%
%TD*%
%TA.AperFunction,Conductor*%
%TO.N,5V3_secondary*%
G36*
X206515677Y-111419685D02*
G01*
X206536319Y-111436319D01*
X206963681Y-111863681D01*
X206997166Y-111925004D01*
X207000000Y-111951362D01*
X207000000Y-114048638D01*
X206980315Y-114115677D01*
X206963681Y-114136319D01*
X206536319Y-114563681D01*
X206474996Y-114597166D01*
X206448638Y-114600000D01*
X203351362Y-114600000D01*
X203284323Y-114580315D01*
X203263681Y-114563681D01*
X202836319Y-114136319D01*
X202802834Y-114074996D01*
X202800000Y-114048638D01*
X202800000Y-111951362D01*
X202819685Y-111884323D01*
X202836319Y-111863681D01*
X203263681Y-111436319D01*
X203325004Y-111402834D01*
X203351362Y-111400000D01*
X206448638Y-111400000D01*
X206515677Y-111419685D01*
G37*
%TD.AperFunction*%
%TD*%
%TA.AperFunction,Conductor*%
%TO.N,5V3_Primary*%
G36*
X206515677Y-107419685D02*
G01*
X206536319Y-107436319D01*
X206963681Y-107863681D01*
X206997166Y-107925004D01*
X207000000Y-107951362D01*
X207000000Y-110048638D01*
X206980315Y-110115677D01*
X206963681Y-110136319D01*
X206536319Y-110563681D01*
X206474996Y-110597166D01*
X206448638Y-110600000D01*
X203351362Y-110600000D01*
X203284323Y-110580315D01*
X203263681Y-110563681D01*
X202836319Y-110136319D01*
X202802834Y-110074996D01*
X202800000Y-110048638D01*
X202800000Y-107951362D01*
X202819685Y-107884323D01*
X202836319Y-107863681D01*
X203263681Y-107436319D01*
X203325004Y-107402834D01*
X203351362Y-107400000D01*
X206448638Y-107400000D01*
X206515677Y-107419685D01*
G37*
%TD.AperFunction*%
%TD*%
M02*
