%TF.GenerationSoftware,KiCad,Pcbnew,9.0.7*%
%TF.CreationDate,2026-03-18T17:04:26-04:00*%
%TF.ProjectId,sam4,73616d34-2e6b-4696-9361-645f70636258,rev?*%
%TF.SameCoordinates,Original*%
%TF.FileFunction,Copper,L2,Inr*%
%TF.FilePolarity,Positive*%
%FSLAX46Y46*%
G04 Gerber Fmt 4.6, Leading zero omitted, Abs format (unit mm)*
G04 Created by KiCad (PCBNEW 9.0.7) date 2026-03-18 17:04:26*
%MOMM*%
%LPD*%
G01*
G04 APERTURE LIST*
G04 Aperture macros list*
%AMRoundRect*
0 Rectangle with rounded corners*
0 $1 Rounding radius*
0 $2 $3 $4 $5 $6 $7 $8 $9 X,Y pos of 4 corners*
0 Add a 4 corners polygon primitive as box body*
4,1,4,$2,$3,$4,$5,$6,$7,$8,$9,$2,$3,0*
0 Add four circle primitives for the rounded corners*
1,1,$1+$1,$2,$3*
1,1,$1+$1,$4,$5*
1,1,$1+$1,$6,$7*
1,1,$1+$1,$8,$9*
0 Add four rect primitives between the rounded corners*
20,1,$1+$1,$2,$3,$4,$5,0*
20,1,$1+$1,$4,$5,$6,$7,0*
20,1,$1+$1,$6,$7,$8,$9,0*
20,1,$1+$1,$8,$9,$2,$3,0*%
G04 Aperture macros list end*
%TA.AperFunction,ComponentPad*%
%ADD10C,1.400000*%
%TD*%
%TA.AperFunction,ComponentPad*%
%ADD11RoundRect,0.750000X-1.056624X-0.092443X0.092443X-1.056624X1.056624X0.092443X-0.092443X1.056624X0*%
%TD*%
%TA.AperFunction,ComponentPad*%
%ADD12C,3.000000*%
%TD*%
%TA.AperFunction,ComponentPad*%
%ADD13R,1.700000X1.700000*%
%TD*%
%TA.AperFunction,ComponentPad*%
%ADD14C,1.700000*%
%TD*%
%TA.AperFunction,ComponentPad*%
%ADD15R,0.900000X2.000000*%
%TD*%
%TA.AperFunction,ComponentPad*%
%ADD16RoundRect,1.025000X-1.025000X-1.025000X1.025000X-1.025000X1.025000X1.025000X-1.025000X1.025000X0*%
%TD*%
%TA.AperFunction,ComponentPad*%
%ADD17C,4.100000*%
%TD*%
%TA.AperFunction,ComponentPad*%
%ADD18RoundRect,0.770000X0.980000X-0.980000X0.980000X0.980000X-0.980000X0.980000X-0.980000X-0.980000X0*%
%TD*%
%TA.AperFunction,ComponentPad*%
%ADD19C,3.500000*%
%TD*%
%TA.AperFunction,ComponentPad*%
%ADD20RoundRect,0.750000X1.056624X0.092443X-0.092443X1.056624X-1.056624X-0.092443X0.092443X-1.056624X0*%
%TD*%
%TA.AperFunction,ComponentPad*%
%ADD21C,2.500000*%
%TD*%
%TA.AperFunction,ComponentPad*%
%ADD22C,3.700000*%
%TD*%
%TA.AperFunction,ComponentPad*%
%ADD23RoundRect,0.750000X0.092443X1.056624X-1.056624X0.092443X-0.092443X-1.056624X1.056624X-0.092443X0*%
%TD*%
%TA.AperFunction,ComponentPad*%
%ADD24C,0.800000*%
%TD*%
%TA.AperFunction,HeatsinkPad*%
%ADD25O,2.100000X1.000000*%
%TD*%
%TA.AperFunction,HeatsinkPad*%
%ADD26O,1.800000X1.000000*%
%TD*%
%TA.AperFunction,ComponentPad*%
%ADD27C,1.440000*%
%TD*%
%TA.AperFunction,ComponentPad*%
%ADD28RoundRect,0.750000X-0.092443X-1.056624X1.056624X-0.092443X0.092443X1.056624X-1.056624X0.092443X0*%
%TD*%
%TA.AperFunction,ComponentPad*%
%ADD29C,1.524000*%
%TD*%
%TA.AperFunction,ComponentPad*%
%ADD30RoundRect,0.750000X0.750000X-0.750000X0.750000X0.750000X-0.750000X0.750000X-0.750000X-0.750000X0*%
%TD*%
%TA.AperFunction,ComponentPad*%
%ADD31C,2.200000*%
%TD*%
%TA.AperFunction,ComponentPad*%
%ADD32RoundRect,0.250000X0.750000X-0.600000X0.750000X0.600000X-0.750000X0.600000X-0.750000X-0.600000X0*%
%TD*%
%TA.AperFunction,ComponentPad*%
%ADD33O,2.000000X1.700000*%
%TD*%
%TA.AperFunction,ViaPad*%
%ADD34C,0.500000*%
%TD*%
%TA.AperFunction,ViaPad*%
%ADD35C,0.700000*%
%TD*%
%TA.AperFunction,ViaPad*%
%ADD36C,1.000000*%
%TD*%
%TA.AperFunction,ViaPad*%
%ADD37C,0.600000*%
%TD*%
%TA.AperFunction,Conductor*%
%ADD38C,0.400000*%
%TD*%
%TA.AperFunction,Conductor*%
%ADD39C,0.800000*%
%TD*%
%TA.AperFunction,Conductor*%
%ADD40C,0.200000*%
%TD*%
%TA.AperFunction,Conductor*%
%ADD41C,0.180000*%
%TD*%
%TA.AperFunction,Conductor*%
%ADD42C,0.300000*%
%TD*%
%TA.AperFunction,Conductor*%
%ADD43C,0.110000*%
%TD*%
G04 APERTURE END LIST*
D10*
%TO.N,*%
%TO.C,M4*%
X175145724Y-56017336D03*
X185104301Y-64373575D03*
D11*
%TO.N,/esc_landing/M1c*%
X179592230Y-66275434D03*
D12*
%TO.N,/esc_landing/M1b*%
X176911074Y-64025677D03*
%TO.N,/esc_landing/M1a*%
X174229919Y-61775921D03*
%TD*%
D13*
%TO.N,Net-(U10-VOUT)*%
%TO.C,U10*%
X258660000Y-70920000D03*
D14*
X261200000Y-70920000D03*
%TO.N,GND*%
X258660000Y-73460000D03*
X258660000Y-76000000D03*
X261200000Y-73460000D03*
X261200000Y-76000000D03*
%TO.N,BATT_AUX*%
X258660000Y-78540000D03*
X261200000Y-78540000D03*
%TO.N,unconnected-(U10-VRP-Pad4)_1*%
X258660000Y-81080000D03*
%TO.N,unconnected-(U10-VRP-Pad4)*%
X261200000Y-81080000D03*
%TO.N,/aux_power/5v_enb*%
X258660000Y-83620000D03*
%TO.N,unconnected-(U10-PG-Pad6)*%
X261200000Y-83620000D03*
%TD*%
D15*
%TO.N,*%
%TO.C,J7*%
X218450000Y-24600000D03*
X231950000Y-24600000D03*
D16*
%TO.N,GND*%
X221600000Y-30600000D03*
D17*
%TO.N,+BATT*%
X228800000Y-30600000D03*
%TD*%
D10*
%TO.N,*%
%TO.C,J8*%
X151000000Y-137200000D03*
X151000000Y-126200000D03*
D18*
%TO.N,GND*%
X156000000Y-134200000D03*
D19*
%TO.N,BATT_AUX*%
X156000000Y-129200000D03*
%TD*%
D10*
%TO.N,*%
%TO.C,M1*%
X256254276Y-132582665D03*
X246295699Y-124226426D03*
D20*
%TO.N,/esc_landing/M4b*%
X251807770Y-122324567D03*
D12*
%TO.N,/esc_landing/M4c*%
X254488926Y-124574324D03*
%TO.N,/esc_landing/M4a*%
X257170081Y-126824080D03*
%TD*%
D21*
%TO.N,Net-(U4-Vin(+))*%
%TO.C,U4*%
X177620000Y-74200000D03*
%TO.N,GND*%
X170000000Y-74200000D03*
X162380000Y-74200000D03*
D22*
X162380000Y-87800000D03*
D21*
%TO.N,unconnected-(U4-Power_Good-Pad5)*%
X166190000Y-87800000D03*
%TO.N,Net-(U4-TRIM)*%
X170000000Y-87800000D03*
%TO.N,5V3_Primary*%
X173810000Y-87800000D03*
D22*
X177620000Y-87800000D03*
%TD*%
D10*
%TO.N,*%
%TO.C,M3*%
X185304302Y-124626426D03*
X175345725Y-132982665D03*
D23*
%TO.N,/esc_landing/M2a*%
X174429920Y-127224080D03*
D12*
%TO.N,/esc_landing/M2c*%
X177111076Y-124974323D03*
%TO.N,/esc_landing/M2b*%
X179792231Y-122724567D03*
%TD*%
D24*
%TO.N,GND*%
%TO.C,C2*%
X213550000Y-145400000D03*
X211250000Y-145400000D03*
%TD*%
D13*
%TO.N,/aux_power/5v_enb*%
%TO.C,J10*%
X254800000Y-84600000D03*
D14*
%TO.N,/aux_power/12v_enb*%
X254800000Y-87140000D03*
%TO.N,GND*%
X252260000Y-84600000D03*
X252260000Y-87140000D03*
%TD*%
D25*
%TO.N,GND*%
%TO.C,J9*%
X156025000Y-98380000D03*
D26*
X151825000Y-98380000D03*
D25*
X156025000Y-107020000D03*
D26*
X151825000Y-107020000D03*
%TD*%
D24*
%TO.N,GND*%
%TO.C,C1*%
X228550000Y-145200000D03*
X226250000Y-145200000D03*
%TD*%
D27*
%TO.N,Net-(R2-Pad1)*%
%TO.C,RV2*%
X173000000Y-115200000D03*
%TO.N,Net-(U6-TRIM)*%
X170460000Y-117740000D03*
%TO.N,unconnected-(RV2-Pad3)*%
X167920000Y-115200000D03*
%TD*%
D10*
%TO.N,*%
%TO.C,M2*%
X246371381Y-64173575D03*
X256329958Y-55817336D03*
D28*
%TO.N,/esc_landing/M3a*%
X257245763Y-61575921D03*
D12*
%TO.N,/esc_landing/M3b*%
X254564607Y-63825678D03*
%TO.N,/esc_landing/M3c*%
X251883452Y-66075434D03*
%TD*%
D15*
%TO.N,*%
%TO.C,J6*%
X199850000Y-24600000D03*
X213350000Y-24600000D03*
D16*
%TO.N,GND*%
X203000000Y-30600000D03*
D17*
%TO.N,+BATT*%
X210200000Y-30600000D03*
%TD*%
D13*
%TO.N,Net-(U11-VOUT)*%
%TO.C,U11*%
X258660000Y-96700000D03*
D14*
X261200000Y-96700000D03*
%TO.N,GND*%
X258660000Y-99240000D03*
X258660000Y-101780000D03*
X261200000Y-99240000D03*
X261200000Y-101780000D03*
%TO.N,BATT_AUX*%
X258660000Y-104320000D03*
X261200000Y-104320000D03*
%TO.N,unconnected-(U11-VRP-Pad4)*%
X258660000Y-106860000D03*
%TO.N,unconnected-(U11-VRP-Pad4)_1*%
X261200000Y-106860000D03*
%TO.N,/aux_power/12v_enb*%
X258660000Y-109400000D03*
%TO.N,unconnected-(U11-PG-Pad6)*%
X261200000Y-109400000D03*
%TD*%
D29*
%TO.N,GND*%
%TO.C,J11*%
X231800000Y-156200000D03*
%TO.N,BUZZER*%
X231800000Y-161280000D03*
%TD*%
D24*
%TO.N,GND*%
%TO.C,C6*%
X167400000Y-124200000D03*
X169700000Y-124200000D03*
%TD*%
D27*
%TO.N,Net-(R1-Pad1)*%
%TO.C,RV1*%
X183770000Y-85260000D03*
%TO.N,Net-(U4-TRIM)*%
X186310000Y-87800000D03*
%TO.N,unconnected-(RV1-Pad3)*%
X183770000Y-90340000D03*
%TD*%
D10*
%TO.N,*%
%TO.C,M5*%
X151000000Y-122800000D03*
X151000000Y-109800000D03*
D30*
%TO.N,5V3_secondary*%
X156000000Y-112800000D03*
D12*
%TO.N,GND*%
X156000000Y-116300000D03*
%TO.N,5V3_Primary*%
X156000000Y-119800000D03*
%TD*%
D31*
%TO.N,N/C*%
%TO.C,Pix1*%
X230749200Y-98867868D03*
X200749200Y-98867868D03*
X230749200Y-128867868D03*
X200749200Y-128867868D03*
%TD*%
D21*
%TO.N,Net-(U6-Vin(+))*%
%TO.C,U6*%
X177820000Y-95800000D03*
%TO.N,GND*%
X170200000Y-95800000D03*
X162580000Y-95800000D03*
D22*
X162580000Y-109400000D03*
D21*
%TO.N,unconnected-(U6-Power_Good-Pad5)*%
X166390000Y-109400000D03*
%TO.N,Net-(U6-TRIM)*%
X170200000Y-109400000D03*
%TO.N,5V3_secondary*%
X174010000Y-109400000D03*
D22*
X177820000Y-109400000D03*
%TD*%
D24*
%TO.N,GND*%
%TO.C,C7*%
X208600000Y-134350000D03*
X208600000Y-132050000D03*
%TD*%
%TO.N,GND*%
%TO.C,C5*%
X231650000Y-93800000D03*
X233950000Y-93800000D03*
%TD*%
%TO.N,GND*%
%TO.C,C3*%
X152950000Y-66200000D03*
X150650000Y-66200000D03*
%TD*%
D32*
%TO.N,GND*%
%TO.C,J20*%
X275067500Y-72900000D03*
D33*
%TO.N,V_AUX_5V0*%
X275067500Y-70400000D03*
%TD*%
D24*
%TO.N,GND*%
%TO.C,C4*%
X229600000Y-135350000D03*
X229600000Y-133050000D03*
%TD*%
D32*
%TO.N,GND*%
%TO.C,J12*%
X275067500Y-82450000D03*
D33*
%TO.N,V_AUX_5V0*%
X275067500Y-79950000D03*
%TD*%
D32*
%TO.N,GND*%
%TO.C,J22*%
X275067500Y-98650000D03*
D33*
%TO.N,V_AUX_12V0*%
X275067500Y-96150000D03*
%TD*%
D24*
%TO.N,GND*%
%TO.C,C23*%
X231850000Y-105800000D03*
X234150000Y-105800000D03*
%TD*%
D32*
%TO.N,GND*%
%TO.C,J21*%
X275067500Y-108200000D03*
D33*
%TO.N,V_AUX_12V0*%
X275067500Y-105700000D03*
%TD*%
D34*
%TO.N,GND*%
X234200000Y-109600000D03*
D35*
X206400000Y-40400000D03*
D36*
X226800000Y-51200000D03*
X223600000Y-51200000D03*
D34*
X150000000Y-63000000D03*
D36*
X230000000Y-48000000D03*
X228400000Y-48000000D03*
D35*
X179600000Y-81200000D03*
X172600000Y-82400000D03*
X171600000Y-103600000D03*
X222400000Y-33400000D03*
X172600000Y-81200000D03*
D37*
X153800000Y-104600000D03*
D35*
X205800000Y-35200000D03*
D37*
X191200000Y-90800000D03*
D34*
X155200000Y-48400000D03*
D36*
X158800000Y-59200000D03*
D35*
X218400000Y-33400000D03*
D34*
X156000000Y-48400000D03*
D35*
X171400000Y-82400000D03*
D36*
X162000000Y-62400000D03*
D35*
X179600000Y-82200000D03*
X224400000Y-126800000D03*
X217600000Y-40600000D03*
X204800000Y-35200000D03*
D36*
X233200000Y-51200000D03*
D34*
X153600000Y-48400000D03*
D36*
X231600000Y-48000000D03*
X218800000Y-49600000D03*
D35*
X205600000Y-34200000D03*
D34*
X166700000Y-135900000D03*
D36*
X225200000Y-46400000D03*
X158800000Y-62400000D03*
D35*
X220400000Y-33400000D03*
X220800000Y-36400000D03*
X219400000Y-34400000D03*
D36*
X158800000Y-60800000D03*
D34*
X154400000Y-48400000D03*
D36*
X218800000Y-51200000D03*
X231600000Y-51200000D03*
D35*
X218800000Y-36400000D03*
X179000000Y-103600000D03*
D36*
X220400000Y-46400000D03*
D35*
X203600000Y-34200000D03*
D37*
X152000000Y-102600000D03*
D36*
X160400000Y-59200000D03*
D35*
X204400000Y-40400000D03*
D36*
X223600000Y-48000000D03*
X228400000Y-51200000D03*
D37*
X172800000Y-102600000D03*
X167000000Y-119200000D03*
D36*
X228400000Y-49600000D03*
D35*
X205400000Y-40400000D03*
D36*
X233200000Y-46400000D03*
D35*
X219600000Y-40600000D03*
D36*
X162000000Y-59200000D03*
D35*
X220600000Y-40600000D03*
X203800000Y-35200000D03*
D36*
X233200000Y-48000000D03*
X225200000Y-51200000D03*
D35*
X219200000Y-35400000D03*
X217400000Y-120200000D03*
D36*
X226800000Y-48000000D03*
D35*
X203200000Y-36200000D03*
D34*
X150800000Y-57000000D03*
D35*
X204600000Y-33200000D03*
D36*
X223600000Y-46400000D03*
D35*
X202600000Y-34200000D03*
D36*
X220400000Y-51200000D03*
X226800000Y-46400000D03*
D35*
X203400000Y-40400000D03*
X222400000Y-34400000D03*
D36*
X222000000Y-46400000D03*
D35*
X219800000Y-36400000D03*
X218400000Y-34400000D03*
D34*
X223400000Y-134600000D03*
D35*
X180000000Y-102600000D03*
D34*
X234800000Y-99600000D03*
D35*
X220200000Y-35400000D03*
D36*
X230000000Y-51200000D03*
D35*
X221400000Y-34400000D03*
X221200000Y-35400000D03*
D36*
X231600000Y-49600000D03*
D35*
X203600000Y-33200000D03*
D37*
X152000000Y-100600000D03*
D35*
X223400000Y-100400000D03*
D36*
X233200000Y-49600000D03*
D35*
X218600000Y-40600000D03*
X180000000Y-103600000D03*
X217800000Y-36400000D03*
D34*
X153200000Y-71000000D03*
D35*
X204600000Y-34200000D03*
D37*
X204000000Y-138000000D03*
X204000000Y-150400000D03*
D36*
X162000000Y-60800000D03*
X160400000Y-60800000D03*
D37*
X172800000Y-103600000D03*
D35*
X171400000Y-81200000D03*
X221400000Y-33400000D03*
X171600000Y-102600000D03*
D36*
X230000000Y-49600000D03*
D35*
X201800000Y-35200000D03*
D36*
X222000000Y-51200000D03*
D35*
X171400000Y-78800000D03*
X206200000Y-36200000D03*
D37*
X152000000Y-104600000D03*
D36*
X231600000Y-46400000D03*
D35*
X202600000Y-33200000D03*
X158200000Y-55800000D03*
D36*
X225200000Y-49600000D03*
X160400000Y-62400000D03*
D37*
X178600000Y-114400000D03*
D35*
X201600000Y-34200000D03*
D36*
X228400000Y-46400000D03*
D35*
X223200000Y-126800000D03*
X171400000Y-80000000D03*
D37*
X266249000Y-125175500D03*
D36*
X217200000Y-51200000D03*
X217200000Y-46400000D03*
D35*
X202800000Y-35200000D03*
X160200000Y-55800000D03*
D36*
X222000000Y-49600000D03*
X217200000Y-49600000D03*
D37*
X239000000Y-131600000D03*
X161200000Y-127800000D03*
D35*
X205600000Y-33200000D03*
X171600000Y-101600000D03*
X218200000Y-35400000D03*
D36*
X218800000Y-48000000D03*
D35*
X179000000Y-102600000D03*
X204200000Y-36200000D03*
X222200000Y-35400000D03*
X221800000Y-36400000D03*
D37*
X153800000Y-102600000D03*
D35*
X219400000Y-33400000D03*
D36*
X230000000Y-46400000D03*
D35*
X202200000Y-36200000D03*
D37*
X220800000Y-147000000D03*
D36*
X223600000Y-49600000D03*
D34*
X155200000Y-63800000D03*
D36*
X217200000Y-48000000D03*
X222000000Y-48000000D03*
D37*
X153800000Y-100600000D03*
D34*
X164400000Y-102800000D03*
D36*
X220400000Y-48000000D03*
D35*
X220400000Y-34400000D03*
D34*
X152800000Y-48400000D03*
D35*
X201600000Y-33200000D03*
D36*
X226800000Y-49600000D03*
D34*
X150800000Y-49000000D03*
D36*
X220400000Y-49600000D03*
D37*
X250600000Y-95000000D03*
D36*
X225200000Y-48000000D03*
X218800000Y-46400000D03*
D35*
X205200000Y-36200000D03*
%TO.N,5V_PERIPH_PRIMARY*%
X228200000Y-105200000D03*
X223200000Y-105800000D03*
D34*
X152000000Y-63800000D03*
D35*
X226400000Y-142800000D03*
%TO.N,5V_PERIPH_SECONDARY*%
X211400000Y-143400000D03*
X169400000Y-126200000D03*
D36*
%TO.N,+BATT*%
X203000000Y-51200000D03*
X201400000Y-46400000D03*
X214200000Y-46400000D03*
X211000000Y-46400000D03*
D35*
X230200000Y-33400000D03*
D36*
X198200000Y-46400000D03*
X204600000Y-48000000D03*
D35*
X210600000Y-35200000D03*
D36*
X199800000Y-49600000D03*
X198200000Y-49600000D03*
D35*
X211200000Y-40400000D03*
X212400000Y-33200000D03*
X228600000Y-36400000D03*
D36*
X199800000Y-46400000D03*
D35*
X210400000Y-33200000D03*
X213200000Y-40400000D03*
X211000000Y-36200000D03*
X226600000Y-36400000D03*
D36*
X211000000Y-51200000D03*
D35*
X227000000Y-35400000D03*
D36*
X209400000Y-49600000D03*
X209400000Y-48000000D03*
D35*
X213600000Y-35200000D03*
X225600000Y-36400000D03*
D36*
X204600000Y-49600000D03*
D35*
X228400000Y-40600000D03*
D36*
X204600000Y-46400000D03*
D35*
X229600000Y-36400000D03*
D36*
X207800000Y-49600000D03*
D35*
X226200000Y-33400000D03*
X212000000Y-36200000D03*
X211400000Y-34200000D03*
X213400000Y-33200000D03*
X209400000Y-33200000D03*
X227200000Y-34400000D03*
X226200000Y-34400000D03*
D36*
X212600000Y-51200000D03*
X214200000Y-51200000D03*
X207800000Y-48000000D03*
D35*
X229200000Y-33400000D03*
D36*
X206200000Y-46400000D03*
X199800000Y-48000000D03*
X201400000Y-51200000D03*
D35*
X228000000Y-35400000D03*
X229200000Y-34400000D03*
X212600000Y-35200000D03*
D36*
X201400000Y-48000000D03*
D35*
X227200000Y-33400000D03*
X213400000Y-34200000D03*
D36*
X203000000Y-49600000D03*
D35*
X212400000Y-34200000D03*
D36*
X199800000Y-51200000D03*
X211000000Y-49600000D03*
X212600000Y-46400000D03*
D35*
X210000000Y-36200000D03*
D36*
X209400000Y-51200000D03*
X198200000Y-51200000D03*
X212600000Y-49600000D03*
D35*
X209400000Y-34200000D03*
X213000000Y-36200000D03*
D36*
X211000000Y-48000000D03*
D35*
X214000000Y-36200000D03*
D36*
X206200000Y-51200000D03*
D35*
X227600000Y-36400000D03*
X211400000Y-33200000D03*
X225400000Y-40600000D03*
D36*
X207800000Y-51200000D03*
D35*
X228200000Y-33400000D03*
X212200000Y-40400000D03*
X226400000Y-40600000D03*
X230200000Y-34400000D03*
X214200000Y-40400000D03*
D36*
X214200000Y-49600000D03*
X198200000Y-48000000D03*
D35*
X226000000Y-35400000D03*
X209600000Y-35200000D03*
X227400000Y-40600000D03*
D36*
X204600000Y-51200000D03*
X206200000Y-48000000D03*
X207800000Y-46400000D03*
X212600000Y-48000000D03*
X201400000Y-49600000D03*
D35*
X230000000Y-35400000D03*
X229000000Y-35400000D03*
D36*
X203000000Y-48000000D03*
X203000000Y-46400000D03*
X214200000Y-48000000D03*
X209400000Y-46400000D03*
D35*
X210400000Y-34200000D03*
X228200000Y-34400000D03*
X211600000Y-35200000D03*
D36*
X206200000Y-49600000D03*
D35*
%TO.N,5V3_Primary*%
X204400000Y-109200000D03*
X204400000Y-108200000D03*
X203400000Y-108200000D03*
X203400000Y-109200000D03*
%TO.N,5V3_secondary*%
X204400000Y-114000000D03*
X204400000Y-113000000D03*
X203400000Y-113000000D03*
X203400000Y-114000000D03*
D36*
%TO.N,BATT_AUX*%
X167000000Y-59000000D03*
X167000000Y-57400000D03*
X154600000Y-89400000D03*
X156200000Y-87800000D03*
X165400000Y-55800000D03*
X170200000Y-54200000D03*
X168600000Y-59000000D03*
X167000000Y-54200000D03*
X170200000Y-59000000D03*
X156200000Y-86200000D03*
X171800000Y-54200000D03*
D34*
X154400000Y-59200000D03*
D36*
X171800000Y-59000000D03*
X171800000Y-55800000D03*
X170200000Y-57400000D03*
D34*
X154400000Y-58200000D03*
D36*
X171800000Y-57400000D03*
X154600000Y-86200000D03*
X153000000Y-84600000D03*
X151400000Y-91000000D03*
X168600000Y-57400000D03*
X151400000Y-84600000D03*
X154600000Y-87800000D03*
X151400000Y-89400000D03*
X153000000Y-87800000D03*
X168600000Y-54200000D03*
X167000000Y-55800000D03*
X165400000Y-57400000D03*
X153000000Y-86200000D03*
X151400000Y-87800000D03*
X151400000Y-86200000D03*
X168600000Y-55800000D03*
X165400000Y-54200000D03*
X153000000Y-89400000D03*
X170200000Y-55800000D03*
D37*
%TO.N,AUX_BATT_CURRENT_SENS*%
X170000000Y-77600000D03*
D34*
X200000000Y-93600000D03*
%TO.N,PPM-SBUS-PROT*%
X211800000Y-108000000D03*
D37*
X262600000Y-125800000D03*
D34*
%TO.N,SERIAL2_TX*%
X208200000Y-120200000D03*
D37*
X212924265Y-132475735D03*
X262600000Y-128600000D03*
%TO.N,SERIAL2_RX*%
X262600000Y-127000000D03*
X207719000Y-147400000D03*
D34*
X209000000Y-116611300D03*
%TO.N,V_AUX_12V0*%
X255000000Y-103600000D03*
X255800000Y-90000000D03*
D37*
%TO.N,Net-(J9-CC2)*%
X159600000Y-104400000D03*
%TO.N,Net-(J9-CC1)*%
X159600000Y-101200000D03*
D34*
%TO.N,USB_D+*%
X213850157Y-115482843D03*
X185917157Y-111482843D03*
D35*
%TO.N,VBUS*%
X214600000Y-117000000D03*
D34*
X182800000Y-109400000D03*
X160600000Y-101000000D03*
X162600000Y-105852961D03*
X201000000Y-114200000D03*
%TO.N,USB_D-*%
X214415843Y-114917157D03*
X186482843Y-110917157D03*
%TO.N,CAN_1-*%
X218400000Y-104550000D03*
X224717157Y-105682843D03*
X229082843Y-103082843D03*
X223917157Y-117317157D03*
X224517157Y-124682843D03*
%TO.N,CAN_1+*%
X228517157Y-102517157D03*
X224482843Y-117882843D03*
X225082843Y-124117157D03*
X218400000Y-103750000D03*
X225282843Y-105117157D03*
%TO.N,CAN_2-*%
X218000000Y-113800000D03*
X169117157Y-120317157D03*
%TO.N,CAN_2+*%
X217517157Y-113117157D03*
X169682843Y-120882843D03*
%TO.N,CAN_3-*%
X205000000Y-132000000D03*
X212517157Y-122282843D03*
%TO.N,CAN_3+*%
X205800000Y-132000000D03*
X213082843Y-121717157D03*
D36*
%TO.N,/esc_landing/M4b*%
X237200000Y-76800000D03*
X238800000Y-76800000D03*
X240400000Y-76800000D03*
X240400000Y-80000000D03*
X238800000Y-78400000D03*
X235600000Y-80000000D03*
X235600000Y-78400000D03*
X242000000Y-80600000D03*
X238800000Y-80000000D03*
X237200000Y-78400000D03*
X237200000Y-80000000D03*
X242000000Y-77400000D03*
X242000000Y-79000000D03*
X240400000Y-78400000D03*
X235600000Y-76800000D03*
%TO.N,/esc_landing/M4c*%
X236600000Y-85200000D03*
X238200000Y-85200000D03*
X236600000Y-83600000D03*
X238200000Y-82000000D03*
X236600000Y-82000000D03*
X239800000Y-82000000D03*
X239800000Y-83600000D03*
X239800000Y-85200000D03*
X238200000Y-83600000D03*
%TO.N,/esc_landing/M4a*%
X240400000Y-73400000D03*
X240400000Y-71800000D03*
X235600000Y-73400000D03*
X242000000Y-71800000D03*
X240400000Y-75000000D03*
X237200000Y-71800000D03*
X237200000Y-73400000D03*
X242000000Y-73400000D03*
X238800000Y-71800000D03*
X238800000Y-73400000D03*
X235600000Y-75000000D03*
X237200000Y-75000000D03*
X235600000Y-71800000D03*
X238800000Y-75000000D03*
X242000000Y-75000000D03*
%TO.N,/esc_landing/M3b*%
X240400000Y-64500000D03*
X235600000Y-64500000D03*
X242000000Y-62900000D03*
X242000000Y-64500000D03*
X242000000Y-61300000D03*
X235600000Y-62900000D03*
X237200000Y-64500000D03*
X240400000Y-62900000D03*
X240400000Y-61300000D03*
X238800000Y-62900000D03*
X235600000Y-61300000D03*
X237200000Y-62900000D03*
X238800000Y-64500000D03*
X237200000Y-61300000D03*
X238800000Y-61300000D03*
%TO.N,/esc_landing/M3a*%
X237200000Y-55800000D03*
X237200000Y-59000000D03*
X235600000Y-57400000D03*
X242000000Y-57400000D03*
X237200000Y-57400000D03*
X240400000Y-57400000D03*
X238800000Y-57400000D03*
X235600000Y-59000000D03*
X242000000Y-59000000D03*
X235600000Y-55800000D03*
X242000000Y-55800000D03*
X238800000Y-55800000D03*
X238800000Y-59000000D03*
X240400000Y-59000000D03*
X240400000Y-55800000D03*
%TO.N,/esc_landing/M3c*%
X237200000Y-66400000D03*
X238800000Y-69600000D03*
X240400000Y-68000000D03*
X237200000Y-69600000D03*
X237200000Y-68000000D03*
X238800000Y-66400000D03*
X238800000Y-68000000D03*
X240400000Y-69600000D03*
X235600000Y-69600000D03*
X235600000Y-68000000D03*
X242000000Y-68000000D03*
X242000000Y-69600000D03*
X235600000Y-66400000D03*
X240400000Y-66400000D03*
X242000000Y-66400000D03*
%TO.N,/esc_landing/M2c*%
X193800000Y-82000000D03*
X192200000Y-82000000D03*
X195400000Y-83600000D03*
X193800000Y-85200000D03*
X192200000Y-83600000D03*
X192200000Y-85200000D03*
X195400000Y-85200000D03*
X193800000Y-83600000D03*
X195400000Y-82000000D03*
%TO.N,/esc_landing/M2a*%
X191600000Y-71800000D03*
X193200000Y-75000000D03*
X191600000Y-75000000D03*
X194800000Y-71800000D03*
X190000000Y-75000000D03*
X194800000Y-73400000D03*
X190000000Y-71800000D03*
X193200000Y-73400000D03*
X196400000Y-71800000D03*
X193200000Y-71800000D03*
X191600000Y-73400000D03*
X190000000Y-73400000D03*
X196400000Y-75000000D03*
X194800000Y-75000000D03*
X196400000Y-73400000D03*
%TO.N,/esc_landing/M2b*%
X194800000Y-76800000D03*
X196400000Y-76800000D03*
X191600000Y-78400000D03*
X194800000Y-78400000D03*
X196400000Y-78400000D03*
X191600000Y-80000000D03*
X190000000Y-80600000D03*
X194800000Y-80000000D03*
X193200000Y-76800000D03*
X196400000Y-80000000D03*
X190000000Y-77400000D03*
X193200000Y-80000000D03*
X190000000Y-79000000D03*
X193200000Y-78400000D03*
X191600000Y-76800000D03*
%TO.N,/esc_landing/M1a*%
X194800000Y-56000000D03*
X196400000Y-57600000D03*
X190000000Y-59200000D03*
X190000000Y-56000000D03*
X191600000Y-56000000D03*
X191600000Y-59200000D03*
X193200000Y-59200000D03*
X194800000Y-57600000D03*
X193200000Y-57600000D03*
X194800000Y-59200000D03*
X190000000Y-57600000D03*
X191600000Y-57600000D03*
X196400000Y-59200000D03*
X193200000Y-56000000D03*
X196400000Y-56000000D03*
%TO.N,/esc_landing/M1c*%
X193200000Y-68200000D03*
X193200000Y-69800000D03*
X190000000Y-66600000D03*
X191600000Y-68200000D03*
X194800000Y-69800000D03*
X196400000Y-69800000D03*
X190000000Y-68200000D03*
X194800000Y-68200000D03*
X196400000Y-68200000D03*
X190000000Y-69800000D03*
X196400000Y-66600000D03*
X191600000Y-66600000D03*
X191600000Y-69800000D03*
X194800000Y-66600000D03*
X193200000Y-66600000D03*
%TO.N,/esc_landing/M1b*%
X190000000Y-63100000D03*
X190000000Y-61500000D03*
X191600000Y-63100000D03*
X196400000Y-61500000D03*
X193200000Y-64700000D03*
X193200000Y-61500000D03*
X196400000Y-63100000D03*
X194800000Y-61500000D03*
X194800000Y-63100000D03*
X191600000Y-61500000D03*
X191600000Y-64700000D03*
X190000000Y-64700000D03*
X196400000Y-64700000D03*
X193200000Y-63100000D03*
X194800000Y-64700000D03*
D37*
%TO.N,SERIAL2_RTS*%
X210600000Y-128800000D03*
D34*
X211800000Y-117200000D03*
%TO.N,~{VDD_BRICK_VALID}*%
X214000000Y-118400000D03*
%TO.N,~{VDD_BACKUP_VALID}*%
X214000000Y-119400000D03*
%TO.N,I2C_1_SCL*%
X219041000Y-114400000D03*
X150175000Y-71225000D03*
X168000000Y-83800000D03*
D37*
%TO.N,SERIAL1_RTS*%
X221800000Y-144000000D03*
D34*
X206400000Y-119400000D03*
%TO.N,~{VDD_HIPOWER_OC}*%
X218200000Y-110400000D03*
D37*
%TO.N,SERIAL1_RX*%
X224600000Y-143800000D03*
D34*
X207650000Y-119400000D03*
%TO.N,SERIAL1_TX*%
X207050000Y-120150000D03*
D37*
X225800000Y-147400000D03*
D34*
%TO.N,~{VDD_5V_PERIPH_OC}*%
X218400000Y-111200000D03*
D35*
%TO.N,VDD_5V_IN_PROT*%
X221200000Y-120400000D03*
X217800000Y-108400000D03*
D37*
%TO.N,SERIAL1_CTS*%
X223400000Y-147400000D03*
D34*
X205800000Y-120200000D03*
%TO.N,~{VBUS_VALID}*%
X213600000Y-120200000D03*
%TO.N,BATT_CURRENT_SENS_PROT*%
X214600000Y-111400000D03*
D37*
X208982330Y-112311651D03*
D34*
%TO.N,I2C_1_SDA*%
X217200000Y-115200000D03*
D37*
X168800000Y-83800000D03*
D34*
X150600000Y-70400000D03*
%TO.N,SERIAL2_CTS*%
X214200000Y-122200000D03*
D37*
X212200000Y-128800000D03*
D34*
%TO.N,~{VDD_5V_PERIPH_EN}*%
X221000000Y-115400000D03*
%TO.N,VDD_3V3_SPECKTRUM_EN*%
X222600000Y-119800000D03*
D35*
X221800000Y-113200000D03*
%TO.N,VDD_SERVO_IN*%
X214000000Y-123400000D03*
D37*
%TO.N,BATT_VOLTAGE_SENS_PROT*%
X197400000Y-96800000D03*
D34*
X214000000Y-110600000D03*
%TO.N,ALARM*%
X209200000Y-118000000D03*
D37*
%TO.N,BUZZER*%
X228800000Y-123000000D03*
D34*
X233800000Y-125200000D03*
%TO.N,Net-(J13-Pin_1)*%
X150000000Y-75200000D03*
%TO.N,Net-(J14-Pin_1)*%
X227400000Y-134400000D03*
D37*
%TO.N,Net-(J15-Pin_1)*%
X234200000Y-92400000D03*
%TO.N,Net-(J17-Pin_1)*%
X207000000Y-132200000D03*
D34*
%TO.N,Net-(J19-Pin_1)*%
X234400000Y-104600000D03*
%TD*%
D38*
%TO.N,5V_PERIPH_PRIMARY*%
X155400000Y-51200000D02*
X173000000Y-51200000D01*
X204085791Y-92400000D02*
X217485791Y-105800000D01*
X173000000Y-51200000D02*
X183200000Y-61400000D01*
X217485791Y-105800000D02*
X223200000Y-105800000D01*
X196400000Y-92400000D02*
X204085791Y-92400000D01*
X183200000Y-79200000D02*
X196400000Y-92400000D01*
X183200000Y-61400000D02*
X183200000Y-79200000D01*
X152400000Y-63400000D02*
X152400000Y-54200000D01*
X152000000Y-63800000D02*
X152400000Y-63400000D01*
X152400000Y-54200000D02*
X155400000Y-51200000D01*
D39*
%TO.N,5V3_Primary*%
X194800000Y-99600000D02*
X189420000Y-99600000D01*
X189420000Y-99600000D02*
X177620000Y-87800000D01*
X203400000Y-108200000D02*
X194800000Y-99600000D01*
%TO.N,5V3_secondary*%
X202800000Y-112400000D02*
X199979968Y-112400000D01*
X199979968Y-112400000D02*
X195779968Y-108200000D01*
X179020000Y-108200000D02*
X177820000Y-109400000D01*
X203400000Y-113000000D02*
X202800000Y-112400000D01*
X195779968Y-108200000D02*
X179020000Y-108200000D01*
D40*
%TO.N,AUX_BATT_CURRENT_SENS*%
X170200000Y-77800000D02*
X180500000Y-77800000D01*
X180500000Y-77800000D02*
X196300000Y-93600000D01*
X196300000Y-93600000D02*
X200000000Y-93600000D01*
X170000000Y-77600000D02*
X170200000Y-77800000D01*
%TO.N,PPM-SBUS-PROT*%
X212081000Y-107719000D02*
X218082080Y-107719000D01*
X227763080Y-117400000D02*
X253600000Y-117400000D01*
X218082080Y-107719000D02*
X227763080Y-117400000D01*
X253600000Y-117400000D02*
X262000000Y-125800000D01*
X262000000Y-125800000D02*
X262600000Y-125800000D01*
X211800000Y-108000000D02*
X212081000Y-107719000D01*
%TO.N,SERIAL2_TX*%
X208200000Y-127751470D02*
X208200000Y-120200000D01*
X261999000Y-126999000D02*
X261999000Y-127248943D01*
X262000000Y-127800000D02*
X262600000Y-128400000D01*
X212924265Y-132475735D02*
X208200000Y-127751470D01*
X262000000Y-127249943D02*
X262000000Y-127800000D01*
X212924265Y-132475735D02*
X227200000Y-118200000D01*
X253200000Y-118200000D02*
X261999000Y-126999000D01*
X262600000Y-128400000D02*
X262600000Y-128600000D01*
X227200000Y-118200000D02*
X253200000Y-118200000D01*
X261999000Y-127248943D02*
X262000000Y-127249943D01*
%TO.N,SERIAL2_RX*%
X217600000Y-117800000D02*
X214200000Y-117800000D01*
X214200000Y-117800000D02*
X213000000Y-116600000D01*
X262600000Y-127000000D02*
X253400000Y-117800000D01*
X253400000Y-117800000D02*
X227000000Y-117800000D01*
X206400000Y-116600000D02*
X203400000Y-119600000D01*
X223719000Y-121081000D02*
X220881000Y-121081000D01*
X227000000Y-117800000D02*
X223719000Y-121081000D01*
X213000000Y-116600000D02*
X206400000Y-116600000D01*
X203400000Y-119600000D02*
X203400000Y-143081000D01*
X203400000Y-143081000D02*
X207719000Y-147400000D01*
X220881000Y-121081000D02*
X217600000Y-117800000D01*
%TO.N,/aux_power/5v_enb*%
X254800000Y-84600000D02*
X255400000Y-84000000D01*
X255400000Y-84000000D02*
X258280000Y-84000000D01*
X258280000Y-84000000D02*
X258660000Y-83620000D01*
%TO.N,/aux_power/12v_enb*%
X256400000Y-107140000D02*
X258660000Y-109400000D01*
X254800000Y-87140000D02*
X256400000Y-88740000D01*
X256400000Y-88740000D02*
X256400000Y-107140000D01*
D41*
%TO.N,USB_D+*%
X213850157Y-115482843D02*
X213574471Y-115207157D01*
X190002096Y-115207157D02*
X186277782Y-111482843D01*
X186277782Y-111482843D02*
X185917157Y-111482843D01*
X213574471Y-115207157D02*
X190002096Y-115207157D01*
D42*
%TO.N,VBUS*%
X183500000Y-109600000D02*
X187400000Y-109600000D01*
X162600000Y-105852961D02*
X162600000Y-104800000D01*
X162600000Y-104800000D02*
X161400000Y-103600000D01*
X182800000Y-109400000D02*
X183300000Y-109400000D01*
X200600000Y-113800000D02*
X201000000Y-114200000D01*
X161400000Y-103600000D02*
X161400000Y-101800000D01*
X187400000Y-109600000D02*
X191600000Y-113800000D01*
X183300000Y-109400000D02*
X183500000Y-109600000D01*
X191600000Y-113800000D02*
X200600000Y-113800000D01*
X161400000Y-101800000D02*
X160600000Y-101000000D01*
D41*
%TO.N,USB_D-*%
X214086673Y-114911843D02*
X190116904Y-114911843D01*
X190116904Y-114911843D02*
X186482843Y-111277782D01*
X214415843Y-114917157D02*
X214091987Y-114917157D01*
X214091987Y-114917157D02*
X214086673Y-114911843D01*
X186482843Y-111277782D02*
X186482843Y-110917157D01*
D43*
%TO.N,CAN_1-*%
X223689939Y-104295000D02*
X223915062Y-104520123D01*
X220455150Y-104295000D02*
X220844704Y-104295000D01*
X223915062Y-104520123D02*
X224717157Y-105322218D01*
X222044704Y-104295000D02*
X223689939Y-104295000D01*
X221655248Y-104295000D02*
X222044704Y-104295000D01*
X218400000Y-104550000D02*
X218655000Y-104295000D01*
X218655000Y-104295000D02*
X219644704Y-104295000D01*
X221055248Y-104505544D02*
X221444704Y-104505544D01*
X219855150Y-104505446D02*
X220244704Y-104505446D01*
X224717157Y-105322218D02*
X224717157Y-105682843D01*
X221549976Y-104400272D02*
G75*
G02*
X221655248Y-104295076I105224J-28D01*
G01*
X220349927Y-104400223D02*
G75*
G02*
X220455150Y-104295027I105173J23D01*
G01*
X220244704Y-104505446D02*
G75*
G03*
X220349946Y-104400223I-4J105246D01*
G01*
X220949976Y-104400272D02*
G75*
G03*
X221055248Y-104505524I105224J-28D01*
G01*
X221444704Y-104505544D02*
G75*
G03*
X221549944Y-104400272I-4J105244D01*
G01*
X219749927Y-104400223D02*
G75*
G03*
X219855150Y-104505373I105173J23D01*
G01*
X219644704Y-104295000D02*
G75*
G02*
X219749900Y-104400223I-4J-105200D01*
G01*
X220844704Y-104295000D02*
G75*
G02*
X220950000Y-104400272I-4J-105300D01*
G01*
%TO.N,CAN_1+*%
X223810061Y-104005000D02*
X224922218Y-105117157D01*
X218655000Y-104005000D02*
X223810061Y-104005000D01*
X218400000Y-103750000D02*
X218655000Y-104005000D01*
X224922218Y-105117157D02*
X225282843Y-105117157D01*
%TO.N,CAN_2-*%
X217128138Y-116018843D02*
X217976095Y-116018843D01*
X174084939Y-115710000D02*
X210420086Y-115710000D01*
X211319350Y-115710000D02*
X211800086Y-115710000D01*
X210629350Y-115500736D02*
X211110086Y-115500736D01*
X216207418Y-115559563D02*
X216438138Y-115559563D01*
X212699420Y-115710000D02*
X213180086Y-115710000D01*
X217976095Y-116018843D02*
X218097469Y-115897469D01*
X213180086Y-115710000D02*
X213319295Y-115710000D01*
X218097469Y-113897469D02*
X218000000Y-113800000D01*
X215517418Y-116018843D02*
X215748138Y-116018843D01*
X213319295Y-115710000D02*
X213628138Y-116018843D01*
X212009420Y-115500666D02*
X212490086Y-115500666D01*
X218097469Y-115897469D02*
X218097469Y-115023010D01*
X214827418Y-115559563D02*
X215058138Y-115559563D01*
X218097469Y-115023010D02*
X218097469Y-113897469D01*
X213628138Y-116018843D02*
X214368138Y-116018843D01*
X169117157Y-120317157D02*
X169477782Y-120317157D01*
X169477782Y-120317157D02*
X174084939Y-115710000D01*
X216897418Y-116018843D02*
X217128138Y-116018843D01*
X214368138Y-116018843D02*
G75*
G03*
X214597743Y-115789203I-38J229643D01*
G01*
X211110086Y-115500736D02*
G75*
G02*
X211214764Y-115605368I14J-104664D01*
G01*
X215058138Y-115559563D02*
G75*
G02*
X215287737Y-115789203I-38J-229637D01*
G01*
X216438138Y-115559563D02*
G75*
G02*
X216667737Y-115789203I-38J-229637D01*
G01*
X210420086Y-115710000D02*
G75*
G03*
X210524700Y-115605368I14J104600D01*
G01*
X212594753Y-115605333D02*
G75*
G03*
X212699420Y-115709947I104647J33D01*
G01*
X215287778Y-115789203D02*
G75*
G03*
X215517418Y-116018822I229622J3D01*
G01*
X215977778Y-115789203D02*
G75*
G02*
X216207418Y-115559578I229622J3D01*
G01*
X211904753Y-115605333D02*
G75*
G02*
X212009420Y-115500653I104647J33D01*
G01*
X215748138Y-116018843D02*
G75*
G03*
X215977743Y-115789203I-38J229643D01*
G01*
X214597778Y-115789203D02*
G75*
G02*
X214827418Y-115559578I229622J3D01*
G01*
X211214718Y-115605368D02*
G75*
G03*
X211319350Y-115709982I104582J-32D01*
G01*
X212490086Y-115500666D02*
G75*
G02*
X212594734Y-115605333I14J-104634D01*
G01*
X211800086Y-115710000D02*
G75*
G03*
X211904800Y-115605333I14J104700D01*
G01*
X216667778Y-115789203D02*
G75*
G03*
X216897418Y-116018822I229622J3D01*
G01*
X210524718Y-115605368D02*
G75*
G02*
X210629350Y-115500818I104582J-32D01*
G01*
%TO.N,CAN_2+*%
X213199201Y-116000000D02*
X213508024Y-116308823D01*
X174205061Y-116000000D02*
X179785964Y-116000000D01*
X218536000Y-113577981D02*
X218075176Y-113117157D01*
X182349280Y-116000000D02*
X213199201Y-116000000D01*
X169682843Y-120522218D02*
X174205061Y-116000000D01*
X218536000Y-115869062D02*
X218536000Y-113577981D01*
X179785964Y-116000000D02*
X182349280Y-116000000D01*
X218075176Y-113117157D02*
X217517157Y-113117157D01*
X169682843Y-120882843D02*
X169682843Y-120522218D01*
X213508024Y-116308823D02*
X218096239Y-116308823D01*
X218096239Y-116308823D02*
X218536000Y-115869062D01*
D40*
%TO.N,SERIAL2_RTS*%
X210600000Y-118400000D02*
X211800000Y-117200000D01*
X210600000Y-128800000D02*
X210600000Y-118400000D01*
%TO.N,I2C_1_SCL*%
X168550057Y-83200000D02*
X168000000Y-83750057D01*
X215189170Y-109600000D02*
X219041000Y-113451830D01*
X173018654Y-83200000D02*
X168550057Y-83200000D01*
X168000000Y-83750057D02*
X168000000Y-83800000D01*
X202600000Y-95200000D02*
X205200000Y-97800000D01*
X205200000Y-97800000D02*
X205200000Y-102400000D01*
X205200000Y-102400000D02*
X212400000Y-109600000D01*
X219041000Y-113451830D02*
X219041000Y-114400000D01*
X173018654Y-83200000D02*
X185200000Y-83200000D01*
X197200000Y-95200000D02*
X202600000Y-95200000D01*
X185200000Y-83200000D02*
X197200000Y-95200000D01*
X212400000Y-109600000D02*
X215189170Y-109600000D01*
%TO.N,SERIAL1_RTS*%
X206400000Y-119400000D02*
X206400000Y-128000000D01*
X221757943Y-143357943D02*
X221757943Y-143957943D01*
X206400000Y-128000000D02*
X221757943Y-143357943D01*
X221757943Y-143957943D02*
X221800000Y-144000000D01*
%TO.N,SERIAL1_RX*%
X207650000Y-119400000D02*
X207650000Y-128050000D01*
X207650000Y-128050000D02*
X223400000Y-143800000D01*
X223400000Y-143800000D02*
X224600000Y-143800000D01*
%TO.N,SERIAL1_TX*%
X207000000Y-120200000D02*
X207000000Y-128000000D01*
X207000000Y-128000000D02*
X222800000Y-143800000D01*
X222800000Y-144400000D02*
X225800000Y-147400000D01*
X222800000Y-143800000D02*
X222800000Y-144400000D01*
X207050000Y-120150000D02*
X207000000Y-120200000D01*
%TO.N,VDD_5V_IN_PROT*%
X220000000Y-119200000D02*
X221200000Y-120400000D01*
X220000000Y-110600000D02*
X220000000Y-119200000D01*
X217800000Y-108400000D02*
X220000000Y-110600000D01*
%TO.N,SERIAL1_CTS*%
X220200000Y-144200000D02*
X223400000Y-147400000D01*
X205800000Y-128000000D02*
X220200000Y-142400000D01*
X220200000Y-142400000D02*
X220200000Y-144200000D01*
X205800000Y-120200000D02*
X205800000Y-128000000D01*
%TO.N,BATT_CURRENT_SENS_PROT*%
X214600000Y-111400000D02*
X209893981Y-111400000D01*
X209893981Y-111400000D02*
X208982330Y-112311651D01*
%TO.N,I2C_1_SDA*%
X202400000Y-95600000D02*
X196900000Y-95600000D01*
X216800000Y-111800000D02*
X215000000Y-110000000D01*
X212188464Y-110000000D02*
X204800000Y-102611536D01*
X216800000Y-113221659D02*
X216800000Y-111800000D01*
X204800000Y-102611536D02*
X204800000Y-98000000D01*
X215000000Y-110000000D02*
X212188464Y-110000000D01*
X196900000Y-95600000D02*
X185100000Y-83800000D01*
X217200000Y-113621659D02*
X216800000Y-113221659D01*
X217200000Y-115200000D02*
X217200000Y-113621659D01*
X185100000Y-83800000D02*
X168800000Y-83800000D01*
X204800000Y-98000000D02*
X202400000Y-95600000D01*
%TO.N,SERIAL2_CTS*%
X212200000Y-128800000D02*
X212200000Y-124200000D01*
X212200000Y-124200000D02*
X214200000Y-122200000D01*
%TO.N,VDD_3V3_SPECKTRUM_EN*%
X222600000Y-114000000D02*
X221800000Y-113200000D01*
X222600000Y-119800000D02*
X222600000Y-114000000D01*
%TO.N,BATT_VOLTAGE_SENS_PROT*%
X204400000Y-102800000D02*
X212200000Y-110600000D01*
X197400000Y-96800000D02*
X203000000Y-96800000D01*
X212200000Y-110600000D02*
X214000000Y-110600000D01*
X204400000Y-98200000D02*
X204400000Y-102800000D01*
X203000000Y-96800000D02*
X204400000Y-98200000D01*
%TO.N,Net-(U6-TRIM)*%
X170460000Y-113460000D02*
X170460000Y-117740000D01*
X170200000Y-109400000D02*
X170200000Y-113200000D01*
X170200000Y-113200000D02*
X170460000Y-113460000D01*
%TO.N,BUZZER*%
X233800000Y-125200000D02*
X231600000Y-123000000D01*
X231600000Y-123000000D02*
X228800000Y-123000000D01*
%TD*%
%TA.AperFunction,Conductor*%
%TO.N,5V3_secondary*%
G36*
X206515677Y-111419685D02*
G01*
X206536319Y-111436319D01*
X206963681Y-111863681D01*
X206997166Y-111925004D01*
X207000000Y-111951362D01*
X207000000Y-114048638D01*
X206991355Y-114078078D01*
X206984832Y-114108065D01*
X206981077Y-114113080D01*
X206980315Y-114115677D01*
X206963681Y-114136319D01*
X206814976Y-114285024D01*
X206753653Y-114318509D01*
X206727295Y-114321343D01*
X203072705Y-114321343D01*
X203005666Y-114301658D01*
X202985024Y-114285024D01*
X202836319Y-114136319D01*
X202802834Y-114074996D01*
X202800000Y-114048638D01*
X202800000Y-111951362D01*
X202819685Y-111884323D01*
X202836319Y-111863681D01*
X203263681Y-111436319D01*
X203325004Y-111402834D01*
X203351362Y-111400000D01*
X206448638Y-111400000D01*
X206515677Y-111419685D01*
G37*
%TD.AperFunction*%
%TD*%
%TA.AperFunction,Conductor*%
%TO.N,5V3_Primary*%
G36*
X206515677Y-107419685D02*
G01*
X206536319Y-107436319D01*
X206963681Y-107863681D01*
X206997166Y-107925004D01*
X207000000Y-107951362D01*
X207000000Y-110048638D01*
X206980315Y-110115677D01*
X206963681Y-110136319D01*
X206536319Y-110563681D01*
X206474996Y-110597166D01*
X206448638Y-110600000D01*
X203351362Y-110600000D01*
X203284323Y-110580315D01*
X203263681Y-110563681D01*
X202836319Y-110136319D01*
X202802834Y-110074996D01*
X202800000Y-110048638D01*
X202800000Y-107951362D01*
X202819685Y-107884323D01*
X202836319Y-107863681D01*
X203263681Y-107436319D01*
X203325004Y-107402834D01*
X203351362Y-107400000D01*
X206448638Y-107400000D01*
X206515677Y-107419685D01*
G37*
%TD.AperFunction*%
%TD*%
%TA.AperFunction,Conductor*%
%TO.N,5V3_secondary*%
G36*
X180315677Y-106819685D02*
G01*
X180336319Y-106836319D01*
X180763681Y-107263681D01*
X180797166Y-107325004D01*
X180800000Y-107351362D01*
X180800000Y-111248638D01*
X180780315Y-111315677D01*
X180763681Y-111336319D01*
X180336319Y-111763681D01*
X180274996Y-111797166D01*
X180248638Y-111800000D01*
X172751362Y-111800000D01*
X172684323Y-111780315D01*
X172663681Y-111763681D01*
X172236319Y-111336319D01*
X172202834Y-111274996D01*
X172200000Y-111248638D01*
X172200000Y-107351362D01*
X172219685Y-107284323D01*
X172236319Y-107263681D01*
X172663681Y-106836319D01*
X172725004Y-106802834D01*
X172751362Y-106800000D01*
X180248638Y-106800000D01*
X180315677Y-106819685D01*
G37*
%TD.AperFunction*%
%TD*%
%TA.AperFunction,Conductor*%
%TO.N,BATT_AUX*%
G36*
X260001444Y-102433999D02*
G01*
X260040486Y-102479056D01*
X260044951Y-102487820D01*
X260169890Y-102659786D01*
X260320213Y-102810109D01*
X260492179Y-102935048D01*
X260492181Y-102935049D01*
X260492184Y-102935051D01*
X260681588Y-103031557D01*
X260883757Y-103097246D01*
X261093713Y-103130500D01*
X261093714Y-103130500D01*
X261306286Y-103130500D01*
X261306287Y-103130500D01*
X261516243Y-103097246D01*
X261718412Y-103031557D01*
X261907816Y-102935051D01*
X261929789Y-102919086D01*
X261931496Y-102917845D01*
X261224682Y-105509500D01*
X261093713Y-105509500D01*
X261066615Y-105513792D01*
X260883759Y-105542753D01*
X260726251Y-105593931D01*
X260687933Y-105600000D01*
X259172067Y-105600000D01*
X259133749Y-105593931D01*
X258976240Y-105542753D01*
X258793385Y-105513792D01*
X258766287Y-105509500D01*
X258553713Y-105509500D01*
X258526615Y-105513792D01*
X258343753Y-105542754D01*
X258343752Y-105542754D01*
X258339787Y-105544043D01*
X258269946Y-105546036D01*
X258213792Y-105513792D01*
X257836319Y-105136319D01*
X257802834Y-105074996D01*
X257800000Y-105048638D01*
X257800000Y-103059859D01*
X257819685Y-102992820D01*
X257872489Y-102947065D01*
X257941647Y-102937121D01*
X257980293Y-102949373D01*
X258141588Y-103031557D01*
X258343757Y-103097246D01*
X258553713Y-103130500D01*
X258553714Y-103130500D01*
X258766286Y-103130500D01*
X258766287Y-103130500D01*
X258976243Y-103097246D01*
X259178412Y-103031557D01*
X259367816Y-102935051D01*
X259389789Y-102919086D01*
X259539786Y-102810109D01*
X259539788Y-102810106D01*
X259539792Y-102810104D01*
X259690104Y-102659792D01*
X259690106Y-102659788D01*
X259690109Y-102659786D01*
X259815048Y-102487820D01*
X259815047Y-102487820D01*
X259815051Y-102487816D01*
X259819514Y-102479054D01*
X259867488Y-102428259D01*
X259935308Y-102411463D01*
X260001444Y-102433999D01*
G37*
%TD.AperFunction*%
%TA.AperFunction,Conductor*%
G36*
X260606925Y-77213514D02*
G01*
X260681588Y-77251557D01*
X260883757Y-77317246D01*
X261093713Y-77350500D01*
X261093714Y-77350500D01*
X261306286Y-77350500D01*
X261306287Y-77350500D01*
X261516243Y-77317246D01*
X261718412Y-77251557D01*
X261793074Y-77213514D01*
X261849368Y-77200000D01*
X263048638Y-77200000D01*
X263115677Y-77219685D01*
X263136319Y-77236319D01*
X263563681Y-77663681D01*
X263597166Y-77725004D01*
X263600000Y-77751361D01*
X263600000Y-96800000D01*
X262407034Y-101174207D01*
X262355051Y-101072184D01*
X262355049Y-101072181D01*
X262355048Y-101072179D01*
X262230109Y-100900213D01*
X262079786Y-100749890D01*
X261907820Y-100624951D01*
X261907115Y-100624591D01*
X261899054Y-100620485D01*
X261848259Y-100572512D01*
X261831463Y-100504692D01*
X261853999Y-100438556D01*
X261899054Y-100399515D01*
X261907816Y-100395051D01*
X261929789Y-100379086D01*
X262079786Y-100270109D01*
X262079788Y-100270106D01*
X262079792Y-100270104D01*
X262230104Y-100119792D01*
X262230106Y-100119788D01*
X262230109Y-100119786D01*
X262355048Y-99947820D01*
X262355047Y-99947820D01*
X262355051Y-99947816D01*
X262451557Y-99758412D01*
X262517246Y-99556243D01*
X262550500Y-99346287D01*
X262550500Y-99133713D01*
X262517246Y-98923757D01*
X262451557Y-98721588D01*
X262355051Y-98532184D01*
X262355049Y-98532181D01*
X262355048Y-98532179D01*
X262230109Y-98360213D01*
X262079786Y-98209890D01*
X261907820Y-98084951D01*
X261907115Y-98084591D01*
X261899054Y-98080485D01*
X261848259Y-98032512D01*
X261831463Y-97964692D01*
X261853999Y-97898556D01*
X261899054Y-97859515D01*
X261907816Y-97855051D01*
X261994138Y-97792335D01*
X262079786Y-97730109D01*
X262079788Y-97730106D01*
X262079792Y-97730104D01*
X262230104Y-97579792D01*
X262230106Y-97579788D01*
X262230109Y-97579786D01*
X262355048Y-97407820D01*
X262355047Y-97407820D01*
X262355051Y-97407816D01*
X262451557Y-97218412D01*
X262517246Y-97016243D01*
X262550500Y-96806287D01*
X262550500Y-96593713D01*
X262517246Y-96383757D01*
X262451557Y-96181588D01*
X262355051Y-95992184D01*
X262355049Y-95992181D01*
X262355048Y-95992179D01*
X262230109Y-95820213D01*
X262079786Y-95669890D01*
X261907820Y-95544951D01*
X261718414Y-95448444D01*
X261718413Y-95448443D01*
X261718412Y-95448443D01*
X261516243Y-95382754D01*
X261516241Y-95382753D01*
X261516240Y-95382753D01*
X261354957Y-95357208D01*
X261306287Y-95349500D01*
X261093713Y-95349500D01*
X261045042Y-95357208D01*
X260883760Y-95382753D01*
X260681585Y-95448444D01*
X260492179Y-95544951D01*
X260320215Y-95669889D01*
X260206673Y-95783431D01*
X260145350Y-95816915D01*
X260075658Y-95811931D01*
X260019725Y-95770059D01*
X260002810Y-95739082D01*
X259953797Y-95607671D01*
X259953793Y-95607664D01*
X259867547Y-95492455D01*
X259867544Y-95492452D01*
X259752335Y-95406206D01*
X259752328Y-95406202D01*
X259617482Y-95355908D01*
X259617483Y-95355908D01*
X259557883Y-95349501D01*
X259557881Y-95349500D01*
X259557873Y-95349500D01*
X259557865Y-95349500D01*
X257924000Y-95349500D01*
X257856961Y-95329815D01*
X257811206Y-95277011D01*
X257800000Y-95225500D01*
X257800000Y-92493713D01*
X258149500Y-92493713D01*
X258149500Y-92706286D01*
X258182753Y-92916239D01*
X258248444Y-93118414D01*
X258344951Y-93307820D01*
X258469890Y-93479786D01*
X258620213Y-93630109D01*
X258792179Y-93755048D01*
X258792181Y-93755049D01*
X258792184Y-93755051D01*
X258981588Y-93851557D01*
X259183757Y-93917246D01*
X259393713Y-93950500D01*
X259393714Y-93950500D01*
X259606286Y-93950500D01*
X259606287Y-93950500D01*
X259816243Y-93917246D01*
X260018412Y-93851557D01*
X260207816Y-93755051D01*
X260229789Y-93739086D01*
X260379786Y-93630109D01*
X260379788Y-93630106D01*
X260379792Y-93630104D01*
X260530104Y-93479792D01*
X260530106Y-93479788D01*
X260530109Y-93479786D01*
X260655048Y-93307820D01*
X260655047Y-93307820D01*
X260655051Y-93307816D01*
X260751557Y-93118412D01*
X260817246Y-92916243D01*
X260850500Y-92706287D01*
X260850500Y-92493713D01*
X260817246Y-92283757D01*
X260751557Y-92081588D01*
X260655051Y-91892184D01*
X260655049Y-91892181D01*
X260655048Y-91892179D01*
X260530109Y-91720213D01*
X260379786Y-91569890D01*
X260207820Y-91444951D01*
X260018414Y-91348444D01*
X260018413Y-91348443D01*
X260018412Y-91348443D01*
X259816243Y-91282754D01*
X259816241Y-91282753D01*
X259816240Y-91282753D01*
X259654957Y-91257208D01*
X259606287Y-91249500D01*
X259393713Y-91249500D01*
X259345042Y-91257208D01*
X259183760Y-91282753D01*
X258981585Y-91348444D01*
X258792179Y-91444951D01*
X258620213Y-91569890D01*
X258469890Y-91720213D01*
X258344951Y-91892179D01*
X258248444Y-92081585D01*
X258182753Y-92283760D01*
X258149500Y-92493713D01*
X257800000Y-92493713D01*
X257800000Y-87613713D01*
X258149500Y-87613713D01*
X258149500Y-87826286D01*
X258182753Y-88036239D01*
X258248444Y-88238414D01*
X258344951Y-88427820D01*
X258469890Y-88599786D01*
X258620213Y-88750109D01*
X258792179Y-88875048D01*
X258792181Y-88875049D01*
X258792184Y-88875051D01*
X258981588Y-88971557D01*
X259183757Y-89037246D01*
X259393713Y-89070500D01*
X259393714Y-89070500D01*
X259606286Y-89070500D01*
X259606287Y-89070500D01*
X259816243Y-89037246D01*
X260018412Y-88971557D01*
X260207816Y-88875051D01*
X260229789Y-88859086D01*
X260379786Y-88750109D01*
X260379788Y-88750106D01*
X260379792Y-88750104D01*
X260530104Y-88599792D01*
X260530106Y-88599788D01*
X260530109Y-88599786D01*
X260655048Y-88427820D01*
X260655047Y-88427820D01*
X260655051Y-88427816D01*
X260751557Y-88238412D01*
X260817246Y-88036243D01*
X260850500Y-87826287D01*
X260850500Y-87613713D01*
X260817246Y-87403757D01*
X260751557Y-87201588D01*
X260655051Y-87012184D01*
X260655049Y-87012181D01*
X260655048Y-87012179D01*
X260530109Y-86840213D01*
X260379786Y-86689890D01*
X260207820Y-86564951D01*
X260018414Y-86468444D01*
X260018413Y-86468443D01*
X260018412Y-86468443D01*
X259816243Y-86402754D01*
X259816241Y-86402753D01*
X259816240Y-86402753D01*
X259654957Y-86377208D01*
X259606287Y-86369500D01*
X259393713Y-86369500D01*
X259345042Y-86377208D01*
X259183760Y-86402753D01*
X258981585Y-86468444D01*
X258792179Y-86564951D01*
X258620213Y-86689890D01*
X258469890Y-86840213D01*
X258344951Y-87012179D01*
X258248444Y-87201585D01*
X258182753Y-87403760D01*
X258149500Y-87613713D01*
X257800000Y-87613713D01*
X257800000Y-84899859D01*
X257819685Y-84832820D01*
X257872489Y-84787065D01*
X257941647Y-84777121D01*
X257980293Y-84789373D01*
X258141588Y-84871557D01*
X258343757Y-84937246D01*
X258553713Y-84970500D01*
X258553714Y-84970500D01*
X258766286Y-84970500D01*
X258766287Y-84970500D01*
X258976243Y-84937246D01*
X259178412Y-84871557D01*
X259367816Y-84775051D01*
X259389789Y-84759086D01*
X259539786Y-84650109D01*
X259539788Y-84650106D01*
X259539792Y-84650104D01*
X259690104Y-84499792D01*
X259690106Y-84499788D01*
X259690109Y-84499786D01*
X259815048Y-84327820D01*
X259815047Y-84327820D01*
X259815051Y-84327816D01*
X259819514Y-84319054D01*
X259867488Y-84268259D01*
X259935308Y-84251463D01*
X260001444Y-84273999D01*
X260040486Y-84319056D01*
X260044951Y-84327820D01*
X260169890Y-84499786D01*
X260320213Y-84650109D01*
X260492179Y-84775048D01*
X260492181Y-84775049D01*
X260492184Y-84775051D01*
X260681588Y-84871557D01*
X260883757Y-84937246D01*
X261093713Y-84970500D01*
X261093714Y-84970500D01*
X261306286Y-84970500D01*
X261306287Y-84970500D01*
X261516243Y-84937246D01*
X261718412Y-84871557D01*
X261907816Y-84775051D01*
X261929789Y-84759086D01*
X262079786Y-84650109D01*
X262079788Y-84650106D01*
X262079792Y-84650104D01*
X262230104Y-84499792D01*
X262230106Y-84499788D01*
X262230109Y-84499786D01*
X262355048Y-84327820D01*
X262355047Y-84327820D01*
X262355051Y-84327816D01*
X262451557Y-84138412D01*
X262517246Y-83936243D01*
X262550500Y-83726287D01*
X262550500Y-83513713D01*
X262517246Y-83303757D01*
X262451557Y-83101588D01*
X262355051Y-82912184D01*
X262355049Y-82912181D01*
X262355048Y-82912179D01*
X262230109Y-82740213D01*
X262079786Y-82589890D01*
X261907820Y-82464951D01*
X261907115Y-82464591D01*
X261899054Y-82460485D01*
X261848259Y-82412512D01*
X261831463Y-82344692D01*
X261853999Y-82278556D01*
X261899054Y-82239515D01*
X261907816Y-82235051D01*
X261929789Y-82219086D01*
X262079786Y-82110109D01*
X262079788Y-82110106D01*
X262079792Y-82110104D01*
X262230104Y-81959792D01*
X262230106Y-81959788D01*
X262230109Y-81959786D01*
X262355048Y-81787820D01*
X262355047Y-81787820D01*
X262355051Y-81787816D01*
X262451557Y-81598412D01*
X262517246Y-81396243D01*
X262550500Y-81186287D01*
X262550500Y-80973713D01*
X262517246Y-80763757D01*
X262451557Y-80561588D01*
X262355051Y-80372184D01*
X262355049Y-80372181D01*
X262355048Y-80372179D01*
X262230109Y-80200213D01*
X262079786Y-80049890D01*
X261907820Y-79924951D01*
X261718414Y-79828444D01*
X261718413Y-79828443D01*
X261718412Y-79828443D01*
X261516243Y-79762754D01*
X261516241Y-79762753D01*
X261516240Y-79762753D01*
X261354957Y-79737208D01*
X261306287Y-79729500D01*
X261093713Y-79729500D01*
X261045042Y-79737208D01*
X260883760Y-79762753D01*
X260681585Y-79828444D01*
X260492179Y-79924951D01*
X260320213Y-80049890D01*
X260169890Y-80200213D01*
X260044949Y-80372182D01*
X260040484Y-80380946D01*
X259992509Y-80431742D01*
X259924688Y-80448536D01*
X259858553Y-80425998D01*
X259819516Y-80380946D01*
X259815050Y-80372182D01*
X259690109Y-80200213D01*
X259539786Y-80049890D01*
X259367820Y-79924951D01*
X259178414Y-79828444D01*
X259178413Y-79828443D01*
X259178412Y-79828443D01*
X258976243Y-79762754D01*
X258976241Y-79762753D01*
X258976240Y-79762753D01*
X258814957Y-79737208D01*
X258766287Y-79729500D01*
X258553713Y-79729500D01*
X258505042Y-79737208D01*
X258343760Y-79762753D01*
X258141582Y-79828445D01*
X257980294Y-79910625D01*
X257911625Y-79923521D01*
X257846885Y-79897244D01*
X257806628Y-79840138D01*
X257800000Y-79800140D01*
X257800000Y-77751361D01*
X257819685Y-77684322D01*
X257836314Y-77663685D01*
X258168510Y-77331489D01*
X258229829Y-77298007D01*
X258294501Y-77301241D01*
X258343757Y-77317246D01*
X258553713Y-77350500D01*
X258553714Y-77350500D01*
X258766286Y-77350500D01*
X258766287Y-77350500D01*
X258976243Y-77317246D01*
X259178412Y-77251557D01*
X259253074Y-77213514D01*
X259309368Y-77200000D01*
X260550632Y-77200000D01*
X260606925Y-77213514D01*
G37*
%TD.AperFunction*%
%TD*%
%TA.AperFunction,Conductor*%
%TO.N,BATT_AUX*%
G36*
X172216177Y-51920185D02*
G01*
X172236819Y-51936819D01*
X172563681Y-52263681D01*
X172597166Y-52325004D01*
X172600000Y-52351362D01*
X172600000Y-60571799D01*
X172580315Y-60638838D01*
X172574377Y-60647284D01*
X172562993Y-60662119D01*
X172431877Y-60889220D01*
X172431872Y-60889230D01*
X172331524Y-61131492D01*
X172331521Y-61131502D01*
X172278065Y-61331006D01*
X172263649Y-61384806D01*
X172229419Y-61644793D01*
X172229419Y-61907048D01*
X172251345Y-62073580D01*
X172263649Y-62167037D01*
X172285745Y-62249500D01*
X172331521Y-62420339D01*
X172331524Y-62420349D01*
X172431872Y-62662611D01*
X172431877Y-62662621D01*
X172562997Y-62889728D01*
X172574373Y-62904552D01*
X172599570Y-62969721D01*
X172600000Y-62980042D01*
X172600000Y-66456485D01*
X172580315Y-66523524D01*
X172572809Y-66533971D01*
X172139333Y-67075547D01*
X172082073Y-67115585D01*
X172069685Y-67119050D01*
X167700000Y-68100000D01*
X162799999Y-69200000D01*
X162799998Y-69200000D01*
X157000000Y-72600000D01*
X156721390Y-97256901D01*
X156700949Y-97323714D01*
X156647632Y-97368869D01*
X156597398Y-97379500D01*
X155376457Y-97379500D01*
X155183170Y-97417947D01*
X155183160Y-97417950D01*
X155001092Y-97493364D01*
X155001079Y-97493371D01*
X154837218Y-97602860D01*
X154837214Y-97602863D01*
X154697863Y-97742214D01*
X154697860Y-97742218D01*
X154588371Y-97906079D01*
X154588364Y-97906092D01*
X154512950Y-98088160D01*
X154512947Y-98088170D01*
X154474500Y-98281456D01*
X154474500Y-98281459D01*
X154474500Y-98478541D01*
X154474500Y-98478543D01*
X154474499Y-98478543D01*
X154512947Y-98671829D01*
X154512950Y-98671839D01*
X154588364Y-98853907D01*
X154588371Y-98853920D01*
X154697860Y-99017781D01*
X154697863Y-99017785D01*
X154837214Y-99157136D01*
X154837218Y-99157139D01*
X155001082Y-99266630D01*
X155006351Y-99269446D01*
X155056199Y-99318405D01*
X155071664Y-99386542D01*
X155047836Y-99452223D01*
X155046282Y-99454293D01*
X155044487Y-99456631D01*
X154968719Y-99587863D01*
X154929500Y-99734234D01*
X154929500Y-99885765D01*
X154968719Y-100032136D01*
X155001958Y-100089707D01*
X155044485Y-100163365D01*
X155151635Y-100270515D01*
X155282865Y-100346281D01*
X155429234Y-100385500D01*
X155429236Y-100385500D01*
X155580764Y-100385500D01*
X155580766Y-100385500D01*
X155727135Y-100346281D01*
X155858365Y-100270515D01*
X155965515Y-100163365D01*
X156041281Y-100032135D01*
X156080500Y-99885766D01*
X156080500Y-99734234D01*
X156041281Y-99587865D01*
X156041278Y-99587859D01*
X156028947Y-99566501D01*
X156012473Y-99498602D01*
X156035325Y-99432574D01*
X156090245Y-99389383D01*
X156136333Y-99380500D01*
X156571986Y-99380500D01*
X156639025Y-99400185D01*
X156684780Y-99452989D01*
X156695978Y-99505901D01*
X156656732Y-102979185D01*
X156629721Y-105369738D01*
X156623764Y-105896901D01*
X156603323Y-105963714D01*
X156550006Y-106008869D01*
X156499772Y-106019500D01*
X156136333Y-106019500D01*
X156069294Y-105999815D01*
X156023539Y-105947011D01*
X156013595Y-105877853D01*
X156028947Y-105833499D01*
X156041278Y-105812140D01*
X156041277Y-105812140D01*
X156041281Y-105812135D01*
X156080500Y-105665766D01*
X156080500Y-105514234D01*
X156041281Y-105367865D01*
X155965515Y-105236635D01*
X155858365Y-105129485D01*
X155754375Y-105069446D01*
X155727136Y-105053719D01*
X155607969Y-105021789D01*
X155580766Y-105014500D01*
X155429234Y-105014500D01*
X155282863Y-105053719D01*
X155151635Y-105129485D01*
X155151632Y-105129487D01*
X155044487Y-105236632D01*
X155044485Y-105236635D01*
X154968719Y-105367863D01*
X154929500Y-105514234D01*
X154929500Y-105665765D01*
X154968719Y-105812136D01*
X154996451Y-105860169D01*
X155044485Y-105943365D01*
X155044489Y-105943369D01*
X155046278Y-105945701D01*
X155047177Y-105948027D01*
X155048549Y-105950403D01*
X155048178Y-105950616D01*
X155071475Y-106010869D01*
X155057439Y-106079315D01*
X155008627Y-106129306D01*
X155006359Y-106130549D01*
X155001084Y-106133368D01*
X154837218Y-106242860D01*
X154837214Y-106242863D01*
X154697863Y-106382214D01*
X154697860Y-106382218D01*
X154588371Y-106546079D01*
X154588364Y-106546092D01*
X154512950Y-106728160D01*
X154512947Y-106728170D01*
X154474500Y-106921456D01*
X154474500Y-106921459D01*
X154474500Y-107118541D01*
X154474500Y-107118543D01*
X154474499Y-107118543D01*
X154512947Y-107311829D01*
X154512950Y-107311839D01*
X154588364Y-107493907D01*
X154588371Y-107493920D01*
X154697860Y-107657781D01*
X154697863Y-107657785D01*
X154837214Y-107797136D01*
X154837218Y-107797139D01*
X155001079Y-107906628D01*
X155001092Y-107906635D01*
X155084997Y-107941389D01*
X155183165Y-107982051D01*
X155183169Y-107982051D01*
X155183170Y-107982052D01*
X155376456Y-108020500D01*
X156491115Y-108020500D01*
X156558154Y-108040185D01*
X156603909Y-108092989D01*
X156614375Y-108130972D01*
X156654550Y-108497014D01*
X156654550Y-108497015D01*
X156892166Y-110661972D01*
X156879913Y-110730758D01*
X156832416Y-110782001D01*
X156768906Y-110799500D01*
X155185791Y-110799500D01*
X155185776Y-110799501D01*
X155053586Y-110809904D01*
X155053579Y-110809905D01*
X154835321Y-110864902D01*
X154835318Y-110864903D01*
X154630377Y-110957991D01*
X154630367Y-110957997D01*
X154445354Y-111086174D01*
X154445342Y-111086184D01*
X154286184Y-111245342D01*
X154286174Y-111245354D01*
X154157997Y-111430367D01*
X154157991Y-111430377D01*
X154064903Y-111635318D01*
X154064902Y-111635321D01*
X154009905Y-111853579D01*
X154009904Y-111853586D01*
X153999500Y-111985777D01*
X153999500Y-113614208D01*
X153999501Y-113614223D01*
X154009904Y-113746413D01*
X154009905Y-113746420D01*
X154064902Y-113964678D01*
X154064903Y-113964681D01*
X154157991Y-114169622D01*
X154157997Y-114169632D01*
X154286174Y-114354645D01*
X154286178Y-114354650D01*
X154286181Y-114354654D01*
X154445346Y-114513819D01*
X154445350Y-114513822D01*
X154445354Y-114513825D01*
X154625536Y-114638656D01*
X154669433Y-114693015D01*
X154676972Y-114762476D01*
X154645761Y-114824987D01*
X154642601Y-114828265D01*
X154492718Y-114978148D01*
X154333075Y-115186196D01*
X154201958Y-115413299D01*
X154201953Y-115413309D01*
X154101605Y-115655571D01*
X154101602Y-115655581D01*
X154033730Y-115908885D01*
X153999500Y-116168872D01*
X153999500Y-116431127D01*
X154026123Y-116633339D01*
X154033730Y-116691116D01*
X154035075Y-116696135D01*
X154101602Y-116944418D01*
X154101605Y-116944428D01*
X154201953Y-117186690D01*
X154201958Y-117186700D01*
X154333075Y-117413803D01*
X154492718Y-117621851D01*
X154492726Y-117621860D01*
X154678140Y-117807274D01*
X154678148Y-117807281D01*
X154866258Y-117951625D01*
X154907460Y-118008053D01*
X154911615Y-118077799D01*
X154877402Y-118138719D01*
X154866258Y-118148375D01*
X154678148Y-118292718D01*
X154492718Y-118478148D01*
X154333075Y-118686196D01*
X154201958Y-118913299D01*
X154201953Y-118913309D01*
X154101605Y-119155571D01*
X154101602Y-119155581D01*
X154068575Y-119278842D01*
X154033730Y-119408885D01*
X153999500Y-119668872D01*
X153999500Y-119931127D01*
X154008634Y-120000500D01*
X154033730Y-120191116D01*
X154087309Y-120391075D01*
X154101602Y-120444418D01*
X154101605Y-120444428D01*
X154201953Y-120686690D01*
X154201958Y-120686700D01*
X154333075Y-120913803D01*
X154492718Y-121121851D01*
X154492726Y-121121860D01*
X154678140Y-121307274D01*
X154678148Y-121307281D01*
X154886196Y-121466924D01*
X155113299Y-121598041D01*
X155113309Y-121598046D01*
X155355571Y-121698394D01*
X155355581Y-121698398D01*
X155608884Y-121766270D01*
X155868880Y-121800500D01*
X155868887Y-121800500D01*
X156131113Y-121800500D01*
X156131120Y-121800500D01*
X156391116Y-121766270D01*
X156644419Y-121698398D01*
X156871106Y-121604501D01*
X156886690Y-121598046D01*
X156886691Y-121598045D01*
X156886697Y-121598043D01*
X157113803Y-121466924D01*
X157321851Y-121307282D01*
X157321855Y-121307277D01*
X157321860Y-121307274D01*
X157507274Y-121121860D01*
X157507277Y-121121855D01*
X157507282Y-121121851D01*
X157666924Y-120913803D01*
X157772057Y-120731705D01*
X157822621Y-120683493D01*
X157891228Y-120670269D01*
X157956093Y-120696237D01*
X157996622Y-120753151D01*
X158002702Y-120780179D01*
X158345080Y-123899616D01*
X158345635Y-123906371D01*
X158399815Y-124896618D01*
X158400000Y-124903392D01*
X158400000Y-127406896D01*
X155800000Y-126600000D01*
X156000000Y-131400000D01*
X155121996Y-131400000D01*
X155079345Y-131392434D01*
X155066664Y-131387789D01*
X154988768Y-131359254D01*
X154238961Y-131084594D01*
X154201515Y-131062820D01*
X152381693Y-129522971D01*
X151999956Y-129199963D01*
X150800000Y-128200000D01*
X149999668Y-127533056D01*
X149973486Y-127502851D01*
X149497365Y-126730233D01*
X149482156Y-126693275D01*
X149345468Y-126105513D01*
X149799500Y-126105513D01*
X149799500Y-126294486D01*
X149829059Y-126481118D01*
X149887454Y-126660836D01*
X149973240Y-126829199D01*
X150084310Y-126982073D01*
X150217927Y-127115690D01*
X150370801Y-127226760D01*
X150450347Y-127267290D01*
X150539163Y-127312545D01*
X150539165Y-127312545D01*
X150539168Y-127312547D01*
X150635497Y-127343846D01*
X150718881Y-127370940D01*
X150905514Y-127400500D01*
X150905519Y-127400500D01*
X151094486Y-127400500D01*
X151281118Y-127370940D01*
X151460832Y-127312547D01*
X151629199Y-127226760D01*
X151782073Y-127115690D01*
X151915690Y-126982073D01*
X152026760Y-126829199D01*
X152112547Y-126660832D01*
X152170940Y-126481118D01*
X152198372Y-126307920D01*
X152200500Y-126294486D01*
X152200500Y-126105513D01*
X152170940Y-125918881D01*
X152112545Y-125739163D01*
X152026759Y-125570800D01*
X151915690Y-125417927D01*
X151782073Y-125284310D01*
X151629199Y-125173240D01*
X151619384Y-125168239D01*
X151460836Y-125087454D01*
X151281118Y-125029059D01*
X151094486Y-124999500D01*
X151094481Y-124999500D01*
X150905519Y-124999500D01*
X150905514Y-124999500D01*
X150718881Y-125029059D01*
X150539163Y-125087454D01*
X150370800Y-125173240D01*
X150306611Y-125219877D01*
X150217927Y-125284310D01*
X150217925Y-125284312D01*
X150217924Y-125284312D01*
X150084312Y-125417924D01*
X150084312Y-125417925D01*
X150084310Y-125417927D01*
X150063698Y-125446297D01*
X149973240Y-125570800D01*
X149887454Y-125739163D01*
X149829059Y-125918881D01*
X149799500Y-126105513D01*
X149345468Y-126105513D01*
X149154491Y-125284312D01*
X149103723Y-125066008D01*
X149100500Y-125037920D01*
X149100500Y-122705513D01*
X149799500Y-122705513D01*
X149799500Y-122894486D01*
X149829059Y-123081118D01*
X149887454Y-123260836D01*
X149959375Y-123401987D01*
X149973240Y-123429199D01*
X150084310Y-123582073D01*
X150217927Y-123715690D01*
X150370801Y-123826760D01*
X150450347Y-123867290D01*
X150539163Y-123912545D01*
X150539165Y-123912545D01*
X150539168Y-123912547D01*
X150615454Y-123937334D01*
X150718881Y-123970940D01*
X150905514Y-124000500D01*
X150905519Y-124000500D01*
X151094486Y-124000500D01*
X151281118Y-123970940D01*
X151460832Y-123912547D01*
X151629199Y-123826760D01*
X151782073Y-123715690D01*
X151915690Y-123582073D01*
X152026760Y-123429199D01*
X152112547Y-123260832D01*
X152170940Y-123081118D01*
X152200500Y-122894486D01*
X152200500Y-122705513D01*
X152170940Y-122518881D01*
X152112545Y-122339163D01*
X152026759Y-122170800D01*
X151915690Y-122017927D01*
X151782073Y-121884310D01*
X151629199Y-121773240D01*
X151615518Y-121766269D01*
X151460836Y-121687454D01*
X151281118Y-121629059D01*
X151094486Y-121599500D01*
X151094481Y-121599500D01*
X150905519Y-121599500D01*
X150905514Y-121599500D01*
X150718881Y-121629059D01*
X150539163Y-121687454D01*
X150370800Y-121773240D01*
X150283579Y-121836610D01*
X150217927Y-121884310D01*
X150217925Y-121884312D01*
X150217924Y-121884312D01*
X150084312Y-122017924D01*
X150084312Y-122017925D01*
X150084310Y-122017927D01*
X150036610Y-122083579D01*
X149973240Y-122170800D01*
X149887454Y-122339163D01*
X149829059Y-122518881D01*
X149799500Y-122705513D01*
X149100500Y-122705513D01*
X149100500Y-109705513D01*
X149799500Y-109705513D01*
X149799500Y-109894486D01*
X149829059Y-110081118D01*
X149887454Y-110260836D01*
X149973240Y-110429199D01*
X150084310Y-110582073D01*
X150217927Y-110715690D01*
X150370801Y-110826760D01*
X150445659Y-110864902D01*
X150539163Y-110912545D01*
X150539165Y-110912545D01*
X150539168Y-110912547D01*
X150635497Y-110943846D01*
X150718881Y-110970940D01*
X150905514Y-111000500D01*
X150905519Y-111000500D01*
X151094486Y-111000500D01*
X151281118Y-110970940D01*
X151320952Y-110957997D01*
X151460832Y-110912547D01*
X151629199Y-110826760D01*
X151782073Y-110715690D01*
X151915690Y-110582073D01*
X152026760Y-110429199D01*
X152112547Y-110260832D01*
X152170940Y-110081118D01*
X152200500Y-109894486D01*
X152200500Y-109705513D01*
X152170940Y-109518881D01*
X152112545Y-109339163D01*
X152026759Y-109170800D01*
X151915690Y-109017927D01*
X151782073Y-108884310D01*
X151629199Y-108773240D01*
X151460836Y-108687454D01*
X151281118Y-108629059D01*
X151094486Y-108599500D01*
X151094481Y-108599500D01*
X150905519Y-108599500D01*
X150905514Y-108599500D01*
X150718881Y-108629059D01*
X150539163Y-108687454D01*
X150370800Y-108773240D01*
X150284264Y-108836113D01*
X150217927Y-108884310D01*
X150217925Y-108884312D01*
X150217924Y-108884312D01*
X150084312Y-109017924D01*
X150084312Y-109017925D01*
X150084310Y-109017927D01*
X150055368Y-109057762D01*
X149973240Y-109170800D01*
X149887454Y-109339163D01*
X149829059Y-109518881D01*
X149799500Y-109705513D01*
X149100500Y-109705513D01*
X149100500Y-107118543D01*
X150424499Y-107118543D01*
X150462947Y-107311829D01*
X150462950Y-107311839D01*
X150538364Y-107493907D01*
X150538371Y-107493920D01*
X150647860Y-107657781D01*
X150647863Y-107657785D01*
X150787214Y-107797136D01*
X150787218Y-107797139D01*
X150951079Y-107906628D01*
X150951092Y-107906635D01*
X151034997Y-107941389D01*
X151133165Y-107982051D01*
X151133169Y-107982051D01*
X151133170Y-107982052D01*
X151326456Y-108020500D01*
X151326459Y-108020500D01*
X152323543Y-108020500D01*
X152453582Y-107994632D01*
X152516835Y-107982051D01*
X152698914Y-107906632D01*
X152862782Y-107797139D01*
X153002139Y-107657782D01*
X153111632Y-107493914D01*
X153187051Y-107311835D01*
X153199632Y-107248582D01*
X153225500Y-107118543D01*
X153225500Y-106921456D01*
X153187052Y-106728170D01*
X153187051Y-106728169D01*
X153187051Y-106728165D01*
X153187049Y-106728160D01*
X153111635Y-106546092D01*
X153111628Y-106546079D01*
X153002139Y-106382218D01*
X153002136Y-106382214D01*
X152862785Y-106242863D01*
X152862781Y-106242860D01*
X152698920Y-106133371D01*
X152698907Y-106133364D01*
X152516839Y-106057950D01*
X152516829Y-106057947D01*
X152323543Y-106019500D01*
X152323541Y-106019500D01*
X151326459Y-106019500D01*
X151326457Y-106019500D01*
X151133170Y-106057947D01*
X151133160Y-106057950D01*
X150951092Y-106133364D01*
X150951079Y-106133371D01*
X150787218Y-106242860D01*
X150787214Y-106242863D01*
X150647863Y-106382214D01*
X150647860Y-106382218D01*
X150538371Y-106546079D01*
X150538364Y-106546092D01*
X150462950Y-106728160D01*
X150462947Y-106728170D01*
X150424500Y-106921456D01*
X150424500Y-106921459D01*
X150424500Y-107118541D01*
X150424500Y-107118543D01*
X150424499Y-107118543D01*
X149100500Y-107118543D01*
X149100500Y-104521153D01*
X151199500Y-104521153D01*
X151199500Y-104678846D01*
X151230261Y-104833489D01*
X151230264Y-104833501D01*
X151290602Y-104979172D01*
X151290609Y-104979185D01*
X151378210Y-105110288D01*
X151378213Y-105110292D01*
X151489707Y-105221786D01*
X151489711Y-105221789D01*
X151620814Y-105309390D01*
X151620827Y-105309397D01*
X151766498Y-105369735D01*
X151766503Y-105369737D01*
X151921153Y-105400499D01*
X151921156Y-105400500D01*
X151921158Y-105400500D01*
X152078844Y-105400500D01*
X152078845Y-105400499D01*
X152233497Y-105369737D01*
X152379179Y-105309394D01*
X152510289Y-105221789D01*
X152621789Y-105110289D01*
X152709394Y-104979179D01*
X152769737Y-104833497D01*
X152778383Y-104790033D01*
X152810768Y-104728122D01*
X152871483Y-104693548D01*
X152941253Y-104697287D01*
X152997925Y-104738154D01*
X153021617Y-104790033D01*
X153030261Y-104833489D01*
X153030264Y-104833501D01*
X153090602Y-104979172D01*
X153090609Y-104979185D01*
X153178210Y-105110288D01*
X153178213Y-105110292D01*
X153289707Y-105221786D01*
X153289711Y-105221789D01*
X153420814Y-105309390D01*
X153420827Y-105309397D01*
X153566498Y-105369735D01*
X153566503Y-105369737D01*
X153721153Y-105400499D01*
X153721156Y-105400500D01*
X153721158Y-105400500D01*
X153878844Y-105400500D01*
X153878845Y-105400499D01*
X154033497Y-105369737D01*
X154179179Y-105309394D01*
X154310289Y-105221789D01*
X154421789Y-105110289D01*
X154509394Y-104979179D01*
X154569737Y-104833497D01*
X154600500Y-104678842D01*
X154600500Y-104521158D01*
X154600500Y-104521155D01*
X154600499Y-104521153D01*
X154592083Y-104478842D01*
X154569737Y-104366503D01*
X154509795Y-104221789D01*
X154509397Y-104220827D01*
X154509390Y-104220814D01*
X154421789Y-104089711D01*
X154421786Y-104089707D01*
X154310292Y-103978213D01*
X154310288Y-103978210D01*
X154179185Y-103890609D01*
X154179172Y-103890602D01*
X154033501Y-103830264D01*
X154033489Y-103830261D01*
X153878845Y-103799500D01*
X153878842Y-103799500D01*
X153721158Y-103799500D01*
X153721155Y-103799500D01*
X153566510Y-103830261D01*
X153566498Y-103830264D01*
X153420827Y-103890602D01*
X153420814Y-103890609D01*
X153289711Y-103978210D01*
X153289707Y-103978213D01*
X153178213Y-104089707D01*
X153178210Y-104089711D01*
X153090609Y-104220814D01*
X153090602Y-104220827D01*
X153030264Y-104366498D01*
X153030261Y-104366508D01*
X153021617Y-104409967D01*
X152989232Y-104471878D01*
X152928516Y-104506452D01*
X152858747Y-104502712D01*
X152802075Y-104461845D01*
X152778383Y-104409967D01*
X152769738Y-104366508D01*
X152769737Y-104366507D01*
X152769737Y-104366503D01*
X152709795Y-104221789D01*
X152709397Y-104220827D01*
X152709390Y-104220814D01*
X152621789Y-104089711D01*
X152621786Y-104089707D01*
X152510292Y-103978213D01*
X152510288Y-103978210D01*
X152379185Y-103890609D01*
X152379172Y-103890602D01*
X152233501Y-103830264D01*
X152233489Y-103830261D01*
X152078845Y-103799500D01*
X152078842Y-103799500D01*
X151921158Y-103799500D01*
X151921155Y-103799500D01*
X151766510Y-103830261D01*
X151766498Y-103830264D01*
X151620827Y-103890602D01*
X151620814Y-103890609D01*
X151489711Y-103978210D01*
X151489707Y-103978213D01*
X151378213Y-104089707D01*
X151378210Y-104089711D01*
X151290609Y-104220814D01*
X151290602Y-104220827D01*
X151230264Y-104366498D01*
X151230261Y-104366510D01*
X151199500Y-104521153D01*
X149100500Y-104521153D01*
X149100500Y-102521153D01*
X151199500Y-102521153D01*
X151199500Y-102678846D01*
X151230261Y-102833489D01*
X151230264Y-102833501D01*
X151290602Y-102979172D01*
X151290609Y-102979185D01*
X151378210Y-103110288D01*
X151378213Y-103110292D01*
X151489707Y-103221786D01*
X151489711Y-103221789D01*
X151620814Y-103309390D01*
X151620827Y-103309397D01*
X151758695Y-103366503D01*
X151766503Y-103369737D01*
X151921153Y-103400499D01*
X151921156Y-103400500D01*
X151921158Y-103400500D01*
X152078844Y-103400500D01*
X152078845Y-103400499D01*
X152233497Y-103369737D01*
X152379179Y-103309394D01*
X152510289Y-103221789D01*
X152621789Y-103110289D01*
X152709394Y-102979179D01*
X152769737Y-102833497D01*
X152778383Y-102790033D01*
X152810768Y-102728122D01*
X152871483Y-102693548D01*
X152941253Y-102697287D01*
X152997925Y-102738154D01*
X153021617Y-102790033D01*
X153030261Y-102833489D01*
X153030264Y-102833501D01*
X153090602Y-102979172D01*
X153090609Y-102979185D01*
X153178210Y-103110288D01*
X153178213Y-103110292D01*
X153289707Y-103221786D01*
X153289711Y-103221789D01*
X153420814Y-103309390D01*
X153420827Y-103309397D01*
X153558695Y-103366503D01*
X153566503Y-103369737D01*
X153721153Y-103400499D01*
X153721156Y-103400500D01*
X153721158Y-103400500D01*
X153878844Y-103400500D01*
X153878845Y-103400499D01*
X154033497Y-103369737D01*
X154179179Y-103309394D01*
X154310289Y-103221789D01*
X154421789Y-103110289D01*
X154509394Y-102979179D01*
X154569737Y-102833497D01*
X154600500Y-102678842D01*
X154600500Y-102521158D01*
X154600500Y-102521155D01*
X154600499Y-102521153D01*
X154596831Y-102502712D01*
X154569737Y-102366503D01*
X154551131Y-102321584D01*
X154509397Y-102220827D01*
X154509390Y-102220814D01*
X154421789Y-102089711D01*
X154421786Y-102089707D01*
X154310292Y-101978213D01*
X154310288Y-101978210D01*
X154179185Y-101890609D01*
X154179172Y-101890602D01*
X154033501Y-101830264D01*
X154033489Y-101830261D01*
X153878845Y-101799500D01*
X153878842Y-101799500D01*
X153721158Y-101799500D01*
X153721155Y-101799500D01*
X153566510Y-101830261D01*
X153566498Y-101830264D01*
X153420827Y-101890602D01*
X153420814Y-101890609D01*
X153289711Y-101978210D01*
X153289707Y-101978213D01*
X153178213Y-102089707D01*
X153178210Y-102089711D01*
X153090609Y-102220814D01*
X153090602Y-102220827D01*
X153030264Y-102366498D01*
X153030261Y-102366508D01*
X153021617Y-102409967D01*
X152989232Y-102471878D01*
X152928516Y-102506452D01*
X152858747Y-102502712D01*
X152802075Y-102461845D01*
X152778383Y-102409967D01*
X152769738Y-102366508D01*
X152769737Y-102366507D01*
X152769737Y-102366503D01*
X152751131Y-102321584D01*
X152709397Y-102220827D01*
X152709390Y-102220814D01*
X152621789Y-102089711D01*
X152621786Y-102089707D01*
X152510292Y-101978213D01*
X152510288Y-101978210D01*
X152379185Y-101890609D01*
X152379172Y-101890602D01*
X152233501Y-101830264D01*
X152233489Y-101830261D01*
X152078845Y-101799500D01*
X152078842Y-101799500D01*
X151921158Y-101799500D01*
X151921155Y-101799500D01*
X151766510Y-101830261D01*
X151766498Y-101830264D01*
X151620827Y-101890602D01*
X151620814Y-101890609D01*
X151489711Y-101978210D01*
X151489707Y-101978213D01*
X151378213Y-102089707D01*
X151378210Y-102089711D01*
X151290609Y-102220814D01*
X151290602Y-102220827D01*
X151230264Y-102366498D01*
X151230261Y-102366510D01*
X151199500Y-102521153D01*
X149100500Y-102521153D01*
X149100500Y-100521153D01*
X151199500Y-100521153D01*
X151199500Y-100678846D01*
X151230261Y-100833489D01*
X151230264Y-100833501D01*
X151290602Y-100979172D01*
X151290609Y-100979185D01*
X151378210Y-101110288D01*
X151378213Y-101110292D01*
X151489707Y-101221786D01*
X151489711Y-101221789D01*
X151620814Y-101309390D01*
X151620827Y-101309397D01*
X151766498Y-101369735D01*
X151766503Y-101369737D01*
X151921153Y-101400499D01*
X151921156Y-101400500D01*
X151921158Y-101400500D01*
X152078844Y-101400500D01*
X152078845Y-101400499D01*
X152233497Y-101369737D01*
X152379179Y-101309394D01*
X152510289Y-101221789D01*
X152621789Y-101110289D01*
X152709394Y-100979179D01*
X152769737Y-100833497D01*
X152778383Y-100790033D01*
X152810768Y-100728122D01*
X152871483Y-100693548D01*
X152941253Y-100697287D01*
X152997925Y-100738154D01*
X153021617Y-100790033D01*
X153030261Y-100833489D01*
X153030264Y-100833501D01*
X153090602Y-100979172D01*
X153090609Y-100979185D01*
X153178210Y-101110288D01*
X153178213Y-101110292D01*
X153289707Y-101221786D01*
X153289711Y-101221789D01*
X153420814Y-101309390D01*
X153420827Y-101309397D01*
X153566498Y-101369735D01*
X153566503Y-101369737D01*
X153721153Y-101400499D01*
X153721156Y-101400500D01*
X153721158Y-101400500D01*
X153878844Y-101400500D01*
X153878845Y-101400499D01*
X154033497Y-101369737D01*
X154179179Y-101309394D01*
X154310289Y-101221789D01*
X154421789Y-101110289D01*
X154509394Y-100979179D01*
X154569737Y-100833497D01*
X154600500Y-100678842D01*
X154600500Y-100521158D01*
X154600500Y-100521155D01*
X154600499Y-100521153D01*
X154594423Y-100490606D01*
X154569737Y-100366503D01*
X154561361Y-100346281D01*
X154509397Y-100220827D01*
X154509390Y-100220814D01*
X154421789Y-100089711D01*
X154421786Y-100089707D01*
X154310292Y-99978213D01*
X154310288Y-99978210D01*
X154179185Y-99890609D01*
X154179172Y-99890602D01*
X154033501Y-99830264D01*
X154033489Y-99830261D01*
X153878845Y-99799500D01*
X153878842Y-99799500D01*
X153721158Y-99799500D01*
X153721155Y-99799500D01*
X153566510Y-99830261D01*
X153566498Y-99830264D01*
X153420827Y-99890602D01*
X153420814Y-99890609D01*
X153289711Y-99978210D01*
X153289707Y-99978213D01*
X153178213Y-100089707D01*
X153178210Y-100089711D01*
X153090609Y-100220814D01*
X153090602Y-100220827D01*
X153030264Y-100366498D01*
X153030261Y-100366508D01*
X153021617Y-100409967D01*
X152989232Y-100471878D01*
X152928516Y-100506452D01*
X152858747Y-100502712D01*
X152802075Y-100461845D01*
X152778383Y-100409967D01*
X152769738Y-100366508D01*
X152769737Y-100366507D01*
X152769737Y-100366503D01*
X152761361Y-100346281D01*
X152709397Y-100220827D01*
X152709390Y-100220814D01*
X152621789Y-100089711D01*
X152621786Y-100089707D01*
X152510292Y-99978213D01*
X152510288Y-99978210D01*
X152379185Y-99890609D01*
X152379172Y-99890602D01*
X152233501Y-99830264D01*
X152233489Y-99830261D01*
X152078845Y-99799500D01*
X152078842Y-99799500D01*
X151921158Y-99799500D01*
X151921155Y-99799500D01*
X151766510Y-99830261D01*
X151766498Y-99830264D01*
X151620827Y-99890602D01*
X151620814Y-99890609D01*
X151489711Y-99978210D01*
X151489707Y-99978213D01*
X151378213Y-100089707D01*
X151378210Y-100089711D01*
X151290609Y-100220814D01*
X151290602Y-100220827D01*
X151230264Y-100366498D01*
X151230261Y-100366510D01*
X151199500Y-100521153D01*
X149100500Y-100521153D01*
X149100500Y-98478543D01*
X150424499Y-98478543D01*
X150462947Y-98671829D01*
X150462950Y-98671839D01*
X150538364Y-98853907D01*
X150538371Y-98853920D01*
X150647860Y-99017781D01*
X150647863Y-99017785D01*
X150787214Y-99157136D01*
X150787218Y-99157139D01*
X150951079Y-99266628D01*
X150951092Y-99266635D01*
X151076078Y-99318405D01*
X151133165Y-99342051D01*
X151133169Y-99342051D01*
X151133170Y-99342052D01*
X151326456Y-99380500D01*
X151326459Y-99380500D01*
X152323543Y-99380500D01*
X152479462Y-99349485D01*
X152516835Y-99342051D01*
X152657655Y-99283721D01*
X152698907Y-99266635D01*
X152698907Y-99266634D01*
X152698914Y-99266632D01*
X152862782Y-99157139D01*
X153002139Y-99017782D01*
X153111632Y-98853914D01*
X153187051Y-98671835D01*
X153225500Y-98478541D01*
X153225500Y-98281459D01*
X153225500Y-98281456D01*
X153187052Y-98088170D01*
X153187051Y-98088169D01*
X153187051Y-98088165D01*
X153187049Y-98088160D01*
X153111635Y-97906092D01*
X153111628Y-97906079D01*
X153002139Y-97742218D01*
X153002136Y-97742214D01*
X152862785Y-97602863D01*
X152862781Y-97602860D01*
X152698920Y-97493371D01*
X152698907Y-97493364D01*
X152516839Y-97417950D01*
X152516829Y-97417947D01*
X152323543Y-97379500D01*
X152323541Y-97379500D01*
X151326459Y-97379500D01*
X151326457Y-97379500D01*
X151133170Y-97417947D01*
X151133160Y-97417950D01*
X150951092Y-97493364D01*
X150951079Y-97493371D01*
X150787218Y-97602860D01*
X150787214Y-97602863D01*
X150647863Y-97742214D01*
X150647860Y-97742218D01*
X150538371Y-97906079D01*
X150538364Y-97906092D01*
X150462950Y-98088160D01*
X150462947Y-98088170D01*
X150424500Y-98281456D01*
X150424500Y-98281459D01*
X150424500Y-98478541D01*
X150424500Y-98478543D01*
X150424499Y-98478543D01*
X149100500Y-98478543D01*
X149100500Y-75611969D01*
X149120185Y-75544930D01*
X149172989Y-75499175D01*
X149242147Y-75489231D01*
X149305703Y-75518256D01*
X149331440Y-75550490D01*
X149331531Y-75550430D01*
X149332240Y-75551492D01*
X149333863Y-75553524D01*
X149334920Y-75555502D01*
X149417048Y-75678415D01*
X149417051Y-75678419D01*
X149521580Y-75782948D01*
X149521584Y-75782951D01*
X149644498Y-75865080D01*
X149644511Y-75865087D01*
X149778407Y-75920548D01*
X149781087Y-75921658D01*
X149781091Y-75921658D01*
X149781092Y-75921659D01*
X149926079Y-75950500D01*
X149926082Y-75950500D01*
X150073920Y-75950500D01*
X150171462Y-75931096D01*
X150218913Y-75921658D01*
X150355495Y-75865084D01*
X150478416Y-75782951D01*
X150582951Y-75678416D01*
X150665084Y-75555495D01*
X150665901Y-75553524D01*
X150721656Y-75418917D01*
X150721658Y-75418913D01*
X150750500Y-75273918D01*
X150750500Y-75126082D01*
X150750500Y-75126079D01*
X150721659Y-74981092D01*
X150721658Y-74981091D01*
X150721658Y-74981087D01*
X150719505Y-74975888D01*
X150665087Y-74844511D01*
X150665080Y-74844498D01*
X150582951Y-74721584D01*
X150582948Y-74721580D01*
X150478419Y-74617051D01*
X150478415Y-74617048D01*
X150355501Y-74534919D01*
X150355488Y-74534912D01*
X150218917Y-74478343D01*
X150218907Y-74478340D01*
X150073920Y-74449500D01*
X150073918Y-74449500D01*
X149926082Y-74449500D01*
X149926080Y-74449500D01*
X149781092Y-74478340D01*
X149781082Y-74478343D01*
X149644511Y-74534912D01*
X149644498Y-74534919D01*
X149521584Y-74617048D01*
X149521580Y-74617051D01*
X149417051Y-74721580D01*
X149417048Y-74721584D01*
X149334914Y-74844506D01*
X149333859Y-74846481D01*
X149333033Y-74847321D01*
X149331531Y-74849570D01*
X149331104Y-74849285D01*
X149284898Y-74896326D01*
X149216761Y-74911788D01*
X149151080Y-74887958D01*
X149108711Y-74832401D01*
X149100500Y-74788030D01*
X149100500Y-72204839D01*
X149120185Y-72137800D01*
X149128405Y-72126471D01*
X149440042Y-71744463D01*
X149497668Y-71704964D01*
X149567507Y-71702889D01*
X149623802Y-71735170D01*
X149696580Y-71807948D01*
X149696584Y-71807951D01*
X149819498Y-71890080D01*
X149819511Y-71890087D01*
X149956082Y-71946656D01*
X149956087Y-71946658D01*
X149956091Y-71946658D01*
X149956092Y-71946659D01*
X150101079Y-71975500D01*
X150101082Y-71975500D01*
X150248920Y-71975500D01*
X150346462Y-71956096D01*
X150393913Y-71946658D01*
X150530495Y-71890084D01*
X150653416Y-71807951D01*
X150757951Y-71703416D01*
X150840084Y-71580495D01*
X150896658Y-71443913D01*
X150925500Y-71298918D01*
X150925500Y-71151405D01*
X150945185Y-71084366D01*
X150955446Y-71073920D01*
X152449499Y-71073920D01*
X152478340Y-71218907D01*
X152478343Y-71218917D01*
X152534912Y-71355488D01*
X152534919Y-71355501D01*
X152617048Y-71478415D01*
X152617051Y-71478419D01*
X152721580Y-71582948D01*
X152721584Y-71582951D01*
X152844498Y-71665080D01*
X152844511Y-71665087D01*
X152937054Y-71703419D01*
X152981087Y-71721658D01*
X152981091Y-71721658D01*
X152981092Y-71721659D01*
X153126079Y-71750500D01*
X153126082Y-71750500D01*
X153273920Y-71750500D01*
X153371462Y-71731096D01*
X153418913Y-71721658D01*
X153555495Y-71665084D01*
X153678416Y-71582951D01*
X153782951Y-71478416D01*
X153865084Y-71355495D01*
X153921658Y-71218913D01*
X153950500Y-71073918D01*
X153950500Y-70926082D01*
X153950500Y-70926079D01*
X153921659Y-70781092D01*
X153921658Y-70781091D01*
X153921658Y-70781087D01*
X153911060Y-70755501D01*
X153865087Y-70644511D01*
X153865080Y-70644498D01*
X153782951Y-70521584D01*
X153782948Y-70521580D01*
X153678419Y-70417051D01*
X153678415Y-70417048D01*
X153555501Y-70334919D01*
X153555488Y-70334912D01*
X153418917Y-70278343D01*
X153418907Y-70278340D01*
X153273920Y-70249500D01*
X153273918Y-70249500D01*
X153126082Y-70249500D01*
X153126080Y-70249500D01*
X152981092Y-70278340D01*
X152981082Y-70278343D01*
X152844511Y-70334912D01*
X152844498Y-70334919D01*
X152721584Y-70417048D01*
X152721580Y-70417051D01*
X152617051Y-70521580D01*
X152617048Y-70521584D01*
X152534919Y-70644498D01*
X152534912Y-70644511D01*
X152478343Y-70781082D01*
X152478340Y-70781092D01*
X152449500Y-70926079D01*
X152449500Y-70926082D01*
X152449500Y-71073918D01*
X152449500Y-71073920D01*
X152449499Y-71073920D01*
X150955446Y-71073920D01*
X150980607Y-71048304D01*
X151078416Y-70982951D01*
X151182951Y-70878416D01*
X151265084Y-70755495D01*
X151321658Y-70618913D01*
X151336979Y-70541891D01*
X151350500Y-70473920D01*
X151350500Y-70326079D01*
X151321659Y-70181092D01*
X151321658Y-70181091D01*
X151321658Y-70181087D01*
X151321656Y-70181082D01*
X151265087Y-70044511D01*
X151265080Y-70044498D01*
X151182951Y-69921584D01*
X151182948Y-69921580D01*
X151121299Y-69859931D01*
X151087814Y-69798608D01*
X151092798Y-69728916D01*
X151112893Y-69693872D01*
X153259527Y-67062514D01*
X153308150Y-67026343D01*
X153376547Y-66998013D01*
X153524035Y-66899464D01*
X153649464Y-66774035D01*
X153748013Y-66626547D01*
X153815894Y-66462666D01*
X153815893Y-66462666D01*
X153816138Y-66462077D01*
X153842231Y-66422642D01*
X154177691Y-66081103D01*
X154186044Y-66073346D01*
X156001517Y-64537177D01*
X156038959Y-64515405D01*
X156879345Y-64207565D01*
X156921996Y-64200000D01*
X163200000Y-64200000D01*
X163200000Y-58200000D01*
X163200000Y-52351362D01*
X163219685Y-52284323D01*
X163236319Y-52263681D01*
X163563181Y-51936819D01*
X163624504Y-51903334D01*
X163650862Y-51900500D01*
X172149138Y-51900500D01*
X172216177Y-51920185D01*
G37*
%TD.AperFunction*%
%TD*%
%TA.AperFunction,Conductor*%
%TO.N,BATT_AUX*%
G36*
X163200000Y-58200000D02*
G01*
X158600000Y-58200000D01*
X158599999Y-58200000D01*
X157236319Y-59563681D01*
X157174996Y-59597166D01*
X157148638Y-59600000D01*
X154124000Y-59600000D01*
X154056961Y-59580315D01*
X154011206Y-59527511D01*
X154000000Y-59476000D01*
X154000000Y-57124000D01*
X154019685Y-57056961D01*
X154072489Y-57011206D01*
X154124000Y-57000000D01*
X163200000Y-57000000D01*
X163200000Y-58200000D01*
G37*
%TD.AperFunction*%
%TD*%
%TA.AperFunction,Conductor*%
%TO.N,BATT_AUX*%
G36*
X268758160Y-101362987D02*
G01*
X268795329Y-101422149D01*
X268800000Y-101455862D01*
X268800000Y-130926781D01*
X268780315Y-130993820D01*
X268735887Y-131035361D01*
X264318609Y-133471695D01*
X256318583Y-137884080D01*
X256258698Y-137899500D01*
X254245932Y-137899500D01*
X254226298Y-137895866D01*
X254180268Y-137899500D01*
X254134108Y-137899500D01*
X254125805Y-137901724D01*
X254103492Y-137905561D01*
X254098410Y-137905962D01*
X254094922Y-137906238D01*
X254094921Y-137906238D01*
X254094917Y-137906239D01*
X254056008Y-137920026D01*
X254056009Y-137920027D01*
X254051397Y-137921661D01*
X254006814Y-137933608D01*
X253989528Y-137943587D01*
X253978810Y-137947386D01*
X253978807Y-137947388D01*
X253970707Y-137950258D01*
X253970705Y-137950259D01*
X253936693Y-137973647D01*
X253928439Y-137978857D01*
X253892685Y-137999500D01*
X253886608Y-138005577D01*
X253886607Y-138005576D01*
X253878561Y-138013621D01*
X253862119Y-138024929D01*
X253832158Y-138060024D01*
X253828707Y-138063476D01*
X253828695Y-138063490D01*
X253799499Y-138092687D01*
X253795204Y-138100126D01*
X253782131Y-138118627D01*
X251918329Y-140301938D01*
X251883906Y-140330009D01*
X230023697Y-152386929D01*
X230013294Y-152390023D01*
X230007473Y-152394407D01*
X229999814Y-152396095D01*
X229800000Y-148200000D01*
X255699794Y-133487690D01*
X255767807Y-133471695D01*
X255808491Y-133480949D01*
X255962436Y-133544714D01*
X255962441Y-133544716D01*
X255962445Y-133544716D01*
X255962446Y-133544717D01*
X256155732Y-133583165D01*
X256155735Y-133583165D01*
X256352819Y-133583165D01*
X256482858Y-133557297D01*
X256546111Y-133544716D01*
X256728190Y-133469297D01*
X256892058Y-133359804D01*
X257031415Y-133220447D01*
X257140908Y-133056579D01*
X257216327Y-132874500D01*
X257254776Y-132681206D01*
X257254776Y-132676558D01*
X257274461Y-132609519D01*
X257317526Y-132568742D01*
X263600000Y-129000000D01*
X263600000Y-125096443D01*
X265648500Y-125096443D01*
X265648500Y-125254557D01*
X265685378Y-125392185D01*
X265689423Y-125407283D01*
X265689426Y-125407290D01*
X265768475Y-125544209D01*
X265768479Y-125544214D01*
X265768480Y-125544216D01*
X265880284Y-125656020D01*
X265880286Y-125656021D01*
X265880290Y-125656024D01*
X265978949Y-125712984D01*
X266017216Y-125735077D01*
X266169943Y-125776000D01*
X266169945Y-125776000D01*
X266328055Y-125776000D01*
X266328057Y-125776000D01*
X266480784Y-125735077D01*
X266617716Y-125656020D01*
X266729520Y-125544216D01*
X266808577Y-125407284D01*
X266849500Y-125254557D01*
X266849500Y-125096443D01*
X266808577Y-124943716D01*
X266798544Y-124926338D01*
X266729524Y-124806790D01*
X266729518Y-124806782D01*
X266617717Y-124694981D01*
X266617709Y-124694975D01*
X266480790Y-124615926D01*
X266480786Y-124615924D01*
X266480784Y-124615923D01*
X266328057Y-124575000D01*
X266169943Y-124575000D01*
X266017216Y-124615923D01*
X266017209Y-124615926D01*
X265880290Y-124694975D01*
X265880282Y-124694981D01*
X265768481Y-124806782D01*
X265768475Y-124806790D01*
X265689426Y-124943709D01*
X265689423Y-124943716D01*
X265648500Y-125096443D01*
X263600000Y-125096443D01*
X263600000Y-105600000D01*
X261200000Y-105600000D01*
X262022354Y-102584699D01*
X262077553Y-102529501D01*
X262183996Y-102382994D01*
X262266211Y-102221639D01*
X262322171Y-102049409D01*
X262336765Y-101957259D01*
X262350500Y-101870551D01*
X262350500Y-101689448D01*
X262334019Y-101585397D01*
X262322171Y-101510591D01*
X262318431Y-101499081D01*
X263600000Y-96800000D01*
X268758160Y-101362987D01*
G37*
%TD.AperFunction*%
%TD*%
%TA.AperFunction,Conductor*%
%TO.N,5V3_Primary*%
G36*
X180543039Y-84420185D02*
G01*
X180588794Y-84472989D01*
X180600000Y-84524500D01*
X180600000Y-90048638D01*
X180580315Y-90115677D01*
X180563681Y-90136319D01*
X180136319Y-90563681D01*
X180074996Y-90597166D01*
X180048638Y-90600000D01*
X172551362Y-90600000D01*
X172484323Y-90580315D01*
X172463681Y-90563681D01*
X172036319Y-90136319D01*
X172002834Y-90074996D01*
X172000000Y-90048638D01*
X172000000Y-84524500D01*
X172019685Y-84457461D01*
X172072489Y-84411706D01*
X172124000Y-84400500D01*
X180476000Y-84400500D01*
X180543039Y-84420185D01*
G37*
%TD.AperFunction*%
%TD*%
%TA.AperFunction,Conductor*%
%TO.N,BATT_AUX*%
G36*
X160643590Y-128103183D02*
G01*
X160701782Y-128141854D01*
X160714222Y-128159610D01*
X160719475Y-128168709D01*
X160719478Y-128168713D01*
X160719480Y-128168716D01*
X160831284Y-128280520D01*
X160831286Y-128280521D01*
X160831290Y-128280524D01*
X160968209Y-128359573D01*
X160968216Y-128359577D01*
X161120943Y-128400500D01*
X161120945Y-128400500D01*
X161279054Y-128400500D01*
X161279057Y-128400500D01*
X161417542Y-128363393D01*
X161435096Y-128363736D01*
X161451532Y-128359183D01*
X161486382Y-128364739D01*
X161594670Y-128398345D01*
X161605151Y-128402124D01*
X179459631Y-135764796D01*
X180995499Y-136398144D01*
X181004343Y-136402203D01*
X207800000Y-150000000D01*
X229800000Y-148200000D01*
X229999717Y-152394062D01*
X229973008Y-152402007D01*
X205836870Y-154197257D01*
X205768555Y-154182600D01*
X205767648Y-154182103D01*
X198969310Y-150421320D01*
X198787859Y-150320943D01*
X203399500Y-150320943D01*
X203399500Y-150479056D01*
X203440423Y-150631783D01*
X203440426Y-150631790D01*
X203519475Y-150768709D01*
X203519479Y-150768714D01*
X203519480Y-150768716D01*
X203631284Y-150880520D01*
X203631286Y-150880521D01*
X203631290Y-150880524D01*
X203768209Y-150959573D01*
X203768216Y-150959577D01*
X203920943Y-151000500D01*
X203920945Y-151000500D01*
X204079055Y-151000500D01*
X204079057Y-151000500D01*
X204231784Y-150959577D01*
X204368716Y-150880520D01*
X204480520Y-150768716D01*
X204559577Y-150631784D01*
X204600500Y-150479057D01*
X204600500Y-150320943D01*
X204559577Y-150168216D01*
X204559573Y-150168209D01*
X204480524Y-150031290D01*
X204480518Y-150031282D01*
X204368717Y-149919481D01*
X204368709Y-149919475D01*
X204231790Y-149840426D01*
X204231786Y-149840424D01*
X204231784Y-149840423D01*
X204079057Y-149799500D01*
X203920943Y-149799500D01*
X203768216Y-149840423D01*
X203768209Y-149840426D01*
X203631290Y-149919475D01*
X203631282Y-149919481D01*
X203519481Y-150031282D01*
X203519475Y-150031290D01*
X203440426Y-150168209D01*
X203440423Y-150168216D01*
X203399500Y-150320943D01*
X198787859Y-150320943D01*
X178864309Y-139299404D01*
X178829967Y-139271343D01*
X178017924Y-138318755D01*
X178010568Y-138310126D01*
X178000500Y-138292686D01*
X177967978Y-138260164D01*
X177938142Y-138225164D01*
X177938139Y-138225161D01*
X177930888Y-138220168D01*
X177921553Y-138213739D01*
X177907314Y-138199500D01*
X177867490Y-138176507D01*
X177863425Y-138173708D01*
X177863424Y-138173707D01*
X177829607Y-138150419D01*
X177829605Y-138150418D01*
X177810626Y-138143677D01*
X177793186Y-138133608D01*
X177748768Y-138121706D01*
X177744119Y-138120055D01*
X177744118Y-138120054D01*
X177705418Y-138106310D01*
X177696642Y-138105610D01*
X177696642Y-138105611D01*
X177688751Y-138104982D01*
X177685343Y-138104711D01*
X177665892Y-138099500D01*
X177619907Y-138099500D01*
X177614997Y-138099109D01*
X177574053Y-138095848D01*
X177574052Y-138095848D01*
X177565391Y-138097445D01*
X177542910Y-138099500D01*
X176118623Y-138099500D01*
X176079411Y-138093137D01*
X156000000Y-131400000D01*
X155800000Y-126600000D01*
X160643590Y-128103183D01*
G37*
%TD.AperFunction*%
%TD*%
M02*
