%TF.GenerationSoftware,KiCad,Pcbnew,9.0.7*%
%TF.CreationDate,2026-03-18T17:04:26-04:00*%
%TF.ProjectId,sam4,73616d34-2e6b-4696-9361-645f70636258,rev?*%
%TF.SameCoordinates,Original*%
%TF.FileFunction,Legend,Bot*%
%TF.FilePolarity,Positive*%
%FSLAX46Y46*%
G04 Gerber Fmt 4.6, Leading zero omitted, Abs format (unit mm)*
G04 Created by KiCad (PCBNEW 9.0.7) date 2026-03-18 17:04:26*
%MOMM*%
%LPD*%
G01*
G04 APERTURE LIST*
G04 Aperture macros list*
%AMRoundRect*
0 Rectangle with rounded corners*
0 $1 Rounding radius*
0 $2 $3 $4 $5 $6 $7 $8 $9 X,Y pos of 4 corners*
0 Add a 4 corners polygon primitive as box body*
4,1,4,$2,$3,$4,$5,$6,$7,$8,$9,$2,$3,0*
0 Add four circle primitives for the rounded corners*
1,1,$1+$1,$2,$3*
1,1,$1+$1,$4,$5*
1,1,$1+$1,$6,$7*
1,1,$1+$1,$8,$9*
0 Add four rect primitives between the rounded corners*
20,1,$1+$1,$2,$3,$4,$5,0*
20,1,$1+$1,$4,$5,$6,$7,0*
20,1,$1+$1,$6,$7,$8,$9,0*
20,1,$1+$1,$8,$9,$2,$3,0*%
G04 Aperture macros list end*
%ADD10C,0.150000*%
%ADD11C,1.000000*%
%ADD12C,0.400000*%
%ADD13C,0.200000*%
%ADD14C,0.120000*%
%ADD15C,1.400000*%
%ADD16RoundRect,0.750000X-1.056624X-0.092443X0.092443X-1.056624X1.056624X0.092443X-0.092443X1.056624X0*%
%ADD17C,3.000000*%
%ADD18C,3.200000*%
%ADD19C,2.200000*%
%ADD20R,1.700000X1.700000*%
%ADD21C,1.700000*%
%ADD22R,0.900000X2.000000*%
%ADD23RoundRect,1.025000X-1.025000X-1.025000X1.025000X-1.025000X1.025000X1.025000X-1.025000X1.025000X0*%
%ADD24C,4.100000*%
%ADD25RoundRect,0.770000X0.980000X-0.980000X0.980000X0.980000X-0.980000X0.980000X-0.980000X-0.980000X0*%
%ADD26C,3.500000*%
%ADD27RoundRect,0.750000X1.056624X0.092443X-0.092443X1.056624X-1.056624X-0.092443X0.092443X-1.056624X0*%
%ADD28C,2.500000*%
%ADD29C,3.700000*%
%ADD30R,9.000000X6.000000*%
%ADD31R,7.000000X4.000000*%
%ADD32R,5.500000X4.000000*%
%ADD33RoundRect,0.750000X0.092443X1.056624X-1.056624X0.092443X-0.092443X-1.056624X1.056624X-0.092443X0*%
%ADD34C,0.650000*%
%ADD35O,2.100000X1.000000*%
%ADD36O,1.800000X1.000000*%
%ADD37C,1.440000*%
%ADD38RoundRect,0.750000X-0.092443X-1.056624X1.056624X-0.092443X0.092443X1.056624X-1.056624X0.092443X0*%
%ADD39C,1.524000*%
%ADD40RoundRect,0.750000X0.750000X-0.750000X0.750000X0.750000X-0.750000X0.750000X-0.750000X-0.750000X0*%
%ADD41C,0.001000*%
%ADD42R,0.600000X0.800000*%
%ADD43R,0.600000X2.000000*%
%ADD44R,0.800000X0.600000*%
%ADD45R,2.000000X0.600000*%
%ADD46RoundRect,0.250000X-0.650000X0.325000X-0.650000X-0.325000X0.650000X-0.325000X0.650000X0.325000X0*%
%ADD47RoundRect,0.250000X0.650000X-0.325000X0.650000X0.325000X-0.650000X0.325000X-0.650000X-0.325000X0*%
%ADD48RoundRect,0.317500X-0.317500X-0.571500X0.317500X-0.571500X0.317500X0.571500X-0.317500X0.571500X0*%
%ADD49R,1.270000X1.778000*%
%ADD50RoundRect,0.317500X-0.571500X-0.317500X0.571500X-0.317500X0.571500X0.317500X-0.571500X0.317500X0*%
%ADD51RoundRect,0.250000X0.750000X-0.600000X0.750000X0.600000X-0.750000X0.600000X-0.750000X-0.600000X0*%
%ADD52O,2.000000X1.700000*%
%ADD53RoundRect,0.250000X-0.450000X0.350000X-0.450000X-0.350000X0.450000X-0.350000X0.450000X0.350000X0*%
%ADD54RoundRect,0.250000X1.750000X1.000000X-1.750000X1.000000X-1.750000X-1.000000X1.750000X-1.000000X0*%
%ADD55RoundRect,0.250000X0.450000X-0.350000X0.450000X0.350000X-0.450000X0.350000X-0.450000X-0.350000X0*%
G04 APERTURE END LIST*
D10*
X280177506Y-54269819D02*
X280177506Y-54984104D01*
X280177506Y-54984104D02*
X280225125Y-55126961D01*
X280225125Y-55126961D02*
X280320363Y-55222200D01*
X280320363Y-55222200D02*
X280463220Y-55269819D01*
X280463220Y-55269819D02*
X280558458Y-55269819D01*
X279225125Y-55269819D02*
X279701315Y-55269819D01*
X279701315Y-55269819D02*
X279701315Y-54269819D01*
X278320363Y-55174580D02*
X278367982Y-55222200D01*
X278367982Y-55222200D02*
X278510839Y-55269819D01*
X278510839Y-55269819D02*
X278606077Y-55269819D01*
X278606077Y-55269819D02*
X278748934Y-55222200D01*
X278748934Y-55222200D02*
X278844172Y-55126961D01*
X278844172Y-55126961D02*
X278891791Y-55031723D01*
X278891791Y-55031723D02*
X278939410Y-54841247D01*
X278939410Y-54841247D02*
X278939410Y-54698390D01*
X278939410Y-54698390D02*
X278891791Y-54507914D01*
X278891791Y-54507914D02*
X278844172Y-54412676D01*
X278844172Y-54412676D02*
X278748934Y-54317438D01*
X278748934Y-54317438D02*
X278606077Y-54269819D01*
X278606077Y-54269819D02*
X278510839Y-54269819D01*
X278510839Y-54269819D02*
X278367982Y-54317438D01*
X278367982Y-54317438D02*
X278320363Y-54365057D01*
X277606077Y-54269819D02*
X277606077Y-54984104D01*
X277606077Y-54984104D02*
X277653696Y-55126961D01*
X277653696Y-55126961D02*
X277748934Y-55222200D01*
X277748934Y-55222200D02*
X277891791Y-55269819D01*
X277891791Y-55269819D02*
X277987029Y-55269819D01*
X276653696Y-55269819D02*
X277129886Y-55269819D01*
X277129886Y-55269819D02*
X277129886Y-54269819D01*
X275748934Y-55174580D02*
X275796553Y-55222200D01*
X275796553Y-55222200D02*
X275939410Y-55269819D01*
X275939410Y-55269819D02*
X276034648Y-55269819D01*
X276034648Y-55269819D02*
X276177505Y-55222200D01*
X276177505Y-55222200D02*
X276272743Y-55126961D01*
X276272743Y-55126961D02*
X276320362Y-55031723D01*
X276320362Y-55031723D02*
X276367981Y-54841247D01*
X276367981Y-54841247D02*
X276367981Y-54698390D01*
X276367981Y-54698390D02*
X276320362Y-54507914D01*
X276320362Y-54507914D02*
X276272743Y-54412676D01*
X276272743Y-54412676D02*
X276177505Y-54317438D01*
X276177505Y-54317438D02*
X276034648Y-54269819D01*
X276034648Y-54269819D02*
X275939410Y-54269819D01*
X275939410Y-54269819D02*
X275796553Y-54317438D01*
X275796553Y-54317438D02*
X275748934Y-54365057D01*
X275034648Y-54269819D02*
X275034648Y-54984104D01*
X275034648Y-54984104D02*
X275082267Y-55126961D01*
X275082267Y-55126961D02*
X275177505Y-55222200D01*
X275177505Y-55222200D02*
X275320362Y-55269819D01*
X275320362Y-55269819D02*
X275415600Y-55269819D01*
X274082267Y-55269819D02*
X274558457Y-55269819D01*
X274558457Y-55269819D02*
X274558457Y-54269819D01*
X273177505Y-55174580D02*
X273225124Y-55222200D01*
X273225124Y-55222200D02*
X273367981Y-55269819D01*
X273367981Y-55269819D02*
X273463219Y-55269819D01*
X273463219Y-55269819D02*
X273606076Y-55222200D01*
X273606076Y-55222200D02*
X273701314Y-55126961D01*
X273701314Y-55126961D02*
X273748933Y-55031723D01*
X273748933Y-55031723D02*
X273796552Y-54841247D01*
X273796552Y-54841247D02*
X273796552Y-54698390D01*
X273796552Y-54698390D02*
X273748933Y-54507914D01*
X273748933Y-54507914D02*
X273701314Y-54412676D01*
X273701314Y-54412676D02*
X273606076Y-54317438D01*
X273606076Y-54317438D02*
X273463219Y-54269819D01*
X273463219Y-54269819D02*
X273367981Y-54269819D01*
X273367981Y-54269819D02*
X273225124Y-54317438D01*
X273225124Y-54317438D02*
X273177505Y-54365057D01*
X272463219Y-54269819D02*
X272463219Y-54984104D01*
X272463219Y-54984104D02*
X272510838Y-55126961D01*
X272510838Y-55126961D02*
X272606076Y-55222200D01*
X272606076Y-55222200D02*
X272748933Y-55269819D01*
X272748933Y-55269819D02*
X272844171Y-55269819D01*
X271510838Y-55269819D02*
X271987028Y-55269819D01*
X271987028Y-55269819D02*
X271987028Y-54269819D01*
X270606076Y-55174580D02*
X270653695Y-55222200D01*
X270653695Y-55222200D02*
X270796552Y-55269819D01*
X270796552Y-55269819D02*
X270891790Y-55269819D01*
X270891790Y-55269819D02*
X271034647Y-55222200D01*
X271034647Y-55222200D02*
X271129885Y-55126961D01*
X271129885Y-55126961D02*
X271177504Y-55031723D01*
X271177504Y-55031723D02*
X271225123Y-54841247D01*
X271225123Y-54841247D02*
X271225123Y-54698390D01*
X271225123Y-54698390D02*
X271177504Y-54507914D01*
X271177504Y-54507914D02*
X271129885Y-54412676D01*
X271129885Y-54412676D02*
X271034647Y-54317438D01*
X271034647Y-54317438D02*
X270891790Y-54269819D01*
X270891790Y-54269819D02*
X270796552Y-54269819D01*
X270796552Y-54269819D02*
X270653695Y-54317438D01*
X270653695Y-54317438D02*
X270606076Y-54365057D01*
D11*
X194732581Y-138505142D02*
X194732581Y-146124190D01*
X192827819Y-144219428D02*
X194732581Y-146124190D01*
X194732581Y-146124190D02*
X196637343Y-144219428D01*
D12*
G36*
X210828571Y-25904438D02*
G01*
X210313879Y-25904438D01*
X210194661Y-25844829D01*
X210145323Y-25795489D01*
X210085714Y-25676271D01*
X210085714Y-25484984D01*
X210145323Y-25365765D01*
X210184224Y-25326864D01*
X210394361Y-25256819D01*
X210828571Y-25256819D01*
X210828571Y-25904438D01*
G37*
G36*
X210828571Y-24856819D02*
G01*
X210409117Y-24856819D01*
X210289899Y-24797209D01*
X210240561Y-24747871D01*
X210180952Y-24628652D01*
X210180952Y-24532603D01*
X210240561Y-24413384D01*
X210289899Y-24364047D01*
X210409117Y-24304438D01*
X210828571Y-24304438D01*
X210828571Y-24856819D01*
G37*
G36*
X208846323Y-25333009D02*
G01*
X208448914Y-25333009D01*
X208647618Y-24736894D01*
X208846323Y-25333009D01*
G37*
G36*
X211450793Y-26526660D02*
G01*
X201749205Y-26526660D01*
X201749205Y-24104438D01*
X201971427Y-24104438D01*
X201971427Y-26104438D01*
X201972415Y-26114472D01*
X201971915Y-26118407D01*
X201973304Y-26123502D01*
X201975270Y-26143456D01*
X201985448Y-26168028D01*
X201992448Y-26193694D01*
X202000254Y-26203774D01*
X202005133Y-26215552D01*
X202023941Y-26234360D01*
X202040229Y-26255392D01*
X202051298Y-26261717D01*
X202060313Y-26270732D01*
X202084889Y-26280911D01*
X202107983Y-26294108D01*
X202120629Y-26295715D01*
X202132409Y-26300595D01*
X202159007Y-26300595D01*
X202185396Y-26303950D01*
X202197698Y-26300595D01*
X202210445Y-26300595D01*
X202235017Y-26290416D01*
X202260683Y-26283417D01*
X202270763Y-26275610D01*
X202282541Y-26270732D01*
X202301349Y-26251923D01*
X202322381Y-26235636D01*
X202333989Y-26219283D01*
X202337721Y-26215552D01*
X202339237Y-26211890D01*
X202345076Y-26203666D01*
X203114284Y-24857551D01*
X203114284Y-26104438D01*
X203118127Y-26143456D01*
X203147990Y-26215552D01*
X203203170Y-26270732D01*
X203275266Y-26300595D01*
X203353302Y-26300595D01*
X203425398Y-26270732D01*
X203480578Y-26215552D01*
X203510441Y-26143456D01*
X203514284Y-26104438D01*
X203514284Y-24104438D01*
X204066665Y-24104438D01*
X204066665Y-26104438D01*
X204070508Y-26143456D01*
X204100371Y-26215552D01*
X204155551Y-26270732D01*
X204227647Y-26300595D01*
X204305683Y-26300595D01*
X204377779Y-26270732D01*
X204432959Y-26215552D01*
X204462822Y-26143456D01*
X204466665Y-26104438D01*
X204466665Y-24104438D01*
X204462822Y-24065420D01*
X206260985Y-24065420D01*
X206260985Y-24143456D01*
X206290848Y-24215552D01*
X206346028Y-24270732D01*
X206418124Y-24300595D01*
X206457142Y-24304438D01*
X206828571Y-24304438D01*
X206828571Y-26104438D01*
X206832414Y-26143456D01*
X206862277Y-26215552D01*
X206917457Y-26270732D01*
X206989553Y-26300595D01*
X207067589Y-26300595D01*
X207139685Y-26270732D01*
X207194865Y-26215552D01*
X207224728Y-26143456D01*
X207228571Y-26104438D01*
X207228571Y-26079423D01*
X207782523Y-26079423D01*
X207788054Y-26157263D01*
X207822953Y-26227061D01*
X207881906Y-26278190D01*
X207955937Y-26302867D01*
X208033777Y-26297336D01*
X208103575Y-26262437D01*
X208154704Y-26203484D01*
X208170689Y-26167684D01*
X208315581Y-25733009D01*
X208979657Y-25733009D01*
X209124548Y-26167684D01*
X209140533Y-26203484D01*
X209191662Y-26262437D01*
X209261460Y-26297336D01*
X209339300Y-26302868D01*
X209413331Y-26278190D01*
X209472284Y-26227061D01*
X209507183Y-26157263D01*
X209512714Y-26079424D01*
X209504022Y-26041193D01*
X209302882Y-25437771D01*
X209685714Y-25437771D01*
X209685714Y-25723485D01*
X209689557Y-25762503D01*
X209692306Y-25769140D01*
X209692816Y-25776310D01*
X209706829Y-25812928D01*
X209802067Y-26003404D01*
X209812638Y-26020197D01*
X209814658Y-26025074D01*
X209819164Y-26030565D01*
X209822953Y-26036584D01*
X209826944Y-26040045D01*
X209839530Y-26055382D01*
X209934768Y-26150621D01*
X209950107Y-26163210D01*
X209953567Y-26167199D01*
X209959578Y-26170983D01*
X209965075Y-26175494D01*
X209969957Y-26177516D01*
X209986747Y-26188085D01*
X210177224Y-26283324D01*
X210213841Y-26297336D01*
X210221010Y-26297845D01*
X210227648Y-26300595D01*
X210266666Y-26304438D01*
X211028571Y-26304438D01*
X211067589Y-26300595D01*
X211139685Y-26270732D01*
X211194865Y-26215552D01*
X211224728Y-26143456D01*
X211228571Y-26104438D01*
X211228571Y-24104438D01*
X211224728Y-24065420D01*
X211194865Y-23993324D01*
X211139685Y-23938144D01*
X211067589Y-23908281D01*
X211028571Y-23904438D01*
X210361904Y-23904438D01*
X210322886Y-23908281D01*
X210316248Y-23911030D01*
X210309079Y-23911540D01*
X210272462Y-23925552D01*
X210081985Y-24020791D01*
X210065193Y-24031360D01*
X210060314Y-24033382D01*
X210054821Y-24037889D01*
X210048805Y-24041677D01*
X210045343Y-24045668D01*
X210030007Y-24058255D01*
X209934769Y-24153493D01*
X209922182Y-24168828D01*
X209918191Y-24172291D01*
X209914403Y-24178307D01*
X209909896Y-24183800D01*
X209907874Y-24188679D01*
X209897305Y-24205471D01*
X209802067Y-24395947D01*
X209788054Y-24432565D01*
X209787544Y-24439734D01*
X209784795Y-24446372D01*
X209780952Y-24485390D01*
X209780952Y-24675866D01*
X209784795Y-24714884D01*
X209787544Y-24721521D01*
X209788054Y-24728691D01*
X209802067Y-24765309D01*
X209897305Y-24955785D01*
X209907874Y-24972576D01*
X209909896Y-24977456D01*
X209914403Y-24982948D01*
X209918191Y-24988965D01*
X209922182Y-24992427D01*
X209934769Y-25007763D01*
X209936346Y-25009340D01*
X209934769Y-25010636D01*
X209839531Y-25105874D01*
X209826944Y-25121209D01*
X209822953Y-25124672D01*
X209819165Y-25130688D01*
X209814658Y-25136181D01*
X209812636Y-25141060D01*
X209802067Y-25157852D01*
X209706829Y-25348328D01*
X209692816Y-25384946D01*
X209692306Y-25392115D01*
X209689557Y-25398753D01*
X209685714Y-25437771D01*
X209302882Y-25437771D01*
X208837356Y-24041193D01*
X208821371Y-24005392D01*
X208812009Y-23994597D01*
X208805618Y-23981815D01*
X208786672Y-23965384D01*
X208770242Y-23946439D01*
X208757459Y-23940047D01*
X208746665Y-23930686D01*
X208722878Y-23922757D01*
X208700444Y-23911540D01*
X208686188Y-23910527D01*
X208672634Y-23906009D01*
X208647621Y-23907786D01*
X208622604Y-23906009D01*
X208609046Y-23910528D01*
X208594794Y-23911541D01*
X208572364Y-23922755D01*
X208548573Y-23930686D01*
X208537778Y-23940047D01*
X208524996Y-23946439D01*
X208508565Y-23965384D01*
X208489620Y-23981815D01*
X208483228Y-23994597D01*
X208473867Y-24005392D01*
X208457882Y-24041193D01*
X207791215Y-26041192D01*
X207782523Y-26079423D01*
X207228571Y-26079423D01*
X207228571Y-24304438D01*
X207599999Y-24304438D01*
X207639017Y-24300595D01*
X207711113Y-24270732D01*
X207766293Y-24215552D01*
X207796156Y-24143456D01*
X207796156Y-24065420D01*
X207766293Y-23993324D01*
X207711113Y-23938144D01*
X207639017Y-23908281D01*
X207599999Y-23904438D01*
X206457142Y-23904438D01*
X206418124Y-23908281D01*
X206346028Y-23938144D01*
X206290848Y-23993324D01*
X206260985Y-24065420D01*
X204462822Y-24065420D01*
X204432959Y-23993324D01*
X204377779Y-23938144D01*
X204305683Y-23908281D01*
X204227647Y-23908281D01*
X204155551Y-23938144D01*
X204100371Y-23993324D01*
X204070508Y-24065420D01*
X204066665Y-24104438D01*
X203514284Y-24104438D01*
X203513295Y-24094403D01*
X203513796Y-24090469D01*
X203512406Y-24085373D01*
X203510441Y-24065420D01*
X203500262Y-24040847D01*
X203493263Y-24015182D01*
X203485456Y-24005101D01*
X203480578Y-23993324D01*
X203461769Y-23974515D01*
X203445482Y-23953484D01*
X203434412Y-23947158D01*
X203425398Y-23938144D01*
X203400821Y-23927964D01*
X203377728Y-23914768D01*
X203365081Y-23913160D01*
X203353302Y-23908281D01*
X203326699Y-23908281D01*
X203300315Y-23904927D01*
X203288017Y-23908281D01*
X203275266Y-23908281D01*
X203250690Y-23918460D01*
X203225028Y-23925459D01*
X203214947Y-23933265D01*
X203203170Y-23938144D01*
X203184361Y-23956952D01*
X203163330Y-23973240D01*
X203151721Y-23989592D01*
X203147990Y-23993324D01*
X203146473Y-23996985D01*
X203140635Y-24005210D01*
X202371427Y-25351324D01*
X202371427Y-24104438D01*
X202367584Y-24065420D01*
X202337721Y-23993324D01*
X202282541Y-23938144D01*
X202210445Y-23908281D01*
X202132409Y-23908281D01*
X202060313Y-23938144D01*
X202005133Y-23993324D01*
X201975270Y-24065420D01*
X201971427Y-24104438D01*
X201749205Y-24104438D01*
X201749205Y-23682216D01*
X211450793Y-23682216D01*
X211450793Y-26526660D01*
G37*
G36*
X271653678Y-79541084D02*
G01*
X271795489Y-79611990D01*
X271844829Y-79661328D01*
X271904438Y-79780546D01*
X271904438Y-79876597D01*
X271844829Y-79995814D01*
X271795489Y-80045152D01*
X271653678Y-80116058D01*
X271317910Y-80200000D01*
X270890965Y-80200000D01*
X270555193Y-80116057D01*
X270413385Y-80045153D01*
X270364047Y-79995815D01*
X270304438Y-79876596D01*
X270304438Y-79780546D01*
X270364047Y-79661327D01*
X270413385Y-79611990D01*
X270555193Y-79541086D01*
X270890965Y-79457143D01*
X271317910Y-79457143D01*
X271653678Y-79541084D01*
G37*
G36*
X271333009Y-69074894D02*
G01*
X270736894Y-68876189D01*
X271333009Y-68677484D01*
X271333009Y-69074894D01*
G37*
G36*
X272526660Y-80822222D02*
G01*
X269682216Y-80822222D01*
X269682216Y-79733333D01*
X269904438Y-79733333D01*
X269904438Y-79923810D01*
X269908281Y-79962828D01*
X269911030Y-79969465D01*
X269911540Y-79976635D01*
X269925553Y-80013253D01*
X270020791Y-80203729D01*
X270031360Y-80220520D01*
X270033382Y-80225400D01*
X270037889Y-80230892D01*
X270041677Y-80236909D01*
X270045668Y-80240371D01*
X270058255Y-80255707D01*
X270153493Y-80350945D01*
X270168829Y-80363531D01*
X270172291Y-80367523D01*
X270178307Y-80371310D01*
X270183800Y-80375818D01*
X270188679Y-80377839D01*
X270205471Y-80388409D01*
X270395948Y-80483648D01*
X270398803Y-80484740D01*
X270399962Y-80485599D01*
X270416325Y-80491445D01*
X270432565Y-80497660D01*
X270434003Y-80497762D01*
X270436883Y-80498791D01*
X270817835Y-80594028D01*
X270824598Y-80595028D01*
X270827324Y-80596157D01*
X270842026Y-80597605D01*
X270856620Y-80599763D01*
X270859533Y-80599329D01*
X270866342Y-80600000D01*
X271342533Y-80600000D01*
X271349341Y-80599329D01*
X271352255Y-80599763D01*
X271366856Y-80597604D01*
X271381551Y-80596157D01*
X271384273Y-80595029D01*
X271391040Y-80594029D01*
X271771992Y-80498791D01*
X271774871Y-80497762D01*
X271776310Y-80497660D01*
X271792538Y-80491449D01*
X271808913Y-80485599D01*
X271810072Y-80484739D01*
X271812928Y-80483647D01*
X272003404Y-80388409D01*
X272020197Y-80377837D01*
X272025074Y-80375818D01*
X272030565Y-80371311D01*
X272036584Y-80367523D01*
X272040045Y-80363531D01*
X272055382Y-80350946D01*
X272150621Y-80255708D01*
X272163210Y-80240368D01*
X272167199Y-80236909D01*
X272170983Y-80230897D01*
X272175494Y-80225401D01*
X272177516Y-80220518D01*
X272188085Y-80203729D01*
X272283324Y-80013252D01*
X272297336Y-79976635D01*
X272297845Y-79969465D01*
X272300595Y-79962828D01*
X272304438Y-79923810D01*
X272304438Y-79733333D01*
X272300595Y-79694315D01*
X272297845Y-79687677D01*
X272297336Y-79680508D01*
X272283324Y-79643891D01*
X272188085Y-79453414D01*
X272177516Y-79436624D01*
X272175494Y-79431742D01*
X272170983Y-79426245D01*
X272167199Y-79420234D01*
X272163210Y-79416774D01*
X272150621Y-79401435D01*
X272055382Y-79306197D01*
X272040045Y-79293611D01*
X272036584Y-79289620D01*
X272030565Y-79285831D01*
X272025074Y-79281325D01*
X272020197Y-79279305D01*
X272003404Y-79268734D01*
X271812928Y-79173496D01*
X271810072Y-79172403D01*
X271808913Y-79171544D01*
X271792538Y-79165693D01*
X271776310Y-79159483D01*
X271774871Y-79159380D01*
X271771992Y-79158352D01*
X271391040Y-79063114D01*
X271384273Y-79062113D01*
X271381551Y-79060986D01*
X271366856Y-79059538D01*
X271352255Y-79057380D01*
X271349341Y-79057813D01*
X271342533Y-79057143D01*
X270866342Y-79057143D01*
X270859533Y-79057813D01*
X270856620Y-79057380D01*
X270842026Y-79059537D01*
X270827324Y-79060986D01*
X270824598Y-79062114D01*
X270817835Y-79063115D01*
X270436883Y-79158352D01*
X270434003Y-79159380D01*
X270432565Y-79159483D01*
X270416325Y-79165697D01*
X270399962Y-79171544D01*
X270398803Y-79172402D01*
X270395948Y-79173495D01*
X270205471Y-79268734D01*
X270188679Y-79279303D01*
X270183800Y-79281325D01*
X270178307Y-79285832D01*
X270172291Y-79289620D01*
X270168829Y-79293611D01*
X270153493Y-79306198D01*
X270058255Y-79401436D01*
X270045668Y-79416771D01*
X270041677Y-79420234D01*
X270037889Y-79426250D01*
X270033382Y-79431743D01*
X270031360Y-79436622D01*
X270020791Y-79453414D01*
X269925553Y-79643890D01*
X269911540Y-79680508D01*
X269911030Y-79687677D01*
X269908281Y-79694315D01*
X269904438Y-79733333D01*
X269682216Y-79733333D01*
X269682216Y-77327366D01*
X269906009Y-77327366D01*
X269911540Y-77405206D01*
X269946439Y-77475004D01*
X270005392Y-77526133D01*
X270041193Y-77542118D01*
X271471981Y-78019046D01*
X270041192Y-78495977D01*
X270005392Y-78511962D01*
X269946439Y-78563091D01*
X269911540Y-78632889D01*
X269906009Y-78710729D01*
X269930686Y-78784760D01*
X269981815Y-78843713D01*
X270051613Y-78878612D01*
X270129453Y-78884143D01*
X270167684Y-78875451D01*
X272167683Y-78208784D01*
X272203484Y-78192799D01*
X272214278Y-78183437D01*
X272227061Y-78177046D01*
X272243491Y-78158100D01*
X272262437Y-78141670D01*
X272268828Y-78128887D01*
X272278190Y-78118093D01*
X272286121Y-78094299D01*
X272297335Y-78071872D01*
X272298347Y-78057622D01*
X272302868Y-78044062D01*
X272301089Y-78019039D01*
X272302867Y-77994032D01*
X272298349Y-77980478D01*
X272297336Y-77966222D01*
X272286119Y-77943788D01*
X272278190Y-77920001D01*
X272268828Y-77909206D01*
X272262437Y-77896424D01*
X272243491Y-77879993D01*
X272227061Y-77861048D01*
X272214278Y-77854656D01*
X272203484Y-77845295D01*
X272167684Y-77829310D01*
X270167683Y-77162644D01*
X270129453Y-77153952D01*
X270051613Y-77159483D01*
X269981815Y-77194382D01*
X269930686Y-77253335D01*
X269906009Y-77327366D01*
X269682216Y-77327366D01*
X269682216Y-75733333D01*
X269904438Y-75733333D01*
X269904438Y-76685714D01*
X269908281Y-76724732D01*
X269938144Y-76796828D01*
X269993324Y-76852008D01*
X270065420Y-76881871D01*
X270143456Y-76881871D01*
X270215552Y-76852008D01*
X270270732Y-76796828D01*
X270300595Y-76724732D01*
X270304438Y-76685714D01*
X270304438Y-75914330D01*
X270672982Y-75877475D01*
X270672934Y-75878153D01*
X270670185Y-75884791D01*
X270666342Y-75923809D01*
X270666342Y-76400000D01*
X270670185Y-76439018D01*
X270672934Y-76445655D01*
X270673444Y-76452825D01*
X270687457Y-76489443D01*
X270782695Y-76679919D01*
X270793266Y-76696712D01*
X270795287Y-76701591D01*
X270799793Y-76707082D01*
X270803581Y-76713099D01*
X270807571Y-76716560D01*
X270820159Y-76731898D01*
X270915399Y-76827136D01*
X270930734Y-76839722D01*
X270934196Y-76843713D01*
X270940211Y-76847499D01*
X270945706Y-76852009D01*
X270950587Y-76854030D01*
X270967376Y-76864599D01*
X271157853Y-76959838D01*
X271194470Y-76973850D01*
X271201639Y-76974359D01*
X271208277Y-76977109D01*
X271247295Y-76980952D01*
X271723485Y-76980952D01*
X271762503Y-76977109D01*
X271769140Y-76974359D01*
X271776310Y-76973850D01*
X271812928Y-76959837D01*
X272003404Y-76864599D01*
X272020197Y-76854027D01*
X272025074Y-76852008D01*
X272030565Y-76847501D01*
X272036584Y-76843713D01*
X272040045Y-76839721D01*
X272055382Y-76827136D01*
X272150621Y-76731898D01*
X272163210Y-76716558D01*
X272167199Y-76713099D01*
X272170983Y-76707087D01*
X272175494Y-76701591D01*
X272177516Y-76696708D01*
X272188085Y-76679919D01*
X272283324Y-76489442D01*
X272297336Y-76452825D01*
X272297845Y-76445655D01*
X272300595Y-76439018D01*
X272304438Y-76400000D01*
X272304438Y-75923809D01*
X272300595Y-75884791D01*
X272297845Y-75878153D01*
X272297336Y-75870984D01*
X272283324Y-75834367D01*
X272188085Y-75643890D01*
X272177516Y-75627100D01*
X272175494Y-75622218D01*
X272170983Y-75616721D01*
X272167199Y-75610710D01*
X272163210Y-75607250D01*
X272150621Y-75591911D01*
X272055382Y-75496673D01*
X272025074Y-75471801D01*
X271952978Y-75441938D01*
X271874942Y-75441938D01*
X271802846Y-75471802D01*
X271747667Y-75526982D01*
X271717804Y-75599078D01*
X271717804Y-75677114D01*
X271747668Y-75749210D01*
X271772540Y-75779517D01*
X271844829Y-75851804D01*
X271904438Y-75971022D01*
X271904438Y-76352787D01*
X271844829Y-76472004D01*
X271795489Y-76521342D01*
X271676272Y-76580952D01*
X271294508Y-76580952D01*
X271175291Y-76521343D01*
X271125950Y-76472003D01*
X271066342Y-76352786D01*
X271066342Y-75971022D01*
X271125950Y-75851805D01*
X271198240Y-75779517D01*
X271223113Y-75749210D01*
X271226967Y-75739904D01*
X271233344Y-75732111D01*
X271241787Y-75704124D01*
X271252976Y-75677114D01*
X271252976Y-75667042D01*
X271255885Y-75657401D01*
X271252976Y-75628317D01*
X271252977Y-75599078D01*
X271249121Y-75589770D01*
X271248120Y-75579752D01*
X271234303Y-75553997D01*
X271223114Y-75526982D01*
X271215990Y-75519858D01*
X271211231Y-75510986D01*
X271188610Y-75492478D01*
X271167934Y-75471801D01*
X271158628Y-75467946D01*
X271150835Y-75461570D01*
X271122848Y-75453126D01*
X271095838Y-75441938D01*
X271085766Y-75441937D01*
X271076125Y-75439029D01*
X271036918Y-75439088D01*
X270084537Y-75534326D01*
X270070320Y-75537176D01*
X270065420Y-75537176D01*
X270060825Y-75539079D01*
X270046095Y-75542032D01*
X270020335Y-75555850D01*
X269993324Y-75567039D01*
X269986201Y-75574161D01*
X269977329Y-75578921D01*
X269958818Y-75601544D01*
X269938144Y-75622219D01*
X269934290Y-75631522D01*
X269927913Y-75639317D01*
X269919468Y-75667306D01*
X269908281Y-75694315D01*
X269906808Y-75709266D01*
X269905372Y-75714027D01*
X269905859Y-75718901D01*
X269904438Y-75733333D01*
X269682216Y-75733333D01*
X269682216Y-72114494D01*
X269904438Y-72114494D01*
X269919742Y-72191015D01*
X269963165Y-72255854D01*
X269993498Y-72280695D01*
X270743882Y-72780951D01*
X269993498Y-73281208D01*
X269963165Y-73306049D01*
X269919742Y-73370888D01*
X269904438Y-73447409D01*
X269919582Y-73523961D01*
X269962869Y-73588891D01*
X270027708Y-73632314D01*
X270104229Y-73647618D01*
X270180781Y-73632474D01*
X270215378Y-73614028D01*
X271104438Y-73021321D01*
X271993498Y-73614028D01*
X272028095Y-73632474D01*
X272104647Y-73647618D01*
X272181168Y-73632314D01*
X272246007Y-73588891D01*
X272289294Y-73523962D01*
X272304438Y-73447409D01*
X272289134Y-73370888D01*
X272245712Y-73306049D01*
X272215378Y-73281208D01*
X271464993Y-72780951D01*
X272215378Y-72280695D01*
X272245712Y-72255854D01*
X272289134Y-72191015D01*
X272304438Y-72114494D01*
X272289294Y-72037941D01*
X272246007Y-71973012D01*
X272181168Y-71929589D01*
X272104647Y-71914285D01*
X272028095Y-71929429D01*
X271993498Y-71947875D01*
X271104438Y-72540581D01*
X270215378Y-71947875D01*
X270180781Y-71929429D01*
X270104229Y-71914285D01*
X270027708Y-71929589D01*
X269962869Y-71973012D01*
X269919582Y-72037942D01*
X269904438Y-72114494D01*
X269682216Y-72114494D01*
X269682216Y-70170505D01*
X269908281Y-70170505D01*
X269908281Y-70248541D01*
X269938144Y-70320637D01*
X269993324Y-70375817D01*
X270065420Y-70405680D01*
X270104438Y-70409523D01*
X271676272Y-70409523D01*
X271795489Y-70469132D01*
X271844829Y-70518470D01*
X271904438Y-70637688D01*
X271904438Y-70924215D01*
X271844829Y-71043432D01*
X271795489Y-71092770D01*
X271676272Y-71152380D01*
X270104438Y-71152380D01*
X270065420Y-71156223D01*
X269993324Y-71186086D01*
X269938144Y-71241266D01*
X269908281Y-71313362D01*
X269908281Y-71391398D01*
X269938144Y-71463494D01*
X269993324Y-71518674D01*
X270065420Y-71548537D01*
X270104438Y-71552380D01*
X271723485Y-71552380D01*
X271762503Y-71548537D01*
X271769140Y-71545787D01*
X271776310Y-71545278D01*
X271812928Y-71531265D01*
X272003404Y-71436027D01*
X272020197Y-71425455D01*
X272025074Y-71423436D01*
X272030565Y-71418929D01*
X272036584Y-71415141D01*
X272040045Y-71411149D01*
X272055382Y-71398564D01*
X272150621Y-71303326D01*
X272163210Y-71287986D01*
X272167199Y-71284527D01*
X272170983Y-71278515D01*
X272175494Y-71273019D01*
X272177516Y-71268136D01*
X272188085Y-71251347D01*
X272283324Y-71060870D01*
X272297336Y-71024253D01*
X272297845Y-71017083D01*
X272300595Y-71010446D01*
X272304438Y-70971428D01*
X272304438Y-70590475D01*
X272300595Y-70551457D01*
X272297845Y-70544819D01*
X272297336Y-70537650D01*
X272283324Y-70501033D01*
X272188085Y-70310556D01*
X272177516Y-70293766D01*
X272175494Y-70288884D01*
X272170983Y-70283387D01*
X272167199Y-70277376D01*
X272163210Y-70273916D01*
X272150621Y-70258577D01*
X272055382Y-70163339D01*
X272040045Y-70150753D01*
X272036584Y-70146762D01*
X272030565Y-70142973D01*
X272025074Y-70138467D01*
X272020197Y-70136447D01*
X272003404Y-70125876D01*
X271812928Y-70030638D01*
X271776310Y-70016625D01*
X271769140Y-70016115D01*
X271762503Y-70013366D01*
X271723485Y-70009523D01*
X270104438Y-70009523D01*
X270065420Y-70013366D01*
X269993324Y-70043229D01*
X269938144Y-70098409D01*
X269908281Y-70170505D01*
X269682216Y-70170505D01*
X269682216Y-68851174D01*
X269906009Y-68851174D01*
X269907786Y-68876189D01*
X269906009Y-68901204D01*
X269910527Y-68914758D01*
X269911540Y-68929014D01*
X269922757Y-68951448D01*
X269930686Y-68975235D01*
X269940047Y-68986029D01*
X269946439Y-68998812D01*
X269965384Y-69015242D01*
X269981815Y-69034188D01*
X269994597Y-69040579D01*
X270005392Y-69049941D01*
X270041192Y-69065926D01*
X272041192Y-69732593D01*
X272079423Y-69741285D01*
X272157263Y-69735754D01*
X272227061Y-69700855D01*
X272278190Y-69641902D01*
X272302867Y-69567871D01*
X272297335Y-69490031D01*
X272262437Y-69420233D01*
X272203484Y-69369104D01*
X272167683Y-69353119D01*
X271733009Y-69208227D01*
X271733009Y-68544151D01*
X272167684Y-68399260D01*
X272203484Y-68383275D01*
X272262437Y-68332146D01*
X272297336Y-68262348D01*
X272302868Y-68184508D01*
X272278190Y-68110477D01*
X272227061Y-68051524D01*
X272157263Y-68016625D01*
X272079424Y-68011094D01*
X272041193Y-68019786D01*
X270041193Y-68686452D01*
X270005392Y-68702437D01*
X269994597Y-68711798D01*
X269981815Y-68718190D01*
X269965384Y-68737135D01*
X269946439Y-68753566D01*
X269940047Y-68766348D01*
X269930686Y-68777143D01*
X269922757Y-68800930D01*
X269911540Y-68823364D01*
X269910527Y-68837619D01*
X269906009Y-68851174D01*
X269682216Y-68851174D01*
X269682216Y-67788872D01*
X272526660Y-67788872D01*
X272526660Y-80822222D01*
G37*
G36*
X271453678Y-107093465D02*
G01*
X271595489Y-107164371D01*
X271644829Y-107213709D01*
X271704438Y-107332927D01*
X271704438Y-107428978D01*
X271644829Y-107548195D01*
X271595489Y-107597533D01*
X271453678Y-107668439D01*
X271117910Y-107752381D01*
X270690965Y-107752381D01*
X270355193Y-107668438D01*
X270213385Y-107597534D01*
X270164047Y-107548196D01*
X270104438Y-107428977D01*
X270104438Y-107332927D01*
X270164047Y-107213708D01*
X270213385Y-107164371D01*
X270355193Y-107093467D01*
X270690965Y-107009524D01*
X271117910Y-107009524D01*
X271453678Y-107093465D01*
G37*
G36*
X271133009Y-94722513D02*
G01*
X270536894Y-94523808D01*
X271133009Y-94325103D01*
X271133009Y-94722513D01*
G37*
G36*
X272326660Y-108374603D02*
G01*
X269482216Y-108374603D01*
X269482216Y-107285714D01*
X269704438Y-107285714D01*
X269704438Y-107476191D01*
X269708281Y-107515209D01*
X269711030Y-107521846D01*
X269711540Y-107529016D01*
X269725553Y-107565634D01*
X269820791Y-107756110D01*
X269831360Y-107772901D01*
X269833382Y-107777781D01*
X269837889Y-107783273D01*
X269841677Y-107789290D01*
X269845668Y-107792752D01*
X269858255Y-107808088D01*
X269953493Y-107903326D01*
X269968829Y-107915912D01*
X269972291Y-107919904D01*
X269978307Y-107923691D01*
X269983800Y-107928199D01*
X269988679Y-107930220D01*
X270005471Y-107940790D01*
X270195948Y-108036029D01*
X270198803Y-108037121D01*
X270199962Y-108037980D01*
X270216325Y-108043826D01*
X270232565Y-108050041D01*
X270234003Y-108050143D01*
X270236883Y-108051172D01*
X270617835Y-108146409D01*
X270624598Y-108147409D01*
X270627324Y-108148538D01*
X270642026Y-108149986D01*
X270656620Y-108152144D01*
X270659533Y-108151710D01*
X270666342Y-108152381D01*
X271142533Y-108152381D01*
X271149341Y-108151710D01*
X271152255Y-108152144D01*
X271166856Y-108149985D01*
X271181551Y-108148538D01*
X271184273Y-108147410D01*
X271191040Y-108146410D01*
X271571992Y-108051172D01*
X271574871Y-108050143D01*
X271576310Y-108050041D01*
X271592538Y-108043830D01*
X271608913Y-108037980D01*
X271610072Y-108037120D01*
X271612928Y-108036028D01*
X271803404Y-107940790D01*
X271820197Y-107930218D01*
X271825074Y-107928199D01*
X271830565Y-107923692D01*
X271836584Y-107919904D01*
X271840045Y-107915912D01*
X271855382Y-107903327D01*
X271950621Y-107808089D01*
X271963210Y-107792749D01*
X271967199Y-107789290D01*
X271970983Y-107783278D01*
X271975494Y-107777782D01*
X271977516Y-107772899D01*
X271988085Y-107756110D01*
X272083324Y-107565633D01*
X272097336Y-107529016D01*
X272097845Y-107521846D01*
X272100595Y-107515209D01*
X272104438Y-107476191D01*
X272104438Y-107285714D01*
X272100595Y-107246696D01*
X272097845Y-107240058D01*
X272097336Y-107232889D01*
X272083324Y-107196272D01*
X271988085Y-107005795D01*
X271977516Y-106989005D01*
X271975494Y-106984123D01*
X271970983Y-106978626D01*
X271967199Y-106972615D01*
X271963210Y-106969155D01*
X271950621Y-106953816D01*
X271855382Y-106858578D01*
X271840045Y-106845992D01*
X271836584Y-106842001D01*
X271830565Y-106838212D01*
X271825074Y-106833706D01*
X271820197Y-106831686D01*
X271803404Y-106821115D01*
X271612928Y-106725877D01*
X271610072Y-106724784D01*
X271608913Y-106723925D01*
X271592538Y-106718074D01*
X271576310Y-106711864D01*
X271574871Y-106711761D01*
X271571992Y-106710733D01*
X271191040Y-106615495D01*
X271184273Y-106614494D01*
X271181551Y-106613367D01*
X271166856Y-106611919D01*
X271152255Y-106609761D01*
X271149341Y-106610194D01*
X271142533Y-106609524D01*
X270666342Y-106609524D01*
X270659533Y-106610194D01*
X270656620Y-106609761D01*
X270642026Y-106611918D01*
X270627324Y-106613367D01*
X270624598Y-106614495D01*
X270617835Y-106615496D01*
X270236883Y-106710733D01*
X270234003Y-106711761D01*
X270232565Y-106711864D01*
X270216325Y-106718078D01*
X270199962Y-106723925D01*
X270198803Y-106724783D01*
X270195948Y-106725876D01*
X270005471Y-106821115D01*
X269988679Y-106831684D01*
X269983800Y-106833706D01*
X269978307Y-106838213D01*
X269972291Y-106842001D01*
X269968829Y-106845992D01*
X269953493Y-106858579D01*
X269858255Y-106953817D01*
X269845668Y-106969152D01*
X269841677Y-106972615D01*
X269837889Y-106978631D01*
X269833382Y-106984124D01*
X269831360Y-106989003D01*
X269820791Y-107005795D01*
X269725553Y-107196271D01*
X269711540Y-107232889D01*
X269711030Y-107240058D01*
X269708281Y-107246696D01*
X269704438Y-107285714D01*
X269482216Y-107285714D01*
X269482216Y-104879747D01*
X269706009Y-104879747D01*
X269711540Y-104957587D01*
X269746439Y-105027385D01*
X269805392Y-105078514D01*
X269841193Y-105094499D01*
X271271981Y-105571427D01*
X269841192Y-106048358D01*
X269805392Y-106064343D01*
X269746439Y-106115472D01*
X269711540Y-106185270D01*
X269706009Y-106263110D01*
X269730686Y-106337141D01*
X269781815Y-106396094D01*
X269851613Y-106430993D01*
X269929453Y-106436524D01*
X269967684Y-106427832D01*
X271967683Y-105761165D01*
X272003484Y-105745180D01*
X272014278Y-105735818D01*
X272027061Y-105729427D01*
X272043491Y-105710481D01*
X272062437Y-105694051D01*
X272068828Y-105681268D01*
X272078190Y-105670474D01*
X272086121Y-105646680D01*
X272097335Y-105624253D01*
X272098347Y-105610003D01*
X272102868Y-105596443D01*
X272101089Y-105571420D01*
X272102867Y-105546413D01*
X272098349Y-105532859D01*
X272097336Y-105518603D01*
X272086119Y-105496169D01*
X272078190Y-105472382D01*
X272068828Y-105461587D01*
X272062437Y-105448805D01*
X272043491Y-105432374D01*
X272027061Y-105413429D01*
X272014278Y-105407037D01*
X272003484Y-105397676D01*
X271967684Y-105381691D01*
X269967683Y-104715025D01*
X269929453Y-104706333D01*
X269851613Y-104711864D01*
X269781815Y-104746763D01*
X269730686Y-104805716D01*
X269706009Y-104879747D01*
X269482216Y-104879747D01*
X269482216Y-103476190D01*
X269704438Y-103476190D01*
X269704438Y-103952381D01*
X269708281Y-103991399D01*
X269711030Y-103998036D01*
X269711540Y-104005206D01*
X269725553Y-104041824D01*
X269820791Y-104232300D01*
X269831360Y-104249091D01*
X269833382Y-104253971D01*
X269837889Y-104259463D01*
X269841677Y-104265480D01*
X269845668Y-104268942D01*
X269858255Y-104284278D01*
X269953493Y-104379516D01*
X269968829Y-104392102D01*
X269972291Y-104396094D01*
X269978307Y-104399881D01*
X269983800Y-104404389D01*
X269988679Y-104406410D01*
X270005471Y-104416980D01*
X270195948Y-104512219D01*
X270232565Y-104526231D01*
X270239734Y-104526740D01*
X270246372Y-104529490D01*
X270285390Y-104533333D01*
X270475866Y-104533333D01*
X270495615Y-104531387D01*
X270500881Y-104531762D01*
X270507809Y-104530186D01*
X270514884Y-104529490D01*
X270519762Y-104527469D01*
X270539112Y-104523070D01*
X270824826Y-104427832D01*
X270860626Y-104411847D01*
X270866054Y-104407139D01*
X270872694Y-104404389D01*
X270903001Y-104379516D01*
X271704438Y-103578080D01*
X271704438Y-104333333D01*
X271708281Y-104372351D01*
X271738144Y-104444447D01*
X271793324Y-104499627D01*
X271865420Y-104529490D01*
X271943456Y-104529490D01*
X272015552Y-104499627D01*
X272070732Y-104444447D01*
X272100595Y-104372351D01*
X272104438Y-104333333D01*
X272104438Y-103095238D01*
X272100595Y-103056220D01*
X272070732Y-102984124D01*
X272015552Y-102928944D01*
X271943457Y-102899081D01*
X271865420Y-102899081D01*
X271793324Y-102928944D01*
X271763017Y-102953816D01*
X270653545Y-104063287D01*
X270443409Y-104133333D01*
X270332603Y-104133333D01*
X270213385Y-104073724D01*
X270164047Y-104024386D01*
X270104438Y-103905167D01*
X270104438Y-103523403D01*
X270164047Y-103404184D01*
X270236335Y-103331897D01*
X270261208Y-103301590D01*
X270291071Y-103229494D01*
X270291071Y-103151458D01*
X270261208Y-103079362D01*
X270206028Y-103024182D01*
X270133932Y-102994319D01*
X270055896Y-102994319D01*
X269983800Y-103024182D01*
X269953493Y-103049055D01*
X269858255Y-103144293D01*
X269845668Y-103159628D01*
X269841677Y-103163091D01*
X269837889Y-103169107D01*
X269833382Y-103174600D01*
X269831360Y-103179479D01*
X269820791Y-103196271D01*
X269725553Y-103386747D01*
X269711540Y-103423365D01*
X269711030Y-103430534D01*
X269708281Y-103437172D01*
X269704438Y-103476190D01*
X269482216Y-103476190D01*
X269482216Y-101856933D01*
X269704438Y-101856933D01*
X269708281Y-101876359D01*
X269708281Y-101896160D01*
X269715779Y-101914262D01*
X269719582Y-101933485D01*
X269730565Y-101949960D01*
X269738144Y-101968256D01*
X269752000Y-101982112D01*
X269762869Y-101998415D01*
X269779320Y-102009432D01*
X269793324Y-102023436D01*
X269811426Y-102030934D01*
X269827708Y-102041838D01*
X269847126Y-102045721D01*
X269865420Y-102053299D01*
X269904026Y-102057101D01*
X269904229Y-102057142D01*
X269904298Y-102057128D01*
X269904438Y-102057142D01*
X271704438Y-102057142D01*
X271704438Y-102428571D01*
X271708281Y-102467589D01*
X271738144Y-102539685D01*
X271793324Y-102594865D01*
X271865420Y-102624728D01*
X271943456Y-102624728D01*
X272015552Y-102594865D01*
X272070732Y-102539685D01*
X272100595Y-102467589D01*
X272104438Y-102428571D01*
X272104438Y-101285714D01*
X272100595Y-101246696D01*
X272070732Y-101174600D01*
X272015552Y-101119420D01*
X271943456Y-101089557D01*
X271865420Y-101089557D01*
X271793324Y-101119420D01*
X271738144Y-101174600D01*
X271708281Y-101246696D01*
X271704438Y-101285714D01*
X271704438Y-101657142D01*
X270482519Y-101657142D01*
X270522050Y-101617611D01*
X270534637Y-101602273D01*
X270538627Y-101598813D01*
X270542413Y-101592797D01*
X270546922Y-101587304D01*
X270548943Y-101582424D01*
X270559513Y-101565633D01*
X270654752Y-101375156D01*
X270668764Y-101338539D01*
X270674296Y-101260699D01*
X270649618Y-101186667D01*
X270598489Y-101127715D01*
X270528691Y-101092816D01*
X270450852Y-101087284D01*
X270376820Y-101111961D01*
X270317867Y-101163091D01*
X270296981Y-101196271D01*
X270216257Y-101357717D01*
X270062735Y-101511240D01*
X269793498Y-101690732D01*
X269793389Y-101690820D01*
X269793324Y-101690848D01*
X269793177Y-101690994D01*
X269763165Y-101715573D01*
X269752147Y-101732024D01*
X269738144Y-101746028D01*
X269730645Y-101764130D01*
X269719742Y-101780412D01*
X269715858Y-101799830D01*
X269708281Y-101818124D01*
X269708281Y-101837717D01*
X269704438Y-101856933D01*
X269482216Y-101856933D01*
X269482216Y-97762113D01*
X269704438Y-97762113D01*
X269719742Y-97838634D01*
X269763165Y-97903473D01*
X269793498Y-97928314D01*
X270543882Y-98428570D01*
X269793498Y-98928827D01*
X269763165Y-98953668D01*
X269719742Y-99018507D01*
X269704438Y-99095028D01*
X269719582Y-99171580D01*
X269762869Y-99236510D01*
X269827708Y-99279933D01*
X269904229Y-99295237D01*
X269980781Y-99280093D01*
X270015378Y-99261647D01*
X270904438Y-98668940D01*
X271793498Y-99261647D01*
X271828095Y-99280093D01*
X271904647Y-99295237D01*
X271981168Y-99279933D01*
X272046007Y-99236510D01*
X272089294Y-99171581D01*
X272104438Y-99095028D01*
X272089134Y-99018507D01*
X272045712Y-98953668D01*
X272015378Y-98928827D01*
X271264993Y-98428570D01*
X272015378Y-97928314D01*
X272045712Y-97903473D01*
X272089134Y-97838634D01*
X272104438Y-97762113D01*
X272089294Y-97685560D01*
X272046007Y-97620631D01*
X271981168Y-97577208D01*
X271904647Y-97561904D01*
X271828095Y-97577048D01*
X271793498Y-97595494D01*
X270904438Y-98188200D01*
X270015378Y-97595494D01*
X269980781Y-97577048D01*
X269904229Y-97561904D01*
X269827708Y-97577208D01*
X269762869Y-97620631D01*
X269719582Y-97685561D01*
X269704438Y-97762113D01*
X269482216Y-97762113D01*
X269482216Y-95818124D01*
X269708281Y-95818124D01*
X269708281Y-95896160D01*
X269738144Y-95968256D01*
X269793324Y-96023436D01*
X269865420Y-96053299D01*
X269904438Y-96057142D01*
X271476272Y-96057142D01*
X271595489Y-96116751D01*
X271644829Y-96166089D01*
X271704438Y-96285307D01*
X271704438Y-96571834D01*
X271644829Y-96691051D01*
X271595489Y-96740389D01*
X271476272Y-96799999D01*
X269904438Y-96799999D01*
X269865420Y-96803842D01*
X269793324Y-96833705D01*
X269738144Y-96888885D01*
X269708281Y-96960981D01*
X269708281Y-97039017D01*
X269738144Y-97111113D01*
X269793324Y-97166293D01*
X269865420Y-97196156D01*
X269904438Y-97199999D01*
X271523485Y-97199999D01*
X271562503Y-97196156D01*
X271569140Y-97193406D01*
X271576310Y-97192897D01*
X271612928Y-97178884D01*
X271803404Y-97083646D01*
X271820197Y-97073074D01*
X271825074Y-97071055D01*
X271830565Y-97066548D01*
X271836584Y-97062760D01*
X271840045Y-97058768D01*
X271855382Y-97046183D01*
X271950621Y-96950945D01*
X271963210Y-96935605D01*
X271967199Y-96932146D01*
X271970983Y-96926134D01*
X271975494Y-96920638D01*
X271977516Y-96915755D01*
X271988085Y-96898966D01*
X272083324Y-96708489D01*
X272097336Y-96671872D01*
X272097845Y-96664702D01*
X272100595Y-96658065D01*
X272104438Y-96619047D01*
X272104438Y-96238094D01*
X272100595Y-96199076D01*
X272097845Y-96192438D01*
X272097336Y-96185269D01*
X272083324Y-96148652D01*
X271988085Y-95958175D01*
X271977516Y-95941385D01*
X271975494Y-95936503D01*
X271970983Y-95931006D01*
X271967199Y-95924995D01*
X271963210Y-95921535D01*
X271950621Y-95906196D01*
X271855382Y-95810958D01*
X271840045Y-95798372D01*
X271836584Y-95794381D01*
X271830565Y-95790592D01*
X271825074Y-95786086D01*
X271820197Y-95784066D01*
X271803404Y-95773495D01*
X271612928Y-95678257D01*
X271576310Y-95664244D01*
X271569140Y-95663734D01*
X271562503Y-95660985D01*
X271523485Y-95657142D01*
X269904438Y-95657142D01*
X269865420Y-95660985D01*
X269793324Y-95690848D01*
X269738144Y-95746028D01*
X269708281Y-95818124D01*
X269482216Y-95818124D01*
X269482216Y-94498793D01*
X269706009Y-94498793D01*
X269707786Y-94523808D01*
X269706009Y-94548823D01*
X269710527Y-94562377D01*
X269711540Y-94576633D01*
X269722757Y-94599067D01*
X269730686Y-94622854D01*
X269740047Y-94633648D01*
X269746439Y-94646431D01*
X269765384Y-94662861D01*
X269781815Y-94681807D01*
X269794597Y-94688198D01*
X269805392Y-94697560D01*
X269841192Y-94713545D01*
X271841192Y-95380212D01*
X271879423Y-95388904D01*
X271957263Y-95383373D01*
X272027061Y-95348474D01*
X272078190Y-95289521D01*
X272102867Y-95215490D01*
X272097335Y-95137650D01*
X272062437Y-95067852D01*
X272003484Y-95016723D01*
X271967683Y-95000738D01*
X271533009Y-94855846D01*
X271533009Y-94191770D01*
X271967684Y-94046879D01*
X272003484Y-94030894D01*
X272062437Y-93979765D01*
X272097336Y-93909967D01*
X272102868Y-93832127D01*
X272078190Y-93758096D01*
X272027061Y-93699143D01*
X271957263Y-93664244D01*
X271879424Y-93658713D01*
X271841193Y-93667405D01*
X269841193Y-94334071D01*
X269805392Y-94350056D01*
X269794597Y-94359417D01*
X269781815Y-94365809D01*
X269765384Y-94384754D01*
X269746439Y-94401185D01*
X269740047Y-94413967D01*
X269730686Y-94424762D01*
X269722757Y-94448549D01*
X269711540Y-94470983D01*
X269710527Y-94485238D01*
X269706009Y-94498793D01*
X269482216Y-94498793D01*
X269482216Y-93436491D01*
X272326660Y-93436491D01*
X272326660Y-108374603D01*
G37*
D13*
X199738095Y-44528409D02*
X199595238Y-44576028D01*
X199595238Y-44576028D02*
X199547619Y-44623647D01*
X199547619Y-44623647D02*
X199500000Y-44718885D01*
X199500000Y-44718885D02*
X199500000Y-44861742D01*
X199500000Y-44861742D02*
X199547619Y-44956980D01*
X199547619Y-44956980D02*
X199595238Y-45004600D01*
X199595238Y-45004600D02*
X199690476Y-45052219D01*
X199690476Y-45052219D02*
X200071428Y-45052219D01*
X200071428Y-45052219D02*
X200071428Y-44052219D01*
X200071428Y-44052219D02*
X199738095Y-44052219D01*
X199738095Y-44052219D02*
X199642857Y-44099838D01*
X199642857Y-44099838D02*
X199595238Y-44147457D01*
X199595238Y-44147457D02*
X199547619Y-44242695D01*
X199547619Y-44242695D02*
X199547619Y-44337933D01*
X199547619Y-44337933D02*
X199595238Y-44433171D01*
X199595238Y-44433171D02*
X199642857Y-44480790D01*
X199642857Y-44480790D02*
X199738095Y-44528409D01*
X199738095Y-44528409D02*
X200071428Y-44528409D01*
X199119047Y-44766504D02*
X198642857Y-44766504D01*
X199214285Y-45052219D02*
X198880952Y-44052219D01*
X198880952Y-44052219D02*
X198547619Y-45052219D01*
X198357142Y-44052219D02*
X197785714Y-44052219D01*
X198071428Y-45052219D02*
X198071428Y-44052219D01*
X235100161Y-48761904D02*
X235147780Y-48857142D01*
X235147780Y-48857142D02*
X235147780Y-48999999D01*
X235147780Y-48999999D02*
X235100161Y-49142856D01*
X235100161Y-49142856D02*
X235004923Y-49238094D01*
X235004923Y-49238094D02*
X234909685Y-49285713D01*
X234909685Y-49285713D02*
X234719209Y-49333332D01*
X234719209Y-49333332D02*
X234576352Y-49333332D01*
X234576352Y-49333332D02*
X234385876Y-49285713D01*
X234385876Y-49285713D02*
X234290638Y-49238094D01*
X234290638Y-49238094D02*
X234195400Y-49142856D01*
X234195400Y-49142856D02*
X234147780Y-48999999D01*
X234147780Y-48999999D02*
X234147780Y-48904761D01*
X234147780Y-48904761D02*
X234195400Y-48761904D01*
X234195400Y-48761904D02*
X234243019Y-48714285D01*
X234243019Y-48714285D02*
X234576352Y-48714285D01*
X234576352Y-48714285D02*
X234576352Y-48904761D01*
X234147780Y-48285713D02*
X235147780Y-48285713D01*
X235147780Y-48285713D02*
X234147780Y-47714285D01*
X234147780Y-47714285D02*
X235147780Y-47714285D01*
X234147780Y-47238094D02*
X235147780Y-47238094D01*
X235147780Y-47238094D02*
X235147780Y-46999999D01*
X235147780Y-46999999D02*
X235100161Y-46857142D01*
X235100161Y-46857142D02*
X235004923Y-46761904D01*
X235004923Y-46761904D02*
X234909685Y-46714285D01*
X234909685Y-46714285D02*
X234719209Y-46666666D01*
X234719209Y-46666666D02*
X234576352Y-46666666D01*
X234576352Y-46666666D02*
X234385876Y-46714285D01*
X234385876Y-46714285D02*
X234290638Y-46761904D01*
X234290638Y-46761904D02*
X234195400Y-46857142D01*
X234195400Y-46857142D02*
X234147780Y-46999999D01*
X234147780Y-46999999D02*
X234147780Y-47238094D01*
D10*
X280177506Y-47059875D02*
X280177506Y-47774160D01*
X280177506Y-47774160D02*
X280225125Y-47917017D01*
X280225125Y-47917017D02*
X280320363Y-48012256D01*
X280320363Y-48012256D02*
X280463220Y-48059875D01*
X280463220Y-48059875D02*
X280558458Y-48059875D01*
X279225125Y-48059875D02*
X279701315Y-48059875D01*
X279701315Y-48059875D02*
X279701315Y-47059875D01*
X278320363Y-47964636D02*
X278367982Y-48012256D01*
X278367982Y-48012256D02*
X278510839Y-48059875D01*
X278510839Y-48059875D02*
X278606077Y-48059875D01*
X278606077Y-48059875D02*
X278748934Y-48012256D01*
X278748934Y-48012256D02*
X278844172Y-47917017D01*
X278844172Y-47917017D02*
X278891791Y-47821779D01*
X278891791Y-47821779D02*
X278939410Y-47631303D01*
X278939410Y-47631303D02*
X278939410Y-47488446D01*
X278939410Y-47488446D02*
X278891791Y-47297970D01*
X278891791Y-47297970D02*
X278844172Y-47202732D01*
X278844172Y-47202732D02*
X278748934Y-47107494D01*
X278748934Y-47107494D02*
X278606077Y-47059875D01*
X278606077Y-47059875D02*
X278510839Y-47059875D01*
X278510839Y-47059875D02*
X278367982Y-47107494D01*
X278367982Y-47107494D02*
X278320363Y-47155113D01*
X277701315Y-47059875D02*
X277606077Y-47059875D01*
X277606077Y-47059875D02*
X277510839Y-47107494D01*
X277510839Y-47107494D02*
X277463220Y-47155113D01*
X277463220Y-47155113D02*
X277415601Y-47250351D01*
X277415601Y-47250351D02*
X277367982Y-47440827D01*
X277367982Y-47440827D02*
X277367982Y-47678922D01*
X277367982Y-47678922D02*
X277415601Y-47869398D01*
X277415601Y-47869398D02*
X277463220Y-47964636D01*
X277463220Y-47964636D02*
X277510839Y-48012256D01*
X277510839Y-48012256D02*
X277606077Y-48059875D01*
X277606077Y-48059875D02*
X277701315Y-48059875D01*
X277701315Y-48059875D02*
X277796553Y-48012256D01*
X277796553Y-48012256D02*
X277844172Y-47964636D01*
X277844172Y-47964636D02*
X277891791Y-47869398D01*
X277891791Y-47869398D02*
X277939410Y-47678922D01*
X277939410Y-47678922D02*
X277939410Y-47440827D01*
X277939410Y-47440827D02*
X277891791Y-47250351D01*
X277891791Y-47250351D02*
X277844172Y-47155113D01*
X277844172Y-47155113D02*
X277796553Y-47107494D01*
X277796553Y-47107494D02*
X277701315Y-47059875D01*
X276510839Y-47393208D02*
X276510839Y-48059875D01*
X276748934Y-47012256D02*
X276987029Y-47726541D01*
X276987029Y-47726541D02*
X276367982Y-47726541D01*
X275463220Y-48059875D02*
X276034648Y-48059875D01*
X275748934Y-48059875D02*
X275748934Y-47059875D01*
X275748934Y-47059875D02*
X275844172Y-47202732D01*
X275844172Y-47202732D02*
X275939410Y-47297970D01*
X275939410Y-47297970D02*
X276034648Y-47345589D01*
X274606077Y-47059875D02*
X274796553Y-47059875D01*
X274796553Y-47059875D02*
X274891791Y-47107494D01*
X274891791Y-47107494D02*
X274939410Y-47155113D01*
X274939410Y-47155113D02*
X275034648Y-47297970D01*
X275034648Y-47297970D02*
X275082267Y-47488446D01*
X275082267Y-47488446D02*
X275082267Y-47869398D01*
X275082267Y-47869398D02*
X275034648Y-47964636D01*
X275034648Y-47964636D02*
X274987029Y-48012256D01*
X274987029Y-48012256D02*
X274891791Y-48059875D01*
X274891791Y-48059875D02*
X274701315Y-48059875D01*
X274701315Y-48059875D02*
X274606077Y-48012256D01*
X274606077Y-48012256D02*
X274558458Y-47964636D01*
X274558458Y-47964636D02*
X274510839Y-47869398D01*
X274510839Y-47869398D02*
X274510839Y-47631303D01*
X274510839Y-47631303D02*
X274558458Y-47536065D01*
X274558458Y-47536065D02*
X274606077Y-47488446D01*
X274606077Y-47488446D02*
X274701315Y-47440827D01*
X274701315Y-47440827D02*
X274891791Y-47440827D01*
X274891791Y-47440827D02*
X274987029Y-47488446D01*
X274987029Y-47488446D02*
X275034648Y-47536065D01*
X275034648Y-47536065D02*
X275082267Y-47631303D01*
X273558458Y-48059875D02*
X274129886Y-48059875D01*
X273844172Y-48059875D02*
X273844172Y-47059875D01*
X273844172Y-47059875D02*
X273939410Y-47202732D01*
X273939410Y-47202732D02*
X274034648Y-47297970D01*
X274034648Y-47297970D02*
X274129886Y-47345589D01*
X273129886Y-48059875D02*
X273129886Y-47059875D01*
X273129886Y-47536065D02*
X272558458Y-47536065D01*
X272558458Y-48059875D02*
X272558458Y-47059875D01*
X272082267Y-47678922D02*
X271320363Y-47678922D01*
X270939410Y-47059875D02*
X270272744Y-47059875D01*
X270272744Y-47059875D02*
X270701315Y-48059875D01*
X269463220Y-47059875D02*
X269653696Y-47059875D01*
X269653696Y-47059875D02*
X269748934Y-47107494D01*
X269748934Y-47107494D02*
X269796553Y-47155113D01*
X269796553Y-47155113D02*
X269891791Y-47297970D01*
X269891791Y-47297970D02*
X269939410Y-47488446D01*
X269939410Y-47488446D02*
X269939410Y-47869398D01*
X269939410Y-47869398D02*
X269891791Y-47964636D01*
X269891791Y-47964636D02*
X269844172Y-48012256D01*
X269844172Y-48012256D02*
X269748934Y-48059875D01*
X269748934Y-48059875D02*
X269558458Y-48059875D01*
X269558458Y-48059875D02*
X269463220Y-48012256D01*
X269463220Y-48012256D02*
X269415601Y-47964636D01*
X269415601Y-47964636D02*
X269367982Y-47869398D01*
X269367982Y-47869398D02*
X269367982Y-47631303D01*
X269367982Y-47631303D02*
X269415601Y-47536065D01*
X269415601Y-47536065D02*
X269463220Y-47488446D01*
X269463220Y-47488446D02*
X269558458Y-47440827D01*
X269558458Y-47440827D02*
X269748934Y-47440827D01*
X269748934Y-47440827D02*
X269844172Y-47488446D01*
X269844172Y-47488446D02*
X269891791Y-47536065D01*
X269891791Y-47536065D02*
X269939410Y-47631303D01*
X268987029Y-47155113D02*
X268939410Y-47107494D01*
X268939410Y-47107494D02*
X268844172Y-47059875D01*
X268844172Y-47059875D02*
X268606077Y-47059875D01*
X268606077Y-47059875D02*
X268510839Y-47107494D01*
X268510839Y-47107494D02*
X268463220Y-47155113D01*
X268463220Y-47155113D02*
X268415601Y-47250351D01*
X268415601Y-47250351D02*
X268415601Y-47345589D01*
X268415601Y-47345589D02*
X268463220Y-47488446D01*
X268463220Y-47488446D02*
X269034648Y-48059875D01*
X269034648Y-48059875D02*
X268415601Y-48059875D01*
X267844172Y-47488446D02*
X267939410Y-47440827D01*
X267939410Y-47440827D02*
X267987029Y-47393208D01*
X267987029Y-47393208D02*
X268034648Y-47297970D01*
X268034648Y-47297970D02*
X268034648Y-47250351D01*
X268034648Y-47250351D02*
X267987029Y-47155113D01*
X267987029Y-47155113D02*
X267939410Y-47107494D01*
X267939410Y-47107494D02*
X267844172Y-47059875D01*
X267844172Y-47059875D02*
X267653696Y-47059875D01*
X267653696Y-47059875D02*
X267558458Y-47107494D01*
X267558458Y-47107494D02*
X267510839Y-47155113D01*
X267510839Y-47155113D02*
X267463220Y-47250351D01*
X267463220Y-47250351D02*
X267463220Y-47297970D01*
X267463220Y-47297970D02*
X267510839Y-47393208D01*
X267510839Y-47393208D02*
X267558458Y-47440827D01*
X267558458Y-47440827D02*
X267653696Y-47488446D01*
X267653696Y-47488446D02*
X267844172Y-47488446D01*
X267844172Y-47488446D02*
X267939410Y-47536065D01*
X267939410Y-47536065D02*
X267987029Y-47583684D01*
X267987029Y-47583684D02*
X268034648Y-47678922D01*
X268034648Y-47678922D02*
X268034648Y-47869398D01*
X268034648Y-47869398D02*
X267987029Y-47964636D01*
X267987029Y-47964636D02*
X267939410Y-48012256D01*
X267939410Y-48012256D02*
X267844172Y-48059875D01*
X267844172Y-48059875D02*
X267653696Y-48059875D01*
X267653696Y-48059875D02*
X267558458Y-48012256D01*
X267558458Y-48012256D02*
X267510839Y-47964636D01*
X267510839Y-47964636D02*
X267463220Y-47869398D01*
X267463220Y-47869398D02*
X267463220Y-47678922D01*
X267463220Y-47678922D02*
X267510839Y-47583684D01*
X267510839Y-47583684D02*
X267558458Y-47536065D01*
X267558458Y-47536065D02*
X267653696Y-47488446D01*
X266129886Y-48059875D02*
X266225124Y-48012256D01*
X266225124Y-48012256D02*
X266272743Y-47964636D01*
X266272743Y-47964636D02*
X266320362Y-47869398D01*
X266320362Y-47869398D02*
X266320362Y-47583684D01*
X266320362Y-47583684D02*
X266272743Y-47488446D01*
X266272743Y-47488446D02*
X266225124Y-47440827D01*
X266225124Y-47440827D02*
X266129886Y-47393208D01*
X266129886Y-47393208D02*
X265987029Y-47393208D01*
X265987029Y-47393208D02*
X265891791Y-47440827D01*
X265891791Y-47440827D02*
X265844172Y-47488446D01*
X265844172Y-47488446D02*
X265796553Y-47583684D01*
X265796553Y-47583684D02*
X265796553Y-47869398D01*
X265796553Y-47869398D02*
X265844172Y-47964636D01*
X265844172Y-47964636D02*
X265891791Y-48012256D01*
X265891791Y-48012256D02*
X265987029Y-48059875D01*
X265987029Y-48059875D02*
X266129886Y-48059875D01*
X265367981Y-48059875D02*
X265367981Y-47393208D01*
X265367981Y-47583684D02*
X265320362Y-47488446D01*
X265320362Y-47488446D02*
X265272743Y-47440827D01*
X265272743Y-47440827D02*
X265177505Y-47393208D01*
X265177505Y-47393208D02*
X265082267Y-47393208D01*
X264034647Y-48012256D02*
X263939409Y-48059875D01*
X263939409Y-48059875D02*
X263748933Y-48059875D01*
X263748933Y-48059875D02*
X263653695Y-48012256D01*
X263653695Y-48012256D02*
X263606076Y-47917017D01*
X263606076Y-47917017D02*
X263606076Y-47869398D01*
X263606076Y-47869398D02*
X263653695Y-47774160D01*
X263653695Y-47774160D02*
X263748933Y-47726541D01*
X263748933Y-47726541D02*
X263891790Y-47726541D01*
X263891790Y-47726541D02*
X263987028Y-47678922D01*
X263987028Y-47678922D02*
X264034647Y-47583684D01*
X264034647Y-47583684D02*
X264034647Y-47536065D01*
X264034647Y-47536065D02*
X263987028Y-47440827D01*
X263987028Y-47440827D02*
X263891790Y-47393208D01*
X263891790Y-47393208D02*
X263748933Y-47393208D01*
X263748933Y-47393208D02*
X263653695Y-47440827D01*
X263177504Y-48059875D02*
X263177504Y-47393208D01*
X263177504Y-47059875D02*
X263225123Y-47107494D01*
X263225123Y-47107494D02*
X263177504Y-47155113D01*
X263177504Y-47155113D02*
X263129885Y-47107494D01*
X263129885Y-47107494D02*
X263177504Y-47059875D01*
X263177504Y-47059875D02*
X263177504Y-47155113D01*
X262701314Y-48059875D02*
X262701314Y-47393208D01*
X262701314Y-47488446D02*
X262653695Y-47440827D01*
X262653695Y-47440827D02*
X262558457Y-47393208D01*
X262558457Y-47393208D02*
X262415600Y-47393208D01*
X262415600Y-47393208D02*
X262320362Y-47440827D01*
X262320362Y-47440827D02*
X262272743Y-47536065D01*
X262272743Y-47536065D02*
X262272743Y-48059875D01*
X262272743Y-47536065D02*
X262225124Y-47440827D01*
X262225124Y-47440827D02*
X262129886Y-47393208D01*
X262129886Y-47393208D02*
X261987029Y-47393208D01*
X261987029Y-47393208D02*
X261891790Y-47440827D01*
X261891790Y-47440827D02*
X261844171Y-47536065D01*
X261844171Y-47536065D02*
X261844171Y-48059875D01*
X261367981Y-48059875D02*
X261367981Y-47393208D01*
X261367981Y-47059875D02*
X261415600Y-47107494D01*
X261415600Y-47107494D02*
X261367981Y-47155113D01*
X261367981Y-47155113D02*
X261320362Y-47107494D01*
X261320362Y-47107494D02*
X261367981Y-47059875D01*
X261367981Y-47059875D02*
X261367981Y-47155113D01*
X260748934Y-48059875D02*
X260844172Y-48012256D01*
X260844172Y-48012256D02*
X260891791Y-47917017D01*
X260891791Y-47917017D02*
X260891791Y-47059875D01*
X259939410Y-48059875D02*
X259939410Y-47536065D01*
X259939410Y-47536065D02*
X259987029Y-47440827D01*
X259987029Y-47440827D02*
X260082267Y-47393208D01*
X260082267Y-47393208D02*
X260272743Y-47393208D01*
X260272743Y-47393208D02*
X260367981Y-47440827D01*
X259939410Y-48012256D02*
X260034648Y-48059875D01*
X260034648Y-48059875D02*
X260272743Y-48059875D01*
X260272743Y-48059875D02*
X260367981Y-48012256D01*
X260367981Y-48012256D02*
X260415600Y-47917017D01*
X260415600Y-47917017D02*
X260415600Y-47821779D01*
X260415600Y-47821779D02*
X260367981Y-47726541D01*
X260367981Y-47726541D02*
X260272743Y-47678922D01*
X260272743Y-47678922D02*
X260034648Y-47678922D01*
X260034648Y-47678922D02*
X259939410Y-47631303D01*
X259463219Y-48059875D02*
X259463219Y-47393208D01*
X259463219Y-47583684D02*
X259415600Y-47488446D01*
X259415600Y-47488446D02*
X259367981Y-47440827D01*
X259367981Y-47440827D02*
X259272743Y-47393208D01*
X259272743Y-47393208D02*
X259177505Y-47393208D01*
X280510839Y-48765057D02*
X280463220Y-48717438D01*
X280463220Y-48717438D02*
X280367982Y-48669819D01*
X280367982Y-48669819D02*
X280129887Y-48669819D01*
X280129887Y-48669819D02*
X280034649Y-48717438D01*
X280034649Y-48717438D02*
X279987030Y-48765057D01*
X279987030Y-48765057D02*
X279939411Y-48860295D01*
X279939411Y-48860295D02*
X279939411Y-48955533D01*
X279939411Y-48955533D02*
X279987030Y-49098390D01*
X279987030Y-49098390D02*
X280558458Y-49669819D01*
X280558458Y-49669819D02*
X279939411Y-49669819D01*
X279367982Y-49669819D02*
X279463220Y-49622200D01*
X279463220Y-49622200D02*
X279510839Y-49574580D01*
X279510839Y-49574580D02*
X279558458Y-49479342D01*
X279558458Y-49479342D02*
X279558458Y-49193628D01*
X279558458Y-49193628D02*
X279510839Y-49098390D01*
X279510839Y-49098390D02*
X279463220Y-49050771D01*
X279463220Y-49050771D02*
X279367982Y-49003152D01*
X279367982Y-49003152D02*
X279225125Y-49003152D01*
X279225125Y-49003152D02*
X279129887Y-49050771D01*
X279129887Y-49050771D02*
X279082268Y-49098390D01*
X279082268Y-49098390D02*
X279034649Y-49193628D01*
X279034649Y-49193628D02*
X279034649Y-49479342D01*
X279034649Y-49479342D02*
X279082268Y-49574580D01*
X279082268Y-49574580D02*
X279129887Y-49622200D01*
X279129887Y-49622200D02*
X279225125Y-49669819D01*
X279225125Y-49669819D02*
X279367982Y-49669819D01*
X278701315Y-49003152D02*
X278177506Y-49003152D01*
X278177506Y-49003152D02*
X278701315Y-49669819D01*
X278701315Y-49669819D02*
X278177506Y-49669819D01*
X276891791Y-49669819D02*
X276987029Y-49622200D01*
X276987029Y-49622200D02*
X277034648Y-49574580D01*
X277034648Y-49574580D02*
X277082267Y-49479342D01*
X277082267Y-49479342D02*
X277082267Y-49193628D01*
X277082267Y-49193628D02*
X277034648Y-49098390D01*
X277034648Y-49098390D02*
X276987029Y-49050771D01*
X276987029Y-49050771D02*
X276891791Y-49003152D01*
X276891791Y-49003152D02*
X276748934Y-49003152D01*
X276748934Y-49003152D02*
X276653696Y-49050771D01*
X276653696Y-49050771D02*
X276606077Y-49098390D01*
X276606077Y-49098390D02*
X276558458Y-49193628D01*
X276558458Y-49193628D02*
X276558458Y-49479342D01*
X276558458Y-49479342D02*
X276606077Y-49574580D01*
X276606077Y-49574580D02*
X276653696Y-49622200D01*
X276653696Y-49622200D02*
X276748934Y-49669819D01*
X276748934Y-49669819D02*
X276891791Y-49669819D01*
X275701315Y-49003152D02*
X275701315Y-49669819D01*
X276129886Y-49003152D02*
X276129886Y-49526961D01*
X276129886Y-49526961D02*
X276082267Y-49622200D01*
X276082267Y-49622200D02*
X275987029Y-49669819D01*
X275987029Y-49669819D02*
X275844172Y-49669819D01*
X275844172Y-49669819D02*
X275748934Y-49622200D01*
X275748934Y-49622200D02*
X275701315Y-49574580D01*
X275367981Y-49003152D02*
X274987029Y-49003152D01*
X275225124Y-48669819D02*
X275225124Y-49526961D01*
X275225124Y-49526961D02*
X275177505Y-49622200D01*
X275177505Y-49622200D02*
X275082267Y-49669819D01*
X275082267Y-49669819D02*
X274987029Y-49669819D01*
X274272743Y-49622200D02*
X274367981Y-49669819D01*
X274367981Y-49669819D02*
X274558457Y-49669819D01*
X274558457Y-49669819D02*
X274653695Y-49622200D01*
X274653695Y-49622200D02*
X274701314Y-49526961D01*
X274701314Y-49526961D02*
X274701314Y-49146009D01*
X274701314Y-49146009D02*
X274653695Y-49050771D01*
X274653695Y-49050771D02*
X274558457Y-49003152D01*
X274558457Y-49003152D02*
X274367981Y-49003152D01*
X274367981Y-49003152D02*
X274272743Y-49050771D01*
X274272743Y-49050771D02*
X274225124Y-49146009D01*
X274225124Y-49146009D02*
X274225124Y-49241247D01*
X274225124Y-49241247D02*
X274701314Y-49336485D01*
X273796552Y-49669819D02*
X273796552Y-49003152D01*
X273796552Y-49193628D02*
X273748933Y-49098390D01*
X273748933Y-49098390D02*
X273701314Y-49050771D01*
X273701314Y-49050771D02*
X273606076Y-49003152D01*
X273606076Y-49003152D02*
X273510838Y-49003152D01*
X271701314Y-48622200D02*
X272558456Y-49907914D01*
X270653695Y-48622200D02*
X271510837Y-49907914D01*
X269034647Y-49669819D02*
X269606075Y-49669819D01*
X269320361Y-49669819D02*
X269320361Y-48669819D01*
X269320361Y-48669819D02*
X269415599Y-48812676D01*
X269415599Y-48812676D02*
X269510837Y-48907914D01*
X269510837Y-48907914D02*
X269606075Y-48955533D01*
X268463218Y-49669819D02*
X268558456Y-49622200D01*
X268558456Y-49622200D02*
X268606075Y-49574580D01*
X268606075Y-49574580D02*
X268653694Y-49479342D01*
X268653694Y-49479342D02*
X268653694Y-49193628D01*
X268653694Y-49193628D02*
X268606075Y-49098390D01*
X268606075Y-49098390D02*
X268558456Y-49050771D01*
X268558456Y-49050771D02*
X268463218Y-49003152D01*
X268463218Y-49003152D02*
X268320361Y-49003152D01*
X268320361Y-49003152D02*
X268225123Y-49050771D01*
X268225123Y-49050771D02*
X268177504Y-49098390D01*
X268177504Y-49098390D02*
X268129885Y-49193628D01*
X268129885Y-49193628D02*
X268129885Y-49479342D01*
X268129885Y-49479342D02*
X268177504Y-49574580D01*
X268177504Y-49574580D02*
X268225123Y-49622200D01*
X268225123Y-49622200D02*
X268320361Y-49669819D01*
X268320361Y-49669819D02*
X268463218Y-49669819D01*
X267796551Y-49003152D02*
X267272742Y-49003152D01*
X267272742Y-49003152D02*
X267796551Y-49669819D01*
X267796551Y-49669819D02*
X267272742Y-49669819D01*
X266129884Y-49669819D02*
X266129884Y-49003152D01*
X266129884Y-48669819D02*
X266177503Y-48717438D01*
X266177503Y-48717438D02*
X266129884Y-48765057D01*
X266129884Y-48765057D02*
X266082265Y-48717438D01*
X266082265Y-48717438D02*
X266129884Y-48669819D01*
X266129884Y-48669819D02*
X266129884Y-48765057D01*
X265653694Y-49003152D02*
X265653694Y-49669819D01*
X265653694Y-49098390D02*
X265606075Y-49050771D01*
X265606075Y-49050771D02*
X265510837Y-49003152D01*
X265510837Y-49003152D02*
X265367980Y-49003152D01*
X265367980Y-49003152D02*
X265272742Y-49050771D01*
X265272742Y-49050771D02*
X265225123Y-49146009D01*
X265225123Y-49146009D02*
X265225123Y-49669819D01*
X264748932Y-49003152D02*
X264748932Y-49669819D01*
X264748932Y-49098390D02*
X264701313Y-49050771D01*
X264701313Y-49050771D02*
X264606075Y-49003152D01*
X264606075Y-49003152D02*
X264463218Y-49003152D01*
X264463218Y-49003152D02*
X264367980Y-49050771D01*
X264367980Y-49050771D02*
X264320361Y-49146009D01*
X264320361Y-49146009D02*
X264320361Y-49669819D01*
X263463218Y-49622200D02*
X263558456Y-49669819D01*
X263558456Y-49669819D02*
X263748932Y-49669819D01*
X263748932Y-49669819D02*
X263844170Y-49622200D01*
X263844170Y-49622200D02*
X263891789Y-49526961D01*
X263891789Y-49526961D02*
X263891789Y-49146009D01*
X263891789Y-49146009D02*
X263844170Y-49050771D01*
X263844170Y-49050771D02*
X263748932Y-49003152D01*
X263748932Y-49003152D02*
X263558456Y-49003152D01*
X263558456Y-49003152D02*
X263463218Y-49050771D01*
X263463218Y-49050771D02*
X263415599Y-49146009D01*
X263415599Y-49146009D02*
X263415599Y-49241247D01*
X263415599Y-49241247D02*
X263891789Y-49336485D01*
X262987027Y-49669819D02*
X262987027Y-49003152D01*
X262987027Y-49193628D02*
X262939408Y-49098390D01*
X262939408Y-49098390D02*
X262891789Y-49050771D01*
X262891789Y-49050771D02*
X262796551Y-49003152D01*
X262796551Y-49003152D02*
X262701313Y-49003152D01*
X260891789Y-48622200D02*
X261748931Y-49907914D01*
X259844170Y-48622200D02*
X260701312Y-49907914D01*
X258320360Y-49003152D02*
X258320360Y-49669819D01*
X258558455Y-48622200D02*
X258796550Y-49336485D01*
X258796550Y-49336485D02*
X258177503Y-49336485D01*
X257320360Y-49669819D02*
X257796550Y-49669819D01*
X257796550Y-49669819D02*
X257796550Y-48669819D01*
D11*
X236732581Y-137905142D02*
X236732581Y-145524190D01*
X234827819Y-143619428D02*
X236732581Y-145524190D01*
X236732581Y-145524190D02*
X238637343Y-143619428D01*
D12*
G36*
X229628571Y-25904438D02*
G01*
X229113879Y-25904438D01*
X228994661Y-25844829D01*
X228945323Y-25795489D01*
X228885714Y-25676271D01*
X228885714Y-25484984D01*
X228945323Y-25365765D01*
X228984224Y-25326864D01*
X229194361Y-25256819D01*
X229628571Y-25256819D01*
X229628571Y-25904438D01*
G37*
G36*
X229628571Y-24856819D02*
G01*
X229209117Y-24856819D01*
X229089899Y-24797209D01*
X229040561Y-24747871D01*
X228980952Y-24628652D01*
X228980952Y-24532603D01*
X229040561Y-24413384D01*
X229089899Y-24364047D01*
X229209117Y-24304438D01*
X229628571Y-24304438D01*
X229628571Y-24856819D01*
G37*
G36*
X227646323Y-25333009D02*
G01*
X227248914Y-25333009D01*
X227447618Y-24736894D01*
X227646323Y-25333009D01*
G37*
G36*
X230250793Y-26526660D02*
G01*
X220549205Y-26526660D01*
X220549205Y-24104438D01*
X220771427Y-24104438D01*
X220771427Y-26104438D01*
X220772415Y-26114472D01*
X220771915Y-26118407D01*
X220773304Y-26123502D01*
X220775270Y-26143456D01*
X220785448Y-26168028D01*
X220792448Y-26193694D01*
X220800254Y-26203774D01*
X220805133Y-26215552D01*
X220823941Y-26234360D01*
X220840229Y-26255392D01*
X220851298Y-26261717D01*
X220860313Y-26270732D01*
X220884889Y-26280911D01*
X220907983Y-26294108D01*
X220920629Y-26295715D01*
X220932409Y-26300595D01*
X220959007Y-26300595D01*
X220985396Y-26303950D01*
X220997698Y-26300595D01*
X221010445Y-26300595D01*
X221035017Y-26290416D01*
X221060683Y-26283417D01*
X221070763Y-26275610D01*
X221082541Y-26270732D01*
X221101349Y-26251923D01*
X221122381Y-26235636D01*
X221133989Y-26219283D01*
X221137721Y-26215552D01*
X221139237Y-26211890D01*
X221145076Y-26203666D01*
X221914284Y-24857551D01*
X221914284Y-26104438D01*
X221918127Y-26143456D01*
X221947990Y-26215552D01*
X222003170Y-26270732D01*
X222075266Y-26300595D01*
X222153302Y-26300595D01*
X222225398Y-26270732D01*
X222280578Y-26215552D01*
X222310441Y-26143456D01*
X222314284Y-26104438D01*
X222314284Y-24104438D01*
X222866665Y-24104438D01*
X222866665Y-26104438D01*
X222870508Y-26143456D01*
X222900371Y-26215552D01*
X222955551Y-26270732D01*
X223027647Y-26300595D01*
X223105683Y-26300595D01*
X223177779Y-26270732D01*
X223232959Y-26215552D01*
X223262822Y-26143456D01*
X223266665Y-26104438D01*
X223266665Y-24104438D01*
X223262822Y-24065420D01*
X225060985Y-24065420D01*
X225060985Y-24143456D01*
X225090848Y-24215552D01*
X225146028Y-24270732D01*
X225218124Y-24300595D01*
X225257142Y-24304438D01*
X225628571Y-24304438D01*
X225628571Y-26104438D01*
X225632414Y-26143456D01*
X225662277Y-26215552D01*
X225717457Y-26270732D01*
X225789553Y-26300595D01*
X225867589Y-26300595D01*
X225939685Y-26270732D01*
X225994865Y-26215552D01*
X226024728Y-26143456D01*
X226028571Y-26104438D01*
X226028571Y-26079423D01*
X226582523Y-26079423D01*
X226588054Y-26157263D01*
X226622953Y-26227061D01*
X226681906Y-26278190D01*
X226755937Y-26302867D01*
X226833777Y-26297336D01*
X226903575Y-26262437D01*
X226954704Y-26203484D01*
X226970689Y-26167684D01*
X227115581Y-25733009D01*
X227779657Y-25733009D01*
X227924548Y-26167684D01*
X227940533Y-26203484D01*
X227991662Y-26262437D01*
X228061460Y-26297336D01*
X228139300Y-26302868D01*
X228213331Y-26278190D01*
X228272284Y-26227061D01*
X228307183Y-26157263D01*
X228312714Y-26079424D01*
X228304022Y-26041193D01*
X228102882Y-25437771D01*
X228485714Y-25437771D01*
X228485714Y-25723485D01*
X228489557Y-25762503D01*
X228492306Y-25769140D01*
X228492816Y-25776310D01*
X228506829Y-25812928D01*
X228602067Y-26003404D01*
X228612638Y-26020197D01*
X228614658Y-26025074D01*
X228619164Y-26030565D01*
X228622953Y-26036584D01*
X228626944Y-26040045D01*
X228639530Y-26055382D01*
X228734768Y-26150621D01*
X228750107Y-26163210D01*
X228753567Y-26167199D01*
X228759578Y-26170983D01*
X228765075Y-26175494D01*
X228769957Y-26177516D01*
X228786747Y-26188085D01*
X228977224Y-26283324D01*
X229013841Y-26297336D01*
X229021010Y-26297845D01*
X229027648Y-26300595D01*
X229066666Y-26304438D01*
X229828571Y-26304438D01*
X229867589Y-26300595D01*
X229939685Y-26270732D01*
X229994865Y-26215552D01*
X230024728Y-26143456D01*
X230028571Y-26104438D01*
X230028571Y-24104438D01*
X230024728Y-24065420D01*
X229994865Y-23993324D01*
X229939685Y-23938144D01*
X229867589Y-23908281D01*
X229828571Y-23904438D01*
X229161904Y-23904438D01*
X229122886Y-23908281D01*
X229116248Y-23911030D01*
X229109079Y-23911540D01*
X229072462Y-23925552D01*
X228881985Y-24020791D01*
X228865193Y-24031360D01*
X228860314Y-24033382D01*
X228854821Y-24037889D01*
X228848805Y-24041677D01*
X228845343Y-24045668D01*
X228830007Y-24058255D01*
X228734769Y-24153493D01*
X228722182Y-24168828D01*
X228718191Y-24172291D01*
X228714403Y-24178307D01*
X228709896Y-24183800D01*
X228707874Y-24188679D01*
X228697305Y-24205471D01*
X228602067Y-24395947D01*
X228588054Y-24432565D01*
X228587544Y-24439734D01*
X228584795Y-24446372D01*
X228580952Y-24485390D01*
X228580952Y-24675866D01*
X228584795Y-24714884D01*
X228587544Y-24721521D01*
X228588054Y-24728691D01*
X228602067Y-24765309D01*
X228697305Y-24955785D01*
X228707874Y-24972576D01*
X228709896Y-24977456D01*
X228714403Y-24982948D01*
X228718191Y-24988965D01*
X228722182Y-24992427D01*
X228734769Y-25007763D01*
X228736346Y-25009340D01*
X228734769Y-25010636D01*
X228639531Y-25105874D01*
X228626944Y-25121209D01*
X228622953Y-25124672D01*
X228619165Y-25130688D01*
X228614658Y-25136181D01*
X228612636Y-25141060D01*
X228602067Y-25157852D01*
X228506829Y-25348328D01*
X228492816Y-25384946D01*
X228492306Y-25392115D01*
X228489557Y-25398753D01*
X228485714Y-25437771D01*
X228102882Y-25437771D01*
X227637356Y-24041193D01*
X227621371Y-24005392D01*
X227612009Y-23994597D01*
X227605618Y-23981815D01*
X227586672Y-23965384D01*
X227570242Y-23946439D01*
X227557459Y-23940047D01*
X227546665Y-23930686D01*
X227522878Y-23922757D01*
X227500444Y-23911540D01*
X227486188Y-23910527D01*
X227472634Y-23906009D01*
X227447621Y-23907786D01*
X227422604Y-23906009D01*
X227409046Y-23910528D01*
X227394794Y-23911541D01*
X227372364Y-23922755D01*
X227348573Y-23930686D01*
X227337778Y-23940047D01*
X227324996Y-23946439D01*
X227308565Y-23965384D01*
X227289620Y-23981815D01*
X227283228Y-23994597D01*
X227273867Y-24005392D01*
X227257882Y-24041193D01*
X226591215Y-26041192D01*
X226582523Y-26079423D01*
X226028571Y-26079423D01*
X226028571Y-24304438D01*
X226399999Y-24304438D01*
X226439017Y-24300595D01*
X226511113Y-24270732D01*
X226566293Y-24215552D01*
X226596156Y-24143456D01*
X226596156Y-24065420D01*
X226566293Y-23993324D01*
X226511113Y-23938144D01*
X226439017Y-23908281D01*
X226399999Y-23904438D01*
X225257142Y-23904438D01*
X225218124Y-23908281D01*
X225146028Y-23938144D01*
X225090848Y-23993324D01*
X225060985Y-24065420D01*
X223262822Y-24065420D01*
X223232959Y-23993324D01*
X223177779Y-23938144D01*
X223105683Y-23908281D01*
X223027647Y-23908281D01*
X222955551Y-23938144D01*
X222900371Y-23993324D01*
X222870508Y-24065420D01*
X222866665Y-24104438D01*
X222314284Y-24104438D01*
X222313295Y-24094403D01*
X222313796Y-24090469D01*
X222312406Y-24085373D01*
X222310441Y-24065420D01*
X222300262Y-24040847D01*
X222293263Y-24015182D01*
X222285456Y-24005101D01*
X222280578Y-23993324D01*
X222261769Y-23974515D01*
X222245482Y-23953484D01*
X222234412Y-23947158D01*
X222225398Y-23938144D01*
X222200821Y-23927964D01*
X222177728Y-23914768D01*
X222165081Y-23913160D01*
X222153302Y-23908281D01*
X222126699Y-23908281D01*
X222100315Y-23904927D01*
X222088017Y-23908281D01*
X222075266Y-23908281D01*
X222050690Y-23918460D01*
X222025028Y-23925459D01*
X222014947Y-23933265D01*
X222003170Y-23938144D01*
X221984361Y-23956952D01*
X221963330Y-23973240D01*
X221951721Y-23989592D01*
X221947990Y-23993324D01*
X221946473Y-23996985D01*
X221940635Y-24005210D01*
X221171427Y-25351324D01*
X221171427Y-24104438D01*
X221167584Y-24065420D01*
X221137721Y-23993324D01*
X221082541Y-23938144D01*
X221010445Y-23908281D01*
X220932409Y-23908281D01*
X220860313Y-23938144D01*
X220805133Y-23993324D01*
X220775270Y-24065420D01*
X220771427Y-24104438D01*
X220549205Y-24104438D01*
X220549205Y-23682216D01*
X230250793Y-23682216D01*
X230250793Y-26526660D01*
G37*
D10*
X211366666Y-134759580D02*
X211414285Y-134807200D01*
X211414285Y-134807200D02*
X211557142Y-134854819D01*
X211557142Y-134854819D02*
X211652380Y-134854819D01*
X211652380Y-134854819D02*
X211795237Y-134807200D01*
X211795237Y-134807200D02*
X211890475Y-134711961D01*
X211890475Y-134711961D02*
X211938094Y-134616723D01*
X211938094Y-134616723D02*
X211985713Y-134426247D01*
X211985713Y-134426247D02*
X211985713Y-134283390D01*
X211985713Y-134283390D02*
X211938094Y-134092914D01*
X211938094Y-134092914D02*
X211890475Y-133997676D01*
X211890475Y-133997676D02*
X211795237Y-133902438D01*
X211795237Y-133902438D02*
X211652380Y-133854819D01*
X211652380Y-133854819D02*
X211557142Y-133854819D01*
X211557142Y-133854819D02*
X211414285Y-133902438D01*
X211414285Y-133902438D02*
X211366666Y-133950057D01*
X211033332Y-133854819D02*
X210366666Y-133854819D01*
X210366666Y-133854819D02*
X210795237Y-134854819D01*
X233183333Y-90890419D02*
X233135714Y-90842800D01*
X233135714Y-90842800D02*
X232992857Y-90795180D01*
X232992857Y-90795180D02*
X232897619Y-90795180D01*
X232897619Y-90795180D02*
X232754762Y-90842800D01*
X232754762Y-90842800D02*
X232659524Y-90938038D01*
X232659524Y-90938038D02*
X232611905Y-91033276D01*
X232611905Y-91033276D02*
X232564286Y-91223752D01*
X232564286Y-91223752D02*
X232564286Y-91366609D01*
X232564286Y-91366609D02*
X232611905Y-91557085D01*
X232611905Y-91557085D02*
X232659524Y-91652323D01*
X232659524Y-91652323D02*
X232754762Y-91747561D01*
X232754762Y-91747561D02*
X232897619Y-91795180D01*
X232897619Y-91795180D02*
X232992857Y-91795180D01*
X232992857Y-91795180D02*
X233135714Y-91747561D01*
X233135714Y-91747561D02*
X233183333Y-91699942D01*
X234088095Y-91795180D02*
X233611905Y-91795180D01*
X233611905Y-91795180D02*
X233564286Y-91318990D01*
X233564286Y-91318990D02*
X233611905Y-91366609D01*
X233611905Y-91366609D02*
X233707143Y-91414228D01*
X233707143Y-91414228D02*
X233945238Y-91414228D01*
X233945238Y-91414228D02*
X234040476Y-91366609D01*
X234040476Y-91366609D02*
X234088095Y-91318990D01*
X234088095Y-91318990D02*
X234135714Y-91223752D01*
X234135714Y-91223752D02*
X234135714Y-90985657D01*
X234135714Y-90985657D02*
X234088095Y-90890419D01*
X234088095Y-90890419D02*
X234040476Y-90842800D01*
X234040476Y-90842800D02*
X233945238Y-90795180D01*
X233945238Y-90795180D02*
X233707143Y-90795180D01*
X233707143Y-90795180D02*
X233611905Y-90842800D01*
X233611905Y-90842800D02*
X233564286Y-90890419D01*
X182042857Y-78559580D02*
X182090476Y-78607200D01*
X182090476Y-78607200D02*
X182233333Y-78654819D01*
X182233333Y-78654819D02*
X182328571Y-78654819D01*
X182328571Y-78654819D02*
X182471428Y-78607200D01*
X182471428Y-78607200D02*
X182566666Y-78511961D01*
X182566666Y-78511961D02*
X182614285Y-78416723D01*
X182614285Y-78416723D02*
X182661904Y-78226247D01*
X182661904Y-78226247D02*
X182661904Y-78083390D01*
X182661904Y-78083390D02*
X182614285Y-77892914D01*
X182614285Y-77892914D02*
X182566666Y-77797676D01*
X182566666Y-77797676D02*
X182471428Y-77702438D01*
X182471428Y-77702438D02*
X182328571Y-77654819D01*
X182328571Y-77654819D02*
X182233333Y-77654819D01*
X182233333Y-77654819D02*
X182090476Y-77702438D01*
X182090476Y-77702438D02*
X182042857Y-77750057D01*
X181661904Y-77750057D02*
X181614285Y-77702438D01*
X181614285Y-77702438D02*
X181519047Y-77654819D01*
X181519047Y-77654819D02*
X181280952Y-77654819D01*
X181280952Y-77654819D02*
X181185714Y-77702438D01*
X181185714Y-77702438D02*
X181138095Y-77750057D01*
X181138095Y-77750057D02*
X181090476Y-77845295D01*
X181090476Y-77845295D02*
X181090476Y-77940533D01*
X181090476Y-77940533D02*
X181138095Y-78083390D01*
X181138095Y-78083390D02*
X181709523Y-78654819D01*
X181709523Y-78654819D02*
X181090476Y-78654819D01*
X180233333Y-77988152D02*
X180233333Y-78654819D01*
X180471428Y-77607200D02*
X180709523Y-78321485D01*
X180709523Y-78321485D02*
X180090476Y-78321485D01*
X180642857Y-105234580D02*
X180690476Y-105282200D01*
X180690476Y-105282200D02*
X180833333Y-105329819D01*
X180833333Y-105329819D02*
X180928571Y-105329819D01*
X180928571Y-105329819D02*
X181071428Y-105282200D01*
X181071428Y-105282200D02*
X181166666Y-105186961D01*
X181166666Y-105186961D02*
X181214285Y-105091723D01*
X181214285Y-105091723D02*
X181261904Y-104901247D01*
X181261904Y-104901247D02*
X181261904Y-104758390D01*
X181261904Y-104758390D02*
X181214285Y-104567914D01*
X181214285Y-104567914D02*
X181166666Y-104472676D01*
X181166666Y-104472676D02*
X181071428Y-104377438D01*
X181071428Y-104377438D02*
X180928571Y-104329819D01*
X180928571Y-104329819D02*
X180833333Y-104329819D01*
X180833333Y-104329819D02*
X180690476Y-104377438D01*
X180690476Y-104377438D02*
X180642857Y-104425057D01*
X179690476Y-105329819D02*
X180261904Y-105329819D01*
X179976190Y-105329819D02*
X179976190Y-104329819D01*
X179976190Y-104329819D02*
X180071428Y-104472676D01*
X180071428Y-104472676D02*
X180166666Y-104567914D01*
X180166666Y-104567914D02*
X180261904Y-104615533D01*
X179119047Y-104758390D02*
X179214285Y-104710771D01*
X179214285Y-104710771D02*
X179261904Y-104663152D01*
X179261904Y-104663152D02*
X179309523Y-104567914D01*
X179309523Y-104567914D02*
X179309523Y-104520295D01*
X179309523Y-104520295D02*
X179261904Y-104425057D01*
X179261904Y-104425057D02*
X179214285Y-104377438D01*
X179214285Y-104377438D02*
X179119047Y-104329819D01*
X179119047Y-104329819D02*
X178928571Y-104329819D01*
X178928571Y-104329819D02*
X178833333Y-104377438D01*
X178833333Y-104377438D02*
X178785714Y-104425057D01*
X178785714Y-104425057D02*
X178738095Y-104520295D01*
X178738095Y-104520295D02*
X178738095Y-104567914D01*
X178738095Y-104567914D02*
X178785714Y-104663152D01*
X178785714Y-104663152D02*
X178833333Y-104710771D01*
X178833333Y-104710771D02*
X178928571Y-104758390D01*
X178928571Y-104758390D02*
X179119047Y-104758390D01*
X179119047Y-104758390D02*
X179214285Y-104806009D01*
X179214285Y-104806009D02*
X179261904Y-104853628D01*
X179261904Y-104853628D02*
X179309523Y-104948866D01*
X179309523Y-104948866D02*
X179309523Y-105139342D01*
X179309523Y-105139342D02*
X179261904Y-105234580D01*
X179261904Y-105234580D02*
X179214285Y-105282200D01*
X179214285Y-105282200D02*
X179119047Y-105329819D01*
X179119047Y-105329819D02*
X178928571Y-105329819D01*
X178928571Y-105329819D02*
X178833333Y-105282200D01*
X178833333Y-105282200D02*
X178785714Y-105234580D01*
X178785714Y-105234580D02*
X178738095Y-105139342D01*
X178738095Y-105139342D02*
X178738095Y-104948866D01*
X178738095Y-104948866D02*
X178785714Y-104853628D01*
X178785714Y-104853628D02*
X178833333Y-104806009D01*
X178833333Y-104806009D02*
X178928571Y-104758390D01*
X153633333Y-64240419D02*
X153585714Y-64192800D01*
X153585714Y-64192800D02*
X153442857Y-64145180D01*
X153442857Y-64145180D02*
X153347619Y-64145180D01*
X153347619Y-64145180D02*
X153204762Y-64192800D01*
X153204762Y-64192800D02*
X153109524Y-64288038D01*
X153109524Y-64288038D02*
X153061905Y-64383276D01*
X153061905Y-64383276D02*
X153014286Y-64573752D01*
X153014286Y-64573752D02*
X153014286Y-64716609D01*
X153014286Y-64716609D02*
X153061905Y-64907085D01*
X153061905Y-64907085D02*
X153109524Y-65002323D01*
X153109524Y-65002323D02*
X153204762Y-65097561D01*
X153204762Y-65097561D02*
X153347619Y-65145180D01*
X153347619Y-65145180D02*
X153442857Y-65145180D01*
X153442857Y-65145180D02*
X153585714Y-65097561D01*
X153585714Y-65097561D02*
X153633333Y-65049942D01*
X153966667Y-65145180D02*
X154585714Y-65145180D01*
X154585714Y-65145180D02*
X154252381Y-64764228D01*
X154252381Y-64764228D02*
X154395238Y-64764228D01*
X154395238Y-64764228D02*
X154490476Y-64716609D01*
X154490476Y-64716609D02*
X154538095Y-64668990D01*
X154538095Y-64668990D02*
X154585714Y-64573752D01*
X154585714Y-64573752D02*
X154585714Y-64335657D01*
X154585714Y-64335657D02*
X154538095Y-64240419D01*
X154538095Y-64240419D02*
X154490476Y-64192800D01*
X154490476Y-64192800D02*
X154395238Y-64145180D01*
X154395238Y-64145180D02*
X154109524Y-64145180D01*
X154109524Y-64145180D02*
X154014286Y-64192800D01*
X154014286Y-64192800D02*
X153966667Y-64240419D01*
X171242857Y-78559580D02*
X171290476Y-78607200D01*
X171290476Y-78607200D02*
X171433333Y-78654819D01*
X171433333Y-78654819D02*
X171528571Y-78654819D01*
X171528571Y-78654819D02*
X171671428Y-78607200D01*
X171671428Y-78607200D02*
X171766666Y-78511961D01*
X171766666Y-78511961D02*
X171814285Y-78416723D01*
X171814285Y-78416723D02*
X171861904Y-78226247D01*
X171861904Y-78226247D02*
X171861904Y-78083390D01*
X171861904Y-78083390D02*
X171814285Y-77892914D01*
X171814285Y-77892914D02*
X171766666Y-77797676D01*
X171766666Y-77797676D02*
X171671428Y-77702438D01*
X171671428Y-77702438D02*
X171528571Y-77654819D01*
X171528571Y-77654819D02*
X171433333Y-77654819D01*
X171433333Y-77654819D02*
X171290476Y-77702438D01*
X171290476Y-77702438D02*
X171242857Y-77750057D01*
X170909523Y-77654819D02*
X170290476Y-77654819D01*
X170290476Y-77654819D02*
X170623809Y-78035771D01*
X170623809Y-78035771D02*
X170480952Y-78035771D01*
X170480952Y-78035771D02*
X170385714Y-78083390D01*
X170385714Y-78083390D02*
X170338095Y-78131009D01*
X170338095Y-78131009D02*
X170290476Y-78226247D01*
X170290476Y-78226247D02*
X170290476Y-78464342D01*
X170290476Y-78464342D02*
X170338095Y-78559580D01*
X170338095Y-78559580D02*
X170385714Y-78607200D01*
X170385714Y-78607200D02*
X170480952Y-78654819D01*
X170480952Y-78654819D02*
X170766666Y-78654819D01*
X170766666Y-78654819D02*
X170861904Y-78607200D01*
X170861904Y-78607200D02*
X170909523Y-78559580D01*
X169909523Y-77750057D02*
X169861904Y-77702438D01*
X169861904Y-77702438D02*
X169766666Y-77654819D01*
X169766666Y-77654819D02*
X169528571Y-77654819D01*
X169528571Y-77654819D02*
X169433333Y-77702438D01*
X169433333Y-77702438D02*
X169385714Y-77750057D01*
X169385714Y-77750057D02*
X169338095Y-77845295D01*
X169338095Y-77845295D02*
X169338095Y-77940533D01*
X169338095Y-77940533D02*
X169385714Y-78083390D01*
X169385714Y-78083390D02*
X169957142Y-78654819D01*
X169957142Y-78654819D02*
X169338095Y-78654819D01*
X161642857Y-105854819D02*
X161976190Y-105378628D01*
X162214285Y-105854819D02*
X162214285Y-104854819D01*
X162214285Y-104854819D02*
X161833333Y-104854819D01*
X161833333Y-104854819D02*
X161738095Y-104902438D01*
X161738095Y-104902438D02*
X161690476Y-104950057D01*
X161690476Y-104950057D02*
X161642857Y-105045295D01*
X161642857Y-105045295D02*
X161642857Y-105188152D01*
X161642857Y-105188152D02*
X161690476Y-105283390D01*
X161690476Y-105283390D02*
X161738095Y-105331009D01*
X161738095Y-105331009D02*
X161833333Y-105378628D01*
X161833333Y-105378628D02*
X162214285Y-105378628D01*
X160690476Y-105854819D02*
X161261904Y-105854819D01*
X160976190Y-105854819D02*
X160976190Y-104854819D01*
X160976190Y-104854819D02*
X161071428Y-104997676D01*
X161071428Y-104997676D02*
X161166666Y-105092914D01*
X161166666Y-105092914D02*
X161261904Y-105140533D01*
X160071428Y-104854819D02*
X159976190Y-104854819D01*
X159976190Y-104854819D02*
X159880952Y-104902438D01*
X159880952Y-104902438D02*
X159833333Y-104950057D01*
X159833333Y-104950057D02*
X159785714Y-105045295D01*
X159785714Y-105045295D02*
X159738095Y-105235771D01*
X159738095Y-105235771D02*
X159738095Y-105473866D01*
X159738095Y-105473866D02*
X159785714Y-105664342D01*
X159785714Y-105664342D02*
X159833333Y-105759580D01*
X159833333Y-105759580D02*
X159880952Y-105807200D01*
X159880952Y-105807200D02*
X159976190Y-105854819D01*
X159976190Y-105854819D02*
X160071428Y-105854819D01*
X160071428Y-105854819D02*
X160166666Y-105807200D01*
X160166666Y-105807200D02*
X160214285Y-105759580D01*
X160214285Y-105759580D02*
X160261904Y-105664342D01*
X160261904Y-105664342D02*
X160309523Y-105473866D01*
X160309523Y-105473866D02*
X160309523Y-105235771D01*
X160309523Y-105235771D02*
X160261904Y-105045295D01*
X160261904Y-105045295D02*
X160214285Y-104950057D01*
X160214285Y-104950057D02*
X160166666Y-104902438D01*
X160166666Y-104902438D02*
X160071428Y-104854819D01*
X167842857Y-78559580D02*
X167890476Y-78607200D01*
X167890476Y-78607200D02*
X168033333Y-78654819D01*
X168033333Y-78654819D02*
X168128571Y-78654819D01*
X168128571Y-78654819D02*
X168271428Y-78607200D01*
X168271428Y-78607200D02*
X168366666Y-78511961D01*
X168366666Y-78511961D02*
X168414285Y-78416723D01*
X168414285Y-78416723D02*
X168461904Y-78226247D01*
X168461904Y-78226247D02*
X168461904Y-78083390D01*
X168461904Y-78083390D02*
X168414285Y-77892914D01*
X168414285Y-77892914D02*
X168366666Y-77797676D01*
X168366666Y-77797676D02*
X168271428Y-77702438D01*
X168271428Y-77702438D02*
X168128571Y-77654819D01*
X168128571Y-77654819D02*
X168033333Y-77654819D01*
X168033333Y-77654819D02*
X167890476Y-77702438D01*
X167890476Y-77702438D02*
X167842857Y-77750057D01*
X166890476Y-78654819D02*
X167461904Y-78654819D01*
X167176190Y-78654819D02*
X167176190Y-77654819D01*
X167176190Y-77654819D02*
X167271428Y-77797676D01*
X167271428Y-77797676D02*
X167366666Y-77892914D01*
X167366666Y-77892914D02*
X167461904Y-77940533D01*
X166557142Y-77654819D02*
X165938095Y-77654819D01*
X165938095Y-77654819D02*
X166271428Y-78035771D01*
X166271428Y-78035771D02*
X166128571Y-78035771D01*
X166128571Y-78035771D02*
X166033333Y-78083390D01*
X166033333Y-78083390D02*
X165985714Y-78131009D01*
X165985714Y-78131009D02*
X165938095Y-78226247D01*
X165938095Y-78226247D02*
X165938095Y-78464342D01*
X165938095Y-78464342D02*
X165985714Y-78559580D01*
X165985714Y-78559580D02*
X166033333Y-78607200D01*
X166033333Y-78607200D02*
X166128571Y-78654819D01*
X166128571Y-78654819D02*
X166414285Y-78654819D01*
X166414285Y-78654819D02*
X166509523Y-78607200D01*
X166509523Y-78607200D02*
X166557142Y-78559580D01*
X180642857Y-83634580D02*
X180690476Y-83682200D01*
X180690476Y-83682200D02*
X180833333Y-83729819D01*
X180833333Y-83729819D02*
X180928571Y-83729819D01*
X180928571Y-83729819D02*
X181071428Y-83682200D01*
X181071428Y-83682200D02*
X181166666Y-83586961D01*
X181166666Y-83586961D02*
X181214285Y-83491723D01*
X181214285Y-83491723D02*
X181261904Y-83301247D01*
X181261904Y-83301247D02*
X181261904Y-83158390D01*
X181261904Y-83158390D02*
X181214285Y-82967914D01*
X181214285Y-82967914D02*
X181166666Y-82872676D01*
X181166666Y-82872676D02*
X181071428Y-82777438D01*
X181071428Y-82777438D02*
X180928571Y-82729819D01*
X180928571Y-82729819D02*
X180833333Y-82729819D01*
X180833333Y-82729819D02*
X180690476Y-82777438D01*
X180690476Y-82777438D02*
X180642857Y-82825057D01*
X179690476Y-83729819D02*
X180261904Y-83729819D01*
X179976190Y-83729819D02*
X179976190Y-82729819D01*
X179976190Y-82729819D02*
X180071428Y-82872676D01*
X180071428Y-82872676D02*
X180166666Y-82967914D01*
X180166666Y-82967914D02*
X180261904Y-83015533D01*
X178833333Y-83063152D02*
X178833333Y-83729819D01*
X179071428Y-82682200D02*
X179309523Y-83396485D01*
X179309523Y-83396485D02*
X178690476Y-83396485D01*
X232166666Y-135959580D02*
X232214285Y-136007200D01*
X232214285Y-136007200D02*
X232357142Y-136054819D01*
X232357142Y-136054819D02*
X232452380Y-136054819D01*
X232452380Y-136054819D02*
X232595237Y-136007200D01*
X232595237Y-136007200D02*
X232690475Y-135911961D01*
X232690475Y-135911961D02*
X232738094Y-135816723D01*
X232738094Y-135816723D02*
X232785713Y-135626247D01*
X232785713Y-135626247D02*
X232785713Y-135483390D01*
X232785713Y-135483390D02*
X232738094Y-135292914D01*
X232738094Y-135292914D02*
X232690475Y-135197676D01*
X232690475Y-135197676D02*
X232595237Y-135102438D01*
X232595237Y-135102438D02*
X232452380Y-135054819D01*
X232452380Y-135054819D02*
X232357142Y-135054819D01*
X232357142Y-135054819D02*
X232214285Y-135102438D01*
X232214285Y-135102438D02*
X232166666Y-135150057D01*
X231309523Y-135388152D02*
X231309523Y-136054819D01*
X231547618Y-135007200D02*
X231785713Y-135721485D01*
X231785713Y-135721485D02*
X231166666Y-135721485D01*
X182042857Y-99959580D02*
X182090476Y-100007200D01*
X182090476Y-100007200D02*
X182233333Y-100054819D01*
X182233333Y-100054819D02*
X182328571Y-100054819D01*
X182328571Y-100054819D02*
X182471428Y-100007200D01*
X182471428Y-100007200D02*
X182566666Y-99911961D01*
X182566666Y-99911961D02*
X182614285Y-99816723D01*
X182614285Y-99816723D02*
X182661904Y-99626247D01*
X182661904Y-99626247D02*
X182661904Y-99483390D01*
X182661904Y-99483390D02*
X182614285Y-99292914D01*
X182614285Y-99292914D02*
X182566666Y-99197676D01*
X182566666Y-99197676D02*
X182471428Y-99102438D01*
X182471428Y-99102438D02*
X182328571Y-99054819D01*
X182328571Y-99054819D02*
X182233333Y-99054819D01*
X182233333Y-99054819D02*
X182090476Y-99102438D01*
X182090476Y-99102438D02*
X182042857Y-99150057D01*
X181709523Y-99054819D02*
X181090476Y-99054819D01*
X181090476Y-99054819D02*
X181423809Y-99435771D01*
X181423809Y-99435771D02*
X181280952Y-99435771D01*
X181280952Y-99435771D02*
X181185714Y-99483390D01*
X181185714Y-99483390D02*
X181138095Y-99531009D01*
X181138095Y-99531009D02*
X181090476Y-99626247D01*
X181090476Y-99626247D02*
X181090476Y-99864342D01*
X181090476Y-99864342D02*
X181138095Y-99959580D01*
X181138095Y-99959580D02*
X181185714Y-100007200D01*
X181185714Y-100007200D02*
X181280952Y-100054819D01*
X181280952Y-100054819D02*
X181566666Y-100054819D01*
X181566666Y-100054819D02*
X181661904Y-100007200D01*
X181661904Y-100007200D02*
X181709523Y-99959580D01*
X180138095Y-100054819D02*
X180709523Y-100054819D01*
X180423809Y-100054819D02*
X180423809Y-99054819D01*
X180423809Y-99054819D02*
X180519047Y-99197676D01*
X180519047Y-99197676D02*
X180614285Y-99292914D01*
X180614285Y-99292914D02*
X180709523Y-99340533D01*
X201842857Y-42959580D02*
X201890476Y-43007200D01*
X201890476Y-43007200D02*
X202033333Y-43054819D01*
X202033333Y-43054819D02*
X202128571Y-43054819D01*
X202128571Y-43054819D02*
X202271428Y-43007200D01*
X202271428Y-43007200D02*
X202366666Y-42911961D01*
X202366666Y-42911961D02*
X202414285Y-42816723D01*
X202414285Y-42816723D02*
X202461904Y-42626247D01*
X202461904Y-42626247D02*
X202461904Y-42483390D01*
X202461904Y-42483390D02*
X202414285Y-42292914D01*
X202414285Y-42292914D02*
X202366666Y-42197676D01*
X202366666Y-42197676D02*
X202271428Y-42102438D01*
X202271428Y-42102438D02*
X202128571Y-42054819D01*
X202128571Y-42054819D02*
X202033333Y-42054819D01*
X202033333Y-42054819D02*
X201890476Y-42102438D01*
X201890476Y-42102438D02*
X201842857Y-42150057D01*
X200890476Y-43054819D02*
X201461904Y-43054819D01*
X201176190Y-43054819D02*
X201176190Y-42054819D01*
X201176190Y-42054819D02*
X201271428Y-42197676D01*
X201271428Y-42197676D02*
X201366666Y-42292914D01*
X201366666Y-42292914D02*
X201461904Y-42340533D01*
X199938095Y-43054819D02*
X200509523Y-43054819D01*
X200223809Y-43054819D02*
X200223809Y-42054819D01*
X200223809Y-42054819D02*
X200319047Y-42197676D01*
X200319047Y-42197676D02*
X200414285Y-42292914D01*
X200414285Y-42292914D02*
X200509523Y-42340533D01*
X161642857Y-100454819D02*
X161976190Y-99978628D01*
X162214285Y-100454819D02*
X162214285Y-99454819D01*
X162214285Y-99454819D02*
X161833333Y-99454819D01*
X161833333Y-99454819D02*
X161738095Y-99502438D01*
X161738095Y-99502438D02*
X161690476Y-99550057D01*
X161690476Y-99550057D02*
X161642857Y-99645295D01*
X161642857Y-99645295D02*
X161642857Y-99788152D01*
X161642857Y-99788152D02*
X161690476Y-99883390D01*
X161690476Y-99883390D02*
X161738095Y-99931009D01*
X161738095Y-99931009D02*
X161833333Y-99978628D01*
X161833333Y-99978628D02*
X162214285Y-99978628D01*
X160690476Y-100454819D02*
X161261904Y-100454819D01*
X160976190Y-100454819D02*
X160976190Y-99454819D01*
X160976190Y-99454819D02*
X161071428Y-99597676D01*
X161071428Y-99597676D02*
X161166666Y-99692914D01*
X161166666Y-99692914D02*
X161261904Y-99740533D01*
X159738095Y-100454819D02*
X160309523Y-100454819D01*
X160023809Y-100454819D02*
X160023809Y-99454819D01*
X160023809Y-99454819D02*
X160119047Y-99597676D01*
X160119047Y-99597676D02*
X160214285Y-99692914D01*
X160214285Y-99692914D02*
X160309523Y-99740533D01*
X230642857Y-42759580D02*
X230690476Y-42807200D01*
X230690476Y-42807200D02*
X230833333Y-42854819D01*
X230833333Y-42854819D02*
X230928571Y-42854819D01*
X230928571Y-42854819D02*
X231071428Y-42807200D01*
X231071428Y-42807200D02*
X231166666Y-42711961D01*
X231166666Y-42711961D02*
X231214285Y-42616723D01*
X231214285Y-42616723D02*
X231261904Y-42426247D01*
X231261904Y-42426247D02*
X231261904Y-42283390D01*
X231261904Y-42283390D02*
X231214285Y-42092914D01*
X231214285Y-42092914D02*
X231166666Y-41997676D01*
X231166666Y-41997676D02*
X231071428Y-41902438D01*
X231071428Y-41902438D02*
X230928571Y-41854819D01*
X230928571Y-41854819D02*
X230833333Y-41854819D01*
X230833333Y-41854819D02*
X230690476Y-41902438D01*
X230690476Y-41902438D02*
X230642857Y-41950057D01*
X229690476Y-42854819D02*
X230261904Y-42854819D01*
X229976190Y-42854819D02*
X229976190Y-41854819D01*
X229976190Y-41854819D02*
X230071428Y-41997676D01*
X230071428Y-41997676D02*
X230166666Y-42092914D01*
X230166666Y-42092914D02*
X230261904Y-42140533D01*
X229071428Y-41854819D02*
X228976190Y-41854819D01*
X228976190Y-41854819D02*
X228880952Y-41902438D01*
X228880952Y-41902438D02*
X228833333Y-41950057D01*
X228833333Y-41950057D02*
X228785714Y-42045295D01*
X228785714Y-42045295D02*
X228738095Y-42235771D01*
X228738095Y-42235771D02*
X228738095Y-42473866D01*
X228738095Y-42473866D02*
X228785714Y-42664342D01*
X228785714Y-42664342D02*
X228833333Y-42759580D01*
X228833333Y-42759580D02*
X228880952Y-42807200D01*
X228880952Y-42807200D02*
X228976190Y-42854819D01*
X228976190Y-42854819D02*
X229071428Y-42854819D01*
X229071428Y-42854819D02*
X229166666Y-42807200D01*
X229166666Y-42807200D02*
X229214285Y-42759580D01*
X229214285Y-42759580D02*
X229261904Y-42664342D01*
X229261904Y-42664342D02*
X229309523Y-42473866D01*
X229309523Y-42473866D02*
X229309523Y-42235771D01*
X229309523Y-42235771D02*
X229261904Y-42045295D01*
X229261904Y-42045295D02*
X229214285Y-41950057D01*
X229214285Y-41950057D02*
X229166666Y-41902438D01*
X229166666Y-41902438D02*
X229071428Y-41854819D01*
X232907142Y-102890419D02*
X232859523Y-102842800D01*
X232859523Y-102842800D02*
X232716666Y-102795180D01*
X232716666Y-102795180D02*
X232621428Y-102795180D01*
X232621428Y-102795180D02*
X232478571Y-102842800D01*
X232478571Y-102842800D02*
X232383333Y-102938038D01*
X232383333Y-102938038D02*
X232335714Y-103033276D01*
X232335714Y-103033276D02*
X232288095Y-103223752D01*
X232288095Y-103223752D02*
X232288095Y-103366609D01*
X232288095Y-103366609D02*
X232335714Y-103557085D01*
X232335714Y-103557085D02*
X232383333Y-103652323D01*
X232383333Y-103652323D02*
X232478571Y-103747561D01*
X232478571Y-103747561D02*
X232621428Y-103795180D01*
X232621428Y-103795180D02*
X232716666Y-103795180D01*
X232716666Y-103795180D02*
X232859523Y-103747561D01*
X232859523Y-103747561D02*
X232907142Y-103699942D01*
X233288095Y-103699942D02*
X233335714Y-103747561D01*
X233335714Y-103747561D02*
X233430952Y-103795180D01*
X233430952Y-103795180D02*
X233669047Y-103795180D01*
X233669047Y-103795180D02*
X233764285Y-103747561D01*
X233764285Y-103747561D02*
X233811904Y-103699942D01*
X233811904Y-103699942D02*
X233859523Y-103604704D01*
X233859523Y-103604704D02*
X233859523Y-103509466D01*
X233859523Y-103509466D02*
X233811904Y-103366609D01*
X233811904Y-103366609D02*
X233240476Y-102795180D01*
X233240476Y-102795180D02*
X233859523Y-102795180D01*
X234192857Y-103795180D02*
X234811904Y-103795180D01*
X234811904Y-103795180D02*
X234478571Y-103414228D01*
X234478571Y-103414228D02*
X234621428Y-103414228D01*
X234621428Y-103414228D02*
X234716666Y-103366609D01*
X234716666Y-103366609D02*
X234764285Y-103318990D01*
X234764285Y-103318990D02*
X234811904Y-103223752D01*
X234811904Y-103223752D02*
X234811904Y-102985657D01*
X234811904Y-102985657D02*
X234764285Y-102890419D01*
X234764285Y-102890419D02*
X234716666Y-102842800D01*
X234716666Y-102842800D02*
X234621428Y-102795180D01*
X234621428Y-102795180D02*
X234335714Y-102795180D01*
X234335714Y-102795180D02*
X234240476Y-102842800D01*
X234240476Y-102842800D02*
X234192857Y-102890419D01*
X172842857Y-105159580D02*
X172890476Y-105207200D01*
X172890476Y-105207200D02*
X173033333Y-105254819D01*
X173033333Y-105254819D02*
X173128571Y-105254819D01*
X173128571Y-105254819D02*
X173271428Y-105207200D01*
X173271428Y-105207200D02*
X173366666Y-105111961D01*
X173366666Y-105111961D02*
X173414285Y-105016723D01*
X173414285Y-105016723D02*
X173461904Y-104826247D01*
X173461904Y-104826247D02*
X173461904Y-104683390D01*
X173461904Y-104683390D02*
X173414285Y-104492914D01*
X173414285Y-104492914D02*
X173366666Y-104397676D01*
X173366666Y-104397676D02*
X173271428Y-104302438D01*
X173271428Y-104302438D02*
X173128571Y-104254819D01*
X173128571Y-104254819D02*
X173033333Y-104254819D01*
X173033333Y-104254819D02*
X172890476Y-104302438D01*
X172890476Y-104302438D02*
X172842857Y-104350057D01*
X171890476Y-105254819D02*
X172461904Y-105254819D01*
X172176190Y-105254819D02*
X172176190Y-104254819D01*
X172176190Y-104254819D02*
X172271428Y-104397676D01*
X172271428Y-104397676D02*
X172366666Y-104492914D01*
X172366666Y-104492914D02*
X172461904Y-104540533D01*
X171414285Y-105254819D02*
X171223809Y-105254819D01*
X171223809Y-105254819D02*
X171128571Y-105207200D01*
X171128571Y-105207200D02*
X171080952Y-105159580D01*
X171080952Y-105159580D02*
X170985714Y-105016723D01*
X170985714Y-105016723D02*
X170938095Y-104826247D01*
X170938095Y-104826247D02*
X170938095Y-104445295D01*
X170938095Y-104445295D02*
X170985714Y-104350057D01*
X170985714Y-104350057D02*
X171033333Y-104302438D01*
X171033333Y-104302438D02*
X171128571Y-104254819D01*
X171128571Y-104254819D02*
X171319047Y-104254819D01*
X171319047Y-104254819D02*
X171414285Y-104302438D01*
X171414285Y-104302438D02*
X171461904Y-104350057D01*
X171461904Y-104350057D02*
X171509523Y-104445295D01*
X171509523Y-104445295D02*
X171509523Y-104683390D01*
X171509523Y-104683390D02*
X171461904Y-104778628D01*
X171461904Y-104778628D02*
X171414285Y-104826247D01*
X171414285Y-104826247D02*
X171319047Y-104873866D01*
X171319047Y-104873866D02*
X171128571Y-104873866D01*
X171128571Y-104873866D02*
X171033333Y-104826247D01*
X171033333Y-104826247D02*
X170985714Y-104778628D01*
X170985714Y-104778628D02*
X170938095Y-104683390D01*
X172842857Y-83559580D02*
X172890476Y-83607200D01*
X172890476Y-83607200D02*
X173033333Y-83654819D01*
X173033333Y-83654819D02*
X173128571Y-83654819D01*
X173128571Y-83654819D02*
X173271428Y-83607200D01*
X173271428Y-83607200D02*
X173366666Y-83511961D01*
X173366666Y-83511961D02*
X173414285Y-83416723D01*
X173414285Y-83416723D02*
X173461904Y-83226247D01*
X173461904Y-83226247D02*
X173461904Y-83083390D01*
X173461904Y-83083390D02*
X173414285Y-82892914D01*
X173414285Y-82892914D02*
X173366666Y-82797676D01*
X173366666Y-82797676D02*
X173271428Y-82702438D01*
X173271428Y-82702438D02*
X173128571Y-82654819D01*
X173128571Y-82654819D02*
X173033333Y-82654819D01*
X173033333Y-82654819D02*
X172890476Y-82702438D01*
X172890476Y-82702438D02*
X172842857Y-82750057D01*
X171890476Y-83654819D02*
X172461904Y-83654819D01*
X172176190Y-83654819D02*
X172176190Y-82654819D01*
X172176190Y-82654819D02*
X172271428Y-82797676D01*
X172271428Y-82797676D02*
X172366666Y-82892914D01*
X172366666Y-82892914D02*
X172461904Y-82940533D01*
X170985714Y-82654819D02*
X171461904Y-82654819D01*
X171461904Y-82654819D02*
X171509523Y-83131009D01*
X171509523Y-83131009D02*
X171461904Y-83083390D01*
X171461904Y-83083390D02*
X171366666Y-83035771D01*
X171366666Y-83035771D02*
X171128571Y-83035771D01*
X171128571Y-83035771D02*
X171033333Y-83083390D01*
X171033333Y-83083390D02*
X170985714Y-83131009D01*
X170985714Y-83131009D02*
X170938095Y-83226247D01*
X170938095Y-83226247D02*
X170938095Y-83464342D01*
X170938095Y-83464342D02*
X170985714Y-83559580D01*
X170985714Y-83559580D02*
X171033333Y-83607200D01*
X171033333Y-83607200D02*
X171128571Y-83654819D01*
X171128571Y-83654819D02*
X171366666Y-83654819D01*
X171366666Y-83654819D02*
X171461904Y-83607200D01*
X171461904Y-83607200D02*
X171509523Y-83559580D01*
X168042857Y-99959580D02*
X168090476Y-100007200D01*
X168090476Y-100007200D02*
X168233333Y-100054819D01*
X168233333Y-100054819D02*
X168328571Y-100054819D01*
X168328571Y-100054819D02*
X168471428Y-100007200D01*
X168471428Y-100007200D02*
X168566666Y-99911961D01*
X168566666Y-99911961D02*
X168614285Y-99816723D01*
X168614285Y-99816723D02*
X168661904Y-99626247D01*
X168661904Y-99626247D02*
X168661904Y-99483390D01*
X168661904Y-99483390D02*
X168614285Y-99292914D01*
X168614285Y-99292914D02*
X168566666Y-99197676D01*
X168566666Y-99197676D02*
X168471428Y-99102438D01*
X168471428Y-99102438D02*
X168328571Y-99054819D01*
X168328571Y-99054819D02*
X168233333Y-99054819D01*
X168233333Y-99054819D02*
X168090476Y-99102438D01*
X168090476Y-99102438D02*
X168042857Y-99150057D01*
X167090476Y-100054819D02*
X167661904Y-100054819D01*
X167376190Y-100054819D02*
X167376190Y-99054819D01*
X167376190Y-99054819D02*
X167471428Y-99197676D01*
X167471428Y-99197676D02*
X167566666Y-99292914D01*
X167566666Y-99292914D02*
X167661904Y-99340533D01*
X166757142Y-99054819D02*
X166090476Y-99054819D01*
X166090476Y-99054819D02*
X166519047Y-100054819D01*
X171242857Y-99959580D02*
X171290476Y-100007200D01*
X171290476Y-100007200D02*
X171433333Y-100054819D01*
X171433333Y-100054819D02*
X171528571Y-100054819D01*
X171528571Y-100054819D02*
X171671428Y-100007200D01*
X171671428Y-100007200D02*
X171766666Y-99911961D01*
X171766666Y-99911961D02*
X171814285Y-99816723D01*
X171814285Y-99816723D02*
X171861904Y-99626247D01*
X171861904Y-99626247D02*
X171861904Y-99483390D01*
X171861904Y-99483390D02*
X171814285Y-99292914D01*
X171814285Y-99292914D02*
X171766666Y-99197676D01*
X171766666Y-99197676D02*
X171671428Y-99102438D01*
X171671428Y-99102438D02*
X171528571Y-99054819D01*
X171528571Y-99054819D02*
X171433333Y-99054819D01*
X171433333Y-99054819D02*
X171290476Y-99102438D01*
X171290476Y-99102438D02*
X171242857Y-99150057D01*
X170861904Y-99150057D02*
X170814285Y-99102438D01*
X170814285Y-99102438D02*
X170719047Y-99054819D01*
X170719047Y-99054819D02*
X170480952Y-99054819D01*
X170480952Y-99054819D02*
X170385714Y-99102438D01*
X170385714Y-99102438D02*
X170338095Y-99150057D01*
X170338095Y-99150057D02*
X170290476Y-99245295D01*
X170290476Y-99245295D02*
X170290476Y-99340533D01*
X170290476Y-99340533D02*
X170338095Y-99483390D01*
X170338095Y-99483390D02*
X170909523Y-100054819D01*
X170909523Y-100054819D02*
X170290476Y-100054819D01*
X169385714Y-99054819D02*
X169861904Y-99054819D01*
X169861904Y-99054819D02*
X169909523Y-99531009D01*
X169909523Y-99531009D02*
X169861904Y-99483390D01*
X169861904Y-99483390D02*
X169766666Y-99435771D01*
X169766666Y-99435771D02*
X169528571Y-99435771D01*
X169528571Y-99435771D02*
X169433333Y-99483390D01*
X169433333Y-99483390D02*
X169385714Y-99531009D01*
X169385714Y-99531009D02*
X169338095Y-99626247D01*
X169338095Y-99626247D02*
X169338095Y-99864342D01*
X169338095Y-99864342D02*
X169385714Y-99959580D01*
X169385714Y-99959580D02*
X169433333Y-100007200D01*
X169433333Y-100007200D02*
X169528571Y-100054819D01*
X169528571Y-100054819D02*
X169766666Y-100054819D01*
X169766666Y-100054819D02*
X169861904Y-100007200D01*
X169861904Y-100007200D02*
X169909523Y-99959580D01*
X212864161Y-147339468D02*
X212998848Y-147406811D01*
X212998848Y-147406811D02*
X213066191Y-147406811D01*
X213066191Y-147406811D02*
X213167206Y-147373140D01*
X213167206Y-147373140D02*
X213268222Y-147272124D01*
X213268222Y-147272124D02*
X213301893Y-147171109D01*
X213301893Y-147171109D02*
X213301893Y-147103766D01*
X213301893Y-147103766D02*
X213268222Y-147002750D01*
X213268222Y-147002750D02*
X212998848Y-146733376D01*
X212998848Y-146733376D02*
X212291741Y-147440483D01*
X212291741Y-147440483D02*
X212527443Y-147676185D01*
X212527443Y-147676185D02*
X212628458Y-147709857D01*
X212628458Y-147709857D02*
X212695802Y-147709857D01*
X212695802Y-147709857D02*
X212796817Y-147676185D01*
X212796817Y-147676185D02*
X212864161Y-147608842D01*
X212864161Y-147608842D02*
X212897832Y-147507827D01*
X212897832Y-147507827D02*
X212897832Y-147440483D01*
X212897832Y-147440483D02*
X212864161Y-147339468D01*
X212864161Y-147339468D02*
X212628458Y-147103766D01*
X212998848Y-148147590D02*
X213571267Y-147575170D01*
X213571267Y-147575170D02*
X213672283Y-147541498D01*
X213672283Y-147541498D02*
X213739626Y-147541498D01*
X213739626Y-147541498D02*
X213840641Y-147575170D01*
X213840641Y-147575170D02*
X213975328Y-147709857D01*
X213975328Y-147709857D02*
X214009000Y-147810872D01*
X214009000Y-147810872D02*
X214009000Y-147878216D01*
X214009000Y-147878216D02*
X213975328Y-147979231D01*
X213975328Y-147979231D02*
X213402909Y-148551651D01*
X213672283Y-148821025D02*
X214143687Y-149292429D01*
X214143687Y-149292429D02*
X214379389Y-148113918D01*
X214379389Y-148113918D02*
X214850794Y-148585323D01*
X214345718Y-149494460D02*
X214817122Y-149965865D01*
X214817122Y-149965865D02*
X215052824Y-148787353D01*
X215052824Y-148787353D02*
X215524229Y-149258758D01*
X216163992Y-149898521D02*
X215759931Y-149494460D01*
X215961962Y-149696491D02*
X215254855Y-150403597D01*
X215254855Y-150403597D02*
X215288527Y-150235239D01*
X215288527Y-150235239D02*
X215288527Y-150100552D01*
X215288527Y-150100552D02*
X215254855Y-149999536D01*
D13*
%TO.C,C7*%
X210550000Y-133200000D02*
G75*
G02*
X210350000Y-133200000I-100000J0D01*
G01*
X210350000Y-133200000D02*
G75*
G02*
X210550000Y-133200000I100000J0D01*
G01*
%TO.C,C5*%
X232900000Y-95650000D02*
G75*
G02*
X232700000Y-95650000I-100000J0D01*
G01*
X232700000Y-95650000D02*
G75*
G02*
X232900000Y-95650000I100000J0D01*
G01*
D14*
%TO.C,C24*%
X177890000Y-77488748D02*
X177890000Y-78911252D01*
X179710000Y-77488748D02*
X179710000Y-78911252D01*
%TO.C,C18*%
X176490000Y-105586252D02*
X176490000Y-104163748D01*
X178310000Y-105586252D02*
X178310000Y-104163748D01*
D13*
%TO.C,C3*%
X151900000Y-64350000D02*
G75*
G02*
X151700000Y-64350000I-100000J0D01*
G01*
X151700000Y-64350000D02*
G75*
G02*
X151900000Y-64350000I100000J0D01*
G01*
D14*
%TO.C,U5*%
X206040000Y-101888900D02*
X206040000Y-125256900D01*
X206040000Y-125256900D02*
X226360000Y-125256900D01*
X212136000Y-100364900D02*
X214168000Y-100364900D01*
X212136000Y-103412900D02*
X212136000Y-100364900D01*
X214168000Y-100364900D02*
X214168000Y-103412900D01*
X214168000Y-103412900D02*
X212136000Y-103412900D01*
X226360000Y-101888900D02*
X206040000Y-101888900D01*
X226360000Y-125256900D02*
X226360000Y-101888900D01*
%TO.C,J20*%
X272967500Y-72600000D02*
X273567500Y-72900000D01*
X272967500Y-73200000D02*
X272967500Y-72600000D01*
X273457500Y-67790000D02*
X273457500Y-69010000D01*
X273457500Y-69010000D02*
X275657500Y-69010000D01*
X273457500Y-74290000D02*
X273457500Y-75510000D01*
X273457500Y-75510000D02*
X281877500Y-75510000D01*
X273567500Y-72900000D02*
X272967500Y-73200000D01*
X275657500Y-69010000D02*
X275657500Y-67790000D01*
X275657500Y-71730000D02*
X275657500Y-71570000D01*
X275657500Y-74290000D02*
X273457500Y-74290000D01*
X275657500Y-74290000D02*
X275657500Y-75510000D01*
X276657500Y-70080000D02*
X276657500Y-70400000D01*
X276657500Y-70400000D02*
X276657500Y-70720000D01*
X276657500Y-70720000D02*
X280077500Y-70720000D01*
X276657500Y-72580000D02*
X276657500Y-72900000D01*
X276657500Y-72900000D02*
X276657500Y-73220000D01*
X276657500Y-73220000D02*
X280077500Y-73220000D01*
X276657500Y-74290000D02*
X276657500Y-69010000D01*
X280077500Y-70080000D02*
X276657500Y-70080000D01*
X280077500Y-70720000D02*
X280157500Y-70400000D01*
X280077500Y-72580000D02*
X276657500Y-72580000D01*
X280077500Y-73220000D02*
X280157500Y-72900000D01*
X280157500Y-70400000D02*
X280077500Y-70080000D01*
X280157500Y-72900000D02*
X280077500Y-72580000D01*
X280657500Y-67790000D02*
X280657500Y-69010000D01*
X280657500Y-69010000D02*
X275657500Y-69010000D01*
X280657500Y-74290000D02*
X275657500Y-74290000D01*
X280657500Y-75510000D02*
X280657500Y-74290000D01*
X281877500Y-67790000D02*
X273457500Y-67790000D01*
X281877500Y-75510000D02*
X281877500Y-67790000D01*
%TO.C,C32*%
X175090000Y-77488748D02*
X175090000Y-78911252D01*
X176910000Y-77488748D02*
X176910000Y-78911252D01*
%TO.C,R10*%
X157765000Y-105172936D02*
X157765000Y-105627064D01*
X159235000Y-105172936D02*
X159235000Y-105627064D01*
%TO.C,C13*%
X172290000Y-77488748D02*
X172290000Y-78911252D01*
X174110000Y-77488748D02*
X174110000Y-78911252D01*
%TO.C,C14*%
X176490000Y-83986252D02*
X176490000Y-82563748D01*
X178310000Y-83986252D02*
X178310000Y-82563748D01*
D13*
%TO.C,C4*%
X231550000Y-134200000D02*
G75*
G02*
X231350000Y-134200000I-100000J0D01*
G01*
X231350000Y-134200000D02*
G75*
G02*
X231550000Y-134200000I100000J0D01*
G01*
D14*
%TO.C,J12*%
X272967500Y-82150000D02*
X273567500Y-82450000D01*
X272967500Y-82750000D02*
X272967500Y-82150000D01*
X273457500Y-77340000D02*
X273457500Y-78560000D01*
X273457500Y-78560000D02*
X275657500Y-78560000D01*
X273457500Y-83840000D02*
X273457500Y-85060000D01*
X273457500Y-85060000D02*
X281877500Y-85060000D01*
X273567500Y-82450000D02*
X272967500Y-82750000D01*
X275657500Y-78560000D02*
X275657500Y-77340000D01*
X275657500Y-81280000D02*
X275657500Y-81120000D01*
X275657500Y-83840000D02*
X273457500Y-83840000D01*
X275657500Y-83840000D02*
X275657500Y-85060000D01*
X276657500Y-79630000D02*
X276657500Y-79950000D01*
X276657500Y-79950000D02*
X276657500Y-80270000D01*
X276657500Y-80270000D02*
X280077500Y-80270000D01*
X276657500Y-82130000D02*
X276657500Y-82450000D01*
X276657500Y-82450000D02*
X276657500Y-82770000D01*
X276657500Y-82770000D02*
X280077500Y-82770000D01*
X276657500Y-83840000D02*
X276657500Y-78560000D01*
X280077500Y-79630000D02*
X276657500Y-79630000D01*
X280077500Y-80270000D02*
X280157500Y-79950000D01*
X280077500Y-82130000D02*
X276657500Y-82130000D01*
X280077500Y-82770000D02*
X280157500Y-82450000D01*
X280157500Y-79950000D02*
X280077500Y-79630000D01*
X280157500Y-82450000D02*
X280077500Y-82130000D01*
X280657500Y-77340000D02*
X280657500Y-78560000D01*
X280657500Y-78560000D02*
X275657500Y-78560000D01*
X280657500Y-83840000D02*
X275657500Y-83840000D01*
X280657500Y-85060000D02*
X280657500Y-83840000D01*
X281877500Y-77340000D02*
X273457500Y-77340000D01*
X281877500Y-85060000D02*
X281877500Y-77340000D01*
%TO.C,C31*%
X177690000Y-98888748D02*
X177690000Y-100311252D01*
X179510000Y-98888748D02*
X179510000Y-100311252D01*
%TO.C,C11*%
X203140000Y-33340000D02*
X203140000Y-37090000D01*
X203140000Y-43860000D02*
X203140000Y-40110000D01*
X212595563Y-33340000D02*
X203140000Y-33340000D01*
X212595563Y-43860000D02*
X203140000Y-43860000D01*
X213660000Y-34404437D02*
X212595563Y-33340000D01*
X213660000Y-34404437D02*
X213660000Y-37090000D01*
X213660000Y-42795563D02*
X212595563Y-43860000D01*
X213660000Y-42795563D02*
X213660000Y-40110000D01*
X214525000Y-35215000D02*
X214525000Y-36465000D01*
X215150000Y-35840000D02*
X213900000Y-35840000D01*
%TO.C,R11*%
X157765000Y-100227064D02*
X157765000Y-99772936D01*
X159235000Y-100227064D02*
X159235000Y-99772936D01*
%TO.C,C10*%
X217540000Y-33340000D02*
X217540000Y-37090000D01*
X217540000Y-43860000D02*
X217540000Y-40110000D01*
X226995563Y-33340000D02*
X217540000Y-33340000D01*
X226995563Y-43860000D02*
X217540000Y-43860000D01*
X228060000Y-34404437D02*
X226995563Y-33340000D01*
X228060000Y-34404437D02*
X228060000Y-37090000D01*
X228060000Y-42795563D02*
X226995563Y-43860000D01*
X228060000Y-42795563D02*
X228060000Y-40110000D01*
X228925000Y-35215000D02*
X228925000Y-36465000D01*
X229550000Y-35840000D02*
X228300000Y-35840000D01*
%TO.C,J22*%
X272967500Y-98350000D02*
X273567500Y-98650000D01*
X272967500Y-98950000D02*
X272967500Y-98350000D01*
X273457500Y-93540000D02*
X273457500Y-94760000D01*
X273457500Y-94760000D02*
X275657500Y-94760000D01*
X273457500Y-100040000D02*
X273457500Y-101260000D01*
X273457500Y-101260000D02*
X281877500Y-101260000D01*
X273567500Y-98650000D02*
X272967500Y-98950000D01*
X275657500Y-94760000D02*
X275657500Y-93540000D01*
X275657500Y-97480000D02*
X275657500Y-97320000D01*
X275657500Y-100040000D02*
X273457500Y-100040000D01*
X275657500Y-100040000D02*
X275657500Y-101260000D01*
X276657500Y-95830000D02*
X276657500Y-96150000D01*
X276657500Y-96150000D02*
X276657500Y-96470000D01*
X276657500Y-96470000D02*
X280077500Y-96470000D01*
X276657500Y-98330000D02*
X276657500Y-98650000D01*
X276657500Y-98650000D02*
X276657500Y-98970000D01*
X276657500Y-98970000D02*
X280077500Y-98970000D01*
X276657500Y-100040000D02*
X276657500Y-94760000D01*
X280077500Y-95830000D02*
X276657500Y-95830000D01*
X280077500Y-96470000D02*
X280157500Y-96150000D01*
X280077500Y-98330000D02*
X276657500Y-98330000D01*
X280077500Y-98970000D02*
X280157500Y-98650000D01*
X280157500Y-96150000D02*
X280077500Y-95830000D01*
X280157500Y-98650000D02*
X280077500Y-98330000D01*
X280657500Y-93540000D02*
X280657500Y-94760000D01*
X280657500Y-94760000D02*
X275657500Y-94760000D01*
X280657500Y-100040000D02*
X275657500Y-100040000D01*
X280657500Y-101260000D02*
X280657500Y-100040000D01*
X281877500Y-93540000D02*
X273457500Y-93540000D01*
X281877500Y-101260000D02*
X281877500Y-93540000D01*
D13*
%TO.C,C23*%
X233100000Y-107650000D02*
G75*
G02*
X232900000Y-107650000I-100000J0D01*
G01*
X232900000Y-107650000D02*
G75*
G02*
X233100000Y-107650000I100000J0D01*
G01*
D14*
%TO.C,C19*%
X173890000Y-105586252D02*
X173890000Y-104163748D01*
X175710000Y-105586252D02*
X175710000Y-104163748D01*
%TO.C,C15*%
X173890000Y-83986252D02*
X173890000Y-82563748D01*
X175710000Y-83986252D02*
X175710000Y-82563748D01*
%TO.C,J21*%
X272967500Y-107900000D02*
X273567500Y-108200000D01*
X272967500Y-108500000D02*
X272967500Y-107900000D01*
X273457500Y-103090000D02*
X273457500Y-104310000D01*
X273457500Y-104310000D02*
X275657500Y-104310000D01*
X273457500Y-109590000D02*
X273457500Y-110810000D01*
X273457500Y-110810000D02*
X281877500Y-110810000D01*
X273567500Y-108200000D02*
X272967500Y-108500000D01*
X275657500Y-104310000D02*
X275657500Y-103090000D01*
X275657500Y-107030000D02*
X275657500Y-106870000D01*
X275657500Y-109590000D02*
X273457500Y-109590000D01*
X275657500Y-109590000D02*
X275657500Y-110810000D01*
X276657500Y-105380000D02*
X276657500Y-105700000D01*
X276657500Y-105700000D02*
X276657500Y-106020000D01*
X276657500Y-106020000D02*
X280077500Y-106020000D01*
X276657500Y-107880000D02*
X276657500Y-108200000D01*
X276657500Y-108200000D02*
X276657500Y-108520000D01*
X276657500Y-108520000D02*
X280077500Y-108520000D01*
X276657500Y-109590000D02*
X276657500Y-104310000D01*
X280077500Y-105380000D02*
X276657500Y-105380000D01*
X280077500Y-106020000D02*
X280157500Y-105700000D01*
X280077500Y-107880000D02*
X276657500Y-107880000D01*
X280077500Y-108520000D02*
X280157500Y-108200000D01*
X280157500Y-105700000D02*
X280077500Y-105380000D01*
X280157500Y-108200000D02*
X280077500Y-107880000D01*
X280657500Y-103090000D02*
X280657500Y-104310000D01*
X280657500Y-104310000D02*
X275657500Y-104310000D01*
X280657500Y-109590000D02*
X275657500Y-109590000D01*
X280657500Y-110810000D02*
X280657500Y-109590000D01*
X281877500Y-103090000D02*
X273457500Y-103090000D01*
X281877500Y-110810000D02*
X281877500Y-103090000D01*
%TO.C,C17*%
X172490000Y-98888748D02*
X172490000Y-100311252D01*
X174310000Y-98888748D02*
X174310000Y-100311252D01*
%TO.C,C25*%
X175090000Y-98888748D02*
X175090000Y-100311252D01*
X176910000Y-98888748D02*
X176910000Y-100311252D01*
%TO.C,BUZZ1*%
X202099109Y-139361844D02*
X203895159Y-142953947D01*
X205691208Y-135769741D02*
X209283313Y-137565793D01*
X224228795Y-161171788D02*
X220149422Y-159208210D01*
X227243823Y-157322356D02*
X224998761Y-154179266D01*
X202099109Y-139361844D02*
G75*
G02*
X205691208Y-135769741I2065458J1526643D01*
G01*
X227243823Y-157322356D02*
G75*
G02*
X224228795Y-161171787I-2245064J-1347037D01*
G01*
X204799566Y-137835201D02*
G75*
G02*
X203529568Y-137835201I-634999J0D01*
G01*
X203529568Y-137835201D02*
G75*
G02*
X204799566Y-137835201I634999J0D01*
G01*
X227000936Y-148342100D02*
G75*
G02*
X202341996Y-148342100I-12329470J0D01*
G01*
X202341996Y-148342100D02*
G75*
G02*
X227000936Y-148342100I12329470J0D01*
G01*
X225633761Y-158669395D02*
G75*
G02*
X224363761Y-158669395I-635000J0D01*
G01*
X224363761Y-158669395D02*
G75*
G02*
X225633761Y-158669395I635000J0D01*
G01*
%TD*%
%LPC*%
D15*
%TO.C,M4*%
X175145724Y-56017336D03*
X185104301Y-64373575D03*
D16*
X179592230Y-66275434D03*
D17*
X176911074Y-64025677D03*
X174229919Y-61775921D03*
%TD*%
D18*
%TO.C,H4*%
X236800000Y-153200000D03*
%TD*%
D19*
%TO.C,U10*%
X259500000Y-66820000D03*
X259500000Y-87720000D03*
X280500000Y-87720000D03*
D20*
X258660000Y-70920000D03*
D21*
X261200000Y-70920000D03*
X258660000Y-73460000D03*
X258660000Y-76000000D03*
X261200000Y-73460000D03*
X261200000Y-76000000D03*
X258660000Y-78540000D03*
X261200000Y-78540000D03*
X258660000Y-81080000D03*
X261200000Y-81080000D03*
X258660000Y-83620000D03*
X261200000Y-83620000D03*
%TD*%
D22*
%TO.C,J7*%
X218450000Y-24600000D03*
X231950000Y-24600000D03*
D23*
X221600000Y-30600000D03*
D24*
X228800000Y-30600000D03*
%TD*%
D15*
%TO.C,J8*%
X151000000Y-137200000D03*
X151000000Y-126200000D03*
D25*
X156000000Y-134200000D03*
D26*
X156000000Y-129200000D03*
%TD*%
D15*
%TO.C,M1*%
X256254276Y-132582665D03*
X246295699Y-124226426D03*
D27*
X251807770Y-122324567D03*
D17*
X254488926Y-124574324D03*
X257170081Y-126824080D03*
%TD*%
D28*
%TO.C,U4*%
X177620000Y-74200000D03*
X170000000Y-74200000D03*
X162380000Y-74200000D03*
D29*
X162380000Y-87800000D03*
D28*
X166190000Y-87800000D03*
X170000000Y-87800000D03*
X173810000Y-87800000D03*
D29*
X177620000Y-87800000D03*
%TD*%
D18*
%TO.C,U2*%
X231050000Y-85958000D03*
X231050000Y-55458000D03*
X200550000Y-85958000D03*
X200550000Y-55458000D03*
D30*
X210720000Y-48782000D03*
X220880000Y-48782000D03*
D31*
X193390000Y-57754000D03*
X193390000Y-62954000D03*
X193390000Y-68168000D03*
X193390000Y-73354000D03*
X193390000Y-78554000D03*
D32*
X194152000Y-83754000D03*
D31*
X238252000Y-57754000D03*
X238252000Y-62954000D03*
X238252000Y-68168000D03*
X238252000Y-73354000D03*
X238252000Y-78582000D03*
D32*
X237490000Y-83754000D03*
%TD*%
D18*
%TO.C,H2*%
X236800000Y-31200000D03*
%TD*%
D15*
%TO.C,M3*%
X185304302Y-124626426D03*
X175345725Y-132982665D03*
D33*
X174429920Y-127224080D03*
D17*
X177111076Y-124974323D03*
X179792231Y-122724567D03*
%TD*%
D20*
%TO.C,J10*%
X254800000Y-84600000D03*
D21*
X254800000Y-87140000D03*
X252260000Y-84600000D03*
X252260000Y-87140000D03*
%TD*%
D34*
%TO.C,J9*%
X155505000Y-99810000D03*
X155505000Y-105590000D03*
D35*
X156025000Y-98380000D03*
D36*
X151825000Y-98380000D03*
D35*
X156025000Y-107020000D03*
D36*
X151825000Y-107020000D03*
%TD*%
D37*
%TO.C,RV2*%
X173000000Y-115200000D03*
X170460000Y-117740000D03*
X167920000Y-115200000D03*
%TD*%
D15*
%TO.C,M2*%
X246371381Y-64173575D03*
X256329958Y-55817336D03*
D38*
X257245763Y-61575921D03*
D17*
X254564607Y-63825678D03*
X251883452Y-66075434D03*
%TD*%
D22*
%TO.C,J6*%
X199850000Y-24600000D03*
X213350000Y-24600000D03*
D23*
X203000000Y-30600000D03*
D24*
X210200000Y-30600000D03*
%TD*%
D19*
%TO.C,U11*%
X259500000Y-92600000D03*
X259500000Y-113500000D03*
X280500000Y-113500000D03*
D20*
X258660000Y-96700000D03*
D21*
X261200000Y-96700000D03*
X258660000Y-99240000D03*
X258660000Y-101780000D03*
X261200000Y-99240000D03*
X261200000Y-101780000D03*
X258660000Y-104320000D03*
X261200000Y-104320000D03*
X258660000Y-106860000D03*
X261200000Y-106860000D03*
X258660000Y-109400000D03*
X261200000Y-109400000D03*
%TD*%
D18*
%TO.C,H3*%
X195000000Y-153200000D03*
%TD*%
D39*
%TO.C,J11*%
X231800000Y-156200000D03*
X231800000Y-161280000D03*
%TD*%
D18*
%TO.C,H1*%
X195000000Y-31400000D03*
%TD*%
D37*
%TO.C,RV1*%
X183770000Y-85260000D03*
X186310000Y-87800000D03*
X183770000Y-90340000D03*
%TD*%
D15*
%TO.C,M5*%
X151000000Y-122800000D03*
X151000000Y-109800000D03*
D40*
X156000000Y-112800000D03*
D17*
X156000000Y-116300000D03*
X156000000Y-119800000D03*
%TD*%
D41*
%TO.C,Pix1*%
X211325000Y-102650000D03*
X211325000Y-124650000D03*
D19*
X230749200Y-98867868D03*
X200749200Y-98867868D03*
X230749200Y-128867868D03*
X200749200Y-128867868D03*
%TD*%
D28*
%TO.C,U6*%
X177820000Y-95800000D03*
X170200000Y-95800000D03*
X162580000Y-95800000D03*
D29*
X162580000Y-109400000D03*
D28*
X166390000Y-109400000D03*
X170200000Y-109400000D03*
X174010000Y-109400000D03*
D29*
X177820000Y-109400000D03*
%TD*%
D42*
%TO.C,C7*%
X209600000Y-133200000D03*
D43*
X208600000Y-133200000D03*
D42*
X207600000Y-133200000D03*
%TD*%
D44*
%TO.C,C5*%
X232800000Y-94800000D03*
D45*
X232800000Y-93800000D03*
D44*
X232800000Y-92800000D03*
%TD*%
D46*
%TO.C,C24*%
X178800000Y-76725000D03*
X178800000Y-79675000D03*
%TD*%
D47*
%TO.C,C18*%
X177400000Y-106350000D03*
X177400000Y-103400000D03*
%TD*%
D44*
%TO.C,C3*%
X151800000Y-65200000D03*
D45*
X151800000Y-66200000D03*
D44*
X151800000Y-67200000D03*
%TD*%
D48*
%TO.C,U5*%
X213139300Y-101965100D03*
X215145900Y-101965100D03*
X217152500Y-101965100D03*
X219159100Y-101965100D03*
X221165700Y-101965100D03*
D49*
X223172300Y-101965100D03*
X223121500Y-125206100D03*
D50*
X226360000Y-107822900D03*
X226360000Y-109829500D03*
X226360000Y-111836100D03*
X226360000Y-113842700D03*
X226360000Y-115849300D03*
X226360000Y-117855900D03*
X226360000Y-119862500D03*
D48*
X221114900Y-125206100D03*
X219108300Y-125206100D03*
X217101700Y-125206100D03*
X215095100Y-125206100D03*
X213088500Y-125206100D03*
D50*
X206040000Y-116011300D03*
X206040000Y-118017900D03*
X206040000Y-111998100D03*
X206040000Y-114004700D03*
X206040000Y-107984900D03*
X206040000Y-109991500D03*
%TD*%
D51*
%TO.C,J20*%
X275067500Y-72900000D03*
D52*
X275067500Y-70400000D03*
%TD*%
D46*
%TO.C,C32*%
X176000000Y-76725000D03*
X176000000Y-79675000D03*
%TD*%
D53*
%TO.C,R10*%
X158500000Y-104400000D03*
X158500000Y-106400000D03*
%TD*%
D46*
%TO.C,C13*%
X173200000Y-76725000D03*
X173200000Y-79675000D03*
%TD*%
D47*
%TO.C,C14*%
X177400000Y-84750000D03*
X177400000Y-81800000D03*
%TD*%
D42*
%TO.C,C4*%
X230600000Y-134200000D03*
D43*
X229600000Y-134200000D03*
D42*
X228600000Y-134200000D03*
%TD*%
D51*
%TO.C,J12*%
X275067500Y-82450000D03*
D52*
X275067500Y-79950000D03*
%TD*%
D46*
%TO.C,C31*%
X178600000Y-98125000D03*
X178600000Y-101075000D03*
%TD*%
D54*
%TO.C,C11*%
X212400000Y-38600000D03*
X204400000Y-38600000D03*
%TD*%
D55*
%TO.C,R11*%
X158500000Y-101000000D03*
X158500000Y-99000000D03*
%TD*%
D54*
%TO.C,C10*%
X226800000Y-38600000D03*
X218800000Y-38600000D03*
%TD*%
D51*
%TO.C,J22*%
X275067500Y-98650000D03*
D52*
X275067500Y-96150000D03*
%TD*%
D44*
%TO.C,C23*%
X233000000Y-106800000D03*
D45*
X233000000Y-105800000D03*
D44*
X233000000Y-104800000D03*
%TD*%
D47*
%TO.C,C19*%
X174800000Y-106350000D03*
X174800000Y-103400000D03*
%TD*%
%TO.C,C15*%
X174800000Y-84750000D03*
X174800000Y-81800000D03*
%TD*%
D51*
%TO.C,J21*%
X275067500Y-108200000D03*
D52*
X275067500Y-105700000D03*
%TD*%
D46*
%TO.C,C17*%
X173400000Y-98125000D03*
X173400000Y-101075000D03*
%TD*%
%TO.C,C25*%
X176000000Y-98125000D03*
X176000000Y-101075000D03*
%TD*%
%LPD*%
M02*
