M48
; DRILL file {KiCad 9.0.7} date 2026-03-18T17:04:26-0400
; FORMAT={-:-/ absolute / inch / decimal}
; #@! TF.CreationDate,2026-03-18T17:04:26-04:00
; #@! TF.GenerationSoftware,Kicad,Pcbnew,9.0.7
; #@! TF.FileFunction,Plated,1,4,PTH
FMAT,2
INCH
; #@! TA.AperFunction,Plated,PTH,ViaDrill
T1C0.0118
; #@! TA.AperFunction,Plated,PTH,ComponentDrill
T2C0.0157
; #@! TA.AperFunction,Plated,PTH,ViaDrill
T3C0.0197
; #@! TA.AperFunction,Plated,PTH,ComponentDrill
T4C0.0236
; #@! TA.AperFunction,Plated,PTH,ComponentDrill
T5C0.0300
; #@! TA.AperFunction,Plated,PTH,ViaDrill
T6C0.0315
; #@! TA.AperFunction,Plated,PTH,ComponentDrill
T7C0.0315
; #@! TA.AperFunction,Plated,PTH,ComponentDrill
T8C0.0394
; #@! TA.AperFunction,Plated,PTH,ComponentDrill
T9C0.0591
; #@! TA.AperFunction,Plated,PTH,ComponentDrill
T10C0.0709
; #@! TA.AperFunction,Plated,PTH,ComponentDrill
T11C0.0748
; #@! TA.AperFunction,Plated,PTH,ComponentDrill
T12C0.0787
; #@! TA.AperFunction,Plated,PTH,ComponentDrill
T13C0.1063
%
G90
G05
T1
X5.9055Y-2.4803
X5.9055Y-2.9606
X5.9124Y-2.8041
X5.9291Y-2.7717
X5.937Y-1.9291
X5.937Y-2.2441
X5.9843Y-2.5118
X5.9843Y-3.9606
X5.9843Y-4.0394
X5.9843Y-4.1181
X6.0157Y-1.9055
X6.0315Y-2.7953
X6.0472Y-1.9055
X6.0551Y-3.9606
X6.0551Y-4.0394
X6.0551Y-4.1181
X6.0787Y-1.9055
X6.0787Y-2.2913
X6.0787Y-2.3307
X6.1102Y-1.9055
X6.1102Y-2.5118
X6.1417Y-1.9055
X6.2835Y-3.9843
X6.2835Y-4.1102
X6.3228Y-3.9764
X6.3465Y-5.0315
X6.4016Y-4.1674
X6.4724Y-4.0472
X6.563Y-5.3504
X6.5748Y-4.6929
X6.6142Y-3.2992
X6.6457Y-3.2992
X6.6582Y-4.7369
X6.6804Y-4.7592
X6.6929Y-3.0551
X6.8031Y-4.0394
X6.8031Y-4.0787
X7.0315Y-4.5039
X7.1969Y-4.3071
X7.3196Y-4.3891
X7.3418Y-4.3668
X7.5276Y-3.5748
X7.7717Y-3.811
X7.874Y-3.685
X7.9134Y-4.4961
X8.0315Y-5.4331
X8.0315Y-5.9213
X8.0709Y-5.1969
X8.1024Y-4.7323
X8.1024Y-5.1969
X8.126Y-4.7008
X8.1496Y-5.2047
X8.1516Y-4.7303
X8.1752Y-4.7008
X8.1779Y-5.8031
X8.1969Y-4.7323
X8.2277Y-4.4217
X8.2283Y-4.591
X8.2362Y-4.6457
X8.2913Y-5.0709
X8.3386Y-4.252
X8.3386Y-4.6142
X8.3543Y-5.0709
X8.3668Y-4.8143
X8.3828Y-5.2156
X8.3891Y-4.792
X8.4094Y-4.7323
X8.4193Y-4.5466
X8.4252Y-4.3543
X8.4252Y-4.6614
X8.4252Y-4.7008
X8.4331Y-4.811
X8.4416Y-4.5243
X8.4488Y-4.3858
X8.5512Y-4.5354
X8.5637Y-4.4534
X8.5827Y-4.4803
X8.5906Y-4.3465
X8.5984Y-4.0846
X8.5984Y-4.1161
X8.5984Y-4.378
X8.6237Y-4.5039
X8.6929Y-5.7874
X8.7008Y-4.5433
X8.7323Y-5.6693
X8.7638Y-4.7165
X8.7953Y-5.2992
X8.7953Y-5.8031
X8.8156Y-4.6188
X8.8379Y-4.6411
X8.8393Y-4.9088
X8.8425Y-5.6614
X8.8471Y-4.1607
X8.8615Y-4.8865
X8.8694Y-4.1385
X8.8898Y-5.8031
X8.9528Y-5.2913
X8.9967Y-4.0361
X9.0079Y-4.8425
X9.019Y-4.0584
X9.2047Y-4.9291
X9.2205Y-3.6378
X9.2205Y-4.315
X9.2283Y-4.1181
X9.2441Y-3.9213
X9.4094Y-5.1811
X9.8661Y-3.7402
X10.0394Y-4.0787
X10.0709Y-3.5433
X10.3386Y-4.9528
X10.3386Y-5.0
X10.3386Y-5.063
X10.4822Y-4.9282
T2
X5.9311Y-2.6063
X6.0217Y-2.6063
X6.5906Y-4.8898
X6.6811Y-4.8898
X8.2126Y-5.1988
X8.2126Y-5.2894
X8.3169Y-5.7244
X8.4075Y-5.7244
X8.9075Y-5.7165
X8.998Y-5.7165
X9.0394Y-5.2382
X9.0394Y-5.3287
X9.1201Y-3.6929
X9.128Y-4.1654
X9.2106Y-3.6929
X9.2185Y-4.1654
T3
X6.2283Y-2.1969
X6.3071Y-2.1969
X6.6693Y-4.9685
X6.748Y-3.1024
X6.748Y-3.1496
X6.748Y-3.1969
X6.748Y-3.2441
X6.7559Y-4.0
X6.7559Y-4.0394
X6.7559Y-4.0787
X6.7953Y-3.1969
X6.7953Y-3.2441
X7.0472Y-4.0394
X7.0472Y-4.0787
X7.0709Y-3.1969
X7.0709Y-3.2362
X7.0866Y-4.0394
X7.0866Y-4.0787
X7.937Y-1.3071
X7.937Y-1.3465
X7.9449Y-1.3858
X7.9606Y-1.4252
X7.9764Y-1.3071
X7.9764Y-1.3465
X7.9843Y-1.3858
X8.0Y-1.4252
X8.0079Y-1.5906
X8.0079Y-4.2598
X8.0079Y-4.2992
X8.0079Y-4.4488
X8.0079Y-4.4882
X8.0157Y-1.3071
X8.0157Y-1.3465
X8.0236Y-1.3858
X8.0394Y-1.4252
X8.0472Y-1.5906
X8.0472Y-4.2598
X8.0472Y-4.2992
X8.0472Y-4.4488
X8.0472Y-4.4882
X8.0551Y-1.3071
X8.0551Y-1.3465
X8.063Y-1.3858
X8.0787Y-1.4252
X8.0866Y-1.5906
X8.0945Y-1.3071
X8.0945Y-1.3465
X8.1024Y-1.3858
X8.1181Y-1.4252
X8.126Y-1.5906
X8.2441Y-1.3071
X8.2441Y-1.3465
X8.252Y-1.3858
X8.2677Y-1.4252
X8.2835Y-1.3071
X8.2835Y-1.3465
X8.2913Y-1.3858
X8.3071Y-1.4252
X8.315Y-1.5906
X8.3228Y-1.3071
X8.3228Y-1.3465
X8.3228Y-5.6457
X8.3307Y-1.3858
X8.3465Y-1.4252
X8.3543Y-1.5906
X8.3622Y-1.3071
X8.3622Y-1.3465
X8.3701Y-1.3858
X8.3858Y-1.4252
X8.3937Y-1.5906
X8.4016Y-1.3071
X8.4016Y-1.3465
X8.4094Y-1.3858
X8.4252Y-1.4252
X8.4252Y-4.8583
X8.4331Y-1.5906
X8.4488Y-4.6063
X8.5591Y-4.7323
X8.5669Y-1.5984
X8.5748Y-1.4331
X8.5748Y-4.2677
X8.5906Y-1.3937
X8.5984Y-1.315
X8.5984Y-1.3543
X8.6063Y-1.5984
X8.6142Y-1.4331
X8.6299Y-1.3937
X8.6378Y-1.315
X8.6378Y-1.3543
X8.6457Y-1.5984
X8.6535Y-1.4331
X8.6693Y-1.3937
X8.6772Y-1.315
X8.6772Y-1.3543
X8.685Y-1.5984
X8.6929Y-1.4331
X8.7087Y-1.3937
X8.7087Y-4.7402
X8.7165Y-1.315
X8.7165Y-1.3543
X8.7323Y-1.4331
X8.7323Y-4.4567
X8.748Y-1.3937
X8.7559Y-1.315
X8.7559Y-1.3543
X8.7874Y-4.1654
X8.7874Y-4.9921
X8.7953Y-3.9528
X8.8346Y-4.9921
X8.874Y-1.5984
X8.8819Y-1.4331
X8.8976Y-1.3937
X8.9055Y-1.315
X8.9055Y-1.3543
X8.9134Y-1.5984
X8.9134Y-5.622
X8.9213Y-1.4331
X8.937Y-1.3937
X8.9449Y-1.315
X8.9449Y-1.3543
X8.9528Y-1.5984
X8.9606Y-1.4331
X8.9764Y-1.3937
X8.9843Y-1.315
X8.9843Y-1.3543
X8.9843Y-4.1417
X8.9921Y-1.5984
X9.0Y-1.4331
X9.0157Y-1.3937
X9.0236Y-1.315
X9.0236Y-1.3543
X9.0394Y-1.4331
X9.0551Y-1.3937
X9.063Y-1.315
X9.063Y-1.3543
T5
X9.126Y-6.1496
X9.126Y-6.3496
T6
X5.9606Y-3.3307
X5.9606Y-3.3937
X5.9606Y-3.4567
X5.9606Y-3.5197
X5.9606Y-3.5827
X6.0236Y-3.3307
X6.0236Y-3.3937
X6.0236Y-3.4567
X6.0236Y-3.5197
X6.0866Y-3.3937
X6.0866Y-3.4567
X6.0866Y-3.5197
X6.1496Y-3.3937
X6.1496Y-3.4567
X6.252Y-2.3307
X6.252Y-2.3937
X6.252Y-2.4567
X6.315Y-2.3307
X6.315Y-2.3937
X6.315Y-2.4567
X6.378Y-2.3307
X6.378Y-2.3937
X6.378Y-2.4567
X6.5118Y-2.1339
X6.5118Y-2.1969
X6.5118Y-2.2598
X6.5748Y-2.1339
X6.5748Y-2.1969
X6.5748Y-2.2598
X6.5748Y-2.3228
X6.6378Y-2.1339
X6.6378Y-2.1969
X6.6378Y-2.2598
X6.6378Y-2.3228
X6.7008Y-2.1339
X6.7008Y-2.1969
X6.7008Y-2.2598
X6.7008Y-2.3228
X6.7638Y-2.1339
X6.7638Y-2.1969
X6.7638Y-2.2598
X6.7638Y-2.3228
X7.4803Y-2.2047
X7.4803Y-2.2677
X7.4803Y-2.3307
X7.4803Y-2.4213
X7.4803Y-2.4843
X7.4803Y-2.5472
X7.4803Y-2.622
X7.4803Y-2.685
X7.4803Y-2.748
X7.4803Y-2.8268
X7.4803Y-2.8898
X7.4803Y-2.9528
X7.4803Y-3.0472
X7.4803Y-3.1102
X7.4803Y-3.1732
X7.5433Y-2.2047
X7.5433Y-2.2677
X7.5433Y-2.3307
X7.5433Y-2.4213
X7.5433Y-2.4843
X7.5433Y-2.5472
X7.5433Y-2.622
X7.5433Y-2.685
X7.5433Y-2.748
X7.5433Y-2.8268
X7.5433Y-2.8898
X7.5433Y-2.9528
X7.5433Y-3.0236
X7.5433Y-3.0866
X7.5433Y-3.1496
X7.5669Y-3.2283
X7.5669Y-3.2913
X7.5669Y-3.3543
X7.6063Y-2.2047
X7.6063Y-2.2677
X7.6063Y-2.3307
X7.6063Y-2.4213
X7.6063Y-2.4843
X7.6063Y-2.5472
X7.6063Y-2.622
X7.6063Y-2.685
X7.6063Y-2.748
X7.6063Y-2.8268
X7.6063Y-2.8898
X7.6063Y-2.9528
X7.6063Y-3.0236
X7.6063Y-3.0866
X7.6063Y-3.1496
X7.6299Y-3.2283
X7.6299Y-3.2913
X7.6299Y-3.3543
X7.6693Y-2.2047
X7.6693Y-2.2677
X7.6693Y-2.3307
X7.6693Y-2.4213
X7.6693Y-2.4843
X7.6693Y-2.5472
X7.6693Y-2.622
X7.6693Y-2.685
X7.6693Y-2.748
X7.6693Y-2.8268
X7.6693Y-2.8898
X7.6693Y-2.9528
X7.6693Y-3.0236
X7.6693Y-3.0866
X7.6693Y-3.1496
X7.6929Y-3.2283
X7.6929Y-3.2913
X7.6929Y-3.3543
X7.7323Y-2.2047
X7.7323Y-2.2677
X7.7323Y-2.3307
X7.7323Y-2.4213
X7.7323Y-2.4843
X7.7323Y-2.5472
X7.7323Y-2.622
X7.7323Y-2.685
X7.7323Y-2.748
X7.7323Y-2.8268
X7.7323Y-2.8898
X7.7323Y-2.9528
X7.7323Y-3.0236
X7.7323Y-3.0866
X7.7323Y-3.1496
X7.8031Y-1.8268
X7.8031Y-1.8898
X7.8031Y-1.9528
X7.8031Y-2.0157
X7.8661Y-1.8268
X7.8661Y-1.8898
X7.8661Y-1.9528
X7.8661Y-2.0157
X7.9291Y-1.8268
X7.9291Y-1.8898
X7.9291Y-1.9528
X7.9291Y-2.0157
X7.9921Y-1.8268
X7.9921Y-1.8898
X7.9921Y-1.9528
X7.9921Y-2.0157
X8.0551Y-1.8268
X8.0551Y-1.8898
X8.0551Y-1.9528
X8.0551Y-2.0157
X8.1181Y-1.8268
X8.1181Y-1.8898
X8.1181Y-1.9528
X8.1181Y-2.0157
X8.1811Y-1.8268
X8.1811Y-1.8898
X8.1811Y-1.9528
X8.1811Y-2.0157
X8.2441Y-1.8268
X8.2441Y-1.8898
X8.2441Y-1.9528
X8.2441Y-2.0157
X8.3071Y-1.8268
X8.3071Y-1.8898
X8.3071Y-1.9528
X8.3071Y-2.0157
X8.3701Y-1.8268
X8.3701Y-1.8898
X8.3701Y-1.9528
X8.3701Y-2.0157
X8.4331Y-1.8268
X8.4331Y-1.8898
X8.4331Y-1.9528
X8.4331Y-2.0157
X8.5512Y-1.8268
X8.5512Y-1.8898
X8.5512Y-1.9528
X8.5512Y-2.0157
X8.6142Y-1.8268
X8.6142Y-1.8898
X8.6142Y-1.9528
X8.6142Y-2.0157
X8.6772Y-1.8268
X8.6772Y-1.8898
X8.6772Y-1.9528
X8.6772Y-2.0157
X8.7402Y-1.8268
X8.7402Y-1.8898
X8.7402Y-1.9528
X8.7402Y-2.0157
X8.8031Y-1.8268
X8.8031Y-1.8898
X8.8031Y-1.9528
X8.8031Y-2.0157
X8.8661Y-1.8268
X8.8661Y-1.8898
X8.8661Y-1.9528
X8.8661Y-2.0157
X8.9291Y-1.8268
X8.9291Y-1.8898
X8.9291Y-1.9528
X8.9291Y-2.0157
X8.9921Y-1.8268
X8.9921Y-1.8898
X8.9921Y-1.9528
X8.9921Y-2.0157
X9.0551Y-1.8268
X9.0551Y-1.8898
X9.0551Y-1.9528
X9.0551Y-2.0157
X9.1181Y-1.8268
X9.1181Y-1.8898
X9.1181Y-1.9528
X9.1181Y-2.0157
X9.1811Y-1.8268
X9.1811Y-1.8898
X9.1811Y-1.9528
X9.1811Y-2.0157
X9.2756Y-2.1969
X9.2756Y-2.2598
X9.2756Y-2.3228
X9.2756Y-2.4134
X9.2756Y-2.4764
X9.2756Y-2.5394
X9.2756Y-2.6142
X9.2756Y-2.6772
X9.2756Y-2.7402
X9.2756Y-2.8268
X9.2756Y-2.8898
X9.2756Y-2.9528
X9.2756Y-3.0236
X9.2756Y-3.0866
X9.2756Y-3.1496
X9.315Y-3.2283
X9.315Y-3.2913
X9.315Y-3.3543
X9.3386Y-2.1969
X9.3386Y-2.2598
X9.3386Y-2.3228
X9.3386Y-2.4134
X9.3386Y-2.4764
X9.3386Y-2.5394
X9.3386Y-2.6142
X9.3386Y-2.6772
X9.3386Y-2.7402
X9.3386Y-2.8268
X9.3386Y-2.8898
X9.3386Y-2.9528
X9.3386Y-3.0236
X9.3386Y-3.0866
X9.3386Y-3.1496
X9.378Y-3.2283
X9.378Y-3.2913
X9.378Y-3.3543
X9.4016Y-2.1969
X9.4016Y-2.2598
X9.4016Y-2.3228
X9.4016Y-2.4134
X9.4016Y-2.4764
X9.4016Y-2.5394
X9.4016Y-2.6142
X9.4016Y-2.6772
X9.4016Y-2.7402
X9.4016Y-2.8268
X9.4016Y-2.8898
X9.4016Y-2.9528
X9.4016Y-3.0236
X9.4016Y-3.0866
X9.4016Y-3.1496
X9.4409Y-3.2283
X9.4409Y-3.2913
X9.4409Y-3.3543
X9.4646Y-2.1969
X9.4646Y-2.2598
X9.4646Y-2.3228
X9.4646Y-2.4134
X9.4646Y-2.4764
X9.4646Y-2.5394
X9.4646Y-2.6142
X9.4646Y-2.6772
X9.4646Y-2.7402
X9.4646Y-2.8268
X9.4646Y-2.8898
X9.4646Y-2.9528
X9.4646Y-3.0236
X9.4646Y-3.0866
X9.4646Y-3.1496
X9.5276Y-2.1969
X9.5276Y-2.2598
X9.5276Y-2.3228
X9.5276Y-2.4134
X9.5276Y-2.4764
X9.5276Y-2.5394
X9.5276Y-2.6142
X9.5276Y-2.6772
X9.5276Y-2.7402
X9.5276Y-2.8268
X9.5276Y-2.8898
X9.5276Y-2.9528
X9.5276Y-3.0472
X9.5276Y-3.1102
X9.5276Y-3.1732
T7
X6.611Y-4.5354
X6.711Y-4.6354
X6.811Y-4.5354
X7.235Y-3.3567
X7.235Y-3.5567
X7.335Y-3.4567
T8
X5.9449Y-4.3228
X5.9449Y-4.8346
X5.9449Y-4.9685
X5.9449Y-5.4016
X6.8955Y-2.2054
X6.9034Y-5.2355
X7.2876Y-2.5344
X7.2954Y-4.9066
X9.6967Y-4.8908
X9.6997Y-2.5265
X9.9315Y-3.3307
X9.9315Y-3.4307
X10.0315Y-3.3307
X10.0315Y-3.4307
X10.0888Y-5.2198
X10.0917Y-2.1975
X10.1835Y-2.7921
X10.1835Y-2.8921
X10.1835Y-2.9921
X10.1835Y-3.0921
X10.1835Y-3.1921
X10.1835Y-3.2921
X10.1835Y-3.8071
X10.1835Y-3.9071
X10.1835Y-4.0071
X10.1835Y-4.1071
X10.1835Y-4.2071
X10.1835Y-4.3071
X10.2835Y-2.7921
X10.2835Y-2.8921
X10.2835Y-2.9921
X10.2835Y-3.0921
X10.2835Y-3.1921
X10.2835Y-3.2921
X10.2835Y-3.8071
X10.2835Y-3.9071
X10.2835Y-4.0071
X10.2835Y-4.1071
X10.2835Y-4.2071
X10.2835Y-4.3071
X10.8294Y-2.7717
X10.8294Y-2.8701
X10.8294Y-3.1476
X10.8294Y-3.2461
X10.8294Y-3.7854
X10.8294Y-3.8839
X10.8294Y-4.1614
X10.8294Y-4.2598
T9
X6.3929Y-2.9213
X6.4008Y-3.7717
X6.5429Y-3.4567
X6.5508Y-4.3071
X6.6929Y-2.9213
X6.6929Y-3.4567
X6.7008Y-3.7717
X6.7008Y-4.3071
X6.8429Y-3.4567
X6.8508Y-4.3071
X6.9929Y-2.9213
X7.0008Y-3.7717
T10
X7.9035Y-3.8924
X7.9035Y-5.0735
X9.0846Y-3.8924
X9.0846Y-5.0735
T11
X6.1417Y-4.4409
X6.1417Y-4.5787
X6.1417Y-4.7165
X6.1417Y-5.0866
X6.1417Y-5.2835
X6.8594Y-2.4321
X6.8673Y-5.0088
X6.965Y-2.5207
X6.9729Y-4.9202
X7.0706Y-2.6093
X7.0784Y-4.8317
X9.9137Y-4.8159
X9.9167Y-2.6014
X10.0192Y-4.9045
X10.0222Y-2.5128
X10.1248Y-4.9931
X10.1278Y-2.4242
T12
X6.3929Y-3.4567
X6.4008Y-4.3071
X6.9929Y-3.4567
X7.0008Y-4.3071
T13
X7.9921Y-1.2047
X8.2756Y-1.2047
X8.7244Y-1.2047
X9.0079Y-1.2047
T4
G00X5.9931Y-3.8732
M15
G01X5.9616Y-3.8732
M16
G05
G00X5.9931Y-4.2134
M15
G01X5.9616Y-4.2134
M16
G05
G00X6.1644Y-3.8732
M15
G01X6.1211Y-3.8732
M16
G05
G00X6.1644Y-4.2134
M15
G01X6.1211Y-4.2134
M16
G05
G00X7.8681Y-0.9469
M15
G01X7.8681Y-0.9902
M16
G05
G00X8.3996Y-0.9469
M15
G01X8.3996Y-0.9902
M16
G05
G00X8.6004Y-0.9469
M15
G01X8.6004Y-0.9902
M16
G05
G00X9.1319Y-0.9469
M15
G01X9.1319Y-0.9902
M16
G05
M30
